<?xml version="1.0" encoding="UTF-8"?>
<svg id="Layer_1" data-name="Layer 1" xmlns="http://www.w3.org/2000/svg" viewBox="0 0 1745.377676 402.820152">
  <defs>
    <style>
      .cls-1 {
        fill: #571fff;
        stroke-width: 0px;
      }
    </style>
  </defs>
  <path class="cls-1" d="m309.924397,192.270271c-.216595-2.564281-.177294-3.349867-.021904-3.824298.068777-.209273.068214-.456095.000188-.546901-.128855-.155265-.284684-.930088-.580569-2.070324-.06715-.277925-.268976-.663803-.453091-.864377-.208459-.227046-.300955-.466921-.253831-.650536.217221-.844789.002003-1.766929-.313596-1.345442-.173601.231302-.428559-1.00481-.261904-1.276101.139932-.236809-.034107-1.014948-.469863-1.72575-.214655-.365602-.385065-.805675-.376553-.977086.017273-.309028-.452465-1.362589-.873827-1.95993-.114274-.164402-.324986-.679761-.464793-1.147809-.140871-.467923-.356027-.930401-.477185-1.029718-.123223-.098879-.330243-.563172-.453779-1.035412-.124537-.479813-.311781-.889973-.421675-.92627-.107453-.037236-.443954-.578692-.745973-1.202756-.302957-.627068-.630948-1.139235-.730765-1.144742-.097815-.00557-.22786-.177294-.285998-.37987-.087489-.30496-.407344-.620184-.705295-.758551-.516173-1.647085-1.131788-3.329841-1.666923-4.681791-.399521-1.001305-.789905-1.88696-.801608-1.996415-.010764-.05332-.197132-.514546-.500653-1.208951-.181236-.370608-.398207-.814187-.634264-1.296816-.056949-.203703-.236433-.596778-.469112-1.015324-.309841-.559917-.610296-1.22347-.671375-1.477677-.060078-.255208-.198947-.494457-.309591-.535198-.119468-.04412-.229299-.245445-.27248-.502843-.041867-.23587-.214029-.595902-.405716-.7864-.247448-.250264-.296887-.374739-.175354-.443453.220162-.123286-.36022-1.211454-.658484-1.233546-.161711-.012329-.202264-.123661-.155891-.425617.05019-.323797.005945-.42787-.207333-.495646-.212965-.067338-.245445-.138493-.156141-.344762.089179-.206457.062081-.264908-.128105-.282055-.13236-.011452-.267787-.154264-.301456-.318791-.033731-.164339-.117591-.264783-.185242-.223041-.064396.039552-.277675-.168657-.469174-.464731-.19175-.296762-.72288-1.032346-1.179976-1.632816-.656731-.903678-2.109-2.902159-3.216318-4.425895-.085799-.170597-1.407523-1.849161-2.926127-3.73731-.20364-.255708-.338441-.428371-.59853-.724632-.254707-.297951-.501091-.586139-.736523-.861436-.467422-.553659-.891099-1.055376-1.249441-1.479742-.701602-.862812-1.185045-1.375356-1.17547-1.428675.006446-.09575-.067338-.209461-.169158-.256146-.024657-.011452-.298014-.285998-.770755-.770817-.482441-.474932-1.123715-1.202192-1.989969-2.009683-.861561-.811808-1.852665-1.805541-2.999723-2.842518-1.170213-1.009378-2.395436-2.182658-3.777738-3.27915-5.41869-4.542047-11.154793-8.107946-12.190769-8.711921-1.018515-.645654-3.410572-1.960118-5.287832-2.969684-.950614-.481503-2.093542-1.060445-3.169945-1.605718-1.096179-.499714-2.12452-.968575-2.821428-1.286302-4.365754-1.89616-7.316789-3.003791-10.784936-4.176821-1.832827-.643777-5.267305-1.687888-7.626443-2.296119-7.369108-1.895221-12.164172-2.592004-16.818678-3.177017-2.474852-.295698-7.146192-.702729-10.384289-.735459-3.404376-.094811-9.999287-.166843-16.511715.550968-3.294232.286999-6.475568.895668-9.168954,1.372477-2.653772.630447-4.850011,1.06032-6.076422,1.425045-.920951.254957-2.208254.611234-3.540303.979965-1.342438.346514-2.664724.876455-3.750515,1.228226-2.181594.68652-5.173996,1.968567-6.761315,2.606711-1.297942.508788-2.805595,1.289869-5.727029,2.67336-1.417285.765123-3.179458,1.701969-5.373881,2.952787-1.074338.661487-2.262074,1.392878-3.579229,2.203936-1.324915.802046-2.686815,1.812551-4.236211,2.858039-1.037415.662489-2.909794,2.158689-5.193083,3.911475-2.211696,1.834892-4.785614,3.990828-7.029602,6.183437-.568429.540455-1.161076,1.103939-1.768806,1.681755-.582572.602723-1.179538,1.220341-1.782073,1.843654-.601785.624377-1.209139,1.254385-1.813114,1.880952-.590457.638958-1.151126,1.298443-1.714298,1.932207-2.286231,2.50777-4.160487,4.995576-5.429704,6.554921-4.350547,5.740171-7.46298,10.686182-10.723043,16.991966-.40046.792533-.831584,1.591074-1.231606,2.434612-.384564.851986-.779329,1.726814-1.186547,2.629115-.848293,1.788644-1.599085,3.758463-2.413021,5.878539-.428434,1.05087-.807803,2.166637-1.178537,3.336287-.37574,1.167084-.787902,2.370215-1.169462,3.63912-.686833,2.565595-1.470167,5.318184-2.037156,8.396259l-.393638,1.929891c-.11515.648345-.198446,1.305702-.298389,1.959868-.18568,1.31146-.394702,2.622544-.55441,3.94408-.217158,2.660656-.512981,5.320311-.504658,8.006-.123473,2.675739.05357,5.356546.167093,8.012008.093434,1.326605.269351,2.645136.404465,3.957535.073533.655918.146879,1.309958.220037,1.961933.11296.647532.225544,1.292936.337753,1.936087.234806,1.284925.467923,2.560714.698974,3.825425.312532,1.248941.622311,2.486992.928899,3.71234.157455.609545.314097,1.21596.469925,1.818934.177669.569242.354274,1.135355.529878,1.697964.35296,1.125029.701665,2.236478,1.045551,3.332595.770755,2.169704,1.514475,4.28396,2.313454,6.296772.418045,1.000805.828455,1.983398,1.230604,2.946154.392011.966698.802171,1.903607,1.245624,2.803155.344136.712429.972142,2.012436,1.70685,3.533357.814187,1.484373,1.74659,3.184464,2.601016,4.742183,1.850225,3.042529,3.485357,5.731347,3.640934,5.987181.112334.281993.327239.571057.484632.651412.155766.080355.425304.360407.603662.626379.091307.130232.577002.823511,1.286427,1.836206.758927.978338,1.757229,2.265203,2.812292,3.625289,1.098244,1.32504,2.627801,3.142284,4.273572,4.937249.840533.88215,1.692018,1.775878,2.504015,2.628051.808116.854927,1.651215,1.596769,2.3587,2.286794,4.05197,3.85609,11.516327,10.387167,21.809309,16.054994,5.132129,2.826372,10.92055,5.4461,17.080331,7.561921,6.156589,2.12427,12.674587,3.74457,19.181946,4.798131,6.508047,1.061071,12.999073,1.55922,19.122807,1.636634,6.125361.050816,11.872166-.345826,16.966182-.880961,2.537183-.324861,4.931867-.582635,7.106766-.973206,1.091548-.177106,2.13641-.346577,3.130456-.50785,1.031157-.212214,2.009495-.413539,2.930696-.603161.923517-.197132,1.789771-.382061,2.594445-.553785.795037-.211338,1.529181-.406467,2.198116-.584199,1.335241-.365414,2.425662-.615803,3.196167-.861185,1.042171-.356277,4.270443-1.274036,7.024658-2.447253,1.358521-.530504,2.714477-1.066828,3.974682-1.677875,1.267089-.595151,2.507331-1.126782,3.604575-1.690955,2.173646-1.163892,4.005097-2.054366,4.976175-2.662033.33331-.201513,1.375543-.831897,2.786383-1.685197,1.418349-.844914,3.089215-2.079837,4.836243-3.267635,1.694459-1.254698,3.258373-2.496067,4.468013-3.415578,1.156508-.979527,1.950731-1.649463,2.107811-1.765239.196131-.144563.823449-.657545,1.72575-1.411653.881274-.77501,1.993912-1.83533,3.236344-2.996782,1.257452-1.148059,2.487243-2.541438,3.755959-3.845764,1.260018-1.312711,2.358825-2.706028,3.362008-3.86216,1.082411-1.232419,1.952859-2.415337,2.117198-2.491123.129106-.102571,1.969568-2.304004,3.784684-5.094767.46373-.691214.926896-1.381676,1.367032-2.037782.411411-.673628.801295-1.31196,1.14856-1.880577.699412-1.135543,1.22735-1.99266,1.414407-2.296306.378744-.605602,1.725312-3.015369,2.978008-5.365933,1.170964-2.390179,2.553392-5.206037,2.975317-6.296772.570181-1.336242,1.149812-2.584807,1.656159-3.926807.487824-1.349822.996987-2.758847,1.576994-4.363627.522932-1.622991,1.050808-3.46289,1.692331-5.638288.265409-1.101373.551532-2.288484.862562-3.579041.151886-.64628.309779-1.318469.474306-2.01882.131859-.706421.269101-1.441254.411975-2.206689.353523-1.881891.693905-3.680486.891788-5.411368.211275-1.728191.493894-3.365575.58833-4.930366.127354-1.562788.247698-3.038962.360845-4.427522.046874-1.390813.090743-2.693825.131672-3.908158.171223-7.677322-.274796-12.045517-.392261-14.619122Zm-28.934474,45.864672c-.326363.726697-.66374,1.611351-1.064388,2.395999-.395578.785962-.762369,1.514662-1.004497,1.99579-.25114.480126-.507599,1.038729-.84191,1.646146-.340632.603349-.720439,1.275976-1.142802,2.024139-.799542,1.520169-1.938527,3.240913-3.244543,5.319373-1.024899,1.458026-2.47942,3.590243-3.371771,4.630975-.478123.606228-.985785,1.249754-1.531434,1.941594-.575688.664804-1.191554,1.375919-1.856671,2.143983-.641148.788591-1.406834,1.563413-2.216828,2.416463-.403589.427495-.822385.871198-1.25764,1.3323-.446958.44871-.933655.890286-1.42442,1.363903-1.630876,1.64552-3.935756,3.491177-4.936311,4.319256-.519427.389883-1.383742,1.038542-2.357761,1.76962-.952617.758927-2.114507,1.453833-3.084146,2.148802-1.978267,1.333864-4.78067,2.969434-6.198832,3.665466-6.054081,3.135025-10.43329,4.538292-14.557167,5.690169-1.034286.283369-2.046418.584262-3.098602.776763-1.065139.212339-2.055179.474619-3.242853.679323-1.195246.203828-2.436552.415479-3.755646.640397-1.319971.210274-2.722612.369357-4.231892.58276-2.123456.274921-3.858343.386254-5.262298.54615-1.404581.095437-2.481673.168532-3.297111.223917-1.630689.135927-2.212072.178921-2.271086.25721-.111958.152386-.149758.156016-.156955.009763-.00363-.073721-.389132-.116214-1.438688-.129106-.524621.001064-1.21546.002503-2.107998.004318-.889347-.024094-1.979643-.05357-3.306185-.089429-5.023424-.206957-9.063254-.610546-12.261987-1.16164-1.612164-.222227-3.006545-.50979-4.228137-.766186-1.227162-.236183-2.275216-.463354-3.157617-.708737-1.775502-.453591-2.957731-.746411-3.674916-1.012883-.725321-.242629-1.01814-.363036-1.035475-.410911-.048188-.136178-.155953-.171912-.350394-.113523-.18061.056887-2.752151-.571307-7.06784-2.244551-3.380219-1.247439-7.090369-3.070003-9.978697-4.596993-1.410839-.819256-2.682184-1.463283-3.54531-2.025078-.873326-.545962-1.422542-.87996-1.496576-.912502-.088365-.036986-.185992-.101883-.219474-.142749-.033356-.041179-.307463-.227609-.849044-.574124-.537764-.352084-1.302824-.9207-2.370403-1.654657-2.116885-1.488315-5.312739-3.84251-9.35213-7.695909-4.604691-4.363877-8.578246-9.280725-11.949016-14.673819-3.379218-5.387587-6.17674-11.240905-8.38318-17.5547-.162962-.455844-.34908-.976523-.55416-1.550146-.180736-.584575-.378181-1.223157-.588517-1.903607-.213028-.679448-.439135-1.400701-.674567-2.151868-.234305-.749289-.371297-1.460905-.574624-2.223837-.190248-.754296-.384752-1.525364-.580632-2.301876-.140746-.789967-.282493-1.585442-.423177-2.374909-.343323-1.566793-.454906-3.153299-.635766-4.606506-.398645-4.436847-.416418-8.229354-.078164-11.642742.083984-.852987.10351-1.684384.229049-2.494565.118279-.810369.23393-1.602402.347641-2.38148.174352-1.562788.572872-3.053669.856992-4.544175,1.369848-5.922409,3.194227-11.687988,7.191689-19.385774.749602-1.524988,2.099863-3.872987,3.659333-6.421747.835089-1.24287,1.638198-2.587373,2.543504-3.843949.922515-1.244435,1.768806-2.517282,2.653835-3.626541,4.646808-6.024542,10.345989-11.776541,15.572928-15.909367,1.331674-.998051,2.561903-1.993975,3.757524-2.84208,1.207387-.828393,2.323592-1.594203,3.325836-2.281913,2.08234-1.237551,3.638932-2.286919,4.633666-2.753527.642337-.343072,1.642016-.876956,2.735879-1.461218,1.103689-.558791,2.328536-1.101248,3.361195-1.60503,1.025587-.523432,2.006554-.86444,2.699144-1.159449.698098-.27974,1.131287-.453341,1.131287-.453341.012454.032042.523933-.196131,1.448826-.532507.926959-.32411,2.258132-.789655,3.87524-1.355079,3.262504-.997488,7.708738-2.200744,12.419379-2.880443,1.178724-.127854,2.370153-.257085,3.559015-.386066,1.185859-.138869,2.488745-.162962,3.70677-.255395,1.23461-.060266,2.453824-.063833,3.636241-.103698,1.183856.009262,2.332791.018274,3.430535.026848,4.392352.122222,7.955935.490202,9.67017.673941,1.035788.074785,2.320525.271103,3.650822.460851-.86081.283933-1.686636.570494-2.215952.783271-2.970247,1.097556-4.875607,1.990533-7.088241,3.029074-1.159199.582509-3.297612,1.671742-4.693682,2.51991-4.393666,2.583994-6.97184,4.584853-9.429168,6.563557-1.293374,1.068456-3.654014,3.168256-5.151591,4.759643-1.629562,1.597896-4.622276,4.971982-7.096252,8.557532-2.506831,3.566713-4.411314,7.338317-5.159477,8.865246-.308089.556788-.632137,1.384054-1.013008,2.220145-.38131.836653-.747036,1.713108-.996362,2.430419-.258525.713368-.601722,1.571737-.877081,2.402883-.259276.836841-.50447,1.628436-.673128,2.172958-.30108.880085-.552157,1.989782-1.060883,4.090458-.238248,1.053436-.452653,2.37372-.747725,4.041957-.101883.840971-.21453,1.770684-.339443,2.801778-.131046,1.031032-.158457,2.17252-.250389,3.424965-.072845.82251-.048188,2.436739-.045747,4.371449.049878.965822.103948,2.012061.159145,3.080391.092871,1.064763.221852,2.148489.331432,3.197982.122848,1.047616.335187,2.172583.511917,3.325023.191562,1.149749.476934,2.301688.70567,3.417456.538202,2.211383,1.101436,4.22213,1.540696,5.495352,1.505838,4.581536,3.075072,8.156259,5.343592,12.292527.568429,1.034411,1.178349,2.105182,1.893343,3.20618.677258,1.125092,1.466349,2.271962,2.332604,3.497184,1.751534,2.432359,3.854025,5.15979,6.704679,8.094428,4.745249,4.957276,10.4214,9.34775,16.325222,12.606749,5.895499,3.276334,11.982122,5.403795,17.239351,6.554858.522243.09963,1.475236.281492,2.590189.494269,1.114703.214905,2.409078.336564,3.587114.501028,2.36427.228172,4.462693.374676,4.65751.381497.196444.031917.435756.031103.539704-.001877.103322-.03248.358968-.05382.571933-.048063.105888.00169.668997.010764,1.491757.024094.821947-.008699,1.901792-.064146,3.042905-.104887,1.1408-.043056,2.704151-.213654,4.307929-.368918,1.59364-.234368,3.23672-.426994,4.51232-.707172,3.628293-.688898,9.998536-2.120953,17.038339-5.349975,5.970972-2.667227,12.392532-6.608679,18.069496-11.498616-.149695.355401-.300141.711678-.464981,1.089358Zm2.409955-45.24768c-14.226986,3.86022-15.522801,5.478768-19.904513,20.60405-.227985.786901-.820132,1.371726-1.683945,1.406584-.038613.002128-.077288.002879-.115901.002253-.83246-.012579-1.468602-.537451-1.717552-1.299632-4.783299-14.646158-6.15177-16.864362-20.930163-20.799242-.999178-.266034-1.58563-1.036476-1.606219-1.873443-.024532-.932904.552157-1.598834,1.402266-1.809234,13.666568-3.382472,17.129458-6.484392,20.681651-20.73228.189622-.760742.772632-1.315152,1.58926-1.314777.00801.000125.017335.00025.02666.000375.785774.011953,1.43994.534635,1.525802,1.290057,1.629437,14.337756,9.045856,19.376825,20.823086,20.40479.990854.086488,1.670553.968513,1.665296,2.022199-.004756,1.103001-.754296,1.826569-1.755727,2.098298Z"/>
  <g>
    <path class="cls-1" d="m424.905433,301.023995c-4.917969-.167969-9.210938-.335938-12.875-.5-14-.667969-24.085938-1-30.25-1-5,0-8.5-.539062-10.5-1.625-2-1.082031-3-3.125-3-6.125,0-3.5,2.25-6.582031,6.75-9.25,5.664062-3,9.289062-6,10.875-9,1.582031-3,2.375-8,2.375-15v-93c0-7-.835938-12-2.5-15-1.667969-3-5.335938-6-11-9-4.5-2.832031-6.75-5.914062-6.75-9.25,0-3,1-5.039062,3-6.125,2-1.082031,5.5-1.625,10.5-1.625,10,0,21-.332031,33-1,9.664062-.332031,16.5-.5,20.5-.5,21.164062,0,39.789062,3.460938,55.875,10.375,16.082031,6.917969,28.625,17.210938,37.625,30.875,9,13.667969,13.5,30.335938,13.5,50,0,28.667969-8.917969,50.335938-26.75,65-17.835938,14.667969-42.585938,22-74.25,22-5.835938,0-11.210938-.085938-16.125-.25Zm61.125-36.875c9-12.25,13.5-29.457031,13.5-51.625,0-14.832031-2.710938-27.664062-8.125-38.5-5.417969-10.832031-12.917969-19.164062-22.5-25-9.585938-5.832031-20.460938-8.75-32.625-8.75-3.5,0-5.960938.710938-7.375,2.125-1.417969,1.417969-2.125,3.875-2.125,7.375v120.75c0,5,1.5,8.25,4.5,9.75s8.082031,2.25,15.25,2.25c17.332031,0,30.5-6.125,39.5-18.375Z"/>
    <path class="cls-1" d="m558.52848,299.023995c-3.5-1.332031-5.25-3.5-5.25-6.5,0-3.164062,1.664062-5.414062,5-6.75,3.832031-1.332031,6.625-3.039062,8.375-5.125,1.75-2.082031,2.832031-4.5,3.25-7.25.414062-2.75.625-6.875.625-12.375v-48.25c0-3.832031-.417969-6.75-1.25-8.75-.835938-2-2.667969-3.164062-5.5-3.5-4-.332031-6.960938-.789062-8.875-1.375-1.917969-.582031-2.875-1.957031-2.875-4.125,0-2.332031.832031-4.125,2.5-5.375,1.664062-1.25,4.25-2.539062,7.75-3.875,9.164062-3,16.332031-5.25,21.5-6.75,5.164062-1.5,9.664062-2.25,13.5-2.25,3.664062,0,6.25.625,7.75,1.875s2.25,3.542969,2.25,6.875v10.5c0,3.167969.332031,4.75,1,4.75.332031,0,1.75-2.332031,4.25-7,2.5-4.664062,6.289062-8.914062,11.375-12.75,5.082031-3.832031,11.539062-5.75,19.375-5.75,8.164062,0,14.539062,2.625,19.125,7.875,4.582031,5.25,6.875,12.625,6.875,22.125,0,5.835938-1.75,11.085938-5.25,15.75-3.5,4.667969-8.167969,7-14,7-3.835938,0-7.125-1.164062-9.875-3.5-2.75-2.332031-3.960938-5.75-3.625-10.25.164062-.664062.25-1.832031.25-3.5,0-6-3.085938-9-9.25-9-3.5,0-6.792969,1.5-9.875,4.5-3.085938,3-5.585938,7.210938-7.5,12.625-1.917969,5.417969-2.875,11.542969-2.875,18.375v23.5c0,5.5.207031,9.625.625,12.375.414062,2.75,1.457031,5.125,3.125,7.125,1.664062,2,4.414062,3.75,8.25,5.25,1.664062.835938,2.957031,1.792969,3.875,2.875.914062,1.085938,1.375,2.460938,1.375,4.125,0,3-1.625,5.167969-4.875,6.5s-9.875,2-19.875,2h-21c-10,0-16.75-.667969-20.25-2Z"/>
    <path class="cls-1" d="m705.15348,293.773995c-9.417969-5.832031-16.625-13.664062-21.625-23.5-5-9.832031-7.5-20.582031-7.5-32.25,0-12.164062,2.914062-23,8.75-32.5,5.832031-9.5,13.582031-16.832031,23.25-22,9.664062-5.164062,20.164062-7.75,31.5-7.75,10.5,0,19.664062,2.210938,27.5,6.625,7.832031,4.417969,13.832031,9.917969,18,16.5,4.164062,6.585938,6.25,13.125,6.25,19.625,0,6.335938-1.5,10.835938-4.5,13.5-3,2.667969-8.085938,4.5-15.25,5.5l-50,7.25c-1.667969.335938-2.835938.792969-3.5,1.375-.667969.585938-1,1.460938-1,2.625,0,4.335938,1.332031,8.75,4,13.25,2.664062,4.5,6.5,8.292969,11.5,11.375,5,3.085938,10.914062,4.625,17.75,4.625,7.332031,0,13.789062-1.5,19.375-4.5,5.582031-3,10.039062-6.582031,13.375-10.75,1.332031-1.5,2.664062-2.25,4-2.25,2,0,3.457031.585938,4.375,1.75.914062,1.167969,1.375,2.5,1.375,4,0,.667969-.167969,1.5-.5,2.5-3.335938,9.335938-9.5,17.292969-18.5,23.875-9,6.585938-20.75,9.875-35.25,9.875-12.835938,0-23.960938-2.917969-33.375-8.75Zm44.125-70.25c2.832031-.5,4.832031-1.332031,6-2.5,1.164062-1.164062,1.75-2.832031,1.75-5,0-3.5-.917969-7.125-2.75-10.875-1.835938-3.75-4.460938-6.914062-7.875-9.5-3.417969-2.582031-7.292969-3.875-11.625-3.875-6.335938,0-11.585938,2.585938-15.75,7.75-4.167969,5.167969-6.25,12.167969-6.25,21,0,3.167969.289062,5.375.875,6.625.582031,1.25,1.539062,1.875,2.875,1.875.5,0,1.414062-.164062,2.75-.5l30-5Z"/>
    <path class="cls-1" d="m813.27555,292.648995c-6.5-6.582031-9.75-15.039062-9.75-25.375,0-11.5,5-20.832031,15-28,10-7.164062,23.332031-11.164062,40-12,6-.332031,10.414062-.832031,13.25-1.5,2.832031-.664062,4.707031-1.625,5.625-2.875.914062-1.25,1.207031-3.125.875-5.625l-.5-5.25c-1-6.664062-2.917969-11.707031-5.75-15.125-2.835938-3.414062-7.085938-5.125-12.75-5.125-5.335938,0-9.792969,1.5-13.375,4.5-3.585938,3-5.710938,7.417969-6.375,13.25-1.667969,8.667969-7.25,13-16.75,13-3,0-5.667969-1.039062-8-3.125-2.335938-2.082031-3.5-5.039062-3.5-8.875,0-6.664062,2.539062-12.664062,7.625-18,5.082031-5.332031,11.914062-9.539062,20.5-12.625,8.582031-3.082031,18.039062-4.625,28.375-4.625,15.664062,0,27,3.5,34,10.5s11.332031,17.585938,13,31.75l5.75,45c.664062,5.5,1.664062,9.210938,3,11.125,1.332031,1.917969,3.082031,2.875,5.25,2.875,2,0,3.832031-.707031,5.5-2.125,1.664062-1.414062,2.914062-2.125,3.75-2.125,3.164062,0,4.75,2,4.75,6,0,3.5-1.167969,7.042969-3.5,10.625-2.335938,3.585938-5.542969,6.585938-9.625,9-4.085938,2.414062-8.625,3.625-13.625,3.625-6.835938,0-12.167969-1.542969-16-4.625-3.835938-3.082031-6.75-7.625-8.75-13.625-.5-1.664062-1.25-2.5-2.25-2.5-.5,0-2.167969,1.960938-5,5.875-2.835938,3.917969-7.460938,7.542969-13.875,10.875-6.417969,3.332031-15.125,5-26.125,5-14,0-24.25-3.289062-30.75-9.875Zm63.5-17.875c4.332031-4.832031,6.5-11.082031,6.5-18.75,0-2.332031-.085938-4.082031-.25-5.25l-.5-3c-.5-3.5-1.75-5.707031-3.75-6.625-2-.914062-6.167969-1.375-12.5-1.375-8.835938,0-15.292969,1.917969-19.375,5.75-4.085938,3.835938-6.125,9-6.125,15.5,0,6.835938,1.707031,12.042969,5.125,15.625,3.414062,3.585938,8.375,5.375,14.875,5.375,6.332031,0,11.664062-2.414062,16-7.25Z"/>
    <path class="cls-1" d="m955.144691,298.648995c-3.417969-1.25-5.125-3.289062-5.125-6.125,0-1.664062.414062-3,1.25-4,.832031-1,2.164062-1.914062,4-2.75,3.832031-1.5,6.582031-3.289062,8.25-5.375,1.664062-2.082031,2.707031-4.5,3.125-7.25.414062-2.75.625-6.957031.625-12.625v-47.25c0-4.164062-.417969-7.207031-1.25-9.125-.835938-1.914062-2.667969-3.039062-5.5-3.375-3.835938-.164062-6.75-.582031-8.75-1.25-2-.664062-3-2.082031-3-4.25,0-2.332031.75-4.125,2.25-5.375s3.914062-2.539062,7.25-3.875c8.832031-3,16.039062-5.289062,21.625-6.875,5.582031-1.582031,10.289062-2.375,14.125-2.375,3.5,0,6.039062.667969,7.625,2,1.582031,1.335938,2.375,3.585938,2.375,6.75v9c0,2.167969.082031,3.75.25,4.75.164062,1,.5,1.5,1,1.5.164062,0,1.5-2.207031,4-6.625,2.5-4.414062,6.875-8.664062,13.125-12.75,6.25-4.082031,14.039062-6.125,23.375-6.125,7.5,0,14.039062,1.917969,19.625,5.75,5.582031,3.835938,9.957031,9.335938,13.125,16.5.664062,1.335938,1.164062,2.210938,1.5,2.625.332031.417969.75.625,1.25.625s2-2.332031,4.5-7c2.5-4.664062,6.539062-8.914062,12.125-12.75,5.582031-3.832031,12.957031-5.75,22.125-5.75,10.5,0,19.25,3.460938,26.25,10.375,7,6.917969,11.414062,18.125,13.25,33.625l4.5,40c.664062,7,1.332031,11.875,2,14.625.664062,2.75,1.707031,4.792969,3.125,6.125,1.414062,1.335938,3.875,2.75,7.375,4.25,1.832031,1.167969,3.207031,2.335938,4.125,3.5.914062,1.167969,1.375,2.667969,1.375,4.5,0,2.5-1.210938,4.460938-3.625,5.875-2.417969,1.414062-6.960938,2.125-13.625,2.125l-15-.25-15,.25c-8.335938,0-14.042969-.585938-17.125-1.75-3.085938-1.164062-4.625-3.25-4.625-6.25,0-3.332031,1.75-5.832031,5.25-7.5,4-1.332031,6.664062-2.832031,8-4.5,1.332031-1.664062,2-4.75,2-9.25,0-1.332031-.335938-5.664062-1-13l-3.5-32.25c-1.667969-16.664062-7.917969-25-18.75-25-3.5,0-6.960938,1.210938-10.375,3.625-3.417969,2.417969-6.210938,6.167969-8.375,11.25-2.167969,5.085938-3.25,11.292969-3.25,18.625v26c0,5.667969.164062,10,.5,13,.332031,3,1.289062,5.667969,2.875,8,1.582031,2.335938,4.125,4.335938,7.625,6,1.832031,1.167969,2.75,3,2.75,5.5,0,2.667969-.960938,4.625-2.875,5.875-1.917969,1.25-5.042969,1.875-9.375,1.875l-19.75-.25-19,.25c-4.835938,0-8.210938-.667969-10.125-2-1.917969-1.332031-2.875-3.332031-2.875-6,0-3.332031,1.332031-5.664062,4-7,4.164062-1.832031,6.789062-4.582031,7.875-8.25,1.082031-3.664062,1.625-9.25,1.625-16.75v-31.75c0-18.664062-6.417969-28-19.25-28-3.335938,0-6.792969,1.167969-10.375,3.5-3.585938,2.335938-6.585938,6.125-9,11.375-2.417969,5.25-3.625,11.960938-3.625,20.125v24.75c0,8,.539062,13.710938,1.625,17.125,1.082031,3.417969,3.789062,5.960938,8.125,7.625,1.332031.667969,2.375,1.710938,3.125,3.125.75,1.417969,1.125,2.875,1.125,4.375,0,2.667969-1.375,4.625-4.125,5.875s-8.625,1.875-17.625,1.875l-10.75-.25-10.25.25c-10,0-16.710938-.625-20.125-1.875Z"/>
    <path class="cls-1" d="m1215.516761,296.523995c-6-2.5-11.085938-5.832031-15.25-10-5-5-7.5-11-7.5-18,0-3.664062,1.039062-6.707031,3.125-9.125,2.082031-2.414062,4.957031-3.625,8.625-3.625,3.164062,0,5.957031.875,8.375,2.625,2.414062,1.75,4.625,4.875,6.625,9.375,1.5,5,4.289062,9.085938,8.375,12.25,4.082031,3.167969,9.125,4.75,15.125,4.75,6.832031,0,12.125-1.332031,15.875-4,3.75-2.664062,5.625-6.25,5.625-10.75,0-4.832031-2.085938-8.914062-6.25-12.25-4.167969-3.332031-11.417969-6.414062-21.75-9.25-14.5-4-24.75-9.039062-30.75-15.125-6-6.082031-9-14.289062-9-24.625,0-6.664062,2.164062-12.539062,6.5-17.625,4.332031-5.082031,10.082031-9,17.25-11.75,7.164062-2.75,14.914062-4.125,23.25-4.125,10.5,0,20.332031,1.835938,29.5,5.5,6.5,2.335938,11.832031,5.585938,16,9.75,5,5.335938,7.5,11.25,7.5,17.75,0,3.167969-1,5.875-3,8.125s-4.75,3.375-8.25,3.375c-3.167969,0-5.875-.75-8.125-2.25s-4.292969-4.25-6.125-8.25c-1.5-5-4.125-8.957031-7.875-11.875-3.75-2.914062-8.625-4.375-14.625-4.375-4.667969,0-8.5,1.085938-11.5,3.25-3,2.167969-4.5,4.917969-4.5,8.25,0,4.835938,1.832031,8.835938,5.5,12,3.664062,3.167969,10.5,5.917969,20.5,8.25,15.832031,3.835938,27,8.960938,33.5,15.375,6.5,6.417969,9.75,14.460938,9.75,24.125,0,12.5-5.085938,22-15.25,28.5-10.167969,6.5-23.835938,9.75-41,9.75-11.167969,0-21.25-2-30.25-6Z"/>
    <path class="cls-1" d="m1318.512855,299.023995c-3.5-1.332031-5.25-3.5-5.25-6.5,0-3.164062,1.664062-5.414062,5-6.75,3.832031-1.332031,6.625-3.039062,8.375-5.125,1.75-2.082031,2.832031-4.5,3.25-7.25.414062-2.75.625-6.875.625-12.375v-48.25c0-4-.417969-7-1.25-9-.835938-2-2.667969-3.082031-5.5-3.25-3.835938-.164062-6.75-.582031-8.75-1.25-2-.664062-3-2.082031-3-4.25,0-2.332031.832031-4.125,2.5-5.375,1.664062-1.25,4.25-2.539062,7.75-3.875,17-6,28.664062-9,35-9,3.664062,0,6.25.625,7.75,1.875s2.25,3.460938,2.25,6.625v75.5c0,5.5.207031,9.625.625,12.375.414062,2.75,1.457031,5.125,3.125,7.125,1.664062,2,4.414062,3.75,8.25,5.25,1.664062.835938,2.957031,1.792969,3.875,2.875.914062,1.085938,1.375,2.460938,1.375,4.125,0,3-1.625,5.167969-4.875,6.5s-9.875,2-19.875,2h-21c-10,0-16.75-.667969-20.25-2Zm10.5-142.25c-4.5-3.164062-6.75-7.332031-6.75-12.5,0-5,2.25-9.039062,6.75-12.125,4.5-3.082031,10.332031-4.625,17.5-4.625,7,0,12.625,1.542969,16.875,4.625,4.25,3.085938,6.375,7.125,6.375,12.125,0,5.167969-2.125,9.335938-6.375,12.5-4.25,3.167969-9.875,4.75-16.875,4.75-7.167969,0-13-1.582031-17.5-4.75Z"/>
    <path class="cls-1" d="m1411.887855,294.648995c-7.085938-5.25-12.542969-12.582031-16.375-22-3.835938-9.414062-5.75-20.125-5.75-32.125s2.332031-22.957031,7-32.875c4.664062-9.914062,11.289062-17.75,19.875-23.5,8.582031-5.75,18.539062-8.625,29.875-8.625,6.664062,0,11.957031.917969,15.875,2.75,3.914062,1.835938,7.207031,3.835938,9.875,6,2.664062,2.167969,4.332031,3.25,5,3.25.832031,0,1.375-.914062,1.625-2.75.25-1.832031.375-5.082031.375-9.75v-15.75c0-3.832031-.417969-6.707031-1.25-8.625-.835938-1.914062-2.585938-3.125-5.25-3.625-1-.164062-2.667969-.414062-5-.75-2.335938-.332031-4.085938-.875-5.25-1.625-1.167969-.75-1.75-1.875-1.75-3.375,0-2,.875-3.664062,2.625-5,1.75-1.332031,4.289062-2.664062,7.625-4,1.332031-.5,4.75-1.664062,10.25-3.5,5.5-1.832031,10.332031-3.25,14.5-4.25,4.164062-1,7.582031-1.5,10.25-1.5,3.664062,0,6.25.625,7.75,1.875s2.25,3.542969,2.25,6.875v133c0,3.835938.457031,6.792969,1.375,8.875.914062,2.085938,2.625,3.210938,5.125,3.375,4.332031.335938,7.375.792969,9.125,1.375,1.75.585938,2.707031,2.042969,2.875,4.375,0,2.335938-.835938,4.125-2.5,5.375-1.667969,1.25-4.25,2.460938-7.75,3.625-1.335938.5-4.75,1.667969-10.25,3.5-5.5,1.835938-10.335938,3.25-14.5,4.25-4.167969,1-7.585938,1.5-10.25,1.5-3.667969,0-6.25-.625-7.75-1.875s-2.25-3.539062-2.25-6.875v-6c0-3-.085938-5.414062-.25-7.25-.167969-1.832031-.5-2.75-1-2.75-.335938,0-2.042969,2.375-5.125,7.125-3.085938,4.75-7.710938,9.125-13.875,13.125-6.167969,4-13.75,6-22.75,6-9.167969,0-17.292969-2.625-24.375-7.875Zm60.5-25.125c4.582031-5.664062,6.875-13.082031,6.875-22.25v-7.75c0-15.5-2.335938-27.375-7-35.625-4.667969-8.25-11.25-12.375-19.75-12.375-6.835938,0-12.667969,2.960938-17.5,8.875-4.835938,5.917969-7.25,14.375-7.25,25.375,0,16,2.5,28.710938,7.5,38.125,5,9.417969,11.832031,14.125,20.5,14.125,6.5,0,12.039062-2.832031,16.625-8.5Z"/>
    <path class="cls-1" d="m1571.887855,293.773995c-9.417969-5.832031-16.625-13.664062-21.625-23.5-5-9.832031-7.5-20.582031-7.5-32.25,0-12.164062,2.914062-23,8.75-32.5,5.832031-9.5,13.582031-16.832031,23.25-22,9.664062-5.164062,20.164062-7.75,31.5-7.75,10.5,0,19.664062,2.210938,27.5,6.625,7.832031,4.417969,13.832031,9.917969,18,16.5,4.164062,6.585938,6.25,13.125,6.25,19.625,0,6.335938-1.5,10.835938-4.5,13.5-3,2.667969-8.085938,4.5-15.25,5.5l-50,7.25c-1.667969.335938-2.835938.792969-3.5,1.375-.667969.585938-1,1.460938-1,2.625,0,4.335938,1.332031,8.75,4,13.25,2.664062,4.5,6.5,8.292969,11.5,11.375,5,3.085938,10.914062,4.625,17.75,4.625,7.332031,0,13.789062-1.5,19.375-4.5,5.582031-3,10.039062-6.582031,13.375-10.75,1.332031-1.5,2.664062-2.25,4-2.25,2,0,3.457031.585938,4.375,1.75.914062,1.167969,1.375,2.5,1.375,4,0,.667969-.167969,1.5-.5,2.5-3.335938,9.335938-9.5,17.292969-18.5,23.875-9,6.585938-20.75,9.875-35.25,9.875-12.835938,0-23.960938-2.917969-33.375-8.75Zm44.125-70.25c2.832031-.5,4.832031-1.332031,6-2.5,1.164062-1.164062,1.75-2.832031,1.75-5,0-3.5-.917969-7.125-2.75-10.875-1.835938-3.75-4.460938-6.914062-7.875-9.5-3.417969-2.582031-7.292969-3.875-11.625-3.875-6.335938,0-11.585938,2.585938-15.75,7.75-4.167969,5.167969-6.25,12.167969-6.25,21,0,3.167969.289062,5.375.875,6.625.582031,1.25,1.539062,1.875,2.875,1.875.5,0,1.414062-.164062,2.75-.5l30-5Z"/>
  </g>
</svg>