<?xml version="1.0" encoding="UTF-8"?>
<svg id="Layer_1" data-name="Layer 1" xmlns="http://www.w3.org/2000/svg" viewBox="0 0 1080 1080">
  <defs>
    <style>
      .cls-1 {
        stroke: currentColor;
        stroke-width: 1.13406px;
      }

      .cls-1, .cls-2 {
        fill: currentColor;
      }

      .cls-2 {
        stroke-width: 0px;
      }
    </style>
  </defs>
  <g>
    <path class="cls-1" d="m122.297852,769.577148c10.248047,8.646484,15.692383,19.214844,15.692383,28.501953,0,11.849609-11.529297,25.620117-29.783203,37.790039-21.777344,14.411133-51.880859,25.94043-63.089844,25.94043-4.483398,0-9.927734-1.601562-15.051758-5.124023-4.803711-3.202148-8.005859-7.366211-8.005859-11.529297,0-5.764648,4.483398-8.966797,9.607422-9.287109,0-1.28125-.320312-2.881836-.320312-4.483398,0-19.535156,11.208984-44.834961,11.208984-62.769531,0-8.326172-2.5625-10.568359-2.5625-14.09082s2.882812-6.084961,6.405273-6.084961c3.842773,0,9.927734,2.242188,13.450195,8.646484,6.725586-1.600586,14.412109-2.241211,20.175781-2.241211,16.65332,0,31.384766,5.764648,42.273438,14.731445Zm-44.834961,53.162109c17.293945-9.288086,37.790039-23.378906,37.790039-33.626953,0-7.365234-11.849609-10.888672-28.50293-10.888672-11.208984,0-19.214844,1.601562-24.65918,3.523438-1.921875,18.894531-7.045898,38.429688-8.646484,51.240234,7.685547-2.242188,15.692383-5.764648,24.018555-10.248047Z"/>
    <path class="cls-1" d="m190.507812,759.649414c9.607422-6.405273,21.136719-9.607422,29.462891-9.607422,9.287109,0,16.65332,4.163086,21.136719,8.646484,6.084961,6.084961,9.287109,14.411133,9.287109,21.136719,0,10.568359-8.966797,21.457031-19.214844,29.462891-6.725586,5.444336-16.65332,10.888672-21.457031,13.130859,7.686523,1.600586,24.019531,5.444336,34.267578,10.568359,8.326172,4.163086,12.489258,8.966797,12.489258,13.770508,0,3.842773-3.202148,7.365234-7.365234,7.365234-4.803711,0-14.412109-4.163086-30.744141-8.966797-14.091797-4.163086-25.299805-6.405273-35.547852-8.005859-.640625,7.365234-.960938,19.535156-1.921875,24.018555-.640625,3.202148-1.921875,5.124023-4.803711,5.124023-2.5625,0-6.405273-1.28125-10.248047-3.842773-5.124023-3.522461-7.366211-7.366211-7.366211-14.09082,0-11.208984,6.405273-33.947266,10.248047-46.436523,5.444336-18.254883,8.647461-27.862305,8.647461-36.188477,0-5.764648,9.287109-6.084961,13.129883-6.084961Zm40.351562,14.09082c0-1.921875-3.202148-2.561523-5.444336-2.561523-6.724609,0-16.012695,4.163086-24.338867,8.326172-2.242188,8.326172-5.764648,16.65332-8.966797,24.979492,6.724609-3.522461,38.75-23.057617,38.75-30.744141Z"/>
    <path class="cls-1" d="m302.916016,831.706055c0,1.28125.320312,2.881836,3.522461,2.881836,8.646484,0,30.423828-8.646484,37.149414-8.646484,3.842773,0,7.365234,1.921875,10.568359,4.803711,3.522461,3.202148,6.084961,7.045898,6.084961,10.568359,0,7.685547-10.568359,9.607422-20.176758,11.208984-17.292969,2.881836-29.462891,6.084961-36.828125,6.084961-6.725586,0-11.849609-2.242188-17.293945-7.686523-4.483398-4.483398-7.366211-9.927734-7.366211-17.293945,0-8.966797,4.484375-18.894531,8.327148-31.064453,3.842773-11.208008,7.365234-22.737305,9.287109-26.900391-1.28125-2.882812-1.921875-5.444336-1.921875-8.327148,0-7.365234,3.523438-8.966797,10.568359-10.568359,12.490234-2.881836,33.947266-3.842773,40.992188-3.842773,6.725586,0,9.927734.640625,13.451172,4.163086,3.522461,3.523438,4.803711,7.366211,4.803711,10.888672,0,6.405273-6.405273,8.647461-13.451172,8.647461-6.404297,0-22.09668.959961-32.985352,2.561523-.640625,4.163086-1.921875,8.966797-3.522461,14.411133,7.685547-1.600586,15.37207-1.920898,20.496094-1.920898,6.404297,0,8.966797,1.280273,11.848633,4.803711,2.5625,3.202148,4.483398,7.365234,4.483398,10.248047,0,4.803711-6.404297,6.404297-13.450195,7.044922-7.686523.640625-19.214844,2.882812-31.064453,4.803711-1.921875,5.764648-3.522461,10.888672-3.522461,13.130859Z"/>
    <path class="cls-1" d="m420.762695,824.019531c-5.444336,13.130859-10.568359,25.299805-12.489258,28.823242-1.921875,3.522461-3.523438,4.803711-6.405273,4.803711-3.202148,0-8.326172-.960938-11.849609-2.882812-3.202148-1.600586-4.803711-3.522461-4.803711-6.404297,0-4.164062,4.803711-12.490234,12.169922-31.384766,7.365234-18.254883,14.09082-36.508789,24.65918-51.880859,4.803711-6.725586,8.966797-10.568359,16.333008-10.568359,8.966797,0,16.65332,5.444336,21.777344,13.129883,8.966797,13.771484,10.248047,35.547852,13.450195,50.919922,2.242188,11.208984,4.163086,16.012695,4.163086,19.536133,0,4.163086-2.881836,5.124023-7.685547,5.124023-10.888672,0-14.091797-4.164062-15.692383-9.928711-1.28125-4.163086-2.5625-10.567383-3.203125-16.332031-7.044922,3.522461-17.613281,8.646484-24.979492,8.646484-2.241211,0-4.163086-.960938-5.444336-1.601562Zm26.901367-26.900391c-2.241211-10.888672-3.522461-16.973633-5.124023-16.973633-1.920898,0-7.045898,10.248047-12.80957,23.057617,6.404297-3.202148,13.129883-4.803711,17.933594-6.083984Z"/>
    <path class="cls-1" d="m527.72168,764.453125c4.163086-9.607422,8.327148-12.169922,12.490234-12.169922,3.842773,0,10.888672,2.242188,15.37207,8.967773,6.724609,10.248047,8.966797,24.338867,10.248047,40.351562.640625,7.685547.960938,13.450195,1.600586,15.051758,5.444336-1.28125,17.614258-29.462891,21.457031-38.110352,7.686523-16.65332,11.849609-23.37793,19.535156-23.37793,5.124023,0,10.568359,2.561523,14.091797,7.365234,6.404297,8.647461,6.724609,22.738281,6.724609,28.50293,0,18.894531-3.202148,30.423828-3.202148,43.233398,0,12.810547,3.202148,18.254883,3.202148,20.816406,0,1.601562-.959961,3.523438-5.444336,3.523438-4.803711,0-10.248047-2.242188-14.09082-8.647461-4.803711-8.005859-4.803711-19.535156-4.803711-34.266602,0-3.842773,0-7.045898-.320312-9.927734-13.450195,16.65332-22.097656,36.508789-35.227539,36.508789-4.163086,0-12.489258-2.242188-17.614258-7.686523-4.803711-5.124023-7.044922-16.333008-8.005859-26.900391-.640625-8.327148-.320312-13.451172-1.601562-13.451172-1.280273,0-3.522461,5.444336-5.444336,10.888672-4.483398,12.490234-10.887695,34.266602-12.489258,46.116211-.960938,7.686523-7.366211,10.248047-13.130859,10.248047-6.404297,0-9.607422-3.202148-9.607422-10.568359,0-17.293945,17.614258-67.25293,26.260742-86.467773Z"/>
    <path class="cls-1" d="m666.064453,822.739258c1.921875,0,3.203125,1.920898,4.484375,4.803711,1.600586,3.202148,2.881836,6.724609,8.005859,6.724609,3.522461,0,13.130859-1.280273,19.855469-4.163086,6.725586-2.881836,14.09082-8.326172,14.09082-12.80957,0-5.444336-8.326172-6.725586-21.456055-10.888672-8.647461-2.882812-15.37207-6.405273-19.536133-12.169922-4.163086-5.764648-6.724609-14.411133-6.724609-19.214844,0-8.326172,9.927734-15.37207,20.816406-20.816406,11.208008-5.764648,22.09668-8.326172,29.462891-8.326172,14.731445,0,20.816406,12.80957,20.816406,23.698242,0,3.202148-1.601562,5.124023-4.803711,5.124023-5.124023,0-5.124023-4.163086-11.529297-4.163086-3.842773,0-10.248047,1.920898-16.012695,4.163086-6.725586,2.561523-12.168945,5.444336-12.168945,7.365234,0,3.203125,10.568359,3.84375,23.057617,12.490234,13.770508,9.287109,19.214844,23.378906,19.214844,32.986328,0,10.568359-9.287109,19.855469-18.253906,24.979492-10.248047,5.764648-23.058594,8.646484-30.423828,8.646484-8.327148,0-15.692383-3.202148-20.816406-10.248047-3.522461-4.803711-5.764648-10.888672-5.764648-16.65332,0-7.685547,4.163086-11.52832,7.685547-11.52832Z"/>
    <path class="cls-1" d="m772.387695,796.158203c3.522461-13.771484,6.405273-27.541992,8.005859-32.666016,1.601562-5.444336,3.203125-7.044922,6.405273-7.044922,3.203125,0,7.045898,1.600586,10.568359,4.803711,3.522461,3.202148,6.405273,6.724609,6.405273,12.489258,0,6.405273-4.163086,17.93457-6.405273,27.541992-3.202148,12.80957-8.005859,35.227539-8.005859,45.795898,0,6.724609-.960938,9.607422-5.124023,9.607422-3.203125,0-7.045898-1.28125-10.568359-4.163086-5.444336-4.483398-7.686523-10.888672-7.686523-20.175781,0-8.967773,2.5625-20.496094,6.405273-36.188477Z"/>
    <path class="cls-1" d="m916.178711,757.727539c10.888672,7.366211,19.855469,20.496094,19.855469,34.586914,0,17.293945-13.129883,32.666016-31.063477,45.476562-17.293945,12.168945-39.071289,20.816406-51.880859,20.816406-3.84375,0-6.084961-.640625-7.686523-2.242188-7.045898-1.921875-12.489258-9.927734-12.489258-18.253906,0-12.810547,11.208008-44.195312,14.09082-63.410156,0,0-.320312-.960938-.320312-2.882812,0-2.561523.640625-5.123047,1.920898-8.005859.320312-2.561523.960938-5.444336,1.921875-7.365234,1.28125-2.5625,3.203125-3.523438,6.084961-3.523438,1.921875,0,3.842773.960938,5.124023,1.601562,8.646484-3.522461,18.894531-5.124023,26.260742-5.124023,8.966797,0,19.535156,2.561523,28.181641,8.326172Zm-25.94043,58.926758c14.412109-10.568359,25.620117-23.699219,25.620117-35.547852,0-10.568359-9.287109-11.849609-16.012695-11.849609-10.887695,0-21.135742,3.522461-30.103516,6.725586-.640625,12.489258-7.044922,37.789062-11.848633,58.605469,10.888672-4.803711,22.737305-10.568359,32.344727-17.933594Z"/>
    <path class="cls-1" d="m985.989258,831.706055c0,1.28125.320312,2.881836,3.522461,2.881836,8.646484,0,30.423828-8.646484,37.149414-8.646484,3.842773,0,7.365234,1.921875,10.568359,4.803711,3.522461,3.202148,6.084961,7.045898,6.084961,10.568359,0,7.685547-10.568359,9.607422-20.175781,11.208984-17.293945,2.881836-29.463867,6.084961-36.829102,6.084961-6.725586,0-11.849609-2.242188-17.293945-7.686523-4.483398-4.483398-7.365234-9.927734-7.365234-17.293945,0-8.966797,4.483398-18.894531,8.326172-31.064453,3.842773-11.208008,7.365234-22.737305,9.287109-26.900391-1.28125-2.882812-1.921875-5.444336-1.921875-8.327148,0-7.365234,3.523438-8.966797,10.568359-10.568359,12.490234-2.881836,33.947266-3.842773,40.992188-3.842773,6.725586,0,9.927734.640625,13.451172,4.163086,3.522461,3.523438,4.803711,7.366211,4.803711,10.888672,0,6.405273-6.405273,8.647461-13.451172,8.647461-6.404297,0-22.09668.959961-32.985352,2.561523-.640625,4.163086-1.921875,8.966797-3.522461,14.411133,7.685547-1.600586,15.37207-1.920898,20.496094-1.920898,6.404297,0,8.966797,1.280273,11.848633,4.803711,2.5625,3.202148,4.483398,7.365234,4.483398,10.248047,0,4.803711-6.404297,6.404297-13.450195,7.044922-7.685547.640625-19.214844,2.882812-31.064453,4.803711-1.921875,5.764648-3.522461,10.888672-3.522461,13.130859Z"/>
  </g>
  <g>
    <path class="cls-1" d="m329.950195,942.995117c8.419922,7.103516,12.892578,15.786133,12.892578,23.416016,0,9.735352-9.47168,21.048828-24.46875,31.046875-17.891602,11.839844-42.623047,21.311523-51.832031,21.311523-3.683594,0-8.15625-1.31543-12.366211-4.209961-3.946289-2.630859-6.578125-6.050781-6.578125-9.47168,0-4.735352,3.683594-7.367188,7.893555-7.629883,0-1.052734-.262695-2.368164-.262695-3.683594,0-16.049805,9.208008-36.834961,9.208008-51.569336,0-6.84082-2.104492-8.682617-2.104492-11.576172,0-2.894531,2.368164-4.999023,5.261719-4.999023,3.158203,0,8.157227,1.841797,11.050781,7.103516,5.525391-1.31543,11.839844-1.841797,16.576172-1.841797,13.681641,0,25.78418,4.736328,34.729492,12.103516Zm-36.834961,43.675781c14.208008-7.630859,31.046875-19.207031,31.046875-27.626953,0-6.050781-9.734375-8.945312-23.416016-8.945312-9.208984,0-15.787109,1.31543-20.259766,2.894531-1.578125,15.523438-5.788086,31.572266-7.103516,42.09668,6.314453-1.841797,12.891602-4.735352,19.732422-8.418945Z"/>
    <path class="cls-1" d="m369.674805,964.833008c2.894531-11.313477,5.262695-22.62793,6.578125-26.836914,1.31543-4.473633,2.630859-5.789062,5.261719-5.789062,2.631836,0,5.789062,1.31543,8.682617,3.947266,2.894531,2.630859,5.262695,5.525391,5.262695,10.260742,0,5.262695-3.420898,14.734375-5.262695,22.626953-2.630859,10.524414-6.577148,28.942383-6.577148,37.625,0,5.525391-.789062,7.892578-4.209961,7.892578-2.630859,0-5.788086-1.051758-8.682617-3.419922-4.472656-3.683594-6.314453-8.945312-6.314453-16.576172,0-7.366211,2.104492-16.838867,5.261719-29.730469Z"/>
    <path class="cls-1" d="m450.710938,981.408203c0-2.104492,1.051758-4.735352,6.577148-7.103516,9.998047-4.472656,19.207031-4.999023,23.679688-4.999023,3.683594,0,6.84082.526367,9.735352,2.893555,3.419922,2.631836,5.788086,7.367188,5.788086,11.577148,0,3.157227-1.578125,7.893555-2.368164,11.313477-1.31543,4.999023-1.841797,10.787109-2.368164,15.260742-.262695,2.367188-1.578125,4.472656-5.261719,4.472656-4.736328,0-7.893555-3.420898-9.208984-7.629883-6.577148,4.735352-16.838867,8.945312-26.836914,8.945312-11.839844,0-31.30957-5.788086-31.30957-28.941406,0-17.891602,11.839844-37.361328,22.890625-47.623047,8.682617-8.15625,17.365234-11.050781,25.521484-11.050781,7.892578,0,14.470703,2.631836,18.943359,7.367188,3.420898,3.683594,4.999023,8.15625,4.999023,11.577148,0,4.209961-2.368164,8.15625-9.47168,8.15625-6.578125,0-8.682617-3.683594-8.682617-7.103516,0-1.316406.262695-2.368164.262695-3.158203,0-.789062-.525391-1.051758-1.578125-1.051758-5.262695,0-14.208008,6.577148-21.048828,14.99707-6.577148,7.892578-13.681641,20.258789-13.681641,31.30957,0,5.788086,2.105469,10.260742,9.47168,10.260742,7.367188,0,16.049805-4.735352,21.3125-11.049805,0,0-3.947266,1.31543-6.051758,1.31543-4.209961,0-11.313477-5.262695-11.313477-9.735352Z"/>
    <path class="cls-1" d="m528.850586,964.833008c2.894531-11.313477,5.262695-22.62793,6.578125-26.836914,1.31543-4.473633,2.630859-5.789062,5.261719-5.789062,2.631836,0,5.789062,1.31543,8.682617,3.947266,2.894531,2.630859,5.262695,5.525391,5.262695,10.260742,0,5.262695-3.420898,14.734375-5.262695,22.626953-2.630859,10.524414-6.577148,28.942383-6.577148,37.625,0,5.525391-.789062,7.892578-4.209961,7.892578-2.630859,0-5.788086-1.051758-8.682617-3.419922-4.472656-3.683594-6.314453-8.945312-6.314453-16.576172,0-7.366211,2.104492-16.838867,5.261719-29.730469Z"/>
    <path class="cls-1" d="m581.996094,946.415039c-2.368164-3.157227-3.683594-6.314453-3.683594-8.418945,0-2.368164,1.052734-4.473633,4.209961-5.525391,3.157227-1.052734,7.103516-1.31543,11.839844-1.579102,10.787109-.526367,24.46875-1.31543,29.730469-1.31543,6.051758,0,17.102539.526367,24.732422,3.946289,7.629883,3.420898,9.47168,8.946289,9.47168,12.103516,0,5.261719-6.84082,5.788086-11.049805,5.788086-5.789062,0-14.208008-1.052734-21.837891-1.31543-3.947266,20.259766-8.419922,36.045898-11.577148,62.09375-.262695,2.893555-2.368164,3.419922-4.209961,3.419922-3.419922,0-6.84082-1.31543-9.734375-3.946289-3.683594-3.420898-5.262695-7.104492-5.262695-13.945312,0-16.575195,5.788086-31.045898,8.419922-46.569336-4.736328.262695-8.682617.526367-11.313477.526367-4.473633,0-7.367188-2.105469-9.735352-5.262695Z"/>
    <path class="cls-1" d="m688.553711,987.722656c-4.472656,10.788086-8.681641,20.786133-10.260742,23.679688-1.579102,2.894531-2.894531,3.947266-5.261719,3.947266-2.631836,0-6.84082-.790039-9.735352-2.368164-2.630859-1.31543-3.946289-2.894531-3.946289-5.262695,0-3.419922,3.946289-10.260742,9.998047-25.78418,6.050781-14.99707,11.576172-29.994141,20.258789-42.623047,3.946289-5.525391,7.367188-8.682617,13.418945-8.682617,7.366211,0,13.681641,4.472656,17.890625,10.787109,7.367188,11.313477,8.419922,29.205078,11.050781,41.833984,1.841797,9.208984,3.420898,13.155273,3.420898,16.049805,0,3.419922-2.368164,4.209961-6.31543,4.209961-8.945312,0-11.576172-3.420898-12.891602-8.15625-1.052734-3.420898-2.105469-8.682617-2.630859-13.418945-5.789062,2.894531-14.47168,7.104492-20.522461,7.104492-1.841797,0-3.420898-.790039-4.473633-1.316406Zm22.101562-22.100586c-1.841797-8.945312-2.894531-13.944336-4.209961-13.944336-1.578125,0-5.788086,8.418945-10.524414,18.943359,5.262695-2.630859,10.788086-3.946289,14.734375-4.999023Z"/>
    <path class="cls-1" d="m765.639648,1009.560547c-5.788086-4.472656-6.577148-9.208008-6.577148-16.3125,0-9.208984,1.578125-19.996094,2.630859-26.836914,1.578125-9.998047,3.946289-21.837891,4.999023-28.678711.526367-3.683594,2.368164-5.788086,7.367188-5.788086,6.050781,0,12.891602,4.736328,12.891602,11.050781,0,6.050781-7.629883,33.151367-7.629883,46.833008,0,4.735352.789062,5.525391,3.420898,5.525391,6.314453,0,23.942383-7.367188,29.467773-7.367188s13.681641,7.629883,13.681641,12.891602c0,2.631836-2.368164,4.473633-9.208984,7.104492-12.102539,4.735352-27.363281,6.577148-34.204102,6.577148-5.525391,0-11.576172-1.051758-16.838867-4.999023Z"/>
  </g>
  <path class="cls-2" d="m906.806128,967.385728c10.683796-.948094,21.408766-1.851386,32.127698-2.273342,5.213816-.205245,10.42913-.281684,15.646721-.274436,5.596567.007775,11.504082.767541,16.963136-.581303,8.547034-2.111833,7.826584-14.144694,0-16.608292-5.304175-1.669612-11.454068-1.061392-16.963136-.976165-5.544971.085783-11.090266.332394-16.623866.693468-11.201751.730928-22.271381,2.039102-33.298845,4.146416-8.850335,1.691272-6.95751,16.681715,2.148293,15.873654h0Z"/>
  <path class="cls-2" d="m76.131235,970.750207c5.128359,4.557419,13.556886,1.871818,19.737919,1.154089,7.51577-.872717,15.083961-1.517265,22.633596-2.015124,7.576558-.499634,15.173723-.702006,22.766145-.612133,7.509228.088889,15.299894,1.348653,22.761973.884154,8.459854-.526609,11.299852-13.543442,2.105635-15.558462-7.674672-1.681994-16.087093-1.305127-23.918171-1.271934-7.914854.033548-15.829183.382905-23.715583,1.056097-7.619306.650392-15.163365,1.67489-22.682495,3.069735-6.148959,1.14067-17.372645,1.844153-20.337369,8.268858-.741889,1.607712-.804863,3.733297.648348,5.024722h0Z"/>
  <path class="cls-2" d="m516.294683,124.443237c-10.380824-1.59729-21.738849-3.593488-32.289316-3.061278-.315662.015923-2.260786.089109-.258664.133055,2.889325.063419-2.139362-.299051-3.545454-.329465-1.27867-.027657-2.576884.091101-3.856632.120271-2.811344.064081-5.620782.151863-8.429149.29965-5.816421.306081-11.61901.821033-17.399448,1.534867-1.826821.225596-8.738544.857526-4.13948.438482-2.396452.218353-4.771099.66737-7.134096,1.11101-3.006376.564431-6.005952,1.158998-8.99146,1.82594-6.101549,1.363043-12.148674,2.974038-18.113953,4.846065-13.240505,4.155143-26.231303,9.535066-38.459783,16.101927-26.147007,14.0413-48.257206,34.135235-65.158362,58.481407-20.529061,29.572181-35.642979,63.977679-44.312774,98.881502-8.110361,32.651594-9.832616,67.117815-6.310132,100.52156,3.578411,33.934099,11.697491,67.256865,26.46657,98.127191,25.981226,54.305954,75.506303,96.250258,129.985841,120.286036,60.710613,26.78486,128.528071,33.736044,193.711238,21.400454,65.506235-12.396729,126.528092-48.062754,167.000872-101.235019,18.653041-24.505963,31.808595-53.155628,39.138449-83.025313,7.71957-31.457806,12.16644-64.075362,12.111306-96.492363-.11205-65.881838-19.786877-130.094876-61.57022-181.517206-19.557833-24.069624-44.600689-43.594131-71.514846-58.841136-27.440431-15.545142-58.777989-27.857035-90.616736-29.127166-30.729939-1.225898-61.847584,7.453006-89.735081,19.674164-28.522179,12.499295-54.487129,31.797555-74.776126,55.434549-19.480864,22.695507-34.076083,48.766942-43.158562,77.284902-9.830113,30.865444-12.662813,63.965182-10.60511,96.190833,3.885794,60.855355,25.724104,121.548311,74.749273,160.456392,25.487961,20.228134,53.895855,36.014033,85.930807,42.973001,34.109695,7.409665,69.220685,6.970549,103.549632,1.470589,32.130738-5.147777,63.252459-15.818905,90.717334-33.439666,27.297317-17.51326,53.078209-40.316042,69.325877-68.742628,8.392383-14.683142,13.686059-30.641131,15.051231-47.510775,1.25278-15.480808-2.35364-30.813694-8.333353-44.983464-12.802578-30.337507-37.799896-55.175953-65.786364-71.926243-28.578298-17.104509-60.623272-23.685782-93.545301-25.580178-31.167842-1.793456-63.738578,1.518773-93.133384,12.410901-59.677604,22.113299-104.884958,74.982283-119.828439,136.579778-7.013393,28.909424-7.321832,68.017213,21.114619,86.010887,13.74162,8.695256,31.821233,7.476362,46.890102,3.640157,13.875468-3.532392,26.991427-9.961603,38.889015-17.838458,52.473154-34.740102,84.636182-97.011248,87.301506-159.433199,1.181086-27.661056-1.814465-54.806392-9.144714-81.461273-3.881068-14.112672-8.651107-27.946412-14.666036-41.298905-5.346649-11.868985-13.168817-22.293528-21.416858-32.301786-20.246438-24.567238-47.02916-42.171834-79.027416-45.78089-10.300946-1.161835-20.186934,9.911588-19.746431,19.746431.523652,11.69123,8.710741,18.501725,19.746431,19.746431,3.257241.367381-.734881-.068324-.731643-.101301-.00058.005906,2.068598.377257,2.21783.406733,1.70528.33683,3.399036.730764,5.076726,1.186114,1.423271.386297,2.835791.816133,4.234728,1.282802.928108.309606,1.840691.657742,2.763604.98219,3.118588,1.096331-.711279-.094416-.659808-.337331.042116-.198766,16.140563,9.195934,17.486039,10.137451.375498.26276,2.395226,1.692621.298821.181665-2.212591-1.594695.28723.243123.815507.674581,1.105254.90269,2.193654,1.825158,3.266596,2.766015,2.653638,2.326962,5.211175,4.763615,7.67375,7.291831,2.088316,2.143981,4.110187,4.352046,6.070524,6.613511,1.032496,1.191098,2.048146,2.396638,3.046924,3.616156.421882.515122.835325,1.037018,1.255128,1.553781,2.134141,2.627052,1.019403.199762-.263347-.370819,1.747488.777302,3.707945,5.048186,4.809551,6.636796,1.557051,2.245402,3.086063,4.50873,4.449556,6.878061,1.198657,2.082897,2.29314,4.224501,3.331531,6.391164.605275,1.262942,1.169069,2.544008,1.752355,3.81698.246792.538601,1.018118,2.580485-.010321-.062894-1.221597-3.139847.330602.856241.460573,1.182754,4.583714,11.515252,8.216282,23.424074,11.305055,35.420483,1.403839,5.452335,2.687761,10.938266,3.780173,16.461884.449645,2.273562.868968,4.553689,1.229469,6.843209.143547.911655.621728,4.283233.073485.320612-.559442-4.043563-.075845-.313949.010342.648276,1.372131,15.31913,1.891806,30.891507.854479,46.246311-.217095,3.213497-.534977,6.413504-.892098,9.613822-.404594,3.625734.555246-3.49744-.202941,1.269424-.303483,1.908055-.640244,3.810413-1.011392,5.706473-1.31224,6.70377-3.060068,13.316503-5.201734,19.802627-1.035322,3.135515-2.160622,6.240739-3.363456,9.315842-.377091.964051-2.387829,5.881335-1.302246,3.253913,1.126038-2.725335-1.111972,2.511443-1.414542,3.188469-2.577869,5.76821-5.347646,11.451934-8.378032,16.996629-3.092736,5.658777-6.455665,11.170349-10.130415,16.470642-.80194,1.156682-1.618292,2.30304-2.449628,3.438782-.397447.542979-2.188358,3.058911-.593617.847338,1.499973-2.080149.084524-.106028-.214503.264327-2.126237,2.63342-4.296269,5.225974-6.572671,7.731528-4.763194,5.242676-9.893759,10.150735-15.334054,14.686618-.811144.676297-1.633922,1.336285-2.452469,2.003243-.259703.211608-2.389398,1.825913-.54419.4388,1.859364-1.397755-.333958.229212-.598016.419065-.890351.640146-1.771662,1.291797-2.667591,1.924163-3.23557,2.283738-6.551346,4.454074-9.935227,6.511591-2.655103,1.614396-5.34117,3.185242-8.118415,4.581567-.993953.499733-1.998165.979997-3.009298,1.44394-.59573.273342-1.57626.564046-2.144501.953383.741971-.508369,3.815527-1.477254,1.293832-.586433-5.815329,2.054338-11.548544,3.712046-17.591344,4.960442-3.519413.727084,3.983132-.183678-.579888.026262-1.480538.068118-2.947217.179136-4.432046.164907-.791447-.007585-3.03123-.537193-3.680951-.188528.405158-.217423,4.911561,1.061451,1.72078.182389-.743844-.204929-1.50662-.334881-2.24935-.550154-.536479-.155493-1.079699-.408076-1.62155-.53068-2.339984-.529468,3.478138,2.130004,1.657428.637141-.375687-.308039-1.002206-.604849-1.436123-.832711-2.413163-1.26722,1.581829-.293154,1.367861,1.076134.020302-.129922-2.425124-2.723221-2.617457-2.775128.479323.12936,2.498906,3.844505.714067.834808-.445198-.750718-.944073-1.467305-1.378884-2.22557-.324492-.565882-.608727-1.152773-.924045-1.722909l-.294989-.580442c-.719677-1.568069-.735455-1.571142-.047336-.009218-.212993.898353.563301,1.721488.062367-.054159-.17636-.625138-.407434-1.238136-.594268-1.860829-.4381-1.460136-.807803-2.940184-1.114134-4.433576-.130368-.635557-.193757-1.307926-.356569-1.934543-.626922-2.412848.313557,4.434374.114424.728113-.153121-2.849889-.34532-5.671705-.288865-8.529359.05439-2.753133,1.270336-7.01359.695186-9.627722-.011806-.053658-.71998,4.356217-.294561,2.224365.119058-.59662.184004-1.210595.283048-1.811206.224807-1.363254.475287-2.722086.744621-4.077196.526546-2.649221,1.135795-5.282211,1.81754-7.895766,1.39021-5.329545,3.046926-10.599541,4.850302-15.802712.933643-2.693784,1.965914-5.345874,2.969806-8.013421,1.619252-4.302684-1.226323,2.595497.249487-.673587.728784-1.614338,1.441378-3.233994,2.203301-4.833393,2.65511-5.573511,5.637271-10.987988,8.938453-16.205003,1.814085-2.866884,3.709303-5.685792,5.689112-8.440848.684614-.952693,3.493789-5.421501.942869-1.384067.960384-1.520035,2.312169-2.907657,3.460783-4.289334,5.128909-6.169606,10.650523-12.004629,16.426898-17.57023,3.068708-2.956734,6.196532-5.863361,9.422682-8.648201,1.147814-.990803,2.348802-1.921534,3.493274-2.914681,2.150438-1.866101-2.795366,2.030403-.49619.358672.812945-.591092,1.612141-1.20082,2.428035-1.788198,5.686661-4.093939,11.678778-7.75509,17.895277-10.986757,2.885936-1.500263,5.824541-2.877107,8.784445-4.222992,3.795461-1.725818-.613853.153321-.647707.25491.077631-.232954,1.835826-.73874,2.093007-.840191,1.867315-.736601,3.747559-1.439247,5.639805-2.109196,6.656138-2.356603,13.453653-4.304165,20.335644-5.881119,3.214373-.736548,6.446911-1.392353,9.69328-1.971786,1.752718-.312836,3.509813-.600699,5.269923-.868644.16411-.024983,2.260448-.269571,2.267153-.334135-2.535317.332815-3.042651.403815-1.522001.213.506192-.064368,1.012801-.125261,1.519828-.182679,7.108265-.829808,14.254534-1.319371,21.408423-1.501193,7.145135-.1816,14.296913-.055833,21.432408.353645,3.294209.189042,6.58496.437719,9.870138.746396,1.760653.165432,3.519585.348884,5.276731.548039.751074.085127,1.501233.177775,2.25222.263538,2.681794.30626.313297.385632-.801142-.12807,2.767853,1.275845,7.330337,1.093616,10.350234,1.625657,3.467268.610858,6.924778,1.275773,10.346324,2.108473,3.495268.850641,6.956866,1.847291,10.371809,2.977737,1.475173.488325,2.942887,1.000468,4.401384,1.536561,1.276221.469094,6.638589,2.328404,2.522023.892835,6.804073,2.372783,13.444211,6.387255,19.575624,10.113883,3.146309,1.912304,6.226909,3.935471,9.2348,6.05882,1.286384.908092,2.534529,1.869352,3.818549,2.7798-3.651944-2.589448,1.248923,1.016204,2.160218,1.771838,5.556423,4.607316,10.800149,9.598166,15.650405,14.944464,1.19003,1.311736,2.353476,2.647378,3.49299,4.003159.485332.577442.958199,1.16516,1.443339,1.742678.888585,1.057784,2.345938,1.721116-.302229-.451086,2.389932,1.96038,4.267159,5.899106,5.907122,8.476037,1.678656,2.637731,3.252527,5.342096,4.707593,8.10947.76976,1.463997,1.507436,2.944657,2.20756,4.443265.346786.742292.686543,1.948678,1.151244,2.559742-.69597-.915175-1.273873-3.248809-.40693-.829836,1.001861,2.795424,1.978442,5.583523,2.752122,8.452846.408923,1.516558.778009,3.044005,1.097609,4.581994.135974.65434.252569,1.311996.379833,1.96792.595078,3.067058-.1765,1.263872-.011787-.618611-.253804,2.900678.507367,6.09524.475824,9.048249-.017425,1.631303-.087285,3.261944-.214011,4.888521-.054156.695117-.150262,1.390177-.195486,2.085403-.162919,2.504571.750681-4.071408.030237-.363616-.581845,2.994489-1.203374,5.962181-2.048494,8.896446-.457927,1.589928-.95818,3.16757-1.504446,4.729457-.235569.67354-.480937,1.343553-.731472,2.011631-.164247.447993-.335148.893433-.512701,1.336321-.535162,1.344565-.335139.895141.600068-1.348271-.457942-.023237-3.686388,7.631184-4.162273,8.507612-1.775348,3.269626-3.706681,6.453735-5.767097,9.551462-.836762,1.258027-1.695831,2.501621-2.572811,3.731929-.588797.826018-1.193367,1.639973-1.793328,2.457904-.227232.309788-1.827295,2.322464-.335383.455993,1.499416-1.87586-.138105.149111-.378861.437195-.660313.79012-1.303356,1.593744-1.966517,2.381778-1.334047,1.585248-2.698553,3.145481-4.089326,4.681167-4.754411,5.249801-9.822624,10.212894-15.119175,14.913696-2.7622,2.451512-5.587586,4.830757-8.46928,7.140571-.616648.494273-1.238075.982302-1.856647,1.474143.541264-.430372,3.079154-2.309414.179876-.155006-1.47191,1.093754-2.943805,2.186314-4.434423,3.254589-11.415752,8.181276-23.548135,15.576174-36.393666,21.291974-.690201.307115-1.384394.6047-2.075613.909452,3.789895-1.670929,1.208157-.509795.381041-.188586-1.450176.563174-2.893713,1.14172-4.350518,1.688009-3.729939,1.398693-7.500301,2.688798-11.299776,3.885334-7.353894,2.315898-14.818108,4.276137-22.349087,5.925221-3.570132.781764-7.155461,1.494012-10.753335,2.136225-1.946311.347412-3.896401.673355-5.849463.980438-.837844.131736-1.676831.255419-2.514949.385306-5.381296.833961,2.369404-.2469-.764095.120763-7.81161.91656-15.622176,1.665583-23.483522,1.993393-7.676216.32009-15.357583.283867-23.030948-.093156-3.555214-.174682-7.107924-.411596-10.653215-.730585-1.858347-.167205-3.713529-.361939-5.566785-.57842-.746762-.08723-1.629836-.081963-2.353612-.283934,2.472987.69009,1.882328.264616-.31417-.06964-13.59124-2.068266-26.750961-5.627292-39.583493-10.535867-3.334504-1.275482-.036399.094203.515954.258377-.684105-.203333-1.375184-.595018-2.02784-.884023-1.579134-.699262-3.14848-1.420615-4.705659-2.167574-3.152292-1.512114-6.259025-3.118691-9.318317-4.810986-6.36025-3.518269-12.505744-7.419184-18.451705-11.597627-1.551735-1.090461-3.088211-2.202488-4.612836-3.330487-.755687-.559097-5.028927-3.92698-2.039501-1.517858-2.655162-2.139745-5.306261-4.272757-7.867883-6.525803-4.904112-4.313357-9.559476-8.912313-13.92937-13.766146-2.008013-2.230388-3.954709-4.515749-5.839641-6.851017-3.056447-3.786674,1.258982,1.816642-.783162-.983649-1.08441-1.486998-2.179093-2.965063-3.23245-4.474512-3.695191-5.295168-7.088423-10.802493-10.167664-16.477861-1.441067-2.656039-2.814602-5.348344-4.121701-8.072761-.707928-1.475552-1.397312-2.959996-2.066098-4.453717-.287588-.642322-.560312-1.291816-.850904-1.932695-1.002339-2.210587,1.400027,3.527045.049023.088038-2.449822-6.236071-4.692567-12.530493-6.581192-18.961461-1.942589-6.614722-3.571332-13.320501-4.913401-20.082352-.638794-3.218484-1.21161-6.449967-1.724604-9.690835-.279494-1.765714-.579349-3.534846-.786349-5.310608.016613.142512.437747,3.657852.199431,1.361974-.133808-1.289068-.309172-2.575166-.449832-3.863611-1.614739-14.790918-2.18493-29.75049-1.545837-44.617532.162466-3.779401.407356-7.554789.73895-11.323141.139686-1.587439.29463-3.173355.465284-4.757764.112794-1.047221.256576-2.09209.358982-3.140135.286226-2.929309-.523818,3.450497-.091036.56145,1.056479-7.05256,2.311066-14.055719,3.971547-20.993822,1.596045-6.668863,3.507359-13.261702,5.744287-19.743995,1.013778-2.937781,2.092946-5.853043,3.24025-8.74134.325627-.819756.638165-1.842643,1.068241-2.634885-.022751.041909-1.530484,3.491323-.607011,1.457695.7753-1.707329,1.51876-3.428282,2.314835-5.126491,5.442916-11.610971,12.024815-22.681882,19.643604-32.997215.93455-1.265318,4.12175-4.106117.587363-.821743.948941-.881815,1.707521-2.141877,2.532542-3.145739,2.130702-2.592578,4.330697-5.128337,6.592274-7.607492,4.207165-4.611919,8.632903-9.022883,13.252806-13.221141,2.142644-1.947091,4.326183-3.849119,6.549403-5.703714,1.248385-1.041394,2.525113-2.046978,3.782199-3.077433,1.750443-1.434868-.362357.27626-.611079.460589.920882-.68247,1.834308-1.374531,2.761025-2.049192,6.377559-4.642939,13.049561-8.881601,19.946456-12.70995,3.366749-1.868825,6.788143-3.641453,10.256702-5.313731,1.467642-.707587,2.943543-1.398561,4.4274-2.071489.981666-.445185,1.97934-.861087,2.957794-1.313498-1.507543.697047-2.359653.958065-.32601.141845,6.766219-2.715678,13.63046-5.142772,20.63708-7.164684,6.601325-1.904956,13.29955-3.480383,20.060271-4.705258,1.613911-.292401,3.231821-.562364,4.852747-.812817,4.826021-.745679-2.801658.275034.771662-.124579,3.057867-.341969,6.11497-.657251,9.185991-.859778,5.881747-.387889,11.788867-.486466,17.669015-.023097,1.548882.122056,3.088527.312586,4.63402.466681,2.291747.228501-2.069303-.285974-2.019524-.27034.622404.195473,1.38653.215079,2.031627.321922,3.467201.574252,6.911712,1.285682,10.327104,2.113722,6.712771,1.627469,13.31968,3.68592,19.803621,6.06326,1.434958.526128,2.8645,1.06751,4.288021,1.62384.589892.230538,5.804129,2.378981,3.286491,1.305834-2.426564-1.034327.01252.013754.423015.197238.950303.424769,1.903821.841724,2.851607,1.272101,1.905829.865411,3.801217,1.754177,5.684696,2.667207,13.250999,6.423513,26.027684,13.86126,38.110977,22.279689,2.738248,1.907737,5.39902,3.914975,8.099073,5.874729,1.854635,1.346133-1.003322-.798509-1.106157-.873164.806955.585829,1.586947,1.244137,2.363773,1.864888,1.548392,1.2373,3.081912,2.493613,4.598454,3.769752,4.888281,4.113384,9.609015,8.431018,14.08255,12.993152,5.043935,5.143832,9.787598,10.593226,14.296824,16.209706.399359.497423,2.531271,3.172676.882641,1.082068-1.536834-1.948842.117912.158195.353574.474148,1.104002,1.480139,2.204983,2.961407,3.282137,4.461381,2.139419,2.979214,4.209114,6.007958,6.20731,9.083683,3.953658,6.085671,7.625382,12.353034,11.004962,18.775223,1.557164,2.959066,3.053364,5.950214,4.485975,8.971578.769425,1.62271,1.519664,3.254455,2.252971,4.893784.313986.701924.621269,1.406697.933061,2.109585,2.036024,4.589903-.997302-2.570908.068774.153063,5.237534,13.382616,9.708335,26.921985,12.90306,40.948729,1.596807,7.010932,2.917509,14.083662,3.975696,21.195703.058962.396284.514895,1.955589.332999,2.293604.019296-.035858-.480062-3.861653-.199744-1.46951.210393,1.79543.44121,3.587992.637679,5.385127.422048,3.860548.767275,7.729545,1.042479,11.603284,1.018235,14.332558,1.054057,28.730129.226912,43.073375-.425593,7.380067-1.079867,14.746996-1.947497,22.088138-.075209.636356-.811156,6.301271-.449839,3.686977.355367-2.571244-.020794.10883-.083278.530804-.155758,1.05188-.30595,2.104482-.465565,3.155788-.559608,3.685865-1.171019,7.363838-1.83247,11.032791-2.590539,14.36927-5.748084,28.734113-10.37496,42.596153-1.105717,3.312709-2.286784,6.597704-3.558641,9.850459-.50411,1.289252-.900286,3.000126-1.673132,4.146646.296277-.439528,1.731028-3.923121.213377-.571312-.408769.902787-.807032,1.810182-1.220279,2.710985-2.882712,6.283785-6.079885,12.423911-9.572045,18.390505-3.484242,5.953066-7.261819,11.736141-11.311616,17.319878-.751256,1.035809-1.615234,2.811197-2.641759,3.566136,2.395411-1.761661,1.302806-1.645599.316115-.412-.463078.578958-.92287,1.160382-1.388292,1.737472-2.330827,2.890059-4.734151,5.722013-7.209356,8.489489-4.646944,5.195652-9.536854,10.173559-14.644265,14.917243-2.388328,2.218242-4.824744,4.384554-7.304586,6.499937-1.34076,1.14371-2.693416,2.273474-4.059866,3.386398-.87484.712525-5.607099,4.34622-2.063293,1.689389-11.72135,8.787628-24.03219,16.614722-37.014569,23.413175-3.556124,1.862227-7.151251,3.648922-10.78415,5.35658-1.798651.845463-3.605835,1.67275-5.422418,2.479012-.774988.343966-1.557609.672085-2.330719,1.020067-2.701703,1.216055,2.617808-1.022958-.133164.054767-7.287974,2.855149-14.574517,5.621013-22.051009,7.9551-7.397155,2.309318-14.893262,4.297278-22.460595,5.966126-3.513023.774738-7.040922,1.48195-10.581241,2.120573-1.910209.344575-3.824134.668251-5.740956.973796-1.097136.174886-2.19518.343379-3.294257.505619-.384589.056771-3.883773.531276-1.636957.240957,2.233822-.28864-.537177.058929-.821343.091793-1.110436.128421-2.219853.263904-3.330977.386278-1.670786.184013-3.343147.354731-5.01671.511502-4.21033.394403-8.428784.700913-12.651472.926564-8.010545.428065-16.035523.559974-24.056189.430528-7.881005-.127192-15.768125-.47166-23.623867-1.123441-3.210576-.266377-6.416308-.589523-9.615591-.968191-.985957-.116698-1.970091-.247469-2.955732-.366598.156477.018912,3.389914.497747,1.229647.157148-1.966607-.310066-3.937939-.584895-5.902696-.908717-13.550178-2.233282-26.937323-5.451213-40.030736-9.592049-6.675042-2.111004-13.274542-4.462354-19.780296-7.048424-.928943-.36926-1.853206-.749215-2.780676-1.121975-.304169-.122249-2.629866-1.092462-.583425-.232547,2.046365.859883-.27449-.122173-.574829-.254157-.914936-.402069-1.831514-.800043-2.744077-1.207478-3.190682-1.424554-6.355812-2.906304-9.493071-4.444952-12.476517-6.119027-24.508051-13.154449-35.927486-21.0744-2.834336-1.965754-5.615061-4.001581-8.381272-6.061405-2.779635-2.06982,1.691561,1.38563-1.012949-.778154-1.532339-1.225971-3.065334-2.450301-4.576756-3.702109-5.263692-4.359555-10.351734-8.93274-15.234462-13.715337-4.846942-4.747545-9.494481-9.701457-13.905684-14.856706-2.039581-2.383601-3.999524-4.827424-5.963632-7.272602-1.645515-2.048552,1.685559,2.313943.151562.181431-.42138-.585789-.867583-1.155349-1.296094-1.736077-1.142366-1.548158-2.264559-3.111479-3.364205-4.690264-7.741211-11.114215-14.175659-22.913641-19.703284-35.264397,1.228754,2.74549-.26198-.641997-.658599-1.628227-.696845-1.732772-1.371697-3.474316-2.028996-5.222445-1.42407-3.787407-2.758537-7.608435-4.005638-11.457745-2.284537-7.051467-4.278105-14.196616-6.001293-21.405558-1.815371-7.594589-3.328908-15.26042-4.550801-22.972645-.307254-1.939299-.597837-3.881342-.867417-5.826259.426818,3.079337-.227499-2.007822-.327415-2.882692-.446832-3.912485-.819569-7.833132-1.117713-11.759753-1.181971-15.566823-1.205865-31.232077.073498-46.793657.291415-3.544643.665109-7.079227,1.080762-10.611151.408204-3.468627.126042-.987548.022163-.262702.115105-.803182.232049-1.606016.353217-2.408305.321477-2.128592.669907-4.252881,1.046497-6.37242,1.337872-7.529865,3.058558-14.977756,5.095321-22.348657,2.231378-8.075198,4.811557-16.052884,7.718733-23.909992,3.212998-8.68364,4.897412-12.663196,8.827932-20.923579,6.870806-14.439687,14.794705-28.584097,24.185274-41.548055.373116-.515098,3.185198-4.207969,2.260202-3.046219-1.250206,1.570195.686766-.826771.974679-1.180259.461655-.566801.925763-1.131625,1.394756-1.692386,2.160309-2.583015,4.398508-5.10159,6.710274-7.550008,4.498875-4.76481,9.294393-9.239932,14.272612-13.498874,1.21921-1.043053,2.462148-2.059609,3.713874-3.063308.533978-.428171,1.071416-.851736,1.60863-1.275833-2.569003,2.028069-.646518.504694-.098835.106411,2.554929-1.857982,5.114949-3.701393,7.746552-5.450527,5.167041-3.434352,10.516755-6.595038,16.00623-9.485545,2.700307-1.421859,5.435498-2.778221,8.200492-4.069769,1.176048-.549341,2.357746-1.086942,3.544432-1.612906.788205-.349349,1.580163-.689652,2.371209-1.03252-1.227169.531899-1.922821.785696-.269946.133748,5.535427-2.183353,11.11016-4.223878,16.795119-5.987596,10.874545-3.373749,22.070266-5.915494,33.261738-7.951178,2.487555-.452476,4.98228-.865327,7.482684-1.240247,1.440065-.215929,4.216767-.532537,1.183743-.184501,1.32262-.151769,2.642272-.32847,3.965377-.477284,2.408285-.270868,4.823527-.54402,7.242967-.690256,1.130671-.06834,8.32379-.809501,5.191635-.515429-2.016929.189365,1.336379-.078056,1.870838-.116156,9.103242-.648936,18.236606-.787311,27.353567-.366597,6.144516.283547,11.580352-4.96949,12.278883-10.840391.662018-5.564021-2.734363-12.760162-8.955309-13.717375Z"/>
</svg>