<?xml version="1.0" encoding="UTF-8"?>
<svg id="Layer_1" data-name="Layer 1" xmlns="http://www.w3.org/2000/svg" viewBox="0 0 373.256851 373.256851">
  <defs>
    <style>
      .cls-1 {
        stroke-width: 0px;
      }
    </style>
  </defs>
  <path class="cls-1" d="m290.444699,228.585619c-.211243-2.500916-.172913-3.26709-.021362-3.729797.067078-.204102.066528-.444824.000183-.533386-.125671-.151428-.277649-.907104-.566223-2.019165-.065491-.271057-.262329-.6474-.441895-.843018-.203308-.221436-.293518-.455383-.247559-.63446.211853-.823914.001953-1.723267-.305847-1.312195-.169312.225586-.417969-.97998-.255432-1.244568.136475-.230957-.033264-.989868-.458252-1.683105-.209351-.356567-.375549-.785767-.367249-.952942.016846-.301392-.441284-1.328918-.852234-1.911499-.11145-.160339-.316956-.662964-.453308-1.119446-.13739-.45636-.347229-.90741-.465393-1.004272-.120178-.096436-.322083-.549255-.442566-1.009827-.12146-.467957-.304077-.867981-.411255-.903381-.104797-.036316-.432983-.564392-.727539-1.173035-.295471-.611572-.615356-1.111084-.712708-1.116455-.095398-.005432-.222229-.172913-.278931-.370483-.085327-.297424-.397278-.604858-.687866-.739807-.503418-1.606384-1.103821-3.247559-1.625732-4.566101-.389648-.976562-.770386-1.840332-.781799-1.947083-.010498-.052002-.192261-.501831-.488281-1.179077-.176758-.36145-.388367-.794067-.618591-1.264771-.055542-.198669-.230591-.582031-.45752-.990234-.302185-.546082-.595215-1.193237-.654785-1.441162-.058594-.248901-.194031-.482239-.301941-.521973-.116516-.04303-.223633-.23938-.265747-.490417-.040833-.230042-.20874-.581177-.395691-.766968-.241333-.24408-.289551-.365479-.171021-.432495.214722-.120239-.351318-1.181519-.642212-1.203064-.157715-.012024-.197266-.120605-.152039-.4151.04895-.315796.005798-.417297-.202209-.483398-.207703-.065674-.23938-.135071-.152283-.336243.086975-.201355.060547-.258362-.124939-.275085-.129089-.011169-.261169-.150452-.294006-.310913-.032898-.160278-.114685-.25824-.180664-.217529-.062805.038574-.270813-.16449-.457581-.453247-.187012-.289429-.705017-1.006836-1.150818-1.592468-.640503-.881348-2.056885-2.830444-3.136841-4.316528-.083679-.166382-1.372742-1.803467-2.853821-3.644958-.198608-.24939-.330078-.417786-.58374-.706726-.248413-.290588-.488708-.571655-.718323-.840149-.455872-.539978-.86908-1.029297-1.218567-1.443176-.684265-.841492-1.155762-1.34137-1.146423-1.393372.006287-.093384-.065674-.204285-.164978-.249817-.024048-.011169-.290649-.278931-.751709-.75177-.47052-.463196-1.095947-1.172485-1.940796-1.960022-.840271-.791748-1.806885-1.760925-2.925598-2.772278-1.141296-.984436-2.336243-2.128723-3.684387-3.19812-5.28479-4.42981-10.87915-7.907593-11.889526-8.496643-.993347-.6297-3.326294-1.911682-5.157166-2.896301-.927124-.469604-2.041809-1.034241-3.091614-1.56604-1.069092-.487366-2.072021-.944641-2.751709-1.254517-4.257874-1.849304-7.135986-2.929565-10.518433-4.073608-1.787537-.627869-5.137146-1.646179-7.437988-2.23938-7.187012-1.848389-11.863586-2.527954-16.403076-3.098511-2.413696-.288391-6.969604-.685364-10.127686-.717285-3.320251-.092468-9.752197-.16272-16.103699.537354-3.21283.279907-6.315552.873535-8.942383,1.338562-2.588196.614868-4.730164,1.034119-5.92627,1.389832-.898193.248657-2.153687.59613-3.45282.95575-1.309265.337952-2.598877.854797-3.657837,1.197876-2.127686.669556-5.046143,1.919922-6.594238,2.542297-1.265869.496216-2.736267,1.257996-5.58551,2.6073-1.382263.746216-3.100891,1.659912-5.241089,2.879822-1.047791.645142-2.206177,1.358459-3.490784,2.149475-1.292175.782227-2.620422,1.767761-4.131531,2.787415-1.01178.646118-2.837891,2.105347-5.064758,3.814819-2.157043,1.789551-4.667358,3.892212-6.855896,6.03064-.554382.5271-1.132385,1.07666-1.725098,1.640198-.568176.58783-1.150391,1.190186-1.738037,1.798096-.586914.608948-1.17926,1.223389-1.768311,1.834473-.575867.623169-1.122681,1.266357-1.671936,1.88446-2.229736,2.445801-4.057678,4.872131-5.295532,6.392944-4.243042,5.598328-7.278564,10.422119-10.458069,16.572083-.390564.772949-.811035,1.551758-1.201172,2.374451-.375061.830933-.760071,1.684143-1.157227,2.564148-.827332,1.744446-1.55957,3.665588-2.353394,5.733276-.417847,1.024902-.787842,2.113098-1.149414,3.253845-.366455,1.138245-.768433,2.311646-1.140564,3.549194-.669861,2.502197-1.433838,5.186768-1.986816,8.188782l-.383911,1.882202c-.112305.632324-.193542,1.273438-.291016,1.911438-.181091,1.279053-.384949,2.557739-.54071,3.846619-.211792,2.59491-.500305,5.188843-.492188,7.808167-.120422,2.609619.052246,5.224182.162964,7.814026.091125,1.293823.262695,2.579773.39447,3.859741.071716.639709.14325,1.277588.2146,1.913452.110168.631531.219971,1.260986.329407,1.888245.229004,1.253174.45636,2.497437.681702,3.730896.30481,1.218079.606934,2.425537.905945,3.620605.153564.594482.306335,1.185913.458313,1.773987.173279.555176.34552,1.1073.516785,1.656006.344238,1.097229.684326,2.181213,1.019714,3.250244.751709,2.116089,1.477051,4.178101,2.256287,6.141174.407715.976074.807983,1.934387,1.200195,2.873352.382324.94281.782349,1.856567,1.214844,2.733887.335632.694824.94812,1.962708,1.664673,3.446045.794067,1.447693,1.70343,3.105774,2.536743,4.625,1.804504,2.967346,3.399231,5.589722,3.550964,5.839233.109558.275024.319153.556946.472656.635315.151917.078369.414795.351501.588745.610901.08905.127014.562744.803162,1.254639,1.790833.740173.954163,1.713806,2.209229,2.742798,3.535706,1.071106,1.292297,2.562866,3.064636,4.167969,4.815247.819763.860352,1.650208,1.731995,2.442139,2.56311.788147.833801,1.610413,1.557312,2.300415,2.230286,3.951843,3.760803,11.23175,10.130493,21.270386,15.658264,5.00531,2.756531,10.650696,5.311523,16.658264,7.375061,6.004456,2.071777,12.361389,3.652039,18.707947,4.679565,6.347229,1.034851,12.677856,1.520691,18.650269,1.596191,5.973999.049561,11.578796-.33728,16.546936-.859192,2.474487-.316833,4.809998-.568237,6.931152-.949158,1.064575-.172729,2.083618-.338013,3.053101-.4953,1.005676-.20697,1.959839-.40332,2.858276-.588257.900696-.192261,1.745544-.37262,2.530334-.5401.775391-.206116,1.491394-.396423,2.143799-.569763,1.302246-.356384,2.365723-.600586,3.117188-.839905,1.016418-.347473,4.164917-1.242554,6.851074-2.38678,1.324951-.517395,2.6474-1.040466,3.876465-1.636414,1.235779-.580444,2.445374-1.098938,3.515503-1.64917,2.119934-1.135132,3.906128-2.003601,4.85321-2.596252.325073-.196533,1.341553-.81134,2.717529-1.643555,1.383301-.824036,3.012878-2.028442,4.716736-3.18689,1.652588-1.223694,3.177856-2.434387,4.357605-3.331177,1.12793-.955322,1.902527-1.608704,2.055725-1.721619.191284-.140991.803101-.641296,1.683105-1.37677.859497-.755859,1.944641-1.789978,3.156372-2.922729,1.226379-1.11969,2.425781-2.478638,3.663147-3.750732,1.228882-1.280273,2.300537-2.63916,3.278931-3.766724,1.055664-1.201965,1.904602-2.355652,2.06488-2.429565.125916-.100037,1.920898-2.24707,3.691162-4.968872.452271-.674133.903992-1.347534,1.333252-1.987427.401245-.656982.781494-1.279541,1.120178-1.834106.682129-1.107483,1.197021-1.94342,1.379456-2.239563.369385-.590637,1.682678-2.940857,2.904419-5.233337,1.142029-2.331116,2.490295-5.077393,2.901794-6.141174.556091-1.303223,1.121399-2.520935,1.615234-3.829773.475769-1.316467.972351-2.690674,1.538025-4.255798.51001-1.582886,1.024841-3.377319,1.650513-5.498962.25885-1.074158.537903-2.231934.841248-3.490601.148132-.63031.302124-1.285889.462585-1.968933.128601-.688965.262451-1.40564.401794-2.152161.344788-1.835388.676758-3.589539.869751-5.277649.206055-1.685486.481689-3.28241.573792-4.808533.124207-1.52417.241577-2.963867.351929-4.318115.045715-1.356445.088501-2.627258.128418-3.811584.166992-7.48761-.268005-11.747864-.382568-14.257874Zm-28.219482,44.731323c-.318298.70874-.647339,1.571533-1.038086,2.336792-.385803.766541-.74353,1.477234-.979675,1.946472-.244934.468262-.495056,1.013062-.821106,1.605469-.332214.58844-.702637,1.244446-1.114563,1.974121-.779785,1.482605-1.890625,3.160828-3.164368,5.187927-.999573,1.421997-2.418152,3.501526-3.288452,4.516541-.466309.591248-.961426,1.218872-1.493591,1.893616-.561462.648376-1.162109,1.341919-1.810791,2.091003-.625305.769104-1.37207,1.52478-2.162048,2.35675-.393616.416931-.802063.84967-1.226562,1.299377-.435913.437622-.910583.868286-1.389221,1.3302-1.590576,1.604858-3.838501,3.404907-4.814331,4.212524-.506592.380249-1.349548,1.012878-2.2995,1.725891-.929077.740173-2.062256,1.417908-3.007935,2.095703-1.929382,1.300903-4.662537,2.896057-6.045654,3.57489-5.90448,3.057556-10.175476,4.426147-14.197449,5.549561-1.008728.276367-1.99585.569824-3.022034.757568-1.038818.207092-2.004395.462891-3.16272.662537-1.16571.198792-2.376343.405212-3.662842.624573-1.287354.205078-2.655334.360229-4.127319.568359-2.070984.268127-3.763.376709-5.132263.532654-1.369873.093079-2.420349.164368-3.215637.218384-1.590393.132568-2.15741.1745-2.214966.250854-.109192.148621-.146057.152161-.153076.009521-.00354-.071899-.379517-.113342-1.403137-.125916-.511658.001038-1.185425.002441-2.055908.004211-.867371-.023499-1.930725-.052246-3.224487-.087219-4.899292-.201843-8.839294-.595459-11.958984-1.132935-1.572327-.216736-2.932251-.497192-4.123657-.747253-1.196838-.230347-2.218994-.451904-3.07959-.691223-1.731628-.442383-2.884644-.727966-3.584106-.987854-.707397-.236633-.992981-.354065-1.009888-.400757-.046997-.132812-.1521-.167664-.341736-.110718-.176147.055481-2.684143-.55719-6.893188-2.189087-3.296692-1.216614-6.915161-2.994141-9.732117-4.483398-1.375977-.799011-2.615906-1.427124-3.457703-1.975037-.851746-.532471-1.38739-.858215-1.459595-.889954-.086182-.036072-.181396-.099365-.21405-.139221-.032532-.040161-.299866-.221985-.828064-.559937-.524475-.343384-1.27063-.897949-2.311829-1.61377-2.064575-1.451538-5.181458-3.747559-9.121033-7.505737-4.490906-4.256042-8.366272-9.051392-11.653748-14.311218-3.295715-5.254456-6.024109-10.963135-8.176025-17.120911-.158936-.44458-.340454-.952393-.540466-1.511841-.17627-.570129-.368835-1.192932-.573975-1.856567-.207764-.662659-.428284-1.366089-.657898-2.098694-.228516-.730774-.362122-1.424805-.560425-2.168884-.185547-.735657-.375244-1.487671-.566284-2.244995-.137268-.770447-.275513-1.546265-.41272-2.316223-.334839-1.528076-.443665-3.075378-.620056-4.492676-.388794-4.327209-.406128-8.026001-.076233-11.355042.081909-.831909.100952-1.642761.223389-2.432922.115356-.790344.228149-1.562805.33905-2.322632.170044-1.52417.558716-2.97821.835815-4.431885,1.335999-5.776062,3.115295-11.39917,7.013977-18.906738.731079-1.487305,2.047974-3.777283,3.568909-6.263062.814453-1.212158,1.597717-2.523438,2.480652-3.748962.899719-1.213684,1.725098-2.455078,2.588257-3.536926,4.531982-5.875671,10.090332-11.485535,15.18811-15.516235,1.298767-.973389,2.498596-1.944702,3.664673-2.771851,1.177551-.807922,2.266174-1.55481,3.243652-2.225525,2.030884-1.20697,3.549011-2.230408,4.519165-2.685486.626465-.334595,1.60144-.855286,2.668274-1.42511,1.076416-.544983,2.270996-1.074036,3.278137-1.565369,1.000244-.510498,1.95697-.843079,2.632446-1.130798.680847-.272827,1.103333-.442139,1.103333-.442139.012146.03125.510986-.191284,1.413025-.519348.904053-.316101,2.202332-.770142,3.77948-1.321594,3.181885-.972839,7.51825-2.146362,12.112488-2.809265,1.149597-.124695,2.311584-.250732,3.471069-.376526,1.156555-.135437,2.427246-.158936,3.615173-.249084,1.204102-.058777,2.393188-.062256,3.546387-.101135,1.154602.009033,2.275146.017822,3.345764.026184,4.283813.119202,7.759338.478088,9.431213.657288,1.010193.072937,2.263184.264404,3.560608.449463-.839539.276917-1.644958.556396-2.161194.763916-2.896851,1.070435-4.755127,1.941345-6.913086,2.954224-1.130554.568115-3.216125,1.630432-4.577698,2.457642-4.285095,2.520142-6.799561,4.471558-9.196167,6.401367-1.261414,1.042053-3.563721,3.089966-5.024292,4.642029-1.589294,1.558411-4.508057,4.849121-6.920898,8.346069-2.444885,3.478577-4.302307,7.156982-5.031982,8.646179-.300476.54303-.616516,1.349854-.987976,2.165283-.371887.815979-.728577,1.670776-.971741,2.370361-.252136.69574-.586853,1.532898-.855408,2.343506-.252869.816162-.492004,1.588196-.656494,2.119263-.29364.858337-.538513,1.940613-1.034668,3.98938-.232361,1.027405-.441467,2.315063-.729248,3.942078-.099365.82019-.209229,1.726929-.331055,2.732544-.127808,1.005554-.154541,2.118835-.244202,3.340332-.071045.802185-.046997,2.376526-.044617,4.263428.048645.941956.101379,1.962341.155212,3.004272.090576,1.038452.21637,2.095398.323242,3.118958.119812,1.021729.326904,2.118896.499268,3.242859.186829,1.121338.465149,2.244812.688232,3.333008.524902,2.156738,1.074219,4.117798,1.502625,5.359558,1.468628,4.468323,2.999084,7.954712,5.211548,11.98877.554382,1.00885,1.149231,2.053162,1.846558,3.126953.660522,1.09729,1.430115,2.21582,2.274963,3.410767,1.708252,2.372253,3.758789,5.032288,6.539001,7.894409,4.627991,4.834778,10.163879,9.11676,15.921814,12.295227,5.749817,3.195374,11.686035,5.270264,16.813354,6.392883.509338.097168,1.438782.274536,2.526184.482056,1.087158.209595,2.349548.328247,3.498474.488647,2.305847.222534,4.352417.365417,4.542419.37207.191589.031128.424988.030334.526367-.001831.100769-.031677.350098-.05249.5578-.046875.103271.001648.652466.010498,1.454895.023499.801636-.008484,1.854797-.062561,2.967712-.102295,1.11261-.041992,2.637329-.208374,4.201477-.359802,1.55426-.228577,3.156738-.416443,4.400818-.689697,3.538635-.671875,9.751465-2.068542,16.61731-5.217773,5.823425-2.601318,12.086304-6.445374,17.622986-11.214478-.145996.346619-.292725.694092-.453491,1.062439Zm2.350403-44.129578c-13.875427,3.764832-15.139221,5.343384-19.412659,20.09491-.222351.767456-.799866,1.33783-1.642334,1.371826-.037659.002075-.075378.002808-.113037.002197-.81189-.012268-1.432312-.52417-1.67511-1.267517-4.6651-14.284241-5.999756-16.447632-20.412964-20.285278-.974487-.25946-1.546448-1.010864-1.566528-1.827148-.023926-.909851.538513-1.559326,1.367615-1.764526,13.328857-3.298889,16.706177-6.324158,20.170593-20.219971.184937-.741943.75354-1.282654,1.549988-1.282288.007812.000122.016907.000244.026001.000366.766357.011658,1.404358.521423,1.488098,1.258179,1.589172,13.983459,8.822327,18.89801,20.308533,19.900574.96637.084351,1.629272.94458,1.624146,1.972229-.004639,1.075745-.735657,1.781433-1.712341,2.046448Z"/>
  <path class="cls-1" d="m233.951108,110.204047c-.046112-.070483-.456604-.103339-.909088-.072708-.452484.03085-.824646-.003346-.825531-.075174-.000854-.071753-.130402-.08629-.288391-.033059-.158722.053404-.331116.029801-.385773-.053357-.140015-.216658-.419098-.181573-.287659.036927.06546.107682.054779.134911-.027344.064484-.074646-.064727-.138336-.180965-.139252-.254981-.002106-.17135-.082733-.1804-.414307-.044927-.14212.058975-.378265.05775-.523132-.001369-.146606-.059161-.465332-.116791-.713837-.128284-.249756-.010913-.572723-.068046-.724213-.126534-.14975-.059738-.436249-.02949-.636414.067381-.265167.127201-.364014.130385-.365509.009347-.001434-.114836-.065369-.109671-.210938.016059-.141968.122679-.241211.131366-.308533.026951-.143188-.224819-1.689117-.163635-1.780121.073098-.043671.114038-.078278.085307-.086914-.072699-.01358-.20479-.122131-.247601-.503571-.193014-.265656.037683-.571899.000044-.674957-.082813-.131317-.105092-.253204-.095817-.398712.032005-.151581.132953-.23938.138172-.314819.016404-.063538-.100799-.282318-.124072-.545746-.058346-.263428.065902-.528687.036992-.660706-.071715-.121521-.099544-.220795-.130126-.219971-.067418.000793.062677-.099121.031108-.224945-.071189-.182007-.148745-.242218-.135199-.315857.070189-.069061.190196-.142639.214015-.288208.093119-.105499-.089608-.511261-.175565-.895355-.190397-.384186-.015365-.746552-.100383-.804443-.189491-.056122-.087628-.272003-.213119-.476685-.274727-.350494-.105618-.358856-.094579-.148041.163746.212708.2598.205414.265686-.117767.095275-.189941-.101334-.301208-.258764-.247406-.351541.062622-.108166-.012634-.12919-.214966-.056725-.207825.073358-.478638-.007722-.808777-.242832-.79837-.57011-.885345-.781184-.948456-2.287637-.018951-.455063-.081421-.827847-.137054-.827728-.056122.000179-.084717-.196017-.064301-.432866.020935-.237481-.016541-.627337-.083405-.861798-.070892-.261635-.026459-.707697.104218-1.137228.190338-.625507.188446-.717094-.022949-.805555-.172699-.071644-.192719-.146292-.072021-.270485.092773-.093647.13266-.269032.092163-.390203-.041656-.120548-.006927-.218693.079193-.217302.084747.00131.139557-.248983.12207-.556597-.016693-.307665.028442-.597504.10257-.643492.125305-.078424.06189-1.576632-.077759-1.828634-.036041-.062857-.01236-.147972.053009-.186468.069153-.039625.109344-.61154.146088-1.27359.029022-.662582.101562-1.20112.163239-1.198429.115204.004576.098358-.347782-.073578-1.553051-.057281-.396378-.040527-.718128.040009-.764175.07431-.043793.103912-.144934.063049-.220728-.040131-.075893-.009979-.177608.06427-.220678.075531-.043591.138153-.437687.140167-.87591.001343-.437824.061523-.792513.134491-.7878.167023.0109.214691-.736599.055298-.862547-.072052-.055408-.171631-.01305-.222534.094961-.072998.155077-.092407.153168-.087433-.009092.001709-.113382.102264-.236721.225525-.277384.170441-.056301.196686-.169407.111877-.477701-.059357-.220484-.065826-.467287-.012512-.543575.119812-.172422.207825-.42758.325928-1.128454.054016-.28833.137238-.955856.234528-1.761944.09256-.815765.212738-1.837811.408722-3.124645.489227-3.698605,1.096924-7.009987,1.48703-9.092594.449036-2.182034,1.028229-5.425869,2.412659-11.201763.584656-2.311386,1.288849-4.945133,1.588196-5.859039.276184-.915134.479492-1.723408.45224-1.795673-.029785-.056564.092957-.656296.261566-1.176521.510101-1.577499.973053-3.153099,1.551239-4.727959.385925-1.07444.697723-2.061584.973694-2.794029.260803-.731148.41217-1.201759.389343-1.234947-.045685-.066284.025543-.25518.1604-.420647.134338-.16581.248505-.399536.254578-.523331.006653-.122452.121613-.293449.259644-.37989.16449-.101738.246033-.266235.231354-.464783-.019409-.268661.332794-.969803.99762-1.970451.101715-.161331.259064-.556549.344543-.874451.115173-.440796.241058-.620491.523438-.750168.205353-.093903.468323-.381752.58963-.645424.327393-.731323,2.462921-1.560341,2.797852-1.092606.081055.102737.371765.125778.643707.055672.271423-.068832.53302-.048965.579773.041588.046417.091171.121582.094498.166595.006981.052032-.101173.266144-.013367.593231.243362.757141.593346,2.037415,1.278496,2.377167,1.292549.17511.007416.336212.106483.387573.237564.048096.123192.60144.479141,1.226807.790924.625793.313332,1.236938.677063,1.356812.804619.119019.128044.35907.252342.531616.277985.172791.025047.417236.163589.548889.308479.130005.143982.957703.676933,1.839294,1.181183.88031.504913,1.690735,1.00753,1.796631,1.118507.105347.110527.305542.186783.439026.169296.273376-.036957,1.395325.504097,1.846313.875465.16217.133392.446655.352264.62915.483757,1.118103.840157,1.241455,1.298996.601624,2.935448-.125305.311089-.188416.618629-.138245.687569.051392.073074-.058533.317619-.264404.578171-.214722.272339-.408752.704124-.489563,1.086731-.075012.345795-.190552.671432-.259644.725853-.086609.059692-.439636.910194-.817627,1.900284-.371704.996651-.722168,2.181038-.883057,2.8125-.144104.555099-.297668,1.044765-.376465,1.059654-.076965.016384-.101807.115868-.055176.221649.087769.196571.045105.3279-.495605,1.502598-.04541.103863-.098389.225048-.15686.358818-.028015.067612-.057373.138401-.087769.211765-.036926.097305-.075134.198029-.114319.301365-.138916.423328-.29187.889507-.44165,1.346081-.290161.917183-.552673,1.801716-.651245,2.229679-.187317.927593-.21405,1.033974-.703674,2.547874-.24762.766819-.479736,1.513012-.493103,1.666782-.083252.563061-.339844,1.87558-.620117,3.21027-.287354,1.332302-.512146,2.716148-.674622,3.372551-.374817,1.492451-.820007,4.033237-1.238007,6.396645-.369202,2.373997-.653839,4.583164-.746521,5.398083-.033295.442482-.142395,1.892616-.242218,3.219618-.075775,1.047846-.105286,1.969744-.065063,2.046822.039673.077738.081848.271976.092133.43103.050354.528835.102081.720467.273499,1.052481.146301.280865.134308.326078-.078461.313692-.191925-.011269-.211639.030945-.088593.18692.216644.275665.187469,1.244724-.048859,1.61899-.109375.169872-.148499.388601-.089325.48875.166138.280355.164062.564882-.007294.835623-.121368.190355-.108673.253222.055328.259789.222595.008982-.011017.807764-.28714.987707-.065277.040211-.089966.210016-.060242.373419.029907.16461-.001526.518387-.071228.789331-.073456.284697-.067108.596806.016327.743305.097443.173029.087524.282351-.034607.35009-.098022.053814-.182404.220306-.18692.36837-.011139.338495.097656,1.647581.153137,1.839333.074921.261126-.206177,1.406668-.369232,1.501566-.111115.063137-.105713.195333.024933.421415.155548.267632.150574.354824-.02179.480691-.203674.148828-.220551.857317-.048706,2.039592.040771.27872.002441.444571-.096649.427177-.089325-.015085-.167358.13225-.174652.329362-.036713,1.027037-.838348,2.285501-1.346405,2.113081-.122498-.042085-.318329.023505-.443115.147473-.125488.123959-.285217.188651-.363251.145415-.076874-.043882-.137604.030489-.136017.16339.002258.187979-.043915.207035-.20224.085381-.218597-.166642-1.095947-.040296-1.230652.179289-.104218.168605-.320801.172044-.430786.005925Z"/>
  <path class="cls-1" d="m299.434568,142.631174c-.006531-.085014-.350159-.312759-.761047-.504393-.41095-.191469-.720398-.401793-.686768-.465876.033569-.064041-.072937-.139528-.236755-.168715-.16449-.029406-.304199-.133678-.312256-.233709-.019043-.259489-.280273-.363165-.269592-.106333.005859.12693-.016541.145874-.054749.043852-.034424-.093374-.034668-.226976-.000061-.292892.080017-.15263.013733-.199486-.341431-.239801-.15271-.0165-.358948-.131653-.457642-.253799-.100159-.123043-.351868-.327728-.564148-.457779-.213562-.130157-.46936-.336336-.574219-.460903-.102783-.124846-.368225-.236317-.589722-.247641-.292786-.016001-.380859-.06094-.324707-.168081.053345-.101673-.005127-.127932-.192444-.087622-.182617.039347-.273743-.000957-.283142-.125143-.018616-.266638-1.402588-.957815-1.59436-.794533-.092224.078787-.108948.036919-.041687-.105576.085022-.185869.010132-.275623-.349976-.411671-.250671-.095062-.501221-.275566-.552429-.397594-.06543-.15509-.176697-.205637-.364563-.164127-.195679.043064-.275085.00526-.283691-.137333-.008118-.11858-.188965-.244217-.450867-.313776-.261963-.069419-.480774-.222419-.545349-.380638-.059631-.145194-.132263-.219575-.161072-.164607-.028809.054952-.101562-.020646-.163696-.170211-.089539-.217023-.148743-.234142-.309937-.090958-.150085.132173-.225708.117408-.296448-.057765-.050354-.128717-.365723-.398649-.695496-.596287-.329651-.198198-.607544-.446202-.616516-.551258-.008118-.10295-.138611-.315444-.289246-.467108-.257996-.259794-.270508-.254272-.206604.070679.064819.32724.055664.328826-.147949.025877-.11908-.179037-.143005-.368694-.052307-.423135.105591-.063546.049377-.117864-.162048-.152305-.216675-.036307-.41626-.23656-.596069-.598062-.433777-.875398-.413086-1.098449.236328-2.428666.203491-.402667.328918-.754877.279907-.781243-.049438-.026562.020325-.20987.152832-.405016.13324-.195464.288818-.550521.343384-.785087.061462-.261228.301025-.632966.613159-.947517.453125-.458738.493286-.540128.347534-.717846-.119385-.144654-.102966-.219602.059998-.271461.123108-.038156.242493-.173614.264709-.29937.020874-.125741.098267-.195648.173462-.153675.074036.041252.241821-.15298.37323-.431829.132141-.278542.310242-.512134.397522-.517498.147827-.009678.807068-1.357542.804321-1.645333-.00177-.07235.059692-.13602.135681-.138927.074341-.004839.395996-.479918.741638-1.057811.340515-.578336.660461-1.025114.71344-.993418.099243.058723.251709-.263893.673889-1.422646.136902-.381478.306946-.660986.403809-.663622.087402-.003679.164429-.079824.166626-.16699.00293-.086896.080688-.163322.167664-.166292.08844-.002847.341919-.324583.564453-.714658.221802-.390072.45343-.677653.515137-.63834.145813.092526.554138-.55648.470581-.749724-.036499-.084882-.143921-.094459-.240173-.021069-.138184.105424-.154236.094376-.072205-.050309.055786-.101966.202881-.165348.3302-.142806.176025.03107.253052-.058671.326538-.378881.059387-.227739.180115-.453629.265442-.496692.219299-.110949.456848-.338591,1.110352-1.186776.330688-.380274.807617-1.058597,1.651978-2.088449.694885-.858726,1.339294-1.676891,1.944824-2.386354.61731-.702166,1.155212-1.314036,1.571167-1.787224.430908-.497336.986145-1.104382,1.730225-1.911509.731201-.816037,1.656433-1.826014,2.894287-3.07855.964905-1.029123,2.150818-2.111807,2.555542-2.498705.411438-.380188.74231-.739182.735962-.797241.004395-.067959.176697-.294016.486877-.578693.360474-.312899,2.008911-1.929686,3.753052-3.39687,1.720703-1.523573,3.172974-2.697063,3.159851-2.793951-.00769-.079655.144348-.206091.34021-.280766.195496-.075245.40625-.218855.470764-.321999.063965-.101484.246643-.192352.406189-.193178.186768-.003248.331177-.101322.408386-.276217.10498-.236618.722656-.650806,1.745789-1.16596.165955-.084587.466125-.343029.664917-.57247.277039-.320492.458862-.398214.75354-.369534.214355.023235.558167-.087006.770142-.246809.581909-.438791,2.655884-.126348,2.796753.416971.032837.124218.275208.27874.536865.344423.26062.066608.481873.202604.489319.300892.006958.098675.071289.13583.142944.081854.082703-.062269.238098.109394.429199.476686.442322.849688,1.304199,2.018263,1.6026,2.180136.153381.083809.257812.241295.250305.379025-.006897.12915.341919.686255.773926,1.235769.432129.550817.829407,1.140268.881836,1.307041.051636.166721.214966.3822.361572.478788.147095.096205.309082.325672.363525.513926.053711.18646.568542,1.025135,1.143738,1.861933.574585.836369,1.081116,1.644499,1.122925,1.794247.041748.148846.191345.302809.328247.338741.279724.073385,1.070312,1.037413,1.298828,1.57914.082275.194689.233948.522099.335754.723715.622986,1.234561.386169,1.884991-1.150085,3.141268-.295349.245912-.518494.520954-.512939.609659.00647.092971-.226074.264092-.553894.407579-.342102.149585-.75116.454604-1.032166.768479-.255554.286258-.538635.52528-.623352.536249-.216858.020091-3.00946,2.322433-3.865601,3.286964-.397339.414649-.776001.736164-.844604.714376-.073914-.024704-.142029.047401-.151672.16063-.016968.211-.114563.301008-1.133423,1.027405-.119629.085386-.263062.193355-.472412.364848-.558777.404149-1.378723,1.151454-1.637207,1.448454-.320557.3895-.386719.409324-1.037109.953276-.333313.272089-.645386.548533-.692749.613612-.376038.467191-1.825134,2.159561-2.333008,2.666989-.595886.555757-1.485352,1.603104-2.337524,2.550739-.815247.995702-1.557434,1.931399-1.81134,2.289971-.144653.219924-.618774.940676-1.052673,1.600232-.560181.833937-1.007996,1.607291-1.003174,1.700783-.000366.086579-.050964.275271-.113586.41801-.206238.473228-.253357.65959-.260803,1.023301-.005432.308008-.037476.340342-.218201.227454-.163025-.101953-.200439-.075692-.166809.115438.056519.333155-.427307,1.143747-.803467,1.365711-.174561.096076-.309998.268331-.30426.383898.016541.323758-.116638.570874-.392395.725607-.194702.108378-.212585.169288-.071411.252928.19165.113604-.382751.699216-.709045.725369-.073853.006192-.181641.135699-.23291.293686-.052124.158665-.248535.454349-.439148.65919-.200439.215141-.343628.492145-.340027.660242.003357.198016-.057495.289292-.197449.290935-.112.000843-.265686.107068-.340271.234906-.169983.294198-.702637,1.486863-.738342,1.694282-.055786.270063-.837036,1.165728-1.024658,1.173409-.126648.004263-.183044.125748-.181335.385887.0047.309572-.042786.384033-.256531.412884-.249695.039593-.623779.637653-1.043091,1.784653-.099243.269497-.213257.399944-.291809.336889-.071167-.05628-.210999.038454-.312866.211653-.529846.903893-1.840515,1.644373-2.201965,1.2442-.087036-.096783-.290222-.132675-.45929-.082193-.169678.050121-.340759.030663-.388245-.045645-.046143-.07634-.135193-.039295-.197815.080093-.088623.168886-.138184.163534-.218201-.021605-.111145-.254412-.940247-.565783-1.163696-.435608-.172241.099661-.363464-.002205-.379944-.203173Z"/>
  <path class="cls-1" d="m155.953763,106.883733c-.067566-.052857-.467407.048009-.885498.223281-.41803.175421-.781952.262745-.807007.19446-.025055-.068259-.152588-.040264-.28418.06156-.132263.102212-.303467.135332-.383179.073742-.205444-.161222-.457733-.037384-.259888.128138.098175.081414.097229.110794-.004181.070234-.092468-.037529-.191803-.127578-.217529-.19773-.05957-.162455-.138855-.144825-.407166.091402-.114746.102104-.338654.177333-.495544.168148-.158539-.00868-.479401.040024-.718384.109776-.23996.070672-.564575.121433-.727356.115382-.161591-.007818-.422485.113956-.57962.27034-.208527.206079-.301025.241061-.342651.127521-.039551-.107763-.098267-.082063-.194214.083631-.093567.161631-.184631.201947-.282928.125568-.210114-.165159-1.651733.395756-1.659821.646685-.003723.120923-.045929.10525-.106201-.039802-.080414-.187248-.197144-.191911-.539917-.016689-.2388.121684-.540833.186202-.665497.142531-.158722-.055212-.270874-.006726-.366516.159758-.099701.173224-.181061.206591-.292297.117845-.09314-.073131-.307617-.023355-.535156.123623-.227509.147114-.487793.206654-.648102.148925-.1474-.052666-.251221-.048556-.230011.009298.02124.057845-.083527.061158-.23584.007499-.220581-.078292-.27301-.045955-.275696.168168-.003296.198587-.065125.244536-.242096.180234-.128967-.048457-.540466.004704-.908295.116638-.368134.111422-.738159.15169-.821716.088676-.081421-.062282-.326019-.106952-.539307-.096359-.365234.018071-.369568.030921-.086884.199037.285034.169029.280029.176826-.080505.126122-.212219-.030845-.368164-.138747-.34729-.241572.0242-.119869-.05368-.114392-.221405.018614-.172577.135623-.45462.150101-.842072.043682-.937439-.258348-1.086914-.421461-1.631042-1.775556-.164246-.409035-.343079-.728172-.395386-.709275-.052429.018631-.143738-.148935-.198364-.375186-.054993-.226101-.212891-.572981-.349548-.76642-.151672-.215995-.265594-.63561-.288849-1.071832-.035278-.634739-.068542-.717726-.297272-.72544-.186646-.005776-.230957-.066752-.160187-.221377.055023-.117193.032379-.290641-.047119-.386938-.080322-.095327-.08136-.196646-.000122-.225187.079956-.028111.045624-.275017-.076172-.549055-.121094-.274315-.178131-.553888-.124451-.621628.086212-.109491-.470978-1.472691-.686371-1.655235-.054718-.045298-.060944-.13212-.012573-.190655.045868-.058544-.08905-.60792-.301147-1.221165-.212219-.61397-.339081-1.130371-.280487-1.149883.112549-.04064-.04126-.343401-.622711-1.397348-.192169-.346022-.289062-.649519-.230011-.721025.054047-.067165.046295-.171341-.018372-.226748-.064026-.055769-.071472-.160652-.017212-.227177.055267-.067451-.024231-.45447-.175751-.860464-.152008-.405378-.220032-.755079-.150299-.777071.164673-.052145-.063324-.756639-.263916-.812342-.087982-.02463-.164703.050045-.171356.167126-.009491.168058-.028259.173306-.084839.023247-.041168-.104208.00592-.253216.105316-.334915.13678-.112349.119843-.226604-.070801-.482616-.135376-.183327-.230957-.410284-.208984-.500492.055786-.231607.034363-.547821-.19574-1.552719-.166199-.693365-.447662-1.867767-.885162-3.693249-.371948-1.520737-.69574-2.981827-.955536-4.291767-.277679-1.299282-.495728-2.440422-.641144-3.332233-.314911-1.857098-.869385-4.620422-1.52774-9.572605-.241669-1.976105-.506989-4.239182-.558075-5.015957-.064301-.78286-.159515-1.460846-.210388-1.506313-.049225-.041073-.137115-.509132-.189392-.988735l-.410614-4.766117c-.075623-1.072838-.158478-2.056183-.231079-2.776123-.073792-.720879-.13385-1.175484-.166779-1.192749-.06897-.037003-.082367-.22242-.028259-.414131.053467-.19178.060394-.432289.014587-.537529-.045197-.104012-.01001-.293655.07724-.420265.1026-.148529.102936-.315186.001892-.470009-.136444-.210121-.130524-.91774.019104-2.003006.0224-.177628-.019226-.550003-.09491-.826981-.104614-.385849-.07782-.575356.110443-.795219.137085-.159401.233612-.493408.216278-.747673-.047302-.694458,1.350037-2.211929,1.881317-2.045723.121887.038177.383789-.078568.58194-.258232.198334-.178299.433136-.288628.519409-.243195.086334.046066.152588.012794.146667-.074387-.006866-.10051.221741-.138306.633484-.102539.952698.082703,2.401703-.010452,2.700226-.172997.153961-.083122.342804-.086304.453979-.006447.10434.074684.7612.081757,1.457153.015114.697113-.066185,1.407532-.08223,1.575836-.035904.167816.046875.437408.026062.598267-.045555.160858-.072243.441406-.084686.628815-.028069.185486.056145,1.168854.077736,2.183655.047699,1.014069-.029922,1.967468-.016006,2.115814.031792.147552.047249.358093.004166.462769-.094437.213806-.201073,1.452454-.348007,2.031158-.241066.208099.038277.565277.091377.789795.116943,1.374786.156036,1.791565.741386,2.013855,2.827667.043549.405823.140778.774063.218689.821617.079712.051651.093353.357742.03006.732277-.065918.390343-.039734.931999.065338,1.367699.095978.396881.139526.78817.095764.87278-.115387.216255.188599,4.073074.433594,5.457092.110413.604805.147095,1.138474.082642,1.185684-.064575.047268-.04892.153637.035004.237129.157135.154453.168396.300152.126373,1.656631-.006317.160637-.002441.350468.011658.639362.035248,1.083538.14743,2.867268.270935,3.46999.145752.782467.154083.873886.214905,2.211773.021759.681248.097351,1.322052.122559,1.446453.112518.457645.292267,1.552464.490356,2.661839.210205,1.105583.40625,2.23621.476227,2.789135.198669,1.252514.528595,3.338482.958191,5.279587.379242,1.938202.872803,3.742542,1.042633,4.397652.088013.348698.484985,1.618183.805023,2.6478.312561,1.006657.617126,1.877781.691803,1.937073.067047.058598.18158.225719.252869.371372.237061.481968.352203.644978.630768.897322.236572.213112.241486.260321.038544.325439-.183075.058668-.186462.105745-.016083.209009.300354.182774.6185,1.111433.531311,1.550743-.041748.200129-.000671.421177.09375.495607.260498.20718.365753.478983.307709.797842-.041626.224485-.006104.279728.149475.227522.211212-.070818.294067.773087.10379,1.042027-.043884.060879-.009888.232977.074585.379202.084747.147404.177368.498129.205566.782732.029419.299122.143036.596308.271759.707621.15097.131847.179443.240311.088379.348137-.072815.086119-.091309.276081-.042145.4202.111816.329725.687286,1.552685.808929,1.718426.164886.225969.315765,1.425913.196747,1.572498-.080994.098482-.027618.223612.168121.399445.234741.207254.258911.293844.138336.474503-.145813.213085.082947.90839.651184,2.002533.134308.257936.155212.432194.055725.448051-.089478.01491-.112457.184139-.051605.378326.318787,1.012831-.007324,2.49531-.547607,2.491645-.130341-.001085-.293213.125904-.368896.286156-.076416.160502-.205536.274567-.294159.258-.087769-.01754-.119873.073923-.072998.201741.066315.180825.029114.214031-.162354.147644-.263855-.090317-1.051331.31493-1.10437.569251-.041412.195671-.245422.268495-.405975.144443Z"/>
  <path class="cls-1" d="m84.561093,135.009856c-.081085-.02094-.408722.228864-.725464.553308-.316559.32463-.616577.547803-.66507.495502-.048401-.052227-.154633.023474-.236908.168051-.082703.14521-.226868.242854-.323029.218011-.248779-.066283-.433472.145611-.189758.219091.120575.03574.130798.062929.022644.065781-.098816.002085-.223816-.041182-.273895-.095165-.115845-.124952-.182037-.077946-.338837.243073-.066589.138292-.243439.294849-.390961.34774-.148834.054035-.425018.223856-.618073.380966-.193542.158382-.472656.331308-.624847.388905-.151733.055525-.345245.268751-.429565.473936-.112488.270987-.184021.339252-.266388.250458-.078125-.084225-.122375-.037827-.146545.152447-.02356.185631-.091705.258261-.212067.225578-.257751-.071463-1.3703,1.003357-1.278625,1.240383.04425.114031-.000916.115707-.1138.003763-.148102-.143465-.257965-.1031-.505829.191582-.172821.204998-.426727.380865-.559601.387632-.168945.009014-.253723.097031-.27597.289356-.023315.200195-.085297.262604-.223877.221842-.11554-.033001-.294617.095221-.446808.319719-.152039.224638-.369568.379629-.541718.38611-.158142.006363-.252991.0495-.2099.09593.04303.046402-.052917.089266-.216187.096344-.236694.00968-.272522.059835-.188263.262775.077332.188515.038605.255377-.152039.2616-.139557.003054-.500854.20853-.797791.452894-.297333.244081-.625793.421206-.729645.392693-.101501-.028555-.348114.020586-.542999.110256-.333832.153448-.332581.167334.000793.221638.335693.054066.334259.063347-.023163.150028-.210876.050024-.401245.0054-.424194-.100235-.026825-.123064-.097443-.088896-.199341.100132-.105408.193344-.362976.312288-.770172.354208-.984497.099026-1.203491.003395-2.249573-1.113121-.317108-.336555-.612122-.581295-.653809-.544453-.041992.037228-.194092-.094435-.336426-.289694-.142395-.19606-.430023-.470503-.636353-.606377-.230835-.151205-.494781-.518167-.684753-.929298-.275848-.598747-.338531-.666744-.556946-.59457-.178009.059441-.243103.016075-.235443-.157352.007111-.131916-.080353-.290897-.192017-.355982-.112122-.063864-.151703-.160992-.085907-.21656.064697-.054735-.061646-.280193-.280823-.501537-.220459-.2209-.375183-.472866-.348969-.556967.043243-.142363-.983368-1.247934-1.253479-1.349339-.068268-.024496-.106018-.105213-.081787-.177597.021912-.071608-.307129-.549309-.731567-1.062023-.414825-.51825-.715027-.971549-.666656-1.009936.090027-.072029-.154938-.326466-1.079285-1.121975-.304535-.261144-.503937-.514577-.47345-.602021.026642-.081406-.015167-.178068-.095184-.208754-.079193-.031378-.121918-.128425-.093506-.209825.029022-.082627-.17746-.423161-.458252-.757473-.280975-.333581-.463959-.642564-.405762-.686844.137299-.104795-.316833-.696569-.524719-.682145-.091217.006143-.138123.10272-.104584.216045.048218.162638.032288.173927-.071991.050511-.074249-.085067-.080536-.242247-.014648-.353088.091217-.153372.035004-.254101-.233368-.427195-.188568-.125519-.354309-.305319-.3638-.397164-.021973-.20715-.121887-.455181-.489807-1.055387-.261353-.418329-.686615-1.098921-1.411652-2.259381-.99588-1.575175-1.866333-3.001072-2.390167-3.909978-.561462-.9506-1.413727-2.336305-2.939362-4.80466l-1.518738-2.524366c-.233673-.399896-.462067-.72788-.51709-.727896-.062592-.0152-.20636-.176438-.406219-.489921-.23645-.375574-1.358521-2.157891-2.491486-3.957469-1.127716-1.800832-2.085724-3.275193-2.168304-3.275478-.078278-.000007-.177032-.155922-.219116-.349026-.042694-.192874-.149353-.40655-.239166-.477112-.088776-.069779-.146576-.252216-.12793-.40384.021729-.178077-.055237-.323968-.216156-.41177-.217804-.119542-.540375-.740663-.911774-1.760332-.061279-.165495-.274963-.472776-.473145-.680132-.275696-.289377-.339569-.467625-.277466-.749449.045929-.204517-.026031-.542944-.160797-.757637-.367798-.58596.148956-2.57892.694733-2.685226.125244-.024267.300903-.250864.390747-.502527.090668-.250566.245361-.458805.342743-.45982.097687-.000483.14035-.061119.094055-.134871-.053375-.085026.130035-.226645.509338-.390484.877625-.379124,2.109436-1.147894,2.295471-1.432484.096283-.146135.261017-.238491.396606-.220915.127106.01627.708771-.28887,1.290009-.677446.582458-.388733,1.200378-.739609,1.370453-.778509.169952-.038206.397491-.184298.505219-.323704.107422-.139936.348541-.283876.540375-.322733.189911-.038376,1.06604-.485239,1.945465-.992468.878784-.506802,1.725037-.946024,1.878387-.973986.152374-.028082.317383-.165882.362701-.302679.092834-.279106,1.113708-.995914,1.674286-1.175259.201447-.064636.541321-.18671.751221-.27034,1.285126-.512636,1.931244-.190577,3.121429,1.555006.231842.338303.493256.616364.584656.621752.094971.006416.252747.275484.375305.63978.127747.380182.408752.852222.709015,1.192595.273804.309664.498444.640112.500366.734861.00354.229845,2.10498,3.570107,2.982788,4.705914.38385.504135.668823.976843.633759,1.049486-.035126.072725.0289.163435.143524.200626.21344.068493.292999.196285.901215,1.447121.071503.146759.162964.324017.310852.586012.289215.628712.837646,1.597778,1.07901,1.907768.308319.399976.336823.451388.700409,1.224207.182953.391602.374084.764013.426971.823642.389313.457797,1.623077,2.304605,1.967255,2.924865.774414,1.41992,2.754944,4.600811,3.262329,5.274605.153809.202708.657898.86704,1.119171,1.474967.636383.851109,1.23114,1.566643,1.316071,1.59449.082336.032169.245117.149881.360199.26216.381866.371099.543823.484729.888641.626452.292358.119234.312561.16177.143738.291835-.152344.117257-.139954.162539.054016.20134.339111.073161.951508.825494,1.021515,1.258813.029236.19933.143677.389382.254303.425902.310089.10191.49585.317126.544678.632896.033661.2226.084625.261529.21283.159031.174255-.139332.522064.616138.437469.925456-.02063.071173.068787.216508.196686.320284.12851.104753.332458.392616.454193.643069.127747.263299.333435.494972.490662.5509.184875.066773.247742.155864.199158.287256-.039337.105016.00415.286234.096039.401099.207886.265106,1.153625,1.156808,1.319855,1.263752.227753.143786.767944,1.176422.707703,1.354262-.042328.120444.051086.211918.293427.295079.289246.096469.341614.164543.293243.371984-.05719.245152.386902.783815,1.276947,1.550076.209625.180878.288452.328856.203552.381104-.076782.048269-.038116.207236.086273.355537.648682.771133.88028,2.222464.388123,2.435846-.11911.050948-.221832.229368-.23288.40314-.011658.174257-.087891.328112-.174622.348539-.086334.019208-.082397.114093.006683.210227.125977.135963.104248.180729-.094177.197391-.273132.023962-.843292.701658-.797943.952674.03418.193192-.124725.34037-.316925.291882Z"/>
</svg>