<?xml version="1.0" encoding="UTF-8"?>
<svg id="Layer_1" data-name="Layer 1" xmlns="http://www.w3.org/2000/svg" viewBox="0 0 1080 1080">
  <defs>
    <style>
      .cls-1 {
        fill: currentColor;
        stroke-width: 0px;
      }
    </style>
  </defs>
  <path class="cls-1" d="m496.761426,85.368758c-10.953461-1.696751-21.965005-3.104635-33.007631-4.075986-4.813343-.4234-9.633821-.765694-14.458534-1.02949-2.480403-.135619-4.961957-.250433-7.444276-.34468-2.541961-.096511-12.213919-.467328-1.69936.359344-4.998019-.392953-8.760673-.806325-13.574285-.673566-2.603287.071798-5.207948.087941-7.811399.165544-5.312884.158365-10.623019.410001-15.927028.755445-13.51784.880402-26.934235,2.507649-40.348552,4.373412l7.529155-1.011695c-7.101473-.135181-14.949619,2.086696-21.960068,3.506977-5.254679,1.064571-10.489477,2.228007-15.699635,3.492661-10.627278,2.579545-21.153533,5.579915-31.533929,9.02182-23.195227,7.691014-45.955516,17.37897-67.367318,29.173605-46.85926,25.812299-86.430735,62.309011-116.660092,106.366889-36.098008,52.611163-62.788004,113.063212-78.789406,174.764554-14.87512,57.358403-18.670361,118.029253-13.578845,176.966247,5.362141,62.069628,19.545599,122.508752,44.701421,179.566568,21.036053,47.713456,52.857591,90.991906,90.063849,127.366405,38.155849,37.302862,82.833554,68.537097,130.629402,92.196656,48.576821,24.046151,100.460673,41.710166,153.941983,50.764707,58.8767,9.967996,119.628438,11.811872,178.914265,4.386158,31.125489-3.898554,61.855283-9.566906,91.93189-18.581885,30.575095-9.164393,60.41529-21.307611,88.918378-35.653313,50.028269-25.179399,96.636836-58.815134,134.782531-99.949509,38.74169-41.777066,68.465266-90.266819,88.30092-143.635991,9.309317-25.047349,15.579269-51.091972,20.795473-77.265851,5.922059-29.715718,10.181245-59.864719,12.655338-90.063873,4.625429-56.458685,1.676901-113.446302-9.201147-169.066562-10.727159-54.848755-30.76556-108.539576-59.387863-156.586626-15.243847-25.589201-33.20324-49.743688-52.894738-72.075923-18.609995-21.105696-39.747481-39.160619-62.043582-56.243997-44.697122-34.247146-95.964163-61.571191-149.897893-78.002944-25.496387-7.767873-52.629595-12.926609-79.339078-12.957604-25.612171-.029721-51.535791,3.571171-76.513022,9.046317-59.763735,13.100538-115.645768,40.204094-163.772825,77.735253-38.996341,30.410708-72.231455,68.996496-96.866041,111.868293-27.980498,48.694718-43.939941,102.125017-51.278456,157.550223-7.598841,57.391363-4.304974,116.75463,7.03219,173.444369,10.121272,50.609859,29.318106,100.706461,58.796766,143.269935,31.969008,46.159223,74.401714,83.657544,122.870539,111.895064,24.254229,14.130305,50.455435,25.560127,77.354868,33.593586,27.634042,8.252848,56.398842,12.540994,85.091462,14.93983,60.079457,5.022921,121.860985-1.391495,180.003593-17.163434,28.152857-7.636829,55.9571-17.925892,81.845206-31.419073,26.03194-13.568149,50.124657-30.290803,73.14262-48.439917,45.228307-35.661439,84.927369-81.894035,103.625952-137.080324,18.64025-55.014126,6.52266-114.105914-24.823213-161.936795-31.851138-48.601869-79.07711-88.539483-132.15007-112.179225-14.700046-6.54769-29.649349-12.523473-45.178049-16.802746-12.62699-3.479643-25.555675-5.783931-38.494858-7.752029-28.659637-4.359238-57.498911-7.16117-86.509276-6.993903-58.555094.337616-116.584056,11.369547-169.852192,35.953753-55.158775,25.45677-101.266777,69.728748-136.375037,118.711101-15.705661,21.912229-27.444021,45.971898-37.241195,71.02935-7.455888,19.069329-13.698635,38.919166-17.527722,59.055955-5.244648,27.581081-7.219729,55.922407-.401284,83.452964,7.780352,31.414409,29.183023,60.629681,61.292433,69.726169,26.389711,7.476116,56.089278,2.39178,81.43717-6.657264,25.85746-9.230957,49.474137-22.515282,71.318606-39.10384,12.844881-9.754326,25.298248-19.867095,36.693216-31.301724,10.656206-10.693296,20.116581-22.31636,29.287089-34.28896,14.663157-19.143554,26.883123-39.973351,37.276776-61.710268,11.964878-25.02292,22.776442-50.936565,29.578604-77.878995,6.890301-27.291533,10.110068-55.708409,10.672088-83.824316.56076-28.052846-.634168-56.486504-4.794606-84.252242-3.02162-20.165548-8.002795-40.105706-13.560266-59.704571-6.988785-24.64651-15.473978-48.870828-26.177535-72.165627-9.815621-21.362331-24.237219-40.308431-39.212208-58.302363-16.864754-20.264672-36.590115-38.211531-58.627008-52.734332-25.597169-16.869103-54.238702-26.338729-84.566478-29.61583-8.593963-.92863-19.608567,4.689608-25.468255,10.549297-6.246966,6.246966-10.951153,16.496264-10.549297,25.468255.41722,9.314994,3.477043,18.976056,10.549297,25.468255,7.456634,6.845053,15.446742,9.466411,25.468255,10.549297,1.537115.166095,3.068547.349626,4.601359.551582l-9.574892-1.286582c11.947524,1.715519,23.507588,4.95542,34.662829,9.554256l-8.60115-3.629728c13.990359,5.929329,26.944353,13.799502,38.998269,23.025256l-7.284655-5.628096c17.796824,13.820832,33.303787,30.261356,47.076334,48.051885l-5.62516-7.280854c11.900861,15.500247,21.880908,31.462822,29.533345,49.468524l-3.624937-8.589798c8.651437,20.590449,15.451181,41.95713,21.281229,63.502554,4.872098,18.00524,9.287162,36.291284,11.83884,54.787856-.427752-3.183378-.855503-6.366757-1.283255-9.550135,2.446513,18.341734,2.925776,37.185375,3.171416,55.669751.255484,19.225186-.556381,38.454186-3.079603,57.524246.427376-3.18058.854751-6.361159,1.282127-9.541739-3.785719,27.614222-11.495367,54.2792-22.283103,79.955888l3.615961-8.568528c-12.549157,29.687697-27.564495,58.294272-47.192689,83.956037l5.604516-7.254134c-14.843354,19.208817-32.001575,36.379349-51.162422,51.283353l7.25004-5.601353c-16.54237,12.721177-34.317445,24.391129-53.543768,32.641962l8.553092-3.609447c-13.253018,5.587379-27.146562,9.793896-41.398958,11.848729l9.554632-1.283859c-7.988747,1.063495-16.015813,1.398144-24.027358.383079,3.192014.428912,6.384028.857824,9.576042,1.286736-4.640491-.677059-9.116588-1.804642-13.453039-3.60413,2.872013,1.212004,5.744026,2.424008,8.616039,3.636011-3.091785-1.380168-5.95614-3.051485-8.645144-5.109315,2.435546,1.881694,4.871092,3.763387,7.306639,5.645081-3.276938-2.674803-6.061624-5.821838-8.651456-9.156236l5.651677,7.315177c-3.438773-4.617371-6.264256-9.54921-8.583206-14.816124l3.649437,8.647854c-3.251919-7.741497-5.279898-15.823132-6.445144-24.128077.43205,3.215368.8641,6.430736,1.296151,9.646105-1.729575-13.477535-1.216759-27.0557.551477-40.500703-.433666,3.227395-.867332,6.454789-1.300999,9.682184,3.675113-26.675045,12.033629-52.914844,22.393761-77.701277l-3.698861,8.76497c9.945477-23.512469,22.884699-45.485568,38.405696-65.749631-1.919905,2.485005-3.839811,4.97001-5.759716,7.455015,18.979639-24.529891,41.252773-47.381427,65.800501-66.372051l-7.42651,5.737693c18.415143-14.069568,38.579064-25.531058,59.897615-34.586567l-8.740652,3.688599c28.12899-11.780496,57.792845-19.270048,87.977086-23.390917l-9.690636,1.302134c41.097857-5.450224,82.808328-4.745406,123.860896.756549l-9.640982-1.295462c26.957767,3.694079,53.084213,9.484279,78.231832,20.083433l-8.634139-3.643649c22.727313,9.733213,44.06549,22.361625,63.670008,37.41567l-7.292632-5.634259c18.264951,14.181093,34.875992,30.371977,49.109577,48.613916-1.872657-2.42385-3.745314-4.8477-5.617971-7.271549,11.198528,14.535658,20.782978,30.229468,27.925849,47.15323l-3.613595-8.562922c5.020052,12.162245,8.692411,24.777143,10.571237,37.810809-.426115-3.171201-.852231-6.342402-1.278346-9.513603,1.618031,12.06521,1.578656,24.18058-.013116,36.246354.425465-3.166357.850929-6.332713,1.276394-9.49907-1.944838,13.679173-5.799543,26.907988-11.099377,39.655082l3.595859-8.520892c-7.634555,17.958106-17.920568,34.565484-29.792515,50.018002l5.563814-7.201452c-18.449817,23.741252-40.374147,44.533993-64.10708,62.927026l7.174045-5.542639c-26.174212,20.128433-54.538619,37.835803-84.994163,50.717611,2.810644-1.186106,5.621288-2.372212,8.431933-3.558317-36.93035,15.426119-76.195271,24.974858-115.785478,30.410709l9.335585-1.254426c-42.021517,5.631074-84.663291,6.27758-126.724362.648904l9.298248,1.249409c-29.08479-4.007569-57.538384-11.29499-84.636296-22.663199l8.385953,3.538914c-28.956588-12.309765-55.682838-28.947434-80.560638-48.136262l7.132733,5.510722c-21.448105-16.663138-40.815859-35.565051-57.464313-57.051831l5.529282,7.156756c-16.745774-21.816082-30.453316-45.717989-41.237423-71.004372l3.576879,8.475918c-14.182552-33.632905-23.062239-69.180111-28.001139-105.298622.424385,3.158326.848771,6.316653,1.273156,9.474979-5.978362-44.76452-6.743903-90.505974-.770556-135.308502-.426747,3.175903-.853495,6.351806-1.280242,9.527709,4.710529-34.375925,13.532859-68.06749,26.98208-100.074439l-3.628296,8.597756c12.061113-28.393623,27.644786-55.123806,46.501631-79.542242l-5.64897,7.311673c19.018229-24.434251,41.108046-46.33249,65.607154-65.261312l-7.339123,5.670178c24.365439-18.626698,51.055392-33.905396,79.272061-45.892635l-8.694487,3.669117c30.004379-12.596908,61.508829-21.44226,93.75853-25.883094l-9.746377,1.309624c21.471022-2.867292,43.14291-3.871331,64.674738-1.099646l-9.804005-1.317368c27.681892,3.736775,54.498454,12.255647,80.201252,23.023958l-8.87652-3.745935c39.048917,16.528735,76.072599,38.245729,109.663231,64.112025l-7.511175-5.803105c26.578233,20.608249,50.06487,44.184295,70.695043,70.747826l-5.769758-7.468013c22.882657,29.689318,41.794008,62.184829,56.467727,96.672037l-3.695721-8.757529c16.969167,40.26414,28.017744,82.725768,33.855132,125.998078l-1.299623-9.671946c7.208058,54.614034,6.184069,110.003981-1.119147,164.550175.429029-3.192887.858059-6.385775,1.287088-9.578662-6.358628,46.690378-16.089059,93.686957-34.461392,137.242569,1.199491-2.842362,2.398982-5.684724,3.598473-8.527086-12.812462,30.043979-29.399888,58.291964-49.270361,84.208976,1.844757-2.387738,3.689515-4.775476,5.534272-7.163214-21.715818,28.104166-47.060132,53.160316-75.129417,74.901469l7.096609-5.482813c-32.921746,25.316537-69.309253,45.962454-107.527886,62.150524l8.284146-3.49595c-40.929973,17.170537-83.913457,28.664083-127.880007,34.655474l9.109814-1.224089c-51.779498,6.890703-105.02178,7.09652-156.826898.284746l8.980492,1.206712c-46.690299-6.279016-92.382747-18.873736-135.782584-37.18304l7.965391,3.361434c-39.86406-16.951242-77.61974-38.665257-111.94912-65.112902l6.667269,5.151106c-29.307513-22.725461-55.917079-48.802621-78.612884-78.160607l5.097336,6.597673c-19.512567-25.431434-35.782461-53.06138-48.333813-82.561681l3.256352,7.716383c-17.812888-42.296584-29.206269-87.091334-35.339124-132.528859.379557,2.824708.759114,5.649417,1.138671,8.474125-6.228466-47.210609-6.793387-95.196795-.537927-142.436251l-1.122886,8.356648c5.894316-43.35722,18.277551-85.523418,35.143063-125.8531l-3.128034,7.412315c8.471154-20.071075,18.04918-39.664384,28.828602-58.599164,5.356533-9.409111,10.994905-18.659129,16.927322-27.716444,2.545381-3.886159,5.158955-7.726195,7.863812-11.503279,1.16384-1.625195,2.343608-3.239081,3.539111-4.841129.594403-.796536,1.198082-1.585818,1.794013-2.381141,3.36935-4.496689-4.432616,5.61162-1.154733,1.516635,10.779039-13.466008,22.505206-26.130501,35.355129-37.649979,3.10816-2.78635,6.229389-5.560806,9.425665-8.245896,1.409608-1.184167,2.829836-2.355795,4.260284-3.514703.712756-.577455,1.42814-1.151807,2.145975-1.722953.71626-.569886,1.43501-1.136615,2.156249-1.700186l-3.949228,3.047301c6.669239-4.711794,13.115758-9.669804,19.964599-14.137607,13.331292-8.696592,27.293282-16.414559,41.708593-23.160658,3.53659-1.655059,7.105807-3.23314,10.686352-4.790072,4.274427-1.858653-7.454582,3.078608-1.035367.457521,1.99264-.813633,3.992397-1.609952,5.998762-2.389123,7.14922-2.776397,14.383069-5.334628,21.684677-7.680927,14.198808-4.562645,28.668165-8.377482,43.287522-11.334236,7.056964-1.427266,14.04692-3.074302,21.149793-4.367366,3.274951-.596198,6.55669-1.154746,9.844162-1.677459,1.72098-.273638,3.443547-.537272,5.167634-.790614,2.461042-.361633,9.801795-1.221154-.334474.012732,7.475539-.909996,14.97784-1.96393,22.505332-2.324383,3.758264-.179964,7.720691-.143805,11.36289-1.110517-6.143408,1.630582-6.053646.509617-3.698928.328216,1.082314-.083379,2.164241-.171381,3.246832-.251232,3.546535-.261591,7.096192-.481405,10.647953-.658482,13.440524-.670091,26.908925-.723311,40.351734-.089387,11.328268.534208,20.961163-9.089317,22.396721-19.772907,1.362361-10.138849-5.111959-23.282101-16.334512-25.020536Z"/>
</svg>