<?xml version="1.0" encoding="UTF-8"?>
<svg id="Layer_1" data-name="Layer 1" xmlns="http://www.w3.org/2000/svg" viewBox="0 0 500 500">
  <defs>
    <style>
      .cls-1 {
        fill: currentColor;
        stroke-width: 0px;
      }
    </style>
  </defs>
  <path class="cls-1" d="m488.636664,220.128739c-.477061-5.647959-.390498-7.378254-.048244-8.423212.151485-.460934.150245-1.004572.000414-1.204576-.283811-.341979-.62703-2.048565-1.278734-4.559995-.147901-.612144-.592433-1.46206-.997955-1.903834-.459142-.50008-.662868-1.028418-.559076-1.432838.47844-1.860691.004411-3.89175-.690712-2.963404-.382366.509453-.943922-2.213145-.576857-2.810678.308208-.521583-.075122-2.235475-1.034896-3.801052-.472788-.805256-.848124-1.774541-.829378-2.152083.038044-.68065-.996577-3.001172-1.924648-4.316846-.251694-.362103-.715799-1.497209-1.023731-2.528108-.310276-1.030623-.784167-2.049255-1.051023-2.268005-.271405-.217786-.727377-1.240414-.999472-2.280549-.2743-1.056813-.686715-1.96021-.92876-2.040157-.23667-.082014-.977831-1.274599-1.643043-2.649131-.667279-1.381148-1.389694-2.509224-1.609548-2.521354-.215443-.012268-.501872-.390498-.629925-.836684-.192699-.67169-.897195-1.365986-1.553447-1.670748-1.136897-3.627788-2.492821-7.334145-3.671483-10.311884-.879965-2.205426-1.739806-4.156126-1.765582-4.397207-.023708-.117439-.434193-1.133313-1.102713-2.662777-.399182-.816283-.87707-1.793287-1.397-2.856303-.125434-.448666-.520756-1.314434-1.033242-2.236302-.682442-1.233247-1.344207-2.694755-1.478738-3.254658-.132326-.562108-.438191-1.089067-.68189-1.1788-.263135-.097177-.505043-.540605-.600152-1.107538-.092214-.519516-.47141-1.312504-.893611-1.732087-.545016-.551219-.653909-.825381-.386225-.976728.484918-.271543-.793402-2.66829-1.450343-2.716947-.356176-.027154-.445496-.27237-.343357-.937444.110547-.71318.013095-.942406-.456661-1.091686-.469067-.148315-.540605-.305038-.343909-.759356.196421-.454731.136736-.583473-.282157-.621241-.29153-.025225-.589814-.339773-.663971-.702153-.074295-.361966-.259-.583197-.408004-.491259-.141836.087114-.611592-.371476-1.03338-1.023593-.422339-.653633-1.59218-2.273795-2.598957-3.596361-1.446484-1.990397-4.645179-6.392153-7.084105-9.74826-.188977-.37575-3.10014-4.072871-6.444945-8.231616-.448529-.563211-.745434-.943509-1.318294-1.596039-.561005-.656252-1.103678-1.291001-1.622229-1.897356-1.029521-1.219463-1.962692-2.324519-2.751959-3.259207-1.545315-1.900388-2.610122-3.029291-2.589033-3.14673.014197-.210894-.148315-.461348-.372579-.564176-.054309-.025225-.65639-.629925-1.697627-1.697765-1.062602-1.046061-2.47504-2.64789-4.383009-4.426428-1.897632-1.788049-4.08059-3.976797-6.607044-6.260792-2.577454-2.223208-5.276069-4.807416-8.32066-7.222496-11.93494-10.004089-24.569001-17.858164-26.85079-19.18845-2.243332-1.422086-7.511958-4.31726-11.646719-6.540881-2.093777-1.060534-4.611133-2.335684-6.981966-3.536677-2.41439-1.100646-4.679363-2.133336-6.21434-2.833146-9.615797-4.176388-16.115601-6.616003-23.754371-9.19966-4.036895-1.417951-11.601507-3.71766-16.79763-5.057318-16.230835-4.174321-26.792208-5.709022-37.043994-6.997542-5.450987-.65129-15.739852-1.547796-22.871925-1.619886-7.498312-.208826-22.023939-.367479-36.367893,1.213536-7.255715.63213-14.262768,1.972754-20.195089,3.02295-5.845069,1.388592-10.682396,2.335409-13.38363,3.138735-2.028441.561557-4.863792,1.346275-7.797698,2.158423-2.956787.763215-5.869191,1.930437-8.2607,2.705231-4.805073,1.512095-11.395989,4.335868-14.892141,5.741414-2.858784,1.120632-6.179467,2.841003-12.614074,5.888213-3.121643,1.685221-7.002918,3.748673-11.836247,6.503664-2.366285,1.45696-4.982334,3.067886-7.883434,4.854281-2.918193,1.766546-5.917848,3.992235-9.33047,6.294976-2.28496,1.459165-6.408969,4.754623-11.43803,8.615222-4.871373,4.041444-10.540559,8.790002-15.483058,13.619335-1.251993,1.190379-2.55733,2.431483-3.895886,3.704151-1.283145,1.327529-2.597992,2.687863-3.925107,4.060741-1.325461,1.375221-2.66319,2.762848-3.993476,4.142893-1.300512,1.407338-2.535413,2.859887-3.775828,4.255784-5.03554,5.52349-9.163684,11.00301-11.9592,14.437548-9.582302,12.64302-16.437594,23.536861-23.618048,37.425671-.882033,1.745595-1.831607,3.504422-2.712674,5.362356-.847022,1.876542-1.716511,3.803396-2.61343,5.79076-1.86841,3.939581-3.522066,8.278206-5.314802,12.947782-.943647,2.314595-1.779228,4.772129-2.595787,7.348343-.827586,2.570562-1.735395,5.22052-2.5758,8.015346-1.512785,5.650854-3.238117,11.713571-4.48694,18.493189l-.867008,4.250684c-.253624,1.428014-.437088,2.875876-.657217,4.316708-.408969,2.888557-.869351,5.776287-1.221117,8.687036-.478302,5.860231-1.129867,11.718257-1.111535,17.633624-.271957,5.89345.11799,11.798066.368031,17.646857.205794,2.921914.59326,5.826047.890854,8.716672.161961,1.444692.323508,2.885249.484642,4.321257.2488,1.426222.496772,2.847757.743918,4.26433.517172,2.830113,1.030623,5.640102,1.539525,8.425693.688369,2.750856,1.370672,5.477728,2.045946,8.176618.346803,1.342553.691815,2.678215,1.035034,4.006295.391325,1.253785.780307,2.500678,1.167084,3.739852.777413,2.477934,1.545452,4.925958,2.302879,7.34021,1.697627,4.778883,3.335707,9.435641,5.0955,13.868961.920765,2.204324,1.824715,4.368536,2.710469,6.489053.863424,2.129201,1.766822,4.192791,2.74355,6.174091.757977,1.569161,2.141193,4.432493,3.759425,7.782398,1.793287,3.269407,3.846953,7.013945,5.728871,10.444899,4.075214,6.701326,7.676675,12.623585,8.019344,13.187071.247421.621103.720761,1.257782,1.067426,1.434768.343082.176985.936755.793816,1.329596,1.379632.201107.286843,1.270877,1.813825,2.833421,4.044338,1.671575,2.154839,3.870385,4.989226,6.194215,7.984884,2.418939,2.918468,5.787866,6.921041,9.41276,10.874544,1.851318,1.942981,3.726757,3.911461,5.51522,5.788417,1.779917,1.883021,3.636886,3.516966,5.195157,5.03678,8.924671,8.493235,25.365297,22.878266,48.036115,35.361943,11.303775,6.225229,24.053069,11.995314,37.6203,16.655517,13.560202,4.678812,27.916424,8.247605,42.249214,10.568127,14.334306,2.337063,28.63112,3.434262,42.118956,3.604769,13.49142.111925,26.149051-.761699,37.368881-1.940362,5.588275-.715523,10.862689-1.283282,15.653013-2.143537,2.40419-.390085,4.705553-.763353,6.89499-1.118565,2.271176-.467413,4.426015-.910841,6.455007-1.328494,2.034092-.434193,3.942062-.841508,5.714397-1.219739,1.751108-.465483,3.3681-.895265,4.841462-1.286728,2.940936-.804843,5.342645-1.356337,7.039721-1.896804,2.295435-.784718,9.405868-2.806129,15.472168-5.3902,2.992212-1.168462,5.978773-2.349744,8.75444-3.695605,2.790829-1.31085,5.522525-2.481794,7.939259-3.724414,4.787567-2.563532,8.82143-4.524846,10.96028-5.863264.734131-.443842,3.029704-1.832296,6.13715-3.711732,3.123986-1.860966,6.804154-4.580946,10.652071-7.197133,3.732133-2.763537,7.176733-5.497714,9.841026-7.522985,2.547267-2.157458,4.296584-3.633026,4.64256-3.888029.431988-.318408,1.813687-1.448276,3.801052-3.109238,1.941051-1.707,4.391693-4.042409,7.128214-6.600565,2.769602-2.528659,5.478279-5.597648,8.272692-8.470491,2.775253-2.891314,5.195433-5.960165,7.404995-8.506605,2.384066-2.714466,4.301271-5.319902,4.663236-5.486825.284362-.225918,4.338074-5.074686,8.33596-11.221485,1.021388-1.522433,2.041536-3.043213,3.010958-4.488318.906155-1.483701,1.764892-2.88966,2.529762-4.142066,1.54049-2.501091,2.703301-4.388936,3.115303-5.057732.834203-1.333869,3.800087-6.641504,6.559214-11.818742,2.579108-5.26449,5.623975-11.466563,6.553286-13.868961,1.255852-2.943141,2.532519-5.69317,3.647775-8.648993,1.074456-2.973053,2.195915-6.076501,3.473409-9.61111,1.151784-3.57472,2.314457-7.627191,3.727446-12.418618.584576-2.425831,1.214776-5.040502,1.899837-7.883021.334536-1.423465.682304-2.903995,1.044683-4.446553.290427-1.555928.592708-3.174436.907395-4.860346.778653-4.144961,1.52836-8.106458,1.964208-11.918813.465345-3.806428,1.087827-7.412851,1.295826-10.859381.280503-3.442119.545567-6.693469.794781-9.751844.103242-3.063337.199867-5.933286.290014-8.607917.377128-16.909693-.605252-26.530865-.863976-32.199362Zm-63.729653,101.019277c-.718831,1.600588-1.461922,3.549082-2.344368,5.277309-.871281,1.731122-1.679156,3.336121-2.212456,4.395828-.553148,1.057502-1.118013,2.287854-1.85435,3.625721-.750258,1.328907-1.586804,2.810402-2.517081,4.458269-1.761033,3.348251-4.269705,7.138276-7.14627,11.716189-2.257392,3.211376-5.461049,7.907694-7.426497,10.199959-1.053091,1.335248-2.171242,2.752648-3.373062,4.276459-1.267982,1.464265-2.624457,3.030531-4.089412,4.722231-1.412162,1.736911-3.098624,3.443498-4.882676,5.322383-.888925.941579-1.811344,1.918859-2.770015,2.934458-.984447.988307-2.056422,1.9609-3.137357,3.004066-3.592088,3.624342-8.668704,7.689495-10.872476,9.513382-1.144065.858738-3.047761,2.287441-5.19309,3.897677-2.098187,1.671575-4.657309,3.202141-6.792989,4.732845-4.357233,2.937904-10.52967,6.54033-13.653243,8.073377-13.334421,6.905052-22.979853,9.995819-32.062901,12.532886-2.278068.624136-4.50734,1.286866-6.82483,1.710859-2.346022.467688-4.526638,1.045372-7.142549,1.496244-2.63259.448942-5.366629.915114-8.272003,1.410508-2.907303.46314-5.996692.813527-9.320959,1.283558-4.67702.605527-8.498197.850743-11.59048,1.202922-3.093662.210205-5.466011.371201-7.262055.493188-3.591675.299387-4.8722.394082-5.002183.566519-.246594.335638-.329849.343633-.345701.021503-.007995-.162375-.857084-.255967-3.168784-.284362-1.155506.002343-2.677112.005514-4.642974.009511-1.958832-.053068-4.360266-.11799-7.282042-.196972-11.064348-.455834-19.962278-1.344759-27.007651-2.55857-3.550874-.489467-6.622068-1.122838-9.312688-1.687565-2.702888-.520205-5.01128-1.020561-6.954812-1.561028-3.910634-.999058-6.514554-1.644007-8.09419-2.230927-1.597556-.534402-2.242505-.799605-2.280686-.905052-.106136-.299938-.343495-.378644-.771761-.25004-.397804.125296-6.061752-1.258334-15.567277-4.943739-7.445106-2.747548-15.616899-6.761837-21.978589-10.125112-3.107446-1.804452-5.907648-3.222955-7.808725-4.460337-1.923545-1.202509-3.133222-1.938156-3.296285-2.009833-.194629-.081463-.409658-.224402-.483402-.314411-.073468-.090698-.677204-.501321-1.870064-1.264536-1.184452-.775483-2.869535-2.027889-5.220933-3.644467-4.662547-3.278091-11.701579-8.463323-20.598544-16.950631-10.142066-9.611661-18.894025-20.44127-26.318317-32.319833-7.4429-11.866434-13.604586-24.758667-18.46438-38.665121-.358933-1.00402-.768867-2.150842-1.220566-3.414276-.398079-1.287555-.832962-2.694066-1.296239-4.192791-.469204-1.49652-.967217-3.085116-1.485768-4.739599-.51607-1.650348-.8178-3.217717-1.265639-4.898114-.419031-1.661375-.847435-3.359691-1.278872-5.069999-.31-1.739944-.622206-3.492017-.932068-5.230858-.756186-3.450941-1.001953-6.945301-1.400308-10.146064-.878035-9.772382-.917182-18.125572-.172161-25.643732.18498-1.878748.227986-3.709941.504491-5.494406.260516-1.784879.515243-3.529371.765696-5.245331.38402-3.442119,1.26178-6.725861,1.887569-10.008776,3.017161-13.044407,7.035448-25.74339,15.840061-42.698156,1.651037-3.358864,4.625055-8.530451,8.059868-14.144226,1.839326-2.737485,3.608215-5.698822,5.602196-8.466494,2.031887-2.740931,3.895886-5.544442,5.845207-7.987641,10.234832-13.269361,22.787567-25.938432,34.300168-35.041192,2.933079-2.198259,5.642721-4.391831,8.276138-6.259827,2.659331-1.824577,5.11783-3.511314,7.325324-5.026029,4.58646-2.725769,8.014933-5.037056,10.205886-6.064785,1.414781-.755634,3.616623-1.93154,6.025914-3.218406,2.430931-1.230766,5.128719-2.425555,7.403203-3.535161,2.258908-1.152887,4.419537-1.903972,5.945002-2.553746,1.537596-.616141,2.491718-.998507,2.491718-.998507.02743.070574,1.153989-.431988,3.191114-1.172873,2.041673-.713869,4.97365-1.739254,8.535413-2.984631,7.18583-2.197018,16.978888-4.847251,27.354316-6.344322,2.5962-.281605,5.220382-.566243,7.838912-.85033,2.611914-.305865,5.481587-.358933,8.16435-.562522,2.719291-.132739,5.404673-.140596,8.009006-.228399,2.607503.0204,5.138092.040249,7.555928.059133,9.674378.2692,17.523353,1.079694,21.299043,1.48439,2.281376.164718,5.111075.597119,8.041122,1.015047-1.895977.625376-3.714903,1.256542-4.880746,1.725195-6.542121,2.417423-10.738772,4.38425-15.612213,6.67169-2.553194,1.283007-7.263158,3.682097-10.338074,5.550231-9.677273,5.691378-15.355832,10.098371-20.768224,14.45657-2.848722,2.353328-8.048152,6.978245-11.346643,10.483356-3.589193,3.519447-10.180799,10.951044-15.629856,18.8484-5.521423,7.855866-9.716143,16.163018-11.36401,19.526155-.678582,1.226355-1.392313,3.048451-2.231202,4.889982-.839854,1.842772-1.645386,3.773209-2.194537,5.353121-.569414,1.571228-1.325323,3.46183-1.931816,5.292472-.571068,1.843185-1.111121,3.586712-1.482598,4.786051-.663144,1.938432-1.216155,4.382596-2.336649,9.009442-.524754,2.320246-.996991,5.228239-1.646902,8.902617-.224402,1.852282-.472513,3.900021-.74764,6.171059-.288635,2.2709-.349009,4.785086-.551494,7.543661-.160445,1.81162-.106136,5.367043-.10076,9.62834.109858,2.127272.228951,4.431666.350525,6.784718.204553,2.345195.48864,4.732156.729996,7.043718.270578,2.307427.738266,4.785224,1.127524,7.323532.421926,2.532381,1.050472,5.069586,1.554274,7.52712,1.185417,4.870684,2.425969,9.299456,3.393462,12.103793,3.316686,10.091066,6.773002,17.964576,11.769533,27.074916,1.251993,2.278343,2.595373,4.636771,4.170185,7.061775,1.491695,2.478072,3.229709,5.004112,5.137678,7.702727,3.857842,5.357394,8.488686,11.3647,14.767397,17.828391,10.451653,10.918652,22.953664,20.588895,35.957133,27.767007,12.985137,7.216293,26.391234,11.902134,37.970549,14.43741,1.150268.21944,3.249282.62,5.705024,1.088654,2.455191.47334,5.306118.741299,7.900802,1.10354,5.207425.502562,9.829309.825243,10.258403.840267.432677.070298.959774.068506,1.188725-.004135.227572-.071539.790645-.118542,1.259712-.10586.233224.003722,1.4735.023708,3.285672.053068,1.810379-.01916,4.188794-.141285,6.702153-.231018,2.51267-.094833,5.956029-.470583,9.488433-.812562,3.510074-.516208,7.129041-.940476,9.938616-1.557582,7.9915-1.517333,22.022284-4.671506,37.52781-11.783593,13.151371-5.874704,27.295183-14.555952,39.798985-25.326289-.329711.782789-.661077,1.567507-1.024145,2.399366Zm5.308048-99.660321c-31.335662,8.502332-34.189759,12.067266-43.840705,45.381471-.502148,1.733189-1.806382,3.021296-3.708976,3.098073-.085047.004687-.170231.006341-.255278.004962-1.833536-.027706-3.234671-1.183763-3.782995-2.862506-10.535459-32.258909-13.549588-37.144617-46.099751-45.811391-2.20074-.585954-3.49243-2.282892-3.537779-4.126353-.054033-2.054768,1.216155-3.521514,3.088562-3.98493,30.101312-7.450068,37.728504-14.282203,45.552391-45.663903.417653-1.675573,1.701762-2.89669,3.500425-2.895863.017643.000276.038181.000551.058719.000827,1.730708.026327,3.171541,1.17756,3.360656,2.841416,3.588918,31.579637,19.923959,42.678445,45.863908,44.942591,2.182407.190494,3.679478,2.133199,3.6679,4.453996-.010476,2.429415-1.661375,4.023111-3.867077,4.621609Z"/>
</svg>