<?xml version="1.0" encoding="UTF-8"?>
<svg id="Layer_1" data-name="Layer 1" xmlns="http://www.w3.org/2000/svg" viewBox="0 0 1500 302.183257">
  <defs>
    <style>
      .cls-1 {
        fill: currentColor;
        stroke-width: 0px;
      }
    </style>
  </defs>
  <g>
    <path class="cls-1" d="m313.730645,242.152908c-1.066006-.106808-1.83767-.452897-2.317062-1.038269-.426816-.587028-1.052344-2.104689-1.877826-4.553811-.82631-2.44995-1.557817-4.954546-2.197007-7.511304-2.290981-10.705595-3.435643-24.87457-3.435643-42.506097,0-3.142129.026081-6.363743.079899-9.667326.479392-22.158015,2.39696-42.107018,5.752705-59.843696.639189-3.248937,1.2109-5.712963,1.717615-7.391249.505887-1.677458,1.091259-2.94259,1.757771-3.794566.665684-.851977,1.63813-1.678286,2.916509-2.477273,2.822535-1.809933,5.33955-2.955837,7.550632-3.436057,2.209426-.478564,3.79498-.718674,4.753764-.718674,1.330955,0,2.343143.267433,3.03615.798987.479392.479392.745169.932289.798987,1.358692.052576.426402.079899.718674.079899.878471,0,.693007-.107222,1.625296-.319595,2.79604-.107222.267433-.18712.53321-.239696.799815-.213615.798159-.319595,1.385186-.319595,1.756943,0,.267433.052576.453725.159797.559705.10598.107636.345676.159797.719088.159797.372171,0,.931461-.080313,1.677872-.239282.265777,0,.559291-.026495.878885-.080313,4.740103-.851149,9.214429-1.278379,13.422978-1.278379,4.207307,0,8.175746.42723,11.904903,1.278379,6.284673,1.332197,11.957479,3.648844,17.018419,6.950771,1.810347,1.226217,3.727915,2.850686,5.752705,4.874233,2.023548,2.025204,3.675339,3.968439,4.953718,5.833018,4.526902,7.190053,6.791388,15.073941,6.791388,23.650009,0,6.391894-1.252298,13.156373-3.755238,20.293436-5.912502,15.340546-15.793857,28.68404-29.64241,40.029652-2.184587,1.757771-5.140838,3.928697-8.868753,6.511949-3.729157,2.584081-7.338259,5.033203-10.826478,7.350678-3.489047,2.316648-6.006062,3.874879-7.550218,4.673866-.586614.267433-1.066006.519134-1.438176.759244-.373412.239282-.559291.38666-.559291.438822,0,.053818.026081.24011.079899.559705.052576.319595.132474.693007.239696,1.118582.10598.42723.159797.82631.159797,1.198066,0,.587028-.107222,1.119409-.319595,1.597974-.267019.799815-.906208,1.651791-1.917568,2.556758-2.131183,1.864578-4.647785,3.302755-7.550632,4.315357-2.903675,1.010946-5.392954,1.517661-7.470319,1.517661-.53321,0-1.066006-.027323-1.597974-.080313Zm19.655075-33.716415c14.807337-12.783789,25.168084-26.339241,31.080586-40.668842,2.449536-6.391894,3.675339-12.356558,3.675339-17.897304,0-6.817469-1.83767-13.049566-5.513009-18.696291-3.195947-4.634123-7.4579-8.201827-12.783789-10.706423-2.716555-1.224561-5.127177-1.957311-7.231037-2.197421-2.104689-.239282-3.689001-.359337-4.753764-.359337-1.811589,0-3.515542.213615-5.113515.639189-.746411.159797-1.39802.33367-1.957725.519134-.558877.18712-.892547.307175-.998526.359337-.159797.160625-.346918.933117-.559291,2.317476-.213615,1.386014-.479392,3.675339-.798987,6.871286-1.278379,12.943586-1.917568,25.70088-1.917568,38.271881,0,13.050394.691765,25.887172,2.077366,38.510335.159797,1.545812.305933,2.890428.439236,4.035504.132474,1.145904.199954,1.745351.199954,1.797513,0,.159797.079899.239282.239696.239282h.079899c.212373-.052162.625528-.319595,1.238223-.798159.611867-.48022,1.478333-1.225389,2.596914-2.237163Z"/>
    <path class="cls-1" d="m411.165634,248.30552c-2.077366,0-3.542865-.399907-4.394427-1.198066-.479392-.42723-1.225803-1.997881-2.237163-4.714436-4.314529-11.984802-6.471793-27.991033-6.471793-48.018692,0-5.859512.10598-10.413323.319595-13.663088.479392-5.964664,1.184819-11.478087,2.117108-16.539441.931461-5.059698,1.930402-8.654724,2.996407-10.785908,1.064764-1.917568,3.075892-3.527961,6.032557-4.833663,2.955837-1.304874,6.138123-1.983806,9.547685-2.037623,1.757771,0,2.876352.079485,3.355745.24011,1.118582.426402,1.730448,1.011774,1.83767,1.756943l.079899.879299c0,.852805-.18712,2.185001-.559291,3.994934-1.066006,5.061354-1.811589,10.227031-2.237163,15.500344l-.239696,2.556758,1.518075-2.556758c3.568118-6.284259,7.216962-10.998695,10.946119-14.141652,3.727915-3.142957,8.095847-5.24599,13.103383-6.31241,2.289739-.531554,4.314529-.798987,6.0723-.798987,3.248523,0,5.618988.906622,7.110982,2.716555,1.171157,1.226217,2.063704,3.23569,2.676813,6.032557.611453,2.79604,1.2109,7.444239,1.797513,13.942112.479392,5.592908.945123,9.907436,1.398434,12.943586.451655,3.03615,1.090845,5.540746,1.917568,7.510476.825068,1.971386,1.96973,4.061999,3.435229,6.271839,1.464671,2.211496,2.197421,3.743232,2.197421,4.594381,0,.798987-.506715,1.651791-1.518075,2.556758-1.705195,1.705609-4.501649,3.063473-8.389361,4.074419-2.131183.53321-4.314529.799815-6.551692.799815-1.278379,0-2.290981-.160625-3.03615-.48022-.746411-.319595-1.691534-1.170743-2.83661-2.556758-1.145904-1.384358-2.276905-2.916095-3.395487-4.593553-1.118582-1.678286-1.944891-3.208367-2.476859-4.594381-1.438176-4.047096-2.530677-11.451592-3.275846-22.211833l-.239696-3.195947c-2.184587,4.422164-4.022257,8.65638-5.513009,12.704304-6.019724,16.35232-9.028551,32.012461-9.028551,46.980423l.159797,7.270366c0,1.703953-.159797,2.876352-.479392,3.515542s-.798987,1.224561-1.438176,1.757771c-2.184587,1.703953-4.714022,2.902847-7.590374,3.595027-2.876352.692179-5.113515,1.039097-6.711489,1.039097Z"/>
    <path class="cls-1" d="m508.275676,239.167548c-18.959414-7.154756-28.529785-20.426988-28.709533-39.818032.055389-2.610925.518362-5.811096,1.391121-9.600852.860682-3.737312,1.843884-6.816826,2.948149-9.241428,4.451094-9.359211,10.591144-15.967471,18.421611-19.821897,7.828264-3.854083,16.700063-4.639403,26.615396-2.355958,8.876116,2.044119,14.70149,5.463033,17.479535,10.25668,2.308503,3.26492,2.865896,7.492786,1.670753,12.682421-.956561,4.153645-2.924919,7.771807-5.903211,10.857465-2.979099,3.085472-6.774067,5.382361-11.384531,6.889052-3.145825,1.079315-6.691081,1.697901-10.634775,1.855137-3.944687.157856-7.66263-.137604-11.151222-.88663l-1.635477-.376641-.106608,1.532835c-.095311,1.125911-.048208,2.640617.142673,4.541884.189703,1.902695.447628,3.575556.771913,5.015604,1.699236,6.622567,4.913324,12.009422,9.642638,16.158951.510423.39198,1.002151.750768,1.474007,1.07779.470242.326651.810159.514535,1.018326.562475.155721.035862,1.050726-.113172,2.686007-.447723,1.634102-.333123,3.54458-.741089,5.733296-1.220921,3.305431-.824202,5.865657-1.382457,7.682478-1.675201,1.815643-.291315,3.419884-.373025,4.811731-.244509,1.390669.129944,3.20305.450467,5.435594.964609,2.958705.681373,5.092013,1.323897,6.402901,1.925709,1.308096.602868,2.28328,1.415397,2.923316,2.436221.558559.895006.74927,1.730788.570147,2.508588-.143447.622885-.501378,1.225264-1.07125,1.803473-.610611.5153-2.161869,1.252388-4.648996,2.208964-2.48992.957633-5.23404,1.897508-8.233788,2.818445-2.999934.921745-5.556145,1.576934-7.667453,1.964139-3.748811.613341-7.596167.8208-11.539463.622129-1.940379-.118898-3.970995-.380925-6.090667-.787508-2.120665-.405962-3.648069-.716932-4.582397-.932102-1.817018-.418449-3.304569-.843438-4.462219-1.273169Zm4.09838-49.480466c3.568551-1.254698,6.473059-3.783842,8.715571-7.585264.673944-1.266238,1.190939-2.677375,1.549557-4.234588l.143447-.622885c.313559-1.841173.312794-3.261944-.001923-4.263925-.028475-.116161-.094662-.18663-.197938-.210414-.311443-.071723-.830829.165513-1.556422.70786-.982071.704188-2.119518,1.725193-3.412463,3.067236s-2.463113,2.741248-3.507153,4.19414c-.730274,1.034909-1.508091,2.331603-2.33103,3.890639-.824118,1.560464-1.495816,2.99035-2.013047,4.291829-.16003.455086-.257573.760583-.293434.916304l-.0537.233179c.03956.064337.085253.102048.137698.114126.103276.023784.239931.028066.407731.011483.270704.008814.625779-.046206,1.062618-.164811.437275-.116805.886217-.232623,1.350489-.34491Z"/>
    <path class="cls-1" d="m614.619548,236.400203c-4.740931-.851149-7.803576-2.237163-9.187934-4.154731-.213615-.478564-.506715-2.183345-.879299-5.113515-.373412-2.928514-.666512-6.151784-.878471-9.667326-.053818,0-.346918.279852-.879299.838729-.53321.559705-1.225389,1.265959-2.077366,2.117108-4.261539,4.422164-9.347731,6.925104-15.260234,7.511304-1.06642.158969-2.104689.239282-3.116462.239282-1.012602,0-2.210668-.052162-3.595027-.159797-7.724091-.691351-13.582775-2.916095-17.577709-6.671747-3.994934-3.754824-6.445712-9.387474-7.350678-16.898778-.213615-1.544156-.319595-3.275432-.319595-5.193,0-1.010946.025667-2.050043.079485-3.116462.159797-3.248109.505887-6.178279,1.039097-8.788027,4.047096-18.004112,12.543679-28.870332,25.487265-32.598661,1.757771-.426402,3.595855-.731922,5.513423-.919042,1.917568-.186292,3.435229-.279852,4.553811-.279852.532382,0,1.039097.027323,1.518489.079485.904966.107636,2.077366.267433,3.515542.48022s2.808459.438822,4.114989.678932c1.304046.239282,2.223088.438822,2.756297.599447.319595.106808.639189.158969.958784.158969.425574,0,.851149-.079485,1.278379-.239282.639189-.211959,1.517661-.332014,2.636242-.359337,1.118582-.026495,1.970558-.04057,2.556758-.04057,1.171571,0,2.369638.028151,3.595855.080313,1.809933.107636,3.248109.267433,4.314529.479392,1.650135.42723,3.208367.986107,4.673866,1.677458,1.464671.693007,2.489693,1.412509,3.075892,2.157678.425574.53321.785739,1.398434,1.078839,2.5965.292272,1.198894.559705,3.104043.798987,5.712963.24011,2.610575.491812,6.31241.759244,11.10633.371757,7.350678.625114,14.30145.759244,20.853141.131647,6.551692.19954,11.904489.19954,16.05922,0,2.717383-.027323,5.301464-.080313,7.750586-.106808,6.0723-.346918,9.615164-.718674,10.626938-.639189,1.278379-1.838084,2.076538-3.595855,2.396132s-3.275432.48022-4.553811.48022c-1.597974,0-3.330078-.160625-5.193828-.48022Zm-32.598661-26.925441c4.527316-6.497874,8.46926-15.207244,11.825004-26.127282.479392-1.490338,1.025021-3.447649,1.638544-5.871932.611039-2.423455,1.170743-4.674694,1.677458-6.751231.505887-2.078194.759244-3.248937.759244-3.515542s-.293928-.572124-.879299-.919042c-.5862-.34609-1.158324-.611867-1.717201-.798987-.559705-.186292-.97286-.279852-1.238637-.279852-.107636,0-.213615.027323-.319595.080313-.852805.478564-1.905149,1.318121-3.156205,2.516187-1.251884,1.198894-2.384541,2.464854-3.395487,3.795394-3.888954,5.380948-6.379475,10.746165-7.470733,16.099791-1.092087,5.352798-1.637716,9.654907-1.637716,12.903016,0,3.515542.425574,6.899437,1.278379,10.147546.10598.319595.211959.599447.319595.838729.10598.24011.185464.360165.239282.360165.10598,0,.34609-.24011.719502-.719502.371757-.479392.824654-1.064764,1.357864-1.757771Z"/>
    <path class="cls-1" d="m732.668397,242.792098c-.159797-.05299-.413155-.14655-.758416-.279024-.347746-.13413-.707083-.279852-1.078839-.43965-.587028-.159797-1.039097-.413155-1.358692-.759244-.319595-.346918-.612695-.918214-.878471-1.718029-.267433-.798159-.559705-2.024376-.879299-3.674511-.53321-2.44995-.946365-4.926395-1.237809-7.430991-.293928-2.50294-.519962-6.032557-.67976-10.586368-.159797-4.554639-.319595-11.11875-.479392-19.694817-.159797-7.403668-.373412-13.036318-.639189-16.898778-.266605-3.861631-.693007-7.097321-1.278379-9.707896-.319595-1.597974-.706255-3.128882-1.158324-4.594381-.452897-1.463843-.866052-2.569177-1.238637-3.315174l-.399079-.719502-.798987,1.358692c-3.46338,6.179107-6.152612,14.72868-8.070181,25.647062-.53321,3.143785-.918214,6.151784-1.158324,9.028137-.239282,2.876352-.43965,6.791802-.599447,11.74552-.053818,3.409562-.147378,5.87276-.279024,7.390421-.13413,1.518489-.399907,2.570833-.798987,3.156205-.399907.587028-1.078839,1.145904-2.037623,1.677458-1.811589,1.119409-4.088494,1.997881-6.831544,2.63707-2.743878.639189-5.127591.958784-7.151139.958784-.5862,0-1.172399-.026495-1.757771-.080313-1.225389-.10598-2.370465-.371757-3.435229-.798159-1.06642-.426402-1.757771-.905794-2.077366-1.439004-.159797-.10598-.267433-1.929988-.319595-5.472853-.053818-3.541209-.080313-9.600261-.080313-18.177156,0-7.616455-.027323-13.422978-.079485-17.417084-.053818-3.995762-.173873-7.084074-.359337-9.268247-.187948-2.184173-.466973-4.367518-.839557-6.55252-.213615-1.117754-.479392-2.302572-.798987-3.555284-.319595-1.251056-.62677-2.316648-.918214-3.195947-.293928-.878471-.493467-1.344616-.599447-1.397606-.159797.05299-.506715.413155-1.039097,1.078011-.53321.666512-1.145904,1.518489-1.837256,2.556758-.693007,1.039097-1.358692,2.064946-1.997881,3.07672-7.777081,13.210191-12.277902,30.4948-13.502463,51.853829-.107636,2.131183-.159797,3.582607-.159797,4.354271v1.718029c0,.746825.025667,1.465499.079485,2.157678.10598,1.011774.292272,2.370465.559705,4.074419.319595,2.077366.505059,3.409562.558877,3.994934.05299.587028.080313.958784.080313,1.118582,0,.851149-.107636,1.490338-.319595,1.917568-.267433.531554-.746825,1.010946-1.438176,1.438176-2.077366,1.438176-4.448659,2.436703-7.111396,2.996407-2.663565.558877-4.740931.838729-6.232097.838729-1.332197,0-2.530263-.159797-3.595027-.479392-.639189-.159797-1.186475-.43965-1.637716-.838729-.453725-.399907-.852805-1.212142-1.198894-2.437531-.346918-1.225389-.746825-3.155377-1.198066-5.792447-.453725-2.636242-1.053172-6.298334-1.798341-10.985447-1.917568-11.5584-2.876352-26.686987-2.876352-45.38245v-2.397788c0-14.062167.452069-21.758108,1.358692-23.090304.585372-1.170743,1.943235-2.249582,4.074419-3.23569,2.130355-.985279,4.606801-1.718029,7.430991-2.197421,1.278379-.159797,2.449122-.24011,3.515542-.24011,2.982332,0,4.819588.746825,5.512595,2.237163.05299.267433.080313.786567.080313,1.558231v1.877826c0,.906622-.027323,1.917568-.080313,3.03615-.053818,1.597974-.09356,2.943418-.119227,4.034676-.028151,1.092915-.04057,1.665867-.04057,1.718029.05299,0,.292272-.239282.719502-.719502.425574-.478564.984451-1.117754,1.677458-1.917568,4.687113-5.59208,10.467141-9.427216,17.338427-11.50541.479392-.158969,1.304046-.345262,2.476445-.558877,1.171571-.211959,2.39696-.399907,3.675339-.558877,1.917568-.266605,3.675339-.399907,5.273313-.399907,3.888126,0,7.031084.719502,9.428044,2.15685,1.011774.587028,2.064118,1.506069,3.156205,2.757125,1.091259,1.251884,1.957311,2.49052,2.5965,3.715082l1.039097,1.997881,1.198066-.958784c.958784-.745997,2.317476-1.558231,4.075247-2.437531,1.757771-.878471,3.355745-1.53008,4.793921-1.957311,1.757771-.531554,3.741576-.931461,5.952245-1.198894,2.20984-.265777,4.140656-.399079,5.792447-.399079h.958784c9.054632.159797,14.967134,6.579015,17.737507,19.255168.745169,2.983988,1.318949,6.592262,1.718029,10.826478.399907,4.235044.731922,9.947179.998526,17.138888.10598,2.663565.25253,6.151784.43965,10.466313.186292,4.314529.359337,8.442765.519134,12.383881.212787,3.888954.385832,7.404496.519962,10.546626.131647,3.143785.19954,5.193828.19954,6.152612.052162.479392.079485.878471.079485,1.198066,0,.372585-.027323.665684-.079485.879299,0,.425574-.080313.771664-.24011,1.038269s-.399079.559705-.718674.879299c-2.664393,2.50294-7.058407,3.914621-13.183696,4.234216-1.065592.05299-1.971386.080313-2.716555.080313-.798987,0-1.278379-.027323-1.438176-.080313Z"/>
    <path class="cls-1" d="m790.327649,271.077058c-7.114764-.238142-13.210606-2.525926-18.285313-6.8663-5.075444-4.339638-8.443345-10.091906-10.102965-17.253119-.3797-1.470876-.569181-2.941752-.569181-4.411154,0-4.932412,2.110099-10.316777,6.332509-16.150146,1.896287-2.608501,5.0983-4.600635,9.604563-5.976402,2.466206-.758662,4.553449-1.138362,6.260993-1.138362,1.422953,0,2.490536.284591,3.202013.853772.521258.331777.805848.830179.853772,1.493732l.070779.284591c0,.853772-.497665,2.632094-1.493732,5.336442-1.234209,3.319978-1.849839,5.881293-1.849839,7.683945,0,1.091176.142295,2.181615.426886,3.272054,2.276725,9.059712,7.185543,15.201265,14.727193,18.427608.047186.046449.094372.082576.142295.106906.047186.022856.616367.201278,1.707543.533054.474072-.095109.996067-.878102,1.565248-2.347504l.071516-.284591c.948144-2.087981,1.422953-4.364705,1.422953-6.830174,0-5.88203-1.447283-11.856957-4.340375-17.929206-2.609238-5.311374-7.020392-12.237395-13.233462-20.775112-6.878097-9.485861-11.407953-16.74292-13.588831-21.771179-2.799457-6.165146-4.19808-12.593501-4.19808-19.280643,0-1.233472.071516-2.300318.213812-3.202013,1.327106-8.205203,5.430077-14.489789,12.308174-18.854494,2.940278-1.896287,6.236662-3.390019,9.889891-4.481933,3.651754-1.090439,6.995325-1.636027,10.031449-1.636027,8.442608,0,14.79871,4.268859,19.067568,12.806576,2.750796,5.976402,4.126563,12.973201,4.126563,20.988186,0,1.992134-.095109,4.032191-.284591,6.118697-.190219,2.087981-.426886,3.533789-.711476,4.339638-.569181,1.234209-1.920618,2.419757-4.055047,3.558119s-3.984268,1.874169-5.549516,2.205208c-1.992134.474809-3.557382.711476-4.695744.711476-1.992134,0-3.249936-.35537-3.771194-1.067583-.3797-.521258-.569181-1.540181-.569181-3.05898l.071516-1.849839c0-6.49766-.522732-11.691806-1.565248-15.581702-1.707543-6.355365-4.316782-11.073965-7.826241-14.158012-1.328581-1.090439-2.111574-1.636027-2.348241-1.636027-.66429,0-1.470876,2.205208-2.41902,6.616362-.095109.901695-.142295,1.897762-.142295,2.988201,0,6.972469,2.252394,14.158012,6.759395,21.557367,2.323173,3.937819,6.283848,9.629631,11.881288,17.075434,9.438675,12.475536,15.106893,22.720797,17.004655,30.735782.853772,2.845906,1.280658,6.190214,1.280658,10.032186,0,5.928479-2.040057,11.287776-6.118697,16.079367-3.889896,4.553449-9.178415,7.897757-15.866293,10.031449-5.597439,1.802653-10.742925,2.704348-15.43867,2.704348Z"/>
    <path class="cls-1" d="m845.881927,239.756776c-2.450778-.48022-3.942772-1.358692-4.474326-2.63707-.267433-.906622-.613522-2.74305-1.039097-5.513423-.426402-2.768717-.852805-5.778372-1.278379-9.028137-.426402-3.248109-.718674-5.992815-.878471-8.229978-.213615-3.248109-.319595-6.870458-.319595-10.86622,0-3.461724.079485-7.243043.239282-11.344784.319595-8.735865.879299-15.207244,1.678286-19.415793.211959-.851149.465317-2.050043.759244-3.595027.291444-1.544984.571296-3.08914.838729-4.634951.371757-2.237163.678932-3.914621.919042-5.033203.239282-1.118582.479392-1.929988.718674-2.436703.24011-.505887.519134-.971204.838729-1.398434.585372-.639189,1.638544-1.318121,3.156205-2.037623,1.518489-.718674,3.075892-1.264303,4.673866-1.637716,1.491166-.265777,2.809287-.399079,3.955192-.399079h2.197421c1.544156,0,2.79604.106808,3.754824.319595,2.077366.532382,3.116462,1.597974,3.116462,3.195947v.079485c0,.373412-.027323.813062-.080313,1.318121-.053818.506715-.133302.946365-.239282,1.318121-.107636.373412-.227691,1.092915-.359337,2.157678-.13413,1.06642-.279852,2.210668-.43965,3.436057s-.33367,2.410208-.519134,3.555284c-.187948,1.145904-.33367,1.984634-.43965,2.517015-.373412,1.385186-.666512,3.489047-.879299,6.311582-.213615,2.824191-.399079,7.244699-.558877,13.263181-.107636,3.888954-.159797,7.564294-.159797,11.026018,0,2.556758.025667,5.007536.079485,7.350678.159797,5.380948.559705,10.920038,1.198894,16.618925.265777,2.610575.465317,4.661446.599447,6.152612.131647,1.491166.19954,2.609748.19954,3.354917,0,.746825-.080313,1.278379-.24011,1.597974s-.399079.639189-.718674.958784c-2.237163,2.130355-6.285915,3.382239-12.144599,3.755652-.798987.052162-1.597974.079485-2.39696.079485-.746825,0-1.332197-.05299-1.757771-.158969Zm1.997053-97.876296c-2.077366-.531554-3.249765-1.330541-3.515542-2.39696v-.319595c0-.691351.10598-1.917568.319595-3.675339.265777-2.077366.585372-4.154731.958784-6.232097.372585-2.077366.665684-3.382239.879299-3.914621.479392-.639189,1.53008-1.358692,3.156205-2.157678,1.623641-.798987,3.181872-1.357864,4.673866-1.677458,1.224561-.266605,2.488865-.399907,3.795394-.399907h2.5965c1.330541,0,2.369638.053818,3.115634.159797.319595.107636.67976.253357,1.078839.43965.399907.18712.759244.38666,1.078839.598619.371757.373412.625114.707083.759244.999354.131647.2931.19954.786567.19954,1.477919,0,.746825-.107636,2.091441-.319595,4.034676-.213615,1.944891-.453725,3.795394-.719502,5.553165-.266605,1.757771-.452897,2.796868-.558877,3.116462-.267433.478564-.759244.998526-1.477919,1.557403-.719502.559705-1.452252.999354-2.197421,1.318949-1.917568.745997-3.888954,1.237809-5.912502,1.477919-2.025204.239282-3.56936.359337-4.634123.359337-1.278379,0-2.371293-.10598-3.27626-.319595Z"/>
    <path class="cls-1" d="m936.6046,234.323666c-1.385186-.212787-2.636242-.5862-3.754824-1.119409-1.118582-.531554-1.891901-1.090431-2.317476-1.677458-.213615-.371757-.612695-1.357864-1.198066-2.955837-.587028-1.597974-1.226217-3.462552-1.917568-5.593735-.746825-2.129527-1.371939-3.900546-1.877826-5.313055-.506715-1.410853-.786567-2.143603-.838729-2.196593-.053818.05299-.227691.2931-.519134.718674-.293928.42723-.653265.958784-1.078839,1.597974-4.154731,6.659327-10.227031,10.839725-18.216899,12.543679-2.077366.42723-4.661446.639189-7.750586.639189h-1.038269c-3.56936,0-6.339732-.239282-8.309463-.718674-2.025204-.531554-3.743232-1.211314-5.153258-2.037623-1.412509-.824654-2.863933-1.983806-4.355099-3.474972-1.172399-1.119409-2.036795-2.090613-2.5965-2.916923-.558877-.824654-1.212142-1.983806-1.957311-3.474972-2.824191-5.645897-4.341852-12.251407-4.554639-19.814872-.053818-.851977-.079485-1.678286-.079485-2.477273,0-9.428044,1.997053-18.003284,5.991987-25.727375,2.982332-5.804867,6.977266-10.146718,11.984802-13.023071,1.171571-.639189,2.822535-1.318949,4.953718-2.037623,2.130355-.719502,3.994934-1.211314,5.592908-1.477919,1.064764-.160625,2.317476-.24011,3.755652-.24011h2.955837c1.650963,0,3.27626.053818,4.874233.159797,2.183345.107636,3.675339.267433,4.474326.479392l1.677458.479392.24011-3.915449c1.064764-18.962068,4.606801-34.302614,10.62611-46.021639,1.118582-2.237163,2.130355-3.794566,3.03615-4.673866.904966-.878471,2.183345-1.583898,3.835137-2.117108.745169-.211959,1.410853-.385832,1.997881-.519134.585372-.132474,1.278379-.226035,2.077366-.279852.798987-.052162,1.917568-.080313,3.355745-.080313,2.556758,0,4.499993.13413,5.83219.399907,1.331369.267433,2.343143.772492,3.03615,1.517661.532382.42723.798987,1.012602.798987,1.758599v.239282c0,.798987-.346918,1.917568-1.038269,3.355745-5.486928,13.051222-8.229978,31.13399-8.229978,54.251617,0,2.609748.026495,5.272485.080313,7.989868.211959,8.468432.944709,16.073296,2.197421,22.810452,1.250228,6.738812,3.821061,16.898778,7.710016,30.481553,1.597974,5.592908,2.39696,8.842672,2.39696,9.747639v.24011c-.53321,1.704781-2.145259,2.916095-4.833663,3.634769-2.690888.719502-5.287388,1.078839-7.790328,1.078839-1.278379,0-2.63707-.080313-4.075247-.239282Zm-36.91319-24.049916c.904966-2.077366,1.718029-4.100914,2.437531-6.0723.718674-1.96973,1.450596-4.314529,2.196593-7.031084.904966-2.982332,1.784266-6.098794,2.63707-9.348559.851149-3.248109,1.544156-6.004406,2.077366-8.268892.531554-2.263658.798987-3.635597.798987-4.114989v-.080313c-.107636-.371757-.42723-.998526-.958784-1.876998-.53321-.879299-1.158324-1.797513-1.877826-2.756297-.718674-.958784-1.345444-1.758599-1.877826-2.397788l-1.517661-1.597974-1.118582,1.278379c-.798987.906622-1.705609,2.357218-2.716555,4.355099-1.012602,1.997053-1.838084,3.902202-2.477273,5.712963-1.917568,5.965492-2.876352,11.772015-2.876352,17.417084,0,5.540746.931461,10.894371,2.796868,16.060048.211959.479392.411499.878471.599447,1.198066.185464.319595.305519.48022.359337.48022.052162,0,.226035-.279852.519134-.839557.292272-.558877.625114-1.264303.998526-2.117108Z"/>
    <path class="cls-1" d="m990.495224,226.972987c-20.082305-2.717383-32.386702-13.503291-36.91319-32.359379-.532382-2.556758-.798987-5.7792-.798987-9.668154,0-3.835137.266605-7.056751.798987-9.667326,2.237163-10.119395,6.737156-17.937046,13.502463-23.450469,6.764479-5.512595,15.233739-8.268892,25.40778-8.268892,9.108449,0,15.553333,2.024376,19.33548,6.0723,2.982332,2.663565,4.474326,6.658499,4.474326,11.983974,0,4.262367-1.106162,8.229978-3.316002,11.905317-2.210668,3.675339-5.39254,6.765307-9.547271,9.268247-2.824191,1.757771-6.140193,3.156205-9.948006,4.194474-3.808642,1.039097-7.497228,1.585554-11.06576,1.638544h-1.677458l.239282,1.517661c.159797,1.118582.545629,2.584081,1.158324,4.394013.611867,1.811589,1.238637,3.383895,1.877826,4.714436,3.142129,6.0723,7.483153,10.600443,13.023899,13.582775.585372.267433,1.144248.506715,1.677458.719502.532382.212787.904966.319595,1.118582.319595.159797,0,.998526-.34609,2.517015-1.039097,1.517661-.691351,3.288679-1.517661,5.313055-2.476445,3.03615-1.544984,5.405787-2.663565,7.111396-3.356572,1.703953-.691351,3.248109-1.131001,4.634123-1.318121,1.384358-.185464,3.221614-.279852,5.512595-.279852,3.03615,0,5.260065.147378,6.671747.43965,1.410853.293928,2.542682.86688,3.395487,1.718029.745169.746825,1.118582,1.518489,1.118582,2.316648,0,.639189-.213615,1.30653-.639189,1.997881-.479392.639189-1.824836,1.705609-4.034676,3.195947-2.210668,1.491994-4.673866,3.02373-7.390421,4.594381-2.716555,1.571479-5.061354,2.78362-7.031084,3.634769-3.515542,1.439004-7.218204,2.504596-11.10633,3.195947-1.917568.319595-3.955192.519962-6.112042.599447-2.157678.080313-3.715082.120055-4.673866.120055-1.865406,0-3.409562-.080313-4.634123-.239282Zm-7.111396-49.138101c3.195947-2.023548,5.459605-5.14001,6.791802-9.347731.371757-1.385186.558877-2.876352.558877-4.474326v-.639189c-.106808-1.864578-.426402-3.248937-.958784-4.154731-.053818-.106808-.133302-.160625-.239282-.160625-.319595,0-.77332.347746-1.358692,1.039097-.798987.906622-1.677458,2.15685-2.636242,3.754824s-1.785094,3.224098-2.477273,4.874233c-.479392,1.172399-.946365,2.610575-1.398434,4.314529-.452897,1.705609-.785739,3.249765-.998526,4.634123-.053818.479392-.079485.798987-.079485.958784v.239282c.052162.053818.10598.080313.159797.080313.10598,0,.239282-.026495.399079-.080313.265777-.052162.599447-.185464.998526-.399079.399907-.211959.812234-.425574,1.238637-.639189Z"/>
    <path class="cls-1" d="m1105.625494,242.152908c-1.06642-.106808-1.838084-.452897-2.317476-1.038269-.42723-.587028-1.052344-2.104689-1.877826-4.553811-.82631-2.44995-1.557403-4.954546-2.196593-7.511304-2.290981-10.705595-3.436057-24.87457-3.436057-42.506097,0-3.142129.026495-6.363743.079485-9.667326.48022-22.158015,2.397788-42.107018,5.752705-59.843696.639189-3.248937,1.211314-5.712963,1.718029-7.391249.505887-1.677458,1.091259-2.94259,1.757771-3.794566.665684-.851977,1.637716-1.678286,2.916095-2.477273,2.823363-1.809933,5.33955-2.955837,7.551046-3.436057,2.20984-.478564,3.795394-.718674,4.754178-.718674,1.330541,0,2.343143.267433,3.035322.798987.48022.479392.745997.932289.799815,1.358692.052162.426402.079485.718674.079485.878471,0,.693007-.107636,1.625296-.319595,2.79604-.107636.267433-.18712.53321-.24011.799815-.212787.798159-.319595,1.385186-.319595,1.756943,0,.267433.05299.453725.160625.559705.10598.107636.345262.159797.718674.159797.371757,0,.931461-.080313,1.677458-.239282.266605,0,.559705-.026495.879299-.080313,4.740103-.851149,9.214429-1.278379,13.422978-1.278379,4.206893,0,8.17616.42723,11.904489,1.278379,6.285087,1.332197,11.957479,3.648844,17.018833,6.950771,1.809933,1.226217,3.727501,2.850686,5.752705,4.874233,2.023548,2.025204,3.675339,3.968439,4.953718,5.833018,4.526488,7.190053,6.790974,15.073941,6.790974,23.650009,0,6.391894-1.251884,13.156373-3.754824,20.293436-5.912502,15.340546-15.793444,28.68404-29.641996,40.029652-2.185001,1.757771-5.141666,3.928697-8.869167,6.511949-3.729157,2.584081-7.338259,5.033203-10.826478,7.350678-3.489047,2.316648-6.006062,3.874879-7.550218,4.673866-.587028.267433-1.06642.519134-1.438176.759244-.373412.239282-.559705.38666-.559705.438822,0,.053818.026495.24011.080313.559705.052162.319595.132474.693007.239282,1.118582.106808.42723.160625.82631.160625,1.198066,0,.587028-.107636,1.119409-.319595,1.597974-.267433.799815-.906622,1.651791-1.917568,2.556758-2.131183,1.864578-4.648199,3.302755-7.551046,4.315357-2.903675,1.010946-5.393368,1.517661-7.469905,1.517661-.53321,0-1.06642-.027323-1.597974-.080313Zm19.654247-33.716415c14.808164-12.783789,25.168498-26.339241,31.081-40.668842,2.449122-6.391894,3.675339-12.356558,3.675339-17.897304,0-6.817469-1.838084-13.049566-5.512595-18.696291-3.195947-4.634123-7.458314-8.201827-12.783789-10.706423-2.717383-1.224561-5.127591-1.957311-7.231451-2.197421-2.104689-.239282-3.688587-.359337-4.754178-.359337-1.810761,0-3.515542.213615-5.113515.639189-.745997.159797-1.397606.33367-1.957311.519134-.558877.18712-.892547.307175-.998526.359337-.159797.160625-.346918.933117-.559705,2.317476-.212787,1.386014-.478564,3.675339-.798159,6.871286-1.278379,12.943586-1.917568,25.70088-1.917568,38.271881,0,13.050394.691351,25.887172,2.076538,38.510335.160625,1.545812.306347,2.890428.43965,4.035504.132474,1.145904.19954,1.745351.19954,1.797513,0,.159797.080313.239282.24011.239282h.079485c.212787-.052162.625942-.319595,1.238637-.798159.611867-.48022,1.478747-1.225389,2.5965-2.237163Z"/>
    <path class="cls-1" d="m1196.189198,239.756776c-2.450778-.48022-3.942772-1.358692-4.474326-2.63707-.267433-.906622-.612695-2.74305-1.039097-5.513423-.426402-2.768717-.851977-5.778372-1.278379-9.028137-.426402-3.248109-.718674-5.992815-.878471-8.229978-.213615-3.248109-.319595-6.870458-.319595-10.86622,0-3.461724.080313-7.243043.239282-11.344784.319595-8.735865.879299-15.207244,1.678286-19.415793.211959-.851149.465317-2.050043.759244-3.595027.292272-1.544984.571296-3.08914.838729-4.634951.371757-2.237163.678932-3.914621.919042-5.033203.239282-1.118582.479392-1.929988.718674-2.436703.24011-.505887.519134-.971204.838729-1.398434.5862-.639189,1.638544-1.318121,3.156205-2.037623,1.518489-.718674,3.07672-1.264303,4.674694-1.637716,1.490338-.265777,2.808459-.399079,3.954364-.399079h2.197421c1.544156,0,2.796868.106808,3.755652.319595,2.076538.532382,3.115634,1.597974,3.115634,3.195947v.079485c0,.373412-.027323.813062-.080313,1.318121-.05299.506715-.133302.946365-.239282,1.318121-.107636.373412-.226863,1.092915-.359337,2.157678-.13413,1.06642-.279852,2.210668-.43965,3.436057s-.33367,2.410208-.519134,3.555284c-.18712,1.145904-.33367,1.984634-.43965,2.517015-.373412,1.385186-.666512,3.489047-.879299,6.311582-.212787,2.824191-.399079,7.244699-.558877,13.263181-.107636,3.888954-.159797,7.564294-.159797,11.026018,0,2.556758.026495,5.007536.079485,7.350678.160625,5.380948.559705,10.920038,1.198894,16.618925.265777,2.610575.465317,4.661446.599447,6.152612.132474,1.491166.19954,2.609748.19954,3.354917,0,.746825-.080313,1.278379-.239282,1.597974-.160625.319595-.399907.639189-.719502.958784-2.237163,2.130355-6.285915,3.382239-12.144599,3.755652-.798987.052162-1.597974.079485-2.39696.079485-.746825,0-1.332197-.05299-1.757771-.158969Zm1.997881-97.876296c-2.078194-.531554-3.249765-1.330541-3.515542-2.39696v-.319595c0-.691351.10598-1.917568.319595-3.675339.265777-2.077366.585372-4.154731.958784-6.232097.371757-2.077366.664856-3.382239.878471-3.914621.479392-.639189,1.530908-1.358692,3.156205-2.157678,1.623641-.798987,3.181872-1.357864,4.673866-1.677458,1.224561-.266605,2.489693-.399907,3.795394-.399907h2.5965c1.330541,0,2.369638.053818,3.116462.159797.319595.107636.678932.253357,1.078011.43965.399907.18712.759244.38666,1.078839.598619.371757.373412.625114.707083.759244.999354.132474.2931.19954.786567.19954,1.477919,0,.746825-.107636,2.091441-.319595,4.034676-.213615,1.944891-.452897,3.795394-.719502,5.553165s-.452897,2.796868-.558877,3.116462c-.267433.478564-.759244.998526-1.477919,1.557403-.719502.559705-1.452252.999354-2.197421,1.318949-1.917568.745997-3.888954,1.237809-5.912502,1.477919-2.025204.239282-3.56936.359337-4.634123.359337-1.278379,0-2.370465-.10598-3.275432-.319595Z"/>
    <path class="cls-1" d="m1226.029077,287.136278c-9.587841-.958784-15.766121-4.314529-18.536493-10.067234-.745169-1.597974-1.357864-3.808642-1.837256-6.631176-.479392-2.824191-.719502-5.567241-.719502-8.229978,0-.693007.014075-1.212142.04057-1.558231.027323-.346918.133302-.652437.319595-.919042.18712-.266605.466973-.612695.838729-1.038269,1.438176-1.386014,3.609102-2.570833,6.511949-3.555284,2.903675-.986107,5.81977-1.506069,8.749112-1.558231h.878471c2.077366,0,3.488219.34609,4.235044,1.038269.904966.851977,1.703953,2.876352,2.396132,6.0723.851977,3.782147,1.784266,6.524369,2.796868,8.229978,1.010946,1.703953,2.39696,2.902847,4.154731,3.595027,1.438176.692179,2.50294,1.039097,3.195947,1.039097h.159797c.691351,0,1.464671-.373412,2.317476-1.118582,6.018482-5.113515,10.412495-13.690411,13.182868-25.727375.319595-1.438176.651609-3.383067.998526-5.833018.34609-2.44995.665684-4.966966.958784-7.550218.292272-2.582425.491812-4.553811.599447-5.912502.10598-1.357864.159797-2.3034.159797-2.83661,0-.478564-.053818-.770836-.159797-.878471h-.079485c-.107636,0-.293928.053818-.559705.159797-.373412.107636-.82631.267433-1.357864.479392-2.824191,1.118582-5.593735,1.877826-8.309463,2.276905-2.717383.399907-4.954546.599447-6.711489.599447-1.012602,0-1.997881-.052162-2.956665-.159797-2.344799-.265777-4.341852-.825482-5.991987-1.677458-1.651791-.851977-3.224098-2.103861-4.714436-3.755652-3.782975-4.314529-6.020138-8.948652-6.711489-13.90237-.693007-4.953718-1.038269-8.629057-1.038269-11.026018,0-5.165677.745169-10.413323,2.237163-15.739626,1.96973-6.872114,5.272485-12.650486,9.907436-17.338427,5.53909-6.018482,13.209363-9.693821,23.01082-11.026018,2.129527-.371757,4.154731-.559705,6.0723-.559705,3.941116,0,7.350678.799815,10.227031,2.397788.904966.532382,1.53008.838729,1.876998.918214.34609.080313.651609.120055.919042.120055.211959,0,.452069-.026495.719502-.079485,1.064764-.160625,2.343143-.226035,3.835137-.200368,1.490338.027323,2.636242.120055,3.435229.279852.371757.107636.759244.279852,1.158324.519134.399907.24011.759244.493467,1.078839.759244l1.039097.879299v3.674511c-.053818,1.119409-.107636,3.26384-.160625,6.432465-.05299,3.169452-.133302,6.645252-.239282,10.426571-.107636,3.835137-.19954,8.297043-.279852,13.383236-.079485,5.087021-.120055,9.627584-.120055,13.622518,0,9.747639-.19954,17.577709-.598619,23.490212-.399907,5.912502-1.052344,11.158492-1.958139,15.739626-4.313701,22.584417-16.88553,36.300495-37.712176,41.148234-4.900728,1.170743-9.455367,1.757771-13.66226,1.757771-1.226217,0-2.424283-.053818-3.595855-.159797Zm23.810634-81.736762c2.076538-4.8999,3.941116-10.758585,5.59208-17.577709.639189-2.715727,1.331369-6.137709,2.078194-10.266773.745169-4.127408,1.250228-7.363098,1.517661-9.707069l.239282-1.838084h-1.198066c-.373412,0-.838729-.066237-1.398434-.19954-.558877-.132474-1.078011-.279852-1.558231-.43965l-1.756943-.639189-1.039097,1.198894c-1.811589,2.076538-3.42281,4.913148-4.833663,8.509002-1.412509,3.595027-2.384541,7.363926-2.916923,11.30587-.212787,1.650963-.319595,3.489047-.319595,5.512595,0,1.012602.026495,2.077366.080313,3.195947.159797,3.249765.479392,5.939825.958784,8.069353.531554,1.917568,1.051516,3.4758,1.558231,4.674694.505059,1.198066.890891,1.797513,1.158324,1.797513h.079485c.106808-.10598.319595-.505887.639189-1.198066s.692179-1.491166,1.119409-2.397788Z"/>
    <path class="cls-1" d="m1300.532732,239.756776c-2.450778-.48022-3.942772-1.358692-4.474326-2.63707-.267433-.906622-.612695-2.74305-1.039097-5.513423-.426402-2.768717-.851977-5.778372-1.278379-9.028137-.426402-3.248109-.718674-5.992815-.878471-8.229978-.213615-3.248109-.319595-6.870458-.319595-10.86622,0-3.461724.080313-7.243043.239282-11.344784.319595-8.735865.879299-15.207244,1.678286-19.415793.211959-.851149.465317-2.050043.759244-3.595027.292272-1.544984.571296-3.08914.838729-4.634951.371757-2.237163.678932-3.914621.919042-5.033203.239282-1.118582.479392-1.929988.718674-2.436703.24011-.505887.519134-.971204.838729-1.398434.5862-.639189,1.638544-1.318121,3.156205-2.037623,1.518489-.718674,3.07672-1.264303,4.674694-1.637716,1.490338-.265777,2.808459-.399079,3.954364-.399079h2.197421c1.544156,0,2.796868.106808,3.755652.319595,2.076538.532382,3.115634,1.597974,3.115634,3.195947v.079485c0,.373412-.027323.813062-.080313,1.318121-.05299.506715-.133302.946365-.239282,1.318121-.107636.373412-.226863,1.092915-.359337,2.157678-.13413,1.06642-.279852,2.210668-.43965,3.436057s-.33367,2.410208-.519134,3.555284c-.18712,1.145904-.33367,1.984634-.43965,2.517015-.373412,1.385186-.666512,3.489047-.879299,6.311582-.212787,2.824191-.399079,7.244699-.558877,13.263181-.107636,3.888954-.159797,7.564294-.159797,11.026018,0,2.556758.026495,5.007536.079485,7.350678.160625,5.380948.559705,10.920038,1.198894,16.618925.265777,2.610575.465317,4.661446.599447,6.152612.132474,1.491166.19954,2.609748.19954,3.354917,0,.746825-.080313,1.278379-.239282,1.597974-.160625.319595-.399907.639189-.719502.958784-2.237163,2.130355-6.285915,3.382239-12.144599,3.755652-.798987.052162-1.597974.079485-2.39696.079485-.746825,0-1.332197-.05299-1.757771-.158969Zm1.997881-97.876296c-2.078194-.531554-3.249765-1.330541-3.515542-2.39696v-.319595c0-.691351.10598-1.917568.319595-3.675339.265777-2.077366.585372-4.154731.958784-6.232097.371757-2.077366.664856-3.382239.878471-3.914621.479392-.639189,1.530908-1.358692,3.156205-2.157678,1.623641-.798987,3.181872-1.357864,4.673866-1.677458,1.224561-.266605,2.489693-.399907,3.795394-.399907h2.5965c1.330541,0,2.369638.053818,3.116462.159797.319595.107636.678932.253357,1.078011.43965.399907.18712.759244.38666,1.078839.598619.371757.373412.625114.707083.759244.999354.132474.2931.19954.786567.19954,1.477919,0,.746825-.107636,2.091441-.319595,4.034676-.213615,1.944891-.452897,3.795394-.719502,5.553165s-.452897,2.796868-.558877,3.116462c-.267433.478564-.759244.998526-1.477919,1.557403-.719502.559705-1.452252.999354-2.197421,1.318949-1.917568.745997-3.888954,1.237809-5.912502,1.477919-2.025204.239282-3.56936.359337-4.634123.359337-1.278379,0-2.370465-.10598-3.275432-.319595Z"/>
    <path class="cls-1" d="m1368.80429,252.886654c-13.211019-1.172399-22.639063-9.428872-28.284132-24.769418-4.314529-11.451592-6.472207-27.856902-6.472207-49.217586,0-15.499516,1.145076-33.583112,3.436057-54.250789.211959-1.809933.359337-3.208367.43965-4.194474.079485-.985279.120055-1.638544.120055-1.958139v-.319595c-.053818-.052162-.827138-.131647-2.317476-.239282-1.491994-.10598-3.303583-.239282-5.43311-.399907-2.185001-.158969-4.168807-.332014-5.952245-.519134-1.784266-.185464-2.969085-.332014-3.555284-.43965-3.142957-.904966-6.152612-2.60892-9.028965-5.113515-2.876352-2.50294-4.420508-4.740103-4.634123-6.711489,0-.585372.19954-1.104506.599447-1.557403.399079-.452069.919042-.785739,1.558231-.999354h.798159c.852805,0,2.371293.028151,4.554639.080313,3.195947.159797,6.964846.33367,11.30587.519134,4.340196.18712,8.349205.413155,12.024544.678932l2.317476.080313,1.038269-6.232097c.319595-1.96973.572124-3.421982.759244-4.354271.185464-.931461.385832-1.597974.598619-1.997881.212787-.399079.48022-.784911.799815-1.158324,1.330541-1.330541,3.301927-2.382885,5.911674-3.156205,2.609748-.771664,5.220323-1.170743,7.830898-1.198066,2.60892-.026495,4.474326.438822,5.59208,1.397606.266605.213615.466145.466973.599447.759244.132474.293928.212787.746825.24011,1.358692.025667.612695-.027323,1.558231-.159797,2.83661-.13413,1.278379-.307175,3.009655-.519134,5.193-.213615,1.971386-.347746,3.515542-.399907,4.634123-.053818,1.118582-.080313,1.837256-.080313,2.15685v.319595c.160625.053818,1.597974.147378,4.315357.279852,2.715727.13413,6.0723.253357,10.066406.359337,3.995762.160625,7.536971.307175,10.626938.43965,3.088312.13413,4.980213.253357,5.672392.360165,2.823363.478564,5.67322,1.731276,8.549573,3.754824,2.876352,2.025204,4.873405,4.154731,5.992815,6.391894.319595.746825.478564,1.358692.478564,1.837256v.399907c-.106808.587028-.532382,1.145904-1.278379,1.678286l-.878471.718674-10.386828-.159797c-3.03615-.10598-6.671747-.211959-10.905963-.319595-4.235044-.10598-8.083428-.186292-11.545152-.239282-3.409562-.106808-5.980395-.186292-7.710843-.24011-1.731276-.052162-2.916095-.079485-3.555284-.079485-.587028,0-.932289.027323-1.039097.079485-.05299.159797-.18712,1.386014-.399079,3.675339-.213615,2.290981-.452897,5.113515-.718674,8.46926-.267433,3.355745-.507543,6.684994-.719502,9.986921-.746825,11.772843-1.118582,22.399781-1.118582,31.879987,0,17.417912,1.278379,31.13399,3.835137,41.148234,3.461724,13.31617,8.681219,21.89141,15.660141,25.726547l2.39696,1.198894,3.03615-1.278379c3.941116-1.651791,6.937524-2.556758,8.988394-2.716555,2.050043-.159797,3.368164-.239282,3.955192-.239282,2.60892,0,4.500821.531554,5.672392,1.597974.5862.585372.879299,1.198066.879299,1.837256,0,1.384358-1.305702,2.928514-3.914621,4.634123-6.711489,4.36669-13.822885,6.843964-21.333361,7.430163-.798987.05299-1.597974.106808-2.39696.160625-.798987.052162-1.438176.079485-1.917568.079485h-2.117108c-.559705,0-1.186475-.027323-1.877826-.079485Z"/>
    <path class="cls-1" d="m1430.045593,236.400203c-4.741759-.851149-7.804404-2.237163-9.188762-4.154731-.213615-.478564-.506715-2.183345-.879299-5.113515-.372585-2.928514-.666512-6.151784-.878471-9.667326-.053818,0-.346918.279852-.878471.838729-.53321.559705-1.226217,1.265959-2.078194,2.117108-4.261539,4.422164-9.347731,6.925104-15.260234,7.511304-1.06642.158969-2.104689.239282-3.115634.239282-1.012602,0-2.211496-.052162-3.595855-.159797-7.724091-.691351-13.582775-2.916095-17.577709-6.671747-3.994934-3.754824-6.445712-9.387474-7.350678-16.898778-.213615-1.544156-.319595-3.275432-.319595-5.193,0-1.010946.026495-2.050043.080313-3.116462.158969-3.248109.505059-6.178279,1.038269-8.788027,4.047096-18.004112,12.543679-28.870332,25.488093-32.598661,1.756943-.426402,3.595027-.731922,5.512595-.919042,1.917568-.186292,3.436057-.279852,4.553811-.279852.532382,0,1.039097.027323,1.518489.079485.904966.107636,2.077366.267433,3.515542.48022s2.809287.438822,4.114989.678932c1.304046.239282,2.223088.438822,2.756297.599447.319595.106808.639189.158969.958784.158969.425574,0,.851149-.079485,1.278379-.239282.639189-.211959,1.517661-.332014,2.63707-.359337,1.117754-.026495,1.96973-.04057,2.556758-.04057,1.170743,0,2.36881.028151,3.595027.080313,1.809933.107636,3.248109.267433,4.314529.479392,1.650135.42723,3.208367.986107,4.673866,1.677458,1.464671.693007,2.489693,1.412509,3.07672,2.157678.425574.53321.784911,1.398434,1.078011,2.5965.292272,1.198894.559705,3.104043.798987,5.712963.24011,2.610575.491812,6.31241.759244,11.10633.371757,7.350678.625114,14.30145.759244,20.853141.132474,6.551692.19954,11.904489.19954,16.05922,0,2.717383-.027323,5.301464-.079485,7.750586-.107636,6.0723-.347746,9.615164-.719502,10.626938-.639189,1.278379-1.837256,2.076538-3.595855,2.396132-1.756943.319595-3.275432.48022-4.553811.48022-1.597974,0-3.32925-.160625-5.193-.48022Zm-32.598661-26.925441c4.526488-6.497874,8.468432-15.207244,11.825004-26.127282.478564-1.490338,1.024193-3.447649,1.637716-5.871932.611867-2.423455,1.170743-4.674694,1.677458-6.751231.505887-2.078194.759244-3.248937.759244-3.515542s-.2931-.572124-.878471-.919042c-.587028-.34609-1.159152-.611867-1.718029-.798987-.559705-.186292-.97286-.279852-1.238637-.279852-.107636,0-.213615.027323-.319595.080313-.852805.478564-1.905149,1.318121-3.156205,2.516187-1.251884,1.198894-2.384541,2.464854-3.395487,3.795394-3.888954,5.380948-6.379475,10.746165-7.470733,16.099791-1.092087,5.352798-1.637716,9.654907-1.637716,12.903016,0,3.515542.425574,6.899437,1.278379,10.147546.10598.319595.211959.599447.319595.838729.10598.24011.186292.360165.239282.360165.106808,0,.34609-.24011.719502-.719502.371757-.479392.825482-1.064764,1.358692-1.757771Z"/>
    <path class="cls-1" d="m1460.52549,242.313533c-1.172399-.213615-2.051699-.67976-2.63707-1.398434-.587028-.719502-1.198066-2.145259-1.837256-4.274786-3.303583-9.747639-4.954546-25.619739-4.954546-47.619613,0-2.556758.026495-5.193.080313-7.910383.10598-8.629057.34609-15.939165.719502-21.93198.371757-5.991987,1.010946-12.903844,1.917568-20.733086.531554-4.527316,1.278379-9.548099,2.237163-15.061522.958784-5.512595,1.889417-10.43899,2.79604-14.780842.904966-4.341024,1.597974-6.991341,2.077366-7.950126.371757-.585372,1.091259-1.238637,2.157678-1.957311,1.064764-.719502,2.289325-1.344616,3.674511-1.877826,1.171571-.479392,2.717383-.904966,4.634951-1.278379,1.917568-.371757,3.487391-.558877,4.713608-.558877,1.064764,0,2.089785.14655,3.075892.438822.985279.293928,1.718029.62677,2.197421.998526.319595.319595.505887.62677.559705.919042.052162.293928.079485.547285.079485.759244,0,.42723-.027323.958784-.079485,1.597974-.160625.958784-.42723,2.317476-.799815,4.074419-4.581134,23.01082-6.870458,47.300018-6.870458,72.867595,0,9.641659.319595,19.495278.958784,29.563339.425574,5.539918.851149,10.080481,1.278379,13.622518.425574,3.542865,1.064764,7.444239,1.917568,11.704949.319595,1.545812.478564,2.796868.478564,3.755652,0,.585372-.05299,1.090431-.158969,1.517661-.319595,1.010946-1.278379,1.944063-2.876352,2.79604-2.025204,1.119409-4.274786,1.890245-6.752059,2.317476-2.476445.425574-4.408089.639189-5.792447.639189-1.012602,0-1.944891-.080313-2.79604-.239282Z"/>
  </g>
  <g>
    <path class="cls-1" d="m223.400538,173.456734c-.174106-2.061247-.142514-2.692726-.017607-3.074088.055285-.16822.054832-.366623.000151-.439615-.103578-.124807-.228837-.747633-.466679-1.66419-.053977-.223404-.216211-.533585-.364208-.694813-.167566-.182507-.241917-.375326-.204037-.52292.174609-.679067.00161-1.420311-.252078-1.081507-.139546.185927-.344489-.807697-.210526-1.025769.112482-.190354-.027416-.815846-.37769-1.38721-.172546-.293882-.309527-.647626-.302685-.785412.013884-.248406-.363705-1.095291-.702409-1.575452-.091857-.132151-.261234-.546413-.373615-.922644-.113237-.37613-.286185-.747884-.383576-.827718-.099051-.079482-.265459-.452695-.364761-.832296-.100107-.385688-.250619-.715387-.338955-.744564-.086374-.029931-.356864-.46517-.599635-.966812-.243526-.504056-.507175-.915752-.587411-.920179-.078627-.004477-.18316-.142514-.229894-.305351-.070326-.245136-.327435-.498522-.566937-.609747-.414916-1.323977-.909766-2.676628-1.339924-3.763367-.321147-.80488-.63495-1.516796-.644357-1.60478-.008652-.04286-.158461-.413608-.40244-.971792-.145683-.297906-.320091-.654468-.509841-1.04242-.045778-.163743-.190052-.479708-.377086-.816148-.24906-.450079-.490574-.983463-.539672-1.187801-.048293-.205144-.15992-.39746-.248859-.430208-.096032-.035465-.184317-.197296-.219028-.404201-.033654-.1896-.172043-.479004-.326127-.632133-.198906-.20117-.238647-.301226-.140955-.356461.176973-.099101-.289556-.973804-.529309-.991562-.129988-.00991-.162586-.099403-.12531-.342124.040345-.260278.004779-.343935-.16666-.398416-.171188-.054128-.197296-.111325-.125511-.27713.071685-.165956.049903-.212941-.102974-.226725-.106395-.009206-.215255-.124002-.242319-.256254-.027114-.132101-.094523-.21284-.148903-.179287-.051764.031793-.223203-.135572-.377137-.373565-.154134-.238546-.581073-.829831-.948501-1.312508-.527901-.726404-1.695278-2.332844-2.585375-3.55767-.068968-.137131-1.13141-1.486412-2.35211-3.004164-.163692-.205546-.272049-.344338-.481117-.582481-.204741-.239502-.402792-.471157-.592039-.692448-.375728-.445048-.716293-.848343-1.004339-1.189462-.563969-.693555-.952575-1.105553-.944879-1.148413.005181-.076967-.054128-.168371-.135974-.205898-.01982-.009206-.239552-.229894-.619556-.619607-.387801-.381765-.903276-.966359-1.599598-1.615444-.692549-.652556-1.489229-1.451349-2.411269-2.284903-.940653-.811369-1.925524-1.754487-3.036661-2.635881-4.355708-3.651036-8.966563-6.517414-9.799312-7.002907-.818714-.518997-2.741521-1.575603-4.25052-2.387123-.764133-.387047-1.682853-.852418-2.548099-1.290725-.881142-.401685-1.707754-.77857-2.26795-1.033969-3.509326-1.524191-5.881458-2.414539-8.66926-3.357456-1.473282-.517487-4.23402-1.356776-6.130367-1.84569-5.923513-1.523436-9.777932-2.083532-13.519366-2.553783-1.989361-.237691-5.744327-.564875-8.347208-.591184-2.736541-.076212-8.037731-.134113-13.27262.442885-2.648004.230699-5.205259.719965-7.370285,1.103239-2.133183.506772-3.898586.852317-4.884413,1.145495-.740288.204943-1.775062.491329-2.845804.787726-1.079092.278539-2.141987.704521-3.014778.987286-1.753632.551846-4.159015,1.582394-5.434951,2.095354-1.043326.40898-2.255223,1.036836-4.603561,2.148929-1.139257.615029-2.555745,1.368095-4.31969,2.37354-.863586.531724-1.818324,1.119638-2.877093,1.771591-1.065007.644709-2.159744,1.456983-3.405195,2.297379-.833906.532529-2.338981,1.73522-4.174358,3.144163-1.777829,1.474942-3.846823,3.207949-5.650609,4.970435-.45692.434434-.933308.88738-1.42182,1.351846-.468289.484487-.948148.980947-1.432485,1.481985-.483733.501893-.971943,1.008313-1.457436,1.511967-.474628.513614-.92531,1.043728-1.378005,1.553167-1.837742,2.015822-3.344326,4.015596-4.364562,5.269045-3.497102,4.614125-5.998971,8.589879-8.619509,13.65866-.321902.637062-.668453,1.278954-.990002,1.957015-.309124.684852-.626448,1.388066-.953783,2.113363-.681884,1.437767-1.285393,3.021167-1.93966,4.725349-.344388.844721-.649337,1.741609-.947344,2.681809-.302031.938138-.63334,1.905251-.940049,2.925235-.552097,2.062303-1.181765,4.274918-1.637528,6.749169l-.316418,1.551305c-.092561.52116-.159517,1.049563-.239854,1.575401-.149255,1.054191-.317274,2.108081-.445652,3.170371-.174558,2.138717-.41235,4.276629-.405659,6.435467-.099252,2.15084.043061,4.305755.134314,6.440296.075105,1.066365.216513,2.126241.325121,3.181187.059108.527247.118066,1.052984.176872,1.577061.090801.520506.181299,1.039301.271496,1.556286.188744,1.032862.37613,2.05838.561856,3.074993.251223,1.003937.500233,1.99912.746677,2.984092.126567.489971.252481.977426.37774,1.462115.142816.457574.284777.912633.425932,1.364875.28372.904333.56402,1.797749.840445,2.678841.619556,1.744074,1.217381,3.443578,1.859625,5.061537.336037.804477.665937,1.594316.989197,2.368208.31511.777061.644809,1.530177,1.001271,2.253261.276627.572672.781438,1.617658,1.372018,2.84022.654468,1.193184,1.403962,2.559769,2.090776,3.811911,1.487267,2.445678,2.801636,4.607032,2.926694,4.812678.090297.226674.263045.459033.389562.523625.125209.064592.341873.289706.485242.503503.073395.104685.463812.661963,1.034069,1.475999.610049.786418,1.412514,1.820839,2.260606,2.914118.882802,1.065108,2.112307,2.525864,3.435227,3.968712.675646.709099,1.360096,1.427505,2.012803,2.112508.649588.687216,1.327297,1.283532,1.895995,1.838195,3.257097,3.099643,9.257175,8.349522,17.530988,12.905494,4.125361,2.271924,8.778271,4.377742,13.729691,6.078503,4.948854,1.707553,10.18822,3.009999,15.419033,3.856884,5.231367.852921,10.449051,1.253349,15.371495,1.315576,4.923752.040848,9.543209-.277985,13.637935-.708143,2.039465-.261133,3.964385-.468339,5.712635-.782293.87742-.142363,1.717312-.278589,2.516356-.408225.828875-.170584,1.615293-.332415,2.355783-.48484.742351-.158461,1.438672-.307112,2.085494-.445149.639075-.16988,1.229202-.326731,1.766913-.469597,1.073307-.293731,1.949821-.495001,2.569176-.692247.837729-.286386,3.432712-1.024109,5.646635-1.967177,1.092021-.426435,2.181979-.857549,3.194971-1.348727,1.018525-.4784,2.015469-.905741,2.897467-1.359241,1.747243-.935572,3.219419-1.651362,4.000001-2.139823.267924-.161982,1.105704-.668704,2.239779-1.354613,1.140112-.679168,2.483205-1.671836,3.887519-2.626625,1.362058-1.008565,2.61918-2.006415,3.591525-2.745546.929636-.787374,1.568057-1.325889,1.694322-1.418953.157656-.116205.661913-.528555,1.38721-1.13473.708395-.622977,1.602767-1.475294,2.601472-2.408905,1.010778-.922845,1.999322-2.042886,3.019155-3.091342,1.012841-1.055197,1.896096-2.175188,2.702485-3.104522.870075-.990656,1.569767-1.941521,1.701868-2.00244.103779-.08245,1.583199-1.852029,3.042245-4.095329.37276-.555619.745067-1.110634,1.098862-1.638031.330705-.541483.644105-1.054594.923247-1.511665.562209-.912784.986581-1.601761,1.136943-1.845841.304446-.486801,1.386858-2.423845,2.393813-4.313301.941257-1.921299,2.052494-4.184772,2.39165-5.061537.458329-1.074112.924254-2.077747,1.331271-3.156487.392127-1.085028.801409-2.217645,1.267635-3.507616.420349-1.30461.844671-2.783576,1.360348-4.532228.213343-.885318.443338-1.839553.693354-2.876942.12209-.5195.24901-1.059826.381262-1.622789.105993-.567843.216311-1.158524.331158-1.773804.284173-1.512721.557782-2.958487.716846-4.349822.16983-1.389172.397007-2.705352.472917-3.963178.102371-1.256216.199107-2.44281.290059-3.558978.037678-1.117978.072942-2.165378.105842-3.141496.137634-6.171265-.220889-9.682554-.315312-11.751296Zm-23.258412,36.867421c-.262341.584142-.533535,1.295253-.855587,1.925977-.317978.63178-.612815,1.217532-.807445,1.604276-.201874.38594-.408024.834962-.676753,1.323222-.27381.48499-.579111,1.025668-.918619,1.627065-.642697,1.221959-1.558247,2.605145-2.608062,4.275874-.823845,1.172006-1.993033,2.885947-2.710332,3.722519-.38433.487304-.792404,1.004591-1.231013,1.560712-.462756.53439-.957807,1.106006-1.492448,1.723399-.515375.633893-1.130856,1.256719-1.781954,1.942427-.324417.343633-.661058.700296-1.010929,1.070943-.359278.360687-.7505.715639-1.144992,1.096347-1.310948,1.322719-3.163681,2.806314-3.967957,3.47195-.417531.3134-1.112294.834811-1.895241,1.422474-.765743.610049-1.699705,1.168635-2.479131,1.727272-1.590191,1.072201-3.842849,2.386922-4.98281,2.946414-4.866455,2.520029-8.386597,3.648017-11.701494,4.573931-.831391.227781-1.644973.469647-2.490751.624386-.856191.170685-1.652016.381513-2.606704.546061-.960775.163843-1.958575.333975-3.018903.514771-1.061033.169025-2.188519.2969-3.401724.46844-1.706899.22099-3.101454.310482-4.229996.439012-1.129045.076715-1.994844.135471-2.650318.179991-1.310797.109262-1.778131.143822-1.825568.206754-.089996.122493-.12038.12541-.126165.007848-.002918-.059259-.312796-.093416-1.156461-.103779-.421707.000855-.977024.002012-1.694473.003471-.714884-.019367-1.591298-.043061-2.657613-.071886-4.037982-.166359-7.28532-.490775-9.856559-.933761-1.295907-.178633-2.416752-.409784-3.398706-.615884-.986431-.189851-1.828888-.372458-2.538189-.569704-1.427203-.364611-2.377514-.599988-2.95401-.814186-.583035-.195032-.818412-.291819-.832346-.330303-.038735-.109464-.12536-.138188-.281658-.091253-.14518.045727-2.212263-.459234-5.681345-1.804239-2.717123-1.002729-5.699455-2.467762-8.021181-3.695203-1.134076-.658543-2.156022-1.176231-2.849828-1.627819-.702006-.438861-1.143483-.707338-1.202994-.733497-.071031-.02973-.149506-.081897-.17642-.114746-.026813-.033101-.247148-.182959-.682488-.461498-.432271-.283016-1.047249-.740087-1.905402-1.330064-1.701617-1.196353-4.270542-3.088726-7.517528-6.186206-3.701391-3.507817-6.895456-7.46013-9.604983-11.795263-2.716319-4.330706-4.965052-9.035782-6.738655-14.111003-.130994-.366422-.280601-.784959-.445451-1.246055-.145281-.469899-.303993-.983211-.473068-1.530177-.171238-.546161-.35299-1.125926-.542237-1.729737-.188342-.602302-.29846-1.17432-.4619-1.787588-.152927-.606326-.309275-1.226134-.46673-1.850318-.113136-.635-.227077-1.274427-.340162-1.909024-.275973-1.259436-.365667-2.534718-.511048-3.70285-.320443-3.566473-.334729-6.615006-.062831-9.358791.067509-.685657.083204-1.353959.184116-2.005207.095076-.651399.18804-1.288059.279444-1.914306.14015-1.256216.460492-2.454632.688877-3.652746,1.101126-4.760613,2.567617-9.395161,5.780899-15.582876.602553-1.225832,1.687934-3.113225,2.941484-5.161996.67127-.999057,1.316834-2.07981,2.044546-3.089883.741546-1.000315,1.42182-2.023468,2.133233-2.915124,3.735246-4.842711,8.316421-9.466343,12.517995-12.788434,1.07044-.802264,2.059335-1.602818,3.020412-2.284551.970534-.665887,1.867774-1.281469,2.673408-1.834271,1.673848-.994781,2.925084-1.838295,3.724682-2.213369.51633-.275772,1.319902-.704924,2.199183-1.174571.887179-.449173,1.871748-.885217,2.701831-1.290172.824398-.420751,1.612929-.694863,2.169654-.932001.561152-.224863.909363-.364409.909363-.364409.010011.025756.421153-.157656,1.164611-.428045.745118-.26053,1.815155-.634748,3.115036-1.089254,2.6225-.801811,6.196518-1.769025,9.983076-2.315388.947495-.102773,1.905201-.206653,2.860845-.310331.953229-.111627,2.000529-.130994,2.979615-.205295.992417-.048444,1.972459-.051311,2.922921-.083355.95162.007445,1.875169.014689,2.757569.021581,3.530706.098246,6.395223.394039,7.773178.541734.832598.060114,1.865309.217921,2.934642.370446-.691945.228234-1.35577.45858-1.781249.629617-2.387575.882249-3.919161,1.600051-5.697744,2.434862-.931799.468239-2.650721,1.343797-3.772925,2.025581-3.531763,2.077093-5.604177,3.685444-7.579453,5.275987-1.039653.858857-2.937208,2.54674-4.141006,3.825946-1.309892,1.284437-3.715527,3.996631-5.704184,6.878805-2.015067,2.867032-3.545949,5.898763-4.147345,7.126155-.247651.447564-.508131,1.112545-.814287,1.78462-.306508.672527-.600491,1.377049-.800906,1.953645-.20781.573427-.483682,1.26341-.705024,1.93151-.208414.672678-.405509,1.308986-.54108,1.74669-.242017.707439-.443841,1.599447-.85277,3.288035-.191511.846784-.363856,1.908068-.601044,3.249048-.081897.675998-.172446,1.423329-.272854,2.252154-.105339.828775-.127372,1.746338-.20127,2.753092-.058555.661158-.038735,1.958725-.036773,3.513904.040093.776357.083557,1.617356.127926,2.476112.074653.855889.178331,1.727021.266415,2.570635.098749.842106.269434,1.746388.411495,2.672754.153984.924203.383374,1.850167.567239,2.747055.432623,1.777577.885368,3.393877,1.238459,4.417332,1.210439,3.682778,2.471836,6.556249,4.295342,9.881108.45692.831491.947193,1.69221,1.521927,2.577225.544401.904383,1.178696,1.826272,1.875018,2.811144,1.407936,1.955204,3.097983,4.147596,5.389425,6.506548,3.814376,3.984809,8.377039,7.514006,13.122711,10.133689,4.738982,2.633617,9.631595,4.343735,13.857516,5.268995.419795.080086,1.18584.226272,2.082073.397309.896032.172747,1.936491.27054,2.883432.402742,1.900472.183412,3.587249.301176,3.743848.306659.157907.025656.350274.025002.43383-.001509.083054-.026108.288549-.043262.459737-.038634.085116.001358.53776.008652,1.19912.019367.660706-.006992,1.528718-.051563,2.44598-.084311.91701-.03461,2.173679-.171741,3.462845-.296548,1.281017-.188392,2.601774-.343231,3.627141-.568446,2.916532-.553757,8.037128-1.704886,13.695936-4.300473,4.799649-2.143999,9.961495-5.312257,14.524812-9.242938-.12033.285682-.241263.572068-.373766.875659Zm1.937195-36.371464c-11.436085,3.102963-12.4777,4.404001-15.999855,16.562164-.183261.632535-.659247,1.102635-1.353607,1.130655-.031038.00171-.062127.002314-.093165.001811-.669157-.010111-1.180507-.432019-1.38062-1.044684-3.844961-11.773028-4.944981-13.556088-16.824303-16.719065-.803169-.213847-1.274578-.833151-1.291128-1.50593-.01972-.749897.443841-1.285192,1.127184-1.454317,10.985604-2.718934,13.76918-5.212352,16.624542-16.665239.152424-.611507.621065-1.057159,1.277495-1.056858.006439.000101.013934.000201.02143.000302.631629.009608,1.157468.429756,1.226486,1.036987,1.309791,11.525125,7.271335,15.575683,16.738231,16.401993.796479.069521,1.342841.77852,1.338616,1.625505-.003823.886625-.606326,1.468252-1.411307,1.686676Z"/>
    <path class="cls-1" d="m176.838691,75.887001c-.038005-.058092-.376332-.085172-.749268-.059926-.372936.025427-.679671-.002758-.6804-.061958-.000704-.059138-.107477-.07112-.237691-.027247-.130818.044015-.272905.024562-.317953-.043977-.1154-.178569-.345419-.149652-.237087.030435.053952.088751.045149.111193-.022537.053147-.061523-.053348-.114016-.149151-.114771-.210155-.001736-.141226-.068188-.148685-.34147-.037028-.117135.048607-.311765.047597-.431164-.001128-.120833-.04876-.383525-.096259-.588342-.105732-.205848-.008994-.472037-.056083-.596894-.104289-.123423-.049236-.359555-.024305-.52453.055535-.21855.104839-.300019.107463-.301251.007704-.001182-.094647-.053877-.09039-.173854.013236-.117009.101111-.198805.108271-.254292.022213-.118016-.185295-1.392165-.134868-1.46717.060247-.035993.09399-.064516.07031-.071634-.059918-.011193-.168787-.10066-.204072-.415041-.159082-.218952.031059-.471358.000036-.556298-.068254-.108231-.086617-.20869-.078972-.328617.026379-.124932.109579-.197296.113881-.259473.01352-.052367-.083078-.232686-.10226-.449802-.048088-.217116.054316-.435742.030489-.544552-.059108-.100157-.082044-.181978-.107249-.181299-.055566.000654.051659-.081695.025639-.185399-.058674-.150009-.122595-.199635-.11143-.260328.05785-.05692.156759-.117563.176391-.23754.076748-.086952-.073855-.42138-.1447-.737949-.156925-.316645-.012663-.615305-.082735-.66302-.156178-.046255-.072223-.224184-.175652-.392882-.226429-.288876-.08705-.295768-.077952-.122015.134959.175313.214126.169301.218978-.097063.078525-.156549-.083519-.248255-.213273-.203911-.289739.051613-.08915-.010413-.106478-.177174-.046752-.171288.060461-.394492-.006364-.666591-.200142-.658014-.469883-.729699-.64385-.781714-1.885463-.01562-.375061-.067107-.682309-.11296-.682211-.046255.000148-.069823-.161557-.052996-.356767.017255-.195731-.013633-.51705-.068742-.710292-.058429-.215639-.021807-.583282.085896-.9373.156876-.515541.155317-.591027-.018915-.663936-.142338-.059049-.158838-.120573-.05936-.222933.076464-.077184.109338-.221735.075961-.321605-.034333-.099356-.00571-.180246.065271-.1791.069848.00108.115022-.205211.10061-.458745-.013758-.253576.023442-.492461.084538-.530364.103276-.064637.051009-1.299455-.064089-1.507155-.029705-.051806-.010187-.121958.04369-.153686.056996-.032659.090121-.504029.120405-1.049689.02392-.546098.083708-.98996.134541-.987742.094951.003771.081066-.286641-.060643-1.28002-.047211-.326693-.033403-.591879.032975-.629831.061246-.036094.085644-.119454.051965-.181923-.033076-.062551-.008225-.146384.052971-.181882.062252-.035927.113865-.36074.115525-.721922.001107-.360853.050707-.653187.110847-.649302.13766.008984.176948-.607103.045576-.710909-.059385-.045667-.141458-.010756-.183412.078267-.060165.127814-.076162.12624-.072062-.007494.001409-.093449.084286-.195105.185877-.228619.140477-.046403.162108-.139625.092209-.39372-.048922-.181722-.054254-.385137-.010313-.448013.098749-.14211.171288-.35241.268629-.930069.04452-.237641.113111-.787814.193297-1.452189.076288-.672351.175338-1.514718.336867-2.575323.40322-3.048379.904081-5.77761,1.225606-7.494089.370094-1.798425.847463-4.471985,1.988506-9.232459.481872-1.905037,1.062265-4.075764,1.308986-4.829002.22763-.754251.395196-1.420427.372735-1.479989-.024549-.04662.076615-.540917.215582-.969685.420424-1.30017.801987-2.598775,1.278526-3.896769.318078-.88555.575062-1.699152.802516-2.30283.214953-.60261.33971-.990486.320896-1.01784-.037653-.054631.021053-.210319.132202-.346696.110721-.13666.204817-.329296.209822-.431328.005483-.100924.100233-.24186.213997-.313105.135572-.083852.202779-.21943.190681-.383073-.015997-.22143.274288-.799309.822235-1.62404.083833-.132969.21352-.458706.283972-.72072.094926-.363303.19868-.511407.431416-.618286.169251-.077394.38599-.314639.485971-.531956.269836-.602754,2.029932-1.286028,2.305981-.900522.066805.084676.306408.103666.530542.045884.223706-.056731.439313-.040357.477847.034277.038257.075143.100208.077885.137307.005754.042885-.083387.219355-.011017.488939.200579.624033.489034,1.679231,1.053732,1.959254,1.065315.144325.006112.277105.087763.319437.1958.03964.101534.495705.394907,1.01113.651877.515777.258247,1.019481.558033,1.11828.663164.098095.105534.295944.20798.438156.229114.142413.020644.343885.13483.452393.254248.10715.118669.789336.557926,1.515941.973527.725549.416148,1.393499.830403,1.480778.92187.086826.091096.251827.153946.361844.139533.225316-.03046,1.150022.415475,1.521726.721556.13366.109942.368132.290335.518544.398711.921537.692454,1.023204,1.070629.495856,2.419387-.103276.256398-.155292.509873-.113941.566692.042357.060228-.048242.261781-.217921.476527-.176973.224461-.336893.580337-.403496.89568-.061825.285003-.157052.553393-.213997.598246-.071383.049198-.362347.750179-.673886,1.566208-.306357.821436-.595209,1.797605-.727813,2.318054-.11877.457511-.245337.861093-.310281.873364-.063435.013504-.083909.095498-.045476.182683.072339.162014.037175.270254-.408477,1.238437-.037427.085603-.081092.185484-.129284.295737-.02309.055725-.047287.11407-.072339.174536-.030435.080199-.061925.163215-.094221.248384-.114494.348906-.240558.733129-.364007,1.109436-.23915.755939-.455512,1.484969-.536754,1.837695-.154386.76452-.17642.852198-.579966,2.09995-.204087.63201-.395397,1.24702-.406414,1.373757-.068616.464073-.280098,1.545847-.511099,2.645895-.236836,1.098079-.422109,2.238641-.556021,2.779646-.308923,1.230073-.675848,3.324182-1.020361,5.272095-.304295,1.956641-.538892,3.77743-.61528,4.449083-.027441.364692-.117362,1.559889-.199635,2.653599-.062454.863631-.086776,1.623457-.053625,1.686984.032698.064071.067459.224162.075935.355254.041502.435864.084135.593806.225417.867451.120581.231488.110696.268753-.064667.258544-.158184-.009288-.174433.025505-.073018.154059.178558.227202.154512,1.025898-.040269,1.334367-.090147.140008-.122392.320284-.073621.402827.13693.231068.13522.465574-.006011.688718-.100031.15689-.089568.208704.045601.214117.183462.007403-.00908.665757-.23666.814065-.053801.033142-.07415.173095-.049651.307771.024649.135671-.001258.427253-.058706.650565-.060542.234646-.05531.491885.013457.61263.080312.14261.072137.232712-.028523.288543-.08079.044353-.150336.181576-.154059.303609-.009181.278987.080488,1.357931.126215,1.515972.061749.215219-.16993,1.159371-.30432,1.237586-.09158.052037-.087128.160993.02055.347329.128202.220581.124102.292445-.017959.396184-.167868.122663-.181777.706598-.040143,1.681025.033604.22972.002012.366414-.079658.352078-.073621-.012433-.137936.109-.143948.271459-.030258.846481-.690964,1.883703-1.109703,1.741595-.100962-.034686-.262366.019373-.365214.121547-.103427.102166-.235075.155486-.29939.119851-.063359-.036168-.113413.025129-.112105.134666.001861.154932-.036194.170638-.166686.07037-.180167-.137346-.903276-.033212-1.0143.147769-.085896.138964-.264403.141798-.355053.004884Z"/>
    <path class="cls-1" d="m230.80996,102.613341c-.005383-.070069-.2886-.257775-.627253-.415719-.338704-.157808-.59375-.331156-.566032-.383973.027668-.052783-.060114-.114999-.195133-.139054-.135572-.024236-.25072-.110177-.25736-.192623-.015695-.21387-.231001-.299319-.222197-.087639.004829.104616-.013633.120229-.045124.036143-.028372-.076959-.028573-.187073-.00005-.241401.06595-.125797.011319-.164416-.281406-.197644-.125863-.0136-.295844-.108508-.377187-.209181-.08255-.101412-.290008-.270113-.464969-.3773-.176017-.107275-.386845-.277207-.473269-.379875-.084714-.102897-.30349-.194771-.486047-.204105-.241313-.013188-.313903-.050226-.267623-.138532.043967-.083799-.004226-.105441-.158612-.072218-.150513.032429-.225618-.000789-.233365-.103143-.015343-.219762-1.156009-.789428-1.314067-.654852-.076011.064936-.089794.030428-.034358-.087015.070075-.153193.008351-.227168-.288449-.339298-.206603-.07835-.413105-.227121-.45531-.327696-.053927-.127825-.145633-.169485-.300472-.135273-.161278.035493-.226725.004336-.233818-.113189-.006691-.097733-.155744-.201283-.371603-.258613-.215909-.057215-.396252-.183317-.449475-.313721-.049148-.119668-.109011-.180973-.132755-.135669-.023744.045291-.083708-.017016-.134918-.140287-.073797-.17887-.122593-.192979-.255449-.074967-.1237.108936-.186028.096767-.244331-.04761-.041502-.106089-.301428-.328565-.573225-.491458-.271697-.163354-.500736-.367759-.508131-.454345-.006691-.084851-.114243-.259988-.238395-.384989-.212639-.214122-.222952-.209571-.170282.058253.053424.26971.045878.271017-.121939.021328-.098145-.147562-.117865-.303877-.043111-.348746.087028-.052375.040697-.097143-.13356-.125529-.178583-.029924-.34308-.194972-.491279-.492921-.357518-.7215-.340464-.905338.194781-2.001699.167717-.331877.271094-.622167.230699-.643898-.040747-.021892.016752-.172974.125964-.333813.109816-.161101.238043-.453738.283016-.647066.050657-.215303.248104-.521689.505364-.780941.373464-.378091.406565-.445172.286437-.591647-.098397-.119224-.084865-.180995.04945-.223737.101465-.031448.199862-.143092.218173-.24674.017204-.103636.080991-.161252.142967-.126658.06102.033999.199308-.126086.307615-.355912.10891-.229574.2557-.422099.327636-.426521.121839-.007977.665183-1.118882.662919-1.356078-.001459-.05963.049198-.112107.111828-.114503.061271-.003988.326379-.395547.611256-.871844.280652-.476663.54435-.844896.588015-.818772.081796.048399.207458-.2175.555417-1.17254.112834-.314413.252984-.544783.332818-.546955.072037-.003032.135522-.065791.137333-.137633.002415-.07162.066503-.134609.138188-.137058.072892-.002346.281809-.26752.465221-.589019.182808-.321496.373716-.55852.424574-.526118.120179.076259.456719-.458649.387851-.61792-.030082-.06996-.118619-.077853-.19795-.017365-.11389.08689-.127121.077784-.059511-.041465.045979-.08404.167214-.136279.27215-.1177.14508.025607.208564-.048357.269132-.312273.048947-.187702.14845-.37388.218776-.409372.180746-.091444.376533-.279065.915148-.978137.272552-.313421.665636-.872493,1.361555-1.721293.572722-.707759,1.103842-1.382088,1.602918-1.966826.508785-.578723.952123-1.083025,1.294951-1.473024.355153-.409903.812778-.910228,1.426046-1.57546.602654-.672575,1.365227-1.504995,2.385463-2.537332.795272-.8482,1.772698-1.740545,2.10627-2.059425.339106-.31335.611809-.609231.606578-.657084.003622-.056011.145633-.242327.401283-.476957.297101-.25789,1.655738-1.590441,3.093254-2.79969,1.418198-1.255724,2.615155-2.222912,2.60434-2.302766-.006338-.065651.118971-.16986.2804-.231406.161127-.062017.33483-.18038.388002-.26539.05272-.083643.203282-.158536.33478-.159217.153933-.002677.272955-.083509.336591-.227657.086525-.19502.595611-.536393,1.438874-.960981.136779-.069716.384179-.282723.548023-.471828.228334-.264148.378193-.328207.621065-.304568.176671.01915.460039-.07171.634748-.203419.479608-.36165,2.188971-.104136,2.305075.343666.027064.10238.226825.229737.442483.283873.214802.054898.397158.166986.403295.247994.005735.081327.058756.111951.117814.067464.068163-.051322.19624.090162.353745.392884.36456.70031,1.074917,1.663446,1.320858,1.796861.126416.069075.212488.198874.206301.312391-.005684.106445.281809.565609.637867,1.018517.356159.453982.683595.939806.726807,1.077259.042558.137411.177174.315008.298007.394616.121235.079292.254744.268418.299617.423576.044268.15368.468591.844913.942665,1.534599.473571.689332.891052,1.355391.925511,1.478813.034409.122678.157706.249574.27054.27919.230548.060484.882148.855032,1.07049,1.301522.067811.160462.192819.430312.276728.596484.513463,1.017521.31828,1.553604-.947897,2.589023-.243426.20268-.427341.429369-.422763.502479.005332.076626-.18633.217664-.456518.335926-.281959.123287-.619104.374683-.850708.633378-.210627.235933-.443942.432934-.513765.441975-.178734.016559-2.480388,1.914142-3.186016,2.709106-.327485.341752-.639578.606744-.69612.588787-.060919-.020361-.11706.039068-.125008.132391-.013985.173906-.094422.24809-.934164.846784-.098598.070375-.216815.159363-.389361.300706-.460542.333098-1.136339.949025-1.349381,1.193811-.264202.321025-.318732.337364-.854782.785687-.274716.224255-.531925.4521-.570962.505737-.309929.385058-1.50427,1.779904-1.922858,2.198124-.491128.458053-1.224222,1.321273-1.926581,2.102311-.671924.820654-1.283632,1.591853-1.492901,1.887387-.119223.181261-.509992.775302-.86761,1.318906-.461699.687328-.830787,1.324724-.826813,1.40178-.000302.071358-.042005.226878-.093618.344522-.169981.390033-.208816.543632-.214953.843402-.004477.253859-.030887.280508-.17984.187467-.134365-.084029-.165202-.062385-.137484.095143.046582.274585-.352185.942673-.662215,1.125615-.143872.079186-.255499.221157-.25077.316407.013633.26684-.096133.470513-.323411.598043-.160473.089325-.175212.139526-.058857.208462.157958.093632-.315463.576292-.584393.597847-.060869.005104-.149708.111843-.191964.242055-.04296.130771-.204842.374473-.361944.543303-.165202.177319-.283217.405624-.280249.54417.002767.163204-.047387.238434-.162737.239787-.09231.000695-.218978.088245-.28045.193609-.140099.242477-.579111,1.225468-.608539,1.396422-.045979.222585-.689883.960789-.84452.96712-.104383.003513-.150865.103641-.149456.318047.003873.255148-.035264.316519-.211432.340298-.205798.032632-.514117.525552-.859712,1.470905-.081796.222119-.175766.329633-.240508.277663-.058656-.046386-.173904.031694-.257863.174444-.436698.744985-1.516947,1.355287-1.814853,1.025466-.071735-.079768-.2392-.10935-.378545-.067744-.139848.04131-.280853.025272-.31999-.03762-.038031-.062919-.111426-.032387-.163038.066013-.073043.139195-.11389.134784-.17984-.017806-.091605-.209685-.774948-.466316-.959115-.359027-.141961.08214-.299566-.001817-.313149-.167454Z"/>
    <path class="cls-1" d="m112.553516,73.150408c-.055688-.043565-.385236.039569-.729825.184027-.344539.144581-.644482.216554-.665133.160273-.02065-.056259-.125762-.033186-.23422.050737-.109011.084243-.250116.11154-.315815.060778-.169327-.132878-.377262-.030812-.214199.105611.080916.067101.080136.091316-.003446.057887-.076212-.030931-.158083-.105149-.179287-.162969-.049098-.133895-.114444-.119364-.335585.075333-.094573.084154-.279117.146157-.408426.138587-.130667-.007154-.395121.032987-.59209.090477-.197774.058248-.465321.100085-.599485.095098-.133182-.006444-.348211.093923-.477721.222813-.171867.169849-.248104.198682-.282412.105102-.032598-.088818-.080991-.067636-.16007.068928-.077118.133215-.152173.166444-.233189.103493-.173175-.136124-1.361354.326181-1.368019.532996-.003069.099664-.037855.086747-.087531-.032804-.066277-.154329-.162485-.158172-.444998-.013755-.196818.100292-.445753.153467-.5485.117474-.130818-.045506-.223254-.005544-.302081.131672-.082173.142771-.14923.170271-.240911.097127-.076765-.060274-.253537-.01925-.441074.10189-.187512.121251-.402037.170323-.534164.122743-.121487-.043407-.207055-.04002-.189574.007664.017506.047676-.068842.050406-.194378.00618-.181802-.064528-.225014-.037876-.227228.138604-.002716.163675-.053675.201546-.199535.148548-.106294-.039938-.445451.003877-.748614.096133-.303415.091833-.608389.125023-.677256.073087-.067107-.051332-.268704-.088149-.444495-.079419-.301025.014894-.304597.025485-.071609.164045.234924.139313.230799.145739-.066352.10395-.17491-.025422-.30344-.114355-.286235-.199103.019946-.098796-.044243-.094282-.182481.015341-.142237.11178-.374697.123713-.694033.036003-.772634-.21293-.895831-.347367-1.3443-1.463408-.135371-.337125-.282764-.600157-.325876-.584583-.043212.015356-.118468-.122752-.163491-.309227-.045325-.186352-.175464-.472249-.288097-.631681-.125008-.178022-.218902-.523868-.238068-.8834-.029076-.52315-.056493-.591547-.24501-.597905-.153833-.004761-.190354-.055017-.132025-.182459.04535-.09659.026687-.239545-.038835-.318913-.066201-.078569-.067057-.162075-.000101-.185599.0659-.023169.037603-.226668-.062781-.45253-.099805-.226089-.146815-.456513-.102572-.512344.071056-.090242-.388178-1.213787-.565705-1.36424-.045098-.037334-.05023-.108893-.010363-.157137.037804-.048252-.073395-.501046-.248205-1.00648-.17491-.506032-.279469-.931648-.231177-.94773.092762-.033495-.034006-.28303-.513237-1.15169-.158385-.28519-.238244-.535332-.189574-.594267.044545-.055357.038156-.141219-.015142-.186885-.05277-.045965-.058907-.132409-.014186-.187238.045551-.055593-.019971-.374573-.144853-.709192-.125285-.334112-.181349-.622334-.123876-.64046.135723-.042978-.052191-.62362-.217519-.66953-.072515-.0203-.135748.041247-.141231.137744-.007822.138513-.023291.142838-.069924.01916-.033931-.085888.00488-.2087.086801-.276036.112733-.092597.098774-.186767-.058354-.397771-.111576-.151097-.190354-.338155-.172244-.412504.045979-.19089.028322-.451512-.161328-1.279746-.13698-.571469-.368962-1.539408-.729548-3.043964-.306559-1.253387-.573427-2.457613-.78755-3.537261-.228863-1.070864-.408577-2.011388-.528429-2.746417-.259549-1.530614-.716544-3.808138-1.259159-7.889712-.199183-1.6287-.417858-3.493921-.459964-4.134136-.052996-.645231-.131472-1.204025-.173401-1.241499-.040571-.033852-.11301-.419625-.156096-.814913l-.338427-3.928219c-.062328-.88423-.130617-1.6947-.190455-2.288072-.060819-.594146-.110319-.96883-.137458-.98306-.056845-.030497-.067887-.183318-.023291-.341326.044067-.158065.049777-.356291.012023-.44303-.037251-.085726-.00825-.24203.063661-.346381.084563-.122417.084839-.259775.001559-.38738-.112457-.173181-.107577-.756398.015745-1.650871.018462-.1464-.015846-.453311-.078224-.681595-.086223-.318016-.064139-.474206.091027-.655417.112985-.131378.192542-.406666.178256-.61623-.038986-.57237,1.112696-1.823065,1.550576-1.686079.100459.031466.316318-.064755.479633-.212834.163466-.146953.356989-.237886.428095-.20044.071156.037968.125762.010545.120883-.061309-.005659-.08284.182758-.113991.522116-.084512.785211.068163,1.979476-.008615,2.225518-.142583.126894-.068509.282538-.071131.374169-.005313.085996.061554.627379.067384,1.200981.012457.574558-.054549,1.160083-.067773,1.298799-.029592.138314.038634.360511.02148.49309-.037546.132579-.059542.363806-.069798.518267-.023134.152877.046274.963366.06407,1.799762.039313.835792-.024662,1.621581-.013192,1.743848.026203.121612.038942.295139.003433.381412-.077834.176218-.165724,1.197108-.286826,1.674075-.198686.171515.031548.4659.075313.650947.096384,1.133095.128605,1.476602.611048,1.659813,2.330555.035893.334478.116028.63798.180243.677174.065698.042571.076941.29485.024775.60354-.054329.321719-.032749.768151.053851,1.127253.079105.327108.114997.649607.078929.719343-.095102.178237.155442,3.357016.357367,4.497719.091002.498478.121235.938326.068113.977237-.053223.038958-.040319.126627.02885.195441.12951.1273.138791.247384.104156,1.365391-.005207.132396-.002012.288854.009608.526961.029051.893049.121512,2.363193.223304,2.859955.120128.644907.126995.720254.177124,1.822937.017934.561482.080236,1.089631.101012,1.192162.092737.37719.240885,1.279536.40415,2.193879.17325.911218.33483,1.843077.392505,2.298797.163743,1.032318.435666,2.751567.789738,4.351419.31257,1.59746.719361,3.084592.859335,3.624531.07254.287396.399723,1.333702.663498,2.182309.257612.829683.508634,1.547661.570182,1.596529.05526.048296.149657.186037.208414.306084.195385.397237.290285.531589.519877.73957.194982.175646.199032.214556.031768.268226-.15089.048354-.153682.087155-.013255.172265.247551.150641.509766.91604.437905,1.278118-.034409.164945-.000553.347133.077268.408478.214702.170757.301453.394776.253613.657579-.034308.18502-.00503.230551.123197.187523.17408-.058368.242369.637176.085544.858835-.036169.050176-.008149.192019.061473.312537.069848.12149.146186.410556.169427.645125.024247.246535.11789.491475.223983.583219.124429.108668.147897.198063.072842.286933-.060014.070979-.075256.227545-.034736.346328.092159.271759.566459,1.279718.666717,1.416321.135899.186243.260253,1.175233.162158,1.296048-.066755.081169-.022763.1843.138565.329221.193473.170818.213394.242186.114016.391084-.120179.175624.068364.748692.536704,1.650482.110696.21259.127926.356213.045928.369283-.073747.012289-.092687.151767-.042533.311815.262743.834772-.006037,2.056627-.451336,2.053606-.107426-.000894-.241665.10377-.304043.235849-.062982.132286-.169402.226297-.242445.212643-.072339-.014456-.098799.060927-.060165.166275.054656.149036.023995.176404-.133811.121688-.217468-.074439-.866503.259564-.910219.469175-.034132.161272-.202276.221292-.334604.119049Z"/>
    <path class="cls-1" d="m53.711893,96.331873c-.06683-.017259-.336867.188629-.597925.456034-.260907.267559-.508181.451498-.548148.408392-.039892-.043045-.127448.019347-.195259.138507-.068163.119682-.186984.20016-.266239.179684-.205043-.05463-.357266.120012-.156398.180574.099378.029457.107804.051866.018663.054216-.081444.001718-.184468-.033942-.225744-.078435-.095479-.102985-.150035-.064243-.279268.20034-.054883.11398-.200641.243014-.322229.286606-.122669.044536-.350299.184501-.509413.313991-.159517.130538-.389562.273063-.514997.320534-.125058.045763-.28455.221504-.354047.390617-.092712.223346-.15167.279611-.219556.206427-.06439-.069418-.100862-.031177-.120782.125646-.019418.152996-.075583.212858-.174785.185921-.212438-.058899-1.129397.826964-1.053839,1.02232.036471.093984-.000755.095366-.093794.003102-.122065-.118243-.212614-.084975-.416903.157901-.142439.168959-.351707.313908-.461221.319485-.139244.007429-.209118.079972-.227454.238487-.019217.165-.070301.216437-.184519.182841-.095227-.027199-.242822.078481-.368258.263512-.12531.185146-.304597.312889-.446482.318231-.13034.005244-.208514.040797-.172999.079065.035465.038244-.043614.073573-.17818.079406-.195083.007978-.224612.049316-.155166.216579.063736.155373.031818.210481-.12531.21561-.115022.002517-.412803.17187-.657537.373274-.245061.201171-.515777.347156-.601371.323656-.083657-.023535-.286915.016967-.447538.090873-.275143.126471-.274112.137916.000654.182673.276677.044561.275495.05221-.019091.123653-.173804.04123-.330705.00445-.34962-.082613-.022109-.101429-.080312-.073268-.164296.082528-.086877.159354-.299164.257387-.634774.291937-.81142.081617-.991914.002798-1.854091-.917431-.26136-.277388-.504509-.479102-.538867-.448736-.03461.030683-.15997-.077833-.277281-.238765-.117362-.161592-.354424-.387787-.52448-.499774-.190253-.124623-.407797-.427072-.564372-.765925-.227353-.493486-.279017-.549529-.459033-.490043-.146715.048991-.200365.013249-.194052-.129689.005861-.108725-.066227-.239757-.15826-.293399-.09241-.052636-.125033-.132689-.070804-.178488.053323-.045113-.050808-.230934-.231453-.413366-.181702-.182065-.309225-.389735-.287619-.45905.035641-.117335-.810489-1.028544-1.033114-1.112121-.056266-.02019-.08738-.086716-.067409-.146375.018059-.059019-.253135-.452739-.602956-.875316-.341898-.42714-.589323-.800748-.549456-.832386.0742-.059366-.127699-.269072-.889543-.924728-.250997-.215234-.415343-.424113-.390216-.496184.021958-.067094-.012501-.146763-.078451-.172054-.065271-.025861-.100484-.105847-.077067-.172937.02392-.068101-.146262-.348768-.37769-.624307-.231579-.274936-.382393-.529599-.334428-.566095.113161-.086372-.261133-.57411-.432472-.562222-.075181.005063-.11384.084662-.086198.178064.039741.134046.026611.14335-.059335.041631-.061196-.070112-.066377-.199659-.012073-.291014.075181-.126409.02885-.209429-.192341-.352092-.155417-.103452-.29202-.251643-.299843-.327342-.01811-.170732-.100459-.375159-.403698-.869847-.215406-.344785-.565906-.905728-1.163479-1.862175-.820801-1.298254-1.538226-2.473474-1.969969-3.222592-.462756-.783482-1.165189-1.925575-2.422613-3.959986l-1.251739-2.080575c-.192593-.329593-.380834-.599916-.426184-.599929-.051588-.012528-.170081-.14542-.334805-.403791-.194882-.309547-1.119688-1.778527-2.053475-3.261734-.92946-1.48424-1.719047-2.699404-1.78711-2.699639-.064516-.000006-.14591-.12851-.180595-.287666-.035188-.158966-.123096-.335078-.19712-.393234-.073169-.057512-.120807-.207876-.105439-.332844.017909-.14677-.045526-.267013-.178155-.339379-.179513-.098526-.445375-.610452-.751481-1.45086-.050506-.1364-.226624-.389661-.389964-.560563-.227228-.238504-.279872-.385415-.228686-.617693.037855-.168563-.021455-.447493-.132528-.624442-.303138-.482947.122769-2.125538.572597-2.213156.103226-.020001.248004-.206761.322053-.414181.074728-.206516.202226-.378146.282488-.378982.080513-.000398.115676-.050374.07752-.11116-.043992-.070078.107175-.1868.419795-.321836.723335-.312473,1.738591-.946091,1.89192-1.180649.079356-.120444.215129-.196564.326882-.182077.10476.013409.584167-.238086,1.063221-.558349.480061-.320392.989348-.609583,1.129523-.641645.140074-.031489.327611-.151897.4164-.266796.088537-.115335.287267-.23397.445375-.265995.156524-.031629.878627-.399933,1.603446-.817989.724291-.417704,1.42177-.77971,1.548161-.802756.125586-.023145.261586-.13672.298937-.249467.076514-.230038.917915-.82083,1.379941-.968645.166032-.053273.446155-.153886.619154-.222813,1.059197-.422513,1.591725-.157073,2.572673,1.281631.191084.278828.40654.508005.481872.512446.078275.005288.208313.227053.309325.527305.105288.313345.336893.702399.584368.982933.225668.255224.410816.527578.4124.605671.002918.189438,1.734919,2.942471,2.458405,3.8786.316368.415507.551242.805111.522342.864983-.028951.05994.023819.134703.118292.165356.175917.056452.241489.161778.742778,1.192712.058932.120958.134314.267053.256203.482989.23837.518182.690386,1.316884.889317,1.572377.254116.329659.277608.372033.577275,1.008988.150789.322757.308319.629697.351909.678843.32087.377315,1.337735,1.899449,1.621405,2.410665.63827,1.170294,2.270616,3.791974,2.688802,4.347313.126769.167072.542237.714611.922417,1.215663.524505.701481,1.014702,1.291222,1.084701,1.314174.067861.026514.202025.123532.296875.216071.314733.305858.448217.399512.732416.51632.240961.098273.257612.13333.118468.240529-.125561.096643-.115349.133964.04452.165944.279495.060299.78423.68037.841929,1.03751.024096.164287.118418.320927.209596.351027.255575.083994.408678.261375.448922.521631.027743.183466.069748.215552.175414.131073.143621-.114837.430284.507819.360561.762758-.017003.058661.056694.178445.162108.263977.105917.086337.274011.323593.374345.530015.105288.21701.274816.407955.404402.45405.152374.055034.204188.128463.164145.236756-.032422.086553.003421.235913.079155.330585.171339.2185.950815.953438,1.08782,1.041581.187713.118508.632937.969603.583286,1.116179-.034887.099269.042105.174662.241841.243203.238395.07951.281557.135616.24169.306588-.047136.202053.318883.646018,1.052456,1.277568.172772.149079.237741.271043.167767.314105-.063284.039783-.031415.170804.071106.293033.534641.635566.725524,1.831748.319889,2.007617-.09817.041991-.182833.189045-.191939.332267-.009608.143622-.072439.270429-.143923.287265-.071156.015831-.067912.094035.005508.173268.10383.112061.085921.148956-.077621.162689-.225115.019749-.695039.578305-.657662.785191.028171.159228-.102798.280532-.261209.240568Z"/>
  </g>
</svg>