<?xml version="1.0" encoding="UTF-8"?>
<svg id="Layer_1" data-name="Layer 1" xmlns="http://www.w3.org/2000/svg" viewBox="0 0 545.592773 545.605957">
  <defs>
    <style>
      .cls-1 {
        stroke-width: 0px;
        fill: currentColor;
      }
    </style>
  </defs>
  <path class="cls-1" d="m212.339844,64.612305l-12.040527-45.744141,10.237305-2.694336,12.040527,45.743652-10.237305,2.694824Z"/>
  <path class="cls-1" d="m230.256836,59.34668l-4.834961-47.054199,7.397949-.760254,4.098145,9.075684,3.869629,37.656738-10.530762,1.082031Zm32.458496-3.334961l-31.30957-32.682129,1.414062-11.797363,31.376465,32.675293-1.480957,11.804199Zm0,0l-3.765137-9.109863-3.869141-37.656738,10.597168-1.088867,4.834961,47.054199-7.797852.80127Z"/>
  <path class="cls-1" d="m300.189453,58.558105c-3.508789-.380859-6.694336-1.344727-9.55957-2.890625-2.865234-1.546387-5.298828-3.550781-7.299805-6.015137-2.001953-2.463379-3.463867-5.23877-4.386719-8.327637-.922852-3.087402-1.198242-6.34082-.827148-9.760742.371094-3.418945,1.337891-6.537109,2.902344-9.355957,1.563477-2.817871,3.584961-5.192871,6.063477-7.125977,2.478516-1.931641,5.271484-3.347168,8.379883-4.246094,3.107422-.897949,6.4375-1.154785,9.990234-.769043,3.730469.404785,6.984375,1.364746,9.762695,2.879395s5.142578,3.433594,7.091797,5.756836l-7.833984,6.36084c-1.054688-1.462402-2.417969-2.665527-4.089844-3.611328-1.672852-.945312-3.663086-1.543457-5.97168-1.793945-2.042969-.22168-3.945312-.07959-5.707031.425293-1.762695.505859-3.335938,1.334473-4.717773,2.486816-1.383789,1.15332-2.506836,2.604004-3.370117,4.351562-.864258,1.749023-1.411133,3.688477-1.642578,5.819824-.241211,2.221191-.125977,4.266113.344727,6.136719s1.256836,3.529297,2.358398,4.973633c1.100586,1.444824,2.457031,2.603027,4.070312,3.474121,1.612305.87207,3.44043,1.417969,5.483398,1.639648,2.397461.260254,4.524414.120605,6.380859-.419434,1.854492-.540039,3.479492-1.430176,4.87207-2.672363l6.353516,7.900879c-2.452148,1.890625-5.206055,3.265625-8.264648,4.123535-3.058594.858398-6.519531,1.078613-10.382812.65918Z"/>
  <path class="cls-1" d="m322.304688,61.329102l13.777344-45.251465,10.126953,3.083496-13.776367,45.250977-10.12793-3.083008Zm7.820312,2.380371l2.692383-8.844727,22.369141,6.810059-2.692383,8.845215-22.369141-6.810547Z"/>
  <path class="cls-1" d="m372.140625,81.031738c-3.490234-1.809082-6.168945-4.140137-8.03418-6.994141-1.867188-2.854492-2.870117-5.964844-3.010742-9.333496-.141602-3.367676.641602-6.697754,2.347656-9.989746l13.196289-25.458984,9.398438,4.871582-13.442383,25.935059c-.884766,1.705566-1.279297,3.362793-1.181641,4.972168.095703,1.609863.594727,3.050781,1.495117,4.321777.900391,1.271973,2.124023,2.308594,3.670898,3.109863,1.506836.78125,3.02832,1.167969,4.568359,1.160645,1.537109-.007324,2.961914-.45166,4.274414-1.331543,1.310547-.879395,2.398438-2.152344,3.261719-3.817871l13.473633-25.994629,9.458008,4.902344-13.226562,25.518555c-1.707031,3.291992-3.961914,5.845703-6.764648,7.663086-2.803711,1.817383-5.898438,2.790527-9.287109,2.921387-3.387695.130371-6.787109-.688477-10.197266-2.456055Z"/>
  <path class="cls-1" d="m405.754883,102.648926c-3.086914-2.433594-5.338867-5.005859-6.756836-7.715332-1.418945-2.710449-2.220703-5.788086-2.405273-9.23291l9.597656-1.13623c.113281,2.307617.601562,4.413086,1.462891,6.314941.860352,1.901855,2.256836,3.612793,4.186523,5.133789,1.717773,1.354492,3.314453,2.087891,4.791992,2.199707,1.475586.111328,2.65625-.393555,3.541992-1.516602.773438-.981934,1.102539-2.031738.987305-3.146484-.117188-1.115723-.521484-2.31543-1.213867-3.601074-.693359-1.285156-1.495117-2.614258-2.404297-3.985352-.910156-1.371094-1.766602-2.828613-2.568359-4.371094-.803711-1.54248-1.405273-3.125488-1.802734-4.748047-.399414-1.622559-.416016-3.314453-.052734-5.074707.364258-1.760742,1.279297-3.569824,2.745117-5.429688,1.825195-2.314941,3.939453-3.86084,6.34375-4.63916,2.405273-.777344,4.945312-.807617,7.623047-.091309,2.676758.716797,5.27832,2.070312,7.803711,4.061523,2.630859,2.07373,4.65625,4.410156,6.077148,7.008789,1.419922,2.599121,2.224609,5.223145,2.411133,7.872559l-9.691406,1.147461c-.210938-2.042969-.665039-3.793945-1.361328-5.253906-.699219-1.459473-1.749023-2.743164-3.151367-3.848633-1.438477-1.134277-2.792969-1.760254-4.063477-1.880859-1.270508-.119141-2.306641.329102-3.108398,1.346191-.719727.912598-.991211,1.90625-.81543,2.98291.174805,1.07666.614258,2.23291,1.317383,3.469727.702148,1.236328,1.510742,2.556152,2.424805,3.958984.912109,1.401855,1.777344,2.866699,2.594727,4.391602.81543,1.525879,1.386719,3.12793,1.713867,4.806641.325195,1.678711.300781,3.422852-.072266,5.232422-.374023,1.80957-1.335938,3.696777-2.883789,5.660645-2.792969,3.543457-6.24707,5.327637-10.362305,5.353516-4.116211.026855-8.418945-1.730469-12.90918-5.27002Z"/>
  <path class="cls-1" d="m424.292969,117.816895l33.884766-33.005859,7.385742,7.583496-33.883789,33.005371-7.386719-7.583008Z"/>
  <path class="cls-1" d="m446.275391,142.895508l27.821289-42.374512,6.597656,9.202148-23.007812,33.564453-2.693359-3.756836,39.25-10.914062,6.519531,9.092773-49.176758,12.591309-5.310547-7.405273Z"/>
  <path class="cls-1" d="m463.770508,169.114746l43.118164-19.449707,4.352539,9.649414-43.118164,19.450195-4.352539-9.649902Zm3.333984,7.390137l8.305664-3.746582,10.689453,23.696289-8.306641,3.74707-10.688477-23.696777Zm17.955078-8.099609l8.123047-3.664062,9.697266,21.498047-8.123047,3.664062-9.697266-21.498047Zm16.856445-7.603516l8.306641-3.74707,10.523438,23.330566-8.305664,3.746582-10.524414-23.330078Z"/>
  <path class="cls-1" d="m504.817383,249.101562c-.157227-1.555664.055664-3.001953.638672-4.34082.582031-1.338379,1.472656-2.416504,2.669922-3.23291,1.196289-.817383,2.549805-1.301758,4.061523-1.45459,1.466797-.148438,2.856445.058105,4.170898.62207,1.313477.5625,2.401367,1.44043,3.262695,2.632812s1.371094,2.56543,1.52832,4.121582c.157227,1.555176-.069336,2.980469-.678711,4.277344-.609375,1.295898-1.501953,2.351074-2.675781,3.166504-1.175781.814453-2.495117,1.296387-3.961914,1.444824-1.511719.152832-2.93457-.051758-4.270508-.611816-1.336914-.561523-2.422852-1.416504-3.256836-2.566406-.834961-1.150879-1.331055-2.503418-1.488281-4.058594Z"/>
  <path class="cls-1" d="m482.193359,325.848145c.802734-3.436523,2.145508-6.482422,4.026367-9.138672,1.881836-2.657227,4.166016-4.831055,6.854492-6.518555,2.6875-1.689453,5.619141-2.804688,8.796875-3.34668,3.176758-.542969,6.439453-.422852,9.789062.359375s6.327148,2.119141,8.936523,4.013672c2.607422,1.892578,4.720703,4.186523,6.339844,6.880859,1.617188,2.693359,2.68457,5.637695,3.201172,8.832031.514648,3.192383.367188,6.529297-.446289,10.009766-.852539,3.65332-2.199219,6.767578-4.039062,9.342773-1.839844,2.574219-4.030273,4.688477-6.572266,6.342773l-5.366211-8.545898c1.579102-.870117,2.938477-2.078125,4.079102-3.623047,1.140625-1.545898,1.975586-3.449219,2.503906-5.710938.466797-2.000977.556641-3.90625.268555-5.71582-.289062-1.811523-.920898-3.472656-1.898438-4.984375-.977539-1.512695-2.28125-2.803711-3.912109-3.87207-1.630859-1.069336-3.490234-1.847656-5.578125-2.334961-2.174805-.507812-4.21875-.640625-6.132812-.400391-1.914062.241211-3.655273.820312-5.222656,1.739258-1.567383.917969-2.880859,2.124023-3.941406,3.621094-1.060547,1.494141-1.823242,3.243164-2.291016,5.244141-.548828,2.348633-.666992,4.476562-.355469,6.383789s.999023,3.62793,2.0625,5.161133l-8.611328,5.350586c-1.579102-2.663086-2.611328-5.563477-3.092773-8.703125s-.282227-6.602539.601562-10.386719Z"/>
  <path class="cls-1" d="m466.878906,367.396973c1.567383-3.211914,3.579102-5.908203,6.033203-8.089844,2.455078-2.182617,5.185547-3.806641,8.192383-4.875,3.005859-1.068359,6.117188-1.514648,9.335938-1.335938,3.217773.177734,6.37207,1.020508,9.463867,2.52832,3.130859,1.527344,5.748047,3.499023,7.849609,5.916016,2.101562,2.416016,3.65625,5.112305,4.664062,8.088867s1.398438,6.098633,1.170898,9.368164c-.227539,3.267578-1.124023,6.507812-2.69043,9.719727-1.546875,3.170898-3.533203,5.842773-5.958984,8.014648-2.426758,2.170898-5.131836,3.795898-8.117188,4.874023-2.986328,1.078125-6.083008,1.517578-9.291016,1.320312-3.208984-.198242-6.37793-1.060547-9.509766-2.587891-3.091797-1.507812-5.697266-3.475586-7.819336-5.900391-2.121094-2.426758-3.685547-5.12793-4.694336-8.104492-1.007812-2.977539-1.418945-6.084961-1.230469-9.322266s1.055664-6.443359,2.601562-9.614258Zm8.730469,4.109375c-1.233398,2.529297-1.748047,5.010742-1.543945,7.446289.203125,2.43457,1.048828,4.673828,2.538086,6.716797,1.488281,2.041992,3.557617,3.710938,6.207031,5.00293,1.966797.958984,3.910156,1.535156,5.830078,1.725586s3.746094.011719,5.478516-.533203c1.732422-.547852,3.291016-1.451172,4.677734-2.713867,1.385742-1.261719,2.529297-2.816406,3.429688-4.663086,1.233398-2.529297,1.763672-5.017578,1.589844-7.461914-.174805-2.446289-1-4.674805-2.478516-6.6875-1.477539-2.013672-3.541992-3.666016-6.191406-4.958008-2.007812-.979492-3.981445-1.569336-5.920898-1.769531-1.94043-.201172-3.776367-.02832-5.508789.518555-1.732422.545898-3.286133,1.44043-4.662109,2.683594-1.376953,1.241211-2.524414,2.805664-3.445312,4.693359Z"/>
  <path class="cls-1" d="m448.095703,400.305176l7.316406,5.65332-14.295898,18.50293-7.317383-5.65332,14.296875-18.50293Zm4.998047-6.46875l37.430664,28.920898-6.472656,8.376953-37.430664-28.920898,6.472656-8.376953Z"/>
  <path class="cls-1" d="m424.30957,427.800293l6.275391,6.790039-17.172852,15.870117-6.275391-6.790039,17.172852-15.870117Zm6.00293-5.547852l32.103516,34.739258-7.774414,7.18457-32.103516-34.739258,7.774414-7.18457Z"/>
  <path class="cls-1" d="m407.505859,444.11377l9.271484,50.009766-8.120117,5.086914-40.839844-30.233398,9.482422-5.939453,32.788086,25.709961-3.292969,2.0625-8.543945-40.898438,9.254883-5.797852Zm-4.567383,12.902344l4.552734,7.267578-21.802734,13.65918-4.552734-7.267578,21.802734-13.65918Z"/>
  <path class="cls-1" d="m356.341797,472.969238l2.862305,7.728516-10.429688,3.863281c-1.884766.698242-3.165039,1.802734-3.84375,3.317383-.677734,1.511719-.707031,3.107422-.085938,4.783203.40332,1.087891,1.019531,1.979492,1.847656,2.672852s1.786133,1.125,2.873047,1.293945,2.257812.020508,3.514648-.444336l10.429688-3.863281,2.792969,7.539062-9.613281,3.560547c-1.59082.589844-2.742188,1.46875-3.453125,2.636719s-.754883,2.589844-.134766,4.265625c.589844,1.591797,1.538086,2.609375,2.84668,3.053711,1.307617.444336,2.757812.37207,4.348633-.217773l9.612305-3.560547,2.863281,7.728516-11.498047,4.258789c-2.847656,1.054688-5.47168,1.430664-7.870117,1.128906-2.398438-.302734-4.435547-1.143555-6.114258-2.522461-1.676758-1.378906-2.904297-3.116211-3.679688-5.209961-1.040039-2.806641-1.025391-5.467773.043945-7.982422,1.068359-2.516602,3.188477-4.766602,6.359375-6.75l.981445,3.422852c-4.033203.683594-7.458984.308594-10.275391-1.124023-2.817383-1.433594-4.816406-3.742188-5.995117-6.924805-.899414-2.429688-1.110352-4.829102-.629883-7.197266.480469-2.369141,1.62793-4.544922,3.441406-6.526367,1.814453-1.982422,4.291992-3.554688,7.433594-4.717773l11.37207-4.212891Zm7.601562-2.81543l16.430664,44.356445-9.800781,3.630859-16.430664-44.357422,9.800781-3.629883Z"/>
  <path class="cls-1" d="m302.611328,486.620605c3.540039-.490234,6.899414-.324219,10.080078.49707,3.180664.820312,6.051758,2.181641,8.614258,4.081055,2.563477,1.899414,4.668945,4.233398,6.31543,7.004883,1.646484,2.770508,2.706055,5.858398,3.178711,9.265625.478516,3.451172.300781,6.722656-.533203,9.814453s-2.205078,5.885742-4.114258,8.382812c-1.908203,2.49707-4.282227,4.561523-7.12207,6.196289-2.839844,1.632812-6.029297,2.695312-9.569336,3.186523-3.495117.484375-6.820312.325195-9.975586-.477539s-6.012695-2.142578-8.573242-4.019531c-2.55957-1.876953-4.651367-4.203125-6.276367-6.975586-1.625-2.774414-2.676758-5.885742-3.155273-9.336914-.47168-3.408203-.291992-6.667969.538086-9.78125.831055-3.115234,2.201172-5.918945,4.109375-8.416016,1.90918-2.49707,4.259766-4.571289,7.051758-6.219727,2.792969-1.649414,5.9375-2.717773,9.431641-3.202148Zm1.458008,9.538086c-2.788086.386719-5.134766,1.342773-7.042969,2.871094-1.907227,1.526367-3.293945,3.476562-4.160156,5.852539-.865234,2.374023-1.095703,5.022461-.691406,7.942383.300781,2.166992.907227,4.101562,1.819336,5.801758.912109,1.699219,2.078125,3.115234,3.49707,4.25,1.420898,1.131836,3.040039,1.921875,4.861328,2.369141,1.820312.446289,3.749023.529297,5.783203.24707,2.787109-.386719,5.148438-1.333984,7.080078-2.841797,1.933594-1.508789,3.323242-3.436523,4.169922-5.786133.847656-2.349609,1.067383-4.984375.662109-7.904297-.306641-2.212891-.916992-4.179688-1.832031-5.901367-.916016-1.722656-2.083008-3.150391-3.50293-4.283203-1.418945-1.133789-3.02832-1.925781-4.827148-2.375-1.797852-.450195-3.736328-.530273-5.816406-.242188Z"/>
  <path class="cls-1" d="m247.438477,488.163574l13.122559,21.445312-9.892578,1.921875-15.721191-24.334961,12.491211.967773Zm16.067871,20.732422l-.61084,7.882812-9.953125-.771484c-2.047852-.158203-3.691895.240234-4.931152,1.197266-1.23877.956055-1.927734,2.326172-2.06543,4.107422-.131348,1.692383.327637,3.138672,1.376953,4.34082,1.049316,1.200195,2.599121,1.880859,4.646973,2.040039l10.02002.776367-.636719,8.21582-11.222168-.869141c-3.161621-.245117-5.876465-1.049805-8.145996-2.412109-2.268555-1.363281-3.979004-3.142578-5.130859-5.336914-1.150879-2.195312-1.623535-4.62793-1.416504-7.299805.220703-2.850586,1.079102-5.258789,2.575684-7.226562,1.496582-1.966797,3.492188-3.4375,5.986328-4.408203,2.494629-.972656,5.368164-1.331055,8.618164-1.079102l10.888672.842773Zm9.583496-18.745117l-3.653809,47.160156-10.554688-.817383,3.654297-47.160156,10.554199.817383Z"/>
  <path class="cls-1" d="m236.791016,487.776855l-30.755371,40.509766-9.226074-2.583008-5.116699-50.554688,10.774414,3.016602,3.044434,41.555664-3.742188-1.047852,24.504883-33.84082,10.516602,2.944336Zm-12.617188,5.303711l-2.3125,8.257812-24.775391-6.9375,2.3125-8.257812,24.775391,6.9375Z"/>
  <path class="cls-1" d="m173.566895,508.327637l-4.255371,8.208984-35.688965-18.50293,4.255371-8.208008,35.688965,18.501953Zm4.370605-40.600586l-21.494141,41.458984-9.45752-4.90332,21.494141-41.458008,9.45752,4.902344Z"/>
  <path class="cls-1" d="m151.691406,452.569824l-27.416504,38.545898-8.626465-6.135742,27.416504-38.545898,8.626465,6.135742Z"/>
  <path class="cls-1" d="m125.570312,431.835449l-19.772461,46.675781-8.141113-7.870117,16.617188-37.145508,3.324219,3.212891-36.657715,17.774414-8.044434-7.776367,46.123047-21.204102,6.55127,6.333008Z"/>
  <path class="cls-1" d="m67.63623,424.236816l-7.493652,5.18457-14.561523-21.047852,7.493164-5.18457,14.562012,21.047852Zm36.018555-15.060547l-38.899902,26.912109-6.022949-8.706055,38.900391-26.912109,6.022461,8.706055Zm-20.811523,4.540039l-7.328125,5.069336-13.417969-19.394531,7.328125-5.070312,13.417969,19.395508Zm16.199219-11.207031l-7.493652,5.183594-14.790039-21.37793,7.493652-5.18457,14.790039,21.378906Z"/>
  <path class="cls-1" d="m48.789551,337.900879c.436035,1.501953.488281,2.962891.15625,4.384766-.330566,1.421875-1.011719,2.643555-2.041016,3.662109-1.029297,1.020508-2.273438,1.742188-3.731934,2.165039-1.415527.411133-2.819824.458984-4.214844.142578-1.393066-.316406-2.622559-.983398-3.685059-2-1.0625-1.017578-1.811523-2.275391-2.247559-3.777344-.436035-1.500977-.471191-2.944336-.105957-4.330078.365234-1.384766,1.052734-2.583984,2.060059-3.597656,1.008301-1.013672,2.219727-1.726562,3.635254-2.136719,1.458984-.423828,2.895508-.480469,4.311035-.170898,1.416016.310547,2.638672.956055,3.666504,1.935547,1.029297.981445,1.76123,2.22168,2.197266,3.722656Z"/>
  <path class="cls-1" d="m57.407227,258.342773c-.233887,3.566406-1.075195,6.823242-2.521484,9.771484-1.446289,2.949707-3.358887,5.486816-5.737305,7.61377-2.377441,2.125977-5.088867,3.717773-8.135254,4.770508-3.045898,1.053711-6.28418,1.466797-9.716797,1.241211-3.476562-.227539-6.64502-1.0625-9.504395-2.503906-2.859863-1.44043-5.319824-3.347656-7.379395-5.72168-2.060059-2.373047-3.602539-5.115234-4.629883-8.227051-1.026367-3.11084-1.42334-6.449219-1.188965-10.015625.230957-3.52002,1.058594-6.745605,2.481445-9.67334,1.424316-2.928223,3.312988-5.456055,5.668457-7.584473s5.055664-3.707031,8.099609-4.739258c3.04541-1.030273,6.305176-1.432129,9.781738-1.204102,3.432617.225586,6.588867,1.060059,9.470703,2.501953,2.882812,1.443359,5.353027,3.351074,7.413086,5.724121,2.05957,2.374023,3.616211,5.094727,4.66748,8.162598,1.05127,3.068359,1.462402,6.363281,1.230957,9.883789Zm-9.635742-.498535c.184082-2.808105-.27832-5.299805-1.38916-7.477051-1.109863-2.17627-2.740723-3.928711-4.89209-5.256348-2.150879-1.32666-4.697266-2.087891-7.63916-2.280762-2.183105-.143555-4.200195.05957-6.049316.609863-1.849121.549805-3.47168,1.40625-4.868652,2.567383-1.395996,1.162109-2.49707,2.588867-3.302734,4.281738-.804688,1.692871-1.274902,3.56543-1.40918,5.614746-.18457,2.808105.266602,5.311523,1.353027,7.508301,1.087402,2.198242,2.695312,3.94873,4.825195,5.251953,2.130371,1.304688,4.666504,2.052246,7.60791,2.245605,2.229492.145996,4.278809-.055176,6.149902-.603516,1.87207-.548828,3.505859-1.40332,4.901855-2.56543,1.397461-1.160645,2.497559-2.577148,3.300781-4.248535.804199-1.669434,1.273926-3.552246,1.411621-5.647949Z"/>
  <path class="cls-1" d="m59.963379,228.727539l-45.460938-13.068848,2.924805-10.173828,45.460938,13.068848-2.924805,10.173828Zm-14.309082-12.548828l-7.919922-2.276855,2.813477-9.787598c.35791-1.244141.435059-2.441895.231445-3.593262-.203125-1.149902-.712402-2.16748-1.527344-3.053223-.814453-.884277-1.908203-1.524414-3.282715-1.919922-1.416504-.407227-2.704102-.45166-3.864746-.134766-1.160156.317871-2.131836.909668-2.916016,1.775879-.782715.867676-1.354492,1.92334-1.711914,3.167969l-2.813965,9.787598-7.92041-2.276855,3.239746-11.269043c.82666-2.875488,2.155762-5.316406,3.987793-7.32373,1.831543-2.005859,4.026367-3.374023,6.582031-4.103027,2.557129-.729004,5.338379-.661621,8.342285.202148,2.962402.851562,5.333496,2.265137,7.111816,4.240723,1.779785,1.975586,2.912109,4.299805,3.398438,6.972168.486328,2.67334.316406,5.447754-.510254,8.323242l-3.239746,11.268555Z"/>
  <path class="cls-1" d="m71.764648,190.231934l-42.285645-21.199707,4.744629-9.463379,42.285645,21.199707-4.744629,9.463379Zm-30.506348-24.363281l-8.145996-4.083496,11.470703-22.879883,8.145508,4.083984-11.470215,22.879395Zm16.530762,8.287598l-7.96582-3.993652,10.569336-21.08252,7.966309,3.993652-10.569824,21.08252Zm17.608887,8.828125l-8.145508-4.083496,11.650391-23.239258,8.145996,4.083496-11.650879,23.239258Z"/>
  <path class="cls-1" d="m89.880859,154.874512l-37.180664-29.241699,4.597656-5.845703,9.37207,3.364746,29.755371,23.401367-6.544434,8.321289Zm20.170898-25.647461l-45.258301-.220703-7.495605-9.219238,45.299805.167969,7.454102,9.271973Zm0,0l-9.165039-3.628418-29.755371-23.401367,6.585938-8.373535,37.180664,29.241699-4.846191,6.161621Z"/>
  <path class="cls-1" d="m147.8125,75.869629c-1.319824.839355-2.70752,1.299316-4.165039,1.378906-1.45752.081055-2.820801-.230469-4.087891-.933594-1.268066-.702148-2.308594-1.693848-3.123535-2.975586-.791016-1.243652-1.230469-2.578613-1.317383-4.005859-.086914-1.42627.208496-2.792969.887207-4.098145s1.676758-2.376465,2.996582-3.216309c1.318848-.838867,2.693848-1.276855,4.126465-1.314453,1.431641-.037109,2.775391.286621,4.03125.969238,1.255371.68457,2.278809,1.647461,3.069824,2.891113.814941,1.281738,1.271973,2.645508,1.371094,4.09082.098633,1.446289-.177734,2.800293-.830566,4.062012-.65332,1.262695-1.63916,2.312988-2.958008,3.151855Z"/>
</svg>