<?xml version="1.0" encoding="UTF-8"?>
<svg id="uuid-722b7e23-16d2-4888-910c-55e2bf000944" data-name="Layer 1" xmlns="http://www.w3.org/2000/svg" viewBox="0 0 200 200">
  <defs>
    <style>
      .uuid-b18f40ba-f957-4369-8082-6b06d3914a78 {
        stroke-width: 0px;
        fill: currentColor;
      }
    </style>
  </defs>
  <path class="uuid-b18f40ba-f957-4369-8082-6b06d3914a78" d="m3.683563,98.998436c-.09787-.134735-.091858-.4095.008698-.415588.049561-.002998.088745-.029816.086914-.059059-.006653-.106239.245605-.174606.992432-.2687.205414-.026161.410736-.081367.455383-.123444.044678-.041626.130402-.070305.190796-.0644.060944.006584.143311-.012131.184113-.04245.04126-.029396.113098-.025177.161072.00959.060547.044273.097046.043762.121796-.003014.019348-.03614.069366-.047485.109436-.025215.112274.063438.364349.04377.456543-.035446.063049-.053955.072998-.052109.042084.007019-.023193.044685-.010986.075951.028564.073563.0383-.002319.079498-.057358.092377-.122955.01828-.092827.059875-.11393.192322-.095802.097107.013206.185028-.007538.207245-.048759.028137-.052544.062897-.053444.132172-.002335.055206.040886.1091.044991.131012.010147.045776-.072495.424469-.1147.428528-.047928.001678.027496.075256.020142.164703-.015625.089447-.035973.215729-.062698.282135-.059158.070251.003365.112885-.025169.101196-.068237-.0112-.042854.043274-.077957.130432-.083237.083038-.00502.152252.021141.15451.058426.00293.048264.026337.046089.08429-.008308.052399-.048904.094666-.055122.121216-.017105.022522.031898.08252.039284.132812.016151.050537-.023094.118256-.005653.149841.03817.041443.057899.056793.059875.054535.005966-.001801-.041214.04422-.078468.101837-.082451.089539-.006424.091431-.015106.011292-.059891-.074768-.041458-.065735-.053734.045807-.061684.07663-.005142.189148-.040352.251038-.07856.061432-.038231.113068-.047722.114685-.020866.001617.026802.296844.034126.654785.016815.486511-.023285.703522-.008568.85675.059196.14267.062294.293213.076424.492004.045059.157806-.024681.302185-.032219.321014-.015724.018341.01577.192169.013062.38623-.006996.2034-.020378.371185-.008789.396545.027344.023865.034271.075165.039978.112.012802.021362-.015778.143219-.035385.349579-.057617l.081299-.008461c.155609-.010475.318268-.021416.487793-.032829.66275-.03997,1.37912-.083183,2.146515-.129463,1.535065-.088425,3.274109-.188599,5.195862-.299294,7.687042-.443146,18.301727-.981476,30.479309-1.487076,5.829865-.252213,11.068115-.478828,11.675568-.505112.628418-.051628,1.252777-.069832,1.488861-.042992.223206.024872.688873.018707,1.035248-.014313.768005-.085732,10.230255-.423721,10.510956-.388069.056396.006577.782104-.010803,1.905945-.044235,1.123962-.034164,2.645996-.080429,4.295532-.130577,8.292908-.260658,19.186951-.527428,24.938293-.600098,2.644592-.03994,5.515564-.113419,6.367065-.153015.861633-.041161,1.721619-.05545,1.92804-.032059.229919-.001991,7.888794-.068428,17.069336-.148064,9.179749-.078133,19.010559-.078545,21.835815-.070122,6.884705.025223,12.091187.044296,15.615173.057205.351013-.006218.534546-.021454.549988-.045715.020264-.03183.081177-.025696.144714.014908.088074.056419.141541.045189.274353-.057655.129456-.099976.190491-.113846.282043-.063446.082581.045372.140259.044678.197693-.001976.060547-.049026.088867-.046074.111633.011726.023254.059052.043274.060928.082886.006325.05542-.076622.179932-.073586.305481.006363.043274.027924.115784.018555.164307-.020569.046997-.037895.121277-.057297.163208-.042282.04248.015274.157654-.013725.257874-.064903.2005-.102455.676392-.137154.727478-.053207.017822.029709.063782.034264.102417.010895.100342-.061127.283569-.066376.246399-.007851-.017395.027451.026184.051033.095947.051643.069702.000603.115112-.019302.100159-.044334-.014954-.025024.117615-.049225.295776-.055016.250122-.007324.336243.013428.381714.09343.055664.096939.05957.096474.062134-.001907.001587-.057587.023071-.10675.047302-.109192.439209-.040619.798584-.035034.827942.013321.02002.032875.0625.059151.096069.059441.033752.000298.044006-.026016.02356-.060143-.020752-.033386-.010437-.060143.023315-.059853.032837.00029.078491.030739.100403.067284.021912.036591.119568.055038.216064.041931.096313-.013557.189819-.001038.20697.026962.01709.027748.054871.03688.082947.02002.028076-.017105.118408-.004562.199829.026894.12207.048172.153992.038445.17865-.052895.031189-.114975.200867-.128601.273438-.021561.022217.031441.148071.067245.279846.078392.280273.023697.330322.055389.208008.130219-.077332.047684-.076904.055481.003784.05719.051575.000946.126343-.030899.167847-.071289.05957-.058334.081421-.04644.107483.056587.022583.089302.064331.118965.132568.095909.054199-.019073.078918-.012512.054382.01413-.06781.072906.07019.210571.212036.211807.09729.000847.108582.016594.052002.072502-.105957.103584-.091797.148361.060303.191437.113892.031998.121033.047707.044678.097092-.076294.050087-.069153.0653.044739.097542.161621.045868.171631.116257.027893.199257-.088318.050232-.092407.07019-.023438.116493.051147.034851.081604.163521.079712.337364-.001953.180138.02594.292732.077271.312683.058899.022964.063599.061356.017517.14521-.03418.061951-.038391.113167-.009583.113419.094849.000824.204041.315292.125854.362709-.052368.031494-.050964.078659.006042.185562.101746.192093.129761.620056.050537.764915-.047852.087189-.045105.12751.009277.154137.058594.027611.057922.042458-.003662.07077-.063599.028748-.063843.052643-.001465.131096.057617.072502.058167.085205.001953.050514-.040588-.02475-.074829-.016754-.075195.0177-.00061.055641.074463.086548.183777.075554.038635-.003563.040894.010353.073547.440605.01239.165413.040527.357315.061951.428307.028748.092506.004395.15239-.08783.216042-.075012.051346-.113892.124962-.093933.178383.020386.054131-.010254.108315-.074951.134102-.102478.041107-.102051.046211.008057.088425.15625.059715.19281.484901.041321.483582-.073242-.000641-.081177.016586-.03125.067329.049744.05098.043762.10318-.023193.2034-.056091.083519-.075806.194199-.052429.291557.024414.102264.012878.156616-.032776.156219-.044067-.000389-.035706.035339.022156.094444.051147.0522.092285.127258.091187.166054-.001282.048836-.016907.046249-.050171-.007988-.039551-.063095-.062012-.06179-.120117.007004-.057312.068352-.046631.091896.055054.119133.08728.023712.111084.058617.076111.11322-.027588.042511-.054993.099121-.059937.123528-.005615.025101-.016357.051361-.02478.059586-.008362.008476-.021851.082314-.029846.165047-.008179.08268-.034241.192558-.057739.24511-.023987.052986-.039124.12001-.034058.150101.017395.106613-.08075.321312-.132568.288406-.06366-.040108-.191467.259544-.144287.337608.018677.030914-.009583.055069-.063416.054596-.058777-.000511-.080566.027397-.054871.069878.028748.0476.010071.057686-.056641.031258-.054871-.021736-.099548-.011375-.099915.022774-.000366.033951-.031921.041977-.069946.017693-.04718-.029709-.057617-.011002-.031799.057373.031738.084984.018555.090965-.080078.036903-.064209-.035706-.118042-.042526-.118286-.016678-.001099.106445-.243103.198334-.357239.135788-.113159-.062241-.322876-.026962-.278259.046677.031799.053032-.424744.045097-.476868-.007812-.023132-.022896-.07959-.004593-.126648.041847-.046509.045502-.125427.06826-.173035.048798-.048279-.019226-.134583-.015572-.192322.00882-.157837.065781-.615662.084488-.615051.025391.00061-.064697-.231567-.04377-.389282.035652-.066345.033623-.247864.056694-.404724.051674-.15686-.004768-.284485.012421-.284729.038521-.000244.026398-.05542.017113-.123352-.020378-.089233-.04908-.144775-.049561-.204163-.00103-.049316.040375-.094727.043625-.11554.008995-.02002-.033379-.121826-.03817-.2453-.010895-.165771.03611-.222717.02536-.263733-.050652-.043396-.079231-.06897-.083153-.145996-.020073-.051331.041557-.168945.067375-.260986.056778-.092041-.010307-.194641-.002899-.227722.016563-.083984.048866-.329224-.054123-.328552-.138123.000366-.045898-.024414-.050964-.07373-.013794-.092957.069992-.600098.084366-.557434.016586.016785-.026955-.076965-.066818-.207397-.088463-.130432-.022385-.237854-.060425-.237671-.084572.000183-.024452-.081726-.050514-.181091-.058731-.099365-.007721-.224976-.058365-.277649-.11158-.078369-.079536-.105408-.082924-.146118-.018578-.038513.061417-.074524.062553-.162903.007133-.011475-.007256-.08075-.014236-.200745-.02092-.059998-.002701-.132629-.005981-.217041-.009789-.472412-.006119-1.01062-.013092-1.609619-.020859-4.576416-.015472-11.010742-.037224-18.689331-.063187-15.357361-.001831-35.691956.215477-56.085632.739433-20.394104.509537-40.844604,1.343666-56.445892,2.126534-7.800354.398857-14.389557.763794-19.15509,1.052765-1.191437.070389-2.269073.134048-3.223267.190422-.43338.028091-.838776.054367-1.215027.078758-.038635.00425-.07431.008171-.106873.011749-.130157.014961-.210541.027069-.233948.035858-.099335.037315-.312897.067375-.473785.066345-.173889-.000748-.258545.016853-.208618.043434.064545.03476.05307.064056-.05127.128082-.08905.054779-.143707.0625-.160004.022156-.014282-.035301-.120667-.041588-.258179-.014679-.151764.029976-.269806.019493-.337219-.030228-.091644-.067337-.098083-.061333-.05368.053894.040771.106377.022675.138283-.100952.177574-.181641.056976-.355713.011459-.306488-.080032.054932-.102402-.172211-.030899-.250427.078476-.05899.082367-.068542.081444-.075531-.009857-.007843-.102959-.187347-.136627-.263855-.049545-.059753.066734-.341461.099411-.306976.03521.042145-.078636-.00589-.070068-.229767.039558-.105469.052162-.337341.09726-.516968.101768-.179688.004013-.346558.037857-.371613.075539-.032257.047485-.055511.04689-.078735-.002296-.018188-.038071-.075073-.050003-.126343-.026863-.062042.028-.080505.017342-.054626-.030655.023254-.043488.001587-.07058-.054626-.067177-.0513.003105-.091614.030495-.089813.060242.001831.030441-.070862.050774-.162231.046036-.091614-.004974-.196045.019424-.233704.054466-.078339.072266-.215912.021637-.170593-.063255.027466-.050606-.228821-.013557-.432861.062866-.039917.014633-.074493-.000854-.076599-.034988-.002045-.033386-.029968-.042717-.061554-.020721-.031158.021927-.059692-.001541-.062744-.051498-.004364-.070915-.036102-.078766-.136597-.033813-.144928.065529-.492279.074081-.660095.016762-.063568-.021347-.1651.00679-.247742.068291-.087311.064949-.155579.082306-.181.046173-.022491-.03215-.064545-.041328-.093994-.02021-.029938.021347-.055389.008461-.057678-.028564-.004242-.068718-.294708-.031555-.414246.052719-.03363.024277-.077484.006645-.097748-.037407-.024323-.053528-.098969-.067848-.218719-.042763-.099579.020699-.200775.01535-.223511-.012627-.022644-.027275-.141327-.093231-.263519-.146698-.17392-.075325-.220673-.128052-.215607-.24231.004974-.111855-.021454-.14447-.114655-.138832-.092224.005585-.115662-.0214-.09726-.113983.013367-.067329.000275-.120583-.029175-.118797-.029449.001778-.03064-.068573-.003235-.157295.031128-.09996.027802-.184418-.009644-.224724-.033234-.035606-.085449-.183128-.116821-.328743-.031372-.146324-.109985-.359962-.17572-.477058-.099823-.177895-.107269-.230286-.047424-.324127.039398-.06134.059082-.129807.043579-.151604-.015564-.022049-.052521-.194435-.082306-.385384-.030029-.190178-.086639-.379707-.126434-.422081-.046753-.05072-.050262-.079407-.009796-.081856.067932-.004112.033569-.55304-.037628-.600372-.023987-.016129-.062958-.122368-.085663-.235252-.02301-.112816-.064392-.266098-.091705-.339027-.027374-.072983-.021973-.170639.01178-.217209.059113-.080116.034302-.580284-.02832-.576942-.016571.000999-.055054-.288002-.085327-.642014-.059113-.688889-.113281-.955101-.217468-1.069168-.036255-.039375-.056946-.161652-.045776-.272881.011139-.111221-.006622-.238083-.039581-.28302Z"/>
  <path class="uuid-b18f40ba-f957-4369-8082-6b06d3914a78" d="m177.860779,96.029549c.15332-.034111.410217.065872.389343.148285-.010315.040802.004578.081261.032654.089561.101685.030174.100769.255219-.010803.875145-.030579.17067-.033691.348679-.005493.395378.02771.046753.03186.121948.009644.167908-.022949.046242-.027588.116158-.009644.156067.017029.0401.003174.092628-.0401.120743-.053833.035103-.059998.063316-.018982.093544.031555.023552.033569.064217.004639.089409-.08197.07032-.109741.268501-.049683.355415.040894.059433.03717.066521-.014771.030548-.039307-.027145-.072083-.024529-.077209.006279-.004944.029846.041016.072823.102722.096001.08728.032959.10022.068367.057251.164825-.031433.070847-.028076.141365.008118.165611.046082.030876.040283.056915-.023315.100136-.050842.034447-.06543.07473-.035522.097176.05072.052315.053894.327286-.009827.319504-.027405-.002739-.027161.050873-.000488.11908.026917.06823.040649.160553.030212.207146-.01062.049423.013184.082588.05719.078758.043762-.003365.072937.038399.068848.099785-.003967.05851-.037659.104729-.075012.103233-.048279-.00209-.048706.014854-.00116.060081.042725.040764.044128.070663.003235.086693-.034302.013557-.048584.055634-.031494.092644.01709.03714-.008362.083817-.055725.104004-.062866.026588-.066223.037323-.011597.037941.04126.000786.078247.031944.081604.068947.005432.057693.014038.058868.059814.009346.042297-.046013.054565-.039543.061218.031044.004272.048599.037598.120453.074524.159538.036987.038849.045227.070908.018311.071976-.026917.000816-.040405.186668-.038574.413605-.003601.312584.033813.401474-.040039.508026-.055725.089561-.063721.180153-.028015.290512.027161.08828.036743.170837.02832.179382-.013184.012405.011536.098495.051331.191124.041138.096893.044189.185936.012146.210175-.030457.022598-.031311.051414-.002502.062256.020874.002518.036194.072136.089844.15654.007751.003304.101501.159233.180847.340439.08252.173477.216675.32148.338135.50914.270081.343552.681396.687042,1.270142.975273.299561.107483.643066.25946.947632.288383.085999.027657.133667.011864.197571.023598.040405.002884.038025.010597.114136.013969l.270203.006584c.363037.009064.719238.014671,1.061951.010483,1.346375.001114,2.187927-.196732,2.274658-.240562.090454-.051537.184631-.069176.229553-.042648.04187.024376.118286.020302.158875-.016235.048584-.040245.409241-.152405.683655-.299034.280212-.145203.535461-.299896.560303-.301414-.005493.026939.434204-.281441.374268-.279724-.029663.050583.187012-.284431.339661-.62606.170715-.362556.349548-.812828.512085-1.2743.16333-.462639.312744-.938919.443176-1.38205.022034-.075958.03894-.094193.042847-.137253.007874-.067352-.035034-.135132-.07373-.140587-.004211.0187-.040588-.050026-.07074-.115875-.025635-.058075-.038818-.105263-.034058-.127937.00354-.010437-.034546-.105316-.100403-.266037-.07135-.162582-.178406-.399384-.325989-.680717-.138184-.266922-.347351-.639267-.455933-.785103-.182373-.25238-.378296-.499611-.580505-.688316-.400208-.379662-.807129-.593697-1.343872-.76133-.538025-.154831-1.140442-.224419-1.413574-.248367-.355896-.032669-.721741-.047218-1.073853-.055206-.181885-.000511-.357483-.001007-.526672-.00148-.162048.001266-.189453.015533-.286011.016037-.159119.006966-.315002.040482-.455566.066658-.142822.042755-.293335.065529-.297852.079865-.157837.067696-.237854.105957-.236206.131424.001648.03228-.028015.034645-.070496.012413-.059509-.033653-.081055-.010956-.099243.110046-.017273.117157-.036377.140015-.098328.110947-.056885-.028587-.079163-.008308-.082642.045944-.003052.058479-.015625.062248-.051697.016335-.036743-.046967-.046448-.043648-.037598.013878.012329.080803-.039062.105309-.132812.06308-.033569-.016495-.057739.011894-.055969.059326.001221.045479-.016968.081726-.041199.080017-.024536-.001678-.054443.053116-.065002.12014-.029114.127777-.152039.297897-.229126.239861-.024963-.018448-.044495-.009666-.043579.018379.00415.074493-.042236.135048-.071289.079216-.012817-.025887-.041626-.03035-.063843-.009979-.022278.020325-.023193.048065-.001465.062126.021667.014252-.003235.069977-.05542.122444-.056152.082939-.094666.092163-.165955.052353-.087036-.048454-.088257-.046555-.015625.019821.042358.038963.073242.077965.068604.086411-.081055.154068-.143921.252625-.198425.231064-.032776-.013802-.0625-.016251-.06665-.00592-.005371.010109.014893.027817.046143.040962.030579.012688.051147.030891.046143.040359-.004883.009201-.037048.005241-.071045-.008423-.033936-.013847-.06543.005035-.071472.039093-.00531.034119-.034058.052933-.061829.043854-.027161-.009033-.044312-.003128-.030884.013504.012207.016571-.007874.036133-.045654.044724-.0578.012657-.054443.026596.02478.072807.099792.059204.089417.10437-.01947.080154-.029785-.006798-.069336.013229-.090881.043671-.046753.06356-.086792.067535-.142639.010941-.036621-.036728-.043823-.039719-.054565-.017487-.006775.014236.014099.044922.047241.067825.052795.033356.042358.034752-.057678.012939-.086304-.019051-.116516-.014427-.097778.011154.015625.020332.007751.025497-.016602.011909-.066589-.038948-.207031-.031906-.221558.013809-.009766.030106-.026733.030907-.075745.00116-.091431-.05648-.135193-.064102-.193848-.018463-.044556.033958-.05304.03537-.100403-.002708-.038879-.037727-.05896-.039513-.097961-.001091-.047729.054588-.118469.050858-.19635-.024467-.046997-.046585-.066223-.053368-.114014-.03109-.0354.016182-.16333.008614-.334595-.020981-.177429-.031235-.289673-.034828-.312256-.009399-.026001.028702-.064453.026642-.144531-.012085-.059204-.028893-.109497-.039688-.111511-.022537-.006348.053307-.327332.083336-.368164.027718-.027161-.037941-.073792-.044647-.18457-.019569-.199097.043839-.62854.026413-.764099-.054611-.081665-.048981-.121887-.052505-.154175-.009949-.033691.045822-.048462.04425-.069885-.011093-.021729-.057022-.045288-.061218-.130127-.01606-.078491.042191-.091248.041733-.050415-.004044.029114-.032722.024963-.063469-.009155-.068192-.055115-.007782-.094299.055824-.096008.154709-.000977.035316-.014954.033913-.447998.030037-.166443-.001541-.361572.012733-.435242.030396-.096069.023636-.152832-.004631-.203979-.108994-.041138-.084702-.108948-.135178-.164917-.11837-.056702.017395-.106445-.021576-.122864-.097511-.026123-.120163-.031067-.121536-.08905-.000412-.081604.169792-.511536.185867-.487305-.001015.011841-.089386-.003906-.101494-.062195-.045212-.05835.055984-.109619.044991-.198669-.050499-.074036-.080017-.180481-.119759-.281189-.100174-.105713.020737-.157837-.000328-.149536-.061874.008118-.059074-.028748-.052933-.097656.018852-.060791.063393-.142517.11277-.180908.10743-.048401-.006554-.043152-.028404.016663-.068794.069702-.048088.072205-.078163.014587-.16748-.057129-.088409-.08252-.07769-.128296.062256-.039429.120041-.078186.150833-.126343.095192-.037354-.043716-.088501-.089745-.111816-.099701-.023926-.011009-.047974-.029755-.054504-.042961-.006836-.013191-.077576-.041817-.158142-.063934-.080444-.02224-.184265-.075333-.231445-.118248-.047607-.043579-.110718-.076286-.141602-.072647-.109558.01371-.300476-.172325-.255493-.251183.049561-.094154-.19989-.350517-.292297-.290001-.037292.024643-.050781-.025452-.030029-.112831.022705-.095093.003967-.136253-.047607-.102989-.057678.037605-.060608.004868-.008545-.099007.042847-.085205.050781-.160217.0177-.168625-.032959-.008163-.027954-.062027.011414-.118698.048401-.070168.034729-.09185-.04248-.066002-.095703.032257-.096313.008408-.001709-.141296.062134-.096893.092468-.182861.067749-.190491-.110352-.03344-.062439-.450592.065247-.613228.123962-.160034.218628-.502998.123413-.460243-.08252.0215.252258-.672585.343262-.724464.037842-.024727.063416-.11702.057861-.208672-.00531-.090393.035645-.220177.089905-.282021.0578-.059349.128113-.182655.157043-.276352.075317-.258896.477112-.910278.534241-.862312.052307.037468.259766-.273392.356262-.52491.037292-.110413.208374-.350868.384888-.5299.173401-.183212.301514-.344345.282898-.362747-.018921-.018372.049011-.077362.151062-.130424.135315-.067184.20105-.122673.23584-.222672.029236-.082191.080444-.133659.12854-.130768.046387.002792.167969-.102303.295654-.253372.170837-.205185.251404-.248055.349792-.229538.103943.019234.136902-.001678.192444-.124535.03717-.081467.167725-.214455.289246-.292923.121033-.078934.244995-.181404.278137-.223076.081238-.113228.459961-.235909.503845-.163681.024536.038803.059143.02253.103088-.049622.0755-.148979.757141-.539169.733215-.444313-.009705.035866.136169.00248.32251-.070869.185425-.075653.350952-.108978.361816-.085503.010437.022148.13501-.005081.276184-.057892.141235-.05352.33606-.081886.429016-.063477.13855.027603.176147.015564.208984-.067902.031128-.078484.083618-.096687.22876-.088989.018005.001106.110474-.024178.268982-.07119.079163-.023735.174927-.05246.286255-.085846.055603-.016716.115112-.034592.178284-.053589l.110535-.030045c.098328-.023994.19928-.048637.302917-.073936.411743-.106979.874695-.199989,1.390564-.26281.253784-.041664.525208-.061821.808289-.075539.26709-.014107.617798-.034706.80481-.028137.882568.000412,1.922363.019577,3.168701.188133,1.235596.174858,2.720703.493996,4.256775,1.278496,1.537537.751984,2.981812,2.002213,4.017212,3.354942l.384155.513306c.131348.182571.280396.410812.382324.575737.223022.357796.409729.683754.591187,1.019188.369751.693001.674927,1.29406,1.031921,2.186989.43042,1.104713.766235,2.279747.702148,3.477921-.026672.595123-.169373,1.181152-.336487,1.769028l-.355103,1.215042c-.351501,1.12571-.755859,2.27816-1.387024,3.548203-.329407.632927-.708679,1.32811-1.381836,2.132439-.312317.36689-.660156.718201-1.025391,1.015137-.296326.257645-.596375.482468-.914062.706177-1.431091,1.015999-3.096069,1.669792-4.599121,1.999603-1.509888.332954-2.873718.413139-4.06366.433266-.603271.012222-1.155945.002068-1.690796-.006996-.386963-.021828-.823608-.049103-1.206787-.099327-.373108-.063126-.746643-.124573-1.102234-.20488-1.407043-.326805-2.62738-.894554-3.698425-1.545547-2.148071-1.338036-3.475098-3.142281-4.185181-4.453644-.240356-.488091-.434265-.881905-.5755-1.168709-.060974-.136215-.098816-.220871-.112-.250259-.077698-.131287-.195007-.430573-.257324-.662323-.06781-.249977-.11676-.368469-.123962-.291359-.009277.099861-.04248.090096-.145874-.049583-.088318-.119431-.116638-.198662-.082825-.22921.035339-.025757-.017151-.185257-.067505-.375542-.0625-.21167-.076355-.382111-.040527-.483444.048584-.137581.041504-.14592-.064331-.070358-.097534.069832-.133118.04808-.196899-.126442-.093018-.257187-.079163-.512497.021484-.447342.112305.071144-.000305-.247055-.12323-.355209-.092896-.081505-.093567-.095787-.003052-.108986.096497-.018021.10968-.269821.027405-.370216-.068665-.080536-.107239-.469353-.042175-.421181.07959.057854.069519-.006432-.042908-.316452-.053589-.146149-.100159-.468597-.103577-.716568-.009644-.251778-.027771-.476044-.057068-.509392-.04303-.046707-.039429-.077263.012451-.102684.040161-.020027.059448-.092804.043213-.162163-.019592-.084015-.006531-.106895.03772-.06778.0401.03508.069824.009834.073975-.063377.003784-.066856-.017883-.122452-.047668-.123741-.030457-.001213-.040771-.098495-.023376-.216881.0177-.11853.008423-.257706-.020813-.312035-.060303-.113098.010193-.284821.087524-.212105.046021.043343.046875-.293472.00354-.572327-.00824-.054512.012512-.096428.046448-.092529.033142.003639.046204-.030945.03363-.072861-.013672-.042191.016541-.072464.066223-.066444.070557.008415.086182-.028305.067688-.159134-.027588-.188904.053833-.613777.153625-.802917.037415-.0718.036621-.200806-.00116-.316147-.039917-.121841-.038391-.209412.003418-.230804.037109-.018929.057251-.067299.044678-.108452-.012634-.041817.006714-.069199.043091-.062088.069824.0149.104492-.350357.066528-.509789-.011475-.045158.020813-.090088.070068-.100471.059753-.012329.099548-.092613.117737-.23558.01532-.118904.056213-.231949.090881-.249107.033997-.017357.138672-.13121.232605-.251556.132996-.171532.199463-.206215.305908-.163895.104309.041443.14447.022598.171814-.082191.0271-.103813.060852-.120728.141968-.069969.059021.036797.113953.039871.122559.007057.008606-.032883.0755-.010826.149841.048218.08374.066719.164856.0905.215881.063316.045166-.024292.202637-.031868.350952-.017044.149048.014847.377563.002731.510193-.026573.201416-.044525.253113-.033714.321777.059525.044739.061302.102905.104263.128601.095581.026001-.008644.200989.011017.390991.044861.189392.03318.386597.040314.439331.015167.062927-.029282.091064-.022926.080383.017929-.018066.068977.511353.218056.578369.165413.022766-.017799.135193-.019539.248718-.003021.113586.016121.270874.028854.348022.027977.077148-.000946.16748.037521.201111.084785.057434.08252.537231.226707.552673.168785.004028-.015511.288086.047127.630798.139763.667053.179863.933472.223274,1.069885.174507.04718-.017174.16803.007454.269775.05468.101746.047119.226196.07547.277466.06382Z"/>
  <path class="uuid-b18f40ba-f957-4369-8082-6b06d3914a78" d="m28.110565,139.353516c.058167.140381.021667.41362-.049835.413483-.035614-.000107-.066101.024078-.067535.053345-.005524.10498-.190002.16243-.711731.192932-.137482.02182-.267883.080673-.29599.120972-.027771.041351-.081543.069214-.120575.062531-.039459-.007278-.091644.010071-.115906.03949-.024689.028534-.070679.022797-.104248-.012878-.042389-.045395-.066406-.045807-.078369-.000046-.010376.033798-.039032.047684-.064545.028687-.07251-.055664-.223145-.021774-.266449.060394-.029602.056183-.035675.054703-.026093-.00502.007294-.045181-.004486-.075516-.028076-.071335-.022888.004059-.039276.060089-.036377.125183.003876.092102-.016449.114548-.097595.100861-.059906-.0103-.108612.011841-.110016.057602-.004242.054733-.021729.059418-.06955.016983-.038208-.033966-.068451-.032211-.072083.003906-.008087.076523-.197266.150513-.218506.086014-.008362-.026276-.046661-.012878-.085052.027954-.041809.03624-.088196.089417-.123108.093552-.035187.00737-.046387.040298-.026154.079163.019653.038757.005768.079559-.033661.095947-.037628.015625-.080444-.000137-.095306-.034393-.019043-.044464-.030029-.039215-.038055.01825-.007263.05162-.025116.062057-.052979.030304-.023376-.026657-.056305-.026291-.072205.000412-.012573.031189-.049072.028183-.081635-.005508-.042816-.044571-.050842-.043304-.026794.005035.01825.037003.013947.07933-.009705.093292-.036987.021881-.0336.029724.021271.055817.050659.023926.051849.036942.007385.063232-.030853.017822-.063995.067459-.072845.110428-.008698.04303-.026398.05864-.040161.035522-.018829-.030396-.141022.023804-.273651.114182-.195465.103775-.261749.172791-.372253.149353-.094482-.012024-.172852.008682-.21814.096725-.039642.065613-.088043.111938-.106873.10585-.01416-.002533-.090118.039246-.135803.121353-.051483.082199-.118896.128433-.155853.114151-.034821-.013916-.05777-.000305-.049957.028656.002777.015594-.025452.067947-.066467.15834.003143.020676-.100952.138321-.164764.285767-.080078.137985-.146027.296707-.212067.457718-.04541.143936-.108582.342957-.096619.357925-.009796.068466-.014496.22908.011566.389389.045837.331955.245728.880768.702515,1.490814.429871.59169,1.022217,1.042892,1.074646,1.041412.074127.027252.130249.077179.135254.120636.002991.042145.044342.084488.090942.093094.049591.010147.322235.179901.601379.313553.275421.143158.545471.251495.552643.274017.004028.020264.320557.160904.660248.218582.434418.095306.834564.074173,1.028503.018814.108368-.018036.164032-.057373.225677-.075409.027496-.03064.03598-.020325.092255-.054245.073578-.05687.145325-.101181.207672-.155792.234863-.181183.468689-.451935.514709-.551239.050903-.095718.112762-.184753.151367-.186142.01828-.000259.187988-.184296.411804-.512512.221466-.325272.485443-.814743.634674-1.31781.310059-.829086.085846-2.042084-.021332-2.296951-.107513-.367828-.281281-.673965-.274719-.648438-.033203-.044556-.095184-.085495-.108429-.087006-.027863-.02034-.052124-.013824-.065857.007812-.017731.026871-.018707.019974-.004761-.018066.01947-.052551.006592-.047028-.047638.04332-.051697.088379-.057312.101639-.0448.053329.011322-.043457.005737-.044327-.013123-.001083-.020111.045624-.018646.042236-.004272-.012085.015198-.055725.012421-.057388-.008331-.004852-.031006.073547-.031403.072983-.050903-.015488-.004181-.030106-.024811-.026901-.044495.007004-.017792.03215-.052948.05249-.063446.035477-.012329-.01622-.058929.008087-.100586.053329-.066315.081406-.286011.119141-.300262.028854-.006165-.030273-.026306-.036484-.044098-.014755-.044037.055496-.145233.070099-.123199.008942.00943-.02774-.013062-.050507-.049713-.050323-.036652.000168-.060272.020248-.052246.045212.007477.025208-.059601.049606-.152466.055481-.144836.02153-.195709.003815-.228485-.07373-.040039-.094223-.042755-.093613-.036438.004593.003601.05748-.005005.107391-.018768.110779-.25531.0634-.492188.099091-.51474.049026-.016968-.031845-.049744-.051895-.072357-.047791-.022736.004105-.025391.031387-.006317.062454.019073.030273.016388.058044-.006042.062073-.02179.003922-.057068-.02034-.077789-.053604-.02063-.03331-.089478-.039124-.151978-.014435-.062134.025116-.127228.023834-.144287-.001602-.016968-.025085-.044037-.030289-.060669-.008362-.016205.021454-.081696.024124-.145477.006683-.095947-.027115-.116699-.012482-.113495.080521.003571.117203-.10968.156815-.185974.064026-.02301-.026871-.122009-.035843-.219482-.020889-.207245.031998-.252808.010956-.184052-.084915.043457-.061127.04129-.068619-.018005-.054367-.037872.009232-.08374.054489-.102692.101318-.027039.067215-.046356.062714-.094391-.030685-.041656-.08046-.081177-.099075-.125061-.061142-.034637.030853-.054779.030258-.044373-.0009.029419-.085617-.113434-.185028-.220978-.153091-.073395.021805-.086884.00943-.061188-.056992.048737-.123489.025391-.163071-.10437-.168167-.097015-.003494-.107758-.016586-.06427-.081818.043335-.065643.033478-.078781-.06485-.08194-.139221.000366-.170441-.063324-.084015-.18158.053497-.071259.050964-.09024-.018005-.117126-.051147-.018936-.115967-.132538-.169556-.297913-.055389-.171432-.1138-.270264-.162323-.274445-.055603-.004929-.072113-.039841-.061005-.132492.008301-.068512-.004456-.118286-.028564-.110153-.078369.026459-.273804-.238586-.223328-.306305.034088-.045197.017883-.089493-.065948-.173538-.149902-.151306-.319214-.545609-.296295-.706863.013947-.097122-.001556-.13443-.059418-.142548-.06192-.007767-.066437-.021927-.020142-.067932.047943-.047028.040588-.069778-.042175-.12413-.076569-.050201-.081421-.061966-.018494-.047058.045197.010544.073761-.007812.062805-.040482-.017639-.052795-.096741-.058075-.193359-.012985-.034363.015656-.040558.003067-.21756-.390991-.067932-.151535-.1604-.322601-.205444-.382141-.059418-.077316-.057007-.141541.01062-.232315.055115-.073425.068451-.155945.031036-.199524-.038147-.044083-.026489-.105469.028595-.15181.087097-.073624.085327-.0784-.037415-.080627-.173492-.003143-.356842-.389633-.202942-.441513.074097-.024963.076569-.044037.009033-.074371-.067383-.03064-.079285-.081772-.044281-.199921.02951-.098572.013611-.210175-.042847-.293671-.059296-.087723-.06546-.143112-.017578-.15921.046143-.015518.025848-.046326-.054382-.081146-.070862-.030762-.139404-.086472-.151276-.123428-.015045-.046478.002441-.049789.055664-.010788.062805.045059.085754.035767.124573-.0504.038208-.085464.019501-.103943-.097473-.092392-.100555.009613-.137726-.014465-.118622-.078842.015198-.050217.025848-.113785.023041-.138641-.002289-.025772.00061-.05455.006927-.06543.006226-.011108-.003571-.085831-.022095-.166962-.018341-.081131-.02597-.194717-.017334-.253265.009003-.059143.003937-.12825-.011383-.154816-.05423-.094101-.014465-.334778.054321-.323547.082397.012573.13559-.316086.05722-.373856-.03125-.022675-.006165-.055756.056274-.07457.068054-.020493.084778-.05484.042023-.086105-.048004-.035004-.029358-.051331.056213-.050049.070343.001083.119049-.024719.109314-.057449-.009766-.032516.024658-.051483.076111-.04184.06369.011566.070374-.01004.020203-.066193-.062164-.069839-.04837-.080353.082855-.063889.085419.011261.150085-.001251.143097-.026154-.031464-.104568.236176-.270294.390259-.247238.152466.023529.395325-.077179.323547-.134323-.056458-.045914.514221-.167709.590851-.129837.033813.015884.099731-.017609.148346-.075989.048126-.057297.14212-.10141.205566-.095383.066193.007355.176483-.016464.246338-.053864.190308-.102478.782349-.224579.796967-.159393.009094.06395.316132.002747.519531-.102127.082642-.046799.32962-.096588.555664-.104492.22229-.011322.401855-.039963.400757-.066071-.001282-.026367.077972-.022217.176056.009308.130371.042587.215576.045166.301666-.005219.072357-.041122.140411-.044846.171997-.010406.030426.033203.181458.037003.365601.010162.244293-.038437.342712-.01416.401794.063721.06488.083405.103577.089691.227478.03479.082397-.036179.269287-.048721.412781-.026566.139862.017792.312561.036774.369873.025604.146454-.029251.538727.137177.521851.220245-.008148.045197.031189.056671.118073.033585.147125-.064682,1.053833.165543.969818.213089-.037933.021393.124146.093903.35611.199753.232178.107147.412689.218658.403564.240921-.008942.022797.128845.103638.301819.183228.176147.074295.36972.226334.4328.322678.095764.139633.137329.166016.235687.145782.092896-.019516.155182.012589.273346.141998.013672.019348.12973.081146.314392.211334.091095.06723.201355.14856.329376.243042.063477.048004.131317.09935.20343.1539.105957.080139.337006.250076.491333.40979.351807.327011.72464.700745,1.058899,1.168335.345184.433762.704651,1.014587.955505,1.518753.50235,1.000748.889404,2.135178,1.109497,3.383362.211823,1.250992.285065,2.614502.044922,4.128998-.255432,1.537323-.765961,2.908005-1.491852,4.239944-.72818,1.318756-1.671539,2.554977-2.887543,3.653809-.305176.273743-.627869.538132-.969421.790741-.385742.264725-.842346.581146-1.299683.797867-.921143.48848-1.915405.763916-2.879456.922867-1.945587.293015-3.727325.009445-5.290039-.493057-1.559723-.524109-2.943115-1.270599-4.163574-2.220108-1.214203-.95108-2.185364-1.983246-3.012054-3.176056-.817108-1.17955-1.448151-2.504456-1.795807-3.899399-.173279-.695145-.280182-1.401871-.30304-2.095535-.035248-.688995.017487-1.352509.132019-2.046936.234314-1.275803.622314-2.165695.972809-2.925034.191467-.361038.361145-.693253.531891-.970749.12262-.192551.229431-.360245.319183-.501205.106171-.17012.170837-.276413.185608-.310928.068604-.141541.260773-.410995.424561-.595596.176544-.199432.251434-.307999.181793-.270493-.090118.048706-.09967.014969-.03595-.152054.060577-.137512.117432-.202805.162476-.190567.039795.010559.161804-.099533.298859-.266983.151276-.185181.292847-.302032.399902-.333084.147705-.039642.154266-.047714.029846-.096771-.114105-.044235-.112549-.087067.015533-.240509.189423-.225327.432861-.356247.423492-.232941-.008759.136566.227753-.138229.266327-.304611.028839-.125671.04184-.134201.099457-.063156.062378.0746.313324-.045425.368591-.185165.043427-.108398.401154-.372269.386108-.286377-.017151.10405.039246.056854.286072-.223129.114014-.136826.4216-.33194.669495-.462875.248962-.127579.470856-.270325.493134-.322617.028931-.065552.061737-.082932.112183-.048492.039246.025558.124451.005402.190399-.04454.079926-.060471.109955-.060349.088287-.000824-.019135.053802.020721.067535.099701.034119.072113-.030518.121277-.078049.109528-.105438-.012146-.027969.086273-.086533.219391-.130142.13327-.043518.277069-.12088.322449-.174179.094757-.110641.3078-.130814.262726-.025116-.027039.053925.332214-.077225.614044-.228119.055206-.029083.108704-.026459.118317.006363.009491.032074.051636.031158.093323-.001846.041107-.032806.086914-.019836.100372.028366.019348.068436.065948.06488.203064-.01442.199402-.128647.698364-.215027.943329-.188156.092926.008286.234436-.039871.348145-.117325.120117-.081833.217896-.11203.25647-.080536.034271.028046.094879.029541.136017.003021.04184-.02684.07901-.018448.083923.018311.012604.057785.412231.007706.579559-.084763.046875-.026215.108551-.010956.136902.032089.034149.052322.137573.062668.304382.03212.138855-.025284.279633-.023773.310059.003464.03006.027557.193298.085907.355438.140976.226685.087372.2836.143799.269104.257278-.01416.111176.018036.145599.13913.147186.120087.001633.14798.030487.116455.121292-.022736.066071-.010254.120193.027466.120789.037842.00058.033051.070816-.009064.157059-.047638.097183-.049744.181641-.006409.224808.038696.038162.090973.189438.116394.337143.025757.148407.101166.367767.167297.489914.100525.185593.102325.238388.024109.32692-.051544.057877-.080261.124512-.064484.147507.015839.023254.042023.198074.057037.390793.015686.191986.059082.385452.097687.430908.04538.054352.046021.083221.002319.082367-.074036-.00145-.087952.548386-.019775.601212.023163.01799.052521.126953.063873.241226.011841.114212.03714.270172.056183.344955.019165.074829.003265.171677-.034058.215454-.065704.075211-.08902.575562-.031433.576981.015503.000259.021729.291092.012726.646042-.016876.690704.000763.959839.070587,1.080475.024475.041656.027039.164795.006561.274872-.020325.110062-.019989.237625-.000336.284485Z"/>
  <path class="uuid-b18f40ba-f957-4369-8082-6b06d3914a78" d="m21.504395,135.942078c-.123901.117401-.397797.13826-.41449.030518-.008179-.052948-.039001-.092575-.067932-.087891-.104187.016968-.201691-.247772-.369965-1.047653-.042358-.220566-.113586-.439529-.159119-.485474-.045074-.045929-.080475-.13739-.079285-.203293.001801-.066513-.023315-.154892-.056824-.197601-.032593-.043289-.033966-.121613-.00293-.175385.039062-.067841.038025-.107574-.010437-.132309-.037109-.019379-.051086-.073395-.030945-.117981.057434-.125015.024719-.397812-.059235-.495499-.05722-.066833-.055878-.077759.004852-.046021.045868.023743.076508.009399.072083-.033463-.004272-.041504-.061462-.084564-.127716-.096619-.093811-.017059-.117096-.061951-.105713-.206863.007294-.106125-.014282-.201691-.056427-.225098-.053253-.029633-.055084-.067764-.005798-.144394.039459-.061066.042175-.119873.006775-.143265-.07373-.048767-.125549-.462708-.058777-.467484.027466-.002029.01828-.082214-.019714-.179794-.039307-.097504-.065704-.235764-.061981-.30838.003387-.076813-.025116-.123596-.068176-.111069-.042877.012009-.077972-.047928-.083191-.143555-.004944-.091125.021301-.166641.058594-.168625.048279-.002625.046143-.028183-.008209-.092407-.048859-.058044-.055023-.104538-.016937-.13295.031952-.024109.039429-.089584.016388-.14505-.023041-.055756-.005432-.129517.038483-.16304.058044-.043945.060059-.060577.006256-.059418-.041229.000977-.077271-.050293-.079712-.113464-.004059-.098129-.012665-.10051-.05957-.013947-.043396.080826-.05542.070663-.060425-.051895-.003113-.084167-.035278-.208664-.071808-.277893-.03656-.068726-.044647-.125824-.017761-.126633.028046-.000839.03949-.324554.037872-.717453.002319-.534012.02887-.770706.104797-.933395.068268-.151649.097107-.313965.080566-.532776-.012238-.173645-.008331-.331429.009583-.350502.017181-.018646.028229-.207779.023712-.420509.000488-.222557.029449-.403351.067993-.427139.03656-.022385.047546-.077293.024323-.119957-.013489-.02475-.020416-.158691-.021027-.38456.001038-.075485.002167-.158623.003387-.249062.008179-.161758.017029-.336571.02652-.523804.017639-.37487.04361-.798805.083893-1.265549.071259-.93502.193329-2.042099.372314-3.273827.087189-.616615.197296-1.261711.315521-1.934097.063965-.334602.129272-.676239.195831-1.024284.088531-.44104.214996-.956245.362305-1.417854.583374-1.824478,1.327972-3.064163,1.366699-3.21759.058197-.162148.145569-.309418.20694-.342209.057892-.033623.128448-.132767.156647-.22113.031403-.102623.3526-.671341.654266-1.16613.302887-.497749.578461-.930344.610016-.943184.01944-.014534.083496-.109924.236176-.347038.180939-.279816.427887-.664963.672394-1.012413,1.235016-1.794395,2.903625-3.727753,3.863525-4.755028.438171-.466461.901276-.986107,1.029663-1.155281.125854-.171989.271057-.325119.324951-.342995.014679-.004272.103241-.091606.265533-.243729.161011-.153694.388855-.371193.667114-.636772.586945-.536522,1.338135-1.255562,2.433594-2.082779.303833-.21521.545471-.410645.944122-.647102l.54184-.32341.361481-.193054c.4729-.254868.95816-.502419,1.403809-.722374.893005-.444145,1.672791-.768967,2.017883-.907883.896729-.370071,1.723053-.642151,2.432281-.860352.356903-.100418.684998-.192741.984283-.276962.238098-.058548.453247-.111465.645538-.158752.40274-.107613.609558-.162193.622131-.189125.01651-.035835.08783-.044067.169098-.019073.112671.034782.170929.011536.303497-.11998.129486-.127922.197937-.155693.312653-.127144.10379.024742.169434.01265.226532-.043312.060516-.059578.093567-.061974.129547-.009277.036774.053848.059814.051994.095734-.009171.05011-.085785.193665-.105995.349762-.050148.053894.019608.135071-.002922.184509-.050461.047882-.046051.130096-.078827.180298-.071617.050964.007027.178589-.042976.284363-.106308.212494-.130211.750214-.231781.817871-.155388.023712.027016.076294.025139.117462-.003441.107788-.076622.313538-.102356.277435-.039101-.016479.029076.034729.048058.112701.041557.077881-.006493.126709-.030914.107483-.054298-.019318-.023376.126678-.060982.325714-.084717.279602-.032486.378052-.020325.435516.054855.07016.09108.074371.09024.069336-.008072-.002991-.057541.01712-.108681.044098-.11351.486542-.078575.8815-.089966.917664-.04554.024109.031525.072601.055.109589.053131.037262-.001877.047119-.028809.022522-.061562-.024811-.03199-.015015-.059372.022339-.061256.036316-.001831.088593.025635.114777.060715.026215.035133.134918.047302.240784.028076.10611-.020592.208832-.011841.228394.016113.019867.027138.06131.034973.091095.017174.029755-.018051.128601-.008606.218323.020088.134552.044014.168701.033241.1922-.058868.029633-.115959.214478-.135239.296814-.030647.025146.030701.163116.062332.306549.069199.305328.014603.360077.044739.228973.123451-.082733.050148-.082031.057938.005402.057045.056274-.001404.135406-.033447.179047-.074036.062714-.058708.086456-.046951.116119.055916.025696.089157.07074.118568.14328.0951.057678-.019402.084167-.012978.058319.013802-.071259.073318.077911.210144.228821.210571.103668.000298.115784.015991.056122.072212-.111694.104187-.095886.148872.065857.191093.121124.031364.128693.047043.048218.096848-.080414.050514-.072601.065681.048096.097298.171326.044975.181885.115318.030884.199097-.092773.050713-.096832.070702-.023926.116623.054199.034569.086914.163071.085938.336914-.000946.180153.028778.292595.082367.312263.061523.022644.066467.061005.01886.145103-.035278.062141-.039368.11338-.00943.113472.098724.000313.212219.314178.13147.362015-.054047.031776-.052307.078934.006592.185516.105286.191536.133331.619316.052887.76461-.048615.08744-.045654.127754.009552.154076.059448.027283.058746.04213-.003693.070786-.064453.029099-.064575.053001-.001343.131096.058289.072174.058807.084877.001953.050499-.040985-.024521-.075653-.016327-.075958.01812-.000458.055649.075348.086128.185669.074516.03891-.003777.041443.010132.073212.440155.012024.165329.039551.357048.060608.42791.02832.092331.003754.152351-.087921.21653-.074524.051781-.113037.125618-.093323.178925.020142.054001-.010223.10836-.074066.134529-.101135.041702-.100555.046806.007996.088371.154236.058792.188446.483711.040436.483299-.071594-.000198-.079346.017075-.030548.067513.048584.050682.042572.102913-.022614.203529-.054596.083847-.073517.194641-.050781.291855.023773.102112.012604.156532-.031494.15641-.042664-.000122-.034454.035553.021484.094307.049408.051888.088989.126686.087891.165482-.001282.048851-.016235.046356-.048279-.007675-.038116-.062851-.059814-.061417-.11557.007729-.054962.068695-.044525.092178.053101.118797.083893.023178.106659.057938.07309.112747-.026398.042679-.052612.099457-.057281.123894-.005341.025131-.015625.051453-.023621.059731-.007996.00853-.020782.082443-.028259.165222-.00766.082726-.032227.192764-.054382.245453-.022644.053139-.036713.120247-.031891.150307.016693.106499-.075134.321793-.123962.289207-.060425-.039726-.178406.260674-.133453.338455.0177.0308-.008575.055122-.05896.05497-.054993-.000168-.075073.027863-.05069.07019.027283.04744.009949.057632-.052612.031586-.051483-.021416-.09314-.010803-.093048.023346.000031.033951-.029266.042152-.065063.018082-.044464-.029457-.053925-.010689-.028931.057549.030701.084801.018524.090866-.074127.037338-.060364-.03537-.110657-.041908-.110474-.016052.000122.105804-.222626.199448-.327271.142258-.105072-.058792-.296387-.017311-.253418.054977.030487.052109-.386627.057556-.43631.006126-.022003-.022217-.073029-.002296-.114136.045456-.04071.046799-.111755.071785-.155975.053673-.044769-.017593-.124115-.012611-.174042.015915-.138275.074562-.545593.118126-.548798.059044-.003265-.064606-.210175-.031166-.34549.056412-.05722.036713-.217773.068733-.353363.078522-.137054.008049-.246765.035439-.244659.061455.002075.026321-.046661.021515-.1091-.010391-.082123-.041733-.130768-.037773-.177856.015259-.039032.044106-.078094.050919-.09967.018105-.02066-.031647-.109924-.028343-.2146.00843-.137756.05249-.185974.049103-.229675-.022285-.045837-.07399-.068268-.075066-.126312-.004074-.038696.046829-.135162.085129-.214447.084435-.079315-.000374-.165375.01786-.190765.040642-.064972.056526-.285767-.01844-.295898-.099319-.006256-.045471-.027588-.047035-.062958-.003464-.066833.082344-.482147.165085-.458344.092346.00946-.028854-.074738-.055511-.186768-.059357-.11322-.006256-.2052-.023254-.209808-.047493-.004242-.024078-.075317-.035904-.157501-.027359-.08194.009041-.193787-.019783-.247467-.063164-.079865-.064919-.102966-.06369-.122986.006012-.018829.066475-.047668.073479-.131439.033798-.010376-.004349-.070404-.00296-.166351.015839-.132782.027763-.321411.067184-.558044.116653-.820801.197563-1.907867.520889-3.231354,1.130981-.645294.2957-1.449707.703354-2.175018,1.107811-.254028.140747-.993439.718468-1.639648,1.331123-1.356689,1.262856-2.824768,2.889694-4.144592,4.520699-.648346.803696-1.305573,1.681931-1.713531,2.335381-.605713.992439-1.216217,1.939278-1.622223,2.681549-.418488.759491-.670044,1.368309-.793427,1.881317-.044891.169655-.139465.71405-.214691,1.125259-.069061.42968-.135956.845818-.200348,1.246422-.235718,1.602768-.350891,2.956566-.40741,3.93454-.061249,1.146843-.03299,1.14537-.025116,1.232933.027557.093582.036835.289543.020142.435165-.018677.157501-.005493.235474.024353.192451.039459-.055588.06781-.042671.12384.056534.047974.084618.051544.134369.010101.146019-.036255.010178-.050507.105797-.034088.231873.018402.139076-.001068.24482-.055786.302635-.074158.078682-.068665.084923.049652.051903.109192-.03019.139618-.011749.169342.10183.045563.166496-.008118.320267-.097198.271271-.099274-.055069-.040161.153931.064789.229431.07901.056992.077545.065445-.013977.06752-.103241.002182-.146698.163025-.063995.235657.062286.056732.081543.31134.020142.278076-.077301-.040756-.070221.003235.032043.208145.048706.096512.08609.305969.084473.46756-.003448.161835.027405.312225.065857.334915.04715.029373.046265.05014-.003174.070618-.038269.016037-.050812.067078-.028259.113266.027283.055847.016418.072357-.031281.048935-.043213-.021072-.070526-.001694-.06778.048935.002533.046234.029449.082581.059204.080963.030457-.001633.049927.06369.044067.145828-.006073.082367.017029.176208.051544.209732.07074.069717.019562.193649-.065063.154037-.050934-.02417-.010925.20607.067535.38768.015045.035507-.000061.06691-.03418.069595-.033356.002594-.042389.027954-.020081.055847.022247.027481-.000946.053726-.050812.057785-.070831.005692-.078339.034607-.03241.124023.064514.12912.080688.440933.031189.594482-.019226.058182.012207.148575.076294.220001.067657.075409.087158.135757.05191.160568-.031372.021912-.039185.060333-.017181.085693.022247.025772.010193.049393-.026672.053528-.069885.007736-.02124.267868.071472.369507.026093.028641.010925.069168-.031921.090378-.052063.025452-.062195.093765-.030609.199921.026123.088226.026306.179779-.000336.202454-.02594.022507-.085175.134735-.131744.249878-.065155.163773-.111237.210632-.226349.215942-.111908.005081-.142273.031952-.129211.11647.012909.083618-.012085.107498-.105774.098999-.068146-.006165-.120148.010559-.115997.037445.00415.02684-.065826.034393-.156403.017136-.102112-.019684-.185974-.009232-.223083.029068-.032745.03392-.175415.095673-.317841.13826-.143127.042526-.349335.135895-.460358.208984-.168671.110977-.220123.123459-.318634.075302-.064423-.031723-.134308-.04422-.154663-.02739-.02063.016846-.189087.068146-.376617.114624-.186737.04657-.370422.119171-.409088.161942-.046326.050262-.074585.056458-.080597.017273-.010101-.065598-.553589.018677-.594238.093491-.013885.025177-.116089.073715-.226349.106995-.110199.033524-.258911.089386-.328949.123734-.070099.034378-.167755.038467-.217285.008987-.085236-.051605-.580872.019821-.571564.083313.002594.016724-.281403.083267-.630798.147949-.679932.125931-.939514.207748-1.042419.328537-.035492.042007-.155029.075775-.266846.074677-.111847-.001068-.236267.029892-.277557.069397Z"/>
  <path class="uuid-b18f40ba-f957-4369-8082-6b06d3914a78" d="m73.413513,141.621475c.075928.132706.079407.407822.011108.415482-.034119.003784-.059814.031067-.057007.060242.012573.109146-.167419.166489-.634155.296539-.125.041153-.24408.107452-.263794.151047-.019226.044632-.06311.08168-.099854.081284-.03717-.000717-.081848.024902-.098938.057816-.017639.032135-.060425.033844-.097229.004028-.044495-.035568-.065125-.03038-.066956.017776-.001587.037277-.026123.054047-.054382.037186-.079773-.048553-.21933-.001892-.239044.089325-.015869.059875-.021545.059357-.024323-.000793-.002014-.045547-.01828-.073486-.038696-.065628-.019775.007599-.023834.06517-.008698.128555.021362.089966.006958.114395-.067139.114288-.050812.003494-.085632.036316-.080505.077682.006439.052795-.009033.058502-.062317.02153-.042603-.029572-.070953-.025558-.067413.009155.007294.074173-.136108.17424-.169952.114227-.011993-.0233-.046387-.008072-.063263.041702-.018646.048584-.055908.093613-.084869.101608-.030487.009003-.033386.040085-.006104.074799.02597.034164.023071.072906-.00293.094193-.02594.01944-.065094.009689-.086731-.020721-.027802-.039612-.035461-.033188-.026062.021774.008453.049316-.003113.061035-.035034.034622-.028046-.023056-.050598-.015671-.053345.012726-.002472.02861-.034912.027496-.072449-.000931-.049438-.037613-.056244-.035995-.022125.005798.02594.032059.033661.069794.016693.083054-.026642.020859-.021454.027435.033905.048248.050842.019119.05542.030716.023834.05513-.018494.018951-.026123.067734-.018219.106766.008331.039307.000214.05455-.018555.035294-.022797-.022293-.102325.031387-.1828.110214-.099854.111694-.152649.152527-.247437.148148-.085419-.00412-.126221.038391-.144379.096939-.00647.042313.003998.03833-.017883.03656-.012329.001236-.037537-.011307-.03418.037125-.000305.04097-.041351.055664-.07605.057037-.035126-.003693-.046143.009109-.024292.026566.012421.010147.018768.048264.008881.106415.011627.003784-.024445.135452-.029877.347351-.012909.195435-.011322.453079.031067.749802.048584.57135.344086,1.389206.59729,1.700409.047119.038712.004639.017761.106476.122635.08786.092957.17572.188614.261963.268005.173431.172211.340851.312531.507111.434799.330658.248077.659332.416031,1.186249.603088.50708.170471,1.164978.312149,1.703918.40033.518066.085892.860168.117737.930786.112152.148987-.011459.292297.01149.342712.052856.046631.036987.151062.05687.231079.043686.092102-.009506.662354.010986,1.167908-.010696.508118-.020172.951904-.081848.978577-.068863.02417.014725.536926-.053467,1.065796-.244354.649597-.23378,1.385864-.665588,2.043762-1.244034.646362-.565521,1.071716-1.153183,1.241699-1.473633.181274-.315933.198608-.524643.184998-.563828-.028198-.041275-.030518-.049576.003601-.05629.015259-.00058.002197-.014236.015259-.037857.014038-.012604.00177-.026474.003723-.043442.010071-.013107.006104-.033829-.022522-.159225-.084412-.407486-.319946-1.006958-.758789-1.54335-.333557-.434418-.765869-.768951-1.187012-1.00386-.2146-.109344-.427979-.195374-.637695-.254517-.051941-.020691-.105408-.019547-.157104-.034149-.060364-.012009-.065613-.022293-.247437-.050323l-.841797-.143555c-1.110962-.194443-1.96106-.340164-2.571228-.392441-.313599-.032852-.566406-.03891-.797607-.043304-.112488.001785-.219543.003494-.321228.005112-.132629.004974-.088257.006516-.138489.009811-.219849.018738-.3349.050873-.342041.07608-.009583.033173-.048096.031464-.092773-.004501-.062012-.049622-.095154-.037155-.167114.080322-.069336.11261-.104675.132141-.171021.091324-.059875-.036804-.096863-.031418-.127197.02356-.031433.05658-.050293.057434-.075867.003693-.026062-.054932-.039978-.054016-.055969.004913-.022522.082809-.103577.09549-.203857.033676-.035706-.019836-.083984.001755-.108765.04808-.024048.044922-.070435.076141-.102661.068436-.029663-.008499-.115845.041733-.139343.09993.049072.098587-.034973.159897-.119019.107773-.01886-.024094-.041321-.019196-.049683.009827-.017456.072495-.105408.117538-.113281.057938-.001709-.029633-.034912-.03978-.073242-.022324-.038269.017441-.054749.046967-.036072.065887.017334.020477-.038757.069611-.144226.131958-.143372.079773-.206055.089981-.272217.035919-.079956-.066772-.082458-.064896-.03772.022781.026062.051361.03595.101974.022156.112228-.251526.182144-.479309.315628-.521362.28537-.029419-.020523-.069519-.026703-.090576-.014145-.02124.012665-.013855.038971.016724.060303.030273.020615.037781.047379.016785.059875-.020386.012146-.064636.003448-.097595-.019287-.0336-.023453-.102051.000214-.153534.049316-.050873.049423-.114349.075516-.140167.058868-.025452-.016403-.05426-.009338-.061096.016006-.006714.025589-.065552.051392-.130463.058029-.098022.009186-.111511.03009-.073303.11467.044739.106766-.032654.183578-.134857.125351-.028107-.01712-.123169.004608-.191711.045517-.145416.086273-.190704.080078-.178345-.024353.007599-.066742.002808-.072891-.037323-.043396-.024323.01857-.0448.072968-.03363.117935.014252.065414-.001129.06311-.077332-.00708-.065948-.060928-.101959-.068848-.114288-.028046-.009277.032913-.023499.036209-.031128.007843-.018585-.079361-.174377-.130692-.209229-.094238-.028687.026535-.043335.018326-.064606-.038406-.039001-.106506-.071442-.136581-.150177-.121552-.059113.01091-.073425.002319-.08197-.056488-.009247-.059738-.02124-.069-.083344-.056-.064331.003632-.11438-.043701-.147858-.134079-.0065-.063293-.01532-.081375-.074921-.089935-.038544-.010056-.133545-.094467-.257935-.216354-.127441-.12738-.215607-.197174-.245941-.19371-.034515.003448-.06488-.020462-.110809-.094025-.033783-.054657-.069-.09201-.079132-.081436-.030762.031967-.308838-.133957-.313568-.196716-.002563-.042648-.036896-.075012-.140808-.121231-.178833-.088486-.515228-.346436-.595367-.481369-.044922-.082825-.076263-.109055-.120514-.095657-.046417.014725-.058167.005615-.052002-.048233.00827-.055527-.008209-.072968-.098663-.086319-.082794-.011856-.093292-.019119-.039215-.031754.036621-.008865.054047-.035248.027679-.058472-.043152-.037857-.108032-.009796-.153473.067154-.017487.027542-.027069.017136-.388397-.220078-.138947-.091156-.311493-.182632-.38385-.205658-.094482-.029694-.12793-.083984-.11203-.205887.013184-.098663-.013885-.182083-.070557-.196991-.057709-.014633-.076782-.077515-.044983-.157303.050293-.120392.047485-.126602-.074005-.049118-.169159.113724-.547028-.094345-.407776-.264999.066742-.080688.061584-.101181-.023438-.077698-.084808.0233-.121765-.014328-.134155-.157059-.00885-.121719-.074493-.209076-.169891-.250641-.101807-.039078-.13089-.089737-.08606-.136795.043396-.045837.008942-.061462-.092957-.038773-.091827.024521-.197235.037216-.225464.009674-.036499-.032486-.016754-.052521.061829-.062149.093719-.01532.110291-.03009.119415-.141998.007843-.10791-.019989-.113251-.145599-.018707-.109344.084518-.169922.109833-.169586.021851.000031-.067215-.011658-.139694-.025848-.159317-.013-.022903-.021271-.052582-.018433-.067673.002594-.015228-.0383-.079651-.0914-.144012-.052979-.064407-.105835-.168732-.117889-.232544-.011963-.064575-.04364-.12854-.071655-.142746-.100006-.049561-.140076-.319275-.051819-.362656.10849-.05719.034821-.392822-.070496-.402847-.043213-.001724-.027649-.049759.035278-.108002.068542-.063339.074982-.107239.015717-.110199-.066559-.003036-.051605-.03096.045166-.084473.079468-.043854.125244-.09964.102814-.125412-.022064-.026108.007355-.061752.065826-.079834.072083-.022461.07135-.046371-.002655-.073151-.091888-.033264-.080994-.05069.065308-.103973.095398-.034073.160004-.079422.143677-.099472-.065216-.087936.144012-.373749.306488-.418823.163788-.051834.365082-.241989.273315-.265671-.066467-.018265.430695-.369904.514557-.357285.03772.001938.087128-.054047.110992-.126541.023804-.07106.095764-.148361.157471-.165527.062286-.017441.152252-.07988.200684-.140076.131317-.168213.619629-.484543.649475-.433121.031647.054276.274902-.110748.410461-.278778.054871-.071838.249725-.204697.432648-.295959.17923-.092316.326111-.183716.314545-.207123-.01181-.02359.058868-.048676.157135-.055771.129944-.00946.193268-.041748.24762-.120697.04541-.065613.102478-.095535.143921-.076508.039917.018372.171661-.037109.318939-.133835.216034-.130997.303375-.154221.389282-.107651.093994.047852.121582.038254.218903-.065826.067596-.069427.246796-.16217.405334-.206284.157227-.044144.365448-.109497.418762-.145981.193573-.110626.542664-.084839.550629-.00032.010498.044693.042908.042206.096497-.008621.094788-.100769.75238-.252487.713501-.17128-.016724.030731.113953.045807.288208.034668.172668-.012405.327515.007706.329712.030197.003784.02417.11731.033081.251038.021408.133972-.012039.307556.012436.386475.05925.115784.067184.151855.066727.199585-.003174.045044-.066605.094299-.07309.21936-.030426.026489.007401.270935-.004837.69043-.017548.108093-.002869.221802-.005875.340881-.009048.185486-.000504.379395-.001038.581482-.001602.401367.007187.828552.028397,1.266541.066772.87738.076385,1.777832.218277,2.655151.369049.419678.072403.858032.148026,1.313477.226608l.331421.055725.53241.10524c.380737.071121.75354.180542,1.130798.298111,1.510376.471329,2.945312,1.309616,4.208252,2.401428,1.247253,1.108643,2.322754,2.487839,3.084778,4.115997.374512.822601.689087,1.669632.885925,2.622635.230286,1.083511.266357,2.307495.059021,3.452454-.289124,1.555649-.910095,2.863846-1.628357,3.973053-.725525,1.111069-1.562866,2.042969-2.475952,2.865265-.917847.815933-1.917175,1.526703-3.05127,2.127319-1.130005.600281-2.356384,1.042053-3.572571,1.302811-2.451843.539108-4.753845.394821-6.729492.096313-.988647-.157349-1.898987-.335876-2.945953-.632401-1.030365-.29718-2.134064-.739136-3.131805-1.337662-1.000275-.592636-1.848083-1.303726-2.535217-1.98436-.165405-.171616-.328979-.34137-.490723-.509186-.194305-.220215-.396027-.464111-.582184-.696854-.34433-.465302-.637329-.926788-.878479-1.374359-.944733-1.790497-1.286407-3.393784-1.438446-4.80217-.062988-.706726-.075134-1.360046-.036957-1.958115.025421-.302872.035156-.575287.081268-.848053.030853-.202301.059296-.388916.085236-.559158.0466-.28331.090118-.466293.090851-.513611.009247-.175919.084381-.540619.19928-.819229.113617-.295349.157501-.445709.099304-.373703-.074646.093567-.094299.061981-.07901-.146942.01825-.180511.064606-.283905.111786-.291321.043091-.007523.138489-.190033.239594-.442078.112915-.29335.227509-.423981.328735-.50174.136658-.090424.137726-.102722.004517-.108307-.122803-.0047-.133331-.049164-.050354-.251678.123657-.297562.346619-.505035.363617-.378937.023438.140503.196136-.213959.19696-.394363.001984-.13475.015137-.146088.089172-.093109.084534.058884.303955-.147736.327728-.307098.014099-.129227.324127-.499527.3284-.407257.00415.108826.051422.045197.248749-.304764.08902-.171173.360168-.457657.587311-.659836.22995-.194977.436371-.383652.449097-.442444.017609-.072403.049561-.095306.106903-.076416.045135.015472.126282-.033997.184814-.098862.070435-.080475.101257-.087875.090302-.023102-.00943.058456.033966.062073.108521.008972.068146-.048477.109619-.108078.092499-.132477-.0177-.024826.072266-.107819.200775-.184143.128143-.079422.263672-.179825.300964-.242264.078308-.127686.295471-.189972.267426-.077194-.016541.065689.324554-.167694.587677-.370667.051453-.040802.10672-.049774.122284-.019302.015289.029739.058289.01973.095245-.021957.036438-.041351.085571-.03833.107666.006577.031677.064209.078613.04776.205444-.051727.182465-.148117.678833-.355713.932648-.37175.096191-.009857.232544-.084869.335846-.183304.108765-.100815.202972-.14328.247406-.118622.039398.022461.101257.014923.138702-.017227.038116-.032608.077301-.029877.088318.005554.021088.063507.424164-.081894.579071-.195969.043701-.034378.10907-.030396.144806.007065.043152.045593.150238.037216.315613-.022705.136841-.045685.279266-.062347.314423-.040009.035004.021957.208282.060822.382294.08815.247498.038757.312744.091019.315704.203751.002472.112335.040588.140823.16449.121704.122864-.018875.155701.004929.137207.100052-.013245.069183.007629.12056.046143.114731.038696-.005844.044312.064392.014404.156815-.033875.104156-.023254.188019.027313.223328.045074.031128.12085.171814.168701.313522.04834.142715.157471.345581.242126.456879.12854.170837.138.222931.072571.320435-.043152.063278-.062195.134384-.042908.154526.019348.020157.071472.19046.11499.37912.044067.188004.115967.374084.161194.414291.053345.048172.058167.076675.014404.081238-.074219.007782-.006958.553665.068604.597626.025696.014969.070862.119263.098816.231018.028503.111649.076416.263031.10614.334793.029907.071793.028259.169632-.002319.217499-.054016.082413-.003784.580612.053101.57518.01532-.001587.063782.285751.106445.638428.08374.686203.139771.950882.22467,1.062561.029724.038528.049744.160324.045715.271744-.003906.111404.014709.237823.040283.282104Z"/>
  <path class="uuid-b18f40ba-f957-4369-8082-6b06d3914a78" d="m123.004944,54.204643c-.003845.138733-.094055.399776-.124084.397598-.015747-.001492-.034485.020405-.041748.048801-.013306.051208-.042725.088734-.092285.11137-.041931.017265-.114075.023304-.281189.044846-.08075.003365-.168213.034367-.198914.082043-.023987.040348-.066345.066029-.095642.05751-.029663-.00909-.070312.005531-.089905.033531-.019897.027142-.054321.018665-.078735-.019093-.030884-.048012-.0495-.05006-.059814-.005283-.006653.032661-.035461.047073-.058899.025318-.066345-.060413-.211731-.037296-.256409.041183-.030579.053707-.036255.051773-.024658-.006897.008789-.044407-.00116-.075424-.023865-.07299-.022034.002357-.039978.056831-.039795.121723-.00116.094204-.017639.107208-.099548.098137-.06073-.005543-.111572.021294-.118774.063564-.009216.053909-.029541.05711-.079834.011246-.0401-.036697-.074158-.037285-.081482-.001694-.015747.075249-.235901.133228-.255188.077377-.006714-.026722-.052246-.009766-.101196.036377-.04895.046406-.122498.087486-.165588.091793-.045593.005009-.065552.037388-.04718.077629.017883.040108-.007385.080154-.060669.094601-.050842.012569-.101685-.002884-.113464-.036934-.015137-.045944-.029724-.039501-.051331.023098-.019592.056282-.044373.069527-.072327.037811-.023621-.026585-.064331-.023064-.089661.007671-.025391.030746-.073975.025612-.108093-.010582-.044739-.047874-.055542-.047077-.037109.00362.014038.038776-.003784.081806-.03949.095074-.055664.020836-.053772.029202.012085.058407.061096.026897.059082.040146-.009155.065594-.047241.016525-.107239.067444-.131531.119488-.024658.049381-.052979.069317-.063538.044582-.010376-.024868-.196045.033287-.415527.122353-.284668.143513-.421265.186142-.547546.163601-.119934-.02282-.206482.018017-.308716.101334-.079285.067719-.159729.115246-.179382.106586-.01825-.008007-.12439.041611-.210327.123505-.095459.082081-.191528.124275-.226013.102833-.032471-.020554-.063721-.008968-.067932.024548-.000549.019924-.064514.071232-.13916.158573-.018005.016617-.575012.530888-.585266.611305-.032104.020348-.079346.150909-.07428.25193.061951.161716-.110901.03273.512085.755585.520386.557247,1.239807.995399,1.322083,1.001389.093872.025005.167664.079285.185303.125404.014099.044716.073242.088554.130615.09655.090942.056374,1.510315.622208,1.557434.6404.01123.024166.443359.173054.964661.283421.653564.131294,1.401917.193428,2.008728.154114.615417-.033905,1.051208-.165688,1.306946-.248005.232849-.086533.398193-.216042.434143-.267319.022583-.065063.064575-.097687.092773-.085011.020691.01923.124512-.076069.250488-.192905.08429-.09338.292725-.38406.408203-.877964.135193-.475765.137146-1.057434.081543-1.428387-.058228-.369408-.157715-.569458-.157715-.569458-.03064-.037727-.031372-.062428-.079224-.108696-.047424-.059029-.248596-.238876-.398132-.370575-.185608-.147209-.356201-.282536-.511841-.405987-.137756-.09713-.262268-.184914-.373535-.263359-.224121-.154446-.367493-.215801-.387573-.203999-.031128.017742-.068359-.013641-.088806-.075306-.028198-.085571-.070801-.099869-.214539-.070889-.138672.026962-.189331.016998-.225464-.063568-.033081-.072071-.073486-.095093-.136963-.07843-.066895.01741-.084656.003479-.070679-.05545.014221-.060192.001282-.070061-.053711-.039215-.077148.043339-.160095-.009548-.20636-.130421-.015564-.042835-.071533-.059715-.124268-.04414-.05127.015633-.112122.005196-.133911-.023464-.022034-.029072-.116028-.046478-.209229-.038548-.187561.008533-.524475-.116405-.522034-.205215.000977-.032444-.028381-.05151-.064758-.043056-.094788.022465-.220215-.032478-.170471-.073429.023438-.019161.003845-.054829-.043274-.078434-.04718-.023819-.08606-.020229-.086304.007393-.000671.026649-.097229.01408-.214844-.028042-.164856-.060059-.212097-.103004-.211853-.189667,0-.105293-.003052-.106087-.041077-.015373-.0224.053066-.054443.092854-.070862.088482-.284119-.06036-.480469-.128742-.485596-.184807-.001526-.035492-.018494-.069576-.038086-.077053-.01947-.007313-.029785.01936-.030945.053192.000732.034813-.013306.058113-.028809.054794-.01532-.003506-.027893-.037319-.027893-.074699.000122-.037338-.041809-.065807-.091187-.06477-.049194.001656-.090027-.02256-.091492-.052036-.001465-.029175-.017456-.043129-.034729-.030563-.013672.015652-.065369-.018047-.080933-.048328-.025208-.048092-.03717-.040165-.060425.049232-.030396.112625-.072815.121231-.076843.010757.005676-.028885-.046082-.082298-.050476-.090023.011658-.016113.017212.036671.025208-.136177.002319-.044476.002625-.054569.001648-.032646-.000977.024784-.005066.099461-.004639.049545-.001221-.049931.002869-.05703.002869-.05703-.000305.093689.011292-.215435.008179-.305347-.004456-.140987-.003418-.107513-.009521-.300945-.016113-.194923-.019653-.238407-.030518-.369793.007019-.101898.00647-.149529.005554-.103241-.007874.126995.017639-.13562-.018433-.414036-.026611-.19072-.0354-.213688-.014771-.103489.025574.205269.031433.177444-.022766-.122665-.051941-.225224-.061096-.239746-.020447-.090141.032166.149342.034302.13504-.02356-.090298-.044617-.159081-.084167-.250256-.073669-.239529-.007141-.013954.007263.030132.056519.18026.049011.173176.048828.180893.012817.043858-.008179-.025898-.026184-.082684-.052002-.164349-.003845-.005844-.022949-.062496-.022217-.101536-.009277-.058792-.011169-.064106-.002869-.018921.005066.033226.00531.036781.001343.008255-.012939-.094414-.055969-.209694-.029907-.131321-.016785-.030102-.028809-.075672-.067017-.172699-.0672-.177589-.276062-.555935-.302002-.701553-.015808-.088596-.029602-.126366-.065857-.139454-.038391-.013786-.046021-.026611-.026794-.065506.019531-.040184.013672-.063679-.052246-.120258-.062683-.052052-.069519-.062927-.021545-.045723.033569.01244.049561-.00383.037292-.036034-.019409-.05228-.078613-.058636-.144043-.020374-.024475.01384-.026489-.00124-.265564-.364758-.092102-.139664-.218079-.292545-.278687-.342323-.078979-.064781-.088745-.125889-.014526-.22982.060303-.08382.076538-.17136.027893-.208195-.049866-.036797-.036987-.102451.037537-.163166.117981-.09528.11908-.101482-.047729-.075657-.229248.036396-.512756-.297665-.269897-.409245.115784-.050941.122864-.07222.020386-.082874-.101807-.010162-.120056-.059628-.047974-.201118.061096-.117668.05719-.235313-.025452-.306393-.087219-.07394-.088623-.13295.001465-.169807.086121-.034443.058228-.062263-.080811-.068748-.12262-.005367-.239563-.034649-.2547-.070415-.019226-.04483.015137-.057789.106873-.038464.108398.022209.15094.002563.247498-.109482.096252-.109585.067932-.126472-.161316-.063694-.195984.055668-.263184.049816-.210754-.033665.041687-.06472.080444-.142246.081909-.169273.002686-.02829.016907-.062576.032959-.077988.015869-.01561.018799-.096336.007019-.180618-.011841-.084278.011658-.211468.052856-.282856.041748-.072144.05896-.149281.03595-.173012-.09436-.075996.133423-.397995.245056-.375881.149048.007992.38031-.338287.253601-.394375-.052002-.021648.01062-.058563.142029-.080559.142883-.023491.191833-.058491.121094-.090652-.079834-.035172-.035339-.053616.134766-.052025.139404.001667.248291-.021786.245178-.055847-.003479-.033752.074951-.051628.172424-.037663.1203.017166.144836-.003544.074341-.065369-.099243-.071495-.029968-.096954.174683-.045731.13092.034779.238281.042622.23822.016747-.004333-.108044.493347-.191833.724609-.11507.252258.065571.583618.088524.520935.003529-.048218-.06366.722778.067253.798889.138393.03302.029724.135071.027748.216919-.001419.07666-.027634.196655-.020527.261353.01635.065857.036827.191406.065945.281189.064625.257568-.007668.904846.168934.867493.229671-.020264.06131.2854.145081.516724.143227.095032-.00061.349304.059555.528259.144978.186462.08289.345825.13158.356201.107616.010376-.024281.073303.012329.140076.081348.087708.090523.153442.119091.244141.105076.075256-.0117.131226.008728.141846.051071.008972.041271.121643.100471.2724.142834.202393.057446.262329.098583.27533.189342.014404.095051.040955.112293.155334.097801.075623-.009102.220581.031952.317993.092915.094543.062443.208496.11541.253174.117413.113647.005646.329468.239754.287964.312912-.022278.040104.001709.058903.072327.054974.13739-.012169.67627.286373.595459.320496-.030945.012928.046204.105228.169983.20438.123474.09985.214355.198799.201538.219254-.013062.021042.058044.092861.155029.162468.096313.071632.195801.196827.219849.276054.035645.118172.060547.138474.136475.111229.072083-.02626.109192-.003384.167114.100822.007507.013588.07312.064865.189331.149265.165833.123447.401306.298782.696777.518761.539124.413773,1.154053.878819,1.968628,1.704567.925964.898338,1.859192,2.449772,2.235657,3.858013.419373,1.448738.559814,2.970634.390503,4.531502-.169861,1.561024-.604919,3.191849-1.610779,4.8396-1.033813,1.714157-2.643311,3.042191-4.395996,3.847206-1.751099.80513-3.550293,1.098541-5.222046,1.118874-3.358582.005005-6.336182-.932739-8.99231-2.490959-1.330261-.804741-2.5047-1.758797-3.538208-2.938732-.257141-.295635-.504456-.603912-.737366-.937138-.11908-.159008-.229309-.32642-.341736-.510883-.135071-.216724-.278809-.445133-.37738-.647789-.439392-.830513-.746399-1.69001-.924255-2.541466-.341064-1.706829-.121521-3.362709.461426-4.674603.108887-.343769.290466-.644917.450745-.94334.168884-.295689.2995-.591961.486572-.858418.437988-.593895.728882-.972298,1.022827-1.270058.293457-.312252.564026-.604794.807068-.808956.16687-.149986.312195-.280609.434326-.390396.135742-.128674.219116-.20771.245483-.232685.092773-.108795.322693-.300903.509338-.423786.201233-.133064.29071-.212444.219421-.197533-.092346.019245-.094482-.014622-.004395-.150658.076782-.118515.138855-.158989.177551-.135597.034241.021034.162659-.045742.31311-.162189.166016-.128845.311829-.198471.413818-.198429.138489-.00005.143372-.009552.039917-.084061-.095459-.068661-.08844-.109371.043335-.227509.195801-.16729.429626-.222752.406311-.111927-.024414.125214.220947-.071674.273987-.217716.039917-.110157.052368-.114967.096252-.034626.050049.090237.280212.019226.341187-.105217.046265-.100445.39032-.266609.368652-.190708-.024658.09465.03064.062801.273987-.150982.115967-.098808.389221-.263515.620789-.34296.231262-.079422.438416-.180515.461182-.22728.02948-.059166.06012-.068207.103027-.030094.033569.029377.110229.017818.171021-.025402.073669-.052319.100281-.049358.078491.00774-.019409.05164.015381.069187.087036.043438.065491-.023506.111145-.066212.101807-.094524-.010559-.030193.081177-.076435.205811-.101479.124207-.025757.259521-.083885.303406-.130589.091553-.096748.287537-.091339.241943.006912-.024963.060696.303894-.064777.57666-.193016.054016-.024178.105042-.017147.112732.016171.007629.03257.047974.035168.089294.005894.040771-.02911.083984-.012512.094727.036366.015503.069386.060303.06974.194946.002186.196228-.096653.674377-.18993.93335-.143608.094421.013271.241516-.027111.361877-.098152.127197-.075077.228821-.099773.266479-.066177.033386.029892.095215.034782.138733.010635.04425-.024448.081726-.013977.084656.023006-.002686.059895.452515.025024.64563-.056473.054504-.023651.122253-.004955.150391.03965.033936.05423.148376.07032.337036.050175.153992-.019646.316772-.002876.353821.032043.033936.03088.221252.11681.411438.193699.270813.108921.333069.171776.301331.2827-.031067.108982.004089.146255.151428.160965.14624.014847.176086.046841.125549.13316-.036438.062904-.028564.117924.016846.122723.045593.004879.029968.073818-.032349.15456-.070312.091011-.083801.174561-.038147.221981.039612.039829.08429.201195.094971.353951.011047.152802.070923.387024.130859.522999.091309.206703.082886.259037-.02301.328594-.069885.045433-.113403.104996-.098633.131237.014893.026527.017883.205189.003601.398834-.012939.193115.002625.393429.036682.446571.0401.063419.0354.091934-.011719.08168-.08075-.017487-.185486.522507-.125488.58831.020691.022465.031128.135704.021423.250313-.008972.114723-.013489.272884-.009644.349873.003967.07708-.030396.168987-.073669.205093-.076599.06155-.18811.549789-.139099.560783.013611.00293-.037903.289185-.116882.635334-.152405.673798-.197876.938995-.182434,1.062649.005798.04277-.022156.162136-.059998.267246-.037598.105145-.066956.228989-.068176.275433Z"/>
  <path class="uuid-b18f40ba-f957-4369-8082-6b06d3914a78" d="m125.042114,67.505341c.14325-.08242.416199-.049545.412842.048981-.001587.048553.021423.089355.05072.090393.106628.003311.150269.257126.175354.990387.008606.199257.046143.400803.08429.447136.037659.046349.05896.130829.047913.188148-.011719.057793-.000122.138252.026611.179749.025757.041924.015442.110291-.023254.153442-.049561.054733-.05127.088707-.00647.115791.034607.021042.042297.069016.017151.105072-.071411.100937-.07019.340439.002136.432823.049194.063202.046631.072426-.010132.039185-.042847-.024979-.07489-.015656-.075439.021843-.000488.036308.051392.078979.115906.095543.091248.023529.109253.064026.081482.187492-.020813.091072-.005432.174072.03479.196777.050903.029228.049805.061317-.005127.122375-.043945.048653-.051086.098366-.017578.12059.069824.046555.090271.398491.023376.399048-.027588.000191-.024414.06871.006104.153152.030701.084496.049744.202675.044739.261971-.005981.063637.020935.103394.064453.094383.043213-.008514.076294.042091.078308.121101.001892.075294-.026855.137085-.064209.137985-.04834.001122-.047058.022491.005127.076668.046875.04892.051453.087311.012512.110352-.032776.019524-.042419.073822-.02124.120003.021118.046394.001099.107353-.043884.135147-.059448.03643-.062012.050377-.008057.049393.041199-.000786.07666.041695.078369.094017.005066.079681.013794.081322.059692.011024.044434-.067047.054504-.057121.061096.041496.004028.067871.037659.167854.074951.222801.037292.054558.046021.100113.019104.101418-.026794.001213-.038513.262245-.027283.579147.026733.42157.015686.608055-.051025.744102-.059631.125313-.076965.260918-.034851.425735.031189.132271.044434.253983.028748.271072-.015015.016548-.005371.163956.021973.327255.025635.17292.026794.311569-.006531.335457-.032349.022911-.034241.065948-.004517.093674.038391-.543968.234497,2.988655,2.124512,5.639236.092896.149918.250061.350685.396179.534515.145813.177719.280579.341988.397461.484398.236206.282166.412598.460648.45459.493233.091553.064461.157104.149681.157715.202171.000427.050117.045288.116943.099915.147865.112732.089966,1.235413,1.212837,1.24353,1.261665.000854.012367.083313.098289.21521.227364.130676.133072.314941.29467.516418.46656,1.016418.887344,2.353821,1.712196,2.966309,1.938011.301331.138535.566162.1875.700562.20182.139343.004723.270813.035789.296143.069351.009521.01889.311218.104691.809326.217941.502808.109039,1.212952.236038,2.024231.337532,1.615784.207138,3.494263.30397,4.037354.335297,1.393555.057617,2.446838.101173,3.160461.130676.178589-.000938.314453-.001656.408325-.002151.046448-.004044.082397-.007164.108337-.009422l.004639-.000778.00061-.000099.000122-.000023-.039062.877205.000122-.001625.000549-.006424.001038-.012581.003723-.046661c.002075-.028496.003967-.053627.005615-.075722.002502-.036461.004211-.06076.005615-.081047.007935-.187241.013916-.32959.027954-.65995.013489.052719-.017944.050453.030396-.059959.043152-.10627.062012-.121841.100952-.074242.029968.045006.068298.037323.094788-.013992.028198-.053955.044067-.053307.064453.002083.020813.056625.032837.05677.047729-.000496.022034-.081001.084412-.083664.187866-.023819.033752.021996.08136.003563.107117-.040947.024963-.043152.071045-.07122.101929-.06147.028809.011757.108887-.036354.171692-.102608.1203-.1278.469727-.248207.531982-.178802.020752.025482.057129.021194.081055-.008736.060547-.07618.204041-.122787.189575-.057747-.006714.030319.033569.043655.088745.029137.055176-.014503.085815-.043503.067444-.064438-.018127-.021271.079285-.072113.21814-.117058.196716-.066643.270874-.066917.3302-.001106.072266.079666.075378.078247.049011-.016556-.015381-.055504-.012451-.107643.006042-.115677.337158-.147942.623474-.23587.661194-.199539.026245.025719.068176.039009.094727.030159.026794-.008919.026367-.036606-.000732-.063354-.0271-.025978-.027588-.054108-.000977-.062965.025818-.008614.071594.007835.10083.036438.029114.028641.112427.019646.184143-.018929.069702-.040359.145996-.055237.168823-.033806.022705.021202.055054.018967.070984-.004868.015869-.024071.089905-.038002.164001-.031677.112427.01075.130371-.009041.11676-.101273-.017822-.116692.101807-.178802.19519-.10051.026123.022438.139221.019768.233459-.009781.204651-.061867.253113-.047562.196167.057793-.03595.067116-.032776.074242.025024.051491.036926-.014664.077332-.066345.090454-.115707.019653-.071205.036926-.06662.094971.019852.050354.074982.089355.089439.123535.048134.026794-.033485.045288-.034775.040649-.003304-.01355.086662.132874.170341.227051.128822.060974-.02784.068054-.01609.063477.050102-.025269.12532.012329.160759.116516.154968.07782-.004295.089539.007515.067932.07412-.021301.067459-.01123.079193.068909.074211.11377-.006523.153809.052277.105469.16983-.03009.071823-.024292.091339.038086.111366.046448.015404.123535.120613.201477.276001.080505.161179.150024.252182.19342.252678.049622.000786.071106.032974.078918.122879.005554.066536.026062.113556.046021.103806.069397-.031677.273804.208542.253113.276642-.016113.045975.005859.087631.09198.161026.15387.132622.389221.491318.401855.650879.007507.096199.028198.130783.081787.130775.057129-.000847.064392.012115.031677.063377-.033875.052521-.023438.074059.062744.11512.080078.037796.087036.048431.026062.043274-.043579-.003616-.066162.018539-.050049.049004.025879.049286.100281.042274.181519-.016541.029175-.020676.036316-.008698.283936.345467.095154.136192.219421.286301.276062.335709.074402.064056.084473.127251.030884.231003-.043701.083946-.044495.169006.001282.204475.046631.035736.044495.099319-.006226.157646-.080139.092468-.078247.09726.051331.072548.181946-.034485.442627.306328.281433.396385-.077271.042976-.077637.062897.000366.077133.077881.014511.098816.062721.075317.191055-.019958.107109.010681.216751.08429.287071.077454.073776.091187.128464.038269.157616-.050842.027939-.024658.054253.071289.068321.084656.012398.170471.050148.188477.084511.022888.043182.002808.051567-.063293.026474-.077515-.028999-.103394-.012428-.138306.084946-.028381.089714-.012878.112518.122131.06868.116272-.037819.162659-.024094.147156.047333-.012451.055763-.018616.124062-.012817.148796.005249.02581.004578.056229-.001831.069237-.006287.013206.01239.087273.04187.165512.02832.079239.049866.19175.047607.251671-.002991.060936.01062.129189.03064.152763.07135.083389.054016.332878-.024475.335426-.093933.002464-.11615.348228-.023804.389427.037048.01609.012756.055222-.054565.088089-.074402.036713-.08313.06929-.036194.095108.05426.027397.036926.046555-.052368.05851-.073364.009789-.120911.042953-.106873.074059.014099.030891-.01947.055092-.074219.053391-.067688-.00177-.072083.020775-.013123.069054.07312.060028.059998.072685-.078735.076378-.090393.001839-.15625.024124-.146057.04789.041504.098892-.195923.298607-.350647.295784-.154297-.000916-.373657.124069-.295898.171799.055725.035118-.45636.227638-.532654.199394-.033569-.01207-.088989.027763-.12439.090179-.035156.061317-.114319.114525-.173523.11541-.059937.001427-.153687.039497-.209167.085625-.15155.124992-.650757.312607-.668945.256927-.019714-.059944-.269104.041008-.419617.17231-.063599.054741-.256714.143082-.435303.188866-.177551.047501-.31604.106087-.309021.131226.007202.025406-.057678.034798-.144409.021156-.113586-.017532-.178589-.002113-.233154.063499-.045654.054214-.097046.071472-.130127.044533-.031738-.025986-.149475.000885-.284119.065308-.181335.085861-.255432.089951-.321106.028671-.070557-.064339-.101196-.060875-.176941.022476-.050903.054939-.1828.114182-.295593.129486-.115662.014534-.240417.048851-.2771.076576-.094299.069962-.416077.033691-.434204-.049896-.008545-.045097-.041626-.044182-.098694.003937-.10199.092537-.775024.221153-.740784.14135.019897-.030022-.119873-.050644-.308228-.047562-.179871.00386-.363708-.019554-.366577-.043854-.002319-.024361-.137146-.038651-.297852-.034584-.147583.006912-.377319-.033791-.494751-.088242-.155334-.077698-.205994-.081367-.285828-.017097-.056152.061104-.190369.061996-.275452.003479-.010986-.007629-.078796-.016907-.196411-.027565-.154602-.010017-.374207-.024239-.649719-.042091-.934326-.04747-2.247559-.114197-3.814758-.193832-1.608765-.102753-3.523865-.245834-5.681946-.620682-1.110718-.211914-2.130615-.391228-3.583679-.914169-1.326416-.495041-2.508301-1.151833-3.572449-1.869347-2.125061-1.444824-3.814758-3.120644-5.253662-4.762093-.358643-.411568-.699524-.822998-1.026367-1.23056-.163086-.209816-.324524-.417511-.48407-.622871-.172791-.243637-.343567-.484497-.512146-.722328-.667053-.958504-1.170044-1.92926-1.597534-2.835136-.820129-1.825005-1.213379-3.395126-1.457764-4.503624-.278992-1.290413-.260254-1.337013-.303711-1.438087-.047974-.112053-.110046-.361534-.121033-.546593-.012756-.200081-.036743-.29641-.059448-.237411-.029724.076363-.059875.065201-.131836-.05172-.061584-.099846-.073486-.16291-.034424-.183762.03418-.018379.032349-.14135-.004822-.298958-.041321-.173981-.03949-.310898.005371-.390038.063721-.10614.0578-.113083-.055847-.059357-.104858.049515-.13739.030075-.180969-.109924-.063232-.205894-.023499-.405457.069641-.350792.104187.060524.025269-.195793-.08667-.28392-.084351-.066483-.08374-.077522.007446-.086075.102783-.009903.130859-.213326.041382-.300194-.070923-.069115-.099854-.38282-.036682-.344254.078552.047462.070068-.00573-.038879-.257164-.05188-.118469-.09613-.378944-.099792-.580002-.005249-.202515-.028687-.383469-.067078-.41349-.046387-.037148-.045044-.062759.004883-.086525.038635-.018654.052429-.080658.030945-.137924-.02594-.069298-.014648-.089149.032471-.058777.042664.027267.070435.004517.068909-.057228-.001404-.056389-.027405-.101791-.057251-.101097-.030457.00074-.048401-.080048-.040588-.180206.008057-.100349-.012817-.216209-.04657-.25943-.070679-.090858-.010864-.23555.070923-.182343.049011.032265.026306-.245758-.038452-.470589-.012329-.043953.005066-.080322.039307-.080429.033447-.000122.044312-.02961.02417-.065056-.020142-.034973.004883-.064232.054932-.064293.071045-.000122.080688-.033669.041565-.144745-.059021-.162186-.043213-.532295.027405-.704308.026062-.06559.005493-.17498-.049683-.267273-.058228-.097488-.070435-.171249-.032532-.19519.033752-.021179.046021-.064888.027161-.097778-.019043-.033432-.004272-.05928.032837-.058601.067993,0,.054077-.307785-.018494-.438034-.02124-.037102.000122-.081161.045776-.098358.055481-.020584.076233-.096817.061646-.223434-.011902-.105286.002197-.209923.032104-.230949.029114-.021011.105164-.138084.169067-.259682.090332-.172974.148132-.213646.261108-.198242.110901.015656.145874-.008179.149109-.103531.003174-.094398.032227-.115654.122681-.088043.065735.020027.119995.011818.121033-.01828.001038-.030106.071167-.024544.15686.011803.096558.041168.180969.045837.22467.011734.038574-.030319.190369-.069069.338318-.086815.148621-.0177.368774-.076591.491516-.131577.186523-.083504.23938-.0858.327148-.016434.057373.045631.123657.072044.14679.058517.023438-.013519.198547-.034081.391418-.045525.1922-.011787.386169-.050163.432129-.085915.054871-.041893.083801-.042595.082397-.001854-.002319.068474.547363.087036.601196.020615.018311-.022385.127747-.050949.242249-.062599.114502-.011963.270935-.038223.34613-.058281.075256-.020103.171936-.005196.215088.032852.074219.066528.574463.090256.577026.027962.000549-.016518.29187-.026527.647095-.022026.691284.008537.961365-.018822,1.084717-.109764.042542-.031715.166199-.039993.275879-.018204.10968.021729.23761.016716.285461-.011093Z"/>
  <path class="uuid-b18f40ba-f957-4369-8082-6b06d3914a78" d="m72.552307,138.269485c-.109314.134338-.379211.185181-.408752.075073-.014465-.054047-.049866-.091965-.078064-.084122-.098724.030548-.237335-.241165-.486298-1.046738-.065338-.219559-.159149-.43486-.20932-.477188-.049713-.042343-.094543-.131836-.10022-.198792-.005096-.067612-.03949-.154984-.077118-.195145-.035675-.040359-.042999-.118759-.016235-.175552.03418-.071747.027893-.111008-.022369-.131241-.038879-.015839-.058075-.068436-.042389-.114807.044983-.130096-.014282-.399185-.107483-.488815-.063538-.061356-.063263-.072372.000336-.046371.048035.019409.077148.002243.068542-.0401-.008331-.041016-.069489-.078644-.136688-.084488-.094391-.008087-.124451-.051453-.122986-.195816.000397-.105988-.031677-.197998-.075531-.217148-.055878-.0242-.06134-.06163-.019592-.141937.033447-.06398.030518-.122299-.006958-.141998-.078064-.041107-.169312-.444534-.103302-.455673.027161-.004639.010315-.082886-.036865-.175507-.046051-.092361-.085297-.225098-.088928-.296631-.004028-.075592-.036896-.118622-.078552-.102112-.041504.015961-.082184-.039291-.096588-.132416-.013702-.08876.005127-.165329.042053-.170975.047791-.00737.043182-.032211-.01709-.089706-.054199-.052002-.064819-.096924-.029694-.128555.02948-.02681.030609-.091721.002319-.143738-.02829-.052322-.017944-.126328.022522-.16362.053497-.048935.053894-.065445.000305-.058838-.041199.005112-.082886-.041321-.091156-.102692-.013641-.095367-.022461-.096802-.060608-.007553-.035248.083282-.048218.07457-.065216-.044464-.011353-.081787-.055573-.199921-.098694-.263672-.043121-.063248-.056763-.118088-.030121-.121643.026611-.003632.01004-.320831-.035797-.703506-.056091-.520401-.050354-.753983.007629-.920914.054138-.155426.059814-.31665.017303-.527939-.032806-.167816-.043243-.322525-.028015-.343109.015137-.020157.006561-.206085-.019958-.413269-.027161-.217239-.021088-.397018.014221-.424759.033508-.026123.037537-.081009.009155-.119919-.016022-.022675-.041931-.15213-.064819-.373627-.019135-.239151-.042145-.526802-.068665-.858498-.036255-.425964-.050415-.915398-.077271-1.453018-.040588-1.079491-.063812-2.368477.006073-3.852791.026031-.738129.089935-1.532272.177856-2.370918.055969-.426109.094177-.848648.171753-1.301315.03891-.225914.078156-.453903.117737-.683868l.060883-.346123.100555-.445122c.284851-1.132751.563904-1.856911.779388-2.46344.216705-.58448.364471-.976547.385406-1.060593.043304-.176147.116943-.338402.17569-.3862.055054-.045433.116669-.163063.136536-.262054.030426-.228134,1.124817-2.650864,1.213867-2.696655.030762-.021454.380981-.719948.825317-1.560814.287109-.533348.594971-1.099182.98468-1.722.178223-.297829.417908-.646477.647461-.978668l.449768-.581879.245911-.303604c.588867-.720535,1.170959-1.551163,1.605652-2.150658.394226-.549423.853149-1.218422.97821-1.434822.117371-.213493.278015-.425194.334839-.45755.033508-.01667.369568-.472443,1.052979-1.248886.335815-.384544.788086-.856613,1.34967-1.368393.576294-.509132,1.325623-1.078171,2.189392-1.552284,2.30896-1.289558,5.040466-2.318092,5.802368-2.563232,1.001221-.350571,1.881165-.610542,2.635559-.825325.676208-.183228,1.243164-.336876,1.701111-.460968.363892-.095711.551392-.157249.561707-.184769.013489-.036072.078491-.045662.154297-.022408.105164.032372.157837.007912.272461-.125961.111877-.130043.172852-.159752.279663-.133156.09613.025024.155823.010986.204956-.047775.051941-.061821.082092-.065529.118652-.014458.037354.052177.058533.049377.087524-.013046.040527-.087532.170898-.113487.318726-.064491.051086.017242.124329-.008659.166321-.05809.04071-.047874.113892-.084023.160645-.079041.047424.005104.161011-.04985.2547-.123062.186584-.144073.673279-.277046.743103-.205864.024475.02536.072937.020172.108337-.010834.091858-.080978.281067-.124619.253906-.05941-.012634.030563.03717.044548.109497.030525.072327-.014008.115601-.04306.095276-.064484-.02063-.020569.112976-.074867.295593-.114082.256836-.054878.34967-.050896.411499.019051.075317.084679.079224.083488.063721-.013695-.009094-.056885.004028-.109299.028564-.11631.446106-.123596.818604-.186424.857361-.144386.026489.028557.074951.046341.109619.040268.034729-.005608.04071-.033249.013733-.063332-.027161-.029289-.021301-.057419.013489-.062965.033813-.005394.086121.016693.114929.048897.02887.032257.132385.033569.229309.00399.096619-.029984.194946-.033798.217224-.009155.022278.024399.062622.026878.088623.005424.02594-.021706.120911-.024933.209778-.007942.133362.026451.164429.011383.174683-.082947.012939-.118767.185425-.161491.277466-.06839.027954.027199.163086.04084.300171.029175.290833-.021545.346741.002663.233643.095474-.071411.059166-.069702.066803.013.055862.052795-.007133.124084-.050262.160156-.096649.051697-.066925.075989-.058609.118774.03907.037048.084671.084351.107452.150391.07402.052368-.027321.078613-.024689.057739.005455-.0578.082611.10437.197052.249023.17617.099365-.014336.113281-.000526.064209.063538-.092102.118874-.070618.160889.090698.179787.120789.013893.130371.02832.060303.089005-.069946.061363-.060303.075279.060303.089447.171204.020218.191833.088272.058655.192604-.081909.063347-.083008.08371-.006042.118782.05719.026505.107483.148979.131897.321098.025391.17836.070557.285355.125366.29715.062866.013611.073364.05085.039551.140846-.025085.066513-.021545.117783.007507.113594.095703-.013809.252441.280327.18103.339226-.047913.039192-.039307.085587.033813.182541.130859.174301.222229.593239.164917.748566-.034729.093513-.025879.132957.032227.150993.062439.018372.063965.033157.006897.070541-.059021.038109-.055603.061775.018127.129837.068054.062927.070435.075409.009399.04966-.043945-.018303-.076782-.00518-.072021.028938.007751.055107.086914.074249.193787.046753.037781-.009392.042236.004013.138123.424576.036682.161713.092712.347252.124268.41423.041992.087143.026733.150063-.054688.226936-.066284.062103-.093567.140762-.065979.190582.028076.050453.005981.108658-.053772.143898-.094482.056076-.093262.06105.021118.08622.162415.035515.260681.450569.112366.471977-.071655.010353-.076904.028587-.020508.071266.056213.042961.058044.095482.007629.204613-.042297.090973-.044983.203354-.00769.296127.039062.097466.03595.152931-.008545.159355-.042908.006203-.029419.040268.035645.09008.057495.043983.108582.112076.113281.150604.005981.048492-.009521.048256-.049866-.00042-.047852-.056503-.069458-.051857-.11554.024811-.045349.076111-.031433.097794.071228.109596.088196.010452.116394.041435.090637.100632-.020386.046127-.038513.106186-.039612.13105-.001709.02565-.008179.053215-.015076.062592-.006836.009628-.00885.084641-.00415.167625.004395.082962-.004272.195457-.019043.250885-.015198.055946-.019653.124443-.010315.15345.032715.102829-.029297.329575-.084045.304688-.067322-.030235-.14447.28476-.087219.354958.022583.027802-.000793.055832-.05249.063293-.056335.008133-.072876.03891-.041809.077118.03479.042816.018433.055527-.049438.039207-.055847-.013405-.097046.003395-.092102.037186.004883.0336-.024048.046158-.064209.027748-.049744-.022423-.056824-.002411-.021545.061348.043518.0793.03186.087151-.070862.04821-.066956-.025856-.119446-.024696-.115662.00087.015503.105316-.20105.231499-.319946.186447-.118103-.044983-.310364.024551-.256409.089729.038635.047256-.39447.112289-.452576.068428-.025696-.018898-.076111.008179-.112854.061462-.036438.052277-.107178.087288-.155457.075676-.04895-.011246-.129944.006096-.180359.03933-.138794.088951-.566467.182091-.575134.12561-.010803-.063797-.224487-.002861-.357605.102577-.055969.044571-.221313.098671-.368774.12085-.147461.022446-.263428.061371-.258728.087051.0047.02597-.048584.026382-.119019.001274-.092773-.03302-.144653-.023643-.189941.035522-.037781.048912-.078918.060631-.104858.030571-.02478-.028992-.11969-.014511-.228271.035454-.145813.066574-.200256.066696-.253235-.000092-.055847-.069489-.080322-.068512-.138794.007767-.039062.050354-.142334.097717-.22937.104584-.086975.007172-.180115.033653-.206543.058884-.068298.062256-.311096.013519-.328796-.069298-.009338-.044945-.03302-.044815-.070068.001579-.069885.087448-.527954.20472-.504089.12989.009338-.029716-.084839-.0495-.208618-.044022-.123901.004738-.230591-.010437-.235901-.033997-.005554-.024155-.084961-.031128-.176331-.017128-.091125.014542-.215942-.006851-.27594-.046883-.089294-.059921-.114624-.057175-.136108.014381-.020264.068222-.052307.077293-.145203.043053-.012085-.004501-.076294.004097-.186157.0242-.05481.010666-.121155.023567-.198242.038567-.038147.008255-.079041.017082-.122437.026466-.110779.027824-.228088.057274-.351624.08831-1.063538.26226-2.524902.671638-4.163269,1.297523-.816833.31913-1.677185.693817-2.576172,1.146393-.225037.110306-.452881.229431-.683411.353851l-.318787.172157c-.040405.028633-.082581.054237-.127136.077103-.1828.125137-.419739.318901-.691345.595505-.55127.566475-1.206604,1.45459-1.937988,2.504753-.393677.55481-.790588,1.114098-1.189087,1.675728l-.67572.896454-.366333.457771-.186951.229523c-.074097.089684-.049194.068039-.079773.106491-.149353.193901-.468384.678322-.736633,1.161644-.279297.484756-.55719,1.012108-.824768,1.542542-.534485,1.064819-1.033325,2.160187-1.460449,3.202362-.422546,1.03727-.79071,2.063072-.856812,2.592323-.171265.887085-.23645,1.850632-.299316,2.72834-.087219,1.792702-.031738,3.378181.03894,4.519173.096497,1.362183.108765,1.291321.130432,1.390015.03949.091415.074097.288696.076416.438065.00293.161453.022217.239471.047729.192215.033386-.061096.062927-.0513.129028.043106.056519.080521.065369.130737.025391.147354-.034973.014542-.039062.113403-.00946.239761.031738.13945.02948.248779-.018433.31366-.063477.08815-.05719.093857.05603.047134.104614-.042877.137207-.027573.181519.084534.064331.164612.02594.327667-.067383.287338-.104431-.045242-.023743.161301.088501.227005.084534.049606.083984.058395-.006775.070389-.102417.013382-.128723.181946-.038818.247192.07019.050781.120056.307602.053894.280411-.081055-.033417-.069519.010574.053406.208817.058411.093323.117371.303116.132568.468033.013428.165634.061279.314789.100952.334152.049927.025162.051208.046341.004089.072021-.036499.020065-.043762.073135-.016602.117813.032837.054016.023682.071854-.026184.05275-.045166-.017166-.070374.005188-.062439.056305.007202.046661.037659.080917.067139.076385.030151-.004623.056213.059799.058777.143753.00238.084213.034912.177231.072754.207962.078003.063965.038574.194885-.049316.162613-.053955-.018967.006775.209976.104004.384766.018494.034302.006531.067322-.027161.073227-.032898.005753-.039368.032104-.014404.058075.024902.025558.004395.054138-.044861.062897-.069946.012375-.074524.042145-.019897.127762.080811.122269.119263.438904.085632.593658-.013489.059464.026611.146103.097412.210831.074707.068359.099976.126328.067322.154221-.029114.024689-.033203.063492-.008789.086548.024658.023438.014954.047974-.021362.055557-.067017.013458.003113.268768.102112.359558.028687.025146.017395.065811-.023193.090561-.049438.029739-.05304.096878-.011536.196487.034363.082809.043213.171417.01886.196075-.023743.024399-.072021.139084-.107483.255539-.049683.165573-.094788.216766-.207642.233536-.110474.016357-.139343.046692-.117981.124176.020691.077164-.001892.102432-.095764.104752-.068298.001678-.118408.023148-.111755.04808.006653.024857-.062134.039764-.153748.033371-.103333-.007446-.18573.011536-.218933.051941-.029297.035782-.1651.110123-.30249.166428-.138062.056259-.333801.168335-.43689.250992-.156555.125473-.20636.143509-.309082.107788-.067139-.023575-.137817-.028076-.156372-.009552-.018799.01857-.18103.0867-.362671.152451-.180847.065689-.355896.156769-.389893.202942-.040833.054337-.068237.063568-.078308.025772-.016785-.063171-.548279.078278-.58075.156723-.011169.026398-.107605.08551-.213623.130524-.105957.045197-.247742.116913-.31366.158768-.065918.041901-.162537.056641-.214966.032532-.090332-.042313-.575439.081955-.559143.144928.004456.016525-.270569.113907-.610779.216599-.662048.199844-.910828.310822-.999146.44574-.030396.04686-.145325.094299-.256653.105011-.111389.010712-.231506.05571-.267944.100876Z"/>
</svg>