<?xml version="1.0" encoding="utf-8"?>
<!-- Generator: Adobe Illustrator 27.8.0, SVG Export Plug-In . SVG Version: 6.00 Build 0)  -->
<svg version="1.1" id="Layer_1" xmlns="http://www.w3.org/2000/svg" xmlns:xlink="http://www.w3.org/1999/xlink" x="0px" y="0px"
	 viewBox="0 0 1109.2 792.4" style="enable-background:new 0 0 1109.2 792.4;" xml:space="preserve">
<style type="text/css">
	.st0{opacity:0.3;fill:#00F5D4;}
	.st1{fill:#FD6584;}
	.st2{fill:#E6E6E6;}
	.st3{fill:#F2F2F2;}
	.st4{fill:#3F3D56;}
	.st5{fill:#2F2E41;}
	.st6{fill:#00F5D4;}
	.st7{opacity:0.2;enable-background:new    ;}
	.st8{fill:#FFB6B6;}
	.st9{fill:#A0616A;}
</style>
<path class="st0" d="M341.2,137.9c-78.9,50.4-191.1,122.1-220.4,264c-20.2,97.5,0.8,218.4,63.5,290.6
	c175.2,201.8,711.3,64.4,784.5-244.3c31-130.5-20.5-292.7-118.3-374.9C674.3-74.9,413.3,91.8,341.2,137.9z"/>
<circle class="st1" cx="537.8" cy="199.5" r="26.7"/>
<path class="st2" d="M597.6,186.9c-1.5-5-5.9-8.7-11.2-9.3c-0.1,0-0.1,0-0.2,0c-0.1,0-0.1,0-0.2-0.1c-8.9-1.2-18.9,1.7-25.6,7.8
	c-2.5,2.2-4.5,5-5.8,8c-2.5-3.4-6.6-5.4-10.8-5.3c-5.5,0.4-10.3,4.2-11.8,9.5c-0.2,0.7,0.1,1.3,0.7,1.7c0.8,0.7,1.8,1.2,2.8,1.4
	c2.2,0.5,4.4,0.9,6.7,1.3c4.4,0.8,8.7,1.4,13.2,1.9c2.9,0.3,5.8,0.6,8.8,0.7c6,0.4,12.1,0.5,18.2,0.3c3-0.1,5.9-0.2,8.6-1.5
	c2-1,3.7-2.5,5-4.3C598.1,195.5,598.8,191,597.6,186.9z"/>
<path class="st2" d="M542.7,225.8c-0.1-1.1-0.2-2.2-0.6-3.3c-1.5-5-5.9-8.7-11.2-9.3c-0.1,0-0.1,0-0.2,0c-0.1,0-0.2,0-0.2-0.1
	c-4.9-0.6-10-0.1-14.7,1.5c-7.3,2.4-13.6,7.3-16.7,14.3c-2.5-3.4-6.6-5.4-10.8-5.3c-5.5,0.4-10.3,4.2-11.8,9.5
	c-0.2,0.7,0.1,1.3,0.7,1.7c0.8,0.7,1.8,1.2,2.8,1.4c2.2,0.5,4.4,0.9,6.7,1.3c4.4,0.8,8.7,1.4,13.1,1.9c8.9,1,17.9,1.3,26.9,1
	c3-0.1,5.9-0.2,8.6-1.5c2-1,3.7-2.5,4.9-4.3C542,232,542.9,228.9,542.7,225.8z"/>
<path class="st3" d="M890.4,549.8c0.4,18.2-2.1,36.4-7.4,53.8c-0.2,0.6-0.4,1.3-0.6,1.9H772.8c1.6-7.7,4.1-15.2,7.4-22.3
	c9.1-19.4,24-35.9,38.7-52.4c20.2-22.7,40-45.1,43.1-74.6c8,12.2,14.4,25.5,19.1,39.3c-5.7,2.1-10.9,5.3-15.3,9.4
	c-1.2,1.2-2.5,2.8-1.9,4.4c0.6,1.3,2.2,1.8,3.7,2.1c3.5,0.7,7,1.3,10.5,2c2.8,0.6,5.5,1.1,8.3,1.6
	C888.8,526.4,890.2,538,890.4,549.8z"/>
<path class="st3" d="M982.4,537.7c-17.6,10.7-28.7,27.2-37.8,45.7c-7.9,1.8-15.3,5.7-21.2,11.2c-1.3,1.2-2.6,2.8-1.9,4.4
	c0.6,1.3,2.2,1.8,3.7,2.1c3.5,0.7,7,1.3,10.5,2c-0.3,0.8-0.7,1.6-1,2.4H818.5c5.3-7.1,11.1-13.8,17.5-19.9c1.4-1.4,2.8-2.7,4.2-4
	c14.8-13.4,31.8-24.1,50.2-31.7C919.5,537.6,951.2,533.5,982.4,537.7z"/>
<path class="st3" d="M837.8,605.4H734.4c-0.6-8.3-0.5-16.6,0.1-24.9c4.1-51.1,31.9-99.8,73.9-129.2c-5.4,19.1-2.6,38.1,3,57.1
	c-0.8,0.3-1.6,0.5-2.3,0.8c-5.7,2.1-10.9,5.3-15.3,9.4c-1.2,1.2-2.5,2.8-1.9,4.4c0.6,1.3,2.2,1.8,3.7,2.1c3.5,0.7,7,1.3,10.5,2
	c2.8,0.6,5.6,1.1,8.4,1.6c1.3,0.2,2.6,0.5,3.9,0.7c0.2,0.4,0.3,0.9,0.5,1.3c6.5,18,13.7,36.2,17,54.7c0.8,4.6,1.4,9.3,1.7,14
	C837.8,601.5,837.8,603.5,837.8,605.4z"/>
<path class="st3" d="M274.4,549.8c0.4,18.2-2.1,36.4-7.4,53.8c-0.2,0.6-0.4,1.3-0.6,1.9H156.8c1.6-7.7,4.1-15.2,7.4-22.3
	c9.1-19.4,24-35.9,38.7-52.4c20.2-22.7,40-45.1,43.1-74.6c8,12.2,14.4,25.5,19.1,39.3c-5.7,2.1-10.9,5.3-15.3,9.4
	c-1.2,1.2-2.5,2.8-1.9,4.4c0.6,1.3,2.2,1.8,3.7,2.1c3.5,0.7,7,1.3,10.5,2c2.8,0.6,5.5,1.1,8.3,1.6
	C272.8,526.4,274.2,538,274.4,549.8z"/>
<path class="st3" d="M366.4,537.7c-17.6,10.7-28.7,27.2-37.8,45.7c-7.9,1.8-15.3,5.7-21.2,11.2c-1.3,1.2-2.6,2.8-1.9,4.4
	c0.6,1.3,2.2,1.8,3.7,2.1c3.5,0.7,7,1.3,10.5,2c-0.3,0.8-0.7,1.6-1,2.4H202.5c5.3-7.1,11.1-13.8,17.5-19.9c1.4-1.4,2.8-2.7,4.2-4
	c14.8-13.4,31.8-24.1,50.2-31.7C303.5,537.6,335.2,533.5,366.4,537.7z"/>
<path class="st3" d="M221.8,605.4H118.4c-0.6-8.3-0.5-16.6,0.1-24.9c4.1-51.1,31.9-99.8,73.9-129.2c-5.4,19.1-2.6,38.1,3,57.1
	c-0.8,0.3-1.6,0.5-2.3,0.8c-5.7,2.1-10.9,5.3-15.3,9.4c-1.2,1.2-2.5,2.8-1.9,4.4c0.6,1.3,2.2,1.8,3.7,2.1c3.5,0.7,7,1.3,10.5,2
	c2.8,0.6,5.6,1.1,8.4,1.6c1.3,0.2,2.6,0.5,3.9,0.7c0.2,0.4,0.3,0.9,0.5,1.3c6.5,18,13.7,36.2,17,54.7c0.8,4.6,1.4,9.3,1.7,14
	C221.8,601.5,221.8,603.5,221.8,605.4z"/>
<path class="st2" d="M606.7,562l92.4,8.2l1,0.1V176.2c-0.3-0.2-0.7-0.5-1-0.7C679.8,162,659,151,637,142.5l-4.7,65.1l-0.4,6
	l-4.7,64.6l-1.4,19.9l-18.9,261.7L606.7,562z"/>
<path class="st2" d="M378.3,168.8c-0.7,0.4-1.3,0.8-2,1.3v400.2l2-0.2l91.4-8.1l-0.2-2.3L450.5,298l-1.4-19.9l-4.7-64.6l-0.4-6
	l-5-68.3C417.7,146.8,397.3,156.7,378.3,168.8z"/>
<path class="st2" d="M376.3,170.1c-1.3,0.9-2.7,1.7-4,2.6v403c0,10.1,6,18.5,14,20.7c1.3,0.4,2.6,0.5,4,0.5h296.8
	c1.3,0,2.7-0.2,4-0.5c3-0.8,5.7-2.4,7.8-4.7c4.1-4.3,6.3-10.1,6.2-16v-396c-1.6-1.2-3.3-2.4-5-3.6c-0.3-0.2-0.7-0.5-1-0.7v400.3
	c0,1.3-0.2,2.6-0.5,3.8c-1.4,6-6.1,10.3-11.5,10.3H390.3c-6.6,0-12-6.3-12-14.2V168.8C377.6,169.3,376.9,169.7,376.3,170.1z"/>
<rect x="375.3" y="207.7" class="st2" width="326.8" height="6"/>
<path class="st2" d="M602,131.6c-2-0.5-4-0.9-6-1.4v161.8h6V131.6z"/>
<path class="st2" d="M481.3,128.2c-2,0.4-4,0.8-6,1.2v162.7h6V128.2z"/>
<path class="st2" d="M311.2,586.5c0,3.4,0.7,6.8,1.9,10c0.5,1.2,1.1,2.4,1.8,3.6c0.9,1.5,1.9,2.9,3,4.2c5.1,5.8,12.4,9.1,20.1,9.1
	h391.3c14.8,0,26.8-12,26.8-26.8s-12-26.8-26.8-26.8H338C323.2,559.7,311.2,571.7,311.2,586.5z"/>
<rect x="375.3" y="278.2" class="st2" width="324.8" height="19.9"/>
<path class="st2" d="M551.6,283.1h-27.8l0,0l0,0c0-6,4.9-10.9,10.9-10.9h6C546.7,272.2,551.6,277.1,551.6,283.1
	C551.6,283.1,551.6,283.1,551.6,283.1L551.6,283.1L551.6,283.1z"/>
<path class="st4" d="M102.3,601.9c8.7,10.3,18.1,20,28.1,29H937c10-9,19.4-18.7,28.1-29H102.3z"/>
<path class="st5" d="M499,505v102.6h71.8V505c0-1.5-1-2.9-2.4-3.3c-0.3-0.1-0.7-0.2-1-0.2h-64.9C500.5,501.6,499,503.1,499,505
	C499,505,499,505,499,505z M527,540.3c0-4.2,3.5-7.6,7.7-7.6c4.2,0,7.6,3.4,7.6,7.6v11.9c0,4.2-3.5,7.7-7.7,7.6
	c-4.2,0-7.6-3.4-7.6-7.6V540.3z"/>
<path class="st4" d="M498.7,604.3v9.9c0,1.1,0.9,1.9,1.9,1.9h68.4c1.1,0,1.9-0.9,1.9-1.9v-9.9H498.7z"/>
<path class="st4" d="M385.9,350.5v187.3c0,5,4,9,9,9h277.5c5,0,9-4,9-9V350.5c0-5-4-9-9-9H394.9C390,341.5,385.9,345.6,385.9,350.5z
	"/>
<path class="st6" d="M392.4,352.9v182.6c0,2.7,2.2,4.8,4.8,4.8h272.9c2.7,0,4.8-2.2,4.8-4.8V352.9c0-2.7-2.2-4.8-4.8-4.8H397.3
	C394.6,348,392.4,350.2,392.4,352.9z"/>
<path class="st5" d="M448.1,618.5c0.6,0.7,1.4,1.1,2.3,1.1h162.3c1.6,0,3-1.3,3-3c0-0.2,0-0.4-0.1-0.6l-2.5-12
	c-0.2-1-0.9-1.8-1.9-2.2c-0.3-0.1-0.7-0.2-1.1-0.2H452.9c-0.4,0-0.7,0.1-1.1,0.2c-0.9,0.4-1.6,1.2-1.9,2.2l-2.5,12
	C447.3,616.9,447.5,617.8,448.1,618.5z"/>
<path class="st4" d="M608.6,606.8h-4c-0.3,0-0.5-0.2-0.5-0.5v-2c0-0.3,0.2-0.5,0.5-0.5h4c0.3,0,0.5,0.2,0.5,0.5v2
	C609.1,606.6,608.9,606.8,608.6,606.8z"/>
<path class="st4" d="M598.6,606.8h-4c-0.3,0-0.5-0.2-0.5-0.5v-2c0-0.3,0.2-0.5,0.5-0.5h4c0.3,0,0.5,0.2,0.5,0.5v2
	C599.1,606.6,598.9,606.8,598.6,606.8z"/>
<path class="st4" d="M588.6,606.8h-4c-0.3,0-0.5-0.2-0.5-0.5v-2c0-0.3,0.2-0.5,0.5-0.5h4c0.3,0,0.5,0.2,0.5,0.5v2
	C589.1,606.6,588.9,606.8,588.6,606.8z"/>
<path class="st4" d="M578.6,606.8h-4c-0.3,0-0.5-0.2-0.5-0.5v-2c0-0.3,0.2-0.5,0.5-0.5h4c0.3,0,0.5,0.2,0.5,0.5v2
	C579.1,606.6,578.9,606.8,578.6,606.8z"/>
<path class="st4" d="M568.6,606.8h-4c-0.3,0-0.5-0.2-0.5-0.5v-2c0-0.3,0.2-0.5,0.5-0.5h4c0.3,0,0.5,0.2,0.5,0.5v2
	C569.1,606.6,568.9,606.8,568.6,606.8z"/>
<path class="st4" d="M558.6,606.8h-4c-0.3,0-0.5-0.2-0.5-0.5v-2c0-0.3,0.2-0.5,0.5-0.5h4c0.3,0,0.5,0.2,0.5,0.5v2
	C559.1,606.6,558.9,606.8,558.6,606.8z"/>
<path class="st4" d="M548.6,606.8h-4c-0.3,0-0.5-0.2-0.5-0.5v-2c0-0.3,0.2-0.5,0.5-0.5h4c0.3,0,0.5,0.2,0.5,0.5v2
	C549.1,606.6,548.9,606.8,548.6,606.8z"/>
<path class="st4" d="M538.6,606.8h-4c-0.3,0-0.5-0.2-0.5-0.5v-2c0-0.3,0.2-0.5,0.5-0.5h4c0.3,0,0.5,0.2,0.5,0.5v2
	C539.1,606.6,538.9,606.8,538.6,606.8z"/>
<path class="st4" d="M528.6,606.8h-4c-0.3,0-0.5-0.2-0.5-0.5v-2c0-0.3,0.2-0.5,0.5-0.5h4c0.3,0,0.5,0.2,0.5,0.5v2
	C529.1,606.6,528.9,606.8,528.6,606.8z"/>
<path class="st4" d="M518.6,606.8h-4c-0.3,0-0.5-0.2-0.5-0.5v-2c0-0.3,0.2-0.5,0.5-0.5h4c0.3,0,0.5,0.2,0.5,0.5v2
	C519.1,606.6,518.9,606.8,518.6,606.8z"/>
<path class="st4" d="M508.6,606.8h-4c-0.3,0-0.5-0.2-0.5-0.5v-2c0-0.3,0.2-0.5,0.5-0.5h4c0.3,0,0.5,0.2,0.5,0.5v2
	C509.1,606.6,508.9,606.8,508.6,606.8z"/>
<path class="st4" d="M498.6,606.8h-4c-0.3,0-0.5-0.2-0.5-0.5v-2c0-0.3,0.2-0.5,0.5-0.5h4c0.3,0,0.5,0.2,0.5,0.5v2
	C499.1,606.6,498.9,606.8,498.6,606.8z"/>
<path class="st4" d="M488.6,606.8h-4c-0.3,0-0.5-0.2-0.5-0.5v-2c0-0.3,0.2-0.5,0.5-0.5h4c0.3,0,0.5,0.2,0.5,0.5v2
	C489.1,606.6,488.9,606.8,488.6,606.8z"/>
<path class="st4" d="M478.6,606.8h-4c-0.3,0-0.5-0.2-0.5-0.5v-2c0-0.3,0.2-0.5,0.5-0.5h4c0.3,0,0.5,0.2,0.5,0.5v2
	C479.1,606.6,478.9,606.8,478.6,606.8z"/>
<path class="st4" d="M468.6,606.8h-4c-0.3,0-0.5-0.2-0.5-0.5v-2c0-0.3,0.2-0.5,0.5-0.5h4c0.3,0,0.5,0.2,0.5,0.5v2
	C469.1,606.6,468.9,606.8,468.6,606.8z"/>
<path class="st4" d="M458.6,606.8h-4c-0.3,0-0.5-0.2-0.5-0.5v-2c0-0.3,0.2-0.5,0.5-0.5h4c0.3,0,0.5,0.2,0.5,0.5v2
	C459.1,606.6,458.9,606.8,458.6,606.8z"/>
<path class="st4" d="M608.7,611.8h-4c-0.3,0-0.5-0.2-0.5-0.5v-2c0-0.3,0.2-0.5,0.5-0.5h4c0.3,0,0.5,0.2,0.5,0.5v2
	C609.2,611.6,609,611.8,608.7,611.8z"/>
<path class="st4" d="M598.7,611.8h-4c-0.3,0-0.5-0.2-0.5-0.5v-2c0-0.3,0.2-0.5,0.5-0.5h4c0.3,0,0.5,0.2,0.5,0.5v2
	C599.2,611.6,599,611.8,598.7,611.8z"/>
<path class="st4" d="M588.7,611.8h-4c-0.3,0-0.5-0.2-0.5-0.5v-2c0-0.3,0.2-0.5,0.5-0.5h4c0.3,0,0.5,0.2,0.5,0.5v2
	C589.2,611.6,589,611.8,588.7,611.8z"/>
<path class="st4" d="M578.7,611.8h-4c-0.3,0-0.5-0.2-0.5-0.5v-2c0-0.3,0.2-0.5,0.5-0.5h4c0.3,0,0.5,0.2,0.5,0.5v2
	C579.2,611.6,579,611.8,578.7,611.8z"/>
<path class="st4" d="M568.7,611.8h-4c-0.3,0-0.5-0.2-0.5-0.5v-2c0-0.3,0.2-0.5,0.5-0.5h4c0.3,0,0.5,0.2,0.5,0.5v2
	C569.2,611.6,569,611.8,568.7,611.8z"/>
<path class="st4" d="M558.7,611.8h-4c-0.3,0-0.5-0.2-0.5-0.5v-2c0-0.3,0.2-0.5,0.5-0.5h4c0.3,0,0.5,0.2,0.5,0.5v2
	C559.2,611.6,559,611.8,558.7,611.8z"/>
<path class="st4" d="M548.7,611.8h-4c-0.3,0-0.5-0.2-0.5-0.5v-2c0-0.3,0.2-0.5,0.5-0.5h4c0.3,0,0.5,0.2,0.5,0.5v2
	C549.2,611.6,549,611.8,548.7,611.8z"/>
<path class="st4" d="M538.7,611.8h-4c-0.3,0-0.5-0.2-0.5-0.5v-2c0-0.3,0.2-0.5,0.5-0.5h4c0.3,0,0.5,0.2,0.5,0.5v2
	C539.2,611.6,539,611.8,538.7,611.8z"/>
<path class="st4" d="M528.7,611.8h-4c-0.3,0-0.5-0.2-0.5-0.5v-2c0-0.3,0.2-0.5,0.5-0.5h4c0.3,0,0.5,0.2,0.5,0.5v2
	C529.2,611.6,529,611.8,528.7,611.8z"/>
<path class="st4" d="M518.7,611.8h-4c-0.3,0-0.5-0.2-0.5-0.5v-2c0-0.3,0.2-0.5,0.5-0.5h4c0.3,0,0.5,0.2,0.5,0.5v2
	C519.2,611.6,519,611.8,518.7,611.8z"/>
<path class="st4" d="M508.7,611.8h-4c-0.3,0-0.5-0.2-0.5-0.5v-2c0-0.3,0.2-0.5,0.5-0.5h4c0.3,0,0.5,0.2,0.5,0.5v2
	C509.2,611.6,509,611.8,508.7,611.8z"/>
<path class="st4" d="M498.7,611.8h-4c-0.3,0-0.5-0.2-0.5-0.5v-2c0-0.3,0.2-0.5,0.5-0.5h4c0.3,0,0.5,0.2,0.5,0.5v2
	C499.2,611.6,499,611.8,498.7,611.8z"/>
<path class="st4" d="M488.7,611.8h-4c-0.3,0-0.5-0.2-0.5-0.5v-2c0-0.3,0.2-0.5,0.5-0.5h4c0.3,0,0.5,0.2,0.5,0.5v2
	C489.2,611.6,489,611.8,488.7,611.8z"/>
<path class="st4" d="M478.7,611.8h-4c-0.3,0-0.5-0.2-0.5-0.5v-2c0-0.3,0.2-0.5,0.5-0.5h4c0.3,0,0.5,0.2,0.5,0.5v2
	C479.2,611.6,479,611.8,478.7,611.8z"/>
<path class="st4" d="M468.7,611.8h-4c-0.3,0-0.5-0.2-0.5-0.5v-2c0-0.3,0.2-0.5,0.5-0.5h4c0.3,0,0.5,0.2,0.5,0.5v2
	C469.2,611.6,469,611.8,468.7,611.8z"/>
<path class="st4" d="M458.7,611.8h-4c-0.3,0-0.5-0.2-0.5-0.5v-2c0-0.3,0.2-0.5,0.5-0.5h4c0.3,0,0.5,0.2,0.5,0.5v2
	C459.2,611.6,459,611.8,458.7,611.8z"/>
<path class="st4" d="M560.7,617.8h-39c-0.3,0-0.5-0.2-0.5-0.5v-2c0-0.3,0.2-0.5,0.5-0.5h39c0.3,0,0.5,0.2,0.5,0.5v2
	C561.2,617.6,561,617.8,560.7,617.8z"/>
<path class="st4" d="M411,373.2h255.3c0.6,0,1-0.5,1-1c0-0.5-0.4-1-1-1H411c-0.6,0-1,0.5-1,1C410,372.7,410.4,373.2,411,373.2z"/>
<ellipse class="st4" cx="648.9" cy="359.9" rx="6" ry="6.1"/>
<ellipse class="st4" cx="628.4" cy="359.9" rx="6" ry="6.1"/>
<ellipse class="st4" cx="607.8" cy="359.9" rx="6" ry="6.1"/>
<path class="st4" d="M422.3,356.4c0,0.6,0.5,1.1,1.1,1.1c0,0,0,0,0,0h14.6c0.6,0,1.1-0.5,1.1-1.1c0-0.6-0.5-1.1-1.1-1.1h-14.6
	C422.7,355.3,422.3,355.8,422.3,356.4z"/>
<path class="st4" d="M422.3,360.6c0,0.6,0.5,1.1,1.1,1.1c0,0,0,0,0,0h14.6c0.6,0,1.1-0.5,1.1-1.1c0-0.6-0.5-1.1-1.1-1.1h-14.6
	C422.7,359.5,422.3,360,422.3,360.6z"/>
<path class="st4" d="M422.3,364.7c0,0.6,0.5,1.1,1.1,1.1h14.6c0.6,0,1.1-0.5,1.1-1.1c0-0.6-0.5-1.1-1.1-1.1h-14.6
	C422.7,363.6,422.3,364.1,422.3,364.7C422.3,364.7,422.3,364.7,422.3,364.7z"/>
<path class="st2" d="M421.5,396.8h5.2c1.6,0,2.9,1.3,2.9,2.9v0c0,1.6-1.3,2.9-2.9,2.9h-5.2c-1.6,0-2.9-1.3-2.9-2.9v0
	C418.6,398.1,419.9,396.8,421.5,396.8z"/>
<path class="st2" d="M481.5,396.8h5.2c1.6,0,2.9,1.3,2.9,2.9v0c0,1.6-1.3,2.9-2.9,2.9h-5.2c-1.6,0-2.9-1.3-2.9-2.9v0
	C478.6,398.1,479.9,396.8,481.5,396.8z"/>
<path class="st2" d="M498.5,396.8h5.2c1.6,0,2.9,1.3,2.9,2.9v0c0,1.6-1.3,2.9-2.9,2.9h-5.2c-1.6,0-2.9-1.3-2.9-2.9v0
	C495.6,398.1,496.9,396.8,498.5,396.8z"/>
<path class="st2" d="M437.8,396.3h32.6c1.6,0,2.9,1.3,2.9,2.9v0c0,1.6-1.3,2.9-2.9,2.9h-32.6c-1.6,0-2.9-1.3-2.9-2.9v0
	C435,397.6,436.3,396.3,437.8,396.3z"/>
<path class="st2" d="M517.8,396.3h32.6c1.6,0,2.9,1.3,2.9,2.9v0c0,1.6-1.3,2.9-2.9,2.9h-32.6c-1.6,0-2.9-1.3-2.9-2.9v0
	C515,397.6,516.3,396.3,517.8,396.3z"/>
<path class="st2" d="M437.5,409.8h5.2c1.6,0,2.9,1.3,2.9,2.9v0c0,1.6-1.3,2.9-2.9,2.9h-5.2c-1.6,0-2.9-1.3-2.9-2.9v0
	C434.6,411.1,435.9,409.8,437.5,409.8z"/>
<path class="st2" d="M497.5,409.8h5.2c1.6,0,2.9,1.3,2.9,2.9v0c0,1.6-1.3,2.9-2.9,2.9h-5.2c-1.6,0-2.9-1.3-2.9-2.9v0
	C494.6,411.1,495.9,409.8,497.5,409.8z"/>
<path class="st2" d="M514.5,409.8h5.2c1.6,0,2.9,1.3,2.9,2.9v0c0,1.6-1.3,2.9-2.9,2.9h-5.2c-1.6,0-2.9-1.3-2.9-2.9v0
	C511.6,411.1,512.9,409.8,514.5,409.8z"/>
<path class="st2" d="M453.8,409.3h32.6c1.6,0,2.9,1.3,2.9,2.9v0c0,1.6-1.3,2.9-2.9,2.9h-32.6c-1.6,0-2.9-1.3-2.9-2.9v0
	C451,410.6,452.3,409.3,453.8,409.3z"/>
<path class="st2" d="M533.8,409.3h32.6c1.6,0,2.9,1.3,2.9,2.9v0c0,1.6-1.3,2.9-2.9,2.9h-32.6c-1.6,0-2.9-1.3-2.9-2.9v0
	C531,410.6,532.3,409.3,533.8,409.3z"/>
<path class="st2" d="M453.5,422.8h5.2c1.6,0,2.9,1.3,2.9,2.9v0c0,1.6-1.3,2.9-2.9,2.9h-5.2c-1.6,0-2.9-1.3-2.9-2.9v0
	C450.6,424.1,451.9,422.8,453.5,422.8z"/>
<path class="st2" d="M513.5,422.8h5.2c1.6,0,2.9,1.3,2.9,2.9v0c0,1.6-1.3,2.9-2.9,2.9h-5.2c-1.6,0-2.9-1.3-2.9-2.9v0
	C510.6,424.1,511.9,422.8,513.5,422.8z"/>
<path class="st2" d="M530.5,422.8h5.2c1.6,0,2.9,1.3,2.9,2.9v0c0,1.6-1.3,2.9-2.9,2.9h-5.2c-1.6,0-2.9-1.3-2.9-2.9v0
	C527.6,424.1,528.9,422.8,530.5,422.8z"/>
<path class="st2" d="M469.8,422.3h32.6c1.6,0,2.9,1.3,2.9,2.9v0c0,1.6-1.3,2.9-2.9,2.9h-32.6c-1.6,0-2.9-1.3-2.9-2.9v0
	C467,423.6,468.3,422.3,469.8,422.3z"/>
<path class="st2" d="M549.8,422.3h32.6c1.6,0,2.9,1.3,2.9,2.9v0c0,1.6-1.3,2.9-2.9,2.9h-32.6c-1.6,0-2.9-1.3-2.9-2.9v0
	C547,423.6,548.3,422.3,549.8,422.3z"/>
<path class="st2" d="M469.5,435.8h5.2c1.6,0,2.9,1.3,2.9,2.9v0c0,1.6-1.3,2.9-2.9,2.9h-5.2c-1.6,0-2.9-1.3-2.9-2.9v0
	C466.6,437.1,467.9,435.8,469.5,435.8z"/>
<path class="st2" d="M529.5,435.8h5.2c1.6,0,2.9,1.3,2.9,2.9v0c0,1.6-1.3,2.9-2.9,2.9h-5.2c-1.6,0-2.9-1.3-2.9-2.9v0
	C526.6,437.1,527.9,435.8,529.5,435.8z"/>
<path class="st2" d="M546.5,435.8h5.2c1.6,0,2.9,1.3,2.9,2.9v0c0,1.6-1.3,2.9-2.9,2.9h-5.2c-1.6,0-2.9-1.3-2.9-2.9v0
	C543.6,437.1,544.9,435.8,546.5,435.8z"/>
<path class="st2" d="M485.8,435.3h32.6c1.6,0,2.9,1.3,2.9,2.9v0c0,1.6-1.3,2.9-2.9,2.9h-32.6c-1.6,0-2.9-1.3-2.9-2.9v0
	C483,436.6,484.3,435.3,485.8,435.3z"/>
<path class="st2" d="M481.5,487.5h5.2c1.6,0,2.9,1.3,2.9,2.9v0c0,1.6-1.3,2.9-2.9,2.9h-5.2c-1.6,0-2.9-1.3-2.9-2.9v0
	C478.6,488.8,479.9,487.5,481.5,487.5z"/>
<path class="st2" d="M498.5,487.5h5.2c1.6,0,2.9,1.3,2.9,2.9v0c0,1.6-1.3,2.9-2.9,2.9h-5.2c-1.6,0-2.9-1.3-2.9-2.9v0
	C495.6,488.8,496.9,487.5,498.5,487.5z"/>
<path class="st2" d="M517.8,488h32.6c1.6,0,2.9,1.3,2.9,2.9v0c0,1.6-1.3,2.9-2.9,2.9h-32.6c-1.6,0-2.9-1.3-2.9-2.9v0
	C515,489.3,516.3,488,517.8,488z"/>
<path class="st2" d="M421.5,487.5h5.2c1.6,0,2.9,1.3,2.9,2.9v0c0,1.6-1.3,2.9-2.9,2.9h-5.2c-1.6,0-2.9-1.3-2.9-2.9v0
	C418.6,488.8,419.9,487.5,421.5,487.5z"/>
<path class="st2" d="M437.8,488h32.6c1.6,0,2.9,1.3,2.9,2.9v0c0,1.6-1.3,2.9-2.9,2.9h-32.6c-1.6,0-2.9-1.3-2.9-2.9v0
	C435,489.3,436.3,488,437.8,488z"/>
<path class="st2" d="M437.5,474.5h5.2c1.6,0,2.9,1.3,2.9,2.9v0c0,1.6-1.3,2.9-2.9,2.9h-5.2c-1.6,0-2.9-1.3-2.9-2.9v0
	C434.6,475.8,435.9,474.5,437.5,474.5z"/>
<path class="st2" d="M497.5,474.5h5.2c1.6,0,2.9,1.3,2.9,2.9v0c0,1.6-1.3,2.9-2.9,2.9h-5.2c-1.6,0-2.9-1.3-2.9-2.9v0
	C494.6,475.8,495.9,474.5,497.5,474.5z"/>
<path class="st2" d="M514.5,474.5h5.2c1.6,0,2.9,1.3,2.9,2.9v0c0,1.6-1.3,2.9-2.9,2.9h-5.2c-1.6,0-2.9-1.3-2.9-2.9v0
	C511.6,475.8,512.9,474.5,514.5,474.5z"/>
<path class="st2" d="M453.8,475h32.6c1.6,0,2.9,1.3,2.9,2.9v0c0,1.6-1.3,2.9-2.9,2.9h-32.6c-1.6,0-2.9-1.3-2.9-2.9v0
	C451,476.3,452.3,475,453.8,475z"/>
<path class="st2" d="M453.5,461.5h5.2c1.6,0,2.9,1.3,2.9,2.9v0c0,1.6-1.3,2.9-2.9,2.9h-5.2c-1.6,0-2.9-1.3-2.9-2.9v0
	C450.6,462.8,451.9,461.5,453.5,461.5z"/>
<path class="st2" d="M513.5,461.5h5.2c1.6,0,2.9,1.3,2.9,2.9v0c0,1.6-1.3,2.9-2.9,2.9h-5.2c-1.6,0-2.9-1.3-2.9-2.9v0
	C510.6,462.8,511.9,461.5,513.5,461.5z"/>
<path class="st2" d="M530.5,461.5h5.2c1.6,0,2.9,1.3,2.9,2.9v0c0,1.6-1.3,2.9-2.9,2.9h-5.2c-1.6,0-2.9-1.3-2.9-2.9v0
	C527.6,462.8,528.9,461.5,530.5,461.5z"/>
<path class="st2" d="M469.8,462h32.6c1.6,0,2.9,1.3,2.9,2.9v0c0,1.6-1.3,2.9-2.9,2.9h-32.6c-1.6,0-2.9-1.3-2.9-2.9v0
	C467,463.3,468.3,462,469.8,462z"/>
<path class="st2" d="M469.5,448.5h5.2c1.6,0,2.9,1.3,2.9,2.9v0c0,1.6-1.3,2.9-2.9,2.9h-5.2c-1.6,0-2.9-1.3-2.9-2.9v0
	C466.6,449.8,467.9,448.5,469.5,448.5z"/>
<path class="st2" d="M529.5,448.5h5.2c1.6,0,2.9,1.3,2.9,2.9v0c0,1.6-1.3,2.9-2.9,2.9h-5.2c-1.6,0-2.9-1.3-2.9-2.9v0
	C526.6,449.8,527.9,448.5,529.5,448.5z"/>
<path class="st2" d="M546.5,448.5h5.2c1.6,0,2.9,1.3,2.9,2.9v0c0,1.6-1.3,2.9-2.9,2.9h-5.2c-1.6,0-2.9-1.3-2.9-2.9v0
	C543.6,449.8,544.9,448.5,546.5,448.5z"/>
<path class="st2" d="M485.8,449h32.6c1.6,0,2.9,1.3,2.9,2.9v0c0,1.6-1.3,2.9-2.9,2.9h-32.6c-1.6,0-2.9-1.3-2.9-2.9v0
	C483,450.3,484.3,449,485.8,449z"/>
<path class="st4" d="M452.2,674.2c-0.2,0.1-0.4,0.2-0.7,0.3c-1.4,0.7-2.8,1.4-4.2,2c-4.2,2-8.5,3.9-12.8,5.7
	c-11.4,4.8-23.1,8.8-35,12c-2-12.5-3.9-41.9-5.8-63.5c-0.4-4.1-0.7-7.9-1-11.2c-0.3-4.4-1-8.8-1.9-13.1c-0.1-0.3-0.2-0.7-0.4-1
	c0.2,1.7,0.4,6.9,0.6,14c0.1,3.3,0.2,7.1,0.3,11.2c0.5,20.8,1,49.2,1.5,65.3c-1.4,0.3-2.8,0.7-4.2,1c-0.9,0.2-1.8,0.4-2.7,0.6
	c-1.1,0.2-2.2,0.5-3.2,0.7c-1.1,0.2-2.3,0.5-3.4,0.7c-18.5,3.6-37.2,5.4-56.1,5.4c-1.2,0-2.5,0-3.7,0c-0.4,0-0.8,0-1.1,0
	c-1.1,0-2.2,0-3.4-0.1c-22.2-0.6-44.3-3.8-65.8-9.5l0.9-64.1l0.1-11.2l0.1-4.2c-0.5,1.4-0.8,2.8-0.9,4.2c-0.4,2.7-0.7,6.6-1.1,11.2
	c-1.4,17.8-2.8,46.4-4.2,62.7c-17.3-4.9-29.9-9.4-45.7-17.3c-0.6-0.3-1.2-0.6-1.8-0.9c0.1-0.8,0.2-1.5,0.3-2.3
	c1.8-12.4-0.3-28.6,1.7-42.2c1.5-10.4,3.1-20.5,4.6-29c1.9-10.2,3.8-18.3,5.7-22.2c2.2-4.5,4.4-9,6.5-13.2c0.9-1.8,1.8-3.6,2.7-5.4
	c0.5-1,1-1.9,1.4-2.8c2.1-4.2,4.2-8.1,6-11.5c1.3-2.4,2.5-4.6,3.6-6.5c1.3-2.2,2.4-4.1,3.4-5.5c6.9-10.5,17.3-18.4,29.3-22.2
	l0.3-0.1l0.3,0.1l0.3,0.2l19.1-7l8.5-20.5l43.7-2.7l7.1,5.4l3.6,2.8l3.9,2.9l7.1,5.4l2,0.6l3,0.9l20.5,6.3l0.2-0.1l0.3,0.1
	c10.9,3.5,20.5,10.3,27.4,19.5c0.7,0.9,1.3,1.8,1.9,2.7c1.7,2.5,3.9,6.3,6.5,11.2c1.1,2,2.2,4.2,3.5,6.5c0.7,1.4,7,21,13.2,41.1
	c5.7,18.8,11.3,38,12,42.9c0.1,0.9,0.3,1.8,0.4,2.7c0.8,5.7,1.6,11.4,2.4,17c1.2,8.3,2.3,16.3,3.4,23.4
	C452.2,674.1,452.2,674.1,452.2,674.2z"/>
<polygon class="st7" points="405.9,601.8 397.4,569 389.9,597.3 "/>
<path class="st5" d="M118.1,601.4c0.9,2.6,3.4,4.4,6.2,4.3l26.5-0.7c2.8-0.1,5.2-2,6-4.7l3.7-40.1c1.3,0.6,2.8,0.9,4.2,0.9
	c5.3-0.1,9.5-4.6,9.4-9.9c-0.1-5.3-4.6-9.5-9.9-9.4l0,0c-0.6,0-1.2,0.1-1.7,0.2c-1.3-1.4-3-2.1-4.9-2.1l-40.8,1.1
	c-0.3,0-0.7,0.1-1,0.1c-3.5,0.6-5.7,4-5.1,7.4c0.1,0.3,0.1,0.6,0.2,0.8L118.1,601.4z M161.3,557.6l2.7-9.6c0.3-1.1,0.3-2.3,0-3.4
	c0.1,0,0.2-0.1,0.4-0.1c3.8-0.1,7,3,7.1,6.8c0.1,3.8-2.9,7-6.7,7.1C163.5,558.5,162.3,558.2,161.3,557.6L161.3,557.6z"/>
<path class="st4" d="M115.9,541.1c0.9,5,10.6,8.5,22.4,7.8c10.8-0.5,19.6-4.3,21.2-8.8c-0.6-0.2-1.2-0.3-1.8-0.2l-40.8,1.1
	C116.6,541,116.2,541.1,115.9,541.1z"/>
<path class="st6" d="M140.4,579.4c0.1,0,0.1,0,0.2-0.1l5.8-3.8c0.2-0.2,0.3-0.5,0.1-0.7c0-0.1-0.1-0.1-0.1-0.1l-6-3.9
	c-0.2-0.2-0.5-0.1-0.7,0.1s-0.1,0.5,0.1,0.7l0,0l5.3,3.5l-5.1,3.3c-0.2,0.2-0.3,0.5-0.1,0.7C140,579.4,140.2,579.5,140.4,579.4
	L140.4,579.4z"/>
<path class="st6" d="M131.3,579.8c0.3-0.1,0.4-0.3,0.4-0.6c0-0.1-0.1-0.2-0.2-0.3l-5.3-3l5.1-3.8c0.2-0.2,0.3-0.5,0.1-0.7
	c-0.2-0.2-0.5-0.3-0.7-0.1c0,0,0,0,0,0l-5.7,4.3c-0.2,0.2-0.3,0.5-0.1,0.7c0,0.1,0.1,0.1,0.2,0.1l6,3.4
	C131.1,579.8,131.2,579.9,131.3,579.8z"/>
<path class="st6" d="M139.8,582.7c0,0,0.1,0,0.1-0.1c0.2-0.1,0.3-0.5,0.2-0.7c0,0,0,0,0,0l-8.2-13.4c-0.1-0.2-0.5-0.3-0.7-0.2
	c-0.2,0.1-0.3,0.4-0.2,0.7l8.2,13.4C139.4,582.7,139.6,582.8,139.8,582.7z"/>
<path class="st4" d="M887.4,675.3c-0.6,0.3-1.2,0.6-1.8,0.9c-15.8,7.9-28.4,12.4-45.7,17.3c-1.5-16.3-2.9-45-4.2-62.7
	c-0.4-4.6-0.7-8.5-1.1-11.2c-0.1-1.5-0.4-2.9-0.9-4.2l0.1,4.2l0.2,11.2l0.9,64.1c-21.5,5.7-43.6,8.9-65.8,9.5c-1.2,0-2.3,0-3.4,0.1
	c-0.4,0-0.8,0-1.2,0c-1.2,0-2.5,0-3.7,0c-23.4,0-46.8-2.8-69.5-8.4c0.5-16.1,1-44.5,1.4-65.3c0.1-4.1,0.2-7.9,0.3-11.2
	c0.2-7.2,0.4-12.3,0.6-14c-0.2,0.3-0.3,0.6-0.4,1c-0.9,4.3-1.6,8.7-1.9,13.1c-0.3,3.3-0.7,7.1-1,11.2c-1.9,21.6-3.8,51-5.8,63.5
	c-11.9-3.2-23.6-7.3-35-12c-6-2.5-11.9-5.2-17.7-8.1c1.1-7.2,2.2-15.3,3.4-23.6c0.9-6.5,1.9-13.2,2.8-19.8
	c1.5-10.2,52.5-120.1,64.5-124l0.3-0.1l0.2,0.1l20.5-6.3l3-0.9l2-0.6l7.1-5.4l3.8-2.9l3.6-2.8l7.1-5.4l43.7,2.7l8.5,20.5l19.1,7
	l0.3-0.2l0.3-0.1l0.3,0.1c12,3.8,22.3,11.7,29.3,22.2c0.9,1.4,2.1,3.3,3.4,5.5c1.1,1.9,2.3,4.1,3.6,6.5c1.8,3.4,3.9,7.3,6,11.5
	c0.5,0.9,1,1.9,1.4,2.8c0.9,1.8,1.8,3.6,2.7,5.4c2.1,4.2,4.3,8.7,6.5,13.2c1.9,3.9,3.8,12,5.7,22.2c1.6,8.5,3.1,18.5,4.6,29
	c2,13.5-0.1,29.7,1.7,42.2C887.2,673.7,887.3,674.5,887.4,675.3z"/>
<circle class="st8" cx="759.2" cy="424.4" r="50.8"/>
<polygon class="st7" points="677.9,601.8 686.4,569 693.9,597.3 "/>
<path class="st5" d="M904,580.4c-3,41.9,0.1,60.3-16.7,94.8c-15.3,7.5-31.2,13.6-47.5,18.2c-1.7,0.5-3.4,0.9-5.1,1.4
	c-21.5,5.7-43.6,8.9-65.8,9.5c-1.2,0-2.3,0-3.4,0.1c-0.4,0-0.8,0-1.2,0c-1.2,0-2.5,0-3.7,0c-23.4,0-46.8-2.8-69.5-8.4
	c-2.3-0.6-4.5-1.2-6.8-1.8c-11.9-3.2-23.6-7.3-35-12c-6-2.5-11.9-5.2-17.7-8.1c-1.3-0.7-2.6-1.3-3.9-2
	c-6.6-11.7-10.4-25.8-10.5-42.9C621.8,600,893.9,555.1,904,580.4z"/>
<path class="st7" d="M904,587.6c0.2-2.6,0.3-5.3,0.5-8.1c-10.1-25.3-282.2,19.5-286.8,48.9c0,2.7,0.1,5.3,0.3,7.9
	C629.2,607.3,887.7,564.7,904,587.6z"/>
<path class="st8" d="M610.5,582.4l22.3-11.2L614.2,521l-4.9-25.3c-2-10.4-12.1-17.2-22.5-15.2c-3.3,0.6-6.3,2.1-8.8,4.3l0,0
	c-7.8,6.7-8.9,18.5-2.5,26.5l18.2,22.8L610.5,582.4z"/>
<path class="st4" d="M632.8,562L603,576.8l22.6,70.8c3.3,10.3,11.8,18.2,22.3,20.7l0,0c13.1,3.1,26.8-2.6,33.7-14.2l59.9-102.7
	c8.8-14.7,4.3-33.8-10.2-43l0,0c-14.8-9.3-34.3-5-43.6,9.8c-0.6,1-1.2,2-1.7,3l-36.6,77.9L632.8,562z"/>
<circle class="st9" cx="311.8" cy="415.8" r="55.9"/>
<path class="st5" d="M256.5,377.3c4.5-6.1,11.1-10.5,16.1-16.3c2.7-3.2,5-6.7,8.1-9.6c5.7-5.3,13.7-7.4,21.5-7.7
	c17.3-0.4,33.7,7.4,44.3,21c4.1-2.4,8.1-4.8,12.2-7.1c1.6,4.2,3.2,8.5,4.8,12.7c3.1-2.7,7.7-2.4,10.4,0.7c2.1,2.4,2.4,5.8,0.8,8.5
	c1-3,5.4-3.6,7.8-1.6c2.4,2,3.1,5.5,2.7,8.6c-1,7-6.2,12.7-13.1,14.3c-5.3,1.2-11.5-0.1-15.7,3.3c-3.4,2.7-4.4,7.7-7.9,10.3
	c-4.3,3.2-10.3,1.7-15.6,2.5c-9.3,1.3-16.7,10.8-15.6,20.1c-0.8-2.9-1.7-6-3.6-8.4c-1.9-2.4-5.1-4-8.1-3.1c-4.8,1.5-5.6,8.1-4.5,13
	c3.1,13,14.9,34.1,14.9,34.1c-15.3,6-33.6,0.3-45.4-11.1c-11.8-11.5-18-27.7-20.7-44C247.9,403.7,248.2,388.5,256.5,377.3z"/>
<path class="st5" d="M822.9,452.4c10.6-24.4,4.6-46.8-8.4-58.8v0c-5.1-11.4-11.9-20.2-19.6-22.3c-3.8-2.4-7.4-5.2-11.4-6.7
	c-3.8-1.4-8-1.2-11.7,0.5l-2.1-0.5c-1.8-4.5-3.8-4.6-6.1-1.6c-8.8-4.1-16.7-5.9-23.7-5.9c-23,0-36.5,19.4-40.1,42.9l19.2,5.1
	l6.7-10.6l-3.1,11.6l10.6,2.8c16.1,21-3.2,69.4-27.6,96.4c5.8-1.6,11.6-3,17.4-4.1l21-30.8l-13,28c6.8-1,15.4,0,24.8,1.9
	c3.2-4.1,4.8-9.7,3.2-14.6c2.7,5.2,4.5,10.8,5.5,16.5c19.9,4.8,47,7.3,61.5,9.2C837.7,507.6,837.8,464.1,822.9,452.4z"/>
<path class="st5" d="M829.9,369.4c7.8,17.5-7.9,25-22.3,24.7c-13-0.2-24.1-9.3-24.7-22.3c-0.7-13,9.3-24.1,22.3-24.7l0,0
	C818.1,346.4,824.6,357.6,829.9,369.4z"/>
<path class="st9" d="M468.3,653.6l-12.8-21.4l42.7-32.4l17.8-18.7c7.3-7.7,19.4-8,27.1-0.7c2.4,2.3,4.2,5.2,5.2,8.3l0,0
	c3,9.9-2.4,20.4-12.1,23.7l-27.6,9.4L468.3,653.6z"/>
<path class="st4" d="M477.5,652.9l-20,16.7l-5.4,4.5l-0.6,0.5c-1.4,0.7-2.8,1.4-4.2,2c-4.2,2-8.5,3.9-12.8,5.7
	c-11.4,4.8-23.1,8.8-35,12c-2.3,0.6-4.5,1.2-6.8,1.8c-1.4,0.3-2.8,0.7-4.2,1c-0.9,0.2-1.8,0.4-2.7,0.6c-1.1,0.2-2.2,0.5-3.2,0.7
	c-1.1,0.2-2.3,0.5-3.4,0.7c-6.1-5.8-9.6-14-9.6-22.4c0-0.3,0-0.5,0-0.8l3.2-82.3l1.4-36.5c0.5-17.2,14.5-30.8,31.7-30.8
	c1,0,1.9,0,2.9,0.1c0.7,0.9,1.3,1.8,1.9,2.7c1.7,2.5,3.9,6.3,6.5,11.2c1.1,2,2.2,4.2,3.5,6.5c0.7,1.4,7,21,13.2,41.1l-2.7,21
	l-4.9,37.8l20-13.1l14.1-9.3l1.7,2.8l4.3,7.3l8.4,14L477.5,652.9z"/>
<path class="st5" d="M466.6,629.3c0,1.7,0,3.4-0.1,5c-0.2,4.6-0.7,9.1-1.6,13.6c-1.4,7.5-3.8,14.8-7.3,21.6c-0.5,0.9-1,1.8-1.5,2.7
	c-1.3,0.7-2.6,1.3-3.9,2c-0.2,0.1-0.4,0.2-0.7,0.3c-5.6,2.8-11.2,5.4-17,7.8c-11.4,4.8-23.1,8.8-35,12c-2.3,0.6-4.5,1.2-6.8,1.8
	c-4.4,1.1-8.9,2.1-13.5,3c-18.5,3.6-37.2,5.4-56.1,5.4c-1.2,0-2.5,0-3.7,0c-0.4,0-0.8,0-1.1,0c-1.1,0-2.2,0-3.4-0.1
	c-22.2-0.6-44.3-3.8-65.8-9.5c-1.7-0.5-3.4-0.9-5.1-1.4c-16.3-4.6-32.3-10.7-47.5-18.2c-16.8-34.5-13.6-53-16.7-94.8
	c6.2-15.6,111.8-4.6,193.1,13c22.1,4.8,42.3,10,58.3,15.4c16.5,5.5,28.5,11.2,33.2,16.4C465.5,626.4,466.3,627.8,466.6,629.3z"/>
<path class="st7" d="M179.8,587.6c-0.2-2.6-0.3-5.3-0.5-8.1c10.1-25.3,282.2,19.5,286.8,48.9c0,2.7-0.1,5.3-0.3,7.9
	C454.6,607.3,196.1,564.7,179.8,587.6z"/>
</svg>
