<?xml version="1.0" encoding="UTF-8" standalone="no"?>
<svg
   xmlns:dc="http://purl.org/dc/elements/1.1/"
   xmlns:cc="http://creativecommons.org/ns#"
   xmlns:rdf="http://www.w3.org/1999/02/22-rdf-syntax-ns#"
   xmlns:svg="http://www.w3.org/2000/svg"
   xmlns="http://www.w3.org/2000/svg"
   viewBox="0 0 691.20001 226.82668"
   height="226.82668"
   width="691.20001"
   xml:space="preserve"
   id="svg2"
   version="1.1"><metadata
     id="metadata8"><rdf:RDF><cc:Work
         rdf:about=""><dc:format>image/svg+xml</dc:format><dc:type
           rdf:resource="http://purl.org/dc/dcmitype/StillImage" /></cc:Work></rdf:RDF></metadata><defs
     id="defs6" /><g
     transform="matrix(1.3333333,0,0,-1.3333333,0,226.82667)"
     id="g10"><g
       transform="scale(0.1)"
       id="g12"><path
         id="path14"
         style="fill:#38414e;fill-opacity:1;fill-rule:nonzero;stroke:none"
         d="M 21.0625,481.012 120.73,706.043 c 6.95,15.539 19.61,24.949 36.75,24.949 h 3.704 c 17.132,0 29.386,-9.41 36.328,-24.949 l 99.679,-225.031 c 2.016,-4.524 3.247,-8.59 3.247,-12.66 0,-16.77 -13.071,-30.25 -29.801,-30.25 -14.715,0 -24.496,8.589 -30.246,21.66 L 221.195,504.68 H 95.418 L 75.4023,457.699 c -5.3437,-12.25 -15.9492,-19.597 -29.0156,-19.597 -16.3242,0 -28.9804,13.07 -28.9804,29.429 0,4.481 1.6054,8.957 3.6562,13.481 M 197.926,560.25 158.301,654.59 118.68,560.25 h 79.246" /><path
         id="path16"
         style="fill:#38414e;fill-opacity:1;fill-rule:nonzero;stroke:none"
         d="m 319.484,548.789 v 0.82 c 0,62.52 47.801,113.973 114.797,113.973 33.082,0 56.356,-9 74.731,-24.492 4.101,-3.289 9.82,-10.649 9.82,-21.25 0,-15.531 -12.66,-27.789 -28.195,-27.789 -8.18,0 -14.309,3.289 -17.965,6.129 -11.055,8.59 -22.481,13.89 -38.801,13.89 -31.066,0 -53.109,-27.371 -53.109,-59.64 v -0.821 c 0,-33.5 21.629,-60.418 55.535,-60.418 16.359,0 29.016,5.707 40.851,15.079 3.293,2.468 9.411,5.718 16.735,5.718 14.715,0 26.144,-11.84 26.144,-26.558 0,-8.141 -3.66,-14.668 -8.964,-19.598 -18.375,-16.742 -41.676,-28.16 -77.602,-28.16 -65.766,0 -113.977,50.637 -113.977,113.117" /><path
         id="path18"
         style="fill:#38414e;fill-opacity:1;fill-rule:nonzero;stroke:none"
         d="M 569.281,502.629 V 606.41 h -2.015 c -14.715,0 -26.551,11.84 -26.551,26.551 0,14.68 11.836,26.508 26.551,26.508 h 2.015 v 27.383 c 0,17.175 13.891,31.074 31.071,31.074 17.14,0 31.039,-13.899 31.039,-31.074 v -27.383 h 27.367 c 14.715,0 26.551,-11.828 26.551,-26.508 0,-14.711 -11.836,-26.551 -26.551,-26.551 h -27.367 v -93.551 c 0,-14.3 6.121,-21.25 20.015,-21.25 2.051,0 6.121,0.411 7.352,0.411 13.894,0 25.73,-11.418 25.73,-25.731 0,-11.008 -7.355,-20.008 -15.945,-23.258 -11.43,-4.519 -22.031,-6.133 -35.512,-6.133 -37.98,0 -63.75,15.09 -63.75,65.731" /><path
         id="path20"
         style="fill:#38414e;fill-opacity:1;fill-rule:nonzero;stroke:none"
         d="m 718.398,711.762 c 0,18 15.129,29.015 34.735,29.015 19.605,0 34.726,-11.015 34.726,-29.015 v -0.785 c 0,-17.997 -15.121,-29.426 -34.726,-29.426 -19.606,0 -34.735,11.429 -34.735,29.426 z m 3.696,-80.852 c 0,17.141 13.859,31.031 31.039,31.031 17.137,0 31.031,-13.89 31.031,-31.031 V 469.172 c 0,-17.184 -13.894,-31.07 -31.031,-31.07 -17.18,0 -31.039,13.886 -31.039,31.07 V 630.91" /><path
         id="path22"
         style="fill:#38414e;fill-opacity:1;fill-rule:nonzero;stroke:none"
         d="m 822.59,548.789 v 0.82 c 0,62.93 50.637,113.973 118.828,113.973 67.822,0 118.052,-50.223 118.052,-113.152 v -0.821 c 0,-62.89 -50.64,-113.937 -118.833,-113.937 -67.821,0 -118.047,50.226 -118.047,113.117 m 175.629,0 v 0.82 c 0,32.262 -23.297,60.461 -57.582,60.461 -35.547,0 -56.801,-27.371 -56.801,-59.64 v -0.821 c 0,-32.257 23.305,-60.418 57.582,-60.418 35.555,0 56.801,27.329 56.801,59.598" /><path
         id="path24"
         style="fill:#38414e;fill-opacity:1;fill-rule:nonzero;stroke:none"
         d="m 1097.67,630.91 c 0,17.141 13.89,31.031 31.03,31.031 17.18,0 31.08,-13.89 31.08,-31.031 v -2.461 c 14.26,18.36 32.67,35.133 64.12,35.133 46.98,0 74.31,-31.031 74.31,-81.293 V 469.172 c 0,-17.184 -13.89,-31.07 -31.03,-31.07 -17.14,0 -31.04,13.886 -31.04,31.07 v 93.508 c 0,29.429 -13.89,44.511 -37.56,44.511 -23.72,0 -38.8,-15.082 -38.8,-44.511 v -93.508 c 0,-17.184 -13.9,-31.07 -31.08,-31.07 -17.14,0 -31.03,13.886 -31.03,31.07 V 630.91" /><path
         id="path26"
         style="fill:#38414e;fill-opacity:1;fill-rule:nonzero;stroke:none"
         d="m 1448.26,582.699 v 0.821 c 0,81.3 61.28,147.886 149.12,147.886 42.87,0 71.89,-11.468 95.57,-29.015 6.53,-4.903 12.25,-13.903 12.25,-24.911 0,-17.179 -13.9,-30.66 -31.04,-30.66 -8.59,0 -14.3,3.282 -18.78,6.16 -17.59,13.071 -35.97,20.391 -58.41,20.391 -48.21,0 -82.94,-40.031 -82.94,-89.031 v -0.82 c 0,-49 33.91,-89.848 82.94,-89.848 26.55,0 44.1,8.18 62.07,22.437 4.89,4.11 11.42,6.95 18.78,6.95 15.95,0 29.43,-13.079 29.43,-28.977 0,-9.82 -4.89,-17.594 -10.64,-22.492 -25.74,-22.442 -55.95,-35.918 -101.7,-35.918 -84.13,0 -146.65,64.937 -146.65,147.027" /><path
         id="path28"
         style="fill:#38414e;fill-opacity:1;fill-rule:nonzero;stroke:none"
         d="m 1736.53,503.449 v 0.821 c 0,47.8 36.34,69.878 88.2,69.878 22.08,0 37.98,-3.699 53.52,-9 v 3.661 c 0,25.73 -15.95,40.031 -46.98,40.031 -17.14,0 -31.03,-2.43 -42.87,-6.129 -3.7,-1.231 -6.12,-1.641 -9,-1.641 -14.3,0 -25.73,11.051 -25.73,25.36 0,11.011 6.95,20.39 16.73,24.09 19.6,7.351 40.86,11.421 69.87,11.421 33.87,0 58.41,-8.961 73.9,-24.5 16.36,-16.359 23.72,-40.441 23.72,-69.832 V 467.93 c 0,-16.758 -13.48,-29.828 -30.25,-29.828 -17.96,0 -29.8,12.66 -29.8,25.73 v 0.406 c -15.13,-16.726 -35.96,-27.75 -66.17,-27.75 -41.27,0 -75.14,23.684 -75.14,66.961 m 142.54,14.313 v 11.008 c -10.64,4.929 -24.54,8.179 -39.62,8.179 -26.55,0 -42.91,-10.609 -42.91,-30.219 v -0.82 c 0,-16.719 13.89,-26.539 33.91,-26.539 29.02,0 48.62,15.938 48.62,38.391" /><path
         id="path30"
         style="fill:#38414e;fill-opacity:1;fill-rule:nonzero;stroke:none"
         d="m 1986.14,630.91 c 0,17.141 13.89,31.031 31.03,31.031 17.18,0 31.08,-13.89 31.08,-31.031 v -2.461 c 14.26,18.36 32.67,35.133 64.11,35.133 46.98,0 74.32,-31.031 74.32,-81.293 V 469.172 c 0,-17.184 -13.9,-31.07 -31.03,-31.07 -17.14,0 -31.03,13.886 -31.03,31.07 v 93.508 c 0,29.429 -13.9,44.511 -37.57,44.511 -23.72,0 -38.8,-15.082 -38.8,-44.511 v -93.508 c 0,-17.184 -13.9,-31.07 -31.08,-31.07 -17.14,0 -31.03,13.886 -31.03,31.07 V 630.91" /><path
         id="path32"
         style="fill:#38414e;fill-opacity:1;fill-rule:nonzero;stroke:none"
         d="m 2221.82,503.449 v 0.821 c 0,47.8 36.34,69.878 88.21,69.878 22.07,0 37.98,-3.699 53.52,-9 v 3.661 c 0,25.73 -15.95,40.031 -46.98,40.031 -17.15,0 -31.04,-2.43 -42.88,-6.129 -3.69,-1.231 -6.12,-1.641 -9,-1.641 -14.3,0 -25.73,11.051 -25.73,25.36 0,11.011 6.94,20.39 16.73,24.09 19.6,7.351 40.86,11.421 69.88,11.421 33.86,0 58.4,-8.961 73.9,-24.5 16.35,-16.359 23.71,-40.441 23.71,-69.832 V 467.93 c 0,-16.758 -13.48,-29.828 -30.24,-29.828 -17.97,0 -29.8,12.66 -29.8,25.73 v 0.406 c -15.13,-16.726 -35.97,-27.75 -66.18,-27.75 -41.27,0 -75.14,23.684 -75.14,66.961 m 142.55,14.313 v 11.008 c -10.65,4.929 -24.54,8.179 -39.63,8.179 -26.55,0 -42.91,-10.609 -42.91,-30.219 v -0.82 c 0,-16.719 13.9,-26.539 33.91,-26.539 29.02,0 48.63,15.938 48.63,38.391" /><path
         id="path34"
         style="fill:#38414e;fill-opacity:1;fill-rule:nonzero;stroke:none"
         d="m 2690.5,469.172 c 0,-17.184 -13.89,-31.07 -31.04,-31.07 -17.17,0 -31.07,13.886 -31.07,31.07 v 2.84 c -15.08,-20.43 -35.92,-35.512 -68.19,-35.512 -51.05,0 -99.67,39.988 -99.67,113.109 v 0.821 c 0,73.121 47.8,113.152 99.67,113.152 33.09,0 53.52,-15.121 68.19,-32.672 v 79.242 c 0,17.145 13.9,31.032 31.07,31.032 17.15,0 31.04,-13.887 31.04,-31.032 z m -167.86,81.258 v -0.821 c 0,-36.328 24.49,-60.418 53.47,-60.418 29.02,0 53.11,24.09 53.11,60.418 v 0.821 c 0,36.371 -24.09,60.461 -53.11,60.461 -28.98,0 -53.47,-23.68 -53.47,-60.461" /><path
         id="path36"
         style="fill:#38414e;fill-opacity:1;fill-rule:nonzero;stroke:none"
         d="m 2728.18,503.449 v 0.821 c 0,47.8 36.34,69.878 88.2,69.878 22.08,0 37.98,-3.699 53.52,-9 v 3.661 c 0,25.73 -15.95,40.031 -46.98,40.031 -17.14,0 -31.03,-2.43 -42.87,-6.129 -3.7,-1.231 -6.12,-1.641 -9,-1.641 -14.3,0 -25.73,11.051 -25.73,25.36 0,11.011 6.95,20.39 16.73,24.09 19.6,7.351 40.86,11.421 69.87,11.421 33.87,0 58.41,-8.961 73.9,-24.5 16.36,-16.359 23.72,-40.441 23.72,-69.832 V 467.93 c 0,-16.758 -13.48,-29.828 -30.25,-29.828 -17.96,0 -29.8,12.66 -29.8,25.73 v 0.406 c -15.13,-16.726 -35.96,-27.75 -66.17,-27.75 -41.27,0 -75.14,23.684 -75.14,66.961 m 142.54,14.313 v 11.008 c -10.64,4.929 -24.53,8.179 -39.62,8.179 -26.55,0 -42.91,-10.609 -42.91,-30.219 v -0.82 c 0,-16.719 13.9,-26.539 33.91,-26.539 29.02,0 48.62,15.938 48.62,38.391" /><path
         id="path38"
         style="fill:#e45a48;fill-opacity:1;fill-rule:nonzero;stroke:none"
         d="m 41.0781,232.02 h -2.4609 c -14.3047,0 -25.7344,11.011 -25.7344,25.32 0,14.301 11.4297,25.73 25.7344,25.73 h 2.4609 v 13.891 c 0,24.09 6.1289,41.641 17.5547,53.098 11.4258,11.441 28.1953,17.152 50.2622,17.152 9.785,0 18.375,-0.422 25.324,-1.652 10.605,-1.637 21.211,-11.008 21.211,-24.911 0,-13.886 -11.426,-25.718 -25.321,-25.718 h -5.3 c -14.305,0 -22.45,-7.36 -22.45,-23.692 v -8.578 h 26.926 c 14.309,0 25.735,-11.019 25.735,-25.32 0,-14.309 -11.426,-25.32 -25.735,-25.32 h -26.14 V 94.7813 c 0,-17.1797 -13.8559,-31.0821 -31.0317,-31.0821 -17.1445,0 -31.0352,13.9024 -31.0352,31.0821 V 232.02" /><path
         id="path40"
         style="fill:#e45a48;fill-opacity:1;fill-rule:nonzero;stroke:none"
         d="m 163.793,174.391 v 0.828 c 0,62.922 50.641,113.972 118.867,113.972 67.824,0 118.051,-50.23 118.051,-113.152 v -0.82 c 0,-62.887 -50.637,-113.9377 -118.871,-113.9377 -67.82,0 -118.047,50.2307 -118.047,113.1097 m 175.633,0 v 0.828 c 0,32.261 -23.266,60.461 -57.586,60.461 -35.512,0 -56.766,-27.371 -56.766,-59.641 v -0.82 c 0,-32.27 23.27,-60.43 57.586,-60.43 35.555,0 56.766,27.34 56.766,59.602" /><path
         id="path42"
         style="fill:#e45a48;fill-opacity:1;fill-rule:nonzero;stroke:none"
         d="m 438.91,256.52 c 0,17.14 13.856,31.031 31.035,31.031 17.141,0 31.032,-13.891 31.032,-31.031 v -9.821 c 9,21.242 23.679,40.852 42.089,40.852 19.196,0 30.211,-12.66 30.211,-30.211 0,-16.36 -10.605,-26.149 -23.261,-29.02 -31.485,-7.359 -49.039,-31.441 -49.039,-75.55 V 94.7813 c 0,-17.1797 -13.891,-31.0704 -31.032,-31.0704 -17.179,0 -31.035,13.8907 -31.035,31.0704 V 256.52" /><path
         id="path44"
         style="fill:#e45a48;fill-opacity:1;fill-rule:nonzero;stroke:none"
         d="m 712.688,96.3789 c -6.95,4.9301 -11.84,13.8911 -11.84,23.7231 0,16.308 13.07,28.968 29.39,28.968 8.18,0 13.891,-2.832 17.965,-5.711 21.656,-15.91 45.375,-25.73 73.117,-25.73 25.731,0 41.27,10.23 41.27,26.961 v 0.82 c 0,15.922 -9.82,24.102 -57.586,36.34 -57.586,14.711 -94.781,30.66 -94.781,87.43 V 270 c 0,51.871 41.675,86.191 100.082,86.191 34.73,0 64.941,-9 90.675,-25.359 6.942,-4.07 13.887,-12.66 13.887,-24.91 0,-16.32 -13.066,-28.981 -29.426,-28.981 -6.125,0 -11.015,1.61 -15.91,4.481 -20.836,12.258 -40.441,19.199 -60.051,19.199 -24.082,0 -36.746,-11.019 -36.746,-24.91 v -0.82 c 0,-18.782 12.254,-24.911 61.661,-37.571 57.996,-15.121 90.668,-35.961 90.668,-85.781 v -0.82 c 0,-56.7581 -43.278,-88.6174 -104.973,-88.6174 -37.57,0 -75.551,11.4297 -107.402,34.2773" /><path
         id="path46"
         style="fill:#e45a48;fill-opacity:1;fill-rule:nonzero;stroke:none"
         d="m 1070.93,61.2813 c -65.76,0 -114.348,46.1597 -114.348,113.1167 v 0.821 c 0,62.511 44.518,113.972 108.228,113.972 73.12,0 105.38,-60.05 105.38,-105.382 0,-17.969 -12.66,-29.797 -29.01,-29.797 h -122.94 c 6.12,-28.203 25.73,-42.91 53.51,-42.91 17.15,0 31.45,5.296 44.11,14.707 4.52,3.25 8.59,4.89 15.12,4.89 13.9,0 24.09,-10.597 24.09,-24.488 0,-8.1797 -3.66,-14.3126 -8.14,-18.379 -19.23,-16.3632 -44.14,-26.5507 -76,-26.5507 m 40.04,131.5277 c -3.66,27.75 -20.02,46.519 -46.16,46.519 -25.73,0 -42.46,-18.359 -47.39,-46.519 h 93.55" /><path
         id="path48"
         style="fill:#e45a48;fill-opacity:1;fill-rule:nonzero;stroke:none"
         d="m 1200.29,111.102 55.98,66.168 -51.04,58.82 c -6.95,8.18 -10.24,15.539 -10.24,23.68 0,17.582 13.07,28.601 28.61,28.601 12.25,0 20.84,-5.711 28.97,-15.941 l 40.45,-53.899 41.27,53.899 c 7.36,9 15.94,15.941 26.96,15.941 16.32,0 28.98,-11.43 28.98,-26.961 0,-8.59 -3.66,-15.129 -8.55,-21.25 l -53.11,-62.07 54.71,-62.879 c 6.95,-8.18 10.23,-15.5391 10.23,-23.7227 0,-17.5469 -13.06,-28.5664 -28.6,-28.5664 -12.25,0 -20.84,5.7187 -28.98,15.9101 l -44.14,57.996 -44.1,-57.996 c -7.36,-9 -15.92,-15.9101 -26.97,-15.9101 -16.31,0 -28.98,11.4297 -28.98,26.9297 0,8.5898 3.25,15.1174 8.55,21.2504" /><path
         id="path50"
         style="fill:#e45a48;fill-opacity:1;fill-rule:nonzero;stroke:none"
         d="m 1626.43,94.7813 c 0,-17.1797 -13.88,-31.0704 -31.03,-31.0704 -17.18,0 -31.03,13.8907 -31.03,31.0704 v 2.4179 c -14.31,-18.3672 -32.68,-35.0976 -64.16,-35.0976 -46.94,0 -74.32,31.0273 -74.32,81.2574 V 256.52 c 0,17.14 13.9,31.031 31.04,31.031 17.14,0 31.03,-13.891 31.03,-31.031 v -93.551 c 0,-29.387 13.89,-44.52 37.61,-44.52 23.67,0 38.8,15.133 38.8,44.52 v 93.551 c 0,17.14 13.85,31.031 31.03,31.031 17.15,0 31.03,-13.891 31.03,-31.031 V 94.7813" /><path
         id="path52"
         style="fill:#e45a48;fill-opacity:1;fill-rule:nonzero;stroke:none"
         d="m 1663.14,129.059 v 0.82 c 0,47.801 36.34,69.871 88.25,69.871 22.04,0 37.98,-3.699 53.48,-9 v 3.66 c 0,25.731 -15.91,40.031 -46.94,40.031 -17.18,0 -31.07,-2.421 -42.92,-6.121 -3.65,-1.23 -6.12,-1.64 -9,-1.64 -14.26,0 -25.72,11.05 -25.72,25.351 0,11.02 6.95,20.391 16.77,24.09 19.6,7.359 40.85,11.43 69.83,11.43 33.9,0 58.41,-9 73.94,-24.5 16.32,-16.36 23.68,-40.442 23.68,-69.832 V 93.5391 c 0,-16.7578 -13.48,-29.8399 -30.21,-29.8399 -17.97,0 -29.84,12.6602 -29.84,25.7422 v 0.4102 c -15.09,-16.7422 -35.93,-27.75 -66.14,-27.75 -41.26,0 -75.18,23.6797 -75.18,66.9574 m 142.55,14.3 v 11.063 c -10.61,4.887 -24.5,8.129 -39.62,8.129 -26.56,0 -42.88,-10.602 -42.88,-30.211 v -0.82 c 0,-16.719 13.9,-26.551 33.91,-26.551 28.98,0 48.59,15.953 48.59,38.39" /><path
         id="path54"
         style="fill:#e45a48;fill-opacity:1;fill-rule:nonzero;stroke:none"
         d="m 1914.25,335.762 c 0,17.136 13.89,31.027 31.03,31.027 17.18,0 31.08,-13.891 31.08,-31.027 V 94.7813 c 0,-17.1797 -13.9,-31.0821 -31.08,-31.0821 -17.14,0 -31.03,13.9024 -31.03,31.0821 V 335.762" /><path
         id="path56"
         style="fill:#e45a48;fill-opacity:1;fill-rule:nonzero;stroke:none"
         d="m 2143.51,323.102 c 0,17.558 13.85,31.437 31.44,31.437 17.56,0 31.44,-13.879 31.44,-31.437 v -84.141 h 116 v 84.141 c 0,17.558 13.89,31.437 31.45,31.437 17.59,0 31.47,-13.879 31.47,-31.437 V 95.1914 c 0,-17.5898 -13.88,-31.4805 -31.47,-31.4805 -17.56,0 -31.45,13.8907 -31.45,31.4805 V 180.93 h -116 V 95.1914 c 0,-17.5898 -13.88,-31.4805 -31.44,-31.4805 -17.59,0 -31.44,13.8907 -31.44,31.4805 V 323.102" /><path
         id="path58"
         style="fill:#e45a48;fill-opacity:1;fill-rule:nonzero;stroke:none"
         d="m 2546.38,61.2813 c -65.76,0 -114.38,46.1597 -114.38,113.1167 v 0.821 c 0,62.511 44.51,113.972 108.26,113.972 73.08,0 105.35,-60.05 105.35,-105.382 0,-17.969 -12.66,-29.797 -28.98,-29.797 h -122.94 c 6.12,-28.203 25.73,-42.91 53.51,-42.91 17.15,0 31.45,5.296 44.11,14.707 4.48,3.25 8.55,4.89 15.09,4.89 13.89,0 24.12,-10.597 24.12,-24.488 0,-8.1797 -3.7,-14.3126 -8.18,-18.379 -19.19,-16.3632 -44.1,-26.5507 -75.96,-26.5507 m 40.04,131.5277 c -3.7,27.75 -20.02,46.519 -46.16,46.519 -25.73,0 -42.5,-18.359 -47.39,-46.519 h 93.55" /><path
         id="path60"
         style="fill:#e45a48;fill-opacity:1;fill-rule:nonzero;stroke:none"
         d="m 2668.8,129.059 v 0.82 c 0,47.801 36.34,69.871 88.21,69.871 22.07,0 37.98,-3.699 53.51,-9 v 3.66 c 0,25.731 -15.94,40.031 -46.98,40.031 -17.14,0 -31.03,-2.421 -42.87,-6.121 -3.7,-1.23 -6.12,-1.64 -9,-1.64 -14.3,0 -25.73,11.05 -25.73,25.351 0,11.02 6.94,20.391 16.73,24.09 19.6,7.359 40.86,11.43 69.87,11.43 33.87,0 58.41,-9 73.9,-24.5 16.36,-16.36 23.72,-40.442 23.72,-69.832 V 93.5391 c 0,-16.7578 -13.48,-29.8399 -30.25,-29.8399 -17.96,0 -29.8,12.6602 -29.8,25.7422 v 0.4102 c -15.12,-16.7422 -35.96,-27.75 -66.17,-27.75 -41.27,0 -75.14,23.6797 -75.14,66.9574 m 142.54,14.3 v 11.063 c -10.64,4.887 -24.53,8.129 -39.62,8.129 -26.55,0 -42.91,-10.602 -42.91,-30.211 v -0.82 c 0,-16.719 13.9,-26.551 33.91,-26.551 29.02,0 48.62,15.953 48.62,38.39" /><path
         id="path62"
         style="fill:#e45a48;fill-opacity:1;fill-rule:nonzero;stroke:none"
         d="m 2919.9,335.762 c 0,17.136 13.86,31.027 31.04,31.027 17.14,0 31.03,-13.891 31.03,-31.027 V 94.7813 c 0,-17.1797 -13.89,-31.0821 -31.03,-31.0821 -17.18,0 -31.04,13.9024 -31.04,31.0821 V 335.762" /><path
         id="path64"
         style="fill:#e45a48;fill-opacity:1;fill-rule:nonzero;stroke:none"
         d="m 3043.11,128.27 v 103.75 h -2.02 c -14.72,0 -26.55,11.839 -26.55,26.55 0,14.68 11.83,26.551 26.55,26.551 h 2.02 v 27.34 c 0,17.18 13.88,31.059 31.06,31.059 17.15,0 31.04,-13.879 31.04,-31.059 v -27.34 h 27.37 c 14.72,0 26.55,-11.871 26.55,-26.551 0,-14.711 -11.83,-26.55 -26.55,-26.55 h -27.37 v -93.551 c 0,-14.309 6.12,-21.25 20.02,-21.25 2.05,0 6.12,0.41 7.35,0.41 13.9,0 25.73,-11.418 25.73,-25.7306 0,-11.0195 -7.36,-20.0195 -15.95,-23.2578 -11.42,-4.5312 -22.03,-6.1289 -35.51,-6.1289 -37.98,0 -63.74,15.0899 -63.74,65.7583" /><path
         id="path66"
         style="fill:#e45a48;fill-opacity:1;fill-rule:nonzero;stroke:none"
         d="m 3195.28,335.762 c 0,17.136 13.86,31.027 31.04,31.027 17.14,0 31.03,-13.891 31.03,-31.027 v -81.711 c 14.3,18.371 32.68,35.14 64.12,35.14 46.98,0 74.36,-31.031 74.36,-81.293 V 94.7813 c 0,-17.1797 -13.9,-31.0821 -31.04,-31.0821 -17.18,0 -31.07,13.9024 -31.07,31.0821 v 93.5077 c 0,29.43 -13.89,44.551 -37.57,44.551 -23.67,0 -38.8,-15.121 -38.8,-44.551 V 94.7813 c 0,-17.1797 -13.89,-31.0821 -31.03,-31.0821 -17.18,0 -31.04,13.9024 -31.04,31.0821 V 335.762" /><path
         id="path68"
         style="fill:#e45a48;fill-opacity:1;fill-rule:nonzero;stroke:none"
         d="m 3743.17,71.0586 -24.13,24.1328 c -23.26,-20.0195 -51.05,-33.0898 -84.95,-33.0898 -54.72,0 -95.98,31.8476 -95.98,82.5004 v 0.82 c 0,36.34 19.61,62.058 55.56,78.418 -14.3,19.601 -20.01,37.57 -20.01,57.172 v 0.828 c 0,39.211 31.45,75.129 86.56,75.129 48.63,0 80.48,-31.848 80.48,-71.84 v -0.828 c 0,-38.391 -24.5,-60.871 -59.64,-74.77 l 37.61,-37.152 c 6.53,9.793 12.66,20.019 18.78,31.031 2.84,5.711 11.02,14.301 23.27,14.301 14.3,0 26.14,-11.832 26.14,-26.129 0,-4.531 -1.23,-9 -3.66,-13.082 -8.18,-14.301 -17.59,-29.02 -27.37,-42.898 l 26.14,-25.743 c 5.72,-5.711 9.37,-11.8277 9.37,-20.4176 0,-15.5 -11.83,-27.3398 -27.34,-27.3398 -8.59,0 -14.3,2.4179 -20.83,8.957 m -60.05,59.6404 -54.75,55.16 c -19.19,-10.23 -26.96,-23.711 -26.96,-38.019 v -0.781 c 0,-20.02 16.77,-33.5 40.03,-33.5 14.72,0 28.6,6.531 41.68,17.14 m 2.87,149.903 v 0.82 c 0,16.359 -11.05,26.558 -26.96,26.558 -16.77,0 -27.79,-11.839 -27.79,-29.019 v -0.781 c 0,-12.7 4.9,-22.078 16.74,-35.559 24.94,9.41 38.01,19.609 38.01,37.981" /><path
         id="path70"
         style="fill:#e45a48;fill-opacity:1;fill-rule:nonzero;stroke:none"
         d="m 3945.13,320.641 c 0,17.55 13.89,31.441 31.44,31.441 h 99.27 c 36.33,0 64.52,-10.203 83.31,-28.98 15.95,-15.942 24.54,-38.391 24.54,-65.364 v -0.816 c 0,-44.922 -22.48,-72.703 -57.22,-87.012 l 43.73,-53.101 c 6.13,-7.77 10.2,-14.297 10.2,-24.0902 0,-17.5469 -14.71,-29.0196 -29.81,-29.0196 -14.3,0 -23.71,6.9492 -31.06,16.3594 l -61.25,77.6014 h -50.27 V 95.1914 c 0,-17.5898 -13.85,-31.4922 -31.44,-31.4922 -17.55,0 -31.44,13.9024 -31.44,31.4922 z m 126.63,-107.442 c 30.62,0 48.18,16.36 48.18,40.442 v 0.82 c 0,26.969 -18.79,40.848 -49.41,40.848 h -62.52 v -82.11 h 63.75" /><path
         id="path72"
         style="fill:#e45a48;fill-opacity:1;fill-rule:nonzero;stroke:none"
         d="m 4227.79,337.398 c 0,17.973 15.08,28.981 34.69,28.981 19.61,0 34.73,-11.008 34.73,-28.981 v -0.816 c 0,-18 -15.12,-29.422 -34.73,-29.422 -19.61,0 -34.69,11.422 -34.69,29.422 z m 3.66,-80.878 c 0,17.14 13.89,31.031 31.03,31.031 17.18,0 31.07,-13.891 31.07,-31.031 V 94.7813 c 0,-17.1797 -13.89,-31.0821 -31.07,-31.0821 -17.14,0 -31.03,13.9024 -31.03,31.0821 V 256.52" /><path
         id="path74"
         style="fill:#e45a48;fill-opacity:1;fill-rule:nonzero;stroke:none"
         d="m 4360.06,15.1211 c -10.64,4.0703 -17.59,12.6602 -17.59,24.0781 0,13.9024 11.47,25.3321 25.36,25.3321 4.07,0 7.32,-0.8204 10.2,-2.0196 17.96,-8.1836 37.16,-13.0703 60.46,-13.0703 42.46,0 62.48,20.3906 62.48,59.5976 v 10.652 c -18.38,-22.0699 -38.39,-35.5621 -71.48,-35.5621 -51.05,0 -97.21,37.2031 -97.21,102.1411 v 0.789 c 0,65.351 46.98,102.14 97.21,102.14 33.91,0 53.92,-14.308 70.65,-32.679 v 0.41 c 0,16.73 13.9,30.621 31.08,30.621 17.14,0 31.03,-13.891 31.03,-31.031 V 115.578 c 0,-39.2186 -9.41,-67.7889 -27.79,-86.1483 -20.42,-20.44142 -51.87,-29.4414188 -94.33,-29.4414188 -29.02,0 -54.33,4.9023488 -80.07,15.1328188 M 4500.97,186.27 v 0.789 c 0,29.832 -23.27,50.671 -53.52,50.671 -30.21,0 -53.06,-20.839 -53.06,-50.671 v -0.789 c 0,-30.25 22.85,-50.68 53.06,-50.68 30.25,0 53.52,20.851 53.52,50.68" /><path
         id="path76"
         style="fill:#e45a48;fill-opacity:1;fill-rule:nonzero;stroke:none"
         d="m 4612.89,335.762 c 0,17.136 13.89,31.027 31.03,31.027 17.18,0 31.07,-13.891 31.07,-31.027 v -81.711 c 14.27,18.371 32.68,35.14 64.12,35.14 46.98,0 74.32,-31.031 74.32,-81.293 V 94.7813 c 0,-17.1797 -13.9,-31.0821 -31.03,-31.0821 -17.15,0 -31.04,13.9024 -31.04,31.0821 v 93.5077 c 0,29.43 -13.89,44.551 -37.57,44.551 -23.71,0 -38.8,-15.121 -38.8,-44.551 V 94.7813 c 0,-17.1797 -13.89,-31.0821 -31.07,-31.0821 -17.14,0 -31.03,13.9024 -31.03,31.0821 V 335.762" /><path
         id="path78"
         style="fill:#e45a48;fill-opacity:1;fill-rule:nonzero;stroke:none"
         d="m 4868.88,128.27 v 103.75 h -2.05 c -14.68,0 -26.55,11.839 -26.55,26.55 0,14.68 11.87,26.551 26.55,26.551 h 2.05 v 27.34 c 0,17.18 13.9,31.059 31.04,31.059 17.18,0 31.03,-13.879 31.03,-31.059 v -27.34 h 27.37 c 14.72,0 26.56,-11.871 26.56,-26.551 0,-14.711 -11.84,-26.55 -26.56,-26.55 h -27.37 v -93.551 c 0,-14.309 6.16,-21.25 20.02,-21.25 2.05,0 6.12,0.41 7.35,0.41 13.9,0 25.74,-11.418 25.74,-25.7306 0,-11.0195 -7.36,-20.0195 -15.92,-23.2578 -11.42,-4.5312 -22.06,-6.1289 -35.54,-6.1289 -37.98,0 -63.72,15.0899 -63.72,65.7583" /><path
         id="path80"
         style="fill:#e45a48;fill-opacity:1;fill-rule:nonzero;stroke:none"
         d="m 5017.78,87.0117 c -6.54,4.0703 -11.84,11.418 -11.84,21.2503 0,13.859 10.61,24.5 24.5,24.5 4.48,0 9,-1.231 12.25,-3.293 20.84,-13.071 41.67,-19.61 59.23,-19.61 17.96,0 26.13,6.539 26.13,16.36 v 0.82 c 0,13.492 -21.24,17.961 -45.33,25.32 -30.62,8.973 -65.35,23.27 -65.35,65.77 v 0.82 c 0,44.512 35.93,69.422 80.06,69.422 22.86,0 46.57,-6.133 67.78,-16.73 9,-4.52 14.72,-12.661 14.72,-23.301 0,-13.899 -11.02,-24.5 -24.91,-24.5 -4.48,0 -7.35,0.82 -11.43,2.832 -17.59,8.59 -34.32,13.898 -47.39,13.898 -15.12,0 -22.89,-6.539 -22.89,-15.09 v -0.82 c 0,-12.25 20.84,-17.961 44.55,-26.14 30.63,-10.239 66.14,-24.911 66.14,-64.938 v -0.82 c 0,-48.6214 -36.33,-70.6604 -83.73,-70.6604 -26.96,0 -55.94,7.7304 -82.49,24.9101" /><path
         id="path82"
         style="fill:#38414e;fill-opacity:1;fill-rule:nonzero;stroke:none"
         d="m 192.309,1005.69 c -22.52,0 -43.696,8.77 -59.621,24.7 -15.926,15.93 -24.7,37.1 -24.7,59.62 0,22.53 8.774,43.7 24.7,59.63 l 416.8,416.8 c 15.926,15.92 37.102,24.69 59.621,24.69 22.524,0 43.7,-8.77 59.625,-24.69 15.926,-15.93 24.696,-37.1 24.696,-59.63 0,-22.52 -8.77,-43.69 -24.696,-59.62 l -416.8,-416.8 c -15.926,-15.93 -37.102,-24.7 -59.625,-24.7 m 416.8,546.74 c -12.183,0 -23.636,-4.75 -32.25,-13.37 L 160.055,1122.27 c -8.614,-8.62 -13.36,-20.07 -13.36,-32.26 0,-12.18 4.746,-23.63 13.36,-32.25 8.617,-8.62 20.074,-13.35 32.254,-13.35 12.183,0 23.636,4.73 32.25,13.35 l 416.8,416.8 c 8.618,8.62 13.364,20.07 13.364,32.25 0,12.19 -4.746,23.64 -13.364,32.26 -8.613,8.61 -20.066,13.36 -32.25,13.36" /><path
         id="path84"
         style="fill:#38414e;fill-opacity:1;fill-rule:nonzero;stroke:none"
         d="m 609.109,1005.69 c -22.519,0 -43.699,8.77 -59.625,24.7 l -416.8,416.8 c -15.926,15.93 -24.696,37.1 -24.696,59.62 0,22.53 8.77,43.7 24.696,59.63 15.929,15.92 37.101,24.69 59.625,24.69 22.519,0 43.695,-8.77 59.625,-24.69 l 416.796,-416.8 c 15.93,-15.93 24.7,-37.1 24.7,-59.63 0,-22.52 -8.77,-43.69 -24.7,-59.62 -15.925,-15.93 -37.097,-24.7 -59.621,-24.7 m -416.8,546.74 c -12.184,0 -23.637,-4.75 -32.25,-13.37 -8.618,-8.61 -13.364,-20.06 -13.364,-32.25 0,-12.18 4.746,-23.63 13.364,-32.25 l 416.8,-416.8 c 8.614,-8.62 20.067,-13.35 32.25,-13.35 12.184,0 23.637,4.73 32.25,13.35 8.618,8.62 13.364,20.07 13.364,32.25 0,12.19 -4.746,23.64 -13.364,32.25 l -416.8,416.81 c -8.614,8.61 -20.067,13.36 -32.25,13.36" /><path
         id="path86"
         style="fill:#38414e;fill-opacity:1;fill-rule:nonzero;stroke:none"
         d="m 400.711,1514.09 c -51.59,0 -93.551,41.97 -93.551,93.55 0,51.59 41.961,93.55 93.551,93.55 51.586,0 93.547,-41.96 93.547,-93.55 0,-51.58 -41.961,-93.55 -93.547,-93.55 m 0,148.39 c -30.242,0 -54.844,-24.6 -54.844,-54.84 0,-30.24 24.602,-54.84 54.844,-54.84 30.238,0 54.84,24.6 54.84,54.84 0,30.24 -24.602,54.84 -54.84,54.84" /><path
         id="path88"
         style="fill:#38414e;fill-opacity:1;fill-rule:nonzero;stroke:none"
         d="m 707.867,1206.93 c -51.59,0 -93.551,41.97 -93.551,93.55 0,51.59 41.961,93.56 93.551,93.56 51.586,0 93.547,-41.97 93.547,-93.56 0,-51.58 -41.961,-93.55 -93.547,-93.55 m 0,148.4 c -30.242,0 -54.844,-24.6 -54.844,-54.85 0,-30.23 24.602,-54.83 54.844,-54.83 30.238,0 54.84,24.6 54.84,54.83 0,30.25 -24.602,54.85 -54.84,54.85" /><path
         id="path90"
         style="fill:#38414e;fill-opacity:1;fill-rule:nonzero;stroke:none"
         d="M 93.5508,1206.93 C 41.9688,1206.93 0,1248.9 0,1300.48 c 0,51.59 41.9688,93.56 93.5508,93.56 51.5822,0 93.5512,-41.97 93.5512,-93.56 0,-51.58 -41.969,-93.55 -93.5512,-93.55 m 0,148.4 c -30.2383,0 -54.8438,-24.6 -54.8438,-54.85 0,-30.23 24.6055,-54.83 54.8438,-54.83 30.2382,0 54.8442,24.6 54.8442,54.83 0,30.25 -24.606,54.85 -54.8442,54.85" /></g></g></svg>