<?xml version="1.0" encoding="utf-8"?>
<!-- Generator: Adobe Illustrator 27.8.0, SVG Export Plug-In . SVG Version: 6.00 Build 0)  -->
<svg version="1.1" id="Layer_1" xmlns="http://www.w3.org/2000/svg" xmlns:xlink="http://www.w3.org/1999/xlink" x="0px" y="0px"
	 viewBox="0 0 136 23.1" style="enable-background:new 0 0 136 23.1;" xml:space="preserve">
<style type="text/css">
	.st0{fill:#FFFFFF;}
</style>
<path class="st0" d="M47.9,4.7c-1.5,0-3,0.6-3.9,2.1h-0.1V0h-3.4v18.1h3.4v-1.8H44c0.9,1.5,2.5,2.1,3.9,2.1c3.8,0,5.9-3.2,5.9-6.9
	C53.7,7.8,51.6,4.7,47.9,4.7z M47,15.7c-2.2,0-3.2-1.9-3.2-4.1c0-2.3,1-4.2,3.2-4.2c2.3,0,3.2,2.1,3.2,4.2
	C50.2,13.6,49.3,15.7,47,15.7z M20.7,9.4v8.7h-3.4V9.9c0-1.4-0.7-2.4-2.2-2.4c-2.1,0-3.1,1.7-3.1,3.8v6.8H8.7V0h3.4v7.1h0.1
	c0.8-1.7,2.4-2.4,4.1-2.4C19.6,4.7,20.7,6.7,20.7,9.4z M3.4,5h4.1v2.8H3.4v7.5h4.1v2.8H2.4L0,16V1.1h3.4V5z M34.8,11.1
	c-0.2-3.8-2.5-6.5-6.4-6.5c-4.1,0-6.4,2.9-6.4,6.9c0,4,2.3,6.9,6.6,6.9c3.1,0,5.4-1.5,6.1-4.7h-3.3c-0.4,1.3-1.4,2-2.8,2
	c-1.9,0-3-1.1-3.2-3.3h7.9L34.8,11.1z M25.5,10.2c0.4-1.9,1.5-2.9,2.9-2.9c1.5,0,2.7,0.9,3,2.9H25.5z M110.9,5l-4.1,13.1h-4
	l-2.2-8.4h-0.1l-2.2,8.4h-4L90.4,5H94l2.6,9.7h0.1L99.2,5h3l2.5,9.7h0.1l2.6-9.7C107.3,5,110.9,5,110.9,5z M124.1,15.6h-1.5v-6
	c0-3.5-2.6-4.9-5.7-4.9c-3.4,0-5.8,1.8-5.8,4.7h3.3c0.1-1.5,1-2,2.5-2c1.4,0,2.3,0.5,2.3,2.3v0.5c-7.1-0.3-8.7,1.7-8.7,4.4
	c0,2.5,2.2,3.9,4.4,3.9c1.9,0,3.4-0.7,4.6-2h0.1l1.7,1.8h2.9L124.1,15.6C124.1,15.6,124.1,15.6,124.1,15.6z M119.2,13.4
	c0,1.1-1,2.5-3.3,2.5c-1,0-1.9-0.5-1.9-1.6s0.6-2.2,5.2-2L119.2,13.4L119.2,13.4z M136,5l-5.2,12.7v2.8l-2.8,2.5h-4.3v-2.8h3.9v-2.6
	L122.5,5h3.5l3.2,9.2h0.1l3.2-9.2C132.5,5,136,5,136,5z M80.8,9.4v8.7h-3.4V9.9c0-1.4-0.7-2.4-2.2-2.4c-2.1,0-3.1,1.7-3.1,3.8v6.8
	h-3.4V5h3.3v2.3H72c0.9-1.8,2.4-2.6,4.2-2.6C79.6,4.7,80.8,6.7,80.8,9.4z M67.4,11.1c-0.2-3.8-2.5-6.5-6.4-6.5
	c-4.1,0-6.4,2.9-6.4,6.9c0,4,2.3,6.9,6.6,6.9c3.1,0,5.4-1.5,6.1-4.7H64c-0.4,1.3-1.4,2-2.8,2c-1.9,0-3-1.1-3.2-3.3h7.9
	C65.9,12.5,67.4,11.1,67.4,11.1z M58,10.2c0.4-1.9,1.5-2.9,2.9-2.9c1.5,0,2.7,0.9,3,2.9H58z M85.8,5h4.1v2.8h-4.1v7.5h4.1v2.8h-5.1
	L82.4,16V1.1h3.4L85.8,5C85.8,5,85.8,5,85.8,5z"/>
</svg>
