<?xml version="1.0" encoding="utf-8"?>
<!-- Generator: Adobe Illustrator 27.8.0, SVG Export Plug-In . SVG Version: 6.00 Build 0)  -->
<svg version="1.1" id="Layer_1" xmlns="http://www.w3.org/2000/svg" xmlns:xlink="http://www.w3.org/1999/xlink" x="0px" y="0px"
	 viewBox="0 0 43.2 43.2" style="enable-background:new 0 0 43.2 43.2;" xml:space="preserve">
<style type="text/css">
	.st0{fill:#231F20;}
</style>
<g>
	<path class="st0" d="M21.6,5.1c-9.1,0-16.5,7.4-16.5,16.5s7.4,16.5,16.5,16.5s16.5-7.4,16.5-16.5C38.1,12.5,30.7,5.1,21.6,5.1z
		 M31.5,21.9c-0.4,1.7-2.1,3.2-3.9,2.9C26,24.6,24.4,24,23,23.3c0,0.2,0,0.4,0,0.5c0,0.7,0,1.4,0,2.1c0,1.2,0,2.7-0.4,3.9
		c0.6-0.1,1.1-0.3,1.7-0.4c2.4-0.6,6-1,6.2-4.1c0,0.5,0,1.3,0,1.9c-0.2,3.2-3.7,3.6-6.2,4.2c-2,0.5-4,1-6,1.5c0-0.3,0-0.6,0-0.9
		c0-0.5-0.1-1.1,0-1.1c1.7-0.5,3.7-1.2,4.3-3.1c0.1-0.5,0.3-1,0.3-1.5c0-0.3,0.1-0.7,0.1-1c0-0.7-0.1-1.3-0.1-2
		c-0.4-0.2-0.8-0.4-1.3-0.7c0,0,0,0,0,0c-0.4-0.2-0.9-0.5-1.4-0.8c0,0.4,0,0.8-0.1,1.1c-0.1,1-0.2,2.2-0.6,3.2c-0.7,1.7-2.1,3.3-4,3
		c-2-0.3-3.4-1.7-3.8-3.6c-0.2-0.8-0.2-1.5-0.2-2.3c0-0.6-0.1-1.4,0.1-2c0.4-1.7,2.1-3.2,3.9-2.9c1.6,0.2,3.2,0.8,4.6,1.5
		c0-0.2,0-0.4,0-0.6c0-0.7,0-1.4,0-2.1c0-1.2,0-2.7,0.4-3.9c-0.6,0.1-1.1,0.3-1.7,0.4c-2.4,0.6-5.8,0.9-6.1,4c0,0.1,0,0.2,0,0.3
		c0-0.9-0.2-1.9,0.1-2.7c0.4-1.2,1.3-2.1,2.5-2.5c0.9-0.3,1.8-0.5,2.6-0.7c2.3-0.6,4.7-1.2,7-1.8c0,0.3,0,0.6,0,0.8
		c0,0.5,0.1,1.1,0,1.1c-1.7,0.5-3.7,1.2-4.3,3.1c-0.1,0.5-0.3,1-0.3,1.5c0,0.3-0.1,0.7-0.1,1c0,0.6,0.1,1.3,0.1,1.9
		c0.4,0.2,0.8,0.4,1.3,0.7c0,0,0,0,0,0c0.4,0.2,0.9,0.5,1.4,0.8c0-0.4,0-0.8,0.1-1.1c0.1-1,0.2-2.2,0.6-3.2c0.7-1.7,2.1-3.3,4-3
		c2,0.3,3.4,1.7,3.8,3.6c0.2,0.8,0.2,1.5,0.2,2.3C31.6,20.5,31.7,21.3,31.5,21.9z"/>
	<path class="st0" d="M29.9,17c-1.3-1-3.4-1.5-4.7-0.2c-1.4,1.3-1.8,2.9-2.1,4.7c2.8,1.4,6.7,2.7,8.2-0.8c0.1-0.2,0.2-0.4,0.2-0.6
		c0-0.3-0.1-0.6-0.2-0.9C31,18.3,30.6,17.5,29.9,17z"/>
	<path class="st0" d="M11.9,22.5c-0.1,0.2-0.2,0.4-0.2,0.6c0.1,0.3,0.1,0.6,0.2,0.9c0.3,0.8,0.7,1.6,1.4,2.1c1.3,1,3.4,1.5,4.7,0.3
		c1.4-1.3,1.8-2.9,2.1-4.7C17.2,20.4,13.3,19.1,11.9,22.5z"/>
</g>
</svg>
