<svg xmlns="http://www.w3.org/2000/svg" id="Layer_1" data-name="Layer 1" viewBox="0 0 207.62 74.85"><defs><style>.cls-1{fill:#fff;}</style></defs><title>ilo-logo</title><path class="cls-1" d="M104.19,22.76V9.22h2.32V22.76Z" transform="translate(-0.32 -0.66)"/><path class="cls-1" d="M114.85,22.76V17.09c0-1.53-.61-2.3-1.84-2.3s-2,.75-2,2.26v5.71h-2.26V12.87H111v.93a3.25,3.25,0,0,1,2.61-1.16,3.43,3.43,0,0,1,2.53,1,4.18,4.18,0,0,1,1,3.08v6.07Z" transform="translate(-0.32 -0.66)"/><path class="cls-1" d="M122,23c-1.53,0-2.3-.84-2.3-2.53V14.85h-1.47v-2h1.47v-3L122,8.79v4.08h2.29v2H122V20c0,.63.28.95.83.95a3.21,3.21,0,0,0,1.55-.44l-.27,2A4.52,4.52,0,0,1,122,23Z" transform="translate(-0.32 -0.66)"/><path class="cls-1" d="M129.81,23a4.24,4.24,0,0,1-3.34-1.38,5.51,5.51,0,0,1-1.23-3.8A5.48,5.48,0,0,1,126.48,14a4.67,4.67,0,0,1,6.43-.21,4.61,4.61,0,0,1,1.21,3.46,11.56,11.56,0,0,1-.07,1.4h-6.56a2.44,2.44,0,0,0,.72,1.68,2.23,2.23,0,0,0,1.6.64,2.47,2.47,0,0,0,2.09-1l1.43,1.47A4.33,4.33,0,0,1,129.81,23Zm-2.3-6.19h4.37a2.33,2.33,0,0,0-.66-1.61,2,2,0,0,0-1.41-.56,2.37,2.37,0,0,0-1.6.54A2.22,2.22,0,0,0,127.51,16.8Z" transform="translate(-0.32 -0.66)"/><path class="cls-1" d="M135.68,22.76V12.87H138v1a2.08,2.08,0,0,1,2-1.26,2.76,2.76,0,0,1,1.84.68l-.33,2.07a2.81,2.81,0,0,0-1.68-.52,1.8,1.8,0,0,0-1.32.54,2.52,2.52,0,0,0-.54,1.82v5.53Z" transform="translate(-0.32 -0.66)"/><path class="cls-1" d="M149.05,22.76V17.09c0-1.53-.61-2.3-1.83-2.3s-2,.75-2,2.26v5.71h-2.26V12.87h2.26v.93a3.25,3.25,0,0,1,2.61-1.16,3.41,3.41,0,0,1,2.53,1,4.18,4.18,0,0,1,1,3.08v6.07Z" transform="translate(-0.32 -0.66)"/><path class="cls-1" d="M159,22.76V22a3.47,3.47,0,0,1-2.63,1,3.76,3.76,0,0,1-2.58-.86,3,3,0,0,1-1-2.43,2.81,2.81,0,0,1,1.14-2.43,4.43,4.43,0,0,1,2.73-.84A4.71,4.71,0,0,1,159,17v-.53a1.74,1.74,0,0,0-.47-1.37,2.16,2.16,0,0,0-1.46-.43,5,5,0,0,0-2.94.93l-.7-1.83a6.7,6.7,0,0,1,3.87-1.09,6.09,6.09,0,0,1,1.36.13,4.1,4.1,0,0,1,1.22.49,2.42,2.42,0,0,1,1,1.16,5,5,0,0,1,.35,2v6.37ZM156.78,21a2.94,2.94,0,0,0,2.2-.95V18.77a4.5,4.5,0,0,0-2-.4,2.86,2.86,0,0,0-1.47.33,1.09,1.09,0,0,0-.56,1,1.12,1.12,0,0,0,.46.95A2.23,2.23,0,0,0,156.78,21Z" transform="translate(-0.32 -0.66)"/><path class="cls-1" d="M166.05,23c-1.53,0-2.3-.84-2.3-2.53V14.85h-1.47v-2h1.47v-3L166,8.79v4.08h2.28v2H166V20c0,.63.27.95.83.95a3.24,3.24,0,0,0,1.55-.44l-.28,2A4.46,4.46,0,0,1,166.05,23Z" transform="translate(-0.32 -0.66)"/><path class="cls-1" d="M171.85,11.12a1.27,1.27,0,0,1-.95.4,1.29,1.29,0,0,1-1-.4,1.31,1.31,0,0,1-.4-.95,1.29,1.29,0,0,1,.4-.95,1.32,1.32,0,0,1,1-.39,1.3,1.3,0,0,1,.95.39,1.31,1.31,0,0,1,.38.95A1.33,1.33,0,0,1,171.85,11.12Zm-2.09,11.64V12.87H172v9.89Z" transform="translate(-0.32 -0.66)"/><path class="cls-1" d="M178.18,23a4.22,4.22,0,0,1-3.31-1.37,5.53,5.53,0,0,1-1.22-3.79,5.54,5.54,0,0,1,1.22-3.8,4.65,4.65,0,0,1,6.63,0,5.5,5.5,0,0,1,1.23,3.8,5.53,5.53,0,0,1-1.22,3.79A4.26,4.26,0,0,1,178.18,23Zm0-2.16a2,2,0,0,0,1.67-.8,3.51,3.51,0,0,0,.61-2.2,3.62,3.62,0,0,0-.61-2.23,2.1,2.1,0,0,0-3.32,0,3.63,3.63,0,0,0-.61,2.22,3.56,3.56,0,0,0,.6,2.19A2,2,0,0,0,178.18,20.83Z" transform="translate(-0.32 -0.66)"/><path class="cls-1" d="M190.49,22.76V17.09c0-1.53-.62-2.3-1.84-2.3s-2,.75-2,2.26v5.71h-2.27V12.87h2.27v.93a3.22,3.22,0,0,1,2.61-1.16,3.41,3.41,0,0,1,2.52,1,4.18,4.18,0,0,1,1,3.08v6.07Z" transform="translate(-0.32 -0.66)"/><path class="cls-1" d="M200.42,22.76V22a3.5,3.5,0,0,1-2.63,1,3.8,3.8,0,0,1-2.59-.86,3,3,0,0,1-1-2.43,2.8,2.8,0,0,1,1.13-2.43,4.46,4.46,0,0,1,2.74-.84,4.71,4.71,0,0,1,2.34.53v-.53a1.74,1.74,0,0,0-.48-1.37,2.14,2.14,0,0,0-1.46-.43,5,5,0,0,0-2.94.93l-.69-1.83a6.69,6.69,0,0,1,3.86-1.09,6.25,6.25,0,0,1,1.37.13,4.21,4.21,0,0,1,1.22.49,2.4,2.4,0,0,1,1,1.16,4.79,4.79,0,0,1,.35,2v6.37ZM198.21,21a3,3,0,0,0,2.21-.95V18.77a4.58,4.58,0,0,0-2-.4,2.91,2.91,0,0,0-1.47.33,1.09,1.09,0,0,0-.56,1,1.13,1.13,0,0,0,.47.95A2.19,2.19,0,0,0,198.21,21Z" transform="translate(-0.32 -0.66)"/><path class="cls-1" d="M204.67,22.76V9.86l2.26-1.07v14Z" transform="translate(-0.32 -0.66)"/><path class="cls-1" d="M104.09,42.11V28.56h2.32V39.88H113v2.23Z" transform="translate(-0.32 -0.66)"/><path class="cls-1" d="M120.16,42.11v-.8a3.46,3.46,0,0,1-2.63,1,3.81,3.81,0,0,1-2.58-.86,3,3,0,0,1-1-2.43,2.86,2.86,0,0,1,1.13-2.44,4.54,4.54,0,0,1,2.74-.83,4.71,4.71,0,0,1,2.34.52v-.52a1.77,1.77,0,0,0-.47-1.37,2.12,2.12,0,0,0-1.46-.43,5,5,0,0,0-2.94.93l-.7-1.84a7.54,7.54,0,0,1,5.23-1,4.14,4.14,0,0,1,1.22.5,2.37,2.37,0,0,1,1,1.16,4.93,4.93,0,0,1,.35,2v6.37ZM118,40.35a2.94,2.94,0,0,0,2.2-1V38.12a4.53,4.53,0,0,0-2-.41,2.86,2.86,0,0,0-1.47.33,1.08,1.08,0,0,0-.56,1,1.12,1.12,0,0,0,.46,1A2.23,2.23,0,0,0,118,40.35Z" transform="translate(-0.32 -0.66)"/><path class="cls-1" d="M128.82,42.34a2.65,2.65,0,0,1-2.19-1v.76h-2.26V29.16l2.26-1V33a2.79,2.79,0,0,1,2.23-1,3.65,3.65,0,0,1,3,1.39A5.84,5.84,0,0,1,133,37.15,5.89,5.89,0,0,1,131.85,41,3.67,3.67,0,0,1,128.82,42.34Zm-.27-2.17a1.83,1.83,0,0,0,1.59-.8,3.86,3.86,0,0,0,.55-2.22,3.74,3.74,0,0,0-.56-2.24,1.82,1.82,0,0,0-1.58-.77,2.15,2.15,0,0,0-1.92,1v4.12A2.11,2.11,0,0,0,128.55,40.17Z" transform="translate(-0.32 -0.66)"/><path class="cls-1" d="M138.68,42.34a4.17,4.17,0,0,1-3.3-1.38,5.45,5.45,0,0,1-1.22-3.79,5.51,5.51,0,0,1,1.22-3.8,4.17,4.17,0,0,1,3.3-1.38A4.21,4.21,0,0,1,142,33.37a5.51,5.51,0,0,1,1.23,3.8A5.5,5.5,0,0,1,142,41,4.21,4.21,0,0,1,138.68,42.34Zm0-2.17a2,2,0,0,0,1.68-.79,3.6,3.6,0,0,0,.61-2.21,3.66,3.66,0,0,0-.61-2.22,2,2,0,0,0-1.68-.81A1.94,1.94,0,0,0,137,35a3.6,3.6,0,0,0-.62,2.21,3.55,3.55,0,0,0,.61,2.2A2,2,0,0,0,138.68,40.17Z" transform="translate(-0.32 -0.66)"/><path class="cls-1" d="M150.88,42.11v-1a3.1,3.1,0,0,1-2.59,1.18,3.46,3.46,0,0,1-2.54-1,4.17,4.17,0,0,1-1-3.08V32.22H147v5.65c0,1.53.62,2.3,1.86,2.3s2-.75,2-2.26V32.22h2.26v9.89Z" transform="translate(-0.32 -0.66)"/><path class="cls-1" d="M155.25,42.11V32.22h2.26v1a2.08,2.08,0,0,1,2-1.26,2.71,2.71,0,0,1,1.84.68l-.33,2.07a2.82,2.82,0,0,0-1.68-.53,1.8,1.8,0,0,0-1.32.54,2.54,2.54,0,0,0-.54,1.82v5.54Z" transform="translate(-0.32 -0.66)"/><path class="cls-1" d="M109.54,61.68a6.21,6.21,0,0,1-2.28-.4,4.84,4.84,0,0,1-1.69-1.09,6.12,6.12,0,0,1-1.12-1.6,7.3,7.3,0,0,1-.65-1.89,10.83,10.83,0,0,1,0-4,7.3,7.3,0,0,1,.65-1.89,6.24,6.24,0,0,1,1.12-1.59,4.86,4.86,0,0,1,1.69-1.1,6.21,6.21,0,0,1,2.28-.4,5.91,5.91,0,0,1,2.76.61,4.71,4.71,0,0,1,1.86,1.64,8.21,8.21,0,0,1,1,2.24,10,10,0,0,1,0,5,8.15,8.15,0,0,1-1,2.23,4.82,4.82,0,0,1-1.86,1.65A6,6,0,0,1,109.54,61.68Zm0-2.22a3.13,3.13,0,0,0,1.65-.44,3.07,3.07,0,0,0,1.11-1.18,6,6,0,0,0,.59-1.52,6.94,6.94,0,0,0,.19-1.64,7.12,7.12,0,0,0-.19-1.69,5.85,5.85,0,0,0-.59-1.52,2.94,2.94,0,0,0-1.1-1.14,3.09,3.09,0,0,0-1.66-.43,2.89,2.89,0,0,0-2.07.79,4.22,4.22,0,0,0-1.15,1.81,7.37,7.37,0,0,0-.32,2.18,7.15,7.15,0,0,0,.2,1.68,5.65,5.65,0,0,0,.59,1.53,2.94,2.94,0,0,0,1.1,1.14A3.08,3.08,0,0,0,109.54,59.46Z" transform="translate(-0.32 -0.66)"/><path class="cls-1" d="M117.43,61.45V51.57h2.26v1a2.08,2.08,0,0,1,2-1.26,2.76,2.76,0,0,1,1.84.68l-.33,2.07a2.81,2.81,0,0,0-1.68-.52,1.8,1.8,0,0,0-1.32.54,2.52,2.52,0,0,0-.54,1.82v5.53Z" transform="translate(-0.32 -0.66)"/><path class="cls-1" d="M128.06,65.32l-1.2-1.82a6.49,6.49,0,0,0,2.82-.63,1.65,1.65,0,0,0,.78-1.51v-.57a2.86,2.86,0,0,1-2.24.89,3.65,3.65,0,0,1-3-1.34,5.79,5.79,0,0,1-1.13-3.84,5.76,5.76,0,0,1,1.13-3.78,3.65,3.65,0,0,1,3-1.39,3,3,0,0,1,2.22.84v-.6h2.27v8.9A5.07,5.07,0,0,1,131.67,64,5.47,5.47,0,0,1,128.06,65.32Zm.54-5.8a2.07,2.07,0,0,0,1.86-1v-4.1a2.14,2.14,0,0,0-1.86-1,1.91,1.91,0,0,0-1.63.78,4.59,4.59,0,0,0,0,4.45A1.89,1.89,0,0,0,128.6,59.52Z" transform="translate(-0.32 -0.66)"/><path class="cls-1" d="M140.47,61.45v-.79a3.49,3.49,0,0,1-2.63,1,3.76,3.76,0,0,1-2.58-.86,3,3,0,0,1-1-2.42A2.84,2.84,0,0,1,135.39,56a4.48,4.48,0,0,1,2.74-.83,4.71,4.71,0,0,1,2.34.52v-.52a1.8,1.8,0,0,0-.47-1.38,2.17,2.17,0,0,0-1.46-.42,5,5,0,0,0-2.94.93l-.7-1.84a7.36,7.36,0,0,1,5.23-1,4.1,4.1,0,0,1,1.22.49,2.46,2.46,0,0,1,1,1.16,5,5,0,0,1,.35,2v6.36Zm-2.2-1.76a2.92,2.92,0,0,0,2.2-.95V57.47a4.53,4.53,0,0,0-2-.41,2.86,2.86,0,0,0-1.47.33,1.07,1.07,0,0,0-.56,1,1.1,1.1,0,0,0,.46.94A2.16,2.16,0,0,0,138.27,59.69Z" transform="translate(-0.32 -0.66)"/><path class="cls-1" d="M150.79,61.45V55.78c0-1.53-.61-2.3-1.84-2.3s-2,.76-2,2.27v5.7h-2.26V51.57h2.26v.93a3.22,3.22,0,0,1,2.61-1.17,3.47,3.47,0,0,1,2.53,1,4.2,4.2,0,0,1,1,3.08v6.07Z" transform="translate(-0.32 -0.66)"/><path class="cls-1" d="M157.15,49.82a1.28,1.28,0,0,1-1,.39,1.35,1.35,0,0,1-1.35-1.35,1.25,1.25,0,0,1,.4-1,1.3,1.3,0,0,1,.95-.39,1.33,1.33,0,0,1,1.34,1.34A1.34,1.34,0,0,1,157.15,49.82Zm-2.09,11.63V51.57h2.27v9.88Z" transform="translate(-0.32 -0.66)"/><path class="cls-1" d="M158.79,61.45V59.63L164,53.58h-4.79v-2h7.6v1.74l-5.17,6.13h5.15v2Z" transform="translate(-0.32 -0.66)"/><path class="cls-1" d="M174.18,61.45v-.79a3.5,3.5,0,0,1-2.63,1,3.76,3.76,0,0,1-2.58-.86,3,3,0,0,1-1-2.42A2.84,2.84,0,0,1,169.1,56a4.48,4.48,0,0,1,2.74-.83,4.71,4.71,0,0,1,2.34.52v-.52a1.8,1.8,0,0,0-.47-1.38,2.17,2.17,0,0,0-1.46-.42,5,5,0,0,0-2.95.93l-.69-1.84a7.36,7.36,0,0,1,5.23-1,4.21,4.21,0,0,1,1.22.49,2.46,2.46,0,0,1,1,1.16,5,5,0,0,1,.35,2v6.36ZM172,59.69a2.92,2.92,0,0,0,2.21-.95V57.47a4.56,4.56,0,0,0-2-.41,2.86,2.86,0,0,0-1.47.33,1.07,1.07,0,0,0-.56,1,1.1,1.1,0,0,0,.46.94A2.13,2.13,0,0,0,172,59.69Z" transform="translate(-0.32 -0.66)"/><path class="cls-1" d="M181.25,61.68c-1.53,0-2.3-.84-2.3-2.53V53.54h-1.47v-2H179v-3l2.26-1.09v4.09h2.29v2h-2.29v5.17c0,.63.28.94.83.94a3.1,3.1,0,0,0,1.55-.44l-.27,2A4.4,4.4,0,0,1,181.25,61.68Z" transform="translate(-0.32 -0.66)"/><path class="cls-1" d="M187,49.82a1.26,1.26,0,0,1-.94.39,1.35,1.35,0,0,1-1.36-1.35,1.25,1.25,0,0,1,.4-1,1.3,1.3,0,0,1,1-.39,1.26,1.26,0,0,1,.94.39,1.28,1.28,0,0,1,.39,1A1.34,1.34,0,0,1,187,49.82ZM185,61.45V51.57h2.27v9.88Z" transform="translate(-0.32 -0.66)"/><path class="cls-1" d="M193.38,61.68a4.17,4.17,0,0,1-3.31-1.37,5.47,5.47,0,0,1-1.22-3.79,5.51,5.51,0,0,1,1.22-3.8,4.64,4.64,0,0,1,6.62,0,5.51,5.51,0,0,1,1.23,3.8,5.47,5.47,0,0,1-1.22,3.79A4.19,4.19,0,0,1,193.38,61.68Zm0-2.16a2,2,0,0,0,1.67-.8,3.49,3.49,0,0,0,.61-2.2,3.64,3.64,0,0,0-.61-2.23,2.1,2.1,0,0,0-3.32,0,3.63,3.63,0,0,0-.62,2.22,3.55,3.55,0,0,0,.61,2.2A2,2,0,0,0,193.38,59.52Z" transform="translate(-0.32 -0.66)"/><path class="cls-1" d="M205.68,61.45V55.78c0-1.53-.61-2.3-1.83-2.3s-2,.76-2,2.27v5.7h-2.26V51.57h2.26v.93a3.22,3.22,0,0,1,2.61-1.17,3.45,3.45,0,0,1,2.53,1,4.2,4.2,0,0,1,1,3.08v6.07Z" transform="translate(-0.32 -0.66)"/><path class="cls-1" d="M21.12,20.46c-.37.64-.51.92-.51.92A1.3,1.3,0,0,1,19,22L18,21.59a1.14,1.14,0,0,0-1.47.66l-.81,2.13a1.14,1.14,0,0,0,.66,1.47l1.07.41a1.34,1.34,0,0,1,.79,1.52l-.47,2.32a1.31,1.31,0,0,1-1.31,1.09l-1.15,0a1.15,1.15,0,0,0-1.18,1.1L14,34.54a1.14,1.14,0,0,0,1.1,1.17l1.15,0a1.34,1.34,0,0,1,1.25,1.18l.31,2.35a1.32,1.32,0,0,1-.89,1.45l-1.11.34a1.14,1.14,0,0,0-.75,1.43l1,3.27,6.16-1.9A24.89,24.89,0,0,1,41.94,9.74L40.51,3.45l-3.33.78a1.13,1.13,0,0,0-.86,1.36l.26,1.14a1.33,1.33,0,0,1-.82,1.5l-2.19.9a1.34,1.34,0,0,1-1.64-.49l-.61-1a1.14,1.14,0,0,0-1.57-.37L27.82,8.5a1.14,1.14,0,0,0-.37,1.57l.6,1a1.32,1.32,0,0,1-.28,1.69L26,14.3a1.33,1.33,0,0,1-1.71.06l-.89-.72a1.13,1.13,0,0,0-1.6.17l-1.44,1.76a1.14,1.14,0,0,0,.16,1.61l.89.72a1.29,1.29,0,0,1,.25,1.67S21.49,19.82,21.12,20.46Z" transform="translate(-0.32 -0.66)"/><path class="cls-1" d="M44.87,61.64c.74,0,1.05,0,1.05,0a1.3,1.3,0,0,1,1.33,1.06l.18,1.13a1.14,1.14,0,0,0,1.31.94L51,64.39a1.14,1.14,0,0,0,.94-1.31L51.75,62a1.32,1.32,0,0,1,.91-1.44l2.25-.76a1.33,1.33,0,0,1,1.61.59l.53,1a1.14,1.14,0,0,0,1.55.47l2-1.07a1.14,1.14,0,0,0,.47-1.54l-.54-1a1.34,1.34,0,0,1,.39-1.67l1.88-1.44a1.32,1.32,0,0,1,1.71,0l.85.79A1.14,1.14,0,0,0,67,55.85l2.34-2.5L64.59,49a24.91,24.91,0,0,1-39.42,0l-4.72,4.38,2.33,2.5a1.16,1.16,0,0,0,1.62.06l.84-.79a1.33,1.33,0,0,1,1.71,0l1.88,1.45a1.33,1.33,0,0,1,.39,1.67l-.54,1a1.16,1.16,0,0,0,.47,1.55l2,1.07a1.13,1.13,0,0,0,1.54-.47l.54-1a1.33,1.33,0,0,1,1.61-.59l2.25.76A1.32,1.32,0,0,1,38,62l-.18,1.13a1.14,1.14,0,0,0,.94,1.31l2.25.36a1.14,1.14,0,0,0,1.31-.94l.18-1.13a1.3,1.3,0,0,1,1.33-1.06S44.13,61.64,44.87,61.64Z" transform="translate(-0.32 -0.66)"/><path class="cls-1" d="M68.65,20.48c-.36-.64-.54-.9-.54-.9a1.3,1.3,0,0,1,.26-1.68l.89-.72a1.14,1.14,0,0,0,.16-1.6L68,13.81a1.15,1.15,0,0,0-1.61-.17l-.88.73a1.34,1.34,0,0,1-1.71-.07L62,12.73A1.33,1.33,0,0,1,61.71,11l.61-1A1.15,1.15,0,0,0,62,8.5L60,7.29a1.16,1.16,0,0,0-1.58.37l-.6,1a1.34,1.34,0,0,1-1.64.49L54,8.23a1.33,1.33,0,0,1-.81-1.5l.26-1.13a1.15,1.15,0,0,0-.86-1.37l-3.33-.77L47.83,9.74a24.9,24.9,0,0,1,19.7,34.13l6.16,1.91,1-3.28a1.14,1.14,0,0,0-.76-1.42l-1.11-.34a1.33,1.33,0,0,1-.89-1.46l.31-2.35a1.34,1.34,0,0,1,1.25-1.17l1.15,0a1.13,1.13,0,0,0,1.1-1.18l-.07-2.28a1.14,1.14,0,0,0-1.18-1.1l-1.14,0A1.33,1.33,0,0,1,72,30.11l-.47-2.33a1.34,1.34,0,0,1,.8-1.52l1.07-.4a1.15,1.15,0,0,0,.66-1.47l-.81-2.13a1.16,1.16,0,0,0-1.48-.67L70.73,22a1.29,1.29,0,0,1-1.57-.61S69,21.12,68.65,20.48Z" transform="translate(-0.32 -0.66)"/><path class="cls-1" d="M9.22,19.94l0,0Z" transform="translate(-0.32 -0.66)"/><path class="cls-1" d="M19,7l.09.1A7.94,7.94,0,0,1,21.44,6C27.64,4.21,27.33,2.07,30,.79L29.88.66a4.17,4.17,0,0,1-2.19.65C20.41,1.4,21,5.65,19,7Z" transform="translate(-0.32 -0.66)"/><path class="cls-1" d="M11.8,15.1l.13.09a6.28,6.28,0,0,1,3.14-2c5.78-1.71,7.79-5.53,9.35-6.62l-.05-.09c-2.14,1.52-4.68,0-9,4.6,0,0-.15-.13-.15-.13,3.51-4.24,3.6-7.12,5.22-8.69l-.08-.08C10.12,8.26,14.61,11.6,11.8,15.1Z" transform="translate(-0.32 -0.66)"/><path class="cls-1" d="M12.22,8C2.58,17.58,8.58,20,7.07,24.78l.1,0a6.21,6.21,0,0,1,3.16-2.93c4.08-1.88,5.37-6.64,7-8.09l-.08-.07c-2,2.16-5.29.95-8,6.31,0,0-.18-.09-.18-.09,2.16-4.67,1.15-8.9,3.21-11.81A.63.63,0,0,0,12.22,8Z" transform="translate(-0.32 -0.66)"/><path class="cls-1" d="M5.22,37.46h.14a6,6,0,0,1,2.09-4.93c4.58-4.24,3.8-8,5.68-10.92L13,21.54c-1.46,2.49-6.79,5.21-7,9a1.38,1.38,0,0,1-.2,0c.78-5.48-2.11-9.13-.54-12.6l-.14-.08C-1,30.44,4.06,30.27,5.22,37.46Z" transform="translate(-0.32 -0.66)"/><path class="cls-1" d="M7.57,49.42l.15-.05c-1.26-2.84.85-6.73,1-6.91,2.78-5.4,1.85-10.28,2.49-12l-.13,0c-1.49,3.7-5.61,5.71-5,11.94h-.2C5.21,38.52.83,34.81,1,30.6H.9C-1.83,45.56,5.94,45.46,7.57,49.42Z" transform="translate(-0.32 -0.66)"/><path class="cls-1" d="M13.8,60.51l.11-.09a8.31,8.31,0,0,1-1.77-6.84C13.44,46.12,11,44.77,11,41.39h-.12c-.11,3.78-4,8-.47,13.32l-.17.11c-3.87-5.65-6.94-4.27-8.75-9.89h0a.42.42,0,0,0-.17,0C4,61.44,11.33,56.46,13.8,60.51Z" transform="translate(-0.32 -0.66)"/><path class="cls-1" d="M28.91,67.69l0-.16c-5.1,1-7.7,0-8.63-4.64C19,56.3,14.47,53.76,14,51.13h0a.27.27,0,0,0-.13,0h0c1,4.65-1.3,7.42,4.31,13l-.15.13c-5.4-4.27-9.11-2.7-11.25-5.67a.37.37,0,0,0-.09.09C13.32,69.79,20.49,70.39,28.91,67.69Z" transform="translate(-0.32 -0.66)"/><path class="cls-1" d="M16.31,69.6l0-.06c6.86,4,14-1.58,22.72-1.78,2.18-.05,8.7.35,14.68,7.3l-1.59.45c-2-3.43-5-5.91-7.79-6.6-7.9-2-8,5.39-16.83,5.5C21,74.5,16.57,69.86,16.31,69.6Z" transform="translate(-0.32 -0.66)"/><path class="cls-1" d="M80.45,19.94l0,0Z" transform="translate(-0.32 -0.66)"/><path class="cls-1" d="M80.45,19.94l0,0Z" transform="translate(-0.32 -0.66)"/><path class="cls-1" d="M9.22,19.94l0,0Z" transform="translate(-0.32 -0.66)"/><path class="cls-1" d="M80.45,19.94l0,0Z" transform="translate(-0.32 -0.66)"/><path class="cls-1" d="M70.64,7l-.09.1A7.94,7.94,0,0,0,68.23,6C62,4.21,62.34,2.07,59.71.79l.08-.13A4.17,4.17,0,0,0,62,1.31C69.26,1.4,68.71,5.65,70.64,7Z" transform="translate(-0.32 -0.66)"/><path class="cls-1" d="M77.87,15.1l-.13.09a6.28,6.28,0,0,0-3.14-2c-5.78-1.71-7.79-5.53-9.35-6.62l0-.09c2.14,1.52,4.68,0,9,4.6,0,0,.15-.13.15-.13-3.51-4.24-3.6-7.12-5.22-8.69l.08-.08C79.55,8.26,75.06,11.6,77.87,15.1Z" transform="translate(-0.32 -0.66)"/><path class="cls-1" d="M77.45,8c9.64,9.56,3.64,12,5.15,16.76l-.1,0a6.21,6.21,0,0,0-3.16-2.93c-4.08-1.88-5.37-6.64-7-8.09l.08-.07c2,2.16,5.29.95,8,6.31,0,0,.18-.09.18-.09-2.16-4.67-1.15-8.9-3.21-11.81A.63.63,0,0,1,77.45,8Z" transform="translate(-0.32 -0.66)"/><path class="cls-1" d="M84.45,37.46h-.14a6,6,0,0,0-2.09-4.93c-4.58-4.24-3.8-8-5.68-10.92l.14-.08c1.46,2.49,6.79,5.21,7,9a1.38,1.38,0,0,0,.2,0c-.78-5.48,2.11-9.13.54-12.6l.14-.08C90.69,30.44,85.61,30.27,84.45,37.46Z" transform="translate(-0.32 -0.66)"/><path class="cls-1" d="M82.1,49.42,82,49.37c1.26-2.84-.85-6.73-1-6.91-2.78-5.4-1.85-10.28-2.49-12l.13,0c1.49,3.7,5.61,5.71,5,11.94h.2c.65-3.86,5-7.57,4.89-11.78h.07C91.5,45.56,83.73,45.46,82.1,49.42Z" transform="translate(-0.32 -0.66)"/><path class="cls-1" d="M75.87,60.51l-.11-.09a8.31,8.31,0,0,0,1.77-6.84c-1.3-7.46,1.12-8.81,1.18-12.19h.12c.11,3.78,4,8,.47,13.32l.17.11c3.87-5.65,6.94-4.27,8.75-9.89h0a.43.43,0,0,1,.16,0C85.66,61.44,78.34,56.46,75.87,60.51Z" transform="translate(-0.32 -0.66)"/><path class="cls-1" d="M60.76,67.69l0-.16c5.1,1,7.7,0,8.63-4.64,1.3-6.59,5.78-9.13,6.3-11.76h0a.27.27,0,0,1,.13,0h0c-1,4.65,1.3,7.42-4.31,13l.15.13C77.1,60,80.81,61.56,83,58.59l.09.09C76.35,69.79,69.19,70.39,60.76,67.69Z" transform="translate(-0.32 -0.66)"/><path class="cls-1" d="M73.36,69.6l0-.06c-6.86,4-14-1.58-22.72-1.78-2.18-.05-8.7.35-14.68,7.3l1.59.45c2-3.43,5-5.91,7.79-6.6,7.9-2,8.05,5.39,16.83,5.5C68.65,74.5,73.1,69.86,73.36,69.6Z" transform="translate(-0.32 -0.66)"/><path class="cls-1" d="M9.22,19.94l0,0Z" transform="translate(-0.32 -0.66)"/><path class="cls-1" d="M9.22,19.94l0,0Z" transform="translate(-0.32 -0.66)"/><path class="cls-1" d="M80.45,19.94l0,0Z" transform="translate(-0.32 -0.66)"/><path class="cls-1" d="M55.51,20.15h-.12a8.77,8.77,0,0,0-7.82,5.51,15.81,15.81,0,0,0-1,6.21,15.81,15.81,0,0,0,1,6.21c1.53,3.44,4.62,5.79,7.82,5.79h.12c3.21,0,6.29-2.35,7.82-5.79a16,16,0,0,0,1-6.21,16,16,0,0,0-1-6.21A8.76,8.76,0,0,0,55.51,20.15ZM60.45,32c0,2.06-.06,3.83-.06,3.83-.13,1.68-.15,3.37-.93,4.52a4.48,4.48,0,0,1-3.72,2l-.06,0H55.5l0,0a4.48,4.48,0,0,1-3.72-2c-.78-1.15-.81-2.84-.94-4.52,0,0,0-1.75,0-3.79V32c0-2.05,0-3.83,0-3.83.13-1.68.16-3.37.94-4.52a4.5,4.5,0,0,1,3.72-2l0,0h.18l.06,0a4.48,4.48,0,0,1,3.71,2c.79,1.15.81,2.84.94,4.52,0,0,0,1.76.06,3.8Z" transform="translate(-0.32 -0.66)"/><path class="cls-1" d="M57.91,44.86a7.41,7.41,0,0,1-1.79,2.63,4.41,4.41,0,0,1-2.35.79l-7.89.39H44.14s-1.33-.08-1.4-1.31V19.72c.07-1.23,1.4-1.31,1.4-1.31h1.74V16.8H35.33v1.61h1.74a1.47,1.47,0,0,1,1.4,1.31V47.36a1.47,1.47,0,0,1-1.4,1.31H35.33v1.61H45.88l11.43,0,1.4-5.1V45Z" transform="translate(-0.32 -0.66)"/><path class="cls-1" d="M33.12,23.19c.06-1,1.17-1.08,1.17-1.08h1.45V20.76h-8.8v1.35h1.45a1.21,1.21,0,0,1,1.16,1.08V40.87A1.21,1.21,0,0,1,28.39,42H26.94V43.3h8.8V42H34.29a1.22,1.22,0,0,1-1.17-1.09Z" transform="translate(-0.32 -0.66)"/><path class="cls-1" d="M104.19,22.76V9.22h2.32V22.76Z" transform="translate(-0.32 -0.66)"/><path class="cls-1" d="M114.85,22.76V17.09c0-1.53-.61-2.3-1.84-2.3s-2,.75-2,2.26v5.71h-2.26V12.87H111v.93a3.25,3.25,0,0,1,2.61-1.16,3.43,3.43,0,0,1,2.53,1,4.18,4.18,0,0,1,1,3.08v6.07Z" transform="translate(-0.32 -0.66)"/><path class="cls-1" d="M122,23c-1.53,0-2.3-.84-2.3-2.53V14.85h-1.47v-2h1.47v-3L122,8.79v4.08h2.29v2H122V20c0,.63.28.95.83.95a3.21,3.21,0,0,0,1.55-.44l-.27,2A4.52,4.52,0,0,1,122,23Z" transform="translate(-0.32 -0.66)"/><path class="cls-1" d="M129.81,23a4.24,4.24,0,0,1-3.34-1.38,5.51,5.51,0,0,1-1.23-3.8A5.48,5.48,0,0,1,126.48,14a4.67,4.67,0,0,1,6.43-.21,4.61,4.61,0,0,1,1.21,3.46,11.56,11.56,0,0,1-.07,1.4h-6.56a2.44,2.44,0,0,0,.72,1.68,2.23,2.23,0,0,0,1.6.64,2.47,2.47,0,0,0,2.09-1l1.43,1.47A4.33,4.33,0,0,1,129.81,23Zm-2.3-6.19h4.37a2.33,2.33,0,0,0-.66-1.61,2,2,0,0,0-1.41-.56,2.37,2.37,0,0,0-1.6.54A2.22,2.22,0,0,0,127.51,16.8Z" transform="translate(-0.32 -0.66)"/><path class="cls-1" d="M135.68,22.76V12.87H138v1a2.08,2.08,0,0,1,2-1.26,2.76,2.76,0,0,1,1.84.68l-.33,2.07a2.81,2.81,0,0,0-1.68-.52,1.8,1.8,0,0,0-1.32.54,2.52,2.52,0,0,0-.54,1.82v5.53Z" transform="translate(-0.32 -0.66)"/><path class="cls-1" d="M149.05,22.76V17.09c0-1.53-.61-2.3-1.83-2.3s-2,.75-2,2.26v5.71h-2.26V12.87h2.26v.93a3.25,3.25,0,0,1,2.61-1.16,3.41,3.41,0,0,1,2.53,1,4.18,4.18,0,0,1,1,3.08v6.07Z" transform="translate(-0.32 -0.66)"/><path class="cls-1" d="M159,22.76V22a3.47,3.47,0,0,1-2.63,1,3.76,3.76,0,0,1-2.58-.86,3,3,0,0,1-1-2.43,2.81,2.81,0,0,1,1.14-2.43,4.43,4.43,0,0,1,2.73-.84A4.71,4.71,0,0,1,159,17v-.53a1.74,1.74,0,0,0-.47-1.37,2.16,2.16,0,0,0-1.46-.43,5,5,0,0,0-2.94.93l-.7-1.83a6.7,6.7,0,0,1,3.87-1.09,6.09,6.09,0,0,1,1.36.13,4.1,4.1,0,0,1,1.22.49,2.42,2.42,0,0,1,1,1.16,5,5,0,0,1,.35,2v6.37ZM156.78,21a2.94,2.94,0,0,0,2.2-.95V18.77a4.5,4.5,0,0,0-2-.4,2.86,2.86,0,0,0-1.47.33,1.09,1.09,0,0,0-.56,1,1.12,1.12,0,0,0,.46.95A2.23,2.23,0,0,0,156.78,21Z" transform="translate(-0.32 -0.66)"/><path class="cls-1" d="M166.05,23c-1.53,0-2.3-.84-2.3-2.53V14.85h-1.47v-2h1.47v-3L166,8.79v4.08h2.28v2H166V20c0,.63.27.95.83.95a3.24,3.24,0,0,0,1.55-.44l-.28,2A4.46,4.46,0,0,1,166.05,23Z" transform="translate(-0.32 -0.66)"/><path class="cls-1" d="M171.85,11.12a1.27,1.27,0,0,1-.95.4,1.29,1.29,0,0,1-1-.4,1.31,1.31,0,0,1-.4-.95,1.29,1.29,0,0,1,.4-.95,1.32,1.32,0,0,1,1-.39,1.3,1.3,0,0,1,.95.39,1.31,1.31,0,0,1,.38.95A1.33,1.33,0,0,1,171.85,11.12Zm-2.09,11.64V12.87H172v9.89Z" transform="translate(-0.32 -0.66)"/><path class="cls-1" d="M178.18,23a4.22,4.22,0,0,1-3.31-1.37,5.53,5.53,0,0,1-1.22-3.79,5.54,5.54,0,0,1,1.22-3.8,4.65,4.65,0,0,1,6.63,0,5.5,5.5,0,0,1,1.23,3.8,5.53,5.53,0,0,1-1.22,3.79A4.26,4.26,0,0,1,178.18,23Zm0-2.16a2,2,0,0,0,1.67-.8,3.51,3.51,0,0,0,.61-2.2,3.62,3.62,0,0,0-.61-2.23,2.1,2.1,0,0,0-3.32,0,3.63,3.63,0,0,0-.61,2.22,3.56,3.56,0,0,0,.6,2.19A2,2,0,0,0,178.18,20.83Z" transform="translate(-0.32 -0.66)"/><path class="cls-1" d="M190.49,22.76V17.09c0-1.53-.62-2.3-1.84-2.3s-2,.75-2,2.26v5.71h-2.27V12.87h2.27v.93a3.22,3.22,0,0,1,2.61-1.16,3.41,3.41,0,0,1,2.52,1,4.18,4.18,0,0,1,1,3.08v6.07Z" transform="translate(-0.32 -0.66)"/><path class="cls-1" d="M200.42,22.76V22a3.5,3.5,0,0,1-2.63,1,3.8,3.8,0,0,1-2.59-.86,3,3,0,0,1-1-2.43,2.8,2.8,0,0,1,1.13-2.43,4.46,4.46,0,0,1,2.74-.84,4.71,4.71,0,0,1,2.34.53v-.53a1.74,1.74,0,0,0-.48-1.37,2.14,2.14,0,0,0-1.46-.43,5,5,0,0,0-2.94.93l-.69-1.83a6.69,6.69,0,0,1,3.86-1.09,6.25,6.25,0,0,1,1.37.13,4.21,4.21,0,0,1,1.22.49,2.4,2.4,0,0,1,1,1.16,4.79,4.79,0,0,1,.35,2v6.37ZM198.21,21a3,3,0,0,0,2.21-.95V18.77a4.58,4.58,0,0,0-2-.4,2.91,2.91,0,0,0-1.47.33,1.09,1.09,0,0,0-.56,1,1.13,1.13,0,0,0,.47.95A2.19,2.19,0,0,0,198.21,21Z" transform="translate(-0.32 -0.66)"/><path class="cls-1" d="M204.67,22.76V9.86l2.26-1.07v14Z" transform="translate(-0.32 -0.66)"/><path class="cls-1" d="M104.09,42.11V28.56h2.32V39.88H113v2.23Z" transform="translate(-0.32 -0.66)"/><path class="cls-1" d="M120.16,42.11v-.8a3.46,3.46,0,0,1-2.63,1,3.81,3.81,0,0,1-2.58-.86,3,3,0,0,1-1-2.43,2.86,2.86,0,0,1,1.13-2.44,4.54,4.54,0,0,1,2.74-.83,4.71,4.71,0,0,1,2.34.52v-.52a1.77,1.77,0,0,0-.47-1.37,2.12,2.12,0,0,0-1.46-.43,5,5,0,0,0-2.94.93l-.7-1.84a7.54,7.54,0,0,1,5.23-1,4.14,4.14,0,0,1,1.22.5,2.37,2.37,0,0,1,1,1.16,4.93,4.93,0,0,1,.35,2v6.37ZM118,40.35a2.94,2.94,0,0,0,2.2-1V38.12a4.53,4.53,0,0,0-2-.41,2.86,2.86,0,0,0-1.47.33,1.08,1.08,0,0,0-.56,1,1.12,1.12,0,0,0,.46,1A2.23,2.23,0,0,0,118,40.35Z" transform="translate(-0.32 -0.66)"/><path class="cls-1" d="M128.82,42.34a2.65,2.65,0,0,1-2.19-1v.76h-2.26V29.16l2.26-1V33a2.79,2.79,0,0,1,2.23-1,3.65,3.65,0,0,1,3,1.39A5.84,5.84,0,0,1,133,37.15,5.89,5.89,0,0,1,131.85,41,3.67,3.67,0,0,1,128.82,42.34Zm-.27-2.17a1.83,1.83,0,0,0,1.59-.8,3.86,3.86,0,0,0,.55-2.22,3.74,3.74,0,0,0-.56-2.24,1.82,1.82,0,0,0-1.58-.77,2.15,2.15,0,0,0-1.92,1v4.12A2.11,2.11,0,0,0,128.55,40.17Z" transform="translate(-0.32 -0.66)"/><path class="cls-1" d="M138.68,42.34a4.17,4.17,0,0,1-3.3-1.38,5.45,5.45,0,0,1-1.22-3.79,5.51,5.51,0,0,1,1.22-3.8,4.17,4.17,0,0,1,3.3-1.38A4.21,4.21,0,0,1,142,33.37a5.51,5.51,0,0,1,1.23,3.8A5.5,5.5,0,0,1,142,41,4.21,4.21,0,0,1,138.68,42.34Zm0-2.17a2,2,0,0,0,1.68-.79,3.6,3.6,0,0,0,.61-2.21,3.66,3.66,0,0,0-.61-2.22,2,2,0,0,0-1.68-.81A1.94,1.94,0,0,0,137,35a3.6,3.6,0,0,0-.62,2.21,3.55,3.55,0,0,0,.61,2.2A2,2,0,0,0,138.68,40.17Z" transform="translate(-0.32 -0.66)"/><path class="cls-1" d="M150.88,42.11v-1a3.1,3.1,0,0,1-2.59,1.18,3.46,3.46,0,0,1-2.54-1,4.17,4.17,0,0,1-1-3.08V32.22H147v5.65c0,1.53.62,2.3,1.86,2.3s2-.75,2-2.26V32.22h2.26v9.89Z" transform="translate(-0.32 -0.66)"/><path class="cls-1" d="M155.25,42.11V32.22h2.26v1a2.08,2.08,0,0,1,2-1.26,2.71,2.71,0,0,1,1.84.68l-.33,2.07a2.82,2.82,0,0,0-1.68-.53,1.8,1.8,0,0,0-1.32.54,2.54,2.54,0,0,0-.54,1.82v5.54Z" transform="translate(-0.32 -0.66)"/><path class="cls-1" d="M109.54,61.68a6.21,6.21,0,0,1-2.28-.4,4.84,4.84,0,0,1-1.69-1.09,6.12,6.12,0,0,1-1.12-1.6,7.3,7.3,0,0,1-.65-1.89,10.83,10.83,0,0,1,0-4,7.3,7.3,0,0,1,.65-1.89,6.24,6.24,0,0,1,1.12-1.59,4.86,4.86,0,0,1,1.69-1.1,6.21,6.21,0,0,1,2.28-.4,5.91,5.91,0,0,1,2.76.61,4.71,4.71,0,0,1,1.86,1.64,8.21,8.21,0,0,1,1,2.24,10,10,0,0,1,0,5,8.15,8.15,0,0,1-1,2.23,4.82,4.82,0,0,1-1.86,1.65A6,6,0,0,1,109.54,61.68Zm0-2.22a3.13,3.13,0,0,0,1.65-.44,3.07,3.07,0,0,0,1.11-1.18,6,6,0,0,0,.59-1.52,6.94,6.94,0,0,0,.19-1.64,7.12,7.12,0,0,0-.19-1.69,5.85,5.85,0,0,0-.59-1.52,2.94,2.94,0,0,0-1.1-1.14,3.09,3.09,0,0,0-1.66-.43,2.89,2.89,0,0,0-2.07.79,4.22,4.22,0,0,0-1.15,1.81,7.37,7.37,0,0,0-.32,2.18,7.15,7.15,0,0,0,.2,1.68,5.65,5.65,0,0,0,.59,1.53,2.94,2.94,0,0,0,1.1,1.14A3.08,3.08,0,0,0,109.54,59.46Z" transform="translate(-0.32 -0.66)"/><path class="cls-1" d="M117.43,61.45V51.57h2.26v1a2.08,2.08,0,0,1,2-1.26,2.76,2.76,0,0,1,1.84.68l-.33,2.07a2.81,2.81,0,0,0-1.68-.52,1.8,1.8,0,0,0-1.32.54,2.52,2.52,0,0,0-.54,1.82v5.53Z" transform="translate(-0.32 -0.66)"/><path class="cls-1" d="M128.06,65.32l-1.2-1.82a6.49,6.49,0,0,0,2.82-.63,1.65,1.65,0,0,0,.78-1.51v-.57a2.86,2.86,0,0,1-2.24.89,3.65,3.65,0,0,1-3-1.34,5.79,5.79,0,0,1-1.13-3.84,5.76,5.76,0,0,1,1.13-3.78,3.65,3.65,0,0,1,3-1.39,3,3,0,0,1,2.22.84v-.6h2.27v8.9A5.07,5.07,0,0,1,131.67,64,5.47,5.47,0,0,1,128.06,65.32Zm.54-5.8a2.07,2.07,0,0,0,1.86-1v-4.1a2.14,2.14,0,0,0-1.86-1,1.91,1.91,0,0,0-1.63.78,4.59,4.59,0,0,0,0,4.45A1.89,1.89,0,0,0,128.6,59.52Z" transform="translate(-0.32 -0.66)"/><path class="cls-1" d="M140.47,61.45v-.79a3.49,3.49,0,0,1-2.63,1,3.76,3.76,0,0,1-2.58-.86,3,3,0,0,1-1-2.42A2.84,2.84,0,0,1,135.39,56a4.48,4.48,0,0,1,2.74-.83,4.71,4.71,0,0,1,2.34.52v-.52a1.8,1.8,0,0,0-.47-1.38,2.17,2.17,0,0,0-1.46-.42,5,5,0,0,0-2.94.93l-.7-1.84a7.36,7.36,0,0,1,5.23-1,4.1,4.1,0,0,1,1.22.49,2.46,2.46,0,0,1,1,1.16,5,5,0,0,1,.35,2v6.36Zm-2.2-1.76a2.92,2.92,0,0,0,2.2-.95V57.47a4.53,4.53,0,0,0-2-.41,2.86,2.86,0,0,0-1.47.33,1.07,1.07,0,0,0-.56,1,1.1,1.1,0,0,0,.46.94A2.16,2.16,0,0,0,138.27,59.69Z" transform="translate(-0.32 -0.66)"/><path class="cls-1" d="M150.79,61.45V55.78c0-1.53-.61-2.3-1.84-2.3s-2,.76-2,2.27v5.7h-2.26V51.57h2.26v.93a3.22,3.22,0,0,1,2.61-1.17,3.47,3.47,0,0,1,2.53,1,4.2,4.2,0,0,1,1,3.08v6.07Z" transform="translate(-0.32 -0.66)"/><path class="cls-1" d="M157.15,49.82a1.28,1.28,0,0,1-1,.39,1.35,1.35,0,0,1-1.35-1.35,1.25,1.25,0,0,1,.4-1,1.3,1.3,0,0,1,.95-.39,1.33,1.33,0,0,1,1.34,1.34A1.34,1.34,0,0,1,157.15,49.82Zm-2.09,11.63V51.57h2.27v9.88Z" transform="translate(-0.32 -0.66)"/><path class="cls-1" d="M158.79,61.45V59.63L164,53.58h-4.79v-2h7.6v1.74l-5.17,6.13h5.15v2Z" transform="translate(-0.32 -0.66)"/><path class="cls-1" d="M174.18,61.45v-.79a3.5,3.5,0,0,1-2.63,1,3.76,3.76,0,0,1-2.58-.86,3,3,0,0,1-1-2.42A2.84,2.84,0,0,1,169.1,56a4.48,4.48,0,0,1,2.74-.83,4.71,4.71,0,0,1,2.34.52v-.52a1.8,1.8,0,0,0-.47-1.38,2.17,2.17,0,0,0-1.46-.42,5,5,0,0,0-2.95.93l-.69-1.84a7.36,7.36,0,0,1,5.23-1,4.21,4.21,0,0,1,1.22.49,2.46,2.46,0,0,1,1,1.16,5,5,0,0,1,.35,2v6.36ZM172,59.69a2.92,2.92,0,0,0,2.21-.95V57.47a4.56,4.56,0,0,0-2-.41,2.86,2.86,0,0,0-1.47.33,1.07,1.07,0,0,0-.56,1,1.1,1.1,0,0,0,.46.94A2.13,2.13,0,0,0,172,59.69Z" transform="translate(-0.32 -0.66)"/><path class="cls-1" d="M181.25,61.68c-1.53,0-2.3-.84-2.3-2.53V53.54h-1.47v-2H179v-3l2.26-1.09v4.09h2.29v2h-2.29v5.17c0,.63.28.94.83.94a3.1,3.1,0,0,0,1.55-.44l-.27,2A4.4,4.4,0,0,1,181.25,61.68Z" transform="translate(-0.32 -0.66)"/><path class="cls-1" d="M187,49.82a1.26,1.26,0,0,1-.94.39,1.35,1.35,0,0,1-1.36-1.35,1.25,1.25,0,0,1,.4-1,1.3,1.3,0,0,1,1-.39,1.26,1.26,0,0,1,.94.39,1.28,1.28,0,0,1,.39,1A1.34,1.34,0,0,1,187,49.82ZM185,61.45V51.57h2.27v9.88Z" transform="translate(-0.32 -0.66)"/><path class="cls-1" d="M193.38,61.68a4.17,4.17,0,0,1-3.31-1.37,5.47,5.47,0,0,1-1.22-3.79,5.51,5.51,0,0,1,1.22-3.8,4.64,4.64,0,0,1,6.62,0,5.51,5.51,0,0,1,1.23,3.8,5.47,5.47,0,0,1-1.22,3.79A4.19,4.19,0,0,1,193.38,61.68Zm0-2.16a2,2,0,0,0,1.67-.8,3.49,3.49,0,0,0,.61-2.2,3.64,3.64,0,0,0-.61-2.23,2.1,2.1,0,0,0-3.32,0,3.63,3.63,0,0,0-.62,2.22,3.55,3.55,0,0,0,.61,2.2A2,2,0,0,0,193.38,59.52Z" transform="translate(-0.32 -0.66)"/><path class="cls-1" d="M205.68,61.45V55.78c0-1.53-.61-2.3-1.83-2.3s-2,.76-2,2.27v5.7h-2.26V51.57h2.26v.93a3.22,3.22,0,0,1,2.61-1.17,3.45,3.45,0,0,1,2.53,1,4.2,4.2,0,0,1,1,3.08v6.07Z" transform="translate(-0.32 -0.66)"/><path class="cls-1" d="M21.12,20.46c-.37.64-.51.92-.51.92A1.3,1.3,0,0,1,19,22L18,21.59a1.14,1.14,0,0,0-1.47.66l-.81,2.13a1.14,1.14,0,0,0,.66,1.47l1.07.41a1.34,1.34,0,0,1,.79,1.52l-.47,2.32a1.31,1.31,0,0,1-1.31,1.09l-1.15,0a1.15,1.15,0,0,0-1.18,1.1L14,34.54a1.14,1.14,0,0,0,1.1,1.17l1.15,0a1.34,1.34,0,0,1,1.25,1.18l.31,2.35a1.32,1.32,0,0,1-.89,1.45l-1.11.34a1.14,1.14,0,0,0-.75,1.43l1,3.27,6.16-1.9A24.89,24.89,0,0,1,41.94,9.74L40.51,3.45l-3.33.78a1.13,1.13,0,0,0-.86,1.36l.26,1.14a1.33,1.33,0,0,1-.82,1.5l-2.19.9a1.34,1.34,0,0,1-1.64-.49l-.61-1a1.14,1.14,0,0,0-1.57-.37L27.82,8.5a1.14,1.14,0,0,0-.37,1.57l.6,1a1.32,1.32,0,0,1-.28,1.69L26,14.3a1.33,1.33,0,0,1-1.71.06l-.89-.72a1.13,1.13,0,0,0-1.6.17l-1.44,1.76a1.14,1.14,0,0,0,.16,1.61l.89.72a1.29,1.29,0,0,1,.25,1.67S21.49,19.82,21.12,20.46Z" transform="translate(-0.32 -0.66)"/><path class="cls-1" d="M44.87,61.64c.74,0,1.05,0,1.05,0a1.3,1.3,0,0,1,1.33,1.06l.18,1.13a1.14,1.14,0,0,0,1.31.94L51,64.39a1.14,1.14,0,0,0,.94-1.31L51.75,62a1.32,1.32,0,0,1,.91-1.44l2.25-.76a1.33,1.33,0,0,1,1.61.59l.53,1a1.14,1.14,0,0,0,1.55.47l2-1.07a1.14,1.14,0,0,0,.47-1.54l-.54-1a1.34,1.34,0,0,1,.39-1.67l1.88-1.44a1.32,1.32,0,0,1,1.71,0l.85.79A1.14,1.14,0,0,0,67,55.85l2.34-2.5L64.59,49a24.91,24.91,0,0,1-39.42,0l-4.72,4.38,2.33,2.5a1.16,1.16,0,0,0,1.62.06l.84-.79a1.33,1.33,0,0,1,1.71,0l1.88,1.45a1.33,1.33,0,0,1,.39,1.67l-.54,1a1.16,1.16,0,0,0,.47,1.55l2,1.07a1.13,1.13,0,0,0,1.54-.47l.54-1a1.33,1.33,0,0,1,1.61-.59l2.25.76A1.32,1.32,0,0,1,38,62l-.18,1.13a1.14,1.14,0,0,0,.94,1.31l2.25.36a1.14,1.14,0,0,0,1.31-.94l.18-1.13a1.3,1.3,0,0,1,1.33-1.06S44.13,61.64,44.87,61.64Z" transform="translate(-0.32 -0.66)"/><path class="cls-1" d="M68.65,20.48c-.36-.64-.54-.9-.54-.9a1.3,1.3,0,0,1,.26-1.68l.89-.72a1.14,1.14,0,0,0,.16-1.6L68,13.81a1.15,1.15,0,0,0-1.61-.17l-.88.73a1.34,1.34,0,0,1-1.71-.07L62,12.73A1.33,1.33,0,0,1,61.71,11l.61-1A1.15,1.15,0,0,0,62,8.5L60,7.29a1.16,1.16,0,0,0-1.58.37l-.6,1a1.34,1.34,0,0,1-1.64.49L54,8.23a1.33,1.33,0,0,1-.81-1.5l.26-1.13a1.15,1.15,0,0,0-.86-1.37l-3.33-.77L47.83,9.74a24.9,24.9,0,0,1,19.7,34.13l6.16,1.91,1-3.28a1.14,1.14,0,0,0-.76-1.42l-1.11-.34a1.33,1.33,0,0,1-.89-1.46l.31-2.35a1.34,1.34,0,0,1,1.25-1.17l1.15,0a1.13,1.13,0,0,0,1.1-1.18l-.07-2.28a1.14,1.14,0,0,0-1.18-1.1l-1.14,0A1.33,1.33,0,0,1,72,30.11l-.47-2.33a1.34,1.34,0,0,1,.8-1.52l1.07-.4a1.15,1.15,0,0,0,.66-1.47l-.81-2.13a1.16,1.16,0,0,0-1.48-.67L70.73,22a1.29,1.29,0,0,1-1.57-.61S69,21.12,68.65,20.48Z" transform="translate(-0.32 -0.66)"/><path class="cls-1" d="M9.22,19.94l0,0Z" transform="translate(-0.32 -0.66)"/><path class="cls-1" d="M19,7l.09.1A7.94,7.94,0,0,1,21.44,6C27.64,4.21,27.33,2.07,30,.79L29.88.66a4.17,4.17,0,0,1-2.19.65C20.41,1.4,21,5.65,19,7Z" transform="translate(-0.32 -0.66)"/><path class="cls-1" d="M11.8,15.1l.13.09a6.28,6.28,0,0,1,3.14-2c5.78-1.71,7.79-5.53,9.35-6.62l-.05-.09c-2.14,1.52-4.68,0-9,4.6,0,0-.15-.13-.15-.13,3.51-4.24,3.6-7.12,5.22-8.69l-.08-.08C10.12,8.26,14.61,11.6,11.8,15.1Z" transform="translate(-0.32 -0.66)"/><path class="cls-1" d="M12.22,8C2.58,17.58,8.58,20,7.07,24.78l.1,0a6.21,6.21,0,0,1,3.16-2.93c4.08-1.88,5.37-6.64,7-8.09l-.08-.07c-2,2.16-5.29.95-8,6.31,0,0-.18-.09-.18-.09,2.16-4.67,1.15-8.9,3.21-11.81A.63.63,0,0,0,12.22,8Z" transform="translate(-0.32 -0.66)"/><path class="cls-1" d="M5.22,37.46h.14a6,6,0,0,1,2.09-4.93c4.58-4.24,3.8-8,5.68-10.92L13,21.54c-1.46,2.49-6.79,5.21-7,9a1.38,1.38,0,0,1-.2,0c.78-5.48-2.11-9.13-.54-12.6l-.14-.08C-1,30.44,4.06,30.27,5.22,37.46Z" transform="translate(-0.32 -0.66)"/><path class="cls-1" d="M7.57,49.42l.15-.05c-1.26-2.84.85-6.73,1-6.91,2.78-5.4,1.85-10.28,2.49-12l-.13,0c-1.49,3.7-5.61,5.71-5,11.94h-.2C5.21,38.52.83,34.81,1,30.6H.9C-1.83,45.56,5.94,45.46,7.57,49.42Z" transform="translate(-0.32 -0.66)"/><path class="cls-1" d="M13.8,60.51l.11-.09a8.31,8.31,0,0,1-1.77-6.84C13.44,46.12,11,44.77,11,41.39h-.12c-.11,3.78-4,8-.47,13.32l-.17.11c-3.87-5.65-6.94-4.27-8.75-9.89h0a.42.42,0,0,0-.17,0C4,61.44,11.33,56.46,13.8,60.51Z" transform="translate(-0.32 -0.66)"/><path class="cls-1" d="M28.91,67.69l0-.16c-5.1,1-7.7,0-8.63-4.64C19,56.3,14.47,53.76,14,51.13h0a.27.27,0,0,0-.13,0h0c1,4.65-1.3,7.42,4.31,13l-.15.13c-5.4-4.27-9.11-2.7-11.25-5.67a.37.37,0,0,0-.09.09C13.32,69.79,20.49,70.39,28.91,67.69Z" transform="translate(-0.32 -0.66)"/><path class="cls-1" d="M16.31,69.6l0-.06c6.86,4,14-1.58,22.72-1.78,2.18-.05,8.7.35,14.68,7.3l-1.59.45c-2-3.43-5-5.91-7.79-6.6-7.9-2-8,5.39-16.83,5.5C21,74.5,16.57,69.86,16.31,69.6Z" transform="translate(-0.32 -0.66)"/><path class="cls-1" d="M80.45,19.94l0,0Z" transform="translate(-0.32 -0.66)"/><path class="cls-1" d="M80.45,19.94l0,0Z" transform="translate(-0.32 -0.66)"/><path class="cls-1" d="M9.22,19.94l0,0Z" transform="translate(-0.32 -0.66)"/><path class="cls-1" d="M80.45,19.94l0,0Z" transform="translate(-0.32 -0.66)"/><path class="cls-1" d="M70.64,7l-.09.1A7.94,7.94,0,0,0,68.23,6C62,4.21,62.34,2.07,59.71.79l.08-.13A4.17,4.17,0,0,0,62,1.31C69.26,1.4,68.71,5.65,70.64,7Z" transform="translate(-0.32 -0.66)"/><path class="cls-1" d="M77.87,15.1l-.13.09a6.28,6.28,0,0,0-3.14-2c-5.78-1.71-7.79-5.53-9.35-6.62l0-.09c2.14,1.52,4.68,0,9,4.6,0,0,.15-.13.15-.13-3.51-4.24-3.6-7.12-5.22-8.69l.08-.08C79.55,8.26,75.06,11.6,77.87,15.1Z" transform="translate(-0.32 -0.66)"/><path class="cls-1" d="M77.45,8c9.64,9.56,3.64,12,5.15,16.76l-.1,0a6.21,6.21,0,0,0-3.16-2.93c-4.08-1.88-5.37-6.64-7-8.09l.08-.07c2,2.16,5.29.95,8,6.31,0,0,.18-.09.18-.09-2.16-4.67-1.15-8.9-3.21-11.81A.63.63,0,0,1,77.45,8Z" transform="translate(-0.32 -0.66)"/><path class="cls-1" d="M84.45,37.46h-.14a6,6,0,0,0-2.09-4.93c-4.58-4.24-3.8-8-5.68-10.92l.14-.08c1.46,2.49,6.79,5.21,7,9a1.38,1.38,0,0,0,.2,0c-.78-5.48,2.11-9.13.54-12.6l.14-.08C90.69,30.44,85.61,30.27,84.45,37.46Z" transform="translate(-0.32 -0.66)"/><path class="cls-1" d="M82.1,49.42,82,49.37c1.26-2.84-.85-6.73-1-6.91-2.78-5.4-1.85-10.28-2.49-12l.13,0c1.49,3.7,5.61,5.71,5,11.94h.2c.65-3.86,5-7.57,4.89-11.78h.07C91.5,45.56,83.73,45.46,82.1,49.42Z" transform="translate(-0.32 -0.66)"/><path class="cls-1" d="M75.87,60.51l-.11-.09a8.31,8.31,0,0,0,1.77-6.84c-1.3-7.46,1.12-8.81,1.18-12.19h.12c.11,3.78,4,8,.47,13.32l.17.11c3.87-5.65,6.94-4.27,8.75-9.89h0a.43.43,0,0,1,.16,0C85.66,61.44,78.34,56.46,75.87,60.51Z" transform="translate(-0.32 -0.66)"/><path class="cls-1" d="M60.76,67.69l0-.16c5.1,1,7.7,0,8.63-4.64,1.3-6.59,5.78-9.13,6.3-11.76h0a.27.27,0,0,1,.13,0h0c-1,4.65,1.3,7.42-4.31,13l.15.13C77.1,60,80.81,61.56,83,58.59l.09.09C76.35,69.79,69.19,70.39,60.76,67.69Z" transform="translate(-0.32 -0.66)"/><path class="cls-1" d="M73.36,69.6l0-.06c-6.86,4-14-1.58-22.72-1.78-2.18-.05-8.7.35-14.68,7.3l1.59.45c2-3.43,5-5.91,7.79-6.6,7.9-2,8.05,5.39,16.83,5.5C68.65,74.5,73.1,69.86,73.36,69.6Z" transform="translate(-0.32 -0.66)"/><path class="cls-1" d="M9.22,19.94l0,0Z" transform="translate(-0.32 -0.66)"/><path class="cls-1" d="M9.22,19.94l0,0Z" transform="translate(-0.32 -0.66)"/><path class="cls-1" d="M80.45,19.94l0,0Z" transform="translate(-0.32 -0.66)"/><path class="cls-1" d="M55.51,20.15h-.12a8.77,8.77,0,0,0-7.82,5.51,15.81,15.81,0,0,0-1,6.21,15.81,15.81,0,0,0,1,6.21c1.53,3.44,4.62,5.79,7.82,5.79h.12c3.21,0,6.29-2.35,7.82-5.79a16,16,0,0,0,1-6.21,16,16,0,0,0-1-6.21A8.76,8.76,0,0,0,55.51,20.15ZM60.45,32c0,2.06-.06,3.83-.06,3.83-.13,1.68-.15,3.37-.93,4.52a4.48,4.48,0,0,1-3.72,2l-.06,0H55.5l0,0a4.48,4.48,0,0,1-3.72-2c-.78-1.15-.81-2.84-.94-4.52,0,0,0-1.75,0-3.79V32c0-2.05,0-3.83,0-3.83.13-1.68.16-3.37.94-4.52a4.5,4.5,0,0,1,3.72-2l0,0h.18l.06,0a4.48,4.48,0,0,1,3.71,2c.79,1.15.81,2.84.94,4.52,0,0,0,1.76.06,3.8Z" transform="translate(-0.32 -0.66)"/><path class="cls-1" d="M57.91,44.86a7.41,7.41,0,0,1-1.79,2.63,4.41,4.41,0,0,1-2.35.79l-7.89.39H44.14s-1.33-.08-1.4-1.31V19.72c.07-1.23,1.4-1.31,1.4-1.31h1.74V16.8H35.33v1.61h1.74a1.47,1.47,0,0,1,1.4,1.31V47.36a1.47,1.47,0,0,1-1.4,1.31H35.33v1.61H45.88l11.43,0,1.4-5.1V45Z" transform="translate(-0.32 -0.66)"/><path class="cls-1" d="M33.12,23.19c.06-1,1.17-1.08,1.17-1.08h1.45V20.76h-8.8v1.35h1.45a1.21,1.21,0,0,1,1.16,1.08V40.87A1.21,1.21,0,0,1,28.39,42H26.94V43.3h8.8V42H34.29a1.22,1.22,0,0,1-1.17-1.09Z" transform="translate(-0.32 -0.66)"/></svg>