<svg xmlns="http://www.w3.org/2000/svg" viewBox="0 0 612 110.69"><defs><style>.cls-1{fill:#e72835;}.cls-2{fill:#008e84;}.cls-3{fill:#b6202a;}.cls-4{fill:#fff;}</style></defs><title>LEAF_FAEJ_hz_names_colour_rgb_rev</title><g id="Layer_2" data-name="Layer 2"><g id="Layer_1-2" data-name="Layer 1"><g id="Layer_1-2-2" data-name="Layer 1-2"><polygon class="cls-1" points="53.4 82.02 90.55 49.04 79.16 34 53.4 56.89 53.4 82.02"></polygon><polygon class="cls-2" points="53.4 108.19 102.4 64.67 93.27 52.63 53.4 88.02 53.4 108.19"></polygon><polygon class="cls-3" points="53.4 50.89 76.44 30.41 53.4 0 53.4 50.89"></polygon><polygon class="cls-1" points="48.61 108.19 48.61 77.21 14.03 46.49 0 65.02 48.61 108.19"></polygon><polygon class="cls-2" points="48.61 0.85 33.1 21.34 48.61 35.12 48.61 0.85"></polygon><polygon class="cls-3" points="48.61 71.19 48.61 41.12 30.38 24.93 16.75 42.9 48.61 71.19"></polygon><path class="cls-4" d="M137.65,41.2h17.06V51.68H125.77V6.27h11.86Z"></path><path class="cls-4" d="M189.39,33.58H172.45V41.3h18.6V51.78H160.58V6.27h30.47V16.75h-18.6v6.41h16.94Z"></path><path class="cls-4" d="M210.5,43.44l-1.68,8.24H196.36L207.49,6h15.62l11.13,45.64H221.77L220,43.44Zm4.79-26.32-2.95,17.37h5.92Z"></path><path class="cls-4" d="M268.36,34.49H251.78V51.68H239.91V6.27h30.26V16.75H251.84V24h16.58Z"></path><path class="cls-4" d="M154.23,91.4H137.65v17.19H125.78V63.2H156V73.66H137.65v7.28h16.58Z"></path><path class="cls-4" d="M174.38,100.35l-1.68,8.24H160.17L171.37,63H187l11.13,45.64H185.65l-1.7-8.24ZM179.16,74,176.21,91.4h5.93Z"></path><path class="cls-4" d="M236.05,90.49H219.11v7.72h18.64v10.48H207.24V63.2h30.51V73.66H219.11V80h16.94Z"></path><path class="cls-4" d="M247.3,97.88a17.05,17.05,0,0,0,5.33,1A3.37,3.37,0,0,0,256.48,96a3.29,3.29,0,0,0,0-.94V63.2h11.85V97.94c0,7.72-4.42,11.58-14.22,11.58a21.3,21.3,0,0,1-7-1.22Z"></path><path class="cls-4" d="M301.74,6.31h2.75L307,17.89l1.93-11.58h2.36l-2.8,14.92h-2.7L303.11,8.94l-2.68,12.29h-2.68L295,6.29h2.34l1.93,11.58Z"></path><path class="cls-4" d="M313.79,13.7c0-4.17.94-7.62,5.79-7.62s5.67,3.45,5.67,7.72-1,7.43-5.77,7.43S313.79,17.87,313.79,13.7Zm2.25,0c0,3.49.64,5.6,3.44,5.6s3.42-2.11,3.42-5.6-.64-5.61-3.42-5.61S316,10.19,316,13.7Z"></path><path class="cls-4" d="M336.21,19.05h-2.08L330.44,10l.1,11.09h-2.2V6.31h2.83l4,10.05,4-10H342V21.07h-2.2l.1-11.09Z"></path><path class="cls-4" d="M353.7,14.43h-6.14v4.62h6.77v2h-8.89V6.31h9v2h-6.85v4.07h6.14Z"></path><path class="cls-4" d="M366,21.07l-6.41-10.48V21.07H357.4V6.31h1.93l6.41,10.5V6.31h2.18V21.07Z"></path><path class="cls-4" d="M370.64,11.23l.56-4.92h2.6l-1.73,4.92Z"></path><path class="cls-4" d="M384.88,16.6c0,2.79-1.64,4.71-5.6,4.71a11.25,11.25,0,0,1-4.36-.85v-2.2a10.17,10.17,0,0,0,4.23,1c2.64,0,3.43-1.08,3.43-2.47s-.69-1.93-2.66-2.3c-3.61-.44-5-1.4-5-4.11,0-2.16,1.22-4.26,5.23-4.26a9.61,9.61,0,0,1,4,.71V8.94a9.9,9.9,0,0,0-3.86-.78c-2.3,0-3.09.95-3.09,2.2,0,1.6.91,1.93,2.86,2.13C383.11,12.91,384.88,13.61,384.88,16.6Z"></path><path class="cls-4" d="M395,19.05h6.37v2h-8.61V6.31H395Z"></path><path class="cls-4" d="M412.46,14.43h-6.14v4.62h6.76v2h-9V6.31h9v2h-6.76v4.07h6.14Z"></path><path class="cls-4" d="M416,13.7c0-4.65,1.62-7.62,6.06-7.62a9.83,9.83,0,0,1,4.22.77V9a10,10,0,0,0-4-.87c-3,0-4.07,2-4.07,5.56s1.08,5.6,4.07,5.6a6.77,6.77,0,0,0,2.1-.27V14.94h-2.6V13h4.8v7.45a10.69,10.69,0,0,1-4.63.9C417.63,21.23,416,18.33,416,13.7Z"></path><path class="cls-4" d="M437.26,17.46h-4.73l-1,3.61h-2.4l4.67-14.93H436l4.69,14.93H438.3Zm-2.38-8.33L433,15.65h3.86Z"></path><path class="cls-4" d="M445.57,19.05H452v2h-8.63V6.31h2.22Z"></path><path class="cls-4" d="M304,39.46h-6.13v4.62h6.75v2h-8.95V31.34h8.95v2h-6.75v4.07H304Z"></path><path class="cls-4" d="M307.71,46.1V31.34h4.38c4.9,0,6.25,3.18,6.25,7.37S317,46.1,312.09,46.1Zm2.2-2h2.26c2.93,0,3.86-2.16,3.86-5.37s-.95-5.34-3.86-5.34h-2.26Z"></path><path class="cls-4" d="M321.37,41.45V31.34h2.2v9.92a3.16,3.16,0,0,0,6.31,0V31.34h2.2V41.45a5.38,5.38,0,0,1-10.71,0Z"></path><path class="cls-4" d="M341.23,31.11a8.11,8.11,0,0,1,3.47.64v2.1a7.72,7.72,0,0,0-3.32-.68c-2.81,0-3.95,1.93-3.95,5.54s1.14,5.56,3.95,5.56a7.72,7.72,0,0,0,3.32-.68V45.7a8.42,8.42,0,0,1-3.47.63c-4.36,0-6.06-2.77-6.06-7.71S336.87,31.11,341.23,31.11Z"></path><path class="cls-4" d="M355.08,42.46h-4.72L349.3,46.1H347l4.67-14.93h2.26l4.67,14.93h-2.4Zm-2.31-8.3-1.93,6.52h3.76Z"></path><path class="cls-4" d="M364.73,33.37V46.1h-2.2V33.37h-3.86v-2h9.92v2Z"></path><path class="cls-4" d="M371.62,46.1V31.34h2.2V46.1Z"></path><path class="cls-4" d="M377.32,38.71c0-4.17.94-7.6,5.69-7.6s5.67,3.43,5.67,7.6-.94,7.72-5.67,7.72S377.32,42.88,377.32,38.71Zm2.25,0c0,3.51.64,5.62,3.44,5.62s3.41-2.11,3.41-5.62-.63-5.59-3.41-5.59S379.57,35.22,379.57,38.71Z"></path><path class="cls-4" d="M400.4,46.1,394,35.6V46.1h-2.18V31.34h1.93l6.41,10.48V31.34h2.18V46.1Z"></path><path class="cls-4" d="M415.82,31.11a3.19,3.19,0,0,1,3.59,2.75,2.76,2.76,0,0,1,0,.76c0,2.1-1.67,3.05-3.64,4a15.8,15.8,0,0,0,3.51,3.65,9.47,9.47,0,0,0,1.83-6h2.22a11.34,11.34,0,0,1-2.2,7.2,14.16,14.16,0,0,0,2.49,1l-.81,1.93A12.68,12.68,0,0,1,419.66,45a7.26,7.26,0,0,1-4.42,1.43c-2.94,0-5-1.27-5-4.32a4.26,4.26,0,0,1,2.7-4.27,6.5,6.5,0,0,1-.83-3,3.47,3.47,0,0,1,3.27-3.67Zm-1.93,8.53A2.39,2.39,0,0,0,412.57,42c0,1.72,1.39,2.34,2.71,2.34a4.65,4.65,0,0,0,2.43-.66,13.07,13.07,0,0,1-3.88-4Zm1-2.66c1.43-.76,2.49-1.22,2.47-2.32a1.31,1.31,0,0,0-1.09-1.5,1.81,1.81,0,0,0-2,1.27,1.82,1.82,0,0,0,0,.33,4.69,4.69,0,0,0,.62,2.22Z"></path><path class="cls-4" d="M438.49,42.46h-4.73l-1,3.6h-2.37L435,31.13h2.26l4.65,15h-2.4Zm-2.35-8.3-1.93,6.52h3.86Z"></path><path class="cls-4" d="M450.09,31.11a7.88,7.88,0,0,1,3.45.64v2.1a7.72,7.72,0,0,0-3.32-.68c-2.81,0-4,1.93-4,5.54s1.14,5.56,4,5.56a7.72,7.72,0,0,0,3.32-.68V45.7a8.32,8.32,0,0,1-3.45.63c-4.36,0-6.08-2.77-6.08-7.71S445.79,31.11,450.09,31.11Z"></path><path class="cls-4" d="M461.71,33.37V46.1h-2.2V33.37h-3.86v-2h9.88v2Z"></path><path class="cls-4" d="M468.58,46.1V31.34h2.29V46.1Z"></path><path class="cls-4" d="M474.27,38.71c0-4.17,1-7.6,5.79-7.6s5.67,3.43,5.67,7.6-.94,7.72-5.67,7.72S474.27,42.88,474.27,38.71Zm2.26,0c0,3.51.63,5.62,3.43,5.62s3.42-2.11,3.42-5.62-.64-5.59-3.42-5.59S476.53,35.22,476.53,38.71Z"></path><path class="cls-4" d="M497.35,46.1l-6.41-10.5V46.1h-2.12V31.34h1.93l6.41,10.48V31.34h2.18V46.1Z"></path><path class="cls-4" d="M515.84,39.54h-6V46.1h-2.2V31.34h8.81v2h-6.61v4.15h6Z"></path><path class="cls-4" d="M519.23,41.45V31.34h2.2v9.92a3.15,3.15,0,0,0,6.3,0V31.34h2.21V41.45a5.38,5.38,0,0,1-10.71,0Z"></path><path class="cls-4" d="M541.76,46.1l-6.41-10.5V46.1h-2.18V31.34h1.93l6.4,10.48V31.34h2.18V46.1Z"></path><path class="cls-4" d="M547.14,46.1V31.34h4.38c4.9,0,6.25,3.18,6.25,7.37s-1.35,7.39-6.25,7.39Zm2.2-2h2.24c2.95,0,3.86-2.16,3.86-5.37s-1-5.34-3.86-5.34h-2.24Z"></path><path class="cls-4" d="M303.81,73.85h-6V80.4h-2.2V65.61h8.8v1.93h-6.6v4.15h6Z"></path><path class="cls-4" d="M329.71,80.4,323.3,69.92V80.4h-2.18V65.61h1.93l6.41,10.48V65.61h2.18V80.36Z"></path><path class="cls-4" d="M335.11,80.4V65.61h4.38c4.9,0,6.25,3.19,6.25,7.38s-1.35,7.37-6.25,7.37Zm2.2-1.93h2.34c3,0,3.86-2.15,3.86-5.35s-.95-5.35-3.86-5.35h-2.24Z"></path><path class="cls-4" d="M358.52,75.94c0,2.78-1.66,4.69-5.6,4.69a11.17,11.17,0,0,1-4.38-.85v-2.2a9.93,9.93,0,0,0,4.25,1c2.64,0,3.43-1.08,3.43-2.47s-.69-2-2.68-2.29c-3.59-.45-5-1.41-5-4.09,0-2.19,1.24-4.29,5.25-4.29a9.38,9.38,0,0,1,4,.72v2.14a9.68,9.68,0,0,0-3.86-.77c-2.32,0-3.09.94-3.09,2.21,0,1.59.91,1.93,2.84,2.13C356.73,72.23,358.52,72.93,358.52,75.94Z"></path><path class="cls-4" d="M366.47,80.4V65.61h4.38c4.9,0,6.25,3.19,6.25,7.38s-1.35,7.37-6.25,7.37Zm2.2-1.93h2.24c2.95,0,3.86-2.15,3.86-5.35s-.95-5.35-3.86-5.35h-2.32Z"></path><path class="cls-4" d="M379.48,70.55l.58-4.9h2.58l-1.72,4.9Z"></path><path class="cls-4" d="M389.57,76.79h-4.73l-1,3.61h-2.39l4.69-14.94h2.24L393,80.4h-2.4Zm-2.35-8.34L385.29,75h3.86Z"></path><path class="cls-4" d="M401.17,65.4a8.33,8.33,0,0,1,3.45.64v2.1a8.08,8.08,0,0,0-3.22-.6c-2.82,0-3.86,1.93-3.86,5.56s1.14,5.54,3.86,5.54a7.75,7.75,0,0,0,3.32-.68v2.11a8,8,0,0,1-3.46.63c-4.36,0-6.07-2.77-6.07-7.6S396.81,65.4,401.17,65.4Z"></path><path class="cls-4" d="M412.79,67.68V80.4h-2.2V67.68h-3.86V65.61h9.88v1.93Z"></path><path class="cls-4" d="M419.66,80.4V65.61h2.2V80.36Z"></path><path class="cls-4" d="M425.35,73c0-4.16.94-7.72,5.79-7.72s5.67,3.46,5.67,7.72-.94,7.61-5.67,7.61S425.35,77.19,425.35,73Zm2.26,0c0,3.5.63,5.6,3.43,5.6s3.42-2.1,3.42-5.6-.64-5.61-3.42-5.61S427.61,69.47,427.61,73Z"></path><path class="cls-4" d="M306.9,73c0-4.16,1-7.72,5.79-7.72s5.67,3.46,5.67,7.72-.94,7.61-5.67,7.61S306.9,77.19,306.9,73Zm2.26,0c0,3.5.64,5.6,3.43,5.6S316,76.52,316,73s-.64-5.61-3.42-5.61S309.16,69.47,309.16,73Z"></path><path class="cls-4" d="M448.43,80.4,442,69.92V80.4h-2V65.61h1.93l6.4,10.48V65.61h2.18V80.36Z"></path><path class="cls-4" d="M467,73.76h-6.13v4.61h6.77V80.3h-9V65.61h9v1.93h-6.77v4.08H467Z"></path><path class="cls-4" d="M476.2,67.68V80.4H474V67.68h-3.86V65.61H480v1.93Z"></path><path class="cls-4" d="M487.06,80.4V65.61h4.4c4.89,0,6.26,3.19,6.26,7.38s-1.37,7.37-6.26,7.37Zm2.22-1.93h2.24c3,0,3.86-2.15,3.86-5.35s-.94-5.35-3.86-5.35h-2.24Z"></path><path class="cls-4" d="M500.09,70.55l.58-4.9h2.59l-1.74,4.9Z"></path><path class="cls-4" d="M513.43,73.76h-6.14v4.61H514V80.3h-8.95V65.61H514v1.93h-6.75v4.08h6.14Zm-4.64-9,1.14-2.16h2.67l-1.93,2.16Z"></path><path class="cls-4" d="M517.19,80.4V65.61h4.4c4.88,0,6.25,3.19,6.25,7.38s-1.37,7.37-6.25,7.37Zm2.2-1.93h2.26c2.93,0,3.86-2.15,3.86-5.35s-1-5.35-3.86-5.35h-2.26Z"></path><path class="cls-4" d="M530.83,75.74V65.61h2.22v9.9a3.15,3.15,0,1,0,6.29,0v-9.9h2.2v10.1a5.38,5.38,0,0,1-10.71,0Z"></path><path class="cls-4" d="M550.71,65.4a8.5,8.5,0,0,1,3.45.64v2.1a8,8,0,0,0-3.32-.67c-2.81,0-4,1.93-4,5.55s1.14,5.54,4,5.54a7.57,7.57,0,0,0,3.32-.67V80a8.17,8.17,0,0,1-3.45.64c-4.38,0-6.08-2.78-6.08-7.61S546.33,65.4,550.71,65.4Z"></path><path class="cls-4" d="M564.6,76.79h-4.72l-1,3.61h-2.39l4.69-14.94h2.24L568,80.4h-2.39Zm-2.35-8.34L560.32,75h3.76Z"></path><path class="cls-4" d="M574.21,67.68V80.4H572V67.68h-3.86V65.61H578v1.93Z"></path><path class="cls-4" d="M581.08,80.4V65.61h2.2V80.36Z"></path><path class="cls-4" d="M586.78,73c0-4.16.94-7.72,5.69-7.72s5.67,3.46,5.67,7.72-.94,7.61-5.67,7.61S586.78,77.19,586.78,73ZM589,73c0,3.5.63,5.6,3.43,5.6s3.42-2.1,3.42-5.6-.64-5.61-3.42-5.61S589,69.47,589,73Z"></path><path class="cls-4" d="M609.82,80.4l-6.41-10.48V80.4h-2.08V65.61h1.93l6.56,10.52V65.65H612V80.4Z"></path><path class="cls-4" d="M294.86,105.79a4.37,4.37,0,0,0,1.52.25c1.06,0,1.81-.42,1.81-1.52V93.15h2.2v11.72c0,2.14-1.17,3.28-3.86,3.28a6.23,6.23,0,0,1-1.66-.24Z"></path><path class="cls-4" d="M303.87,103.26V93.15h2.2v9.92a3.15,3.15,0,0,0,6.29,0V93.15h2.2v10.11a5.36,5.36,0,0,1-10.69,0Z"></path><path class="cls-4" d="M320,107.91h-2.2V93.15h4.8c3.86,0,5,1.72,5,4.4a3.59,3.59,0,0,1-2.39,3.86l3.09,6.45h-2.57l-2.68-6H320Zm0-8H323c2.05,0,2.32-1.16,2.32-2.36S325,95.18,323,95.18H320Z"></path><path class="cls-4" d="M331.35,107.91V93.15h2.2v14.76Z"></path><path class="cls-4" d="M337.18,107.91V93.15h4.38c4.9,0,6.25,3.19,6.25,7.37s-1.35,7.39-6.25,7.39Zm2.2-2h2.24c2.95,0,3.86-2.14,3.86-5.37s-1-5.34-3.86-5.34h-2.24Z"></path><path class="cls-4" d="M351.25,107.91V93.15h2.2v14.76Z"></path><path class="cls-4" d="M365.22,107.51l4.59.95v2.23l-9.18-2.78c-3.05-.92-3.67-3.85-3.67-7.39,0-4.34,1-7.6,5.68-7.6s5.69,3.26,5.69,7.6c0,3.36-.5,6-3.11,7Zm-6-7c0,3.52.64,5.62,3.42,5.62s3.43-2.1,3.43-5.62-.64-5.59-3.43-5.59S359.22,97,359.22,100.52Z"></path><path class="cls-4" d="M371.42,103.26V93.15h2.2v9.92a3.15,3.15,0,0,0,6.29,0V93.15h2.2v10.11a5.36,5.36,0,0,1-10.69,0Z"></path><path class="cls-4" d="M393.72,101.28h-6.13v4.61h6.85v2h-9V93.15h9v1.93h-6.77v4.07h6.13Z"></path><path class="cls-4" d="M404.32,107.91h-2.2V93.15h4.73c3.86,0,5.11,2.2,5.11,4.63s-1.31,4.6-5.11,4.6h-2.53Zm0-7.54h2.62a2.6,2.6,0,1,0,.45-5.19,3.38,3.38,0,0,0-.45,0h-2.62Z"></path><path class="cls-4" d="M414.28,100.52c0-4.16.94-7.6,5.79-7.6s5.67,3.44,5.67,7.6-1,7.55-5.67,7.55S414.28,104.69,414.28,100.52Zm2.25,0c0,3.52.64,5.62,3.44,5.62s3.42-2.1,3.42-5.62-.64-5.59-3.42-5.59-3.42,2.1-3.42,5.59Z"></path><path class="cls-4" d="M428.75,103.26V93.15H431v9.92a3.15,3.15,0,0,0,6.29,0V93.15h2.12v10.11a5.36,5.36,0,0,1-10.69,0Z"></path><path class="cls-4" d="M444.94,107.91h-2.2V93.15h4.79c3.86,0,5,1.72,5,4.4a3.6,3.6,0,0,1-2.39,3.86l3.09,6.45h-2.59l-2.66-6h-3.07Zm0-8h2.9c2,0,2.33-1.16,2.33-2.36s-.29-2.37-2.33-2.37h-2.9Z"></path><path class="cls-4" d="M463,105.89h6.41v2h-8.61V93.15H463Z"></path><path class="cls-4" d="M480.47,101.28h-6.14v4.61h6.76v2h-8.92V93.15h9v1.93h-6.76v4.07h6.14Z"></path><path class="cls-4" d="M493.88,103.44c0,2.8-1.66,4.71-5.61,4.71a11.68,11.68,0,0,1-4.37-.85v-2.2a10.17,10.17,0,0,0,4.23,1c2.66,0,3.44-1.08,3.44-2.49s-.68-2-2.67-2.27c-3.61-.45-5-1.41-5-4.11,0-2.17,1.22-4.27,5.23-4.27a9.28,9.28,0,0,1,4,.71v2.15a9.69,9.69,0,0,0-3.86-.78c-2.3,0-3.09,1-3.09,2.2,0,1.61.91,1.93,2.86,2.13C492.09,99.75,493.88,100.35,493.88,103.44Z"></path><path class="cls-4" d="M510,101.35h-6v6.56h-2.2V93.15h8.82v1.93H504v4.15h6Z"></path><path class="cls-4" d="M521.82,101.28h-6.11v4.61h6.75v2h-9V93.15h9v1.93h-6.75v4.07h6.11Z"></path><path class="cls-4" d="M533.46,105.89h-2.08l-3.69-9.07.1,11.09h-2.2V93.15h2.83l4,10.06,4-10.06h2.84v14.76H537l.1-11.09Z"></path><path class="cls-4" d="M550.48,105.89H548.4l-3.69-9.07.12,11.09h-2.22V93.15h2.89l3.86,10.06,4-10.06h2.83v14.76H554l.11-11.09Z"></path><path class="cls-4" d="M568,101.28h-6.14v4.61h6.81v2h-8.95V93.15h8.95v1.93h-6.75v4.07H568Z"></path><path class="cls-4" d="M581.4,103.44c0,2.8-1.66,4.71-5.62,4.71a11.63,11.63,0,0,1-4.36-.85v-2.2a10.14,10.14,0,0,0,4.23,1c2.66,0,3.43-1.08,3.43-2.49s-.67-2-2.66-2.27c-3.61-.45-5-1.41-5-4.11,0-2.17,1.22-4.27,5.23-4.27a9.31,9.31,0,0,1,4,.71v2.15a9.69,9.69,0,0,0-3.86-.78c-2.3,0-3.09,1-3.09,2.2,0,1.61.9,1.93,2.85,2.13C579.6,99.75,581.4,100.35,581.4,103.44Z"></path></g></g></g></svg>