<?xml version="1.0" encoding="utf-8"?>
<!-- Generator: Adobe Illustrator 25.0.0, SVG Export Plug-In . SVG Version: 6.00 Build 0)  -->
<svg version="1.1" id="Layer_1" xmlns="http://www.w3.org/2000/svg" xmlns:xlink="http://www.w3.org/1999/xlink" x="0px" y="0px"
	 viewBox="0 0 525.6 202.7" style="enable-background:new 0 0 525.6 202.7;" xml:space="preserve">
<style type="text/css">
	.st0{fill:#666666;}
	.st1{fill:#749C76;}
	.st2{fill:#87398B;}
</style>
<g id="Layer_1_1_">
</g>
<g id="Fonts">
	<g>
		<path class="st0" d="M76.2,66.6c0,18.9-14.1,36.5-38.8,36.5C14.9,103.1,0,86.4,0,66.9c0-18.5,13.3-36.6,38-36.6
			C60.5,30.3,76.2,46.4,76.2,66.6z M10.4,66.9c0,15.7,12.6,26.6,27.1,26.6c15.1,0,28.1-8.9,28.1-27c0-12.1-9.3-26.6-27.5-26.6
			C20.6,39.9,10.4,51.8,10.4,66.9z"/>
		<path class="st0" d="M146.8,36.1v10.7c-7.6-4.3-15.9-7.1-24.5-7.1c-17.4,0-28.1,13.2-28.1,27.1c0,13.9,10.3,26.7,28,26.7
			c9.3,0,17.7-2.8,25.4-7.9v11.1c-8.3,4.5-16.8,6.2-25.8,6.2c-26.1,0-38.2-19.7-38.2-36.3c0-20.8,17.3-36.5,38.4-36.5
			C129.8,30.3,138.2,32.3,146.8,36.1z"/>
		<path class="st0" d="M177.5,31.2c14.1,0,21.5,9.4,21.5,19.8c0,8.2-4.1,14.4-11.9,17.5c4.2,2.7,6.1,4.4,13,14.8l12.5,18.9h-12.1
			l-11.2-17.5c-7.2-11.2-11.6-13.4-16.6-13.4h-4.6v30.9H158V31.3h19.5V31.2z M168.2,62.3h6.6c7.4,0,13.9-1.9,13.9-11.3
			c0-6.9-4.2-10.8-11.9-10.8h-8.6V62.3z"/>
		<path class="st0" d="M278.5,36.1v10.7c-7.6-4.3-15.9-7.1-24.5-7.1c-17.4,0-28.1,13.2-28.1,27.1c0,13.9,10.3,26.7,28,26.7
			c9.3,0,17.7-2.8,25.4-7.9v11.1c-8.3,4.5-16.8,6.2-25.8,6.2c-26.1,0-38.2-19.7-38.2-36.3c0-20.8,17.3-36.5,38.4-36.5
			C261.6,30.3,270,32.3,278.5,36.1z"/>
		<path class="st0" d="M349.9,36.1v10.7c-7.6-4.3-15.9-7.1-24.5-7.1c-17.4,0-28.1,13.2-28.1,27.1c0,13.9,10.3,26.7,28,26.7
			c9.3,0,17.7-2.8,25.4-7.9v11.1c-8.3,4.5-16.8,6.2-25.8,6.2c-26.1,0-38.2-19.7-38.2-36.3c0-20.8,17.3-36.5,38.4-36.5
			C332.9,30.3,341.3,32.3,349.9,36.1z"/>
	</g>
	<path class="st0" d="M31.5,126.3c0,6.6-4.9,12.6-13.4,12.6c-7.8,0-13-5.8-13-12.5c0-6.4,4.6-12.7,13.1-12.7
		C26.1,113.8,31.5,119.3,31.5,126.3z M8.8,126.4c0,5.4,4.4,9.2,9.4,9.2c5.2,0,9.7-3.1,9.7-9.4c0-4.2-3.2-9.2-9.5-9.2
		C12.3,117.1,8.8,121.2,8.8,126.4z"/>
	<path class="st0" d="M38.7,114.1l16.5,19v-19h3.4v24.5h-3.1l-16.3-18.9v18.9h-3.4v-24.5H38.7z"/>
	<path class="st0" d="M82.4,114.1v3.1h-8.6v21.5h-3.5v-21.5h-8.4v-3.1H82.4z"/>
	<path class="st0" d="M92,113.9l11,24.7h-3.6l-3.3-7.2H85.7l-3.1,7.2H79l10.5-24.7H92z M87,128.2h7.7l-4-9.5L87,128.2z"/>
	<path class="st0" d="M112.4,114.1c4.9,0,7.5,3.2,7.5,6.8c0,2.8-1.4,5-4.1,6c1.4,0.9,2.1,1.5,4.5,5.1l4.3,6.6h-4.2l-3.9-6
		c-2.5-3.9-4-4.6-5.8-4.6h-1.6v10.7h-3.5v-24.5h6.8V114.1z M109.2,124.8h2.3c2.6,0,4.8-0.6,4.8-3.9c0-2.4-1.4-3.7-4.1-3.7h-3V124.8z
		"/>
	<path class="st0" d="M130.8,114.1v24.5h-3.5v-24.5H130.8z"/>
	<path class="st0" d="M161.5,126.3c0,6.6-4.9,12.6-13.4,12.6c-7.8,0-13-5.8-13-12.5c0-6.4,4.6-12.7,13.1-12.7
		C156.1,113.8,161.5,119.3,161.5,126.3z M138.8,126.4c0,5.4,4.4,9.2,9.4,9.2c5.2,0,9.7-3.1,9.7-9.4c0-4.2-3.2-9.2-9.5-9.2
		C142.3,117.1,138.8,121.2,138.8,126.4z"/>
	<path class="st0" d="M196.7,115.8v3.7c-2.6-1.5-5.5-2.4-8.5-2.4c-6,0-9.7,4.6-9.7,9.4s3.6,9.3,9.7,9.3c3.2,0,6.1-1,8.8-2.7v3.9
		c-2.9,1.5-5.8,2.2-8.9,2.2c-9,0-13.2-6.8-13.2-12.6c0-7.2,6-12.6,13.3-12.6C190.8,113.8,193.7,114.4,196.7,115.8z"/>
	<path class="st0" d="M225.9,126.3c0,6.6-4.9,12.6-13.4,12.6c-7.8,0-13-5.8-13-12.5c0-6.4,4.6-12.7,13.1-12.7
		C220.4,113.8,225.9,119.3,225.9,126.3z M203.1,126.4c0,5.4,4.4,9.2,9.4,9.2c5.2,0,9.7-3.1,9.7-9.4c0-4.2-3.2-9.2-9.5-9.2
		C206.6,117.1,203.1,121.2,203.1,126.4z"/>
	<path class="st0" d="M239.4,113.9l11,24.7h-3.6l-3.3-7.2h-10.4l-3.1,7.2h-3.6l10.5-24.7H239.4z M234.4,128.2h7.7l-4-9.5
		L234.4,128.2z"/>
	<path class="st0" d="M256.7,114.1v21.3h11v3.2h-14.6v-24.5H256.7z"/>
	<path class="st0" d="M274.3,114.1v24.5h-3.5v-24.5H274.3z"/>
	<path class="st0" d="M299.2,114.1v3.1h-8.6v21.5h-3.5v-21.5h-8.4v-3.1H299.2z"/>
	<path class="st0" d="M307,114.1v24.5h-3.5v-24.5H307z"/>
	<path class="st0" d="M337.7,126.3c0,6.6-4.9,12.6-13.4,12.6c-7.8,0-13-5.8-13-12.5c0-6.4,4.6-12.7,13.1-12.7
		C332.3,113.8,337.7,119.3,337.7,126.3z M315,126.4c0,5.4,4.4,9.2,9.4,9.2c5.2,0,9.7-3.1,9.7-9.4c0-4.2-3.2-9.2-9.5-9.2
		C318.5,117.1,315,121.2,315,126.4z"/>
	<path class="st0" d="M344.9,114.1l16.5,19v-19h3.4v24.5h-3.1l-16.3-18.9v18.9H342v-24.5H344.9z"/>
	<path class="st0" d="M31.5,162.3c0,6.6-4.9,12.6-13.4,12.6c-7.8,0-13-5.8-13-12.5c0-6.4,4.6-12.7,13.1-12.7
		C26.1,149.8,31.5,155.3,31.5,162.3z M8.8,162.4c0,5.4,4.4,9.2,9.4,9.2c5.2,0,9.7-3.1,9.7-9.4c0-4.2-3.2-9.2-9.5-9.2
		C12.3,153.1,8.8,157.2,8.8,162.4z"/>
	<path class="st0" d="M48.9,150.1v3.2h-9.6v6.8h9.6v3.2h-9.6v11.4h-3.5v-24.5h13.1V150.1z"/>
	<path class="st0" d="M70.5,150.1c4.9,0,7.5,3.2,7.5,6.8c0,2.8-1.4,5-4.1,6c1.4,0.9,2.1,1.5,4.5,5.1l4.3,6.6h-4.2l-3.9-6
		c-2.5-3.9-4-4.6-5.8-4.6h-1.6v10.7h-3.5v-24.5h6.8V150.1z M67.2,160.8h2.3c2.6,0,4.8-0.6,4.8-3.9c0-2.4-1.4-3.7-4.1-3.7h-3V160.8z"
		/>
	<path class="st0" d="M95.7,149.9l11,24.7H103l-3.3-7.2H89.3l-3.1,7.2h-3.6l10.5-24.7H95.7z M90.7,164.2h7.7l-4-9.5L90.7,164.2z"/>
	<path class="st0" d="M116.8,150.1c5,0,8,2.6,8,6.9c0,4.8-3.3,6.9-8.6,6.9h-3.4v10.7h-3.5v-24.5H116.8z M112.9,160.9h3.2
		c4.1,0,5.1-1.6,5.1-3.9s-1.2-3.8-5.1-3.8h-3.2V160.9z"/>
	<path class="st0" d="M141.5,150.1v3.1H131v7.5h10v3.1h-10v7.6h10.7v3.2h-14.3v-24.5L141.5,150.1L141.5,150.1z"/>
	<path class="st0" d="M177.1,151.8v3.7c-2.6-1.5-5.5-2.4-8.5-2.4c-6,0-9.7,4.6-9.7,9.4s3.6,9.3,9.7,9.3c3.2,0,6.1-1,8.8-2.7v3.9
		c-2.9,1.5-5.8,2.2-8.9,2.2c-9,0-13.2-6.8-13.2-12.6c0-7.2,6-12.6,13.3-12.6C171.2,149.8,174.1,150.4,177.1,151.8z"/>
	<path class="st0" d="M188.4,150.1c4.9,0,7.5,3.2,7.5,6.8c0,2.8-1.4,5-4.1,6c1.4,0.9,2.1,1.5,4.5,5.1l4.3,6.6h-4.2l-3.9-6
		c-2.5-3.9-4-4.6-5.8-4.6h-1.6v10.7h-3.5v-24.5h6.8V150.1z M185.2,160.8h2.3c2.6,0,4.8-0.6,4.8-3.9c0-2.4-1.4-3.7-4.1-3.7h-3
		L185.2,160.8L185.2,160.8z"/>
	<path class="st0" d="M206.8,150.1v24.5h-3.5v-24.5H206.8z"/>
	<path class="st0" d="M225.1,151.5v4c-1.7-1.6-3.6-2.6-5.8-2.6c-2.2,0-3.6,1.2-3.6,2.8c0,1.4,0.3,2.6,4,4.7c5.2,3,6.3,4.7,6.3,8.1
		c0,3.6-2.8,6.4-7.1,6.4c-2.4,0-4.7-0.8-6.6-2.3v-4.5c1.7,2.3,4.1,3.6,6.6,3.6c2.1,0,3.6-1.3,3.6-3.2c0-1.7-0.5-2.8-5.3-5.6
		c-3.6-2.1-5-4.1-5-7.1c0-3.5,3-6.1,7.2-6.1C221.5,149.8,223.5,150.4,225.1,151.5z"/>
	<path class="st0" d="M234.9,150.1v24.5h-3.5v-24.5H234.9z"/>
	<path class="st0" d="M253.2,151.5v4c-1.7-1.6-3.6-2.6-5.8-2.6c-2.2,0-3.6,1.2-3.6,2.8c0,1.4,0.3,2.6,4,4.7c5.2,3,6.3,4.7,6.3,8.1
		c0,3.6-2.8,6.4-7.1,6.4c-2.4,0-4.7-0.8-6.6-2.3v-4.5c1.7,2.3,4.1,3.6,6.6,3.6c2.1,0,3.6-1.3,3.6-3.2c0-1.7-0.5-2.8-5.3-5.6
		c-3.6-2.1-5-4.1-5-7.1c0-3.5,3-6.1,7.2-6.1C249.6,149.8,251.6,150.4,253.2,151.5z"/>
	<path class="st0" d="M287.3,151.8v3.7c-2.6-1.5-5.5-2.4-8.5-2.4c-6,0-9.7,4.6-9.7,9.4s3.6,9.3,9.7,9.3c3.2,0,6.1-1,8.8-2.7v3.9
		c-2.9,1.5-5.8,2.2-8.9,2.2c-9,0-13.2-6.8-13.2-12.6c0-7.2,6-12.6,13.3-12.6C281.4,149.8,284.4,150.4,287.3,151.8z"/>
	<path class="st0" d="M305.8,150.1v3.1h-10.4v7.5h10v3.1h-10v7.6h10.7v3.2h-14.3v-24.5L305.8,150.1L305.8,150.1z"/>
	<path class="st0" d="M313.6,150.1l16.5,19v-19h3.4v24.5h-3.1L314,155.7v18.9h-3.4v-24.5H313.6z"/>
	<path class="st0" d="M357.2,150.1v3.1h-8.6v21.5h-3.5v-21.5h-8.4v-3.1H357.2z"/>
	<path class="st0" d="M366.3,150.1c4.9,0,7.5,3.2,7.5,6.8c0,2.8-1.4,5-4.1,6c1.4,0.9,2.1,1.5,4.5,5.1l4.3,6.6h-4.2l-3.9-6
		c-2.5-3.9-4-4.6-5.8-4.6H363v10.7h-3.5v-24.5h6.8V150.1z M363.1,160.8h2.3c2.6,0,4.8-0.6,4.8-3.9c0-2.4-1.4-3.7-4.1-3.7h-3
		L363.1,160.8L363.1,160.8z"/>
	<path class="st0" d="M395.1,150.1v3.1h-10.4v7.5h10v3.1h-10v7.6h10.7v3.2h-14.3v-24.5L395.1,150.1L395.1,150.1z"/>
	<path class="st0" d="M411.8,151.5v4c-1.7-1.6-3.6-2.6-5.8-2.6s-3.6,1.2-3.6,2.8c0,1.4,0.3,2.6,4,4.7c5.2,3,6.3,4.7,6.3,8.1
		c0,3.6-2.8,6.4-7.1,6.4c-2.4,0-4.7-0.8-6.6-2.3v-4.5c1.7,2.3,4.1,3.6,6.6,3.6c2.1,0,3.6-1.3,3.6-3.2c0-1.7-0.5-2.8-5.3-5.6
		c-3.6-2.1-5-4.1-5-7.1c0-3.5,3-6.1,7.2-6.1C408.2,149.8,410.2,150.4,411.8,151.5z"/>
</g>
<g id="ICON">
	<path class="st1" d="M453.6,0.2c-1.8,1.7-3.5,3.4-5.3,5.1c-3.6,3.6-6.6,7.6-8.6,12.4c-1.8,4.3-2.4,8.9-1.7,13.5
		c0.6,4.3,2.1,8.3,4,12.1c1.1,2.2,2.4,4.3,3.5,6.4c0.1,0,0.2-0.1,0.3-0.1c1.3-7.4,2.7-14.8,4-22.2c0.1,0,0.6,0.1,0.7,0.1
		c-0.8,7.5-2,14.9-2.8,22.7c3.7-3.6,7.2-6.9,10-11c4.6-6.8,6.2-14.2,4.2-22.3c-1.5-6.1-4.5-11.6-7.8-16.9"/>
	<path class="st1" d="M363.8,66.8c0.1,0,0.2,0.1,0.2,0.1c1.2,3.7,2.1,7.6,3.6,11.2c2.6,6.4,7.3,10.8,13.9,13
		c5,1.6,10.2,1.8,15.4,1.6c0,0,0.1-0.1,0.1-0.2c-4.1-3.4-8.1-6.9-12.2-10.3c0.1-0.1,0.1-0.2,0.2-0.3c4.4,3.1,8.7,6.3,13.3,9.6
		c-1.1-5.1-2.5-9.7-4.9-14c-2.2-4-5.2-7.2-9.4-9.1c-6.5-3-13.3-3.6-20.3-2.9"/>
	<path class="st2" d="M450.2,110.2c0.1-0.2,0.3-0.5,0.3-0.7c1.2-4.7,4-8.2,7.7-11.2c0.2-0.2,0.6-0.2,0.8-0.2
		c1.4,0.1,2.7,0.4,4.1,0.4c4.1,0.1,8.1,0,12.1-0.8c7-1.4,12.7-5,16.9-10.6c4.1-5.4,6.5-11.5,8.6-17.9c0.2-0.7,0.1-1-0.6-1.1
		c-2.5-0.3-5-0.8-7.5-0.8c-3.8,0-7.7,0.1-11.5,0.5c-6.3,0.7-11.6,3.6-16,8.1c-3.4,3.5-5.7,7.8-7.7,12.3c-0.8,1.8-1,3.1-1.7,4.9
		c0.8-0.3,1-0.7,1.6-1.1c3.9-2.7,7.8-4.8,11.6-7.6c3.4-2.4,6.1-5.4,6.8-9.9c0.3,3.1,0.4,3.2-0.4,4.5c-0.6,1-1.3,1.9-2.1,2.8
		c-2.4,2.7-5.5,4.5-8.4,6.4c-3.9,2.6-8,4.8-11.1,8.5C450.5,100.8,449.3,105.2,450.2,110.2z"/>
	<path class="st2" d="M424.4,94.4c0.3-2,0.5-2.8,0.5-4.4c0-3.2,0-6.3-0.3-9.5c-0.3-4.1-1.7-7.8-3.8-11.3c-2.5-4.1-5.8-7.3-9.9-9.7
		c-4.2-2.4-8.6-4.4-12.9-6.5c-0.6-0.3-1.1-0.4-1.3,0.5c-0.6,3.5-1.4,7-1.6,10.6c-0.2,3.8,0,7.6,0.5,11.3c0.8,5.1,3.1,9.6,6.7,13.4
		c5,5.3,11.1,8.7,17.8,11.1c4,1.5,6.8,3.9,7.5,8.3c0.2,1.3,0.5,2.7,0.8,4c1.4-4.8,0.8-9.2-1.9-13.4c-2.7-4.2-6.6-7.1-10.4-10.3
		c-3-2.4-5.9-4.8-8.2-8c-1.5-2.1-1.7-4.2-0.6-6.5c0.2,0.9,0.4,1.6,0.5,2.4c0.8,3,2.6,5.4,4.7,7.6c2.8,2.9,5.9,5.2,8.8,7.9
		C422.4,92.7,423.3,93.2,424.4,94.4z"/>
	<path class="st1" d="M437,72.2c0.1,0,0.2,0,0.3,0c0.4-0.8,0.7-1.7,1.1-2.5c2.4-5.8,4.3-11.8,3.6-18.2c-0.3-3.3-1.3-6.4-2.9-9.3
		c-3.5-5.9-8.6-10.1-14.1-13.9c-0.8-0.5-1-0.2-1.3,0.4c-0.6,1.3-1.1,2.6-1.7,3.9c-2.3,5.9-4.1,11.8-3.3,18.3
		c0.5,3.5,1.7,6.7,3.5,9.6c2.1,3.4,4.9,6.2,8,8.8c1.5,1.3,3.1,2.4,4.7,3.6c0.1-0.1,0.2-0.1,0.3-0.2c-1.4-6.1-2.8-12.3-4.2-18.4
		c0.1,0,0.4-0.1,0.4-0.1C433.4,60,435.1,66.1,437,72.2z"/>
	<path class="st1" d="M476.7,34.8c-5.5,1.8-10.4,3.7-14.8,6.7c-4.3,2.9-7.7,6.6-9.5,11.5c-2.3,6.1-2,12.5-1.3,18.8
		c0.1,0.7,0.2,1.4,0.4,2.5c3.6-5.4,7-10.5,10.3-15.6c0.1,0.1,0.2,0.1,0.3,0.2c-3,5.4-6,10.7-9.2,16.4c5.7-2,10.8-4.2,15.3-7.7
		c5.9-4.6,8.8-10.8,9.1-18.1C477.4,44.6,476.9,39.8,476.7,34.8z"/>
	<path class="st2" d="M413.6,106.5c-1,0.9-1.8,1.7-2.6,2.4c-3.9,3.3-8.1,6.1-13,7.6c-4.7,1.4-9.4,1.1-13.9-0.5
		c-4.8-1.7-9.1-4.5-13.1-7.6c-0.2-0.2-0.4-0.4-0.6-0.6c4.5-4.2,9.1-8.2,15-10.4c5.9-2.2,11.7-1.8,17.4,0.7c3.8,1.6,7.2,3.8,10.5,6.6
		l-16.6,1.8v0.4L413.6,106.5z"/>
	<path class="st2" d="M477.6,115.3c0,0.1-0.1,0.3-0.1,0.4c-5.6-1.3-11.1-2.7-16.9-4.1c0.2,0.5,0.3,0.7,0.4,0.9
		c2.7,3.6,5.4,7.1,9,9.8c3.9,3.1,8.3,5.1,13.4,5c2.5,0,5-0.3,7.5-0.8c4.1-0.8,8-2.5,11.7-4.3c-2.5-4.1-5.6-7.6-9-10.8
		c-2.1-1.9-4.5-3.5-7.3-4.5c-4.1-1.5-8.2-1.8-12.5-1.1c-4.4,0.8-8.6,2.2-12.9,4.3C466.6,111.9,472.1,113.6,477.6,115.3z"/>
	<path class="st1" d="M484,102.6c0.1,0.1,0.1,0.2,0.2,0.4c5.4-1.9,10.9-3.8,16.3-5.8c0,0.1,0.1,0.2,0.1,0.2
		c-5.3,2.4-10.7,4.7-16.3,7.2c6.1,1.8,11.8,3.4,17.9,2.6c3.2-0.4,6.2-1.3,8.9-3c6.2-4,10-9.9,13.3-16.3c-0.4-0.1-0.6-0.3-0.9-0.4
		c-3.9-1.3-7.9-2.3-12.1-2.8c-4.4-0.5-8.7,0-12.7,1.9C491.7,90,487.7,96.2,484,102.6z"/>
	<path class="st2" d="M408,51.8c-2.3-4.4-4.4-8.5-6.5-12.6c0.1,0,0.2-0.1,0.3-0.1c2.4,3.9,4.9,7.9,7.3,11.8c0.1,0,0.3-0.1,0.4-0.1
		c0.2-3.1,0.5-6.3,0.6-9.4c0.1-1.4-0.1-2.7-0.2-4.1c-0.4-4.3-2.2-8-5.1-11.2c-2.6-2.9-5.9-4.9-9.4-6.6c-2-1-4.2-1.8-6.5-2.7
		c-0.3,2.5-0.7,4.7-0.8,7c-0.1,3-0.3,6,0.1,8.9c0.9,6,4.2,10.6,9.2,14C400.6,48.7,404,50.4,408,51.8z"/>
	<path class="st2" d="M481,63.3c0.1,0.1,0.1,0.2,0.2,0.3c4.1-0.3,8.1-0.9,12-2.4c5.3-1.9,9.3-5.2,11.8-10.4c1.7-3.4,2.5-7,3.2-10.7
		c0.3-1.6,0.4-3.2,0.6-4.9c-0.7,0.1-1.2,0.2-1.7,0.2c-3.8,0.1-7.5,0.8-11,2c-6.1,2-10.6,5.7-13.2,11.7c-1.8,4.2-2.6,8.6-3.1,13.5
		c4.1-3.7,8-7.2,11.9-10.7c0.1,0.1,0.1,0.1,0.2,0.2C488.2,55.8,484.6,59.5,481,63.3z"/>
	<path class="st2" d="M429.8,113.7c-0.2,0.1-0.4,0.1-0.7,0.2c0.1,2.2,0.4,4.4,0.4,6.6c0,4.4-0.1,8.9-0.3,13.3c-0.2,4-0.4,8-0.8,12
		c-0.4,4.1-0.9,8.2-1.7,12.2c-1.1,5.7-2.7,11.4-4.8,16.9c-2.4,6.1-5.7,11.7-10.2,16.5c-1.6,1.7-3.7,3-5.7,4.6c0.4,2,0.9,4.2,1.4,6.7
		c1-0.3,1.8-0.5,2.6-0.9c4.5-2.1,7.7-5.7,10.5-9.6c4-5.6,6.9-11.8,8.6-18.5c1.2-5,2.2-10.1,3-15.2c0.6-4.2,0.9-8.5,1.1-12.7
		c0.2-6.4,0.1-12.9-0.8-19.3c-0.5-3.4-1-6.8-1.6-10.2C430.7,115.5,430.2,114.6,429.8,113.7z"/>
	<path class="st2" d="M446.7,111.5c-0.1,0.2-0.3,0.4-0.4,0.6c-0.4,2-0.9,4-1.1,6.1c-0.7,5.2-1.6,10.5-2,15.8
		c-0.3,3.7,0,7.4,0.2,11.1c0.3,4.2,0.6,8.4,1.4,12.5c0.9,5.1,2.1,10.1,3.3,15.1c1,3.9,2.2,7.7,3.4,11.5c2.3,0.4,4.6,0.9,7.2,1.4
		c-0.1-1.4,0-2.5-0.3-3.6c-1.7-5.7-3.5-11.3-5.2-17c-2.2-7.4-3.7-15-4.7-22.7c-0.8-6.7-1.1-13.5-1-20.3c0-0.4,0.1-0.9,0.2-1.3
		C447.8,117.5,447.7,114.5,446.7,111.5z"/>
	<path class="st2" d="M473.8,150.2c0.3-2,0.7-3.9,0.8-5.8c0.1-2.9,0.2-5.8-0.2-8.6c-0.8-5.2-4.1-8.8-8.4-11.6
		c-2.3-1.5-4.9-2.6-7.3-3.8c-0.1,0.1-0.2,0.2-0.2,0.4c1.5,3,2.9,5.9,4.4,8.9c-0.1,0.1-0.2,0.1-0.3,0.2c-1.7-2.9-3.4-5.7-5.3-8.9
		c-0.7,4.4-1.3,8.3-0.7,12.3c0.6,3.9,2.1,7.2,4.9,9.9C464.8,146.4,469,148.5,473.8,150.2z"/>
	<path class="st1" d="M502.3,78.9c5.5,1.1,10.1,1.8,14.9-1.2c4.4-2.7,6.6-7.1,8.4-11.8c-10.5-4.1-22,1.6-24.2,12
		c2.1-1,6.6-3.2,8.6-4.2c0,0.1,0.1,0.2,0.1,0.3C508.3,75.1,504.5,77.6,502.3,78.9z"/>
	<path class="st1" d="M370.2,41.7c0.7,5.8,1.6,11.3,6.2,15.2c3.7,3.1,8.2,3.7,13.2,4c-1.8-2-3.4-3.6-4.9-5.3c0-0.1,0.1-0.1,0.1-0.2
		c1.7,1.5,3.5,3.1,5.2,4.6c0.1-1.5-0.1-2.7-0.4-4c-0.7-3.2-1.7-6.3-4-8.8C381.6,42.7,376,42.3,370.2,41.7z"/>
	<path class="st2" d="M414.3,3.4c-2.6,5-5,10-3.2,15.8c1.3,4.2,4.5,7,8,9.6c-0.4-2.5-0.8-5-1.2-7.5c0.1,0,0.1,0,0.2,0
		c0.6,2.5,1.2,5,1.9,7.7C427.2,16.8,422.8,9.1,414.3,3.4z"/>
	<path class="st2" d="M480,39.1c1.3-2.3,3.1-4.7,4.3-6.8c0.1,0,0.2,0.1,0.2,0.1c-1.1,2.2-2.7,5.6-3.9,8
		c14.3-5.3,14.2-14.9,11.8-23.5C480.2,21.4,477.4,27.4,480,39.1z"/>
	<path class="st2" d="M431.4,97.4c0.2-2.8,0.9-5.2,2.5-7.3c1.2-1.5,4.5-3,6.4-2.4c3.7,1.1,5.3,4.5,5.4,7.8c0.1,2.1-0.6,4.2-1.8,6
		c-1.3,1.9-3,2.9-5.4,3.5c0.5,0.2,0.7,0.3,0.9,0.4c2.8,0.2,5.2-0.6,7.3-2.5c4.4-3.9,5.6-10.9,3.4-16c-2.3-5.4-7.7-8-13-5.1
		C432.3,84.4,429.8,91,431.4,97.4z"/>
	<path class="st1" d="M400.1,137.7c0-14.5,6-23.6,22.1-24.2c-2.4,2.6-4.3,5.2-6.6,7.8c0.1,0.1,0.1,0.1,0.2,0.2
		c2.5-2.4,5-4.7,7.7-7.3c-0.2,6-1.2,11.6-5.1,16.2C413.6,135.9,406.9,137,400.1,137.7z"/>
</g>
</svg>
