<?xml version="1.0" encoding="utf-8"?>
<!-- Generator: Adobe Illustrator 27.8.0, SVG Export Plug-In . SVG Version: 6.00 Build 0)  -->
<svg version="1.1" id="Layer_1" xmlns="http://www.w3.org/2000/svg" xmlns:xlink="http://www.w3.org/1999/xlink" x="0px" y="0px"
	 viewBox="0 0 600 600" style="enable-background:new 0 0 600 600;" xml:space="preserve">
<style type="text/css">
	.st0{fill:#FFFFFF;}
	.st1{fill:#00F5D4;}
</style>
<g>
	<g>
		<g>
			<path class="st0" d="M155.3,313.9c2.9-2.7,4.4-4.6,6.3-5.7c18.9-11.2,38.1-21.9,56.9-33.4c21.4-13.1,35.7-32.5,45.3-55.3
				c7.6-17.9,14-36.4,21.2-54.5c1-2.4,3.6-5.6,5.7-5.8c2.1-0.2,5.4,2.4,6.7,4.6c11.2,18.6,21.7,37.7,33.1,56.2
				c14.4,23.6,36.4,38.1,61.2,48.4c15.5,6.4,31.6,11.6,47.2,17.7c2.7,1,5.5,3.5,6.7,6c2,4.4-2.5,5.3-5.3,6.9
				c-16.6,9.4-33.3,18.7-49.7,28.4c-27.2,16.2-44.5,40.6-55.8,69.6c-5.7,14.6-10.7,29.5-16.4,44.2c-1,2.5-3.2,5.3-5.6,6.3
				c-4.4,1.9-5.5-2.7-7.1-5.3c-10.3-17.6-20.2-35.4-30.7-52.9c-14.9-24.9-37.3-40.9-63.8-51.4c-16-6.4-32.4-12-48.5-18.2
				C160.5,318.9,158.7,316.7,155.3,313.9z"/>
		</g>
	</g>
	<g>
		<g>
			<path class="st1" d="M35.8,302.3c5.7-4.5,8.6-7.7,12.2-9.5c35.8-17.6,72.1-34.4,107.6-52.7c40.6-20.9,69.1-54.1,89.7-94
				c16.2-31.4,30.3-64,45.9-95.8c2.1-4.3,7.3-9.6,11.2-9.7c3.9,0,9.4,5.1,11.5,9.3c17.7,35.3,34.2,71.2,52.2,106.3
				c22.9,44.7,60.7,74,104.4,96.1c27.2,13.8,55.6,25.3,83.2,38.5c4.7,2.2,9.6,7.1,11.3,11.8c3,8.3-5.2,9.2-10.6,11.7
				c-31.3,14.8-62.8,29.3-93.9,44.7c-51.6,25.6-86.1,67.5-110.6,118.5c-12.4,25.7-23.5,52-35.7,77.8c-2.1,4.4-6.6,9.2-11.1,10.7
				c-8.3,2.8-9.6-5.6-12.1-10.7c-16.2-33.3-31.8-67-48.4-100.1C219,408.2,180.5,376.3,134,353.5c-28.2-13.8-57.1-26.1-85.5-39.5
				C44.5,312.1,41.6,307.8,35.8,302.3z"/>
		</g>
	</g>
</g>
</svg>
