<?xml version="1.0" encoding="UTF-8"?>
<svg id="uuid-0139b025-7d65-4224-bc4e-a6f1e55b5317" data-name="Layer 3" xmlns="http://www.w3.org/2000/svg" viewBox="0 0 600 600">
  <path class="uuid-e166d4e4-071f-4bfb-a2d4-c4d1d595b56b" d="m575.220365,335.576878l-299.701352,196.676586c-11.745649,7.707987-27.515937,4.434815-35.223924-7.310834L13.214092,178.910175c-7.707988-11.74565-4.439916-27.512592,7.305736-35.220578,41.787278-27.422552,97.93956-64.272029,128.065866-84.042172,11.728866-7.696973,27.466843-4.440048,35.187506,7.273237l100.269989,152.123081c7.717088,11.707863,23.453291,14.962743,35.181757,7.277004l128.831227-84.423931c11.741021-7.693967,27.49405-4.424763,35.201688,7.307288,22.361208,34.036737,66.989975,101.972752,99.273806,151.149553,7.710935,11.745791,4.435799,27.514281-7.311302,35.223221Zm-118.128879-8.470163l-23.143362-35.266511c-2.335138-3.558349-7.112752-4.549957-10.671101-2.21482l-35.266511,23.143362c-3.558349,2.335138-4.549957,7.112752-2.21482,10.671101l23.143362,35.266511c2.335138,3.558349,7.112752,4.549957,10.671101,2.21482l35.266511-23.143362c3.558349-2.335138,4.549957-7.112752,2.21482-10.671101Z"/>
</svg>