<?xml version="1.0" encoding="UTF-8"?>
<svg id="Layer_1" data-name="Layer 1" xmlns="http://www.w3.org/2000/svg" viewBox="0 0 200 200">
  <defs>
    <style>
      .cls-1 {
        stroke-width: 0px;
      }
    </style>
  </defs>
  <path class="cls-1" d="m4.427673,7.613622c-.109087-.173853-.078727-.511782.045428-.511151.061173.000308.111573-.029553.111799-.065719.000678-.131389.316564-.195208,1.242524-.250753.254788-.015621.51176-.067024.570146-.115236.058386-.04766.166117-.076057.239871-.063897.074357.013028.177191-.00336.229851-.037407.053188-.032873.141105-.021873.197231.024821.070816.059422.115717.061748.149995.006128.026744-.042942.089198-.05287.13666-.022203.132818.0872.444334.083346.564195-.006771.081966-.061362.09402-.058277.051153.012047-.032169.053162-.019738.092661.02908.092909.047311.00024.102458-.064222.123702-.143975.030059-.112852.082945-.135481.244241-.102446.118354.024112.228119.00566.258781-.043311.038874-.062444.08174-.060747.162727.0078.064488.054821.130407.064229.160165.023091.062228-.085594.531197-.10698.53082-.024404-.000226.034005.090856.030886.20371-.005942.112929-.037075.270307-.059791.35167-.050061.08611.009817.140879-.021873.129955-.075868-.010321-.053684.059516-.09252.167096-.091976.102533.00052.185478.038339.185177.08444-.000301.059678.028703.058899.104341-.003421.06833-.056001.12084-.060241.150372-.011272.025162.041105.098314.055054.161973.030629.064036-.024362.145851.00259.181184.059116.046257.074665.06494.07834.066522.011755.00113-.050909.060721-.093069.131914-.093325.110594-.000673.113607-.011213.018683-.072855-.088596-.057103-.076466-.071485.061249-.072266.094623-.000139.235803-.034417.314982-.076476.078576-.042125.142838-.049637.142612-.016435-.000151.033141.362218.066021.803614.073625.599979.010632.865616.046292,1.048608.142139.170411.088254.354383.117821.601335.095249.19595-.017645.374045-.01526.395893.006573.02132.020908.235276.031618.475448.022592.251699-.008661.457066.019164.485393.065717.026669.04414.089274.055318.136736.024823.027498-.017711.178849-.032011.434315-.042725.932364-.001688,2.243896-.004066,3.863327-.007002,3.657885.020673,8.706029.049202,14.496161.081924,2.772155.021883,5.267297.014034,5.551692-.01736.299387-.033167.596062-.025308.707484.01926.105245.041513.326357.056521.491495.032609.366361-.05295,4.864247-.060342,4.996689-.00783.026594.010535.371409.020197.905469.027123.534361.002802,1.25744.006592,2.041467.010702,3.942129.021779,9.116612.050365,11.850119.065465,1.256386.017535,2.620728.005438,3.025662-.02775.409755-.033473.818304-.033812.916016-.000791.048366.016353.984948.03699,2.454687.057171,1.470266.014161,3.473009.033447,5.653773.054447,4.360849.029176,9.030879.06042,10.372998.069399,3.305235.013949,5.804295.024494,7.496427.031634.432506-.009257.658516-.028894.677501-.058915.024936-.039373.099896-.032079.178397.017751.108635.069241.174479.055134.337809-.07241.159186-.123983.234296-.141376.347226-.079581.10193.055629.173048.054506.243563-.003334.074432-.060785.109313-.057275.13764.013965.028854.072787.053564.075009.102156.00743.067953-.094823.221338-.09164.376305.006474.053414.034276.142763.022384.202354-.02613.057783-.046984.149241-.071268.200922-.052924.052359.018658.194217-.017655.317468-.081276.246576-.127368.832618-.172353.895976-.068966.022074.036588.078727.041995.126189.012984.123326-.075904.349034-.083216.30353-.010806-.02132.03396.03247.062868.118429.063304.085808.000436.141708-.024338.123175-.055167s.144721-.061293.364101-.069253c.308051-.010166.414275.015058.470702.113598.069008.119401.07383.118808.076542-.002637.001582-.071089.027874-.131869.057632-.134991.540916-.052126.983592-.046859,1.01998.012697.024861.040489.077446.072726.11873.072933.041586.000212.054092-.032312.028703-.074345-.02569-.04111-.013184-.074188.028402-.073978.04038.000205.096883.037583.124079.082588.027121.045068.147584.067403.26639.050786.118504-.017174.233844-.002149.255089.032336.021245.034174.067878.045272.102307.024341.034504-.021243.145851-.006175.24635.032291.150673.058899.189923.046756.219756-.066096.037744-.142066.246651-.159645.336754-.027858.027498.038714.182766.082331.345192.095496.345418.02798.407344.066868.257048.159791-.094849.0592-.094321.068829.005123.070569.063509.000937.155419-.038714.206271-.088753.073001-.072271.099971-.057691.132818.069364.028402.110123.080007.146551.163932.117781.066748-.023792.097184-.015799.067125.017191-.083021.090302.087918.259591.262698.260476.119936.00061.133948.019997.064563.089262-.12988.128329-.112101.183531.075713.236017.140578.038975.149467.058339.055674.119641-.093643.062167-.084753.080911.055824.120197.199491.055876.212298.142715.035785.245813-.108484.0624-.113457.087063-.0281.143902.063358.042782.101704.201466.100649.416048-.00113.222358.033977.361212.097485.385605.072775.028079.078802.075445.022601.179152-.041736.076627-.046558.139862-.010999.140041.116997.000593.253884.388249.157754.447131-.064337.039111-.062228.097321.008814.229013.126867.236646.164535.764759.067878.943925-.058461.107832-.05477.157594.012506.190213.072474.033817.071796.052142-.003993.087369-.078275.035771-.078425.06527-.000829.161816.07157.089236.072323.104915.002712.062348-.050249-.030372-.092438-.020341-.092664.022182-.000301.068688.092588.106497.227365.092428.047613-.004572.050551.0126.093945.543519.016499.204117.05266.440859.079555.528386.036237.11405.00663.188084-.106827.267063-.092212.063718-.139674.154755-.114662.220609.025614.066725-.011828.133741-.091534.165863-.126264.051201-.125661.057501.010622.109106.193313.073006.241604.597653.054468.596702-.090404-.000457-.100122.020849-.038045.083251.061776.062708.05477.127163-.027196.251172-.068631.103333-.092287.240041-.06268.360103.030963.126123.017101.193261-.039326.192974-.054468-.000278-.043921.04378.0281.11648.063509.064196.114888.156662.113758.204548-.001205.060288-.020492.057166-.062002-.009634-.049345-.077705-.077069-.075996-.148337.009186-.070289.084626-.056954.11364.068857.146798.108032.028877.137715.071857.094849.139405-.033751.052599-.0672.122601-.073152.152749-.006705.03101-.019889.063466-.030135.07366-.010321.0105-.026443.101699-.035709.203851-.009568.102095-.040983.237832-.069611.302801-.029306.065519-.047537.148309-.041058.185436.0223.131504-.097485.396957-.161823.356577-.078953-.049218-.234899.32122-.175986.417364.023279.038073-.011451.068015-.078049.067676-.072624-.000367-.099369.034184-.067351.086496.03586.058626.012807.07116-.069837.038836-.067953-.026575-.123175-.013584-.123401.028567-.000151.041901-.0391.051949-.086336.022149-.058536-.036463-.071344-.01332-.038874.070962.039778.104751.023505.112195-.098841.045913-.079631-.043794-.146153-.051968-.146303-.020063-.000678.131391-.299312.245908-.440869.169215-.140352-.076311-.399358-.03183-.343835.058866.039778.065312-.524944.057576-.589658-.007491-.028779-.028166-.09854-.005316-.156398.052222-.057256.056366-.154666.084815-.213654.061004-.059892-.02351-.166494-.018618-.237762.011752-.19482.0819-.760898.107053-.760521.034104.000377-.079857-.28658-.052985-.481174.045762-.081891.041802-.306243.071089-.500234.065604-.194067-.005179-.351821.016607-.351972.048823-.000226.032588-.068556.021377-.152632-.024597-.110594-.060175-.179301-.060523-.252528-.000353-.060796.050056-.116922.054275-.142913.011621-.024861-.041105-.150748-.046558-.30338-.012336-.204915.04531-.275279.0323-.326357-.061333-.054092-.097603-.085733-.10233-.180732-.024122-.063283.051521-.208607.083925-.322515.071254-.113833-.012303-.2407-.002703-.281532.021471-.103663.060698-.407419-.065326-.406892-.169003.000301-.056658-.030436-.062798-.091232-.016696-.114662.086811-.741838.106836-.689253.022987.020642-.033346-.095451-.082136-.256822-.108258-.161371-.027046-.294415-.073514-.294264-.103319.000151-.030182-.101177-.061983-.224051-.071678-.122949-.009078-.278443-.071028-.34376-.136472-.097184-.097815-.130558-.101874-.180732-.022267-.047387.075981-.091986.077545-.201374.009535-.014163-.008909-.099896-.01721-.248309-.024913-.074206-.00307-.164083-.006785-.268424-.011107-.258931-.003781-.553949-.008085-.882265-.012878-2.181894-.016211-5.249292-.039001-8.909814-.066197-7.321496-.03425-17.015411-.079598-26.741043-.125091-9.725481-.026113-19.482377-.052312-26.930137-.072309-3.723503-.000089-6.869703-.000165-9.146219-.000217-.569016.001766-1.083715.003367-1.5395.004779-.210415.001224-.407344.002368-.590035.003433-.048065.002109-.092362.004054-.132818.005829-.161823.007906-.261945.016324-.291552.025252-.12551.037937-.391448.057698-.58996.043422-.214483-.014968-.320331-.000141-.260815.036637.076843.048032.06042.08319-.073453.153611-.11421.060274-.182314.065359-.19919.014356-.014841-.044632-.145625-.060971-.317468-.038944-.189697.024649-.334569.002189-.413748-.064493-.107731-.090343-.116169-.083473-.070515.06204.041812.13432.016951.172148-.13877.210551-.228721.055495-.439889-.014634-.371861-.123345.075939-.121687-.210038-.051977-.315358.076415-.079405.096675-.091082.094764-.092362-.018246-.001507-.12745-.220284-.183425-.321687-.082352-.079103.077361-.429342.094844-.381654.018556.05831-.09345-.001657-.086783-.28673.030144-.134325.05573-.424144.092527-.646161.083562-.222092-.009577-.430774.018618-.46475.063005-.043695.055881-.072323.053263-.096958-.009196-.019437-.048357-.088596-.067657-.153762-.0433-.078877.029471-.100725.014855-.06494-.042174.032244-.051676.007684-.086792-.061927-.087145-.063584-.000325-.115566.030149-.115717.066932-.000226.037645-.091609.056808-.204011.043587-.112628-.013532-.243487.008085-.292833.048196-.102533.082677-.268198.009196-.205367-.091699.038045-.060104-.281231-.035187-.539258.042443-.050475.014804-.09191-.007067-.091684-.049284.000226-.041284-.033449-.055033-.074282-.030492-.04023.024484-.073528-.006728-.073227-.068504.000452-.087696-.038045-.099929-.16574-.052684-.184198.068994-.61354.05145-.815894-.032705-.076692-.031434-.204237-.004986-.31129.064088-.11308.07293-.198738.088789-.227139.042235-.025087-.041416-.07624-.056116-.114361-.032484-.038648.023872-.069008.005942-.068782-.039848.000452-.084984-.361012-.062685-.515527.031453-.043469.027182-.096129.001921-.117525-.053979-.025539-.067892-.11647-.091562-.266314-.070345-.124531.01745-.248987.002689-.274677-.033609-.02569-.035432-.166644-.126254-.312948-.201977-.208305-.106841-.261568-.175553-.245823-.315876.015444-.137367-.014465-.179668-.12988-.180252-.11421-.000579-.140879-.035709-.110443-.148248.022074-.081848.010396-.148498-.026066-.148686-.036538-.000184-.032093-.086934.009116-.193987.046709-.120604.049647-.224893.00678-.277568-.03797-.046544-.090102-.232451-.116621-.414336-.026443-.182757-.105546-.45224-.176815-.601769-.108258-.227172-.113005-.292305-.031415-.403045.05364-.072365.083623-.155099.066296-.183209-.017327-.028411-.048441-.243713-.069234-.481306-.02117-.236665-.075035-.474671-.120538-.530077-.053414-.066244-.055297-.101864-.005274-.10161.084075.000426.087541-.678438.003767-.74249-.028176-.021808-.067351-.155805-.085884-.296675-.018909-.140808-.05703-.33294-.084603-.424975-.027648-.092099-.012807-.211938.032621-.266573.07948-.0939.090705-.711934.013335-.71288-.020492-.000104-.04377-.359164-.051455-.797636-.015218-.853244-.059666-1.185503-.178246-1.334411-.04136-.051434-.056578-.203703-.033525-.339793.022978-.136093.011677-.293774-.025087-.351788Z"/>
  <path class="cls-1" d="m13.368526,60.696537c.13538-.07254.386777-.032762.380223.059732-.003164.045569.016725.084669.04377.086637.098314.007138.130633.245747.127093.938409-.000678.190545.025238.384545.058536.430406.032771.045842.048818.127516.036086.181853-.013335.054751-.006102.132159.0168.173029.022074.041218.009492.106187-.028176.14571-.047914.049835-.051831.083181-.011903.111432.030888.022017.035257.069008.01002.102844-.07172.094688-.084075.326979-.02245.420566.041962.064008.039024.07285-.011451.037527-.038271-.026528-.068405-.019154-.070967.017196-.002486.035201.043017.079423.101704.099039.083021.027827.09741.068292.064789.186872-.023806.086957-.015369.169582.019813.194764.044825.031943.04151.063744-.013787.120802-.044147.045437-.054393.094095-.025012.118222.061023.0504.054167.40062-.007609.39642-.025388-.001752-.027724.066277-.005274.151972.022752.085676.032771.203794.021923.263828-.011225.063575.010095.105725.051003.100141.040606-.005151.066597.048554.061475.128496-.004972.076175-.036915.136086-.071419.133788-.044675-.002985-.045353.01858-.002109.07771.038874.053404.039778.092607.001808.112336-.031867.016772-.045579.070543-.030135.119022.015444.048696-.008362.108287-.052283.13198-.057934.03101-.06155.04474-.011752.048931.038045.003155.066974.049374.064036.102288-.00437.082258.00339.08497.053715.017205.046709-.063254.056879-.053592.051379.048837-.004068.070327.015293.176833.043318.237545.028025.060307.030813.108371.005952.106761-.024786-.00162-.065467.266239-.090705.594009-.034579.445455-.073001.641348-.152933.773253-.073604.122911-.103889.258432-.097937.442978.00452.146445-.005274.278773-.02245.294085-.016499.014935-.032771.173283-.035333.351944-.003239.187211-.032093.338515-.068029.35765-.034127.017958-.044901.064017-.023882.100471.012205.02116.017026.134108.015143.324182-.073679,1.464003-.162425,3.226377-.264808,5.258907-.125963,3.045108-.256445,6.490516-.272643,10.284289-.058009,7.589712.33924,16.583931,1.507557,26.701397.151502,1.264673.305037,2.546597.460607,3.845115.082719.677303.165966,1.358937.24974,2.044819.069988.677001.140427,1.358193.211319,2.043482.272718,2.669791.574892,5.371148,1.0245,7.9747.118881.638213.241604,1.271952.382408,1.860603.031867.157858.071042.286608.108258.420603l.08061.297165.033901.098587c.021546.064959.073302.116235.138996.137517.08061.02794.002486.017309.737845.162341,2.350647.392889,5.389041.490666,8.014063.337978,1.464616-.11291,2.910924-.224408,4.32303-.33327,1.434481-.082136,2.834232-.162275,4.182905-.239504,2.691695-.129692,5.165518-.209577,7.298217-.276127,4.238729-.138318,7.164118-.233788,7.767186-.25346,1.253824-.064648,2.490095-.109699,2.957784-.093653.442074.015086,1.361857-.017761,2.048096-.065665.383312-.02375,1.82947-.113344,3.797333-.235266,1.993553-.131575,4.585276-.301308,7.114848-.409585,5.080086-.233081,9.993754-.304821,10.26941-.29707.121141-.002062,1.567902-.026631,3.820536-.064902,2.247135-.046916,5.270838-.121179,8.534939-.267491,2.051938-.088445,4.181247-.209529,6.36171-.34926,2.530701-.169074,4.836599-.017987,6.132687-.333458.308955-.072926.543402-.159525.705601-.233223.140954-.088097.239947-.142424.315132-.226527.198888-.176617.547621-.771897.801504-1.506531.530896-1.504195.784026-3.516592.807757-5.437171.007157-.482878.000603-.966764-.024032-1.437099-.018005-.487916-.060796-.877603-.107505-1.488007-.090856-1.120695-.180581-2.227359-.268876-3.316131-.144947-2.174652-.269629-4.275559-.351821-6.268509-.167699-3.984685-.253206-7.549614-.297127-10.445387-.084377-5.337426-.178924-11.069116-.249288-12.764967-.067803-1.714742-.108183-3.426536-.102458-3.833504-.002863-.106658-.030511-1.129576-.078199-2.898014-.067803-1.763993-.172068-4.265464-.373669-7.300929-.211545-3.026264-.538806-6.612043-1.054409-10.471425-.063057-.446463-.129805-.830019-.203032-1.138399-.037216-.149345-.074056-.285252-.110669-.386109-.04249-.131575-.03247-.074338-.046106-.123589-.044448-.090545-.127695-.165411-.228495-.196298,0,0-.083247-.030069-.235577-.057067-.132441-.027856-.296449-.052896-.485468-.07383-.376833-.043422-.838871-.069084-1.405853-.091986-1.116787-.046558-2.248114-.093728-3.391119-.141388-18.286788-.808407-37.892266-.391109-43.517411-.172916-7.299422.233458-13.704299.574195-19.214632.926591-2.75543.174018-5.286659.358997-7.594741.538872-1.530987.125548-2.91454.239014-4.15051.34037-.320406.03554-.486824.065166-.498878.08884-.015821.031057-.072022.030577-.133571-.00146-.085356-.044533-.13327-.029635-.245823.076438-.10969.103136-.164233.121103-.252226.082418-.079405-.034815-.13214-.029268-.180506.018589-.051078.050325-.07722.050014-.10306-.001328-.026443-.052453-.044901-.052481-.076316.001215-.043921.075308-.15798.083077-.279649.020049-.042038-.022064-.107505-.00727-.148413.032903-.039627.038911-.105772.063094-.145399.052811-.040154-.010472-.142838.026029-.229851.081684-.174178.110547-.605479.184612-.659646.113061-.018909-.025709-.061324-.025633-.094472-.000509-.086034.065656-.252829.087541-.224201.030163.01341-.026905-.028477-.04458-.092212-.038648-.063659.005923-.103362.028496-.087466.050165.015971.021659-.102834.056286-.264883.078199-.227591.030012-.308051.018909-.357019-.050551-.059666-.084113-.063207-.083322-.056502.007543.003917.053188-.01115.100471-.033073.104972-.397098.078284-.72549.106554-.75683.064752-.02132-.028411-.062605-.048658-.093191-.045805-.030888.002872-.037744.028053-.015896.057585.022074.028816.015218.054421-.01567.057284-.029984.002787-.074508-.021-.097937-.052622-.02343-.03166-.114285-.03957-.201148-.018514-.086562.021443-.173198.018618-.19143-.005575-.018307-.023957-.05364-.028854-.077672-.010717-.023957.018363-.107656.015218-.184951-.006178-.116018-.032997-.144194-.021075-.15798.065317-.017478.108776-.170938.137103-.24748.045296-.023279-.026886-.141632-.04814-.262924-.046153-.258178.004257-.306996-.020256-.20258-.100536.065995-.051088.064789-.058235-.00904-.052293-.047161.003927-.112327.040201-.146228.081241-.048743.059252-.069837.050334-.103738-.042094-.029306-.080111-.070364-.103531-.130407-.075958-.047688.02261-.070816.018862-.051078-.007939.054845-.073434-.084753-.187315-.214483-.175242-.088972.008278-.100875-.00517-.054619-.061908.086637-.105217.06931-.145117-.07398-.170599-.107279-.018844-.115415-.03264-.050475-.085215.064865-.053216.056804-.06655-.050475-.08562-.15233-.027159-.168528-.091016-.045277-.180807.075864-.054478.077672-.073236.01002-.109426-.050325-.027309-.090856-.142913-.106375-.303107-.016047-.165994-.052736-.267039-.101704-.280609-.056276-.015632-.064413-.050541-.030436-.132027.025162-.060213.023957-.10775-.002486-.105283-.087014.008089-.2184-.271155-.151426-.32211.044901-.033883.038949-.077163-.023957-.170232-.112477-.167303-.180958-.558573-.122572-.699329.035333-.084735.028779-.121593-.023806-.141002-.056653-.019936-.057482-.033657-.003691-.065486.055598-.032413.053489-.05444-.011752-.120793-.060118-.061343-.061927-.072982-.00678-.046322.039778.018985.07044.008409.067426-.023326-.004972-.051276-.077145-.07269-.176589-.052331-.035182.006903-.038648-.005697-.111649-.398643-.02795-.151087-.073001-.325067-.099896-.388397-.035785-.082437-.019286-.139843.059365-.20709.064036-.054299.092513-.125708.068782-.173001-.024183-.047914-.001356-.100659.055749-.130473.090479-.047462.089575-.052114-.016197-.080629-.15007-.040286-.226386-.428184-.086336-.441208.067652-.0063.073302-.022912.022149-.064912-.051003-.042254-.050701-.090856.00113-.189396.043469-.082145.050777-.185883.019437-.273292-.032771-.091826-.027573-.142941.014691-.146868.040832-.003804.029607-.035898-.029833-.084848-.052509-.043234-.098013-.108447-.100875-.14425-.003691-.045079.010999-.044166.047236.002627.042866.054346.063509.051031.110368-.017761.046257-.068311.034052-.088982-.062755-.104473-.083171-.013598-.108635-.043488-.081665-.097043.021245-.041718.040983-.096412.043092-.119342.002712-.023637.010095-.048818.017026-.05718.006931-.008588.012054-.077823.011225-.154732-.000603-.076871.012581-.180468.029155-.231047.016951-.05104.024334-.114163.016649-.141388-.026744-.096478.042942-.30337.094321-.277973.062981.030907.151954-.256991.100499-.324389-.020416-.026697.00339-.051596.053414-.056257.054619-.005076.072097-.032828.044072-.069498-.031415-.041105-.015067-.052152.049496-.034127.053037.014822.093568.001055.090479-.030408-.002938-.031288.025539-.041656.063207-.022898.046709.022888.054619.004685.023882-.05582-.037819-.075228-.026142-.081985.070741-.041543.063132.026806.113758.028002.111498.004176-.009417-.098093.206422-.20557.318522-.158776.111121.0466.302476-.005693.253959-.069281-.03473-.045814.390243-.081684.443732-.037894.023656.018905.074357-.003296.113607-.050504.038874-.04629.110067-.074715.156097-.061286.046709.013127.12649.001615.177869-.026311.140352-.075497.564044-.13602.569091-.081538.0055.059643.219229.01842.358375-.069644.058536-.03724.22503-.075652.371333-.085865.146228-.010444.263225-.038342.261041-.062407-.002185-.024338.050023-.021009.116545.00711.08739.036774.139071.031966.189848-.018359.042113-.041854.084075-.049148.106601-.019211.021546.028854.116621.023642.228947-.013165.150824-.048936.204689-.04442.249665.021735.047462.06889.07157.070086.137489.004685.043996-.04305.150974-.078402.237536-.076184.086562.001554.181335-.014126.210339-.034909.073754-.052279.311064.021466.317844.098936.003691.04233.027196.044858.069762.006352.080233-.072516.550709-.129522.516883-.063367-.013259.026288.077446.054949.200621.06364.123175.009389.226386.035182.228269.057458.001959.022549.080309.039514.173424.03852.09304-.00145.214181.0344.26767.078905.079631.066564.105019.067355.137414.00453.030511-.05993.063885-.064083.150748-.020609.017177.008683.159035.005203.402071-.008329,2.015325-.155424,4.451479-.343303,7.259494-.559867,3.922391-.279117,8.366789-.560861,13.266218-.802347,9.797955-.485991,21.416791-.835053,34.296684-.749833,6.439532.038902,13.193744.180195,20.189787.452499.87443.036147,1.752702.07246,2.634666.108922.898839.043728,1.696501.051422,2.823459.14701.553045.051488,1.156264.126862,1.823066.279282.312571.072568.728127.184169,1.123944.32825.392653.141797.778225.30564,1.144888.50531,1.484655.773451,2.672635,2.064213,3.384866,3.593195.383839.81967.561181,1.438822.717504,2.055639.147885.607334.242885,1.165172.319878,1.674955.119333.93387.239042,1.870999.359204,2.811264.247405,1.85758.401317,3.726517.580618,5.60568,1.046046,12.202364.80949,24.738242,1.227532,37.194085.092362,3.118909.269704,6.221989.474996,9.32535l.191581,2.318846.095753,1.160115c.034127.435049.076617.915856.092664,1.362101.084979,1.815561.020115,3.596637-.210415,5.4317-.246049,1.832333-.630792,3.712363-1.534754,5.71909-.474544,1.002869-1.088385,2.050394-2.034084,3.047547-.976209,1.025479-2.232896,1.777055-3.405207,2.209278-2.382138.85795-4.346686.825725-5.995047.878536-.826591.013561-1.584325.017196-2.248491.050701l-2.33445.14135c-6.400282.396496-12.798831.514133-18.992917.646274-3.100697.071306-6.16139.164629-9.196921.309087-3.068302.17495-6.115359.348676-9.136501.520933-6.151898.316112-12.130521.393105-17.880574.612221-2.876119.108202-5.697393.25023-8.462315.456068-.690157.055542-1.377903.110914-2.063163.166079l-1.126732.089443-1.17796.056841c-1.530912.047462-3.004492.029588-4.497962-.048422-1.49814-.087089-2.984227-.217496-4.619404-.537318-.23618-.051135-.339617-.058518-.683829-.147113-.29901-.075242-.596665-.157943-.890627-.247311-.293586-.080779-.584234-.222713-.875937-.330878-.295921-.108842-.584083-.229588-.838871-.403427-.519746-.319464-1.078592-.623654-1.458589-1.105656-.413371-.455296-.730688-.978093-1.060059-1.490494-.279724-.545191-.479516-1.143174-.712683-1.71509-.189998-.630792-.254637-.896146-.368169-1.312417-.172596-.733739-.330576-1.455971-.454505-2.145403-.253281-1.386426-.457141-2.726246-.624087-4.035547-.17026-1.310364-.319426-2.599116-.451717-3.860003-.129428-1.21157-.257349-2.409626-.383839-3.593623-.313249-2.45108-.605253-4.847466-.856651-7.189327-1.019076-9.365571-1.389957-17.837303-1.365623-24.951765.018683-3.55652.091006-6.778753.208155-9.622628.06268-1.42077.121367-2.750439.175835-3.984384.058612-1.094996.112703-2.105041.162049-3.026038.00226-.17882.000301-.28867-.006554-.316799-.02343-.096402-.027724-.298172-.009191-.447574.019738-.161493.012807-.242112-.017101-.198681-.039024.056126-.064639.042235-.112101-.061879-.040606-.088869-.041736-.140578-.002863-.151219.034052-.009332.051153-.10759.042716-.237997-.009944-.144053.01341-.25233.066899-.309209.072474-.077361.067727-.08401-.043318-.055834-.102458.025812-.129654.005443-.151426-.113645-.031265-.174875.030813-.331151.109087-.275119.087692.062548.048366-.156135-.043017-.241105-.068782-.064111-.066823-.072869.017855-.068905.095451.004445.147207-.158075.07609-.238986-.054318-.063028-.051681-.327968.003315-.288595.067351.048093.065015.002609-.009643-.21759-.035709-.103785-.050174-.324031-.033449-.491071.017101-.167049.005424-.325726-.026292-.353384-.039853-.035493-.036614-.056964.0113-.072728.037066-.012402.054619-.063716.039326-.113993-.018533-.060815-.00663-.076655.034504-.04701.037216.026688.064563.009765.068029-.042716.003089-.047923-.017403-.088539-.044901-.090375-.028176-.001874-.038422-.071683-.023505-.155824.015218-.08432.004972-.184037-.022827-.223118-.057256-.081213.005198-.20273.077898-.150607.043017.031378.038949-.210443-.006027-.408088-.008588-.038648.009869-.068792.041435-.066626.030888.002109.042791-.022592.026443-.054449-.016348-.031434.008664-.054996.05492-.051841.065618.004492.076617-.023891.047537-.122186-.042565-.141849-.008287-.464044.064639-.612231.027347-.056173.013787-.153413-.032621-.237291-.049044-.088577-.056653-.153818-.020416-.172925.032244-.016875.045729-.054638.029909-.084433-.015971-.030266-.001055-.052218.033223-.049816.063584.004445.064714-.268537.001808-.389348-.018156-.034071.003315-.072436.046181-.08578.052057-.015915.074282-.083134.065769-.196892-.006931-.094566.010246-.187418.038648-.20499.027799-.017563.102684-.119088.166569-.22536.090178-.15136.144269-.187993.24846-.169149.102081.018448.135229-.001921.141331-.088643.006027-.085846.0336-.104143.116319-.075638.060194.020689.110669.015227.112553-.012176.001959-.027404.066673-.019757.144721.016555.087993.041134.165891.048535.207401.019013.036689-.026245.178397-.05605.31581-.06688.138016-.010735.343609-.056615.45895-.102589.175308-.069809.224277-.070101.303154-.003334.05153.043912.11195.070553.133873.05897.022074-.011574.184725-.024155.363574-.02779.178095-.003965.358827-.032404.402523-.063716.052208-.036651.078953-.036293.076316.001196-.004445.062962.503398.099642.55538.040183.017704-.020039.119936-.042584.226235-.049364.1063-.007063.251925-.025935.322139-.041906.070289-.016018.159261.001111.197909.037866.066371.064187.528259.103691.532779.045889.001055-.015312.27091-.014568.599377.001799.63923.03167.890025.015293,1.007248-.065656.040456-.028242.155193-.031877.255843-.007807.100725.024023.219304.023618.264506-.000876Z"/>
  <path class="cls-1" d="m122.979566,59.238005c-.082493-.129974-.061023-.383528.032169-.383528.045805,0,.083548-.022592.083548-.049713,0-.098549.236707-.147612.931008-.192786.190978-.012685.383462-.052218.427082-.088596.04362-.035964.12438-.05767.179677-.048827.055824.009483.132893-.003202.172294-.028929.039702-.024861.105697-.016941.147961.017864.053338.044298.087014.04587.112553.004021.019889-.0323.066673-.039985.102382-.017167.099971.064893.33359.060815.423089-.007223.061249-.046332.070364-.044062.038422.008843-.023882.039994-.014389.069564.022224.069564.035408,0,.076542-.048554.092136-.108447.022149-.084753.061701-.101921.182842-.077757.088822.017629.171089.003371.193916-.033468.028929-.046982.061023-.04587.122045.005226.048592.04087.098088.047679.120237.016715.046332-.064431.398002-.082258.398002-.020322,0,.025501.068255.022818.152782-.005226.084527-.028242.202504-.04587.263602-.038883.064563.007035.105471-.016941.097109-.057397-.00791-.04022.044298-.06962.124983-.06962.076918,0,.139222.028053.139222.062633,0,.044759.021697.044062.078199-.002966.051078-.042254.090404-.045635.112779-.009022.018985.030728.073905.040917.121593.022356.047914-.018514.109388.001384.136133.043648.034956.055824.048969.058508.049873.00856.000678-.038186.045202-.070035.098615-.070496.082945-.000923.08513-.008843.013711-.054713-.066673-.04249-.057632-.053319.045654-.054431.070967-.000461.176739-.026707.235954-.058555.058762-.031886.106902-.037762.106902-.012864,0,.024861.271889.04814.602993.052161.449984.005697.649325.031434.786964.102618.128147.065543.266239.087023.451341.069159.146906-.013984.280478-.012873.296976.003428.016047.015595.176513.022818.356643.015133.188793-.007458.342931.012638.364327.047443.020115.032997.067125.041143.102608.0181-.737167-.053555,3.529512-.073688,8.766072-.047264,1.267385.005886,2.408054-.009483,2.538009-.034109.136811-.026019.272492-.021245.323495.011752.048215.030737.149392.041153.224804.022592.167398-.041105,2.22363-.063735,2.284276-.024861.024409.015604.630566.02375,1.347392.017177,1.801972-.016018,4.168591-.01421,5.417744.004068.574365.008381,1.198075-.005876,1.383102-.0323.187286-.02666.374045-.028468.418795-.004078.022149.012082.450361.024004,1.122362.033553.672754.005038,1.588092.011894,2.584868.019352,1.993703.005311,4.128813.010999,4.742428.012638,1.527672-.0021,2.682052-.003682,3.464572-.004756.324399-.008588.49383-.024174.507994-.046765.018457-.029617.074734-.024437.133797.012638.08174.051521.131085.040691.253055-.055589.118956-.093587.175233-.106921.260137-.061004.076692.041331.129955.04022.182691-.003428.055598-.04587.08174-.043366.103211.009954.021998.054478.040456.05605.076692.005179.050551-.071372.165665-.069564.28221.003428.04023.025501.107204.016244.151728-.020369.043092-.035455.111649-.054016.150447-.040446.039326.013787.145625-.013984.237762-.062171.184499-.096459.623861-.132423.671775-.055127.016649.027357.059139.031199.094698.009266.092212-.057397.261417-.063744.227591-.009266-.015821.025558.024635.047029.089048.047029.064337,0,.106224-.018787.092212-.04184-.014088-.023053.108258-.04652.272718-.053319.231057-.008796.310763.009718.353479.083407.052283.089283.055824.088822.057406-.00227.000979-.053319.020416-.099011.042716-.101459.405536-.041153.737544-.038883.765041.00565.018834.030266.05831.054242.089274.054242.031265,0,.040456-.024437.021245-.055862-.019437-.030737-.01017-.055598.021019-.055598.030361,0,.07285.027818.093417.061475.020492.033694.110895.049986.199943.037075.088822-.013335.175383-.002505.191505.023279.016047.025548.051003.033694.076768.017864.02584-.016056.109388-.005179.184876.023288.113231.043601.142612.034344.16461-.050409.027724-.106686.184348-.12067.252452-.022168.020718.028929.137414.061051.259233.070308.259157.019672.305791.048601.193389.118862-.070967.044759-.07044.051982.004068.052905.047688.000461.11647-.029617.154364-.067341.054544-.054487.074809-.043648.099896.051511.021697.082484.060646.109605.123401.08772.049948-.0181.07285-.012223.0504.012628-.061927.068048.066974.194359.198059.194359.089952,0,.100499.014493.048743.066701-.096883.096741-.083397.138073.057632.17672.105622.028703.112327.043187.042264.089519-.069988.046982-.063283.061013.042339.089942.149844.041143.159789.106224.027724.184216-.081137.047217-.084753.065731-.020492.108032.047613.031848.077069.150711.077069.311648,0,.166776.026895.270778.074508.28883.05477.020783.05944.056286.017704.134278-.031039.057623-.034353.105075-.007684.105075.087692,0,.191807.290215.120011.334739-.04814.029579-.046332.073227.007458.171729.095979.176994.126264.572934.054468.707673-.043469.0811-.040456.118401.010095.142612.054468.025087.054016.038836-.002637.065543-.058612.027121-.058612.049251,0,.121358.054016.066654.054619.078416.00226.046756-.037819-.022592-.069385-.014907-.069385.016988,0,.051511.069762.079518.170863.068453.035634-.003607.037894.009257.072474.407278.013184.153027.041134.330444.061701.395987.027573.085394.00565.14103-.079103.200696-.068933.04814-.10419.116593-.08513.165891.019437.049948-.008362.100348-.068029.124748-.094472.038874-.09402.043601.008362.081787.145249.054016.183444.44731.043092.44731-.067803,0-.07496.016018-.028176.062586.046558.046793.04151.095159-.019437.188473-.051153.077766-.06833.180384-.045654.270317.023656.094472.013561.144881-.028779.144881-.040832,0-.032771.032997.021471.087249.047914.047905.086788.117054.086185.152971-.000678.04523-.015218.042961-.046558-.006987-.037367-.058084-.058084-.0567-.111272.007458-.052359.063735-.042264.085441.052208.109831.081137.021245.103588.053376.071645.10419-.025087.03958-.049948.092212-.054242.114841-.004897.023279-.014615.047679-.0223.055363-.007684.00791-.019437.076372-.026066.153018-.006705.076608-.029758.178529-.051003.227365-.021772.049251-.035107.111413-.030135.139231.017252.09854-.07157.298087-.119936.268047-.05944-.036614-.175007.241802-.130483.313682.017629.028468-.008287.05105-.058235.05105-.054468,0-.074432.026019-.050174.065128.027121.043836.009869.053319-.052208.029391-.051153-.019672-.092438-.009718-.092438.021895,0,.031434-.029155.039109-.064714.016941-.043996-.027121-.053489-.009718-.028929.053366.030285.078416.018156.084057-.073905.034815-.059892-.032545-.109841-.038422-.109841-.014493,0,.098549-.223523.185563-.329974.12859-.105546-.056709-.299613-.022366-.257651.045447.030059.048837-.393482.045174-.4423-.003381-.021622-.021009-.07383-.003607-.117073.039768-.042716.04249-.115717.064196-.160015.046558-.044976-.017403-.124908-.013325-.178246.009718-.145851.062171-.570297.083181-.570297.028468,0-.059892-.215086-.038648-.360711.036152-.061173.03166-.229399.054478-.374874.051097-.145625-.003145-.263828.013796-.263828.03796,0,.024437-.051229.016292-.114511-.017864-.083171-.044712-.134702-.044712-.189396.000687-.045428.037772-.087541.041153-.107128.009257-.018834-.030728-.113306-.034344-.227591-.008099-.153536.034768-.206346.025275-.244994-.044759-.040908-.072992-.064714-.076419-.135606-.017403-.047311.038883-.156172.063735-.241679.054666-.085432-.008796-.180506-.001111-.211017.017177-.077521.045908-.305866-.047453-.305866-.125209,0-.04249-.023053-.046982-.068405-.012176-.085733.065543-.555983.082945-.516883.019861.015369-.025087-.071871-.061239-.193012-.080214-.121141-.019672-.221112-.054016-.221112-.076372,0-.022639-.07609-.046106-.168302-.052905-.092212-.006347-.209134-.052218-.258329-.101045-.073227-.072992-.098314-.075911-.135606-.016018-.035333.057162-.068707.058508-.15105.00792-.010698-.00663-.07496-.012525-.186307-.017742-.157076-.003239-.379922-.007844-.659495-.013617-.997831-.00387-2.400068-.009304-4.073516-.015792-3.347273.002128-7.779014.004953-12.225521.007778-4.445979.017365-8.906499.034787-12.311931.048093-1.701925.014078-3.140173.025972-4.181398.034589-1.226402.012393-1.204253.025548-1.296239.039175-.09402.028929-.29336.044759-.442225.034805-.160994-.010415-.240323.001111-.195573.028468.057858.035728.045654.062162-.054468.115481-.085432.045635-.13651.049713-.149392.011526-.011225-.033421-.109388-.045174-.238214-.028006-.14216.019211-.25087.002919-.310537-.046793-.081137-.067351-.08739-.062162-.05266.046793.031867.100584.01341.129051-.103286.158442-.171315.04249-.329974-.009304-.279347-.091091.056578-.091553-.157754-.038186-.23618.058508-.059214.072803-.067953.071419-.069385-.013335-.001582-.095583-.165891-.136726-.241529-.060542-.059064.05832-.321687.072766-.286203.015369.043394-.070308-.001582-.065081-.214935.023693-.100499.042311-.317769.071005-.484263.065128-.166644-.006338-.323043.015604-.348356.049016-.032545.042075-.054016.04023-.072775-.006526-.014691-.03619-.066673-.0504-.115491-.031886-.058988.022403-.075487.011526-.048818-.031387.023957-.038883.005424-.065128-.046784-.065128-.047688,0-.086562.023053-.086562.050645,0,.028232-.068481.042951-.152782.033459-.084527-.009718-.182616.006997-.219455.037263-.076617.062397-.201073.00792-.154364-.067991.028326-.045221-.211093-.025322-.404331.033883-.037744.011291-.068933-.004953-.068933-.036614,0-.030973-.025313-.041153-.055749-.022592-.030135.018514-.055222-.004765-.055222-.051097,0-.065778-.028929-.0748-.124531-.038883-.137866.052444-.459929.040917-.612033-.021433-.057632-.023279-.153159-.002957-.233242.049251-.084527.055127-.148714.067351-.170185.032536-.018985-.030963-.057406-.041793-.085884-.023929-.028929.018052-.051756.004727-.051756-.029626,0-.063735-.270985-.045635-.386476.025558-.032545.020548-.072097.001799-.08837-.040041-.019437-.050824-.087692-.068227-.199943-.051747-.093417.013561-.186759.002957-.206196-.024164-.019361-.026471-.125435-.094058-.235426-.150296-.1567-.079329-.196854-.130662-.185629-.235963.011074-.103079-.011526-.134692-.098013-.134692-.085733,0-.105848-.026245-.083473-.110773.016273-.061465.007232-.111404-.020115-.111404s-.024409-.065081.006102-.145531c.034579-.09063.036387-.168848.004068-.208192-.028703-.034768-.068405-.173999-.089048-.310311-.020567-.136962-.080911-.338769-.134928-.450644-.082041-.169968-.085884-.218796-.025087-.302165.040004-.054478.062153-.11664.049044-.137658-.013033-.021245-.037292-.182597-.053715-.360711-.0168-.177417-.05816-.35571-.092438-.397089-.040305-.049487-.041887-.076193-.00437-.076193.063057,0,.063057-.509152,0-.556868-.021245-.016254-.051078-.116602-.065543-.222177-.014691-.105537-.043996-.249486-.065015-.318409-.021094-.068971-.010472-.158903.02343-.200046.05929-.070731.065317-.534295.007308-.53471-.015369,0-.034203-.269205-.041661-.598021-.014691-.63987-.04927-.888895-.13877-1.000119-.031189-.038422-.043168-.152556-.026443-.254712s.007684-.220378-.020115-.263743Z"/>
  <path class="cls-1" d="m125.13125,88.450299c-.082493-.129974-.061023-.383528.032169-.383528.045805,0,.083548-.022592.083548-.049713,0-.098549.236707-.147612.931008-.192786.190978-.012685.383462-.052208.427082-.088596.04362-.035964.12438-.05767.179677-.048827.055824.009483.132893-.003192.172294-.028929.039702-.024861.105697-.016941.147961.017864.053338.044298.087014.04587.112553.00403.019889-.03231.066673-.039994.102382-.017177.099971.064893.33359.060825.423089-.007223.061249-.046332.070364-.044062.038422.008843-.023882.039994-.014389.069573.022149.069573.035483,0,.076617-.048554.092212-.108456.022149-.084744.061701-.101921.182842-.077757.088822.017629.171089.003381.193916-.033468.028929-.046982.061023-.04587.122045.005236.048592.04087.098088.047669.120237.016706.046332-.064431.398002-.082249.398002-.020322,0,.025501.068255.022818.152782-.005226.084527-.028242.202504-.04587.263602-.038883.064563.007035.105471-.016941.097109-.057397-.00791-.04022.044298-.069611.124983-.069611.076918,0,.139222.028044.139222.062623,0,.044759.021697.044062.078199-.002966.051078-.042254.090404-.045635.112779-.009022.018985.030737.073905.040917.121593.022356.047914-.018514.109388.001384.136133.043648.034956.055824.048969.058508.049873.00856.000678-.038186.045202-.070025.098615-.070496.082945-.000923.08513-.008833.013711-.054704-.066673-.042499-.057632-.053329.045654-.05444.070967-.000461.176739-.026707.235954-.058546.058762-.031896.106902-.037772.106902-.012873,0,.024861.271889.04814.602993.05217.449984.005688.649325.031425.786964.102618.128147.065543.266239.087014.451341.069149.146906-.013975.280478-.012864.296976.003428.016047.015595.176513.022818.356643.015133.188793-.007449.342931.012638.364327.047443.020115.033007.067125.041153.102608.0181-.727147-.053555,3.506534-.073688,8.704823-.047264,1.258043.005886,2.39035-.009483,2.519326-.034109.135832-.02601.270458-.021245.321159.011752.047839.030737.148262.041153.223147.022592.166117-.041105,2.207207-.063735,2.267476-.024852.024183.015595.625895.02374,1.337448.017167,1.788713-.016018,4.137853-.01421,5.377816.004078.570221.008372,1.189336-.005886,1.373006-.03231.185855-.02666.371258-.028468.415706-.004078.021923.012082.447046.024004,1.114075.033553.667857.005038,1.576415.011894,2.565883.019352,1.979013.005311,4.098377.011009,4.707472.012638,1.516748-.002091,2.662841-.003682,3.439786-.004756.324399-.008588.49383-.024174.507918-.046756.018533-.029626.074809-.024447.133873.012628.08174.051521.131085.040691.253055-.055589.118956-.093587.175233-.106921.260137-.061004.076692.041331.129955.04022.182691-.003428.055523-.04587.08174-.043366.103211.009954.021998.054478.040456.05605.076692.005189.050551-.071381.165665-.069573.28221.003418.04023.025511.107204.016254.151728-.02036.043092-.035455.111649-.054016.150447-.040456.039326.013787.14555-.013984.237762-.062162.184499-.096468.623861-.132432.671775-.055127.016649.027357.059139.031189.094698.009257.092136-.057397.261417-.063744.227591-.009257-.015896.025548.02456.047019.089048.047019.064337,0,.106224-.018787.092212-.04184-.014088-.023053.108258-.04652.272718-.053319.231057-.008796.310763.009718.353479.083407.052208.089283.055824.088822.057406-.00227.000979-.053319.020416-.099001.042716-.101459.405536-.041153.737544-.038883.765041.00565.018834.030266.05831.054242.089274.054242.031189,0,.040456-.024437.021245-.055862-.019437-.030737-.01017-.055589.021019-.055589.030361,0,.07285.027818.093417.061465.020492.033694.110895.049986.199943.037075.088822-.013335.175383-.002496.191505.023279.016047.025558.051003.033704.076768.017874.02584-.016065.109388-.005189.184876.023279.113231.043601.142612.034344.16461-.050409.027724-.106686.184348-.12067.252377-.022168.020793.028929.137489.061051.259308.070308.259157.019672.305715.048601.193389.118862-.070967.044759-.07044.051982.004068.052905.047688.000471.11647-.029617.154364-.067341.054544-.054478.074809-.043648.099896.051511.021697.082484.060646.109615.123401.08772.049948-.0181.07285-.012223.0504.012638-.061927.068038.066974.194349.198059.194349.089952,0,.100499.014493.048743.066701-.096883.096741-.083397.138073.057632.17673.105622.028694.112327.043177.042264.089519-.069988.046972-.063283.061004.042339.089933.149844.041143.159789.106224.027724.184216-.081137.047217-.084753.065731-.020492.108032.047613.031848.077069.150711.077069.311648,0,.166776.026895.270778.074508.28883.05477.020783.05944.056286.017629.134278-.030963.057632-.034278.105075-.007684.105075.087767,0,.191882.290215.120086.334739-.04814.029579-.046332.073227.007458.171729.095979.177003.126264.572934.054468.707673-.043469.0811-.040456.118401.010095.142612.054468.025087.054016.038836-.002637.065543-.058612.027121-.058612.049251,0,.121367.054016.066654.054619.078406.00226.046746-.037819-.022592-.069385-.014907-.069385.016988,0,.051511.069762.079518.170788.068453.035709-.003607.03797.009257.072549.407278.013184.153027.041134.330444.061701.395987.027573.085394.00565.14103-.079103.200696-.068933.04814-.10419.116602-.08513.165891.019437.049948-.008362.100348-.068029.124748-.094472.038874-.09402.043601.008362.081787.145249.054016.183444.44731.043092.44731-.067803,0-.075035.016018-.028176.062586.046558.046793.04151.095159-.019437.188473-.051153.077766-.06833.180384-.045654.270317.023656.094472.013561.144881-.028779.144881-.040832,0-.032771.032997.021471.087249.047914.047905.086788.117054.086185.15298-.000753.045221-.015218.042951-.046558-.006997-.037367-.058084-.058084-.0567-.111272.007458-.052359.063735-.042264.085441.052208.109841.081137.021245.103588.053366.071645.10419-.025087.03957-.049948.092202-.054242.114832-.004897.023288-.014691.047679-.022375.055363-.007609.00791-.019437.076372-.025991.153018-.00678.076608-.029758.178529-.051003.227365-.021772.049251-.035107.111413-.030135.139231.017252.09854-.07157.298087-.119936.268047-.05944-.036614-.175007.241802-.130483.313682.017629.028468-.008287.051059-.058235.051059-.054468,0-.074432.02601-.050174.065119.027121.043836.009869.053329-.052208.029391-.051153-.019672-.092438-.009718-.092438.021895,0,.031434-.029155.039118-.064714.016941-.044072-.027121-.053489-.009718-.028929.053366.030285.078416.018156.084057-.073905.034815-.059892-.032545-.109841-.038422-.109841-.014493,0,.098549-.223523.185563-.329974.12859-.105546-.0567-.299613-.022356-.257651.045447.030059.048837-.393482.045183-.4423-.003371-.021622-.021019-.07383-.003616-.117073.039759-.042716.04249-.115717.064196-.160015.046558-.044976-.017403-.124908-.013325-.178246.009728-.145851.062162-.570297.083171-.570297.028458,0-.059892-.215086-.038648-.360711.036152-.061249.03166-.229399.054478-.374874.051106-.145625-.003155-.263828.013787-.263828.037951,0,.024437-.051304.016292-.114511-.017864-.083247-.044712-.134702-.044712-.189471.000697-.045353.037762-.087466.041143-.107053.009257-.018834-.030737-.113306-.034344-.227591-.008108-.153536.034768-.206346.025275-.244994-.044759-.040908-.072992-.064714-.076419-.135606-.017403-.047311.038883-.156172.063744-.241679.054666-.085432-.008796-.180506-.001111-.211017.017177-.077521.045918-.305866-.047443-.305866-.125209,0-.04249-.023053-.046982-.068405-.012176-.085733.065543-.556058.082945-.516883.019861.015369-.025087-.071946-.061239-.193012-.080214-.121141-.019672-.221112-.054016-.221112-.076372,0-.022639-.07609-.046106-.168302-.052905-.092212-.006347-.209134-.052218-.258329-.101045-.073227-.072992-.098314-.075911-.135681-.016018-.035257.057171-.068631.058508-.150974.00792-.010698-.00663-.075035-.012525-.186307-.017742-.156474-.003239-.378566-.007844-.65716-.013617-.990448-.00387-2.382364-.009304-4.043532-.015792-3.322638.002128-7.721758.004953-12.135569.007778-4.413283.017365-8.840881.034796-12.221226.048093-1.689495.014078-3.11712.025972-4.150661.034589-1.216457.012393-1.197774.025548-1.289157.039175-.09402.028929-.29336.044759-.442225.034805-.160994-.010415-.240323.001111-.195573.028468.057858.035728.045654.062162-.054468.115481-.085432.045644-.13651.049713-.149392.011526-.011225-.033421-.109388-.045174-.238214-.028006-.14216.019211-.25087.002919-.310537-.046793-.081137-.067351-.08739-.062162-.05266.046793.031867.100584.01341.129051-.103286.158442-.171315.04249-.329974-.009304-.279347-.091091.056502-.091553-.157754-.038186-.23618.058508-.059214.072803-.068029.071419-.069385-.013335-.001582-.095583-.165891-.136726-.241604-.060542-.058988.05832-.321611.072766-.286128.015369.043394-.070308-.001582-.065081-.214935.023703-.100499.042301-.317769.070995-.484263.065119-.166644-.006338-.323043.015604-.348356.049016-.032545.042075-.054016.04023-.072775-.006526-.014691-.03619-.066673-.0504-.115491-.031886-.058988.022403-.075487.011526-.048818-.031387.023957-.038874.005424-.065119-.046784-.065119-.047688,0-.086562.023044-.086562.050635,0,.028232-.068481.042951-.152782.033468-.084527-.009728-.182616.006987-.219455.037254-.076617.062397-.201073.00792-.154364-.067991.028251-.045221-.211093-.025322-.404331.033883-.037744.011291-.068933-.004953-.068933-.036614,0-.030963-.025313-.041153-.055749-.022592-.030135.018514-.055222-.004765-.055222-.051097,0-.065778-.028929-.0748-.124531-.038883-.137866.052444-.459929.040917-.612033-.021433-.057632-.023279-.153159-.002957-.233242.049251-.084527.055127-.148714.067351-.170185.032545-.018985-.030973-.057406-.041802-.085884-.023938-.028929.018052-.051756.004727-.051756-.029617,0-.063744-.270985-.045644-.386476.025548-.032545.020548-.072097.001808-.08837-.040041-.019437-.050824-.087692-.068227-.199943-.051747-.093417.013561-.186759.002966-.206196-.024164-.019361-.026471-.125435-.094048-.235426-.150287-.1567-.079339-.196929-.130671-.185629-.235973.011074-.103079-.011526-.134692-.098088-.134692-.085658,0-.105772-.026245-.083397-.110763.016273-.061475.007232-.111413-.020115-.111413s-.024409-.065081.006102-.145531c.034579-.09063.036387-.168848.004068-.208192-.028703-.034768-.068405-.173989-.089048-.310311-.020567-.136962-.080911-.338769-.134928-.450644-.082041-.169968-.085884-.218796-.025087-.302165.040004-.054478.062153-.11664.049044-.137649-.013033-.021245-.037292-.182606-.05379-.36072-.016725-.177408-.058084-.35571-.092362-.397089-.040305-.049477-.041887-.076184-.00437-.076184.063057,0,.063057-.509161,0-.556877-.021245-.016244-.051078-.116602-.065543-.222177-.014691-.105537-.044072-.249486-.065015-.318409-.021094-.068961-.010472-.158903.02343-.200046.059214-.070731.065317-.534286.007308-.53471-.015369,0-.034203-.269205-.041661-.598021-.014691-.63987-.04927-.888895-.13877-1.000119-.031189-.038412-.043168-.152556-.026443-.254712s.007684-.220368-.020115-.263743Z"/>
  <path class="cls-1" d="m126.549985,118.990426c-.082493-.129974-.061023-.383528.032093-.383528.04588,0,.083623-.022592.083623-.049713,0-.098549.236632-.147612.930932-.192786.190978-.012685.383538-.052208.427158-.088596.043544-.035964.124305-.05767.179677-.048827.055824.009483.132893-.003192.172219-.028929.039778-.024861.105772-.016941.148036.017864.053338.044298.087014.04587.112477.00403.019964-.03231.066748-.039994.102382-.017177.099971.064893.33359.060825.423165-.007223.061249-.046332.070289-.044062.038422.008843-.023957.039994-.014465.069573.022149.069573.035483,0,.076617-.048554.092212-.108456.022149-.084744.061701-.101921.182842-.077757.088822.017638.171089.003381.193841-.033468.028929-.046982.061098-.04587.12212.005236.048592.04087.098088.047669.120237.016706.046332-.064431.397927-.082249.397927-.020322,0,.025501.06833.022818.152858-.005226.084452-.028242.202504-.04587.263527-.038883.064639.007035.105546-.016941.097184-.057397-.00791-.04022.044298-.069611.124908-.069611.076918,0,.139297.028044.139297.062623,0,.044759.021697.044062.078199-.002966.051078-.042254.090404-.045635.112779-.009022.018985.030737.073905.040917.121593.022356.047914-.018514.109313.001384.136058.043648.034956.055824.049044.058508.049948.00856.000678-.038186.045202-.070025.09854-.070496.082945-.000923.08513-.008833.013711-.054704-.066597-.04249-.057557-.053329.045729-.05444.070967-.000461.176739-.026707.235878-.058546.058838-.031896.106978-.037772.106978-.012873,0,.024861.271889.04814.602993.05217.449984.005688.649325.031425.786964.102618.128147.065543.266239.087014.451341.069149.146906-.013975.280478-.012864.296976.003428.016047.015595.176513.022818.356567.015133.188793-.007449.342931.012638.364327.047443.02019.033007.0672.041153.102684.0181-.727147-.053555,3.506459-.073688,8.704748-.047264,1.258118.005886,2.390425-.009483,2.519401-.034109.135832-.02601.270458-.021245.321084.011752.047914.030737.148262.041153.223147.022592.166117-.041105,2.207282-.063735,2.267476-.024852.024258.015595.62597.02374,1.337448.017167,1.788713-.016018,4.137929-.01421,5.377891.004078.570146.008372,1.189261-.005886,1.372931-.03231.185855-.02666.371333-.028468.415706-.004078.021998.012082.447046.024004,1.114075.033553.667857.005038,1.57649.011894,2.565883.019352,1.979013.005321,4.098377.011009,4.707472.012638,1.516748-.002091,2.662917-.003682,3.439861-.004756.324323-.008588.49383-.024174.507918-.046756.018533-.029626.074809-.024447.133797.012628.081815.051521.131085.040691.25313-.055589.118881-.093587.175157-.106921.260137-.061004.076617.041331.129955.04022.182616-.003428.055598-.04587.081815-.043366.103286.009954.021923.054478.040456.05605.076617.005189.050626-.071381.165665-.069573.282286.003418.04023.025511.107128.016254.151652-.02036.043168-.035455.111649-.054016.150522-.040456.039326.013796.14555-.013984.237762-.062162.184424-.096468.623786-.132432.6717-.055127.016725.027357.059214.031199.094698.009257.092212-.057397.261493-.063744.227591-.009257-.015821.025548.024635.047029.089048.047029s.106224-.018796.092212-.041849.108258-.04652.272793-.053319c.230981-.008796.310763.009718.353479.083407.052208.089283.055824.088822.057406-.00227.000904-.053319.020341-.099001.042716-.101459.405461-.041153.737468-.038883.765041.00565.018759.030266.05831.054242.089274.054242.031189,0,.040456-.024437.021245-.055862-.019437-.030737-.01017-.055589.021019-.055589.030285,0,.072775.027818.093342.061465.020567.033694.110971.049986.200018.037075.088822-.013335.175383-.002496.19143.023279.016047.025558.051078.033704.076843.017874.025765-.016065.109388-.005189.184876.023279.113231.043601.142612.034344.164535-.050409.027799-.106686.184424-.12067.252452-.022168.020793.028929.137414.061051.259233.070308.259233.019672.305791.048601.193464.118862-.070967.044759-.070515.051982.004068.052905.047688.000471.116395-.029617.154364-.067341.054468-.054478.074809-.043648.099896.051511.021697.082484.06057.109615.123401.08772.049948-.0181.072775-.012223.0504.012638-.061927.068038.066899.194359.197984.194359.089952,0,.100574.014483.048818.066692-.096958.096741-.083397.138073.057632.17673.105546.028694.112327.043177.042264.089519-.070063.046972-.063283.061004.042264.089933.149844.041143.159789.106224.027799.184216-.081137.047217-.084753.065731-.020567.108032.047688.031848.077069.150711.077069.311648,0,.166776.026895.270778.074583.28883.054694.020783.05944.056286.017629.134278-.030963.057632-.034353.105075-.007684.105075.087692,0,.191882.290215.120011.334739-.04814.029579-.046332.073227.007458.171729.096054.177003.126339.572934.054468.707673-.043394.0811-.040456.118401.01017.142612.054468.025087.054016.038836-.002712.065543-.058536.027121-.058536.049251,0,.121367.054016.066654.054694.078406.00226.046746-.037744-.022592-.069385-.014907-.069385.016988,0,.051521.069837.079518.170863.068453.035709-.003607.03797.009266.072549.407278.013109.153027.041134.330444.061701.395987.027573.085394.00565.14103-.079103.200696-.068933.04814-.10419.116602-.085206.165891.019437.049948-.008362.100348-.068029.124748-.094472.038874-.09402.043601.008362.081787.145324.054016.18352.44731.043168.44731-.067803,0-.075035.016018-.028251.062586.046558.046793.041586.095159-.019437.188473-.051078.077766-.068255.180384-.045654.270317.023731.094472.013561.144881-.028703.144881-.040908,0-.032771.032997.021471.087249.047914.047905.086788.117054.08611.15298-.000678.045221-.015143.042951-.046558-.006997-.037292-.058084-.058084-.0567-.111197.007458-.052434.063735-.042264.085441.052208.109841.081137.021245.103512.053366.071645.10419-.025087.03957-.049948.092202-.054242.114832-.004972.023288-.014691.047679-.022375.055363-.007684.00791-.019437.076372-.025991.153027-.00678.076598-.029833.178519-.051078.227356-.021697.049251-.035031.111413-.030059.139231.017177.09854-.071645.298087-.120011.268047-.05944-.036614-.174931.241802-.130407.313682.017629.028468-.008362.051059-.05831.051059-.054468,0-.074357.02601-.050174.065119.027121.043836.009944.053329-.052208.029391-.051078-.019672-.092438-.009718-.092438.021895,0,.031434-.029155.039118-.064639.016941-.044072-.027121-.053564-.009718-.028929.053376.030285.078406.018081.084057-.073905.034805-.059892-.032545-.109841-.038422-.109841-.014493,0,.098549-.223523.185563-.329974.12859-.105546-.0567-.299688-.022356-.257651.045447.030059.048837-.393482.045183-.4423-.003371-.021697-.021019-.073905-.003616-.117073.039759-.042716.04249-.115717.064196-.160015.046558-.044976-.017403-.124983-.013325-.178321.009728-.145776.062162-.570221.083171-.570221.028468,0-.059902-.215161-.038657-.360711.036143-.061249.03166-.229399.054478-.374949.051106-.14555-.003155-.263753.013787-.263753.037951,0,.024437-.051304.016292-.114587-.017864-.083171-.044712-.134702-.044712-.189396.000697-.045428.037762-.087466.041143-.107128.009257-.018759-.030737-.113231-.034344-.227591-.008108-.15346.034768-.206346.025275-.244994-.044759-.040908-.072992-.064639-.076419-.135606-.017403-.047236.038883-.156172.063744-.241604.054666-.085432-.008796-.180581-.001111-.211093.017177-.077521.045918-.305791-.047443-.305791-.125209,0-.04249-.023053-.046982-.068481-.012176-.085658.065543-.555983.082945-.516883.019861.015369-.025087-.071871-.061239-.193012-.080214-.121141-.019672-.221037-.054016-.221037-.076372,0-.022639-.076165-.046106-.168377-.052905-.092212-.006347-.209059-.052208-.258329-.101045-.073227-.072992-.098314-.075911-.135606-.016018-.035257.057171-.068707.058508-.150974.00792-.010698-.00663-.075035-.012525-.186382-.017742-.156474-.003239-.378566-.007844-.657084-.013617-.990523-.00387-2.382439-.009304-4.043532-.015792-3.322713.002128-7.721758.004953-12.135569.007778-4.413283.017374-8.840956.034796-12.221302.048093-1.689419.014078-3.117045.025972-4.150661.034589-1.216457.012393-1.197699.025548-1.289082.039175-.09402.028929-.293435.044759-.4423.034805-.160919-.010415-.240248.001111-.195498.028468.057858.035728.045654.062162-.054468.115481-.085507.045644-.13651.049713-.149392.011526-.0113-.033421-.109464-.045174-.238214-.028006-.14216.019211-.25087.002919-.310537-.046793-.081137-.067341-.087466-.062162-.052736.046793.031943.100584.01341.129051-.103211.158442-.171315.04249-.329974-.009304-.279347-.091091.056502-.091553-.157754-.038186-.23618.058508-.059214.072803-.068029.071419-.069385-.013335-.001582-.095583-.165891-.136726-.241604-.060542-.058988.05832-.321687.072766-.286128.015369.043318-.070308-.001582-.065081-.21501.023703-.100499.042301-.317694.071005-.484263.065119-.166569-.006338-.322967.015604-.34828.049016-.032545.042075-.054016.04023-.072775-.006526-.014766-.03619-.066748-.0504-.115491-.031886-.058988.022403-.075487.011526-.048818-.031387.023957-.038874.005424-.065119-.046784-.065119-.047688,0-.086562.023044-.086562.050635,0,.028232-.068481.042951-.152858.033468-.084452-.009728-.18254.006987-.21938.037254-.076617.062397-.201148.00792-.154364-.067991.028251-.045221-.211093-.025322-.404331.033883-.037819.011291-.068933-.004953-.068933-.036614,0-.030963-.025313-.041153-.055824-.022592-.030059.018514-.055146-.004765-.055146-.051097,0-.065778-.028929-.0748-.124531-.038883-.137866.052444-.459929.040917-.612033-.021433-.057632-.023279-.153234-.002957-.233242.049251-.084527.055127-.148714.067351-.170185.032545-.018985-.030973-.057406-.041802-.085884-.023938-.028929.018052-.051756.004727-.051756-.029617,0-.063744-.270985-.045644-.386476.025548-.032545.020548-.072172.001808-.08837-.040041-.019437-.050824-.087692-.068227-.200018-.051747-.093342.013561-.186684.002966-.206196-.024164-.019361-.026471-.125435-.094048-.235426-.150287-.156624-.079339-.196854-.130671-.185554-.235973.011074-.103079-.011526-.134692-.098088-.134692-.085658,0-.105848-.026245-.083397-.110763.016197-.061475.007232-.111413-.020115-.111413-.027422,0-.024409-.065081.006102-.145531.034579-.09063.036387-.168848.004068-.208192-.028703-.034768-.068481-.173989-.089048-.310311-.020567-.136962-.080911-.338769-.134928-.450644-.082041-.169968-.085884-.218796-.025087-.302165.039928-.054478.062153-.11664.049044-.137649-.013109-.021245-.037292-.182606-.05379-.360711-.016725-.177417-.058084-.35572-.092438-.397098-.040305-.049477-.041812-.076184-.004294-.076184.063057,0,.063057-.509161,0-.556877-.021245-.016244-.051078-.116602-.065543-.222177-.014766-.105537-.044072-.249486-.065091-.318409-.021094-.068961-.010396-.158903.023505-.200046.059214-.070731.065241-.534286.007232-.53471-.015369,0-.034127-.269196-.041586-.598021-.014691-.63987-.04927-.888895-.13877-1.000119-.031189-.038412-.043243-.152556-.026443-.254712.016725-.102156.007684-.220368-.020115-.263743Z"/>
  <path class="cls-1" d="m10.958136,156.94264c-.086637-.127224-.073378-.381353.019738-.384366.045805-.001488.082795-.025294.081891-.052396-.003164-.098502.23181-.155212.924303-.222883.19045-.018872.381579-.06462.423993-.102401.042414-.037367.122422-.061682.17802-.054638.056126.007684.132743-.007496.17124-.034504.038949-.026123.10517-.02036.148488.013071.05477.042527.088445.043017.112628.000377.018834-.032941.065392-.042151.10178-.020492.102006.061625.335398.049967.422637-.020944.059742-.048291.068857-.046313.038723.00759-.022676.040757-.012205.070006.024409.06882.035408-.001149.07496-.051022.088596-.111385.019361-.085432.058386-.10387.18028-.083661.089349.014747.171089-.002166.192711-.03974.027347-.047876.059516-.04782.12212.001281.049948.039269.099595.044467.120764.012788.044222-.065882.395064-.095112.397098-.033205.000829.025483.069008.020586.152556-.010189.083548-.030963.200922-.052415.262171-.047405.064789.004935.104944-.02036.095225-.060514-.009191-.039947.042038-.071023.122648-.073641.076843-.002486.14005.023524.14118.058084.001431.044731.023128.043337.078124-.0055.049647-.043902.088897-.048554.112402-.012675.019964.030097.075186.038497.122271.018401.047236-.020058.109313-.002166.137414.039213.036764.054657.050852.056879.050174.006931-.000603-.038177.042866-.071457.096205-.07366.08287-.003616.084829-.011583.011978-.055127-.067953-.040305-.05929-.051417.043921-.055881.070892-.002769.17576-.032432.23392-.066164.057708-.033788.105622-.041228.10645-.016329.000753.024842.273321.039288.604349.032564.449909-.00889.650003.010359.789902.07705.130181.061343.268876.078331.453299.054468.146379-.01874.27995-.021961.296976-.006215.016574.015086.177191.017083.356944.00356.188416-.013561.343157.001526.365683.035615.02117.032319.068405.038949.103136.014747.020115-.014031.133195-.029023.324323-.044222,1.763098-.061399,4.244379-.147791,7.308236-.254486,7.104376-.209737,16.90994-.499217,28.155635-.831225,5.385575-.152782,10.22014-.289951,10.788252-.306054.58107-.039702,1.157846-.048498,1.375568-.020605.205819.025897.63599.026179.956321.000094.709745-.067746,9.455174-.26219,9.71403-.227516.066823-.000678.724887-.007326,1.761215-.017817,1.038965-.017817,2.445647-.041944,3.970381-.068085,7.665632-.141595,17.737736-.256238,23.057091-.241265,2.445647-.001074,5.100954-.026876,5.888898-.055127.797511-.024447,1.593064-.024051,1.78359.000866.229776.002222,7.299271.070553,15.790817.152632,8.493881.09466,17.593693.346868,20.208997.437027,3.390893.083605,6.369469.227912,8.933771.319106,2.195304.089594,4.036225.164723,5.522462.225388.325905.007835.496693.000848.511986-.021.019964-.028647.07624-.020623.133722.019399.079631.055598.129579.047274.256671-.042716.123778-.087466.180958-.097937.263979-.047763.07496.045164.128599.046746.18352.00582.058009-.042998.084226-.039175.103211.015161.019361.055542.037894.058047.076692.009059.054242-.068726.169658-.061098.28319.017723.0391.027498.106752.02164.153234-.012657.045051-.033242.114737-.048309.153084-.03279.038798.015764.146755-.006592.241755-.050061.189923-.086995.632901-.100649.677124-.021038.015444.028176.057858.034165.094623.01405.095451-.05266.265787-.0504.229023.002279-.017177.024729.0223.048215.087014.051492.064639.003258.10758-.013391.094698-.037122s.111046-.040983.27656-.039439c.232488.002919.311591.025445.350691.101196.047839.091816.051455.091534.057708.000659.003691-.053206.025614-.097843.04814-.099162.409303-.020567.742591-.001469.767904.044392.017327.031189.055749.057124.086788.058706.03134.001582.041962-.022356.024334-.054713-.01793-.031679-.007308-.056031.024032-.054449.030436.001526.071645.031453.090479.066108.018834.034692.108786.055542.198888.047161.089876-.008814.176212.006385.190978.032941.014766.02633.049421.036237.076165.021735.026744-.014728.110067.000377.184348.032621.111347.04927.141331.041529.167925-.042.033675-.105132.191731-.11114.254712-.009342.019286.029946.134626.067935.256445.083341.259157.032771.304359.064017.187738.128486-.073754.041096-.073679.048328.00113.053037.047839.002882.118504-.023674.158659-.059422.057708-.051643.077521-.039796.097485.056502.017177.083454.05477.112496.118956.093832.051153-.015538.073754-.008513.049948.015161-.065919.064808.056427.197457.187889.204086.090253.004558.100122.019569.045277.069065-.102608.091684-.091383.133647.047989.179376.104266.033996.110217.048799.037367.091515-.07285.043356-.066899.057708.037442.091929.147961.048686.154214.114154.017553.185346-.084.043036-.088671.061343-.026669.106827.046031.034203.068857.154364.059817.315057-.009342.166512.011828.27172.058536.292155.05364.023505.056352.059196.01017.134946-.034278.055975-.040305.103173-.013636.104529.087918.004426.175835.299443.101403.340276-.049873.027102-.050475.07076-.002185.171824.086185.18158.094095.578414.014691.709311-.047989.078764-.047085.116169.002109.142894.053037.027799.051831.041492-.006404.065298-.060043.024126-.061249.046219-.00678.121179.050174.069272.050174.081043-.000377.046784-.036538-.024447-.068556-.018382-.070364.013466-.002863.051436.065317.082908.166946.076956.03586-.001808.037442.011169.049421.410282.00452.153441.02245.331989.03925.398454.022676.086656-.002335.141105-.090328.196402-.071494.044599-.110594.111159-.094321.161333.016574.050852-.014088.099783-.07496.121122-.096431.034071-.09628.038798.003767.082079.141934.061249.157754.455842.017779.448779-.067577-.003409-.075713.012223-.031641.06106.04377.049063.036086.097109-.029984.187211-.055372.075054-.078199.176645-.060721.267576.018307.095527.005349.145343-.036764.143215-.040757-.002053-.034504.031302.016499.088181.044976.050249.079857.121235.077145.157076-.003239.045108-.017553.042113-.045955-.009323-.033901-.059874-.054694-.059535-.111197.001846-.055824.061004-.046935.08319.045805.112289.079631.025294.100122.05848.065467.107637-.027196.038252-.05492.089537-.06042.111931-.006253.022996-.017327.046859-.025388.054148-.008136.007515-.023656.075261-.034504.151464-.011074.076146-.039702.176758-.063584.224446-.024334.048083-.041134.109483-.037744.137508.011602.099237-.087918.294019-.134325.261606-.057105-.039552-.187512.232639-.147283.306657.015971.029306-.011074.050551-.060721.048046-.054167-.002731-.075412.022243-.053489.06251.024484.045127.006856.053734-.053564.026726-.049722-.022205-.091308-.014333-.093116.017233-.001733.031378-.031114.037593-.065166.013674-.042339-.029287-.052736-.012393-.031717.051831.025765.079819.013335.084848-.075412.031057-.057708-.035502-.107053-.043865-.108334-.019983-.005424.098408-.232338.174084-.335021.111856-.101704-.061889-.296524-.037329-.258404.032489.027121.050268-.393407.025388-.439362-.025539-.020341-.022074-.073152-.007308-.118429.033826-.04475.040305-.118429.05831-.161446.038497-.04377-.019644-.123476-.019587-.177643.000772-.148187.05477-.570899.054487-.568037-.000151.003089-.059817-.211771-.049383-.360259.018024-.062454.028553-.23068.042904-.3751.032244-.14442-.010434-.262698.000565-.263979.024692-.001281.024409-.051756.013692-.112854-.02358-.080384-.048837-.131537-.051417-.18819-.008796-.04701.035446-.088972.036708-.106827.003861-.017101-.031622-.11082-.039966-.225708-.019493-.154214.027027-.206196.014917-.241077-.056973-.03699-.07496-.06042-.079555-.133873-.024183-.048893.036463-.158282.055843-.242734.04249-.084452-.013071-.179301-.010152-.21049.006573-.079329.041981-.301421-.062718-.297654-.140371.002109-.042452-.020567-.048083-.067426-.015595-.088294.061173-.55636.054977-.514472-.006083.016499-.024277-.068405-.06477-.187889-.089801-.119408-.025709-.217044-.065034-.21599-.087371.00113-.022601-.073453-.049854-.164761-.061286-.091308-.010943-.205292-.062623-.251925-.113871-.06931-.076598-.094095-.080761-.134024-.022808-.037744.055335-.070967.054996-.150447.000339-.010246-.007157-.073905-.016273-.184348-.027065-.055222-.004822-.122045-.010641-.199792-.017403-.434616-.023787-.929802-.050909-1.480888-.081062-4.214546-.170788-10.138475-.433618-17.218518-.610093-14.156544-.405046-32.929026-.508559-51.774058-.272982-18.844956.223542-37.761632.756246-52.204455,1.204799-7.222654.239645-13.325357.44215-17.74075.58866-1.103829.038855-2.102263.073999-2.986336.105113-.401694.014709-.777472.028477-1.12628.041228-.035935.002938-.069084.00565-.099369.008118-.121066.010472-.195875.019587-.217798.027121-.092965.031961-.291703.054242-.440869.049138-.16122-.005198-.240097.008909-.194519.034787.058988.033845.047613.060646-.050701.117186-.083925.048404-.134777.054129-.148865.016367-.012431-.033035-.110895-.041605-.239042-.020265-.141482.023825-.250644.011056-.311893-.036689-.083247-.064676-.089424-.05929-.051153.048479.035182.099501.017553.128543-.098088.16171-.169808.048027-.330049.001394-.282135-.081985.053564-.093342-.158885-.033054-.234146.066127-.056804.074696-.065618.073604-.069762-.011074-.004671-.09547-.17026-.131274-.243412-.05266-.057105.060194-.319125.083153-.285525.024635.041134-.071683-.003616-.064997-.214031.030662-.099143.045541-.315283.081269-.481927.080798-.16672-.000942-.322289.026066-.346548.060288-.031114.043111-.05266.041944-.072926-.004162-.015896-.035709-.068255-.048215-.11647-.028138-.058235.024315-.075035.013975-.049797-.029777.022676-.039646.003315-.06526-.048893-.063584-.047613.001563-.085733.025859-.084829.053432.000904.028213-.067049.045145-.151652.038403-.084753-.006987-.182239.012901-.218099.044354-.074583.064846-.200772.014427-.156474-.062944.026744-.046125-.211771-.018476-.40305.046972-.037367.012506-.069008-.002712-.070063-.034353-.000979-.030963-.026594-.040305-.056502-.020774-.029457.019474-.055297-.002976-.056804-.049289-.002109-.065731-.03134-.073811-.125661-.034824-.136133.056898-.458422.055824-.61241-.001563-.058386-.021396-.153234.002015-.231584.056785-.082644.05784-.146454.072135-.16898.038045-.020039-.030323-.058762-.039909-.086637-.021132-.028326.018985-.05153.006404-.05266-.027931-.002109-.063697-.272341-.036821-.385497.038083-.031792.021584-.072022.004144-.089575-.03716-.021094-.050155-.089876-.065336-.2016-.04524-.092814.016593-.186533.009022-.206799-.017459-.020265-.025822-.128449-.089933-.240173-.142574-.159186-.074206-.200998-.124211-.193163-.229833.00776-.10338-.015896-.13425-.102382-.131443-.085582.002787-.106601-.022789-.086938-.107995.014239-.061964.003616-.111592-.023731-.110707-.027347.000904-.026518-.064243.001356-.145644.031641-.091703.030963-.16994-.002637-.208211-.029833-.033807-.074056-.171692-.099067-.30726-.024936-.136227-.091835-.335963-.149467-.446029-.087466-.167228-.09289-.215895-.034881-.301195.038271-.055749.058386-.118598.044599-.139165-.013787-.020812-.043168-.181297-.065392-.35879-.022526-.176777-.069611-.353629-.10532-.393878-.041812-.048159-.044222-.07479-.006705-.076014.062981-.002034.046483-.510932-.018081-.556586-.021772-.015538-.054845-.114869-.0727-.219926-.018156-.105-.052133-.247932-.075336-.31613-.023279-.068255-.015595-.158489.016951-.200715.056954-.072605.047989-.536113-.01002-.534644-.015369.00049-.042866-.267972-.061023-.596363-.035408-.63906-.077973-.886823-.171089-.9951-.032395-.037386-.048065-.151068-.034655-.253714s.000527-.22051-.028703-.262962Z"/>
  <path class="cls-1" d="m10.193321,188.565596c-.089952-.125266-.083096-.379564.010095-.38463.045955-.002505.082343-.027102.080836-.054186-.00565-.098389.228345-.160241.920687-.243129.190375-.023053.380901-.073001.422487-.111686.041586-.03829.121141-.064356.177041-.058536.056427.006441.132818-.010415.170788-.038252.038422-.026989.104944-.022676.149166.009775.055824.041322.08965.041058.112854-.002109.018081-.033336.064488-.043544.101478-.022714.103663.059365.337357.042584.423165-.030229.058687-.04959.067878-.04782.038949.006743-.021772.041228-.010622.070232.026066.068255.035483-.00194.073905-.05266.086185-.113306.017478-.085827.056126-.105132.178698-.087597.089876.012788.171466-.005933.192259-.043959.026368-.048479.058536-.049119.122497-.001431.050852.038177.1008.042264.121292.010152.042791-.066861.393859-.103795.397249-.041944.001431.025464.069611.01906.152632-.013542.083096-.03279.200244-.056823.261719-.053169.065091.003503.104718-.022657.094095-.062605-.010095-.039721.040531-.071909.121292-.076316.076994-.004181.140954.020435.142838.054958.002411.044693.024108.042829.078124-.007213.048818-.044976.088068-.050494.112402-.015143.020718.029645.07624.03684.122949.015708.046935-.021094.109615-.004577.138619.03618.038045.053828.052208.055749.050475.00582-.001431-.038158.041435-.072379.094773-.075751.083021-.005443.084829-.013466.010848-.055372-.069084-.038798-.06057-.050118.042791-.056841.070967-.004332.175459-.036293.233016-.071306.057105-.03505.105019-.043544.106375-.018683.001356.024823.274827.03328.606458.019286.450889-.018815.651811-.003974.793368.059629.131763.05848.271136.072417.455484.044505.146379-.021961.280176-.028119.297504-.012751.016875.014709.177945.013184.357773-.004294.188567-.017704.343986-.006027.36719.027554.021923.031867.069385.037442.103663.012487.019889-.014483.132893-.031943.324173-.051361,1.790596-.092419,4.3106-.222487,7.42222-.383105,7.213011-.357415,17.17422-.763685,28.602907-1.073337,5.470555-.151558,10.381661-.287616,10.958362-.303587.590186-.038365,1.176077-.045823,1.397114-.01744.208908.026387.645784.027667.971162.002298.721497-.074847,9.602683-.217308,9.86523-.181617.135304-.001055,2.725371-.021113,5.819815-.045089,7.783157-.088614,18.006763-.081853,23.402433-.003748,2.480829.008833,5.163333.018382,5.975158.021283.809189-.014653,1.616117-.004483,1.809054.02277.231961.005142,7.401126.164026,16.011327.354853,8.610427.212581,17.827839.561445,20.476366.672999,6.452867.289179,11.332558.507862,14.635608.655879.325303.008551.495789.00194.511082-.01987.020039-.028609.076165-.020473.133421.019682.079254.055768.129202.047556.256295-.042151.123928-.087202.180958-.097542.263678-.047198.074658.045334.128147.047029.183143.006234.058009-.042885.084151-.039005.10291.015387.019211.055561.037668.058122.076542.009229.054318-.068613.169507-.06074.282512.018326.038949.027592.106526.021885.153008-.012336.045051-.033129.114662-.048046.152858-.032451.038648.015858.146529-.006272.241378-.049515.189848-.086599.631922-.099293.675768-.019587.015369.028213.057708.034297.094397.014257.095451-.052453.265335-.049835.228495.002769-.017177.024692.022224.048272.086712.051662.064488.003409.10743-.013146.094623-.036915-.012807-.02375.110895-.040719.276108-.038836.231886.003428.310763.026123.349636.101968.047537.09191.051153.091647.057632.000772.003767-.053206.02569-.097806.048215-.099067.408399-.019663.740934.000132.766171.046049.017177.031227.055448.057256.086486.058894.031265.001639.041812-.022281.024334-.054675-.017855-.031717-.007232-.056031.024032-.054393.030361.001601.071419.031622.090178.066315.018759.03473.108484.055768.198361.047575.089726-.008607.175835.00678.190526.033374.014691.026349.04927.036331.076014.021885.026669-.014672.109841.000603.183896.033016.111046.049515.140954.041831.167624-.041642.033675-.105057.191355-.110745.25411-.008796.019211.029984.134325.068217.255843.083906.258555.033336.303606.064676.187136.128901-.073528.040927-.073453.048159.001205.053037.047688.002976.118203-.02343.158357-.059101.057557-.051511.077295-.039627.097184.056728.017101.083492.054544.112628.118655.094076.051078-.015425.073604-.008344.049797.015293-.065769.064657.056201.197589.187437.204501.090102.004746.099896.019776.045127.069178-.102458.091477-.091232.133458.047839.179489.104115.034222.110067.049044.037292.091609-.072775.043205-.066748.057576.037292.092023.147735.048988.153988.114493.017478.185403-.083849.042848-.08852.061154-.026594.106771.04588.034316.068631.154534.059591.315226-.009342.166512.011752.271776.058386.292305.053564.023637.056276.059327.010095.135003-.034203.0559-.04023.103098-.013561.104492.087767.004633.175534.299877.101177.340558-.049797.026989-.0504.070666-.002185.171842.086034.181768.093945.578678.014615.709424-.047989.07867-.047085.116075.002109.142913.052962.027912.051756.041623-.006404.065298-.060043.023995-.061249.046087-.006856.12116.050249.069404.050174.081175-.000377.046803-.036463-.024541-.068481-.018533-.070289.013297-.002863.051436.065317.083077.16687.077352.03586-.001714.037367.011244.049421.410452.00452.153479.02245.332083.03925.398605.022752.086712-.002335.141105-.090328.196214-.071494.04443-.110519.110914-.094321.161145.016574.05089-.014013.099745-.07496.120953-.096506.033864-.09628.038591.003767.082098.141934.061588.15783.456256.017779.448873-.067652-.00356-.075713.012054-.031641.061004.04377.049176.036086.097203-.030059.187155-.055297.07496-.078199.176513-.060721.267482.018307.095564.005349.145362-.03684.143139-.040757-.002147-.034504.031227.016499.088238.045051.050362.079932.121442.077295.157265-.003239.045127-.017553.042094-.046031-.009417-.033901-.059968-.05477-.059666-.111347.001582-.055824.060891-.046935.083096.04588.112421.079706.025464.100197.058725.065543.107788-.027196.038196-.05492.089424-.060495.111799-.006253.022996-.017327.04684-.025388.054092-.008136.007515-.023731.075242-.034579.151426-.010999.076127-.039702.176683-.063659.224314-.024409.048027-.041209.109388-.037819.137432.011602.099293-.088068.29385-.134551.261323-.05718-.039683-.187814.232225-.147509.306337.015971.029344-.01115.050532-.060872.047914-.054242-.002863-.075562.022074-.05364.062397.02456.045183.006856.053753-.05364.026594-.049797-.022318-.091458-.01454-.093267.017007-.001733.031396-.031189.037536-.065317.013523-.042339-.029381-.052811-.012506-.031792.051775.025765.079875.013335.084866-.075562.030869-.057783-.035634-.107204-.044128-.10856-.020228-.0055.098389-.23279.173537-.335624.111065-.10193-.062153-.297127-.038045-.259007.031867.027196.050325-.394236.024447-.440191-.026594-.020416-.022111-.073378-.007477-.11873.033562-.044825.040192-.11873.058028-.161823.038101-.043846-.019738-.123702-.01987-.17802.000339-.148563.054431-.57218.053131-.569242-.001507.003239-.059798-.212072-.049873-.361012.017177-.06268.028402-.231283.042358-.376004.03134-.144721-.010773-.263301-.000057-.264582.02407-.001281.024409-.051907.013579-.11308-.023863-.080384-.049006-.131688-.051718-.188567-.009248-.047161.035333-.089274.036501-.107128.003635-.017026-.031679-.110895-.040248-.226085-.020039-.15459.026669-.206723.014408-.241529-.057557-.03684-.075035-.060344-.079706-.134024-.024484-.049119.036331-.158809.055448-.243412.041906-.084603-.013278-.179677-.010585-.211017.006065-.079555.041793-.301873-.063433-.29788-.141086.00226-.042433-.020492-.048121-.067501-.015745-.088671.060947-.557791.05364-.515603-.007308.016649-.024239-.068405-.064921-.187964-.090234-.119634-.02601-.217346-.065543-.216216-.08788.001205-.022601-.073378-.050042-.164836-.061663-.091534-.011187-.205518-.063132-.252076-.114474-.069159-.076749-.09402-.080987-.13425-.023128-.03797.05524-.071344.054826-.150673-.000019-.010321-.007176-.074131-.016442-.18465-.027498-.055372-.004935-.122346-.010924-.200169-.017874-.441019-.025106-.943513-.053715-1.502811-.085563-4.279486-.202693-10.295853-.507786-17.480613-.759485-14.36726-.550182-33.40455-.958449-52.506704-.908595-19.102004.016235-38.263825.511666-52.881352,1.07603-7.308613.292287-13.482358.578508-17.947322.816195-1.116335.056917-2.125994.108371-3.020011.153969-.405988.023712-.785759.04588-1.138258.066484-.035785.00371-.068782.007138-.098917.010265-.120538.01309-.194971.023844-.216668.031848-.092136.033977-.289819.060589-.438684.058706-.160843-.001676-.239193.014126-.193238.039024.059516.032545.048743.059591-.048215.118278-.082644.050193-.13327.05703-.148111.019587-.013033-.032753-.111347-.039194-.238741-.015067-.140502.026876-.249665.016499-.311742-.029909-.084377-.062868-.090328-.05735-.049948.049571.037066.098728.020115.128147-.094472.163819-.168302.0517-.32907.00857-.282964-.075845.051379-.094491-.159186-.029588-.232112.071212-.055071.07592-.063885.074997-.069837-.009549-.00663-.095376-.17252-.127563-.243789-.047387-.055674.061437-.316413.090084-.284094.030831.039401-.072549-.005123-.064884-.212825.035314-.097862.047688-.312571.088106-.478763.091251-.166192.002674-.320783.033054-.344137.067803-.030135.04377-.051605.043074-.07285-.00258-.016574-.035352-.069159-.046727-.116696-.025596-.057557.025558-.074583.015595-.050325-.028684.021697-.040135.001808-.065336-.050174-.06251-.047462.00258-.084979.027705-.083473.055259.001582.028195-.065769.046596-.150296.04168-.084678-.005123-.18141.016875-.216442.049082-.072926.066447-.199868.018796-.157453-.059535.02569-.04669-.21162-.013843-.40079.05573-.03699.013316-.068857-.001224-.070666-.032828-.001657-.030926-.027422-.039721-.056804-.019531-.028929.020115-.055222-.001789-.057783-.048046-.003616-.065675-.032922-.073114-.126113-.032074-.134476.059817-.455785.06575-.610752.011734-.058687-.020134-.152707.00533-.22955.061795-.081062.059629-.144269.075299-.167624.041718-.020642-.02989-.059516-.038629-.086863-.019248-.027799.019587-.051304.007515-.053188-.026782-.003616-.06364-.272492-.030888-.383462.046426-.031265.022281-.07172.005707-.090253-.035182-.022224-.049684-.091232-.063377-.202128-.040832-.092212.018589-.18578.013052-.206648-.012977-.020868-.02537-.130257-.087108-.243035-.137301-.160542-.070722-.203559-.119785-.198285-.225538.005123-.103512-.019135-.133854-.105396-.129164-.085356.004652-.106902-.020473-.089424-.106055.012732-.062266.000904-.11163-.026368-.110142-.027272.001469-.028025-.063659-.00226-.145625.029306-.092362.026669-.170543-.00776-.208079-.030587-.033148-.078199-.169997-.106526-.304981-.028251-.135624-.099971-.333835-.160241-.442602-.091458-.165232-.098163-.213786-.042264-.300291.036764-.056559.055297-.119823.041058-.140107-.014314-.020492-.047688-.18028-.074282-.357189-.026895-.176231-.07835-.351991-.114963-.391429-.043017-.047217-.046106-.073792-.008664-.075845.062906-.003409.033826-.511742-.031867-.555964-.022149-.015048-.057708-.113626-.078124-.21825-.020793-.104548-.05831-.24667-.083247-.314341-.025012-.067709-.019512-.158075.011978-.200998.055071-.07383.034579-.53696-.02343-.534229-.015369.000848-.049571-.266898-.075864-.594781-.051379-.638005-.100197-.884751-.196101-.990919-.033449-.036651-.051982-.149957-.041058-.252848.010848-.10291-.004972-.220434-.035333-.262227Z"/>
</svg>