<?xml version="1.0" encoding="UTF-8"?>
<svg id="uuid-ac1a39ef-01d4-45f3-932c-3deaaf9dd7ff" data-name="Layer 1" xmlns="http://www.w3.org/2000/svg" viewBox="0 0 200 200">
  <defs>
    <style>
      .uuid-56a30534-6679-4a0e-a250-64b3186ce636 {
        stroke-width: 0px;
        fill: currentColor;
      }
    </style>
  </defs>
  <path class="uuid-56a30534-6679-4a0e-a250-64b3186ce636" d="m87.658264,56.422787c.166527.002392.382668.172195.327103.25658-.027367.041553-.02948.08913-.00499.105225.088959.058456-.007942.301998-.3815.95805-.102524.180607-.181778.37862-.174995.439777.006409.060909-.022202.146992-.06321.19191-.04187.044952-.076431.122349-.076714.173328-.001381.050819-.048141.105885-.104851.123436-.071899.021923-.093521.051498-.071106.099514.017189.037262-.003952.084225-.045921.102955-.118408.051861-.254829.265865-.247223.387512.005013.083088-.002472.089954-.031006.029526-.021667-.045517-.054001-.054558-.075958-.0214-.021255.032104-.002197.098324.042389.148174.063065.070583.054794.11668-.039619.211994-.069153.069939-.105652.15295-.086166.195614.024948.054249.004677.082691-.077919.107449-.065948.019623-.101746.060379-.087173.098957.030136.080421-.164528.409725-.220612.372593-.022949-.01524-.061699.048138-.08744.141396-.025566.093365-.080864.210693-.12397.261765-.045303.054264-.048416.105644-.006989.122276.040947.016911.035889.08176-.012787.154789-.046379.069595-.109207.10923-.140289.08852-.040237-.026806-.052704-.006748-.044518.072575.007195.071526-.013504.109165-.059898.10746-.03907-.00124-.08136.042381-.093437.096657-.01226.054455-.067223.09816-.1213.096989-.071266-.001801-.08213.009277-.037819.040066.03392.023483.035675.082882.003899.131466-.049202.075626-.043434.08239.040855.045261.078384-.034847.082672-.020184.021339.074009-.042389.06451-.082626.176003-.089745.248718-.006828.072365-.030602.11948-.052963.104527-.021973-.014809-.208138.216961-.412659.513889-.278259.403416-.422348.568153-.569672.649624-.136536.07634-.239548.188152-.335869.366226-.076431.141289-.159599.260944-.184074.266033-.023781.00507-.128265.145489-.2314.312626-.108635.17482-.220757.301727-.264984.29998-.041817-.001823-.07782.03566-.078857.081612.256363-.278503-1.52948,2.419548-3.894073,5.745872-.571838.802032-1.071297,1.535301-1.107513,1.63343-.03846.103149-.103523.186317-.155472.198067-.048706.011398-.103798.068794-.121574.128181-.039558.131615-.95105,1.447449-1.012627,1.461296-.023819.006096-.308479.38295-.630531.839066-.806915,1.14798-1.905525,2.631378-2.506905,3.399101-.275665.353554-.554619.752647-.618507.885384-.065491.133804-.152229.25119-.194397.26313-.020882.005905-.233513.264496-.55928.676132-.324333.413681-.765701.976639-1.246323,1.589668-.958138,1.228889-1.993919,2.540977-2.316696,2.89724-.77578.927437-1.362076,1.628349-1.759422,2.103371-.222488.279327-.329498.432899-.320663.46032.011589.035957-.032616.07988-.105309.104156-.100861.033554-.126694.082497-.132973.251663-.006332.164719-.035187.221451-.133553.261444-.088692.036163-.125534.081886-.126595.156448-.001274.078552-.021935.098953-.081444.080238-.060806-.019112-.075218-.004593-.058624.061081.023422.09198-.059692.187881-.202866.235718-.04966.016281-.089401.079124-.090607.142052-.001183.060944-.03437.131615-.073135.154984-.039322.023636-.091606.1325-.117111.243767-.050941.22261-.333069.618752-.43084.605301-.034431-.004959-.067734.028221-.074814.073486-.018051.117851-.132957.265221-.153816.19857-.009827-.031197-.056229-.012047-.101921.04232-.045662.054337-.05986.102783-.03093.107056.028938.004272-.03849.123909-.149628.267563-.156693.201202-.228523.255569-.319359.239937-.110382-.018578-.112549-.015221-.038849.050026.043137.038193.066864.086662.053009.107262-.253983.371246-.4916.650085-.547577.641922-.038116-.00547-.085789.010986-.107758.037125-.022137.026329-.008713.051384.030636.057335.038944.005264.052711.030609.030563.056953-.021526.025604-.074448.041855-.11655.035454-.042145-.006424-.119606.058365-.172245.142654-.052143.084389-.122421.149796-.154865.145111-.032257-.004517-.063728.019249-.069103.052208-.00518.033119-.07338.09597-.150154.139511-.115875.064629-.129158.095963-.075657.174576.067257.09906-.032616.241295-.161098.22879-.038303-.002998-.147217.072617-.241177.168816-.199913.204712-.256401.223343-.233826.078598.013943-.09169.007736-.096428-.045876-.034225-.034172.039856-.058464.119225-.054749.178108.0056.084755-.017624.0942-.112652.047516-.08234-.040497-.131897-.027077-.158649.041466-.020714.055-.041687.070076-.045971.033463-.011318-.100708-.205051-.082291-.297829.02803-.063679.075722-.082909.07428-.088581-.006577-.009785-.150681-.052895-.168777-.183933-.077805-.097908.068275-.114395.063576-.102383-.02845.011452-.092453-.004704-.096771-.102726-.028748-.139187.096474-.198818.058189-.16877-.108406.019051-.101875.006584-.118118-.072968-.094505-.059425.017242-.176365-.043137-.306625-.158272-.134995-.119293-.238102-.171188-.28624-.144218-.055305.030899-.087334.009422-.121052-.081352-.024857-.067139-.060883-.103905-.079613-.081619-.06168.073357-.369446-.047562-.355042-.13942.00985-.061356-.026745-.09108-.1441-.116768-.210472-.046661-.551563-.305336-.610336-.461555-.035244-.09417-.067493-.118416-.122372-.09375-.058304.027267-.069084.017021-.051113-.049179.018925-.068047.001015-.08387-.098122-.086952-.091545-.002945-.10149-.010834-.039375-.031609.044594-.015152.060421-.046883.03463-.069725-.041668-.036888-.112946.000931-.174408.092636-.021938.032166-.033958.024864-.379562-.231926-.132767-.098854-.295525-.20295-.362717-.233002-.08812-.038475-.117802-.096527-.107246-.209251.008892-.091393-.022007-.169533-.075027-.189178-.053833-.019768-.075298-.078835-.053715-.145477.03397-.105705.029808-.108681-.071918-.051697-.144257.081039-.488277-.169693-.391403-.285027.046822-.055748.038853-.073143-.031094-.068054-.069973.004738-.105591-.034065-.138954-.151009-.027626-.097672-.098793-.185234-.187103-.231094-.092705-.048241-.126476-.092667-.097366-.127327.02813-.033493-.004147-.050476-.085331-.044891-.071693.004929-.15432-.012802-.182907-.03907-.036072-.032974-.024292-.043198.037655-.033104.072609.011078.085793-.00695.070423-.096375-.015541-.088516-.040089-.095741-.12471-.035927-.072918.051155-.114262.046448-.13345-.016037-.014771-.048866-.040268-.10688-.055618-.12661-.015427-.020721-.028484-.046135-.029427-.057915-.001129-.011948-.048431-.070572-.105919-.130821-.057323-.060371-.123974-.152161-.148933-.204437-.024979-.052956-.066154-.108315-.092049-.124184-.091488-.056526-.192238-.271645-.134899-.28949.07029-.022232-.076313-.315208-.164944-.33036-.035088-.00602-.035667-.043266-.00161-.083839.037159-.044258.029648-.079002-.018551-.08728-.054008-.009285-.049961-.030045.011772-.063393.050781-.027451.070896-.068123.045261-.090683-.025482-.022438-.011841-.05159.030334-.06459.052036-.016426.044384-.036537-.023571-.061554-.084221-.03138-.080517-.04528.022121-.084824.067211-.025398.106022-.061752.086594-.078804-.07996-.070274.001511-.313484.120293-.359261.117966-.045265.222252-.227165.138435-.241226-.060177-.010353.231026-.351044.303871-.356239.031883-.00267.053246-.057343.047264-.123062-.005581-.064728.026367-.139236.070908-.162659.044823-.024147.09594-.091866.113396-.151367.048454-.162109.319954-.520699.364769-.48217.04903.042213.178108-.147156.215809-.317673.015705-.071869.111359-.224083.21312-.339554.101608-.115685.168098-.223289.148228-.240211-.020096-.01712.021473-.052925.092613-.080246.093361-.036049.128429-.077797.128258-.153847-.00021-.063179.025612-.099594.065231-.093201.038094.006271.105347-.067726.161484-.178612.075741-.148529.119495-.184677.20359-.167168.088081.017738.10709.000862.106647-.09771.000057-.065361.053608-.170837.119232-.233704.065399-.063065.12376-.145432.129383-.182823.014736-.094635.247303-.214638.311745-.160759.035194.029472.054611.013901.056686-.047012.00404-.114861.30962-.507706.335396-.432449.010365.029793.099781-.015907.198044-.100967.098835-.084572.195473-.141884.214066-.126472.018822.015602.090221-.029953.158722-.100021.068108-.070389.185955-.133591.260223-.139969.110741-.009209.130306-.027588.10582-.099007-.023594-.067894-.001949-.095894.096359-.127922.012814-.004128.061604-.052261.141861-.138985.094879-.107422.229546-.259888.398495-.451164.48674-.573219,1.170799-1.378807,1.987167-2.34021,1.575397-1.969833,3.607967-4.628273,5.590214-7.347626,1.985947-2.715874,3.91909-5.495087,5.372223-7.636082.719978-1.07563,1.328362-1.984539,1.768776-2.642509.492859-.747437.546738-.855579.576416-.924679.030571-.100899.136086-.287247.234383-.413254.105934-.136406.14325-.213726.091888-.190578-.066711.02969-.083023.002853-.070671-.118137.010429-.103333.037415-.151039.079323-.139366.036697.010189.106125-.069698.16806-.19426.068031-.137684.147316-.224838.227577-.247845.108818-.031563.107933-.040295-.010468-.075096-.109177-.03231-.123619-.06596-.080315-.187424.064201-.177971.205376-.287861.248466-.193546.048325.105453.128464-.117336.0886-.245338-.029945-.096497-.023453-.103474.053383-.053684.086662.05616.221725-.065273.198578-.178436-.017075-.087589.126793-.329853.157104-.263775.037193.080856.059364.037701.107109-.205444.022247-.11462.12561-.325722.229904-.470825.104759-.144844.178055-.297565.163078-.340187-.018463-.054256-.004028-.072304.049126-.061008.041283.008564.084969-.029305.097336-.083931.014961-.066082.034538-.074268.057251-.024773.020683.044689.055313.043854.086365-.002743.028358-.042549.030762-.091053.005959-.107574-.025383-.016914.002098-.086811.060776-.156384.059006-.069599.10231-.167122.096992-.218109-.010567-.105679.112465-.184174.152954-.097065.023766.052181.148514-.172974.209763-.38129.012215-.04055.045296-.058723.073792-.03981.027863.018501.05204.001923.053406-.036469.001167-.037987.036995-.046535.078697-.018864.059196.039288.084473.018776.108795-.088238.034523-.154751.235764-.436131.38208-.535114.05513-.037704.093483-.135395.09388-.238152.000427-.108513.027458-.173248.071556-.171738.039146.001465.071678-.026474.072456-.062599.000877-.036648.026413-.049133.057365-.028679.057396.03791.201866-.215324.205963-.361305.000702-.041435.040985-.065796.088318-.055485.057312.012791.113358-.038143.164871-.148739.042946-.091869.107689-.169369.143639-.170692.035339-.001667.158974-.056683.27475-.122047.164169-.093483.234268-.099121.322594-.026417.086456.071171.128334.069664.179535-.008083.050667-.076958.086266-.07946.149277-.00914.045853.051098.09626.072651.112442.048073s.073158.016727.127701.091911c.061317.084892.130829.132977.185448.1273.048355-.00515.197525.041782.332733.104198.135765.062847.35363.128376.486603.146179.201988.027096.248352.052601.287567.156788.025467.068333.068428.125195.095154.125877.026939.00082.186913.074814.357437.165695.170052.090221.355499.158806.413223.152416.068558-.00692.093597.007507.07132.041336-.037399.056805.422127.359024.502632.33049.027283-.009518.13559.023109.239464.072735.104004.049347.251381.108288.32608.130215.074768.021915.149628.084881.166634.139877.028633.095436.443443.376015.47834.32383.00914-.013874.263321.12888.564583.317234.586342.366383.831734.482841.985497.4678.053268-.005444.163467.051403.245712.127163.082268.075718.194366.137669.250114.138199Z"/>
  <path class="uuid-56a30534-6679-4a0e-a250-64b3186ce636" d="m58.820835,53.45137c.028728-.163784.230389-.350582.304737-.282814.036621.033382.083176.042801.102913.021145.071709-.078671.296352.054379.883511.523552.161694.128849.344181.237411.405464.240097.060982.003017.141224.04443.178986.09177.037659.048199.108414.094154.15855.102238.049831.00909.096764.063442.105175.121983.010334.074165.036091.099941.086899.085098.039402-.011311.082352.016609.094234.060795.032558.124527.222057.291306.343037.302128.082603.007572.088196.015987.024239.035015-.048206.014515-.062153.045033-.032925.071674.028305.025799.096489.016983.152527-.019485.079338-.051559.123428-.036469.202549.070969.058079.078716.134117.12719.179146.11438.057281-.016457.082119.007809.093639.092995.009056.067997.043606.109436.083839.100849.083878-.017723.377571.223938.332504.27338-.018559.020363.037899.067902.125786.10701.088024.038963.195045.110744.238701.160751.046467.052635.096581.063271.119331.024879.022949-.037872.086021-.023342.150429.035366.061378.055946.09074.123711.065578.151314-.03257.035732-.014732.050976.064606.054558.07151.003414.105381.029346.096584.074844-.007214.038349.02924.086456.080807.106335.05172.020081.086308.0807.076878.133873-.012688.070026-.003445.082378.033638.043179.028309-.030014.087029-.023033.129971.01543.066895.05962.074429.05492.050789-.033672-.022289-.082424-.007202-.084503.076084-.010212.056984.051266.160519.107281.230957.124935.070137.017319.112839.047653.094719.067535-.018089.019844.18203.236282.44342.480431.35511.332005.495537.497623.553589.654594.054626.145592.149231.263214.310005.383644.127457.095749.233292.193844.234589.218845.001472.024139.124336.146683.273705.271606.15612.131409.264549.259609.256332.302994-.007942.040997.023674.081722.068748.089123-.393173-.436665,2.512856,2.182796,6.077263,5.470432.862007.794327,1.652878,1.492752,1.759613,1.554054.112442.064468.201683.152786.212547.210922.010605.054588.072144.125908.137215.158089.14431.071465,1.566269,1.334511,1.579445,1.403351.005333.027664.413719.411819.908447.853165,1.243309,1.109886,2.859604,2.5858,3.700111,3.378654.38652.364571.823204.741776.968918.835968.147392.095375.276375.210312.289207.25766.006348.023445.290375.299759.742729.726051.456017.423027,1.076767.998863,1.752716,1.625916,1.358871,1.246391,2.814072,2.581146,3.232292,2.964752,1.050529.954506,1.844582,1.675972,2.382576,2.164795.26519.229172.411812.340042.439522.332283.036339-.010178.077499.03492.097633.107468.027809.100639.075043.127869.242508.139793.16304.01181.217674.04213.252068.140594.031113.088776.074493.126694.148308.130173.077759.003838.096855.024895.075195.083092-.022125.059464-.008492.074188.057426.059921.092323-.020164.182877.06501.222839.20813.013557.049629.073723.090942.135918.094116.060234.00309.128433.038124.149567.077209.02137.039642.126389.094772.235062.123398.217453.05722.594376.348221.57637.444794-.006569.033997.024559.067986.068871.076309.115372.021271.255119.139389.188431.158226-.031235.008873-.014565.055458.036873.102348.051399.046852.09848.062294.104057.033691.005577-.02861.120285.041641.256561.155922.190834.161087.241028.233902.221512.323822-.023293.109276-.020073.111534.04747.039955.039543-.041893.08831-.064224.107941-.049911.353645.262207.617058.505623.606636.561218-.007019.037842.007088.085747.031807.108276.02491.022705.050079.009933.057617-.029137.006844-.038689.032326-.051788.057228-.029091.024208.022064.037888.075195.0298.117012-.00811.041855.0522.120644.132698.17514.080612.053993.14183.125626.135887.157898-.005768.032089.016243.064056.04834.070175.032272.005943.091095.075455.130646.153122.058662.117195.08886.131195.168045.079498.099815-.064964.235031.037857.217674.166-.004456.038223.065285.14875.155807.244789.192619.20433.20874.261307.067924.235657-.089218-.015907-.094101-.009804-.035248.045197.037727.035065.114494.061066.172249.058571.083138-.003853.091476.019585.042252.113815-.042686.081642-.031387.131592.034691.159821.05304.021896.067017.043228.031044.046768-.098953.009254-.087997.203865.016647.299255.0718.065445.069717.084724-.00959.088753-.147774.006699-.167061.04953-.082596.183022.063408.099739.058258.116219-.031403.102211-.090096-.013451-.09491.002663-.03167.102585.089668.141884.050255.20108-.111885.167282-.099136-.021355-.115486-.009201-.095024.071297.014893.060112-.048141.176392-.16526.304878-.121353.133141-.175575.235741-.15065.284843.028557.056404.006493.088188-.083633.120033-.06665.023476-.103874.058891-.082588.078293.070023.063828-.058029.371307-.147781.354576-.059952-.011414-.090271.024742-.119011.142517-.052124.211197-.316078.549316-.471481.604614-.093674.033142-.118454.065079-.09568.121223.025238.059669.014862.070312-.049843.050369-.066483-.02095-.082581-.003288-.08831.096893-.005386.092514-.01342.102371-.032211.038971-.013718-.045517-.044548-.062393-.067757-.036926-.037483.041122-.002136.114273.086578.17897.03112.023087.023567.035011-.238472.37793-.100861.131729-.207611.293747-.238899.361023-.040115.088249-.098122.116707-.209198.102661-.09005-.011719-.168022.017265-.188705.070465-.020828.054016-.07972.074013-.145096.050072-.103714-.037704-.106781-.0336-.052834.071388.076691.148857-.179024.490631-.291069.388504-.054131-.049347-.071548-.041817-.068077.029411.00312.071243-.036072.106224-.152679.136322-.097382.024895-.18576.094322-.233139.182594-.049828.092667-.094597.125526-.128372.094742-.032631-.029739-.050179.002502-.046349.085281.003387.073112-.0159.156609-.042549.184814-.033463.035599-.043381.023247-.032089-.039467.012489-.073524-.005112-.08754-.094223-.074989-.088211.012756-.095917.03746-.038246.125687.049316.076004.043831.11795-.018616.135315-.048828.013344-.106964.03727-.126877.052208-.020897.014977-.046402.027382-.058128.027924-.011894.000725-.071098.046822-.132126.103233-.061134.056244-.153709.120834-.206207.144363-.053169.023514-.109047.063446-.125336.089256-.057961.091202-.274078.185867-.290833.126686-.020805-.072479-.315643.06572-.332405.15551-.00663.035553-.0438.034691-.083672-.001648-.043495-.03965-.078316-.033363-.087448.01548-.010246.054733-.030899.049774-.063072-.014534-.026482-.052887-.066719-.07502-.089722-.049782-.022873.025093-.051743.010002-.063957-.033531-.015434-.053719-.035675-.04673-.061928.021553-.03289.084625-.046722.080276-.084343-.026001-.024139-.069565-.059731-.110603-.077148-.091499-.071709.078674-.313477-.014511-.357002-.137466-.042992-.122063-.222961-.235909-.238754-.151192-.011551.060844-.347-.250267-.350655-.32457-.002007-.032539-.056351-.056641-.122391-.053436-.065025.002831-.139091-.032959-.161629-.079269-.023247-.046631-.090065-.101585-.149414-.121986-.161629-.056473-.515778-.348564-.475967-.392242.043587-.047821-.143631-.187416-.31427-.233627-.07193-.019287-.222786-.123444-.336502-.232033-.11393-.108452-.220634-.180946-.238213-.161659-.017784.019508-.052803-.024315-.078453-.097626-.033867-.09623-.074997-.133713-.151718-.137276-.063736-.002892-.099785-.030815-.092247-.070557.007362-.038208-.06543-.10984-.175797-.172081-.147827-.083939-.183128-.129982-.163017-.214012.020447-.088051.003983-.108063-.095604-.112587-.066025-.003349-.171059-.062759-.232674-.132187-.061813-.069199-.143341-.132278-.181-.139877-.095306-.019768-.209618-.260422-.15303-.322502.030914-.03392.015785-.054276-.045799-.059532-.116089-.010025-.504227-.338379-.427094-.360283.030525-.008842-.012825-.101196-.095718-.204498-.08239-.103851-.137177-.203987-.120911-.221832.016472-.018074-.027237-.092216-.095894-.164742-.069-.072159-.128922-.193832-.132706-.268654-.005341-.111557-.023247-.132141-.096619-.111473-.069756.019966-.097412-.003281-.126297-.103554-.003716-.013069-.050781-.06459-.135849-.149757-.114265-.108894-.27652-.263519-.48008-.457512-.679131-.624687-1.633659-1.502701-2.772804-2.550529-2.289459-2.083755-5.320709-4.842667-8.362-7.610703-3.051613-2.756203-6.113136-5.52137-8.450333-7.632309-1.173656-1.049232-2.165382-1.935814-2.883213-2.577538-.83316-.741325-.878155-.7631-.952389-.81086-.096104-.045319-.266777-.17775-.37841-.294052-.120907-.125427-.192631-.173958-.176804-.119545.020187.070625-.008801.082832-.127529.052551-.101425-.025749-.145149-.059647-.127632-.099495.015301-.034897-.054482-.115692-.169819-.195724-.127457-.088104-.202404-.180229-.21386-.263336-.01577-.112808-.024567-.113251-.076103-.000969-.047733.103508-.083229.112755-.197739.051346-.167679-.090736-.25666-.247551-.156719-.276001.111744-.031967-.098145-.145279-.231144-.125175-.100243.015045-.106255.007538-.045689-.061131.068298-.077454-.03294-.229877-.1488-.224125-.089554.003616-.309731-.175972-.23962-.195957.085789-.02457.046101-.053101-.188854-.137501-.111046-.039387-.305347-.174549-.434025-.30043-.128376-.126286-.269203-.222584-.313736-.214329-.056595.009911-.072395-.007198-.053341-.058159.014591-.039608-.016567-.088779-.068989-.109501-.063416-.025059-.068657-.045734-.016148-.060589.047436-.013592.051716-.04805.010033-.086044-.038059-.034695-.085873-.044582-.105949-.02256-.020546.022541-.085911-.015526-.146332-.084469-.060402-.069267-.150864-.1273-.202305-.129944-.106564-.005932-.166321-.140034-.073757-.166615.055485-.015522-.150078-.173805-.347435-.26717-.038372-.018467-.051418-.054108-.028381-.07938.022533-.024723.009731-.051277-.028126-.058655-.037491-.007114-.040577-.043957-.006863-.080948.047863-.052509.031338-.080765-.071106-.121643-.148247-.058475-.396973-.30204-.47303-.462498-.02906-.06052-.120155-.113853-.222038-.130409-.107594-.017494-.167736-.054455-.159554-.097874.007381-.038528-.015408-.075134-.051132-.081585-.036232-.006638-.04475-.033886-.019756-.061306.046379-.050884-.183147-.233646-.327145-.260853-.040936-.007271-.058887-.051037-.041409-.096264.021465-.054722-.020378-.118298-.122013-.186855-.084404-.05711-.151222-.133511-.147003-.169312.00378-.035248-.0317-.166367-.078609-.291328-.067314-.177319-.062073-.24757.023571-.323418.083843-.074242.088814-.115917.019714-.178905-.068398-.062344-.065376-.09795.014015-.14912.057701-.037251.086838-.083691.064999-.103596-.021839-.019909.027885-.069706.110775-.111732.093555-.047192.15192-.10833.154758-.16325.002384-.048634.07196-.188721.154713-.312534.08326-.124298.181931-.32933.220215-.457954.058205-.195374.090672-.237152.199852-.25948.071571-.014393.13451-.047886.139343-.074192.005001-.026493.103096-.172928.219551-.32711.115726-.153831.212475-.326252.215168-.384277.00386-.068806.022038-.091274.052006-.063957.050327.045876.420837-.3606.405235-.444576-.005138-.028431.044052-.130268.109352-.225063.065044-.094963.14637-.231239.179749-.301556.033375-.070385.107319-.134434.16431-.142632.098766-.013348.440937-.379013.394905-.421585-.012268-.011181.168625-.239773.401958-.507706.453915-.521507.607525-.745472.616997-.89941.003052-.053371.076542-.153221.164257-.222584.087677-.069393.166496-.170338.17585-.225204Z"/>
  <path class="uuid-56a30534-6679-4a0e-a250-64b3186ce636" d="m130.388229,54.162399c.093353.120464.12561.394413.053574.413334-.035843.009369-.060455.040909-.054611.069622.020752.103313-.151062.207199-.669601.37952-.143585.043919-.277695.123314-.296799.179256-.020782.049217-.072983.09367-.116714.099628-.044327.005466-.097.03933-.117004.07618-.020645.036095-.071732.045498-.115402.021225-.055222-.030998-.081055-.023598-.084579.025639-.002914.038094-.034454.05809-.069321.04425-.0979-.039597-.271622.025253-.310455.115768-.026611.061798-.03418.061737-.032104.000828.001526-.046059-.017471-.073288-.044907-.063992-.026428.009472-.037735.06657-.023422.133381.019379.092297-.000977.123169-.096817.141079-.070358.013248-.122589.055592-.122375.099667.000275.056198-.022491.065876-.088547.036335-.05275-.02367-.091217-.013504-.092743.024254-.00351.079193-.242722.212296-.273117.15229-.012306-.024651-.059845.00058-.106247.055092-.045486.056747-.123116.104645-.166061.128002-.047256.020233-.062492.059895-.035835.094753.026108.034874.006485.084209-.047394.117092-.051338.031334-.108124.030266-.126686-.00214-.023903-.042034-.038368-.032387-.051125.034607-.011581.060265-.036011.079159-.071152.054104-.029594-.020973-.072502-.008141-.094528.028271-.022148.036449-.074814.042614-.116852.014416-.055328-.037365-.066582-.034115-.038902.012184.021141.035416.00898.082485-.02697.104088-.055893.033806-.052658.041786.022018.055553.069321.012585.069283.026237.00045.06778-.047531.028297-.10363.093433-.124611.145039-.02121.050514-.048851.076267-.063148.055035-.014717-.022522-.199631.085777-.413124.236179-.289818.204472-.437309.269951-.572891.276161-.120918.013657-.219574.07069-.319359.184456-.079292.090088-.161316.159901-.183037.155479-.020882-.004162-.124161.075489-.22934.176601-.112076.103546-.219696.171631-.255058.160801-.036011-.01366-.068687.008236-.071266.047215-.001518.022614-.056664.099087-.157898.219181l-.040131.047054c-.046356.049652-.09481.101551-.145309.155636-.188622.187531-.38398.398537-.567337.648632-.40081.470161-.799423,1.048435-1.201866,1.705803-.787552,1.32222-1.472885,3.051567-1.706261,4.998123-.059303.992073-.095818,1.9338.117882,3.07402.195206,1.122772.561592,2.34301,1.073425,3.637039.502464,1.261063,1.067825,2.42923,1.501503,3.142883.440536.736305.76886,1.11969.842918,1.195328.157928.155281.288414.313805.31411.392685.022835.079437.119049.194817.209961.258301.109093.087158.642212.577698,1.343269.948326.693069.380928,1.577499.642555,1.6185.680313.023735.008476.273193.101654.710541.20105.432602.103539,1.047119.220688,1.764114.295364.890915.093697,1.946854.146957,3.001205.144402,1.050323-.001831,2.096893-.062088,3.06308-.186394,1.94516-.239197,3.506149-.768326,4.402878-1.236626.852722-.41803,1.530884-1.033348,1.699982-1.237175.167694-.212349.339188-.409859.408005-.43573.018921-.028641.448227-.427956.913696-1.357803.470261-.91201.924301-2.454224.955414-4.305611.019867-1.824959-.358734-3.728027-.973816-5.247612-.607651-1.516907-1.305374-2.662682-1.653976-3.142094-.841064-1.29689-1.817642-2.268604-2.666626-3.06403-.454086-.365143-.836685-.749279-1.250427-1.007076-.282089-.199753-.537003-.380272-.764755-.541553-.242264-.132126-.37619-.187771-.398849-.173592-.030243.019432-.068253-.009121-.090714-.0686-.031021-.08255-.073853-.094021-.214966-.05637-.137131.036568-.184097.025444-.221069-.054176-.033401-.071766-.0728-.093868-.133469-.075245-.063919.01947-.081238.005913-.069214-.053982.012314-.061184-.000412-.070793-.052536-.038097-.072495.044529-.153412-.006275-.206863-.112839-.017746-.038395-.073135-.052872-.124603-.033089-.049896.019142-.110229.013313-.132858-.013348-.022903-.027042-.11615-.037357-.207428-.022709-.183289.029675-.521225-.089233-.523468-.183414-.000549-.033066-.030457-.052143-.066025-.04311-.091568.020695-.220444-.026459-.173386-.067963.022705-.021313.000458-.053467-.049118-.070698-.049545-.017223-.089188-.009628-.087692.017254.001434.026817-.101501.017853-.229233-.019711-.179062-.053638-.232361-.094555-.238205-.181274-.007416-.105312-.01059-.105953-.044647-.013634-.020004.054016-.051239.095158-.069016.09148-.321838-.068424-.567932-.173103-.578171-.212299-.005081-.034771-.028412-.066963-.052521-.072784-.024277-.005863-.038879.017731-.0336.05389.00563.035469-.009171.059486-.033188.053684-.023346-.005638-.047684-.04245-.053558-.081276-.005783-.038841-.071304-.072987-.144073-.076736-.072632-.003223-.136475-.031441-.141922-.061554-.005463-.029846-.030502-.045284-.054794-.033829-.024353.011703-.086136-.01622-.137482-.061302-.076889-.068604-.102463-.065052-.140274.019653-.048065.10656-.170502.089664-.200272-.028461-.009369-.034004-.092087-.094818-.185059-.126938-.199768-.047939-.231537-.084351-.128372-.146561.06546-.03981.066757-.047478.00737-.056599-.037994-.005703-.09874.018635-.135971.054527-.053528.051872-.067215.038116-.069717-.066029-.00209-.090263-.028595-.123638-.082825-.107624-.043167.01347-.060425.004501-.038223-.019371.061829-.06525-.020569-.215065-.127914-.23127-.073212-.011059-.079803-.027935-.029373-.077309.094589-.091419.091003-.137035-.020401-.196194-.083374-.044121-.08728-.060593-.02179-.101147.065628-.041317.062469-.057083-.022278-.1017-.120117-.063553-.120865-.1348.003128-.200829.076233-.039875.082504-.05917.033295-.112934-.036377-.04039-.045227-.171658-.022751-.344048.023483-.178616.013885-.293724-.026794-.319736-.046524-.029911-.046417-.06868.002075-.146389.035995-.057407.045685-.107758.021149-.111534-.079636-.012306-.140701-.338829-.067917-.376186.048981-.024742.05336-.071762.014618-.185318-.068771-.203968-.053772-.633926.034653-.767548.053421-.080402.055405-.120846.007202-.154617-.051971-.035313-.050064-.050022.010696-.069935.062668-.020084.065796-.043781.014786-.130264-.047241-.079945-.046646-.092682.003372-.050529.035965.030117.06926.026775.073318-.007435.006607-.055256-.061996-.096207-.167587-.100147-.037399-.001728-.037521-.015827-.030045-.449024.002991-.166531-.00798-.361736-.023453-.435539-.020935-.096268.008392-.15258.108185-.20282.081055-.040447.128326-.108128.112991-.164204-.015793-.056843.020935-.106396.090698-.122662.110443-.02602.110962-.031116.000519-.089184-.156021-.082108-.158295-.511368.004257-.487503.078232.011524.088669-.004414.0401-.062382-.048294-.058167-.037323-.109318.045364-.198997.069244-.07468.102768-.181747.087036-.282204-.016525-.105515.001663-.157856.052475-.15041.04895.007187.043686-.029617-.014877-.097393-.051712-.059849-.090652-.140953-.085617-.179405.006195-.048435.023682-.043427.05574.015739.038254.068962.063248.07111.136108.011768.072006-.05899.062851-.084064-.049622-.127132-.096512-.03727-.120346-.075741-.074982-.124611.035629-.037998.072891-.09.081055-.11351.009033-.02409.024155-.048504.034668-.055359.010529-.007103.033829-.078407.051895-.159424.018234-.08094.060425-.186024.093811-.234447.033981-.04879.059326-.112934.056717-.143677-.009277-.108906.132263-.306053.191101-.264595.070847.050369.263046-.225113.215973-.3106-.018936-.03389.018646-.053001.084518-.043186.071777.010712.102234-.013119.076416-.059711-.029022-.052212-.004684-.058964.073792-.021034.064484.031181.120758.028843.126083-.00489.005234-.033543.045319-.03587.088638-.005047.053726.037827.069366.021214.047653-.051044-.02681-.089752-.00943-.09333.104523-.022026.073959.046925.13913.063461.143616.038002.017639-.10508.334656-.150677.465698-.067318.131409.07481.388626.111847.350128.023689-.02861-.061741.526901.080608.578217.148155.023041.029224.095596.028191.163498-.002888.067017-.030342.168839-.028568.222229.004784.054367.033318.160233.056004.236725.050076.208832-.015938.77446.109921.756668.166679-.018066.060036.260056.135082.470673.123936.088516-.004833.310776.048321.494812.118645.184052.069992.340637.107639.349838.083202.009186-.024746.071609.007347.138962.07127.088531.08382.153503.107708.240997.087666.072647-.016712.12767-.000263.139755.040924.011581.039669.129715.087482.285538.115349.201797.051613.262634.091293.279556.182465.018448.09547.045395.112064.157303.093872.07431-.011719.218018.025738.317886.083439.09996.057365.218964.104282.264511.103954.115891-.000298.349426.222248.311646.297379-.020294.041172.005234.058681.076736.051128.135651-.015831.712265.242371.627472.287674-.030441.013721.051407.105972.180161.204361.12851.099102.224289.197948.212372.218948-.011978.021313.062195.093887.163208.161545.101395.067272.208832.187897.23735.265919.042252.11639.068497.135544.144104.105049.071716-.029346.110535-.008114.174622.093357.008286.013237.077438.061558.1996.140762.061371.039124.135681.086491.222.141521.266861.190052.570892.406567.909241.647537,1.213715.824913,2.523819,2.001492,3.905365,3.443897,1.32991,1.489819,2.685043,3.297565,3.819839,5.485065,2.239288,4.344872,3.615417,10.412354,1.527878,16.735184-.547745,1.576576-1.350037,3.173531-2.500763,4.615677-1.146622,1.435188-2.571548,2.656853-4.107666,3.570076-3.098846,1.824036-6.408524,2.510468-9.505539,2.77346-1.559616.126244-3.085083.136276-4.589203.069366-1.517975-.071381-3.093964-.23037-4.714897-.591263-1.614761-.359833-3.290878-.924278-4.880043-1.837708-1.595215-.885315-3.061302-2.20092-4.114983-3.525238-1.071938-1.334618-1.844315-2.693924-2.479248-3.973335-.625763-1.279091-1.137085-2.476814-1.605919-3.7714-.930206-2.552132-1.504501-5.30632-1.438019-8.031601.056122-2.672852.658318-5.050823,1.4366-7.040615.79982-1.987911,1.797783-3.582943,2.701653-4.867561.490616-.613525.920944-1.181263,1.343811-1.648521.248451-.265064.464775-.495857.6465-.689739.108246-.122154.173508-.199635.189079-.226234.068581-.110455.235054-.323803.399063-.444042.170578-.136005.242805-.215954.177414-.197781-.084793.023338-.092072-.008373-.028488-.141129.054283-.113457.104019-.162888.1446-.143616.035667.016747.144295-.061684.264328-.190884.132378-.142879.25602-.226574.351585-.238224.129715-.015961.132561-.025757.02195-.085743-.102074-.055347-.102875-.095425-.001663-.224449.144997-.193787.362907-.273281.359657-.16367-.001091.123692.198837-.095722.223015-.242901.018227-.110962.029175-.1171.085785-.045105.06424.080845.271896-.016056.307327-.143536.02813-.09869.312737-.323864.308678-.244297-.004272.096893.041351.056473.225388-.193748.083206-.122337.314751-.317162.521156-.426315.20195-.114132.376381-.245968.388176-.295052.015511-.062206.04248-.075954.09082-.045979.03772.023033.10762-.000732.155907-.052647.05851-.062851.084198-.064373.075562-.005398-.007515.053284.028969.064583.091194.027752.056831-.033627.090904-.082623.076172-.108528-.015167-.026459.059105-.088764.165359-.139229.106499-.05035.215576-.134888.244522-.189545.059402-.114937.249016-.133564.226463-.033981-.012733.060387.27774-.10434.494743-.27845.042557-.03381.089767-.036812.104607-.006004.014572.030113.051292.02483.081215-.011555.029472-.036114.07206-.028439.093437.016815.030495.064198.070778.055824.174873-.036106.150627-.132137.562355-.315685.783691-.334934.085419-.004787.202599-.071251.287849-.162392.090057-.096268.171036-.139626.212746-.114742.037018.022167.091896.014778.122902-.016903.031578-.032104.066864-.029476.079613.005363.023918.064358.374161-.081638.503365-.208305.036186-.036274.095284-.035545.13089-.00013.042976.043121.138771.0294.281982-.039097.118462-.058674.246918-.086998.28289-.062798.03466.020603.19976.053627.364975.07468.235023.029255.302452.069916.3162.183628.013489.111393.052223.136883.167107.108532.113892-.028057.147293-.006981.139542.088902-.005463.06971.01947.119137.055298.110363.03595-.008797.048492.060505.029572.154602-.0215.106068-.003052.188545.048538.219658.045944.027405.132294.16114.192398.298054.060577.137508.185715.331409.278549.433254.141083.154728.155838.205418.102921.310875-.035019.069035-.046158.140854-.025482.159187.020798.018559.088501.181473.150055.364494.061966.182148.15097.358692.199188.392971.0569.041176.06459.068981.022446.079216-.071381.017334.049881.55381.128616.587643.026749.011532.081833.109642.120941.217442.039551.107643.102463.252258.139389.319817.037033.067581.045563.165447.020157.21743-.04512.089691.055328.580482.111832.566978.015182-.003742.093109.276352.172165.622421.154388.673306.238647.929253.338043,1.027676.034698.033901.068054.152386.075165.264301.007248.111885.039444.235249.070831.275402Z"/>
  <path class="uuid-56a30534-6679-4a0e-a250-64b3186ce636" d="m61.160217,110.522293c-.120335-.117424-.157806-.389587-.056553-.411697.049828-.01088.085449-.043633.079014-.07222-.023396-.103828.222214-.211769.967739-.424332.20499-.058731.405746-.146194.445091-.194992.03941-.048355.122551-.090477.184868-.094284.062962-.003227.144127-.034935.18132-.071487.037834-.035736.111927-.041397.165783-.014038.068073.03511.105228.029366.123947-.0205.014679-.038551.064205-.056984.108227-.040688.123489.046661.377911-.00898.461262-.1007.057064-.062523.067486-.062119.043919.000908-.017609.047607-.000885.076836.039135.068787.038754-.00779.073376-.068245.077686-.135101.006142-.094612.045864-.121521.18362-.122574.100975-.000854.188004-.034042.205284-.07811.021835-.056152.057297-.06205.134773-.021309.061752.032631.11731.028976.13517-.008728.037384-.078194.418953-.175407.431793-.108368.005203.027054.07962.010406.166794-.036461.087143-.04705.213287-.089645.281784-.094574.072411-.0056.112602-.03933.095352-.080589-.016724-.041107.034866-.082878.123634-.099213.084595-.015564.158699.00161.165489.038338.008812.047539.032509.042419.085442-.018967.047867-.055222.090515-.066772.122231-.032394.026863.028816.089233.028534.138054-.000832.049088-.029358.120544-.02063.158028.01889.049202.052269.065109.052292.056541-.000984-.00663-.040726.036224-.08358.094833-.094856.091034-.017746.091995-.026611.004669-.060944-.081459-.0317-.073624-.045036.039886-.067116.078018-.014847.189453-.06414.248665-.109985.058731-.045815.110672-.061813.115334-.035316.004425.024902.308945-.000618.675194-.057251.497826-.07695.722504-.08625.886726-.035698.152824.04628.30864.0438.509651-.009285.159431-.042938.307526-.062469.328415-.048149.020378.013977.198891-.00499.396637-.043106.207382-.039307.380981-.043442.41024-.009811.027565.031906.080788.032814.116257.002304.020576-.017715.144096-.048607.354317-.089996l.082863-.016006c.127174-.020142.260101-.041191.398628-.063133.528008-.073196,1.098755-.152321,1.710121-.237076,1.223717-.162224,2.612671-.328331,4.150932-.478622,3.075516-.308571,6.750229-.546196,10.88015-.600677.516243-.00248,1.039528-.004997,1.56958-.007545.917046-.01059,1.944908.017235,2.925056.04364,1.990013.057961,4.027664.117302,6.109032.177925.127884.005798.265388.004509.385849.016136.051033.077728.003311.249138.009804.36937l-.03791.796074c-.025352.532021-.050835,1.066734-.076447,1.604095-.047096,1.075783-.094658,2.16214-.142662,3.258568-.02301.54837-.046127,1.099258-.069351,1.652611-.011276.488716-.022606.979607-.033981,1.47261-.006042.561623-.012138,1.128059-.018288,1.699074-.026405,4.376724.278717,8.307747.338028,8.751846.056961.469284.090057.935966.070648,1.114235-.01915.168526-.001144.517471.040573.775276.045448.285995.226494,2.196533.464241,4.053818.243423,1.854355.47789,3.640503.495018,3.77095.000359.042526.065262.583084.205315,1.41423.050858.30864.106216.644623.165314,1.003296.08757.477859.180672.985947.278183,1.518066.210205,1.06752.439392,2.231461.677803,3.44223.153275.758911.30954,1.532684.468254,2.318542.079369.393036.159348.789078.239868,1.187805l.060478.299591c.020111.09964-.15863.051315-.236115.079559l-.605438.064285c-1.620316.170227-3.278053.344391-4.951019.520142-1.534744.151276-3.08345.303925-4.62574.455933-.898796.076111-1.793854.151901-2.673302.226364-3.51915.282516-6.794067.467468-9.057907.56427-2.08181.0952-4.342682.185715-5.012932.235397-.6782.050125-1.355873.067627-1.518829.04631-.095726.000961-1.636345.016388-4.072098.040802-.609505.003082-1.274254.006439-1.985054.01004-1.064415-.004288-2.197784-.008835-3.386337-.013611-1.483093-.017258-3.035042-.035309-4.638668-.053955-.801849-.010757-1.616611-.021698-2.44215-.032776-.201328-.005905-.425095.001816-.608173-.016327-.056526-.134003.033726-.400345.043503-.594971.057541-.423325.115414-.849106.17358-1.277069.224377-1.725372.450737-3.466019.676163-5.199493l.123642-1.28186.078022-1.199783c.023972-.42334.061749-.835678.074028-1.260483.079601-1.68161.119076-3.322876.141495-4.818802.032154-2.996399-.011703-5.406937-.03735-6.481125-.05336-2.788177-.167694-5.237045-.282616-7.33934-.06908-1.048653-.11607-2.017921-.189465-2.89257-.048004-.605171-.091381-1.152069-.130135-1.640656-.033447-.340591-.070278-.514046-.095005-.527092-.033672-.016556-.033527-.075638.000668-.140594.047543-.090034.031113-.140511-.084255-.258392-.112175-.114868-.131931-.172035-.090725-.264954.037079-.083839.030739-.139297-.021282-.189789-.054695-.053299-.054527-.08078.000755-.10849.056484-.028305.056389-.047768-.001804-.080322-.081638-.045479-.090759-.165283-.023487-.294205.023552-.04451.007156-.113266-.036491-.155785-.042267-.041199-.068806-.110512-.057957-.152359.011047-.042404-.029015-.150024-.089653-.240723-.118156-.183823-.211826-.626816-.133099-.68573.027451-.020271.026665-.064331-.000999-.098206-.072296-.087921-.098621-.26062-.036221-.232361.029263.013214.047649-.030838.040215-.096962-.007431-.066078-.032433-.10675-.055557-.089577-.023129.017151-.062424-.105415-.088661-.273209-.036022-.235733-.025314-.319786.048813-.373032.089764-.06498.088848-.068672-.009037-.058601-.057301.005882-.108536-.008194-.113731-.030785-.087273-.413872-.135124-.741119-.090488-.775719.029831-.023003.050045-.065926.045765-.096924-.004314-.031242-.031765-.037048-.062771-.013405-.030235.023766-.058136.017998-.062439-.013168-.004181-.030296.019749-.076706.052944-.102066.033245-.025352.038204-.11821.012104-.205475-.026512-.086952-.026833-.175156-.001461-.195091.025124-.01989.029018-.056175.008533-.07962-.020733-.023415-.020596-.108734-.000538-.188744.031052-.120155.017105-.148285-.076496-.157028-.11787-.011238-.154217-.165359-.058304-.249214.027664-.02478.047283-.148834.038712-.269615-.022041-.250793.001118-.300606.094707-.20491.059555.060448.067196.058868.055767-.012871-.007446-.045853-.050957-.106674-.097462-.136475-.067112-.042717-.058903-.063934.038364-.104767.084312-.035332.106747-.077621.073009-.134117-.027554-.044769-.025074-.06781.005104-.050758.08276.047462.195869-.099602.174068-.226601-.014927-.08696-.001278-.100006.062862-.059654.119061.07589.160847.055473.178398-.089134.012905-.108192.027161-.117691.088146-.058105.061684.059448.075489.050354.088554-.058426.018669-.15435.086079-.1772.1912-.062408.063862.070732.08419.070938.118324-.000412.025814-.053032.147182-.104988.318233-.136047.177265-.03212.283203-.079056.294205-.130341.012707-.058807.049591-.07061.139641-.043861.066555.019875.117561.014107.112957-.012764-.015072-.088005.275017-.251205.33477-.18721.03978.04303.085854.032761.181049-.041618.171196-.132935.585911-.244629.74176-.196877.09383.028931.132938.018555.149582-.03904.016888-.061806.031548-.064156.070057-.0103.039284.055695.062805.051445.128838-.024254.061039-.069931.073391-.073021.049221-.011719-.017181.044106-.003338.075684.030529.069374.054714-.01017.071846-.089096.041874-.193047-.010284-.036827.003014-.041534.418919-.159439.159924-.045181.342945-.111473.408649-.147018.085468-.04715.148491-.035248.227486.043808.063835.064354.143055.088707.19183.058212.049381-.031097.108047-.011223.145084.048584.058914.094635.063873.093361.085255-.025459.030212-.168289.440052-.291122.466663-.136894.012833.074402.031212.079185.07177.018433.040848-.060547.09309-.064987.203762-.016342.092278.04084.204552.039642.2957-.003387.095757-.045143.151211-.043961.159355.003227.007858.045532.041367.030075.088509-.041283.041634-.063004.107502-.120445.145748-.126945.04813-.008324.048542.00843.001598.053589-.054443.053413-.048977.076271.029442.123184.077839.046204.098965.030701.106533-.080299.006809-.095375.036533-.127098.096691-.101357.046894.020332.10762.037918.132492.038284.025688.000969.05349.007118.063152.014282.009903.007118.0849.006874.167599-.000793.082676-.007469.195461-.001328.251526.013344.056595.015099.125275.018219.153851.007118.101257-.039124.330921.024109.308632.085754-.027164.075111.291931.155838.359535.090904.026749-.025833.055962.000015.065956.057991.010887.06321.042549.081512.07933.046112.041206-.039703.054756-.021431.041725.05526-.010704.063057.008141.109268.041801.103523.033463-.005745.047485.02684.030975.072189-.020081.056175.000351.064102.06263.024071.077446-.049446.085915-.036201.051872.079964-.02269.075653-.01899.134842.006516.130669.105011-.017548.242592.229195.203018.363396-.036545.135162.027466.347214.093994.289207.047447-.042091.110153.44017.065857.503105-.019066.027855.007721.084457.060875.126945.052139.042091.086815.12191.07489.17495-.011566.053795.005318.144127.038338.201416.089378.1567.178276.637489.119629.644958-.065147.007706-.005692.251266.092781.404526.041695.064445.087448.250107.102226.413788.01503.163673.048126.294151.074059.291138.026222-.003059.023964.055542-.004707.130768-.037476.098846-.030991.156555.024658.212418.046265.046349.055206.093193.023445.119049-.030624.024803-.022591.131165.019997.256332.056664.168129.053131.228638-.01722.280037-.073257.054298-.073952.08123-.00164.154076.047714.048561.088112.167984.089104.26487.001953.097122.020882.202423.043098.234108.057358.081291-.019432.345276-.103035.353455-.045677.004517-.048134.030586-.006035.077354.079292.088226.146461.609436.074577.572319-.028564-.014534-.058464.086075-.066429.222496-.008705.136497-.035393.250809-.059441.252991-.024353.00222-.041779.089005-.039642.191963.002632.102928-.034744.236954-.082245.296143-.071053.088051-.071625.116066-.003349.151855.065132.033775.070007.070763.023979.166649-.009323.018272-.00251.166359.008163.417999.050385.704231.111313,1.555794.18161,2.538239.089516,1.453911.188065,3.101158.264587,4.915001.14917,3.631477.274117,7.924408.183762,12.749191-.020111,1.205612-.054123,2.44635-.114212,3.723404-.014565.31926-.029205.640244-.043922.962906l-.058159.913391-.017906.229523-.025269.232849-.015938.117538c.003838.031433.069656.009552.101685.016953.16024.000916.322975.001846.487831.002792,1.223373-.009644,2.462654-.019409,3.715179-.029282,1.354431-.030594,2.723175-.061508,4.103333-.092682,2.759811-.082306,5.564072-.206711,8.388214-.375336,2.82415-.168533,5.668175-.381317,8.507561-.637558l.818726-.080338.12545-.014084c.032677-.011322-.005875-.074936-.005287-.109695l-.049698-.248413-.155235-.903412c-.137161-.898834-.273857-1.794632-.409988-2.686691-.243683-1.788116-.471863-3.563629-.638329-5.324799-.355972-3.520065-.548721-6.972534-.614227-10.299583-.021332-.831741-.025681-1.655731-.026237-2.471123.004913-.750847.009766-1.493706.014565-2.227928.004372-.166702.008629-.329475.012779-.487747-.159927-.001175-.3153-.002319-.465523-.003418-.475365.002876-.942581.005699-1.401199.008476-.641113.013176-1.270203.0261-1.886604.038765-4.931152.147911-9.035507.568024-11.982361.952232-.73597.102997-1.400986.196068-1.989899.278488-.120499.019814-.233208.038353-.337868.055565-.030472.006317-.058601.012154-.084312.017487-.102745.021889-.166374.038033-.185928.047653-.092377.045479-.295341.093254-.4505.105667-.167656.013786-.247574.038361-.196907.060638.065544.029198.057236.059319-.037056.131706-.080429.06192-.132271.074135-.151894.03537-.017197-.03392-.12027-.031311-.250053.006905-.14286.044281-.257187.046028-.32708.00312-.094986-.057877-.100578-.051262-.046059.058952.050079.101784.035927.13533-.078621.186668-.168289.074669-.34008.046638-.302551-.049202.041962-.107285-.168816-.013618-.232071.102837-.04776.087715-.056992.08773-.07357-.002319-.018639-.101562-.194916-.117203-.258858-.023094-.050056.072227-.316864.132553-.290985.065376.031677-.082283-.013664-.068985-.216286.062019-.095619.060783-.312119.133629-.483604.158417-.171593.024628-.327354.077385-.346764.117661-.025139.050835-.047424.052902-.075653.006752-.022064-.035698-.078003-.041016-.12429-.012169-.055977.034904-.074951.026443-.056068-.024155.016937-.045822-.007179-.070213-.060623-.060379-.048805.008972-.084076.040771-.078644.070076.005547.029991-.061569.058495-.149696.064278-.088379.005569-.185394.04174-.217003.080795-.065811.08062-.204025.046173-.171539-.043159.020035-.052422-.221588.010818-.406326.113892-.036186.019722-.071274.008881-.077797-.024689-.006371-.032837-.034302-.038437-.061584-.012497-.026863.025803-.057259.006264-.066841-.042854-.013596-.06974-.045029-.073364-.135147-.015656-.12986.083908-.460739.137726-.629379.102905-.063812-.012833-.157112.028305-.227531.099968-.074356.075676-.137146.101746-.166634.069321-.026085-.028885-.067673-.032471-.092827-.007729-.025581.025024-.051773.015594-.059288-.020737-.013786-.066956-.287064.006218-.388641.107254-.028526.028954-.072922.017929-.098785-.02269-.03109-.0494-.1045-.052612-.215088-.010246-.091965.03508-.189362.044617-.215302.020287-.025734-.023651-.149048-.071457-.27409-.106354-.177841-.048912-.230827-.094116-.243553-.207764-.012447-.111252-.042824-.13958-.131363-.120262-.087624.019104-.114334-.004089-.111027-.098251.002365-.068474-.018459-.119156-.046501-.113037-.028027.006111-.040154-.063194-.027542-.154892.014435-.103348-.001812-.186287-.044174-.220551-.037563-.030235-.110859-.16819-.163876-.307335-.053082-.139854-.162533-.339111-.24469-.444885-.124752-.160706-.140369-.211288-.096832-.31295.028728-.066498.037231-.137077.0187-.156273-.018578-.019432-.081535-.184097-.140499-.368164-.059063-.183266-.14415-.361839-.189838-.397621-.05378-.042976-.061741-.07077-.022442-.079338.065926-.014381-.053528-.551254-.131123-.58709-.026165-.012253-.081234-.111191-.121384-.219162-.040417-.107864-.105412-.252838-.14394-.320633-.038578-.067833-.048641-.16507-.022499-.21627.045959-.088219-.056816-.578323-.118694-.565285-.016331.003563-.100006-.27581-.185837-.620636-.167164-.670975-.263393-.925301-.386395-1.021423-.04277-.033142-.082943-.150566-.089184-.262154-.006283-.111572-.04417-.234009-.084644-.273125Z"/>
  <path class="uuid-56a30534-6679-4a0e-a250-64b3186ce636" d="m136.624619,100.126587c.128281-.105812.402939-.116745.415405-.016922.006149.049164.035416.086578.064484.082947.105621-.013199.189911.23391.331314.972076.039154.203011.107315.404114.152145.445976.044388.041924.078476.125542.076416.186066-.002701.061104.02121.142014.054062.18074.031967.039291.032333.111099.000671.161057-.040329.063087-.037506.099419.010757.121155.037292.017006.051804.066139.03212.107445-.056183.115807-.020523.365715.064392.45256.057861.059433.056656.069466-.004333.042366-.046066-.020302-.076508-.006165-.071594.033081.004745.038002.062302.075607.128586.084305.093811.012367.117523.05249.107834.185562-.007004.097572.019287.18383.061844.203354.05423.024719.057343.059303.010727.131538-.037292.057564-.037964.111511-.001801.131134.075272.041039.141464.415565.075073.423859-.027344.003418-.01532.076241.026062.163078.04158.086815.076294.210922.076981.277298.001099.070206.032288.110855.074524.096458.042053-.01387.080551.038155.091354.124634.0103.082413-.011414.153-.048477.157623-.047989.005997-.044327.029175.013641.083458.052139.049065.061035.090782.02478.119652-.030411.024452-.033966.084709-.00769.133324.02626.048874.013168.117432-.028564.151718-.055145.044983-.056137.060371-.002487.05468.041016-.004425.081116.03904.08876.096184.0121.088791.020889.090111.060486.007408.036621-.077133.049438-.068909.064468.041687.009995.075996.052292.185844.094345.245041.042068.058739.05481.10955.028122.112885-.026642.003326-.015198.297882.024826.653313.054153.483116.053268.700249-.004623.857285-.053085.146156-.057617.297035-.013672.49305.034653.155602.051346.298943.036087.318787-.014572.019302-.000824.192284.03154.3843.033264.201332.032364.36924-.002075.396866-.032669.026009-.03511.077507-.005661.112419.008896-.39547.436523,2.852028.917755,6.934464.116699.985283.243866,1.869301.282867,1.966942.041153.102791.04921.208794.018784.252846-.028259.041588-.029617.121529-.002396.177643.060303.124504.284103,1.718742.248322,1.77108-.014359.021049.035736.492989.112335,1.048912.192032,1.397575.419754,3.236153.521378,4.208916.046768.447319.122574.929893.168854,1.070091.046753.141884.066818.286736.045013.32476-.010803.018814.017975.35305.072952.876312.059875.523186.141357,1.235161.230087,2.010475.187775,1.549408.38887,3.208633.446671,3.685501.152039,1.198822.266953,2.104858.344833,2.718872.052643.346527.092041.526077.118134.538177.034241.015884.036224.076904.004379.145126-.044266.094574-.026062.145966.093475.263855.116241.114929.138077.173477.100235.27066-.034042.087692-.025711.144699.028122.195312.05661.053452.057449.081863.003159.11203-.05545.030807-.054657.050873.004715.082855.083282.044678.096756.168259.034119.303009-.021942.046524-.003067.117035.042145.159851.043777.041504.072845.112442.063507.155884-.009506.044022.034485.15416.09848.246552.128098.184784.225479.650909.149033.712616-.027084.021576-.025513.067627.002762.102753.073868.091141.103333.271729.040405.242706-.02951-.013535-.047119.0327-.038483.101761.008621.069016.034363.111343.05719.093231.022827-.018127.064362.109818.093689.285233.040359.246445.031189.334412-.042068.390076-.088715.067917-.087738.071732.010117.061218.057281-.006149.108856.008575.114471.032211.098404.429108.140427.785294.09639.82077-.029922.0242-.050339.069778-.046188.102982.004181.033432.031616.040085.062729.015289.030334-.024948.058228-.018356.062393.015076.004059.032501-.020065.081772-.053375.108307-.033371.026535-.038727.125626-.01297.219345.026184.09343.026169.187653.000687.208328-.025238.02063-.029282.059235-.008865.084747.020676.025482.020203.116547-.000198.201279-.03157.127197-.017715.157455.076065.169632.118088.015472.154037.181503.057571.267624-.028229.026154-.047043.155487-.040649.287308.013626.280472-.011154.334259-.101501.223251-.05748-.070068-.065155-.068604-.056168.011459.00589.051163.047348.120804.092865.156433.065689.051102.056793.074341-.041855.113968-.085495.034317-.109375.07962-.077484.144028.026077.051102.022842.076401-.006805.05571-.081223-.057266-.199371.097778-.181808.238281.012039.096405-.002075.109711-.064957.061234-.116684-.090942-.15918-.070923-.181717.085434-.016617.117004-.03125.12619-.090302.057281-.059738-.068771-.073853-.059662-.090729.057388-.024048.166107-.092468.185501-.193741.054443-.061478-.080658-.081802-.082047-.118561-.007568-.027756.055374-.15123.102783-.32373.124344-.178757.022324-.286636.065079-.299606.118607-.014954.061417-.052368.071243-.141571.03688-.065918-.025482-.117218-.022751-.113647.005829.011734.094025-.2854.244522-.342743.173477-.038147-.047638-.084702-.039856-.183075.030991-.176865.126648-.597214.212112-.751251.153152-.092743-.035675-.132339-.027512-.151505.029968-.019608.061752-.034393.063095-.070618.00589-.036911-.059128-.060638-.056168-.130096.016251-.064209.066833-.076721.069107-.049805.008698.01915-.043503.006683-.07637-.027496-.072098-.055222.006897-.075897.085464-.050507.192291.008652.037781-.004837.041931-.426834.132294-.162277.034576-.348694.088348-.416199.119156-.087845.041-.150421.024933-.225708-.057922-.060837-.067429-.138931-.096069-.189224-.069077-.050934.027527-.108688.004471-.142822-.056229-.054337-.096054-.059326-.094925-.086548.019943-.038452.162964-.45491.256561-.473694.10614-.009094-.072693-.027222-.078278-.070862-.021896-.04393.056183-.096451.057297-.204636.00441-.090195-.044357-.202484-.049026-.295868-.012726-.098083.038055-.153473.033936-.159134-.011414-.005478-.043808-.039764-.030701-.090652.034714-.044937.05777-.113846.108704-.152435.112808-.048569.00531-.04808-.010513.001251-.050842.057281-.047775.053009-.069855-.022873-.118225-.075333-.047623-.097244-.033859-.110748.070679-.011902.089813-.043335.118134-.102081.090744-.045792-.021591-.10553-.041183-.130356-.04277-.02562-.002182-.05307-.009338-.062332-.016541-.009521-.007187-.084473-.01062-.167511-.007401-.083023.003021-.195358-.008041-.250549-.024277-.055695-.016678-.124115-.022644-.153259-.013611-.103333.031662-.329117-.036835-.303391-.092697.031281-.068604-.282608-.155167-.353699-.097809-.028152.02272-.055847-.00209-.062531-.055634-.007294-.058395-.037842-.076248-.076523-.045059-.04335.034943-.055832.017761-.038498-.052032.014236-.057404-.001968-.100372-.035843-.096146-.033691.004211-.045837-.026016-.026825-.067032.023178-.050873.00325-.058716-.061081-.023865-.079987.042938-.087677.030655-.047211-.074585.026871-.068558.026474-.122879.000824-.119675-.105621.013199-.228836-.214737-.182007-.336472.046646-.120712-.016174-.324203-.083221-.270065-.048325.038727-.10112-.415726-.055618-.474579.019623-.026031-.006012-.079666-.058289-.120148-.05127-.0401-.084305-.115433-.071335-.165283.012619-.050552-.002457-.135742-.034302-.189804-.086151-.147964-.165512-.600113-.106873-.607437.064209-.008026.012619-.235779-.087051-.381805-.04213-.061401-.089111-.238602-.10498-.395035-.016113-.156464-.05011-.280899-.076004-.277664-.026199.003265-.024338-.052795.003815-.125198.036789-.095139.029892-.15036-.026108-.202927-.04657-.04361-.055832-.088257-.024277-.113571.030426-.024246.021652-.125992-.02179-.245026-.057816-.159866-.054718-.217804.015167-.268616.072769-.053619.073257-.079544.000504-.14769-.048004-.045456-.089233-.158875-.090958-.251663-.002014-.092773-.02298-.193695-.046661-.223953-.059601-.07695.009903-.334152.093246-.344559.045547-.005692.047272-.031006.003891-.075012-.081726-.083069-.163376-.584869-.0905-.551392.028946.013123.056-.085251.060135-.217636.004852-.132462.02829-.244186.052261-.247177.024261-.003036.039215-.087784.034164-.187531-.005554-.099686.027969-.231094.073715-.290436.068436-.088257.068192-.11554-.000992-.147507-.06601-.030151-.071915-.065796-.028702-.160782.005661-.012344.003372-.082092-.005951-.202103-.014755-.146408-.035706-.354218-.061981-.614914-.092682-.775574-.222931-1.86554-.378372-3.166336-.327118-2.599838-.760208-6.041969-1.194733-9.495552-.450073-3.451286-.901596-6.913795-1.246307-9.557205-.180267-1.320229-.332581-2.435829-.442841-3.243408-.127762-.914703-.155945-1.02562-.179947-1.098999-.043594-.096893-.087265-.308464-.096527-.469406-.010391-.173904-.033371-.257401-.056702-.205757-.030548.066803-.060516.057243-.131088-.042931-.060349-.08548-.071564-.139656-.032349-.158562.034302-.016586.033768-.123344-.001892-.259117-.039612-.149796-.036713-.268524.008575-.339127.061325-.095993.054932-.102051-.057205-.050201-.103546.047653-.136536.031624-.183655-.08947-.068497-.177933-.034225-.35495.060226-.311623.105713.048325.019806-.174194-.094345-.245346-.085968-.053703-.085648-.063316.005005-.076157.102249-.014488.124344-.196129.032547-.267044-.070419-.05545-.121063-.33503-.054794-.304657.081177.037071.06955-.010406-.054184-.227234-.058807-.102097-.118652-.3311-.134659-.510399-.015503-.179413-.059967-.344116-.099182-.366783-.049454-.029243-.050354-.052513-.002747-.078865.036835-.020622.045105-.078247.018723-.128059-.031921-.060257-.022461-.079376.0271-.056549.044876.0205.070526-.002914.063538-.058876-.006378-.051102-.036301-.089691-.065872-.085999-.030258.003777-.055206-.067627-.05632-.159294-.0009-.091904-.031952-.194794-.069336-.230232-.077133-.073761-.035416-.214516.052216-.174568.052261.024254-.001129-.229637-.090454-.428848-.017166-.038971-.003922-.074539.030014-.078781.033188-.004143.04071-.032646.016739-.062859-.02388-.02977-.002289-.059776.047379-.065979.070511-.008812.076309-.041023.025009-.138672-.074677-.140778-.105453-.487534-.05899-.65892.017242-.064888-.017334-.164619-.08403-.243408-.070404-.083214-.092102-.150398-.057663-.178078.030655-.02449.037109-.067116.01416-.095238-.023224-.028595-.011993-.05484.024811-.059433.068329-.008537.012634-.296608-.079132-.410858-.026398-.032127-.011597-.077057.031082-.100075.051865-.027649.061386-.103157.028687-.221313-.027039-.098259-.028183-.199753-.001709-.22422.025787-.024338.084015-.147049.129562-.272514.064072-.17852.113708-.228508.228088-.230499.111969-.001945.142838-.030396.131241-.123169-.011475-.091843.013962-.116936.107559-.10424.068069.009186.120392-.007179.11673-.036499-.003662-.029327.066483-.034866.156799-.012939.101776.024925.185867.016388.223709-.023514.033417-.035416.177338-.09668.320694-.137009.144058-.040375.352295-.132095.464981-.204971.171204-.11068.223022-.121338.320526-.06736.063751.035576.133347.051018.154114.034164.021027-.016891.190735-.064445.37944-.105957.187927-.041718.37352-.109901.413269-.152252.047638-.049789.076065-.055054.081085-.014816.008438.067574.554199-.00061.596909-.07457.014572-.024948.118134-.070389.22937-.100006.11116-.029915.26152-.080643.332596-.112396.071106-.031815.16893-.03244.217575-.001633.08374.054031.581436-.001541.574112-.063812-.00206-.016472.283981-.07267.635452-.124687.683899-.10141.946198-.171822,1.053421-.282669.037003-.038582.157745-.066719.269501-.062439.111725.004234.237244-.021271.279999-.0569Z"/>
  <path class="uuid-56a30534-6679-4a0e-a250-64b3186ce636" d="m113.862022,120.909492c-.095177-.136353-.084015-.411011.016487-.415421.0495-.002174.089142-.028343.087852-.05761-.004669-.106354.248413-.170517.995544-.252182.205505-.022736.41143-.074524.456757-.115852.045349-.040878.131439-.06813.191605-.061211.060692.007591.143257-.00975.184494-.039383.041733-.028709.113342-.0233.160591.01226.059647.04528.096085.04538.121628-.000984.019951-.035812.070084-.046326.10968-.023384.110924.065292.362885.04982.456268-.027847.063889-.05291.073784-.050888.041878.007713-.023933.044296-.012291.075768.027222.074028.038269-.001678.080368-.05603.094368-.121407.019859-.092506.061752-.112915.193619-.092583.096695.014824.184784-.004463.207664-.045303.028992-.052078.063713-.052399.131973-.000145.054382.041801.108109.046806.130562.012337.046951-.071732.425591-.107628.428528-.040794.001205.027519.07476.021393.164642-.012886.089874-.034477.216362-.059105.282585-.054451.070061.004532.113083-.023285.102127-.066544-.010452-.043037.044502-.077232.131569-.081055.08297-.003647.151588.023674.153221.060989.002121.048302.02552.046524.084282-.006912.053093-.048019.09539-.053535.121254-.015083.021935.032272.081711.040657.132286.018364.050819-.022247.118095-.003685.148926.040657.040405.058578.055672.060814.054298.006874-.001106-.041245.045441-.077721.103012-.08075.08947-.004929.091492-.01358.012238-.059692-.073944-.042702-.064713-.054817.046722-.060913.076553-.00386.189453-.037193.251831-.074371.061928-.037201.113602-.045822.114777-.018951.001183.026825.2957.039062.653198.027718.485901-.01519.702263.003136.854149.073441.141418.064659.291443.081291.490356.053238.157883-.022049.302094-.027184.320648-.010384.018074.016075.191605.016258.385597-.000572.203354-.016983.370644-.002609.395424.033936.023293.03466.074432.041222.111603.014664-.370239-.041641,2.824577-.203728,6.843735-.351677.969833-.03624,1.841736-.091148,1.939987-.122093.103424-.032669.207413-.032082.248016.001823.038345.031548.116196.039391.173035.016823.126083-.04998,1.698044-.143494,1.746307-.103577.019409.016014.483505.00444,1.03154-.026733,1.377731-.077827,3.188263-.155396,4.144714-.177635.439835-.010262.91629-.0466,1.056595-.081337.141983-.035065.28479-.043289.320175-.018471.017502.012291.345673.010765.860184-.001503.514832-.017166,1.215424-.04052,1.978333-.065964,1.525452-.061249,3.159027-.126846,3.628525-.145699,1.181808-.054176,2.074966-.095116,2.680267-.122864.34964-.024643.531769-.049492.545929-.074539.018585-.032845.079575-.029922.14502.007294.090698.05172.143387.037697.270493-.071983.123901-.106644.184006-.123695.277847-.078171.084671.040977.142166.037247.196945-.012352.057816-.052139.086212-.050682.111908.005844.02626.057755.046326.058571.082977.001961.051208-.079422.175476-.082932.304764-.009682.044617.02562.116409.012451.16272-.029167.044876-.040306.117935-.063583.160477-.050789.043121.013016.156433-.021988.253662-.078354.194489-.112846.666916-.172485.72229-.091331.019333.028725.065369.030861.102631.005501.096786-.066315.27916-.081177.245178-.020782-.015869.028328.028809.049583.098343.046532.069473-.003052.113739-.025314.097519-.049522-.016235-.024216.114624-.055336.29184-.070473.248886-.020447.335831-.004242.385437.073257.060577.09388.064453.093208.061829-.005173-.001526-.057587.017288-.107811.04129-.111519.435638-.063622.794052-.076912.825882-.030167.021713.031776.065506.055779.098923.054314.033676-.00148.042496-.02829.020279-.061302-.02243-.032242-.013626-.059509.02005-.060989.032715-.001434.079895.026573.103668.061913.023773.035393.122101.048691.21759.030533.09523-.018593.189148-.011009.207703.016052.018555.02681.056702.033943.083771.01564.027069-.018555.117798-.01078.200607.016365.124252.041687.155533.030304.175201-.062202.024902-.116455.193283-.138962.271378-.035889.023804.030235.151199.059372.283112.063591.28067.008942.332291.037956.214386.119102-.074448.051666-.073608.059441.006897.056908.051483-.001762.124237-.037491.163406-.080002.056213-.061371.078644-.050652.110229.050865.027344.087982.070587.11541.137329.088806.05304-.021896.078003-.01664.055008.011253-.063614.076363.081436.206573.2229.200356.097061-.004257.109177.010872.055817.069672-.100021.108994-.083481.152962.070557.187988.115311.025963.123291.041275.04985.094597-.073349.054024-.065384.06884.049927.095055.163635.037308.17746.107063.038696.197495-.085327.054794-.088348.074944-.017059.117561.052963.032104.090317.158989.097946.332672.007904.179977.041855.290939.094162.308167.060028.019829.066803.057922.025391.144073-.030685.063652-.032074.115013-.003311.113754.094666-.004158.22081.3041.145401.35556-.050552.034203-.046539.081223.016174.184967.112045.186462.163483.61232.092331.761131-.042999.089577-.03804.1297.0177.153427.059982.02449.060135.039345.000214.070854-.061905.032051-.060852.055923.005753.130974.061447.069374.062714.082031.004669.050346-.04184-.022591-.075592-.012794-.074081.021622.002441.055595.079102.082504.187622.065781.038345-.005592.041397.008186.09758.436089.021439.164513.060074.354652.085358.424416.033813.090851.012772.151932-.075867.220337-.072098.055214-.106903.130768-.084045.183067.023346.052971-.004288.108688-.06752.13784-.100098.04644-.09938.051514.012924.087868.159363.051407.219208.474037.067764.48069-.073181.00322-.080215.020844-.027512.068878.052475.048294.049362.100731-.012039.204323-.051468.086342-.06514.197899-.036453.293884.03006.100822.021515.155701-.024155.157707-.044098.001938-.033798.03717.027313.09314.053986.049431.099213.122215.10022.161011.001389.048836-.014343.047073-.050583-.005333-.043015-.060921-.065384-.058441-.119675.013313-.053528.071266-.041565.094215.061539.116058.088577.019081.114273.052689.082275.109047-.025208.0439-.04953.101868-.053101.126503-.004242.02536-.01358.052147-.021515.060799-.007904.008911-.017349.083344-.020813.166374-.003662.082993-.023712.194077-.044327.247787-.021088.054176-.032532.121895-.025864.15168.023254.10553-.063141.325081-.116776.29496-.065872-.036697-.177353.269241-.125885.344704.02037.029884-.006577.055489-.060471.057861-.058792.002579-.079041.031593-.051071.072655.031357.046021.013229.057076-.054947.034195-.056076-.018806-.10022-.006104-.098709.028008.00148.03392-.029617.043594-.068985.021347-.048843-.027184-.058258-.00795-.028687.058968.036377.083183.023514.089859-.078125.041069-.066177-.03228-.120361-.036255-.119232-.010429.004669.106346-.232422.210854-.350006.154404-.116577-.056183-.324448-.009918-.275879.061264.034729.051277-.422501.067406-.477493.017319-.024384-.021652-.079895-.000389-.124451.048462-.044083.047882-.121841.074768-.170471.057831-.049377-.016647-.135498-.008461-.191956.018944-.154404.073997-.611465.116791-.614059.057747-.002838-.064636-.234009-.031509-.387558.056114-.06459.037064-.24498.069664-.402191.072914-.157242.003502-.284027.02739-.282883.053467.00116.026375-.054565.020012-.124466-.013855-.091888-.044312-.147491-.04187-.204376.009727-.047211.042915-.092453.048553-.115143.015068-.021744-.03228-.123871-.031693-.246002.002045-.163986.044792-.221481.037056-.266525-.03669-.047607-.076836-.073395-.079407-.147171-.012352-.049164.044197-.165527.076187-.258163.070442-.092621-.00544-.194916.007362-.226959.028534-.081497.05323-.332291-.036705-.335968-.120621-.002014-.045853-.027115-.049606-.074463-.009895-.089355.074799-.596085.115868-.55687.045929.015396-.027802-.080475-.062675-.212097-.077415-.131653-.015488-.241135-.047813-.242188-.071945-.001083-.024422-.084366-.046143-.184189-.04911-.099808-.00248-.228104-.04644-.283569-.096802-.082489-.075302-.109695-.077263-.147125-.010857-.035355.063362-.07135.066391-.162567.015701-.011841-.006645-.081558-.009964-.20192-.010315-.145828.002899-.352814.007011-.612488.012177-.763474.02935-1.836456.070595-3.116959.11982-2.560562.114769-5.950714.266716-9.352142.419167-3.400375.168121-6.811829.336792-9.41626.465569-1.301384.07238-2.401054.133537-3.197121.177811-.898972.052887-1.019691.072418-1.093407.090378-.100082.035675-.314476.06221-.475639.058533-.174179-.003616-.259247.012589-.209648.039993.064133.035812.0522.064911-.053322.127213-.090042.053299-.144951.060104-.160645.019516-.013771-.035538-.120232-.043579-.25843-.018936-.152489.027466-.270599.015045-.337341-.035782-.090759-.068832-.097305-.062943-.054634.052994.039185.10704.020554.138641-.103928.175888-.182861.05397-.356552.0056-.305779-.085068.056648-.101486-.172043-.033737-.252129.074341-.06044.081375-.07.080292-.075516-.011108-.006226-.103073-.185501-.139694-.263565-.053879-.060921.065735-.343666.093765-.308075.030136.043472-.077927-.004784-.070145-.23085.035767-.106491.05043-.339554.09169-.519562.093246-.180077.001053-.347824.032135-.373566.069397-.033119.046951-.056389.045975-.078835-.003586-.017601-.038361-.074364-.051239-.126137-.028946-.06263.026978-.080925.016022-.054192-.031555.024033-.043091.002762-.070541-.053581-.068054-.051453.002258-.092323.028976-.091011.058746.001335.030472-.071846.049591-.163307.04335-.091675-.006485-.196732.016205-.235054.050613-.079712.070969-.216667.018082-.169815-.066055.028381-.05014-.228981-.017319-.434723.055725-.040222.013977-.074615-.002075-.076111-.03624-.001472-.033417-.029274-.043213-.061317-.021744-.031586.021408-.059769-.002518-.061958-.052521-.00312-.070984-.034767-.079361-.136215-.036057-.146324.063126-.494431.065948-.66153.005875-.063293-.022385-.165482.004074-.249374.064209-.0886.063492-.157303.079727-.182129.043182-.02195-.032516-.063927-.042389-.093796-.021759-.030365.020859-.055626.007553-.057251-.02951-.003021-.068787-.294632-.036407-.415886.045883-.034142.023727-.077744.005371-.09726-.039017-.023384-.053925-.097893-.069473-.218292-.046371-.100113.019073-.201363.012054-.223633-.016296-.022179-.027649-.139824-.095551-.261223-.151031-.172798-.078201-.218643-.131683-.211449-.245865.007057-.111763-.018822-.144806-.112228-.140709-.092461.004066-.115433-.023308-.095261-.115578.014618-.067108.00251-.120575-.027016-.119278-.029518.001297-.029404-.069077-.000298-.157341.033012-.099442.031258-.183952-.005478-.224876-.032616-.036156-.082123-.184525-.110817-.330658-.028664-.146835-.103371-.361763-.166969-.479935-.096565-.179535-.103027-.232056-.041389-.324898.040573-.060684.061554-.128822.046425-.150879-.015144-.022308-.04892-.195297-.075142-.386726-.026497-.190674-.079552-.381126-.118576-.424156-.045807-.051491-.048767-.080238-.008255-.082016.068031-.002991.0439-.55246-.026398-.600975-.023697-.016525-.060677-.123405-.081261-.236656-.020889-.113197-.05938-.267151-.085327-.340538-.025993-.073425-.018768-.17099.015846-.217003.060585-.079132.045158-.579689-.017502-.577385-.016586.000725-.049629-.288902-.073257-.64341-.046158-.689835-.095276-.95694-.197159-1.072731-.035484-.039978-.053833-.162598-.040596-.273636.013191-.111031-.002151-.238182-.034225-.283669Z"/>
  <path class="uuid-56a30534-6679-4a0e-a250-64b3186ce636" d="m81.277939,32.231827c.118179.113857.165024.384811.071945.409554-.045906.012203-.077492.045845-.070084.074192.026917.103527-.196426.216007-.876045.449318-.186714.066437-.367111.161179-.39994.211155-.032982.049553-.106949.094563-.164597.10075-.058311.005642-.131287.040241-.162842.077915-.032234.036877-.100166.046963-.152504.022533-.066162-.031212-.100204-.023476-.113136.027058-.010231.038834-.054298.060875-.096542.047493-.118538-.038155-.349564.034451-.41774.13113-.0467.065914-.056374.066208-.04081.002056.011604-.048447-.00679-.07634-.043159-.065636-.035233.010368-.06131.072716-.058502.139332.003906.09428-.030014.1236-.157494.133892-.093475.007641-.170647.046383-.181847.09116-.01413.057053-.046234.065243-.122566.030148-.060867-.028107-.112091-.020771-.124382.017784-.025703.080875-.367126.207039-.38678.143078-.008064-.02634-.074707-.002617-.149269.052246-.074509.055054-.185326.109379-.247856.120869-.066071.012539-.098747.049786-.077431.088928.020775.039051-.02124.085323-.100777.109985-.075798.023499-.146408.013664-.157669-.02195-.014549-.046108-.035782-.038738-.076218.026978-.036591.059132-.074257.074623-.108307.04377-.028862-.026154-.086197-.018791-.126953.015659-.040993.034477-.107933.033791-.148163-.001068-.052856-.046139-.067566-.044373-.051941.007282.011986.039478-.021233.086559-.073517.10421-.081215.027653-.080727.036491.004654.060665.079559.02224.074257.036289-.026764.070637-.069496.023289-.164551.084248-.211945.135956-.046967.051628-.092171.073105-.100555.047543-.008324-.025524-.282944.037914-.609299.140053-.44268.141682-.645332.185932-.805168.15871-.148315-.02364-.291122.001171-.465874.081963-.138771.063915-.269829.107906-.291817.096878-.020981-.009518-.181725.034225-.353676.107456-.180893.074692-.338158.109043-.371803.081303-.031693-.026375-.08049-.017918-.106529.018105-.015114.020912-.121391.072735-.304474.149937l-.072227.030132c-.400475.151028-.819054.308884-1.255302.473404-1.824638.692535-3.7715,1.507454-5.822746,2.447178-4.106792,1.868248-8.613594,4.29678-13.248531,7.443966-4.600243,3.180134-9.33786,7.097519-13.594013,12.032372-4.245247,4.929436-7.992609,10.871849-10.591759,17.744255-.304909.866035-.611898,1.737976-.920927,2.615707-.243036.898079-.487677,1.802086-.733891,2.711899-.247919.909416-.497425,1.824646-.748482,2.74556-.161093.940353-.323181,1.886528-.486246,2.838394-.148069.953865-.365808,1.903984-.464464,2.876335-.077408.975212-.155264,1.95607-.233559,2.942467-.242872,1.967346-.111399,3.980537-.132832,6.005882-.036758,1.013962.11348,2.031807.184309,3.055504.097582,1.022751.147394,2.054398.280775,3.084991.362406,2.05159.567776,4.146065,1.11046,6.213051.858955,4.169868,2.241171,8.326683,3.877581,12.456032,1.572807,3.957253,3.426249,7.702934,5.354216,11.073021.963573,1.68689,1.934902,3.282028,2.90078,4.791077.245724.379791.488087.75441.726894,1.12352l.089382.138153.047768.063324.089104.126633.324326.417511c.466682.582489.975121,1.174973,1.473873,1.736298,4.08427,4.52095,7.488575,7.255219,8.128464,7.823257,1.421207,1.179504,2.863712,2.307968,3.380047,2.767044.497211.42186,1.58263,1.253876,2.41465,1.842819.469398.315643,2.221951,1.580872,4.689274,3.168213,2.475708,1.5728,5.688278,3.424576,8.965683,5.037216,6.53418,3.305481,13.381737,5.301468,13.763824,5.414291.080078.024323.623695.189438,1.540741.467987.930275.228165,2.231049.581787,3.825027.952011,3.194427.709976,7.574959,1.444885,12.36853,1.752655,6.022804.382874,12.568794.088089,19.138832-1.007767,6.618248-1.144928,13.306816-2.843643,19.493248-5.059387,6.210175-2.192001,11.842255-5.083984,16.630417-8.108643,1.170166-.794388,2.381897-1.479141,3.431808-2.299088,1.055145-.813187,2.077393-1.601059,3.062485-2.36026.244659-.191467.495605-.371979.728775-.567062.223373-.205536.444519-.409042.663391-.610458.43837-.4021.86763-.795853,1.287277-1.180786.82016-.787231,1.688171-1.460266,2.361008-2.234207,5.337357-5.377686,9.496902-12.496475,10.27504-14.795731.259827-.55394.519333-1.107224.766357-1.633896.124786-.262848.246399-.519028.363327-.765335.091278-.257736.178894-.505112.261642-.738754.332916-.93367.595673-1.644394.707504-1.915649.02562-.069092.166168-.447998.410995-1.10807.121582-.330612.268982-.731438.440781-1.198593.180527-.464218.277603-1.03244.447052-1.64592.303635-1.238457.71344-2.725273,1.116745-4.456322.267639-1.766174.570511-3.764854.903595-5.962845.070541-1.114677.144272-2.279892.220947-3.49144.039688-.605751.080139-1.223076.121307-1.851463.053772-.628281-.009338-1.269066-.007812-1.919579-.025009-1.301506-.050827-2.645195-.077377-4.02684-.113571-1.376411-.282303-2.787254-.422226-4.233978-.717438-5.765121-2.208954-11.998352-4.70015-18.174927-2.47171-6.178375-5.856766-12.137222-9.791855-17.41267-3.919159-5.29007-8.341339-9.915615-12.704468-13.691845-.543823-.474766-1.080826-.943573-1.610489-1.405979-.543793-.444508-1.101562-.855503-1.638733-1.275818-1.094986-.811314-2.092697-1.692165-3.167618-2.375076-1.052261-.716343-2.065704-1.406254-3.035812-2.066669-.998871-.612106-1.977707-1.1553-2.891678-1.694668-.917084-.534222-1.784271-1.039383-2.596878-1.512749-.847778-.405972-1.638596-.784676-2.367599-1.133774-1.467957-.675053-2.642105-1.338108-3.612762-1.674458-1.238327-.482754-2.457779-.958153-3.658356-1.426197l-.896347-.351273-.913589-.281094c-.606567-.186878-1.208275-.372265-1.805145-.55616-2.365852-.81015-4.744781-1.284157-7.017235-1.835373-4.594276-.881504-8.927177-1.494263-12.974907-1.621353-2.017242-.156738-3.964111-.076727-5.824173-.105804-.930412.020576-1.840118.076506-2.729568.110661-.88987.031626-1.758522.075203-2.603851.163383-.846268.073332-1.672165.144899-2.477676.214701-.801636.101307-1.582993.200052-2.344063.296232-.391815.052315-.773186.103235-1.144112.152761l-.063354.011978c-.328011.06275-.497467.107298-.508064.133741-.013908.034678-.071831.038408-.137909.008558-.091591-.041515-.140022-.021805-.247459.100971-.104691.11939-.159241.142817-.253296.107805-.084862-.03149-.138809-.021542-.184532.033623-.048286.058006-.075218.059631-.10643.00633-.031876-.054459-.050972-.053091-.078621.007044-.03862.084347-.155327.101242-.286774.042606-.04541-.020573-.111633.000252-.150047.046513-.037231.044807-.103172.075756-.145027.067669-.042419-.008247-.144928.038673-.229187.104969-.170158.127224-.600723.259312-.664719.184238-.022148-.02578-.065544-.02153-.096786.00872-.081047.079002-.249275.11882-.226349.054382.010727-.030212-.03418-.045086-.098831-.032471-.064598.012604-.102737.040722-.083961.062428.018753.021713-.099022.070518-.262428.10984-.229645.054413-.313416.050323-.371956-.019375-.071388-.084366-.074974-.08316-.057098.013603.010445.056648.000725.108814-.021149.115765-.397354.122536-.730362.183746-.766541.146091-.025421-.027798-.07003-.044308-.100761-.037395-.030952.006962-.034599.03484-.008446.063755.026215.02813.022644.056454-.008255.0634-.030022.006752-.07843-.013165-.106468-.044117-.028038-.031002-.121468-.028042-.206848.005432-.08503.033855-.173378.041695-.195343.018082-.021904-.023373-.058563-.024162-.080444-.001728-.021828.022678-.107315.029812-.189034.016621-.122795-.020741-.149872-.004429-.151329.089718-.002068.118572-.153679.167999-.245132.079433-.027634-.025837-.15126-.033722-.274551-.016403-.262383.036472-.31575.017536-.221786-.081985.059441-.06282.05722-.070316-.017265-.054695-.047775.009514-.10778.059322-.135857.107891-.040054.070625-.062767.064228-.111679-.029526-.042351-.081272-.087761-.100159-.144325-.061703-.044792.031296-.068909.030754-.053108-.000847.043961-.086685-.116066-.187458-.2463-.155067-.089249.022194-.103577.009632-.065742-.057896.071213-.125397.047287-.165451-.103294-.171028-.112648-.003937-.123268-.017426-.065475-.083366.057594-.066612.047279-.079659-.065742-.083763-.1604-.005936-.187782-.071571-.076042-.186153.068901-.069679.067772-.090008-.007706-.118336-.056145-.021492-.116928-.138689-.159286-.307302-.043839-.174732-.098396-.276941-.151428-.283855-.060844-.008011-.075096-.043987-.053352-.136202.016174-.068161.007111-.118719-.019974-.111988-.088867.022085-.272308-.255367-.210945-.320175.041245-.043169.027908-.08844-.053307-.177891-.145271-.160915-.282944-.567398-.244659-.726889.023239-.096039.0103-.13435-.048569-.146664-.063118-.012236-.06636-.026731-.014725-.069292.053444-.043474.04763-.066656-.03241-.127031-.073914-.055817-.077766-.067945-.014839-.048346.045273.013889.07605-.002316.067566-.035706-.01368-.05394-.093773-.065201-.195938-.027493-.036194.013016-.041847.000097-.18528-.407267-.055-.156652-.132324-.334904-.1717-.398064-.052132-.08209-.044189-.145996.02916-.230646.059738-.068438.078705-.149355.045372-.195936-.033958-.047146-.018066-.107206.038628-.148458.089699-.065586.088051-.070433-.030731-.083397-.168358-.018255-.315475-.419436-.165596-.456724.072357-.017998.075821-.036686.01339-.072989-.062241-.036606-.069977-.088524-.029594-.202438.033936-.095001.025116-.207035-.023178-.29513-.050667-.092554-.053238-.148024-.00766-.159363.044006-.010946.026566-.043344-.046371-.085585-.064407-.037302-.124916-.099222-.133835-.136984-.01136-.047512.004929-.049042.052177-.005205.055824.050774.077812.043756.118195-.037701.039719-.080828.023087-.100857-.085648-.100958-.093452-.000397-.12635-.027966-.105377-.08976.016609-.048185.029549-.109989.028198-.134846-.000832-.025711.003235-.053875.009537-.063995.006233-.010363.000809-.085217-.012405-.167253-.013-.082037-.014931-.195013-.004662-.251925.010651-.057472.008797-.126207-.003975-.153996-.044998-.098499-.000282-.331745.060822-.313503.074677.022181.129082-.301254.061394-.364439-.026871-.025003-.004128-.055803.05098-.069502.060097-.01494.07534-.047682.038475-.082056-.041321-.038517-.024757-.0532.050064-.045156.061523.006605.104599-.015173.096481-.048344-.00808-.032974.022194-.049049.067116-.03553.055641.016371.061684-.004501.018333-.063953-.053558-.073969-.041504-.083252.072906-.056847.074554.017704.131256.010172.125214-.014961-.025101-.103512.200821-.257254.333817-.222141.131424.033218.338783-.051392.27552-.112249-.045448-.043873.427338-.145988.493217-.106989.029121.016731.083069-.014637.120926-.071138.037537-.055458.113838-.096594.167336-.089062.054222.007114.142372-.017145.19648-.054781.148079-.102007.617195-.230185.629356-.172327.013313.06159.248672-.006603.39502-.117916.061508-.046871.244652-.107779.40815-.135977.163467-.02845.292122-.072184.287071-.097792-.005135-.025896.054001-.028465.131905-.00606.102356.029253.159882.018044.211754-.042036.043037-.049953.089478-.062717.117943-.033163.027313.028503.133659.011763.256287-.040983.164764-.070314.225914-.071756.282967-.005789.060196.068621.087311.067116.155067-.010994.045204-.051571.162254-.101664.259613-.110584.097229-.009928.202263-.037518.233101-.061554.078354-.063011.352074-.005371.366409.077402.007904.045214.034531.045797.078949.000486.083778-.085369.608162-.18955.575523-.115196-.012733.029522.091461.052172.2304.050413.139091-.001024.256866.017483.260727.041323.003922.024134.093124.035362.197357.025932.104179-.00993.242577.017872.305733.061092.093987.064671.122375.063271.154106-.007399.029884-.067383.067078-.074863.167274-.0357.013023.005144.085823-.000164.210922-.014666,1.197769-.143959,2.901039-.348675,5.038155-.605536,3.6576-.387148,7.710838-.493345,12.104996-.438461,1.098076.058317,2.217545.117771,3.357933.178337.570045.032707,1.145317.065714,1.725754.099016.57872.062538,1.162598.125631,1.751564.189276,1.177277.133106,2.377426.246908,3.592491.404999,1.209717.204315,2.439186.411966,3.687927.622871,1.253975.18189,2.506752.47998,3.777374.786692,1.268433.313112,2.570076.573088,3.862106.94593,2.565025.813747,5.244057,1.522964,7.861671,2.634699,5.339752,1.944971,10.617798,4.792589,15.866074,8.088049,5.215195,3.363289,10.221008,7.45797,14.896118,12.181931,4.674072,4.723095,9.018555,10.090816,12.78154,16.078663,3.750519,5.987236,6.956329,12.59066,9.168945,19.720856,2.214447,7.121468,3.477173,14.733795,3.557358,22.494408.065018,7.743248-.924103,15.66877-3.374329,23.372841-2.44252,7.692062-6.470947,15.043869-11.803406,21.334671-5.318024,6.312561-11.848724,11.556244-18.929398,15.702637-7.090088,4.156586-14.722946,7.260254-22.528015,9.54274l-5.894684,1.540207c-1.975388.45546-3.964897.832474-5.946259,1.250122-1.984802.402252-4.036102.656677-6.052086.973557l-3.057243.309265c-1.017853.112396-2.037201.204895-3.062012.236481l-3.067818.148239c-1.022957.027451-2.047424.003983-3.070267.007233-2.04702.039627-4.087784-.144302-6.127396-.236664-4.066536-.368378-8.118095-.882446-12.079666-1.775314-7.938545-1.710754-15.544716-4.520142-22.624386-8.093536-7.061794-3.617874-13.603096-7.985153-19.512218-12.930801-2.955936-2.476395-5.758522-5.082184-8.384003-7.887863-.65733-.70372-1.30341-1.417053-1.94149-2.164047-.657463-.786346-1.222878-1.412933-2.00087-2.568649-.991968-1.536957-2.006535-3.107346-2.938307-4.711548-3.792366-6.382889-6.84292-13.066193-9.079824-19.867439-2.191545-6.818138-3.507259-13.778397-3.84218-20.621216-.304145-6.849136.474586-13.534904,2.018698-19.745224.427238-1.543785.807135-3.086433,1.271271-4.585701.529434-1.47847.999514-2.961533,1.617659-4.373329,1.122791-2.86824,2.518818-5.549538,3.949121-8.118992,2.96978-5.080673,6.388119-9.563618,10.049355-13.336712,3.641289-3.796879,7.430435-6.978043,11.148846-9.626545,3.714989-2.657364,7.331226-4.835331,10.720581-6.627232,3.391056-1.791077,6.545906-3.219584,9.377926-4.380505.706383-.294798,1.395454-.565639,2.063477-.820988.533592-.201675,1.04837-.396236,1.543968-.583549.037384-.015682.071869-.030148.103355-.043356.125732-.05344.202576-.08919.223465-.104649.088638-.065628.293579-.158638.454605-.205944.173882-.05147.253555-.093779.196335-.104362-.074112-.01405-.070847-.045633.015831-.138559.074188-.0788.127403-.101168.154778-.067205.024078.029867.132759.005707.263794-.059237.144524-.071936.266182-.095371.347298-.066593.110207.038879.115051.031279.03952-.067146-.069557-.090914-.059959-.12677.0541-.199785.167824-.106564.355293-.112125.329842-.009861-.028168.114363.181297-.018991.23143-.146805.03788-.096285.047783-.09812.078613-.011913.03495.097433.223785.078377.278618-.026403.04319-.080452.320068-.187572.301521-.116255-.022476.087286.023743.066193.222466-.099794.093475-.078699.317009-.184496.497734-.236944.180893-.051983.341499-.129442.357697-.17272.021088-.054714.044792-.06036.080284-.018837.027794.032297.087944.027939.134697-.007107.056389-.042854.077744-.03718.062981.015938-.013168.048065.01545.068863.071754.051378.051422-.015966.085861-.052731.076889-.08115-.009193-.029079.059937-.067194.15406-.085678.094383-.018305.194862-.068384.224945-.111956.062737-.090038.214714-.075565.188446.018438-.016029.056118.23571-.044487.42572-.170336.037224-.024313.075974-.01795.085922.014772.009735.032001.040237.034061.067329.004673.026665-.029202.061035-.013523.075539.03438.020752.068373.054214.066839.146751-.000559.133148-.098286.486313-.189281.670151-.173159.069565.005747.166939-.045778.237991-.125463.075043-.084143.141121-.117329.17485-.088055.029884.026079.074783.025074.100319-.00255.025993-.027966.054733-.021404.064972.014254.018547.065014.308517-.036121.413643-.14534.029465-.031286.078163-.02387.108116.01469.036087.046921.11554.044237.233139-.007095.097832-.04254.20269-.059931.231667-.0376.028763.021662.163704.059778.2994.084976.192757.034658.25193.07831.269096.190826.017067.11068.050621.137093.144913.112038.093353-.024807.122612-.003246.121902.091408-.000443.068823.023384.118315.053101.110418.029732-.0079.044678.060869.034111.153591-.012131.104517.007912.186623.053886.218384.04081.028011.122711.161869.182922.298233.060394.137037.181496.330433.270393.431864.135025.154106.152405.204069.110565.308352-.027657.068232-.034035.139404-.014229.157631.019875.018467.090431.180071.157227.361403.06694.180515.15995.355091.207634.38868.056198.040379.065186.067842.025551.078367-.066673.017704.074242.549347.153458.581646.026779.011047.085693.107559.129799.21385.044403.106157.114532.248425.155296.314629.040833.066238.054329.16317.030403.215517-.042252.090267.079124.576141.139114.560673.015884-.004219.109055.271917.206688.613497.190231.664635.293419.915552.414261,1.007757.042046.031769.085114.1479.095947.259199.010902.111282.052162.232449.091896.270363Z"/>
</svg>