<?xml version="1.0" encoding="UTF-8"?>
<svg id="uuid-4612355d-a1ae-41f9-bdc7-9f82b29bcc45" data-name="Layer 1" xmlns="http://www.w3.org/2000/svg" viewBox="0 0 543.92627 543.928223">
  <defs>
    <style>
      .uuid-f388ddae-c81f-4f4a-a87d-c1cc9a6e9ec2 {
        font-family: Outfit-Bold, Outfit;
        font-size: 66px;
        font-variation-settings: 'wght' 700;
        font-weight: 700;
        fill: currentColor;
      }
    </style>
  </defs>
  <text class="uuid-f388ddae-c81f-4f4a-a87d-c1cc9a6e9ec2" transform="translate(207.169434 64.922852) rotate(-14.785553)"><tspan x="0" y="0">I</tspan></text>
  <text class="uuid-f388ddae-c81f-4f4a-a87d-c1cc9a6e9ec2" transform="translate(224.675293 59.073242) rotate(-6.041709)"><tspan x="0" y="0">N</tspan></text>
  <text class="uuid-f388ddae-c81f-4f4a-a87d-c1cc9a6e9ec2" transform="translate(271.604004 54.117676) rotate(5.826861)"><tspan x="0" y="0">C</tspan></text>
  <text class="uuid-f388ddae-c81f-4f4a-a87d-c1cc9a6e9ec2" transform="translate(315.481934 58.856445) rotate(16.399991)"><tspan x="0" y="0">L</tspan></text>
  <text class="uuid-f388ddae-c81f-4f4a-a87d-c1cc9a6e9ec2" transform="translate(348.497559 67.874512) rotate(26.70265)"><tspan x="0" y="0">U</tspan></text>
  <text class="uuid-f388ddae-c81f-4f4a-a87d-c1cc9a6e9ec2" transform="translate(388.112793 88.020508) rotate(37.386203)"><tspan x="0" y="0">S</tspan></text>
  <text class="uuid-f388ddae-c81f-4f4a-a87d-c1cc9a6e9ec2" transform="translate(417.700684 111.344727) rotate(44.775777)"><tspan x="0" y="0">I</tspan></text>
  <text class="uuid-f388ddae-c81f-4f4a-a87d-c1cc9a6e9ec2" transform="translate(431.747559 123.236816) rotate(54.013077)"><tspan x="0" y="0">O</tspan></text>
  <text class="uuid-f388ddae-c81f-4f4a-a87d-c1cc9a6e9ec2" transform="translate(461.993652 164.980469) rotate(67.007646)"><tspan x="0" y="0">N</tspan></text>
  <text class="uuid-f388ddae-c81f-4f4a-a87d-c1cc9a6e9ec2" transform="translate(479.560059 209.413574) rotate(74.924703)"><tspan x="0" y="0"> </tspan></text>
  <text class="uuid-f388ddae-c81f-4f4a-a87d-c1cc9a6e9ec2" transform="translate(482.805176 221.457031) rotate(78.244714)"><tspan x="0" y="0"> </tspan></text>
  <text class="uuid-f388ddae-c81f-4f4a-a87d-c1cc9a6e9ec2" transform="translate(485.35498 233.711426) rotate(81.565955)"><tspan x="0" y="0"> </tspan></text>
  <text class="uuid-f388ddae-c81f-4f4a-a87d-c1cc9a6e9ec2" transform="translate(487.376465 245.800781) rotate(86.192302)"><tspan x="0" y="0">•</tspan></text>
  <text class="uuid-f388ddae-c81f-4f4a-a87d-c1cc9a6e9ec2" transform="translate(488.712402 268.582031) rotate(90.92886)"><tspan x="0" y="0"> </tspan></text>
  <text class="uuid-f388ddae-c81f-4f4a-a87d-c1cc9a6e9ec2" transform="translate(488.525879 281.175293) rotate(94.034431)"><tspan x="0" y="0"> </tspan></text>
  <text class="uuid-f388ddae-c81f-4f4a-a87d-c1cc9a6e9ec2" transform="translate(487.648926 293.637207) rotate(97.323085)"><tspan x="0" y="0"> </tspan></text>
  <text class="uuid-f388ddae-c81f-4f4a-a87d-c1cc9a6e9ec2" transform="translate(487.260254 305.506348) rotate(104.807682)"><tspan x="0" y="0">C</tspan></text>
  <text class="uuid-f388ddae-c81f-4f4a-a87d-c1cc9a6e9ec2" transform="translate(476.623535 348.100098) rotate(117.458912)"><tspan x="0" y="0">O</tspan></text>
  <text class="uuid-f388ddae-c81f-4f4a-a87d-c1cc9a6e9ec2" transform="translate(452.182129 393.686035) rotate(128.95437)"><tspan x="0" y="0">L</tspan></text>
  <text class="uuid-f388ddae-c81f-4f4a-a87d-c1cc9a6e9ec2" transform="translate(429.683105 421.660645) rotate(138.367968)"><tspan x="0" y="0">L</tspan></text>
  <text class="uuid-f388ddae-c81f-4f4a-a87d-c1cc9a6e9ec2" transform="translate(404.383301 445.145996) rotate(148.8787)"><tspan x="0" y="0">A</tspan></text>
  <text class="uuid-f388ddae-c81f-4f4a-a87d-c1cc9a6e9ec2" transform="translate(364.375488 469.132324) rotate(160.453151)"><tspan x="0" y="0">B</tspan></text>
  <text class="uuid-f388ddae-c81f-4f4a-a87d-c1cc9a6e9ec2" transform="translate(326.247559 483.461426) rotate(172.682386)"><tspan x="0" y="0">O</tspan></text>
  <text class="uuid-f388ddae-c81f-4f4a-a87d-c1cc9a6e9ec2" transform="translate(274.960449 489.659668) rotate(-175.190678)"><tspan x="0" y="0">R</tspan></text>
  <text class="uuid-f388ddae-c81f-4f4a-a87d-c1cc9a6e9ec2" transform="translate(235.789551 486.98291) rotate(-164.145005)"><tspan x="0" y="0">A</tspan></text>
  <text class="uuid-f388ddae-c81f-4f4a-a87d-c1cc9a6e9ec2" transform="translate(190.983887 474.098145) rotate(-152.563353)"><tspan x="0" y="0">T</tspan></text>
  <text class="uuid-f388ddae-c81f-4f4a-a87d-c1cc9a6e9ec2" transform="translate(154.725586 454.45752) rotate(-144.678857)"><tspan x="0" y="0">I</tspan></text>
  <text class="uuid-f388ddae-c81f-4f4a-a87d-c1cc9a6e9ec2" transform="translate(138.912598 445.028809) rotate(-135.43757)"><tspan x="0" y="0">O</tspan></text>
  <text class="uuid-f388ddae-c81f-4f4a-a87d-c1cc9a6e9ec2" transform="translate(102.199707 408.782715) rotate(-122.508172)"><tspan x="0" y="0">N</tspan></text>
  <text class="uuid-f388ddae-c81f-4f4a-a87d-c1cc9a6e9ec2" transform="translate(77.526367 367.875488) rotate(-114.635013)"><tspan x="0" y="0"> </tspan></text>
  <text class="uuid-f388ddae-c81f-4f4a-a87d-c1cc9a6e9ec2" transform="translate(72.316895 356.519043) rotate(-111.311272)"><tspan x="0" y="0"> </tspan></text>
  <text class="uuid-f388ddae-c81f-4f4a-a87d-c1cc9a6e9ec2" transform="translate(67.772949 344.873535) rotate(-107.981629)"><tspan x="0" y="0"> </tspan></text>
  <text class="uuid-f388ddae-c81f-4f4a-a87d-c1cc9a6e9ec2" transform="translate(63.772949 333.291504) rotate(-103.306064)"><tspan x="0" y="0">•</tspan></text>
  <text class="uuid-f388ddae-c81f-4f4a-a87d-c1cc9a6e9ec2" transform="translate(58.709473 310.989746) rotate(-98.642302)"><tspan x="0" y="0"> </tspan></text>
  <text class="uuid-f388ddae-c81f-4f4a-a87d-c1cc9a6e9ec2" transform="translate(56.82959 298.628418) rotate(-95.340944)"><tspan x="0" y="0"> </tspan></text>
  <text class="uuid-f388ddae-c81f-4f4a-a87d-c1cc9a6e9ec2" transform="translate(55.664551 286.169434) rotate(-92.063532)"><tspan x="0" y="0"> </tspan></text>
  <text class="uuid-f388ddae-c81f-4f4a-a87d-c1cc9a6e9ec2" transform="translate(53.694824 274.534668) rotate(-83.737941)"><tspan x="0" y="0">O</tspan></text>
  <text class="uuid-f388ddae-c81f-4f4a-a87d-c1cc9a6e9ec2" transform="translate(59.773926 223.239746) rotate(-71.614035)"><tspan x="0" y="0">P</tspan></text>
  <text class="uuid-f388ddae-c81f-4f4a-a87d-c1cc9a6e9ec2" transform="translate(72.182129 185.537598) rotate(-61.205414)"><tspan x="0" y="0">E</tspan></text>
  <text class="uuid-f388ddae-c81f-4f4a-a87d-c1cc9a6e9ec2" transform="translate(90.602051 150.913086) rotate(-49.837173)"><tspan x="0" y="0">N</tspan></text>
  <text class="uuid-f388ddae-c81f-4f4a-a87d-c1cc9a6e9ec2" transform="translate(122.286621 115.180664) rotate(-42.03224)"><tspan x="0" y="0"> </tspan></text>
  <text class="uuid-f388ddae-c81f-4f4a-a87d-c1cc9a6e9ec2" transform="translate(131.585449 106.797363) rotate(-38.740524)"><tspan x="0" y="0"> </tspan></text>
  <text class="uuid-f388ddae-c81f-4f4a-a87d-c1cc9a6e9ec2" transform="translate(141.330566 98.977539) rotate(-35.44999)"><tspan x="0" y="0"> </tspan></text>
  <text class="uuid-f388ddae-c81f-4f4a-a87d-c1cc9a6e9ec2" transform="translate(151.205078 91.669434) rotate(-30.808282)"><tspan x="0" y="0">•</tspan></text>
</svg>