<?xml version="1.0" encoding="UTF-8"?>
<svg id="uuid-5eed3a8e-daad-4b46-a460-ad435a05d42d" data-name="Layer 1" xmlns="http://www.w3.org/2000/svg" viewBox="0 0 200 200">
  <defs>
    <style>
      .uuid-d886842a-faa0-4858-9b11-c5454bf6ca70 {
        stroke-width: 0px;
        fill: currentColor;
      }
    </style>
  </defs>
  <path class="uuid-d886842a-faa0-4858-9b11-c5454bf6ca70" d="m103.96875,27.664965c.153595-.05463.417023.0254.398651.119953-.009033.046629.007385.090082.036041.096209.104034.022287.109344.273743.020294.986889-.024231.196245-.020355.399548.009613.451227.029541.051632.036621.137747.016357.191904-.021088.054501-.022827.135065-.003296.180082.018524.045265-.002869.110331-.048157.146032-.057526.044973-.065857.078793-.026489.11297.030365.026609.029297.075422-.001984.106951-.088623.088085-.130524.325495-.075928.429132.03714.070856.032928.079569-.016998.037125-.03775-.031925-.071075-.028061-.078308.008991-.007019.035883.036438.086853.097015.114088.085724.038616.096191.081781.046539.199459-.036285.086329-.037415.172071-.002716.201965.044708.038181.038818.071074-.025543.124117-.0513.042284-.066528.091846-.03714.120302.061096.059473.023438.423174-.042542.412046-.027161-.004602-.035339.065969-.019073.15769.016418.091753.016174.215832-.001129.277206-.017914.065033.001038.111183.045502.109661.044159-.001072.067078.057541.054077.140152-.012421.078728-.052368.137753-.089264.131817-.047729-.00771-.050507.014694-.00946.080666.036835.059547.034088.100388-.008575.117077-.035858.014214-.055603.068817-.043488.120815.011993.052216-.019165.111839-.068573.132156-.065247.026546-.070374.040504-.017242.049778.040649.007042.067444.05798.059326.112732-.012421.085152-.004333.088699.056183.023148.056122-.061207.066223-.05014.05072.055771-.010986.072708-.000031.185265.024414.250988.024536.065311.023041.115463-.00354.111446-.02655-.004044-.095337.270382-.153259.608562-.082581.458195-.130066.662979-.225067.79472-.086761.123142-.127716.263283-.13269.45779-.00415.154339-.022736.292652-.042328.307446-.018799.014446-.047424.179874-.062653.367714-.016632.196762-.058258.353859-.098358.371414-.037994.016434-.052856.064156-.032776.104034.011658.023144.008972.142368-.006409.342251-.029419.261818-.064819.57682-.105652.940067-.064331.481506-.104462,1.036495-.164398,1.645519-.234467,2.436279-.543823,5.811302-.713593,9.711376-.115204,1.86306-.107544,3.550282-.096283,3.74147.022705.202522.012207.402386-.025452.476795-.035095.070335-.050323.21928-.033264.331017.02005.247036.013184,3.282707-.020599,3.372597-.008514.017967-.016174.250759-.021545.611435-.002014.360859-.004791.849083-.007782,1.378593.028992,2.662323.101807,6.158806.169464,8.003784.024872.848541.063904,1.769722.115814,2.040665.044739.274719.062622.549973.040131.617317-.011169.03331.012512.665459.059387,1.657127.043732.991989.111816,2.343391.237732,3.809731.197876,2.938774.556213,6.064575.636322,6.966263.124512,1.165871.268585,2.183197.376556,3.062279.056824.439018.10907.842606.156708,1.210754.024231.184006.047302.359146.069214.525436.012115.077652.02359.151176.034424.220558.061279.336082.105103.509911.131531.521095.034637.014679.038116.073975.007965.141106-.041962.093048-.022461.142738.100006.254463.11908.108887.142334.165154.106873.260719-.031891.08622-.022156.141502.032928.18924.057892.050415.059418.078003.00589.10891-.054688.031563-.053375.051086.006744.08049.084351.041061.1008.160789.041534.293884-.020782.045967-.000183.114037.046021.154282.044769.038994.075531.107079.067261.149666-.008423.043152.038208.148933.10437.236618.132446.175453.240936.624992.166138.688034-.026489.022049-.023804.066833.005249.099907.075928.085815.109711.260315.046204.23465-.029755-.011986-.046204.033752-.035919.100662.010284.066856.036987.10701.059326.088409.022339-.018593.066864.10421.100342.273705.046295.238144.038605.324394-.030762.38131-.085205.069809-.084045.073479.013275.058678.056976-.008652.109314.003113.11615.025665.120514.40963.180817.751335.138641.788017-.028656.024971-.046692.070137-.040833.102005.00589.032112.03363.037048.063446.011398.029022-.025757.05722-.020882.06311.011192.005737.031174-.015839.080093-.04776.107574-.031952.027473-.032196.123596-.001648.212799.030975.088867.035797.179993.011414.201462-.024109.021416-.026154.059006-.004456.082512.021942.02346.026154.111572.010162.194801-.024933.125015-.009552.153534.084656.159615.118591.007851.162994.166084.071198.255463-.026794.027061-.03891.153465-.025726.280746.028015.270767.006104.324631-.089691.222939-.060913-.064178-.068481-.062279-.055389.014786.008514.049248.053436.114075.100647.145584.068115.045166.060425.068245-.035797.113342-.083435.03904-.104858.084663-.069763.145012.028625.047844.026703.072617-.003876.054565-.083923-.050095-.193542.108627-.168732.244118.017029.092911.003662.106865-.061493.064102-.120941-.080338-.162262-.057999-.176514.09594-.010406.115189-.024475.125221-.086884.062195-.06311-.062859-.076721-.053017-.087341.062386-.015198.163773-.082275.187737-.190063.066856-.065491-.074455-.085815-.07444-.118439.000984-.024719.056084-.145142.111252-.315765.1446-.176788.034531-.281921.084122-.291931.137627-.011597.061394-.048309.073746-.138977.04631-.067017-.02037-.11795-.014069-.112854.013802.016785.091576-.270813.261246-.331787.19532-.040619-.044258-.086517-.033325-.180573.043655-.169159.137672-.582825.252792-.739502.2052-.09436-.028831-.133331-.017952-.1492.040535-.016022.062767-.03067.065186-.069977.01088-.04007-.056168-.063538-.05159-.128601.025398-.06015.071068-.07251.074234-.049103.012177.016602-.044662.00235-.076485-.031464-.069832-.054596.010742-.07074.090469-.039398.195091.010742.037025-.002472.042046-.417419.162537-.159576.046165-.342072.113358-.407501.149078-.085083.047394-.148315.035828-.228088-.041962-.064484-.063339-.143951-.086632-.192444-.055984-.049133.031227-.108002.012123-.145538-.046516-.059723-.092796-.064636-.091362-.085022.02607-.028778.166527-.437897.290482-.465546.139915-.013367-.072716-.031738-.077126-.071869-.017174-.040436.059761-.092651.064598-.203583.0186-.092499-.03862-.204651-.035706-.295502.007454-.095428.045258-.150848.044891-.15921-.000702-.008087-.044037-.041473-.02845-.088226.041367-.04129.061661-.106873.118118-.14505.124947-.048065.008736-.048523-.007401-.001831-.051727.054169-.052422.048584-.074516-.029938-.118507-.077942-.043289-.098969-.027863-.106079.079292-.006409.092087-.036011.123055-.096191.099213-.046936-.018837-.107635-.034729-.132477-.03466-.025665-.000488-.053436-.00592-.06311-.012634-.009918-.00666-.084808-.005104-.167358.003754-.08255.008652-.19519.004898-.25119-.008003-.056519-.013313-.125061-.014877-.153564-.003716-.101013.039246-.330322-.015953-.308136-.074875.026947-.072174-.291412-.140701-.358734-.077393-.026642.025108-.055786.001427-.065826-.053085-.010925-.059456-.04248-.075859-.079132-.041405-.041046.038612-.054565.021751-.041626-.050995.01059-.059837-.00824-.102936-.041779-.096489-.033325.006409-.047333-.023888-.030945-.067192.019928-.05365-.000427-.060478-.062439-.020752-.077087.049034-.085541.036858-.051758-.07373.022491-.072067.018707-.127823-.006683-.123001-.104553.019974-.241821-.207176-.202728-.335068.039001-.126724-.036407-.332222-.100006-.272903-.045837.042549-.127014-.421913-.085205-.484741.017975-.027786-.011017-.081535-.065765-.120445-.053741-.038567-.091492-.114357-.081635-.166252.00946-.052605-.010895-.139389-.046112-.193405-.095398-.14782-.202972-.609123-.144745-.619255.063721-.011162-.002014-.242706-.11084-.388527-.04599-.061295-.104034-.241478-.129639-.401619-.027679-.160042-.061188-.286964-.088348-.282608-.026031.004364-.026031-.053413-.000366-.128929.033539-.09922.024841-.155716-.032837-.207779-.047943-.04319-.058685-.088814-.028015-.115944.029602-.026024.017456-.13031-.029907-.251244-.063049-.162453-.06189-.222168.006256-.276627.070923-.057457.070557-.084045-.004395-.151802-.049469-.045197-.094391-.160522-.099182-.255859-.005066-.095276-.029358-.198372-.054047-.22879-.062103-.077446-.001099-.343658.08194-.356483.045349-.00705.046234-.033058.001404-.07711-.084442-.083092-.182495-.596466-.108521-.563721.029388.012794.053284-.08876.053101-.224609.00058-.135971.020416-.250969.044312-.254517.02417-.003601.036407-.090752.028137-.192833-.008759-.102028.020569-.237244.064484-.298767.065674-.091545.064575-.1194-.005737-.150963-.067047-.029755-.074127-.066185-.033875-.164078.00528-.012726.000763-.084061-.01239-.206703-.025085-.205032-.06073-.496376-.105469-.861916-.170166-1.526634-.492798-3.668777-.72702-6.231247-.542267-5.121811-1.019104-11.912285-1.149017-18.735298-.147888-6.822594.049103-13.677067.407928-18.918381.152069-2.61953.397095-4.838467.531281-6.442841.045166-.401733.086029-.765106.122192-1.086914.016907-.149384.032684-.28912.047363-.418839.003113-.040066.005981-.077034.008606-.110798.009857-.135098.013123-.219051.008911-.244469-.017944-.107857-.007141-.330685.024261-.494141.033569-.176689.032288-.266087-.003265-.220341-.046356.059097-.072968.041977-.116119-.076366-.036987-.101028-.03421-.15823.008484-.167122.037384-.007835.06366-.114864.063263-.260014-.000732-.160225.031891-.278397.093445-.33725.083405-.080059.078735-.087769-.042725-.065144-.112122.020699-.140015-.003918-.155151-.137611-.021484-.196301.056152-.364662.136566-.296291.090057.076233.062897-.169018-.029541-.270645-.067871-.076797-.064606-.086437.026215-.075108.102509.01268.175171-.163418.106903-.259224-.052032-.074539-.021576-.368851.033569-.320339.067566.059177.069794.008598.012268-.242641-.027618-.118458-.020264-.364719.015198-.548981.03598-.184202.039978-.361786.008759-.395594-.039185-.04328-.033447-.066895.019745-.079853.041199-.010267.06546-.065651.054291-.123055-.01355-.069456.000946-.08593.042023-.048956.037262.033285.068512.017122.077667-.040886.008362-.052971-.009399-.10014-.038818-.104889-.030121-.004848-.033783-.083525-.00885-.175667.025208-.092295.024597-.204264-.00119-.250582-.053009-.096233.026947-.225153.099609-.159647.043213.039425.064026-.229975.034973-.455618-.005371-.044056.017426-.075741.051117-.06996.032959.005646.048279-.020622.033875-.057917-.014435-.036831.014771-.060448.064087-.051937.070038.012064.084717-.018358.063293-.131121-.036346-.162302.049805-.519926.148132-.677267.037231-.059727.036316-.170063-.001831-.269487-.040222-.105003-.039276-.1791.00235-.196159.037018-.015045.056824-.055706.044037-.090992-.012878-.035845.006226-.058638.042694-.051783.067657.012663.107178-.292629.056763-.435947-.01474-.04048.013763-.080774.061646-.090265.058136-.011225.0914-.083614.098297-.21207.00592-.106789.037445-.208555.070404-.224463.032257-.01602.126862-.119745.210297-.229948.117981-.157047.181-.190424.290009-.155136.106689.034548.14505.016378.163757-.079369.018524-.094803.050629-.111307.135193-.068052.061523.031389.116302.032328.122192.002151.00592-.030197.074097-.012621.152618.038597.08844.057922.170807.076937.21936.050053.042938-.023947.19873-.037052.347321-.029591.149231.007593.375519-.013819.50528-.047789.197144-.051582.249512-.044655.324768.039783.049133.055494.110168.093256.135132.083721.025238-.009495.200958.000057.3927.021864.191101.021307.388245.016582.439148-.011017.06073-.032169.089294-.027853.081421.012398-.013184.067701.525055.18084.588562.124403.021576-.019014.13382-.028345.248383-.02.114563.008013.272736.009239.349884.002527.077209-.00676.170013.024794.206543.069803.062531.078501.551178.188526.563477.127813.003143-.016138.291382.024723.640289.091047.678986.12882.948975.149349,1.08432.082582.046814-.023367.169739-.009668.274292.030739.104553.040344.231201.05793.282501.039398Z"/>
  <path class="uuid-d886842a-faa0-4858-9b11-c5454bf6ca70" d="m67.089935,57.227428c.120361.72538.00592,1.184875-.019348,1.419842-.036835.238785-.022461.306282.05661.234909.072632-.076363.225769-.301804.327209-.800556.105804-.4776.077362-1.33321-.319519-2.06768-.092804-.177429-.192505-.331341-.290039-.463177l-.03653-.04847-.004547-.00592-.001129-.001472-1.435089,1.108822.004089-.003056.016327-.012215.032532-.024349.12854-.096375.248535-.187363c.315857-.241711.60379-.46207.857208-.656002.059021-.045799.115906-.089954.170685-.132446l.004242-.001541.008728-.004013.017548-.01152c.042358-.03191.083282-.048656.135071-.03511.11441.078217.257019.204269.520447.454193.137329.130966.307861.251026.367188.257332.059418.00692.133759.052597.165985.101364.032013.049603.096649.099133.144836.11021.047394.011822.089539.06897.092377.127125.003571.073814.026703.101002.078156.089817.039886-.008472.079742.021961.087524.066349.021271.125122.192719.302238.311981.32143.081207.013191.08606.0219.021118.036327-.04895.011044-.065308.040283-.038544.06868.02594.0275.094208.023468.15271-.008785.082825-.045593.125214-.027653.194702.084126.051025.081909.122314.135098.167908.125462.058044-.012417.080597.013283.085022.098465.003479.068012.034668.111549.075226.105782.084686-.011806.357178.248062.308624.294071-.02002.018944.032318.069992.116455.114807.084137.044624.185181.123314.224823.176003.042206.055496.091217.069496.11673.032894.025665-.036068.08728-.017319.146851.045422.056793.059792.080872.12915.053772.154877-.035034.033302-.018463.049675.06012.05864.070801.008263.102478.036343.090332.080982-.010071.037621.022614.087963.07251.111294.050018.023525.079987.086216.066711.138481-.017761.068817-.00946.081741.030304.045273.030365-.027927.088318-.01696.128235.024261.062195.063908.070038.059742.052979-.030037-.016144-.083549-.000977-.084583.076477-.004963.052948.054913.151855.117725.220642.140099.068481.021999.108795.05513.089355.073704-.01944.018517.164429.247948.40741.509216.331055.356277.459229.530895.506989.692616.045013.149948.131378.27417.28476.407352.122955.10759.223969.215729.223755.241062-.004242.026855.094604.119823.382019.443817.273132.27504.427399.561798.438538.632942-.000793.029675.012756.068138.034821.105961.013428.025227.025574.035183.047607.044743.024292.009205.102905.098644.226654.255848l.048492.062103c.052094.071442.106537.146111.163269.223927.202789.282211.422028.587254.65683.914001.480377.645756,1.024597,1.377293,1.625946,2.185658,2.440765,3.204941,5.97583,7.516754,10.458649,12.062927,2.137482,2.18528,4.193176,4.015747,4.440125,4.208817.261902.202148.499176.42691.565979.536591.062225.10463.237854.274063.388123.378853.330994.279198,4.048309,3.414673,4.208771,3.550034.017548.025002.309204.268585.765015.64106.451691.377731,1.083618.863823,1.769775,1.38868.302399.230499.616669.470024.938354.715202.092987.067245.188141.13604.284149.205467.112061.090691.23468.0653.316833-.009911.222168-.301697.436432-.592667.630829-.856651.641846-.876381,1.222137-1.659988,1.70752-2.292007.880066-1.172096,1.849792-2.433807,2.111908-2.828224.270905-.394684.566071-.76918.656982-.842941.047852-.034248.724121-.892807,1.814667-2.216003,1.083435-1.328918,2.582886-3.121048,4.250336-5.042389,3.317749-3.857185,7.102722-7.778397,8.203796-8.890244,1.41861-1.451981,2.691498-2.700253,3.792694-3.769363.541412-.523975,1.039124-1.005669,1.493134-1.445053.302673-.298599.576202-.568439.820587-.809525.227966-.23748.331238-.367733.323242-.39468-.009979-.035492.032654-.070927.101868-.084206.096008-.018284.121887-.061306.131348-.2192.010376-.153831.034637-.202053.126617-.226559.08252-.022114.116821-.059967.117188-.128815.000549-.072506.019623-.088642.075653-.063969.05722.025223.070709.013512.054443-.049126-.022522-.087837.054443-.165535.183472-.191753.045319-.008896.079773-.061646.078308-.118774-.001373-.055359.026367-.115555.061401-.132244.035217-.016842.080353-.10965.097229-.206764.028931-.194302.256317-.513073.345673-.491337.031677.007847.057953-.017967.05899-.056828.002258-.101219.088501-.217644.115875-.158085.012787.027981.052795.015629.088013-.02737.035156-.042969.042175-.083488.015076-.089691-.027771-.006207.022766-.103481.096252-.216026.107605-.157677.163666-.197506.249023-.178154.10379.02317.105377.020298.027039-.039261-.045776-.034916-.075684-.076996-.066589-.093151.149475-.290291.305878-.500362.352112-.491585.034821.006096.07254-.005089.085236-.02504.012787-.020107-.005554-.040462-.041779-.046764-.035675-.005772-.054352-.026466-.041718-.046299.012299-.019279.054749-.02993.09375-.023396.038971.006641.091125-.042007.116272-.106358.024658-.064369.071198-.113251.09906-.10907.029358.004086.049591-.013802.044281-.039032-.005554-.025383.03476-.072407.089111-.105049.082458-.048573.085083-.072617.013336-.131348-.091644-.074429-.042694-.178192.068542-.170292.033936.001877.101166-.055252.149323-.127266.102539-.152744.147278-.168995.177979-.064602.019867.066463.026886.06987.052643.022587.015442-.030315.012299-.088223-.015961-.129753-.038452-.059692-.022522-.06707.077637-.039795.086792.023735.12439.010628.120605-.03949-.003723-.040066.008606-.052074.026764-.026802.049316.070286.210785.041939.250214-.044922.026825-.058998.044617-.06015.080994-.004162.067139.104904.111633.114559.193848.034832.059601-.059834.072388-.059494.102386.007999.024109.067154.043945.069248.100586.007187.079254-.087914.148102-.071014.191711.054771.026184.077244.043549.088009.102844.058449.044434-.021626.171783.004059.333466.067894.16748.066425.279633.086861.311707.056526.036774-.034557.074158-.024971.140442.038441.04892.047028.095581.06852.103577.047035.025726-.069183.351959-.045868.374725.030254.014893.051258.059326.067043.176117.058636.209625-.014202.623169.101166.734985.217316.06723.070103.105865.081825.148132.043701.044495-.041351.05838-.036129.065521.026867.006958.064854.029175.073692.123108.045128.086884-.026573.099121-.023052.048218.015221-.036407.027534-.039856.060383-.007599.072487.052063.019619.105591-.037006.130859-.138134.009308-.035816.022858-.032299.441711.075035.16098.041359.352875.075249.427887.076729.097992.001236.146545.042873.17395.153561.021912.089817.077301.15271.13504.150368.058594-.002636.098724.045464.099274.119144.001129.116703.005859.118595.086395.021236.113647-.137203.531677-.042755.472137.116901-.028656.076691-.015564.091034.051575.055061.067291-.035648.114594-.01297.182953.092033.056824.087845.152985.147118.254089.154163.106201.007366.152863.038067.133911.088696-.01828.048721.018616.051914.097961.007149.070068-.039536.157898-.061306.194092-.047348.045624.017433.036682.034447-.028259.054085-.075867.023773-.08371.048992-.043152.138126.040375.088196.066803.084702.13501-.022034.058777-.091518.101715-.107578.13858-.049294.028595.045696.070312.096405.091217.11031.02124.014935.041382.036297.045563.048836.004395.012604.068115.05331.142456.090839.074249.037663.166168.106064.205139.152313.039154.046925.095276.088436.125732.0928.108063.015224.264771.210331.209961.263042-.064667.064068.150665.329693.246216.300827.038513-.011425.046265.031925.017548.097576-.031281.071503-.016968.108711.035919.093311.059326-.01741.058838.009396-.001038.081345-.049225.059074-.063446.117756-.032196.131516.031097.013592.021606.055637-.021149.092865-.052612.046249-.041077.066513.035614.061817.095215-.005726.093597.013206-.009491.113605-.067535.064945-.102966.128178-.07959.139183.099609.047192.042572.380119-.084167.487755-.123383.107769-.218079.372353-.125824.353134.070953-.008442-.225159.520424-.308289.549782-.035004.015274-.055542.088432-.045837.165096.009247.075577-.022919.177517-.071014.222107-.047699.046829-.102356.144894-.121674.219368-.0513.206268-.354248.71907-.404053.683907-.053741-.035954-.201569.215813-.250061.424782-.020721.085743-.131439.295383-.252594.445286-.120056.152802-.201233.289352-.180542.30526.020996.016003-.027679.065365-.108185.109962-.105713.058384-.147125.113663-.153412.20068-.005341.071293-.037231.11631-.080292.114651-.041443-.001663-.122009.09124-.194336.224655-.097595.178883-.149536.225956-.23941.216282-.094208-.009155-.116364.012215-.126648.121059-.007172.072563-.077454.194992-.156097.270821-.078369.075996-.151398.172844-.162079.215233-.027618.110512-.293945.253181-.35614.196304-.034119-.030701-.056854-.012894-.066803.053902-.018707.126671-.398773.569969-.415497.483955-.006989-.032013-.108124.017914-.223785.109924-.116272.091553-.226166.153259-.243561.136528-.017639-.017204-.099274.032661-.180908.106682-.081055.0728-.213043.136436-.29126.140793-.116669.00621-.139435.024887-.124115.101593.014893.072914-.011749.102081-.118408.132584-.013733.003357-.071869.054916-.166534.140175-.047028.043556-.103943.096291-.170105.157555-.209778.202957-.448792.434174-.714783.691513-1.842102,1.757187-4.256165,4.076897-7.094482,7.054543-2.826019,2.954506-6.004242,6.491371-9.23465,10.421501-1.614258,1.965675-3.243317,4.027809-4.853363,6.158318-.805115,1.065224-1.602417,2.14959-2.396423,3.243401l-2.251221,2.785431c-.358154.523682-.827698.860603-1.343994,1.155441-.513763.293716-1.072815.524506-1.655212.674271-1.163513.306183-2.421326.277161-3.539948-.066521-.136993-.049187-.279266-.08242-.411896-.144684l-.378754-.244095-.757233-.488037-1.513367-.975243-.75592-.487091-.377716-.243393-.222321-.168373-.846771-.652763c-.563019-.435661-1.129639-.863777-1.676758-1.312325-2.220428-1.75473-4.330475-3.580544-6.337189-5.393456-4.012146-3.62999-7.524994-7.302147-10.424377-10.602257-2.90213-3.29953-5.181061-6.236649-6.777313-8.397751-.407959-.53389-.756683-1.0317-1.072571-1.4673-.144409-.199944-.27948-.386963-.404846-.560555-.024872-.031708-.047821-.060959-.068787-.087677-.08432-.106468-.138855-.170723-.159241-.186684-.032715-.018692-.124146-.127731-.134613-.12896.010834.025894-.001343.014038.000488.005287-.000977-.018105-.015228-.01519-.034668.007408-.025482.029617-.049438.045189-.094971.081398-.021942.048462-.081696-.009209-.055969-.041801.018463-.033035-.043701-.116928-.150391-.202362-.117371-.093597-.184692-.189857-.190338-.273582-.007324-.113182-.016052-.114212-.075562-.006058-.055115.099678-.091095.106499-.200348.037819-.159729-.101173-.237-.263374-.135529-.284958.113678-.024078-.087616-.151711-.22168-.140945-.101013.008011-.106476.000099-.041229-.064148.073547-.072464-.016663-.231522-.132599-.233871-.089508-.002594-.29715-.197891-.225708-.212784.087402-.018394.049713-.049721-.179108-.150864-.108154-.047173-.292969-.196281-.413116-.331795-.11972-.135727-.253937-.242386-.299042-.237419-.057312.00573-.07193-.012543-.049377-.062088.017334-.038513-.010437-.089935-.061523-.114708-.061768-.0299-.065582-.051003-.012024-.061897.048431-.01001.055054-.044189.01593-.085388-.035706-.037613-.082916-.05114-.104523-.030617-.022095.021004-.08493-.022064-.140686-.09568-.055725-.073929-.142334-.138901-.193665-.14547-.106293-.014023-.156952-.152924-.062408-.172386.056671-.0112-.138519-.186123-.330017-.295383-.037201-.021561-.047852-.058319-.02301-.081825.024323-.022987.013306-.050617-.024139-.06102-.037109-.010109-.037689-.047279-.001312-.081665.051636-.048817.037018-.078434-.062897-.127541-.144714-.070641-.378052-.33662-.443329-.504021-.025116-.063423-.112671-.123932-.214417-.15028-.107269-.027443-.165466-.070263-.154266-.113308.010071-.038193-.010406-.077187-.046021-.086967-.036102-.010021-.042816-.03828-.015747-.063625.049988-.047611-.16803-.251038-.312836-.294285-.041107-.011669-.056519-.058071-.035828-.102219.02536-.053391-.01297-.122337-.111725-.202641-.082001-.066879-.144867-.151505-.138153-.187359.006989-.034092-.022705-.174793-.063995-.310081-.059326-.191967-.04953-.263481.043427-.330353.091034-.065464.098724-.10767.031464-.181324-.065735-.071671-.066193-.11631.021912-.154213.062927-.029179.095428-.073807.072632-.099396-.022858-.02565.032043-.069706.121979-.099403.10141-.033306.165497-.088428.170563-.146641.004272-.051647.08374-.188595.176971-.305321.093658-.117321.20816-.31662.256073-.444641.072815-.194511.110107-.23196.225311-.23782.075592-.003544.143158-.028606.149963-.055107.006989-.026695.118927-.163113.250916-.304222.131104-.140984.244843-.302948.252777-.361309.008667-.071526.028809-.092693.058868-.057652.047516.053493.460938-.309254.453918-.394745-.002441-.029125.057159-.127598.134003-.213257.076202-.086582.175171-.210697.218689-.274731.043396-.06424.125977-.11692.181732-.119518.09726-.00272.479218-.326458.447815-.364876-.00885-.010609.204651-.208595.475891-.437855.259094-.226784.438263-.383602.567535-.496761.058136-.057899.104523-.104137.144531-.143997l.045593-.05352c-.006592.003548.027893-.024956-.012787.005177l-.246246.186562-.256866.193306-.065948.049389-.033203.024853-.008331.006229-.004181.003117-.002075.00156.657532-.507782.007355.00824.059113.069725c.439148.580425.598358,1.04034.565857.484917-.039215-.252853-.019501-.328434.076324-.251076.088318.078453.26474.336018.355804.819973Z"/>
  <path class="uuid-d886842a-faa0-4858-9b11-c5454bf6ca70" d="m174.667755,152.603668c.032684.166519-.091858.411118-.188843.369812-.047668-.020309-.0961-.01442-.107147.012726-.040039.098572-.306396.042877-1.0495-.221085-.204468-.072357-.422119-.118851-.483124-.102173-.060822.016266-.154449.001785-.208496-.031693-.05426-.034317-.140167-.056122-.192352-.048203-.052246.006882-.117859-.030457-.146973-.083786-.03656-.067657-.071014-.084244-.115814-.05423-.03479.023071-.087036.00975-.11441-.028748-.075928-.108994-.322266-.208649-.444611-.182358-.082397.017014-.090607.010529-.034973-.026703.04184-.028229.045258-.061844.00824-.078979-.035858-.016586-.098907.012024-.141174.063751-.059845.073181-.107544.071533-.219543-.009048-.082123-.059006-.171722-.083511-.211243-.057953-.050232.032684-.082306.016495-.121338-.062378-.030975-.063004-.078033-.09288-.114319-.07283-.075714.041656-.440155-.105881-.412231-.166672.011475-.025055-.058838-.054428-.157135-.066544-.098358-.011948-.225922-.050049-.284607-.085556-.062286-.037216-.114655-.032928-.124542.010635-.010254.043137-.076569.047409-.158417.009491-.078003-.036133-.128418-.092896-.11261-.126724.020447-.043823-.001862-.053329-.080658-.033859-.071075.01738-.112549.002182-.118439-.044128-.005157-.038986-.056152-.074738-.113007-.078995-.057068-.00441-.110229-.05275-.117828-.106583-.009735-.070969-.022675-.08017-.046661-.031815-.01825.037003-.078064.047195-.132385.022552-.084503-.038071-.090454-.031387-.039215.046967.047974.07283.033844.079178-.071503.031662-.072205-.032913-.19165-.057053-.266541-.053864-.074493.003433-.126129-.013504-.114532-.037781.009552-.022766-.24884-.178391-.575897-.343323-.444214-.224579-.630066-.346664-.732941-.482758-.096222-.126007-.222931-.213989-.41507-.286697-.152374-.057907-.284393-.123978-.292969-.147781-.008484-.022934-.164215-.107986-.346527-.188156-.190796-.084625-.334045-.179047-.338531-.223129-.004089-.041718-.046783-.072464-.093048-.067413-.026855.002945-.144806-.041321-.339111-.125809l-.076416-.033554c-.057739-.027863-.118073-.056992-.180969-.087341-.204102-.102325-.424713-.212936-.661011-.331406-.471985-.23848-1.006622-.508591-1.597412-.807083-2.363708-1.195435-5.569214-2.910065-9.214661-4.917603-1.737335-.970734-3.311768-1.825012-3.503235-1.900787-.201569-.079666-.385345-.1875-.437988-.257462-.050354-.065308-.182434-.153748-.29538-.19426-.250214-.090347-3.070251-1.655655-3.132355-1.738998-.012512-.016739-.224579-.143951-.556335-.335312-.332367-.190125-.782074-.447357-1.269775-.726334-2.461914-1.384537-5.664856-3.250031-7.343201-4.254501-.773438-.459564-1.619385-.946396-1.884155-1.067856-.267029-.124191-.519867-.271149-.566803-.329453-.023224-.02887-.593994-.380707-1.494598-.924301-.901215-.542999-2.128662-1.282547-3.465271-2.087875-2.669281-1.615097-5.527832-3.344696-6.349365-3.841766-2.022827-1.23539-3.552246-2.169426-4.587891-2.80191-.30423-.177162-.469482-.259514-.4953-.246803-.033875.016678-.082916-.020203-.116364-.087967-.046295-.09404-.0979-.112198-.265137-.093307-.162842.018188-.222382-.001686-.27475-.092361-.047302-.081734-.097137-.111137-.170532-.101082-.077362.010429-.100128-.006821-.089691-.068077.010681-.062584-.005524-.074593-.06781-.0485-.087219.036713-.192444-.030624-.258606-.164223-.022644-.046379-.089691-.076073-.151611-.067848-.059967.007957-.133759-.014091-.161896-.048714-.028473-.035118-.142334-.070229-.254852-.078606-.225159-.016678-.651337-.234467-.65155-.332764.000153-.034645-.036896-.062424-.082153-.062553-.117828.000061-.27774-.090744-.215424-.121399.029175-.01442.004059-.05722-.05542-.093994-.059448-.036743-.108795-.043381-.108978-.014221-.000183.029152-.126465-.019112-.282257-.106773-.218323-.123779-.280762-.187531-.278198-.279457.002899-.111954-.000702-.113602-.054138-.03096-.031281.04837-.075256.079079-.097229.068451-.396851-.19574-.701324-.389023-.701233-.445686,0-.038567-.022675-.083305-.051178-.101135-.028748-.01796-.051239-.000893-.051514.038971.000336.039368-.0224.056816-.051147.038849-.027924-.017456-.051147-.067421-.050812-.110092.000336-.042717-.073578-.109695-.162964-.149139-.089417-.038925-.162903-.098694-.162933-.131561-.000183-.032654-.02771-.060265-.060516-.0606-.032928-.00013-.103668-.058228-.156891-.127769-.079254-.105118-.111633-.113556-.180359-.048576-.08667.081726-.238953.004318-.245148-.125046-.002563-.03846-.091553-.135033-.198395-.213646-.227386-.167252-.253632-.220528-.109924-.220177.091003-.000122.094727-.006996.026611-.050766-.04361-.02787-.124146-.039894-.180725-.027222-.081421.018501-.093933-.003113-.062408-.104652.027344-.087982.007141-.135178-.063232-.151299-.056366-.012184-.074036-.030724-.039154-.040573.096069-.026619.049988-.21637-.070618-.291786-.082764-.051758-.084198-.071106-.006592-.089096.144745-.032738.156036-.078339.048492-.194832-.080627-.08699-.078522-.104126.012573-.106201.0914-.002693.093231-.019417.012756-.106606-.114166-.123817-.085907-.189049.080292-.184486.101746.003464.115692-.011398.080963-.087006-.025543-.056541.015747-.182167.108215-.329376.095856-.15255.13089-.263138.097473-.307037-.03833-.050438-.022247-.085617.060974-.13295.061554-.03492.091919-.076378.067444-.09169-.080566-.050385-.009338-.375595.082214-.375076.061188.000587.084595-.040375.091858-.161331.01358-.217003.213531-.596428.356873-.678452.086426-.049263.105164-.085091.072693-.13623-.035522-.054184-.027191-.066483.040131-.058403.069275.008766.082001-.011475.069794-.110985-.0112-.091919-.005035-.103043.02478-.04406.021637.042313.055023.053406.073364.024239.029602-.047119-.01825-.112732-.117218-.160522-.03479-.017151-.02948-.030228.167755-.413986.075958-.147453.152374-.325714.171265-.397408.023865-.09388.075958-.132179.187836-.138229.09079-.004562.162415-.046982.17334-.102951.010925-.056793.065369-.086967.134003-.075134.108795.018501.111084.013908.039368-.07959-.101898-.132538.089386-.513985.217712-.433739.062012.038773.07782.028252.061798-.041084-.015656-.06942.016724-.110794.12616-.161255.0914-.041901.166107-.125938.197113-.221123.032654-.099937.070892-.140244.109558-.116074.037323.023354.048889-.011459.030518-.092064-.016205-.071182-.011963-.156631.009277-.18911.026642-.040955.038574-.030609.038513.03299.000671.074432.020477.085045.105865.056717.084503-.028366.087708-.054016.015472-.130272-.06189-.065773-.063873-.107941-.005554-.136208.045685-.021866.098633-.055801.11557-.074043.017914-.018471.040802-.035225.052246-.037865.011566-.002853.061646-.058754.111694-.125107.050201-.0662.129822-.146263.177277-.178802.048126-.032661.096008-.081909.107483-.110176.040924-.099953.236633-.231804.263489-.176743.033173.067398.298462-.121414.299164-.21257.000275-.036095.036926-.041954.082458-.013481.049652.031059.082733.0186.08313-.030983.000458-.055565.021606-.054428.064484.002876.035278.047127.078674.061584.096832.032654.018036-.028755.049042-.019165.068665.021355.024597.049942.043243.039421.057007-.032341.017426-.089005.031738-.087234.087341.010277.035919.063911.078064.097763.091797.075859.05658-.090179.31015-.042458.374481.070358.06366.112053.260284.191238.260834.105202.000641-.061829.38443.182831.401123.255135.00769.031593.065247.045403.129425.030281.063263-.014572.142181.007126.172455.048523.031036.041573.106232.08342.16803.092682.168396.026115.567078.248657.535828.298813-.034241.054901.17395.15802.349274.172371.073883.005859.240082.080734.370728.166733.130829.085823.248199.137627.261963.115463.013885-.022346.056122.014137.094482.081215.050568.088036.097687.117157.173584.106415.063049-.008995.103424.011688.10321.05204-.000336.038826.083984.095535.203461.13607.160126.05484.203064.093422.198517.17955-.00415.090134.015625.106705.114105.092636.065338-.00898.179047.029755.252014.08638.07312.056366.164459.103073.202759.103523.096985.001648.252625.216415.208405.287849-.024139.039024-.005615.056183.055695.049873.115601-.011765.555511.238075.483917.273941-.02829.014366.030975.096909.130981.182823.099609.086563.171509.174622.158813.195175-.012848.020805.043488.085426.123962.143814.080719.057961.161591.166214.178955.23896.025604.108521.046906.125397.11499.091415.064667-.032616.095978-.014961.142609.078102.006012.012138.061523.053947.16037.121681.049805.033348.110077.073708.180084.120598.159729.101074.341675.216217.544189.344353,1.319366.80938,3.174133,1.947174,5.387543,3.305008,4.436951,2.699387,10.344604,6.222687,16.31778,9.661522,5.970825,3.443222,12.009338,6.79277,16.64859,9.247192,2.32135,1.220627,4.286255,2.236755,5.714722,2.940659.35672.178253.679413.339493.965149.4823.13266.065491.256744.126755.371948.183624.034973.01503.067261.0289.096741.041565.118195.050064.192596.078476.216888.082184.103088.015717.299591.093002.435944.171814.147522.084854.228241.110565.198914.063278-.03772-.061478-.013428-.081375.106903-.086533.102753-.004532.152985.015198.146942.058167-.00528.037628.082062.094589.212219.137756.143768.047379.238953.113647.271851.189606.044922.103043.053345.100937.072113-.02095.017517-.112427.048584-.131439.172852-.10585.182159.038208.30777.162125.221252.218094-.096771.062698.131378.110382.251129.052795.090302-.04332.097961-.037903.059387.045151-.043518.093658.092773.210022.200195.171051.083221-.029343.33847.078491.278046.117905-.073975.048309-.0289.064133.214508.076736.11499.007599.333466.073486.488007.152039.154449.079025.312286.125977.351532.10437.050079-.026901.069458-.015717.065704.038193-.002747.041809.039825.078445.094391.081665.06601.003891.076569.021744.031738.052063-.040436.027542-.034943.06134.014404.084198.045074.020859.092346.01532.10495-.011688.012909-.027634.08429-.0121.159607.034073.075378.046494.175629.073029.224152.059464.100586-.027664.19342.0802.11496.134216-.047211.031967.188049.117264.397125.143692.04071.005432.062836.035019.048645.066132-.013885.030426.005463.051529.042603.046646.036713-.00502.049988.028839.029266.074402-.02948.064651-.006134.086212.100311.092789.153809.00885.452881.161255.569183.289444.044373.048996.143616.070038.241241.049164.103363-.020706.168732-.007202.173645.035767.004242.038162.035522.064209.069977.057907.034943-.006302.050507.015976.035583.049942-.027771.063004.234406.153503.373108.129074.039307-.00737.068298.027023.065613.075012-.003571.058167.05304.102768.165375.131348.093292.023911.1763.071808.183075.106552.006989.034088.077942.143768.157776.243942.113983.141876.130585.20929.075989.309662-.053436.098251-.045288.138855.036499.173828.080963.034592.089111.068924.032898.14418-.040863.054733-.05304.1082-.0271.119293.025909.011078-.003815.074829-.066101.142685-.070435.07637-.104645.153625-.090179.206039.012909.046356-.006775.201477-.043396.345963-.036957.145081-.062317.371307-.056274.50531.009125.203552-.006989.254028-.100037.312164-.061096.037903-.108185.09079-.104156.117203.003937.026627-.038971.197815-.09613.382614-.05661.184189-.089386.379623-.072662.435364.019165.066315.009827.093674-.027008.077957-.061707-.026367-.270935.482269-.228149.556595.014343.025208.002777.138138-.026031.249817-.028564.11174-.058197.268158-.065369.346024-.007172.077942-.054413.163391-.105042.190109-.087952.045502-.283844.506287-.225586.531647.015442.006592-.0755.283905-.201996.616074-.246033.646393-.312073.910645-.265198,1.061203.016449.052124-.017456.171692-.076141.266602-.058655.09494-.097321.217255-.08609.272949Z"/>
  <path class="uuid-d886842a-faa0-4858-9b11-c5454bf6ca70" d="m164.584045,105.841324c.183411.056564.301544.304474.171661.378914-.063416.03624-.103394.086876-.088562.112152.059357.065872-.259674.385422-1.215881.848526-.266541.138733-.520172.28096-.565643.335388-.046936.058472-.152069.121468-.232971.140305-.081726.018448-.185181.069756-.231659.115631-.047302.045212-.143372.06987-.214386.054794-.089539-.019783-.134644-.010918-.156586.043434-.016876.041328-.078979.068169-.135223.058861-.157745-.026794-.475586.068741-.580597.174393-.071838.072189-.085114.073318-.055389.005653.022095-.051071.000885-.078278-.049316-.064194-.048553.013466-.09021.075577-.095856.143784-.007599.095741-.05722.126511-.227875.139091-.125.009262-.233154.049629-.255737.095558-.028412.058487-.072876.067345-.16745.032036-.075226-.028526-.144073-.02005-.167206.018478-.047607.079895-.516144.184166-.527557.11792-.004791-.02713-.095306-.008003-.2034.041832-.109039.052078-.261902.092819-.343262.095985-.086304.004341-.136597.037415-.119415.079163.016663.04155-.048096.082596-.155243.097252-.102081.013969-.18866-.004921-.193329-.041977-.006104-.047966-.034546-.043343-.103149.017136-.062317.054947-.113831.06456-.147339.027802-.028625-.030403-.101471-.033943-.161499-.007645-.060394.026291-.143066.013077-.182434-.028831-.051666-.055389-.070099-.056458-.06601-.00264.003265.04113-.051514.081223-.121277.088676-.108246.011765-.110565.020576-.012482.060631.091644.03698.081085.049835-.054535.064507-.093536.010902-.229156.050461-.303253.089264-.073883.03978-.136353.050514-.138275.023682-.001129-.029907-.359833-.019852-.786316-.010361-.582214.021599-.83786-.012581-1.015381-.083504-.164978-.070236-.341003-.094551-.578125-.076302-.189026.011223-.36087.006088-.381531-.011986-.011261-.016052-.245911-.032524-.438721-.031479-.104187.00322-.061493-.017342-.099518-.053329-.013947-.034851-.017731-.043694-.053101-.017029-.020813.015541-.138489.03376-.337585.053627l-.07843.00753c-.088348.005539-.180695.01133-.276917.017365-.347473.019394-.723083.040352-1.125397.062805-.804871.040741-1.714508.12468-2.721008.194359-4.020691.329491-9.564789.993195-15.817963,2.325432-2.996277.626991-5.648804,1.376877-5.944855,1.481056-.311707.112358-.629211.191788-.757751.189194-.121643-.003151-.360229.050568-.529266.122276-.41391.129021-5.063477,1.578209-5.264069,1.640732-.030579.001381-.39325.1166-.953094.301079-.561981.178467-1.313599.447601-2.125702.745811-1.40625.507957-1.178375.43721-1.483368.553833-.149048.048569-.188416.160011-.174286.271835.005768.036461.057007.150307.084564.224892.097229.250366.191254.4925.280701.722855.386536,1.016678.733551,1.929344,1.017181,2.675362.516083,1.374054,1.06076,2.871635,1.252289,3.305435.188446.440857.345123.891937.358734,1.008331.002808.058968.364838,1.091812.895264,2.724968.539825,1.629959,1.245972,3.86084,1.971924,6.302826,1.472168,4.877655,2.747345,10.184204,3.093628,11.712494.46286,1.979431.83197,3.726196,1.142181,5.231537.151123.739273.290039,1.418869.416779,2.038803.089233.416275.169891.792465.241943,1.128555.077759.319885.132111.476959.159119.484711.035309.010651.042267.065674.016266.131165-.036194.09079-.013824.135742.114258.228561.124146.091446.151794.137802.123016.228546-.025696.081482-.012207.130753.045624.16806.060852.039429.064209.064194.013306.098175-.052032.034698-.049408.052368.012146.072311.086212.028198.110352.134872.06311.257767-.016846.042999.009125.100418.058075.129898.047455.028564.083282.08432.078522.122849-.0047.038742.049286.126678.122101.193115.148315.128815.294922.491898.228577.555557-.023621.022491-.015991.058533.016235.080292.084137.05632.135956.19162.071045.182678-.030487-.004257-.041565.036133-.024231.088928.017334.052765.047729.08046.067535.060913.020172-.020081.075012.074814.130432.197266.075134.175507.078613.244186.016418.305771-.075317.075058-.073761.077942.018555.043915.054077-.019867.105621-.022461.114349-.006104.16449.282043.257568.526855.225311.561127-.023834.026077-.034698.063904-.024689.085327.010101.021591.037109.017075.06189-.010086.024048-.026978.051514-.031601.061462-.010284.009674.020706-.004181.062256-.03064.091629-.02655.029297-.01355.099396.027191.155212.041046.055374.057251.120895.038727.142151-.019226.022568-.015015.04924.009125.058319.024384.008957.042389.068222.04071.131607-.003357.095642.015503.110764.103577.081833.11203-.037277.173218.059753.106781.149323-.019836.027618-.007782.115005.027069.194336.0737.168564.063354.215027-.041168.184784-.066742-.018951-.073364-.014862-.047333.032272.017273.029297.06778.057785.117981.056259.071014-.000336.068665.017059-.008148.086868-.06665.060425-.075836.099182-.031525.122925.035797.018402.039307.035248.008209.036972-.085754.003815-.148651.155212-.096588.235153.035339.054321.026733.069962-.040009.070557-.124573.000229-.156616.032562-.133575.144745.018433.082413.011261.093018-.061768.082047-.06958-.015778-.082001-.000168-.06012.080963.031555.11409-.019684.16304-.1492.132217-.079224-.01944-.097626-.010574-.104584.055313-.005646.049103-.095734.142685-.236481.244736-.145996.10553-.223511.189133-.215179.232468.009369.049606-.018799.075974-.10788.097778-.065948.015976-.109161.043793-.095337.062073.044495.058868-.150482.321457-.226929.299744-.051239-.014984-.088409.014008-.144104.11702-.100677.184387-.420227.471146-.578247.503006-.095276.019028-.125916.045303-.116486.10144.010956.059753-.000916.068665-.057861.040817-.058441-.028992-.07782-.015015-.104218.079559-.024292.087555-.033844.095978-.038757.032486-.003662-.045502-.02948-.066071-.057037-.04538-.044525.033371-.025543.108948.046143.184616.025208.027084.014954.036621-.300659.332138-.121399.113541-.253113.257156-.294678.319611-.05368.08197-.114899.100555-.222961.064163-.087524-.0298-.170349-.016861-.199402.033081-.029266.050812-.0914.058823-.153839.019684-.098999-.061783-.103149-.058792-.064331.061432.054626.169571-.249695.471344-.352325.335327-.049255-.065384-.06839-.062057-.074158.013916-.006104.075882-.050629.103592-.175934.104813-.104614.000717-.206299.049942-.266571.131409-.063293.085602-.114258.108459-.146759.065262-.03125-.041611-.053772-.012207-.058685.078766-.004303.080338-.033142.166107-.064362.189133-.039246.029114-.048767.012421-.030457-.052887.020752-.076767.003693-.096924-.093262-.110626-.096069-.013367-.10733.010818-.053986.125671.045593.098755.036041.143616-.032928.143387-.053894-.000473-.11908.007462-.142029.017609-.024017.009903-.052856.015411-.065674.012177-.013-.003052-.081573.028793-.153168.071335-.071655.042374-.178741.08313-.238678.09111-.060638.007828-.125793.032822-.145844.056168-.070923.082947-.319672.11026-.334656.03569-.019287-.088974-.359009-.05014-.386017.045959-.011078.03862-.051788.021866-.091736-.037628-.043488-.064819-.08255-.072754-.097992-.019867-.017181.059387-.03952.044556-.068024-.044617-.023376-.073242-.065216-.116776-.093628-.097809-.028168.018921-.058502-.011703-.066925-.067749-.010742-.069229-.034027-.070404-.071289-.003204-.046326.083374-.061432.071838-.090698-.069061-.018463-.091843-.052734-.155716-.074585-.141891-.093323.058609-.343445-.168427-.366089-.33313-.024567-.161972-.196808-.384033-.230194-.295898-.031006.064362-.317841-.469589-.297943-.555466.005951-.03772-.044708-.094376-.114563-.127396-.068726-.032791-.137421-.1147-.14917-.17923-.013855-.065384-.067169-.164185-.119568-.22052-.146393-.154114-.416016-.685181-.359589-.708298.059174-.025986-.073669-.28595-.223846-.439178-.061157-.063538-.178436-.269577-.239746-.452316-.064331-.18338-.135864-.325211-.1604-.316299-.02478.009109-.040253-.058472-.034576-.150345.007568-.120529-.016785-.18515-.086792-.237228-.057251-.042801-.078064-.093903-.053528-.129318.023651-.034042-.011383-.151932-.085022-.284622-.098389-.178452-.110168-.247543-.053711-.31813.05835-.074524.052216-.104691-.034027-.171875-.057343-.045029-.122803-.170105-.144501-.277176-.021973-.106934-.064362-.220581-.094391-.25235-.078339-.082687-.055511-.383957.025879-.405838.04422-.012283.041412-.041031-.009552-.085327-.096771-.083847-.266357-.642593-.184845-.610474.030762.011322.04303-.100815.027588-.247818-.014709-.147232-.00769-.273071.015778-.278763.023956-.005615.025818-.101273.007263-.209885-.017822-.107483-.00058-.252975.037811-.321304.057434-.1017.053925-.130951-.018982-.159256-.069489-.026611-.079773-.064758-.048187-.171097.004547-.013382-.00769-.090118-.028687-.215775-.011475-.063065-.02533-.13942-.041443-.228134-.058472-.286316-.125092-.612518-.199249-.975555-.492432-2.501099-1.152374-5.788406-2.139587-9.787811-.974487-3.976578-2.251587-8.563889-3.832458-13.406982-.791748-2.421005-1.657043-4.906364-2.590424-7.412407-.466125-1.253288-.953918-2.509758-1.449799-3.769173-.383148-1.144974-.76709-2.292343-1.151489-3.441032-.256866-.583611-.236084-1.162514-.216675-1.758293.037964-.592087.150421-1.188026.34787-1.757408.386536-1.142326,1.107422-2.173538,2.007629-2.918152.204529-.210472.501862-.306587.770935-.437416l.819733-.376846,1.638062-.753136.818207-.376213c.122955-.054436.302429-.143806.378937-.16951l.252075-.091103,1.006989-.363747c.670532-.24221,1.338043-.487373,2.0112-.708298,2.677643-.928391,5.354828-1.728821,7.966858-2.444115,5.225403-1.432678,10.218567-2.41626,14.56604-3.087364,4.34903-.67054,8.056335-1.011162,10.74057-1.194252.67038-.057701,1.278839-.078972,1.816559-.113525.246582-.014328.477203-.027733.691284-.040169.0401-.003937.077087-.007561.110901-.01088.135101-.013885.218597-.025337.243011-.033936.05307-.029892.423126-.082733.742218-.052414.136292.009148.256927.013145.296112.009155.030121-.004326.038055-.014542.019226-.030006-.048645-.040352-.036438-.068512.052246-.12294.075623-.04657.119446-.049271.129242-.007622.008362.036995.093384.051254.205597.035149.123444-.017113.218048.000267.27005.053986.07077.072968.076385.067406.046356-.050407-.027374-.108727-.010864-.139481.090088-.170784.147949-.043587.285828.005905.243286.096283-.048126.099785.138763.038689.204132-.066742.049377-.079437.056824-.078033.060608.013458.004242.104553.148621.141708.21109.056984.048767-.065254.274139-.08989.246857-.026703-.03421.076607.006744.072495.182281-.037361.082336-.052567.265656-.093567.405121-.099884.138641-.007698.2659-.044182.282898-.082146.022064-.047859.039825-.0476.060852.001076.016388.037674.061279.048691.099396.024933.046387-.028275.059448-.020317.044067.029327-.014282.044472.003906.070473.046021.064476.038422-.005478.06662-.034576.062836-.06414-.003754-.030258.04895-.053757.117798-.052895.069153.00106.145294-.027382.169891-.063629.051941-.073898.157867-.030884.134186.055634-.014282.052322.16687-.003563.302917-.092415.026611-.017097.053619-.004005.060059.029587.006226.03286.027802.040245.047455.016479.019287-.023643.043365-.002281.053131.046814.012543.068779.040833.077446.102112.022545.088623-.079781.322754-.120499.450836-.079048.047546.014664.104156-.027428.142883-.096916.040161-.073883.078339-.098495.103149-.066483.021912.028534.050903.032478.064301.008682.013611-.024071.032898-.014488.043732.020996.023315.067833.196136-.004311.232117-.10508.01181-.028015.041534-.017273.066284.021851.029755.047661.077179.050407.138367.010429.049896-.033424.112946-.040047.131866-.01844.020264.021805.101288.063423.183441.092842.116669.041275.16333.082161.204498.188095.040344.103889.067322.129196.117157.107971.049164-.020782.073547-.000099.100464.087372.01944.063721.048279.110031.06485.103111.016418-.006821.046051.056793.06543.142731.021576.09697.056732.173767.096252.20311.035553.026398.127136.149773.204224.273468.078033.125313.21405.29805.305756.384903.13913.132095.169128.175873.169403.279015.000153.067474.015411.135994.035156.150864.019775.01516.118073.159729.221039.322517.102386.162247.226685.3134.276245.336975.05835.028694.073944.05304.043121.070175-.05069.028244.20813.51358.289856.527107.027313.004898.106781.084763.176086.17672.069305.091927.173798.211746.231293.264961.057434.053291.095978.143005.08432.200348-.020325.098709.215668.540466.278198.506172.016113-.008972.180603.232246.366669.535133.361542.589638.539795.798256.715454.836731.060791.013184.140717.109459.176331.216133.035492.10672.113129.20945.174744.228157Z"/>
  <path class="uuid-d886842a-faa0-4858-9b11-c5454bf6ca70" d="m19.962402,149.573715c-.129105-.104279-.195038-.371185-.100143-.40358.046738-.015945.077362-.05217.067963-.079926-.034164-.10083.189987-.233322.881653-.520905.19017-.079376.372589-.186737.404358-.239105.031906-.051941.106583-.102203.166046-.112396.060165-.009705.134262-.049469.165375-.089462.031845-.03923.101837-.054077.157013-.033188.069748.026764.10463.016663.116028-.034988.009018-.039963.054001-.064072.098312-.053146.12442.031601.361038-.053787.428482-.154465.046204-.068649.056244-.069489.042221-.004318-.010422.04921.009567.076141.04686.063416.036133-.012329.061096-.076263.056076-.142914-.007065-.09433.027252-.125641.159073-.143036.096634-.012848.17543-.056015.185791-.101608.013046-.058075.046143-.0681.126144-.037064.063797.024872.116577.014633.128326-.024719.024658-.081955.376541-.222382.398239-.159088.008926.026062.07753-.000412.153778-.058456.076202-.058228.190186-.117249.254807-.131317.068283-.015274.101547-.053986.078827-.092407-.022156-.038345.020706-.086533.102859-.114563.078293-.026718.151627-.01973.163757.015594.015717.045731.037582.037476.078629-.030197.03717-.060928.076035-.078049.111664-.048416.030121.024811.089645.016113.131683-.019409.042282-.035568.111877-.036591.153931-.002701.055252.044846.07048.042725.053864-.008621-.012756-.03923.021408-.087234.075592-.106247.084152-.02977.083633-.038635-.005234-.060669-.082809-.020233-.077423-.034439.02739-.071472.072098-.025131.170563-.088684.21965-.141785.04863-.052994.095581-.075714.10434-.050293.008682.025345.29451-.044632.629974-.158447.457077-.153458.667786-.197754.832214-.173813.152863.0215.300186-.005478.481094-.089233.143661-.066284.279175-.112442.301651-.101654.02179.010223.186722-.03923.36618-.11084.188309-.074417.35141-.108505.385529-.080612.032166.02652.082657.018158.110291-.017883.016037-.020935.126801-.072632.317383-.149628.728409-.263077,1.753067-.633118,3.018326-1.090073,2.840485-1.051636,6.793243-2.450607,11.125092-4.289429,2.093079-.857956,3.884399-1.758148,4.093658-1.862106.208099-.125626.428436-.22023.525909-.225418.093231-.003387.257263-.072678.366547-.151047.239136-.180801,3.468903-1.799561,3.56488-1.842667.022644-.00296.267273-.131683.64325-.336685.374603-.20784.881561-.48912,1.431274-.794128,1.382294-.765106,2.924194-1.76062,4.385162-2.654739,1.431488-.961594,2.78006-1.808884,3.691254-2.454681.840698-.586838,1.739319-1.244308,1.99176-1.458679.255554-.216904.526031-.411407.606628-.43634.04184-.006592.66922-.448112,1.640625-1.171188.970032-.727432,2.303711-1.677437,3.72403-2.804176,2.856903-2.198967,5.8862-4.652367,6.76001-5.347961,2.137543-1.745697,3.753754-3.065636,4.848053-3.959328.264221-.228058.394623-.356461.3909-.384933-.004913-.037338.045502-.071335.120087-.080574.103394-.012695.137054-.055313.172607-.218742.03479-.159073.07251-.208511.174713-.228035.092163-.0177.135803-.054939.149719-.12722.01474-.076424.038239-.092323.092682-.062592.055634.030388.072113.01899.067291-.048294-.006927-.094269.089966-.171761.23703-.190918.050934-.006348.10025-.06002.112122-.121124.011536-.059181.055756-.121689.097351-.137039.042175-.015511.11142-.111595.154999-.215073.087128-.207069.427643-.538643.520569-.507088.032684.011337.070648-.014626.085114-.057289.037231-.111145.173584-.232628.182861-.163956.004364.032166.052765.022301.106323-.021935.053528-.044197.075409-.088585.047913-.098175-.027496-.009583.058044-.113091.190125-.231682.186035-.165916.265045-.205231.351227-.173149.104767.038559.107452.035698.046143-.04129-.035889-.045074-.051117-.096489-.03421-.113884.308807-.312622.586365-.538635.639893-.520447.036438.012321.085785.005157.111511-.016098.02594-.021416.016846-.048126-.020752-.061127-.037292-.012253-.046692-.039314-.020752-.06073.025208-.020813.079651-.02681.119873-.012886.040283.013969.126617-.034515.191772-.106407.064697-.072075.144104-.122475.175201-.11203.030914.010262.065613-.006981.076141-.037865.010406-.031075.087372-.079399.169739-.107513.124115-.041412.142181-.069298.102112-.154938-.050323-.107918.070282-.227066.194611-.191757.037201.009819.156281-.043503.263916-.119431.229065-.16156.287689-.169441.242645-.033829-.028198.085983-.022827.091675.039795.041252.039978-.032349.076416-.104584.082001-.162041.007782-.082756.032135-.087685.1185-.025688.074829.053757.125854.049644.162994-.011703.029083-.049355.052124-.060158.050598-.024086-.004639.099159.189484.115829.298492.025818.074768-.061745.093567-.056969.086487.022018-.014008.147072.025696.172203.169617.107521.107544-.048615.123169-.041199.096771.045486-.025879.087196-.01062.094231.097107.045799.152954-.068649.206055-.021324.149963.134254-.034973.095016-.025238.112915.057312.104027.061584-.006241.167877.072495.278717.206444.114838.138794.208832.206879.260925.189148.059845-.020294.088226.006012.107147.099632.013947.069237.043793.111046.065979.092728.072998-.060265.359528.109688.330414.196106-.019684.057693.011871.092781.124481.137787.201843.081291.499756.389961.532745.551476.019714.097328.047852.126343.106659.111702.062653-.016579.071716-.004822.042908.056389-.03006.062828-.014832.081245.083588.100998.090881.018326.099518.027664.034088.037346-.046997.007172-.068054.035301-.046082.061844.035492.04287.112885.018181.189423-.060509.027222-.027542.037994-.018387.340942.289032.116333.118294.261871.246666.324158.287064.081787.052086.101837.113472.072327.22142-.024261.087471-.0065.168709.043304.19664.050598.028183.062134.089272.029236.15062-.051941.097351-.048309.100967.063324.062294.158264-.055008.460999.245972.344025.34256-.056519.046661-.051514.064964.019562.071503.071045.006897.100189.050591.113617.170227.010956.099884.067322.197105.148132.256363.084839.062309.111084.111229.075806.140358-.034058.02813-.004578.050026.078003.057823.072937.006889.152985.037666.177185.068001.030579.038109.016937.046196-.04364.026245-.071106-.022659-.087463-.007195-.087585.082771.000183.089119.02359.100204.119171.055466.082275-.038185.123077-.026878.1315.037369.006348.050209.021851.111122.033844.132919.011932.022789.020599.049782.019501.061462-.000946.011879.036377.07695.083679.145264.047119.068405.098114.169098.114014.224373.015808.055931.047516.116852.070801.136589.082214.070152.145538.297401.084503.305717-.074799.010468.020538.321777.107178.350929.034332.011543.028198.048233-.013458.082642-.045471.037537-.044159.072899.00296.088776.052826.017799.044983.03756-.023315.060432-.056183.018837-.083801.055595-.062042.081909.021637.026161.002594.05265-.042297.058655-.05545.007782-.051392.028809.012604.064354.079254.044411.072968.057503-.03772.07991-.072388.014175-.118103.043694-.101624.063614.067841.082031-.058777.308495-.186859.334412-.127075.025505-.265442.187859-.183685.21537.058655.019958-.297302.308754-.37146.301964-.032532-.002579-.064117.04789-.070312.11377-.006439.064827-.052429.133209-.101501.14904-.04953.01651-.113464.075012-.14212.130959-.078918.152245-.418701.46225-.456329.416664-.041168-.049896-.206116.116051-.276184.278687-.029327.068581-.153992.203476-.277771.300941-.123627.097694-.210663.193275-.194061.213409.016815.02037-.031586.048927-.10788.064056-.100159.020058-.143127.055557-.157593.131104-.011963.062775-.044739.094589-.083038.081528-.036804-.012665-.118134.049423-.195496.150085-.104218.13475-.154877.163269-.235229.131516-.08429-.032654-.106445-.01915-.125153.078949-.012726.06498-.086548.160759-.164093.212074-.077332.051552-.151459.123505-.164368.159775-.033173.091721-.287811.171181-.341187.106331-.029175-.035439-.051483-.0233-.065491.037018-.026489.113701-.407074.452316-.417725.372742-.004395-.031517-.10202-.001549-.216125.066086-.114929.066917-.222656.106819-.237915.088188-.015533-.018883-.095581.013832-.177673.07148-.081787.058037-.211365.100021-.286224.093086-.111511-.010643-.134583.004143-.124847.079765.009583.071938-.017548.096016-.121338.110291-.013519.001816-.071594.041069-.16861.113152-.048126.036537-.106384.08078-.174072.132172-.169006.135635-.361542.290161-.575806.462128-1.432526,1.157997-3.446411,2.785942-5.849731,4.728691-4.841461,3.853371-11.285461,9.02404-18.461212,13.579811-3.579742,2.284241-7.37027,4.2948-10.972443,6.027969-1.812561.833954-3.567657,1.652588-5.254791,2.334549-1.681396.724503-3.28183,1.354141-4.767914,1.926651-2.970856,1.17482-5.481857,2.055054-7.295593,2.734116-.453094.162567-.862915.309616-1.225845.439819-.167297.060516-.323776.117126-.469025.169662-.036377.014755-.069931.028351-.100571.040787-.122314.050293-.197052.084106-.217377.099014-.086243.063293-.285461.151123-.442017.194534-.169098.047256-.246506.087524-.190765.099335.072205.015625.069077.046967-.014832.13736-.071564.077271-.122604.099792-.149414.065475-.023514-.030014-.128555-.006714-.254837.057129-.139282.070724-.256836.093216-.3358.063965-.107285-.039536-.111908-.031982-.037521.066681.068466.091156.05954.126846-.049957.198807-.161072.104996-.34256.109238-.319458.007538.025665-.113754-.175644.017761-.222107.144684-.035126.095627-.044662.097366-.07605.011353-.035416-.096985-.218826-.079895-.269714.025101-.040085.080765-.305008.190002-.288727.118622.019836-.087646-.024628-.065353-.21254.100967-.088287.07843-.301178.183823-.474213.23616-.173233.05188-.326065.129074-.340317.172089-.018631.054382-.041336.060013-.076996.018829-.027817-.03183-.086166-.028137-.129745.007874-.052719.043564-.073456.038223-.061142-.014954.010956-.048126-.017303-.068436-.070892-.05014-.048935.016693-.080765.053864-.071075.082047.009903.028854-.055206.067871-.145111.087723-.090164.019669-.184982.071106-.212189.114929-.056778.090591-.20369.078552-.182297-.015396.013184-.056107-.22551.048065-.403168.176254-.034821.024765-.072479.019073-.083557-.013275-.010834-.031647-.04039-.033188-.065201-.00354-.024414.029465-.058304.014465-.074509-.032898-.02301-.067215-.055862-.066315-.141403.003876-.123184.101898-.457809.202927-.635666.192459-.067276-.003616-.158279.050629-.222214.132034-.06752.085968-.129166.120956-.163345.09288-.030273-.025009-.073486-.022629-.096466.005615-.023407.028595-.051468.022949-.063446-.012161-.022217-.06517-.294052.048248-.387802.161499-.02623.03241-.07338.0271-.10463-.009995-.037643-.045166-.11377-.039062-.223282.01712-.091095.04657-.190598.06842-.219986.047485-.029114-.020279-.161438-.052261-.293884-.071259-.188293-.026291-.247375-.064713-.272369-.176376-.024445-.109314-.058594-.133743-.147385-.103455-.087891.029999-.117661.010193-.124008-.084106-.004684-.068558-.031281-.116486-.059326-.106918-.028061.009583-.047607-.058029-.04425-.151001.003998-.104797-.021317-.185455-.0681-.214401-.041489-.025513-.130569-.154022-.19899-.28627-.068588-.132919-.20047-.318253-.294617-.413818-.14299-.145203-.163849-.193832-.130524-.300354.022064-.069702.023209-.141037.002502-.157959-.020798-.017166-.101562-.173767-.180206-.35022-.078705-.175644-.182846-.343613-.23233-.373962-.05838-.03656-.069244-.063324-.030838-.076431.064514-.022018-.112091-.542892-.193115-.569717-.027359-.009201-.092682-.10144-.144058-.204422-.051636-.102829-.131546-.239868-.176926-.303055-.045425-.063217-.06572-.158936-.045364-.212845.036041-.093033-.118515-.569397-.177948-.549591-.015701.005356-.12822-.263504-.249802-.597321-.236801-.649536-.358383-.892273-.48822-.974915-.045135-.028458-.096909-.141068-.115219-.251419-.018356-.110336-.068527-.228149-.111908-.262848Z"/>
  <path class="uuid-d886842a-faa0-4858-9b11-c5454bf6ca70" d="m75.726318,162.384872c.548401-.489838.997803-.639038,1.209808-.743439.221436-.096664.270782-.144913.168182-.173508-.103394-.020508-.375793-.029236-.85141.151947-.460083.166199-1.167664.648071-1.575745,1.376373-.10022.173355-.17691.339935-.236084.492889l-.021393.056793-.002563.007004-.000641.001755,1.704651.618973-.004761-.001816-.019073-.007263-.037994-.014465-.150177-.056992c-.098938-.037277-.196106-.073868-.29129-.109711-.373199-.137482-.71344-.262802-1.012878-.373093-.070251-.02536-.138-.049805-.203217-.073334l-.003571-.002747-.008057-.005219-.019135-.008682c-.049622-.018692-.085663-.044296-.101929-.095306.004852-.138504.035034-.326447.105194-.682709.03714-.186096.047302-.394424.020905-.447891-.02597-.053894-.027161-.141159-.003204-.194458.02478-.053604.032043-.134705.015594-.181335-.01535-.046371.010376-.112549.057983-.146072.060425-.042511.071014-.076599.034027-.114075-.028473-.02916-.024109-.079132.009216-.109467.09433-.08493.152222-.324509.104584-.435547-.032288-.075668-.027527-.084412.019409-.037277.035522.035446.06897.0336.078644-.004196.009338-.036606-.030579-.092133-.089142-.124298-.082855-.045578-.090363-.090988-.033112-.209503.04187-.086929.048676-.175598.016113-.208969-.041534-.042389-.031891-.075211.037689-.124527.055603-.039337.075684-.088974.049103-.120163-.055267-.065201.018433-.434479.083282-.41806.026703.00676.04184-.064758.034668-.159821-.007324-.094955.005066-.222443.028381-.284103.024292-.065369.009888-.114258-.034668-.116226-.04422-.00238-.06134-.064438-.040222-.148361.020142-.079956.065826-.137421.102051-.128311.046906.011795.051849-.010971.017395-.082138-.030914-.06424-.02417-.106049.02005-.119659.03717-.011612.062225-.066177.055206-.120819-.006866-.054825.03006-.113693.081299-.130447.067627-.021835.074127-.035751.022034-.049835-.039856-.010712-.061584-.065521-.048126-.121292.020721-.086746.013-.091141-.053741-.028702-.06192.05835-.070923.046082-.045074-.061935.018036-.074112.018158-.191284.000275-.261368-.018066-.069626-.011658-.121414.014435-.114914.026062.006516.12146-.271606.212158-.616669.12384-.470322.202759-.672043.313812-.798935.10257-.118271.161316-.25769.191742-.458527.025085-.161453.062378-.304657.083923-.318024.024933-.010788.050598-.144043.170502-.560211.086182-.377914.24588-.661697.300018-.709183.025482-.015198.05072-.047226.070862-.086121.01413-.024826.016052-.040421.012329-.064163-.005219-.025436.028259-.139709.094849-.328354l.02652-.074203c.032471-.08223.066437-.168182.101807-.257751.129883-.322342.270264-.670776.420624-1.043991.288452-.751373.615234-1.602554.976318-2.543152,1.401398-3.776901,3.152222-9.070572,4.593903-15.290298.702271-2.975082,1.14856-5.691208,1.179504-6.003143.03064-.329422.093536-.650146.150452-.765244.055084-.108559.104248-.34761.112366-.530617.058716-.429024.718323-5.247169.746796-5.455162.011719-.028221.061432-.404945.132172-.989326.077393-.583702.149872-1.377655.226074-2.238152.032898-.378822.067078-.772469.102081-1.175423.007019-.11454.014221-.231728.021515-.349998.016632-.143188-.070435-.233208-.177948-.26236-.373718-.02623-.734192-.051529-1.061218-.074478-1.083801-.07325-2.056305-.144157-2.849976-.216003-1.46109-.116234-3.045868-.260277-3.519318-.270638-.478394-.017647-.952728-.066605-1.06369-.103943-.054535-.022087-1.141693-.133949-2.843079-.347176-1.702393-.204124-4.018738-.511826-6.534119-.892303-5.033875-.738724-10.371796-1.837852-11.900269-2.173065-1.985748-.421425-3.721405-.828758-5.213806-1.18692-.732391-.176987-1.40564-.339691-2.019775-.488106-.414215-.095901-.788544-.182571-1.122955-.26001-.322632-.065498-.487915-.083031-.506409-.061874-.024628.027435-.077393.010368-.125641-.040993-.066833-.07132-.117004-.07016-.255463.006348-.135498.07354-.189209.078865-.259155.014282-.062836-.057892-.113159-.066612-.171539-.03009-.061523.038338-.085358.030861-.094513-.029663-.009308-.061844-.026398-.066963-.070618-.019714-.062164.06604-.168976.042603-.260162-.052376-.031769-.033516-.094788-.034409-.142242-.002602-.046051.0308-.111725.039581-.144592.01889-.033081-.020729-.13562-.009186-.226685.028503-.179626.079552-.570587.058029-.600037-.029076-.010345-.030952-.046204-.039337-.07959-.019417-.086731.052238-.231232.041679-.195557-.013298.016815-.02578-.015045-.052979-.070221-.0597-.055115-.006729-.093109.009026-.083832.035255.009613.026779-.099609.036133-.233978.034286-.190796-.006538-.254456-.032578-.283783-.115051-.03595-.10006-.039246-.099869-.047638-.001839-.004974.057373-.024536.105148-.04306.106117-.325195.029076-.586365.009346-.603699-.034401-.013458-.032669-.043121-.058563-.066742-.058601-.023834-.000038-.031219.026337-.017151.06031.014191.033226.006714.060066-.016815.060013-.022858-.000053-.054565-.030243-.069916-.066681-.015259-.036476-.084259-.054482-.152069-.041306-.067566.013618-.133759.000465-.145142-.025322-.012268-.026993-.038208-.034515-.056671-.016518-.018494.018272-.079773.009384-.136444-.019073-.085144-.043663-.106842-.032997-.118073.059029-.013855.117249-.127686.131424-.180542.033218-.016571-.029671-.10083-.055893-.187439-.058037-.183899-.004898-.221558-.033989-.14978-.115776.045502-.052353.044617-.060104-.009125-.056564-.033844.003181-.081085.036819-.101044.082924-.029846.064423-.044617.054916-.075165-.044296-.026398-.086014-.057587-.110771-.0979-.08075-.03186.024574-.048584.020599-.036957-.008263.03299-.079277-.077393-.200508-.171844-.18734-.064209.008919-.074707-.005516-.046875-.066208.052704-.112854.037048-.155602-.07431-.182388-.082428-.018341-.088989-.029327-.048035-.090782.043854-.056297.035004-.074181-.04776-.088821-.116669-.019913-.139221-.08709-.056305-.191246.051239-.063454.051056-.083885-.005646-.118156-.042053-.025978-.088501-.147293-.121094-.318054-.033508-.17701-.076263-.282692-.119049-.293549-.048889-.012589-.060791-.049294-.042664-.139214.01355-.066498.006714-.117432-.015717-.112686-.072205.015305-.227081-.272774-.174957-.332741.035339-.040016.024902-.085999-.044708-.180168-.124176-.169464-.248016-.580566-.209717-.737167.023254-.094315.012482-.13324-.042358-.148537-.058746-.015457-.061768-.029991-.01236-.069733.051056-.040573.046661-.064064-.02774-.128136-.06897-.059189-.07254-.071411-.01297-.048882.042755.016022.072357.001358.065308-.032364-.011292-.054497-.087769-.06942-.186707-.036644-.035248.011307-.03952-.002022-.172974-.413284-.051208-.158134-.125275-.338379-.164154-.402534-.051392-.083435-.042206-.146744.036621-.229118.064178-.066574.087646-.147041.054779-.194557-.033569-.048073-.014435-.107727.047516-.147621.097992-.063393.097046-.068413-.02829-.084335-.176697-.022583-.320618-.42627-.15387-.461411.080109-.01683.085236-.035561.01889-.073044-.066101-.037758-.072266-.089859-.020142-.203804.043793-.095009.042419-.207954-.005737-.297142-.050598-.093658-.049652-.149506.003265-.160568.050964-.010635.033905-.04351-.046387-.086586-.070862-.03804-.136261-.100586-.14386-.138634-.009674-.047882.009491-.049423.060822-.005081.060669.051384.086182.044502.139771-.037453.052917-.081306.035797-.101768-.090851-.102249-.108765-.000687-.145325-.028381-.115814-.090714.023315-.048592.043823-.11097.044403-.13607.001221-.025955.008514-.054398.016876-.064621.00827-.010468.008575-.086075.000488-.168968-.007904-.082878.000671-.197136.01889-.254784.018677-.058205.023743-.127815.011108-.155891-.044952-.099419.036011-.336227.109863-.318123.088745.020355.197906-.303696.122375-.36898-.030243-.026413.002228-.056168.073059-.067047.077148-.011826.100922-.043823.059601-.080276-.046448-.040787-.023529-.05471.069275-.042625.076233.009956.133423-.009422.128326-.043198-.005157-.033554.035461-.048012.089783-.031822.0672.019699.078156-.000885.033142-.063164-.055786-.077362-.03891-.086128.101074-.052765.090973.022285.163361.018387.160156-.007263-.013428-.109383.29834-.239357.457062-.189896.157074.04657.431274-.015022.365662-.082687-.045074-.055405.56015-.088257.629425-.033752.031616.0214.104431-.000389.164001-.049614.058899-.048271.162201-.075653.225616-.058884.065094.015236.177185.008934.250427-.01458.201721-.067047.797028-.085541.793976-.024628-.001617.064613.290161.054771.492676-.016068.083496-.028397.319855-.047035.511322-.02491.193329.019669.352112.015167.354462-.010841.002289-.026299.070038-.011589.150818.03257.105896.058067.174744.063454.251617.022209.06308-.033646.118164-.0308.139801.006462.020782.035896.142365.054253.293793.043961.203339-.013268.270905.005417.310822.086502.042664.084488.072571.091774.170044.042229.065125-.032791.206146-.038918.312286-.013062.10614.025528.227051.035416.268555.021736.108154-.035805.371185.112846.356415.195816-.00766.045258.019562.054947.081299.027611.117004-.052002.694885.03186.631165.09201-.023315.023033.072998.081772.212616.130241.139557.049217.250488.109039.245667.132698-.005096.024086.080719.066383.186951.095734.104858.029518.229248.106949.27478.170715.067688.095222.095642.104469.152252.050484.053619-.051613.092499-.044716.175354.02906.010193.009811.084839.031326.20752.065681.061981.016418.136993.036301.224152.059395.283691.068619.606934.146782.966644.23378,2.470184.615883,5.721649,1.41391,9.75592,2.218262,4.008148.806335,8.696716,1.598579,13.745453,2.224495,2.524384.311821,5.138184.584526,7.79953.804581,1.330719.11013,2.673431.203415,4.022339.288841,1.183807.136841,2.370087.273972,3.557739.411255.634033.022324,1.169922.238693,1.695282.517075.523041.276825,1.017181.625618,1.455353,1.037476.881256.819069,1.529816,1.897171,1.838074,3.026047.031769.142052.079834.280045.098206.4254l-.00354.450569-.00708.900871-.014038,1.800308-.006989.899231-.003479.449341-.023254.277916-.098328,1.064636c-.066772.708748-.125214,1.416519-.211334,2.118744-.294189,2.814743-.707458,5.574295-1.165161,8.239632-.919525,5.331863-2.141907,10.26445-3.378265,14.479736-1.234375,4.2173-2.496094,7.714203-3.46759,10.219101-.232697.630325-.466614,1.191315-.665558,1.691284-.091644.228973-.177338.443161-.256897.641968-.013489.037979-.025909.073013-.037262.105011-.04483.12822-.069916.208664-.07251.234421.001709.037643-.041473.173218-.036896.182724.016052-.02301.012573-.006363.004181-.00325-.014771.010529-.004669.021011.024811.025345.038666.005676.064636.017578.119598.036667.052673-.007401.03595.073944-.005371.069641-.037781.00209-.075378.099503-.090454.235336-.016266.149246-.061554.257629-.129272.30719-.091705.066757-.087891.074677.035309.067093.113708-.00679.138702.019958.13916.148987,0,.189072-.095673.341156-.168213.266983-.081177-.083145-.081268.155212-.000427.262695.060822.081055.057068.089905-.032135.069168-.100586-.023361-.186676.137955-.126617.237152.045715.077011-.008148.356918-.05896.304535-.062317-.063965-.068634-.015396-.031616.232056.018036.116592-.009033.352524-.059204.526535-.050598.173752-.068878.344223-.040558.379684.035492.045319.027893.067459-.026031.074905-.041809.005981-.070374.056961-.063995.113358.007812.068192-.007965.082718-.045837.043289-.034363-.035538-.066803-.022858-.080658.032227-.012665.050308.00116.097412.03006.104675.029572.007446.026825.083572-.005524.170074-.032654.086639-.041199.194565-.019257.24144.045013.097305-.045197.214432-.112244.144958-.039795-.04187-.083099.216629-.072937.436859.001709.042969-.023682.071625-.056824.063217-.03241-.008224-.049866.015854-.038605.05307.011322.036758-.019775.057114-.068298.0448-.068878-.017487-.08606.010696-.074097.121384.017761.160049-.082062.499512-.188538.644226-.040161.055145-.044403.161499-.012238.261551.034241.105316.029205.177368-.013153.190948-.037659.011932-.059631.05011-.048859.085419.010864.035843-.009399.056656-.045319.047333-.066956-.016739-.122131.276306-.081207.421753.012146.040985-.018799.078842-.067169.084976-.058655.007156-.096405.076416-.111389.20282-.012604.105072-.050476.203461-.084351.21698-.032532.012344-.135529.112701-.227692.219986-.130432.152847-.196075.182831-.302338.140076-.104004-.041855-.143768-.025772-.170013.070465-.02536.093887-.062836.118149-.141998.064026-.058319-.037567-.113403-.041122-.122833-.008179-.00943.03302-.076019.010208-.149231-.04985-.082428-.067871-.163269-.092484-.215149-.065613-.045929.024017-.204132.030182-.352631.01387-.149231-.016327-.378876-.006424-.512665.021606-.203278.042587-.254852.031128-.321472-.06308-.043427-.061951-.100769-.105606-.126801-.097183-.026276.008392-.201447-.013184-.391266-.049179-.18927-.035324-.386932-.044724-.440491-.020203-.065063.03096-.093719.025253-.0802-.018875.019745-.068771-.507904-.223907-.576385-.172211-.023285.017624-.138367.019974-.251862.0009-.113922-.018051-.271729-.035233-.349091-.03772-.077484-.002289-.166199-.043869-.198212-.089569-.054352-.080704-.532227-.230164-.547882-.18306-.004211.013153-.285736-.061249-.624542-.167725-.330231-.097519-.558594-.164963-.723358-.213623-.080017-.018097-.143921-.032562-.199005-.045044-.025024-.00354-.047852-.006775-.06958-.009842.0065.003647-.036011-.010223.0112.008026l.289368.10817.300781.113571.076996.029266.038757.014755.009735.003708.004852.001862.002441.000916-.780823-.283752.003021-.010605.027283-.08725c.25531-.681595.558655-1.062195.106842-.737503-.192627.168411-.267029.19223-.25296.069855.019043-.116562.142212-.403427.502289-.739349Z"/>
</svg>